<?xml version="1.0" encoding="UTF-8" standalone="no"?>
<svg
   width="34.580353mm"
   height="34.5798mm"
   viewBox="0 0 34.580353 34.5798"
   version="1.1"
   id="svg307679"
   inkscape:version="1.1-alpha (ee0d280, 2021-03-14)"
   sodipodi:docname="support_icon_time.svg"
   xmlns:inkscape="http://www.inkscape.org/namespaces/inkscape"
   xmlns:sodipodi="http://sodipodi.sourceforge.net/DTD/sodipodi-0.dtd"
   xmlns="http://www.w3.org/2000/svg"
   xmlns:svg="http://www.w3.org/2000/svg">
  <sodipodi:namedview
     id="namedview307681"
     pagecolor="#ffffff"
     bordercolor="#666666"
     borderopacity="1.0"
     objecttolerance="10.0"
     gridtolerance="10.0"
     guidetolerance="10.0"
     inkscape:pageshadow="2"
     inkscape:pageopacity="0.0"
     inkscape:pagecheckerboard="0"
     inkscape:document-units="px"
     showgrid="false"
     inkscape:zoom="0.75187991"
     inkscape:cx="174.22995"
     inkscape:cy="209.47494"
     inkscape:window-width="1920"
     inkscape:window-height="1016"
     inkscape:window-x="0"
     inkscape:window-y="1107"
     inkscape:window-maximized="1"
     inkscape:current-layer="layer1" />
  <defs
     id="defs307676" />
  <g
     inkscape:label="Layer 1"
     inkscape:groupmode="layer"
     id="layer1"
     transform="translate(-30.697095,-93.343524)">
    <g
       id="g307584"
       style="display:inline"
       transform="matrix(0.26458333,0,0,0.26458333,-685.10363,-65.839002)">
      <path
         id="path179832"
         style="opacity:1;fill:#999999;stroke-width:0.65777"
         d="m 2770.7382,601.63475 c -36.078,0 -65.3496,29.2696 -65.3496,65.34765 0,36.07805 29.2716,65.34766 65.3496,65.34766 36.078,0 65.3478,-29.26961 65.3478,-65.34766 0,-36.07805 -29.2698,-65.34765 -65.3478,-65.34765 z m 0,2.13867 c 34.9213,0 63.2072,28.28762 63.2072,63.20898 0,34.92137 -28.2859,63.20703 -63.2072,63.20703 -34.9213,0 -63.2089,-28.28566 -63.2089,-63.20703 0,-34.92136 28.2876,-63.20898 63.2089,-63.20898 z m -0.057,2.60351 a 1.3693241,1.3693241 0 0 0 -1.3692,1.36719 v 8.95313 a 1.3693241,1.3693241 0 0 0 1.3692,1.36914 1.3693241,1.3693241 0 0 0 1.3691,-1.36914 v -8.95313 a 1.3693241,1.3693241 0 0 0 -1.3691,-1.36719 z m -29.5527,7.88282 a 1.3693241,1.3693241 0 0 0 -0.506,0.17187 1.3693241,1.3693241 0 0 0 -0.5,1.86914 l 4.4746,7.75391 a 1.3693241,1.3693241 0 0 0 1.8712,0.5 1.3693241,1.3693241 0 0 0 0.5,-1.8711 l -4.4766,-7.75195 a 1.3693241,1.3693241 0 0 0 -0.83,-0.63672 1.3693241,1.3693241 0 0 0 -0.5332,-0.0351 z m 59.1053,0 a 1.3693241,1.3693241 0 0 0 -0.5311,0.0351 1.3693241,1.3693241 0 0 0 -0.8322,0.63672 l -4.4764,7.75195 a 1.3693241,1.3693241 0 0 0 0.5,1.8711 1.3693241,1.3693241 0 0 0 1.873,-0.5 l 4.4746,-7.75391 a 1.3693241,1.3693241 0 0 0 -0.5019,-1.86914 1.3693241,1.3693241 0 0 0 -0.506,-0.17187 z m -30.5625,15.57421 c -2.2693,0 -4.5056,0.82238 -6.1171,2.4668 l -27.0996,27.75781 c -10.2611,10.26121 6.6425,9.40627 12.7598,13.28711 2.8284,1.84175 -9.0762,4.21078 -6.6426,6.64453 2.368,2.43375 14.2746,4.66913 16.6426,7.03711 2.3679,2.43375 -4.8035,4.99985 -2.4356,7.4336 2.3023,2.43375 7.8279,0.13099 8.8145,5.65625 0.7235,4.07818 10.1301,2.03892 14.3397,-1.44727 2.6313,-2.23641 -4.5398,-2.23618 -2.1718,-4.66992 5.92,-5.98571 11.183,-2.69544 13.3536,-8.2207 1.1839,-2.95996 -8.9451,-5.06708 -6.2482,-6.97461 6.4463,-4.53861 30.126,-6.84079 19.2071,-17.75977 l -28.0879,-28.74414 c -1.7432,-1.64442 -4.0452,-2.4668 -6.3145,-2.4668 z m 0.2306,2.63868 c 1.6279,0.008 3.2554,0.61874 4.4393,1.80273 l 10.7228,10.91797 c 0.9865,0.98665 0.9845,3.0252 0.3925,3.61719 l -5.3262,-4.33985 -1.0526,6.37891 -4.4064,-2.36719 -7.1699,4.53906 -2.3672,-9.53711 -3.8164,8.28711 -9.5371,-0.0664 c -1.8417,0 -1.5794,-1.90693 0.3281,-3.81445 3.7493,-4.14396 11.0514,-11.18149 13.3535,-13.61524 1.184,-1.21687 2.8115,-1.81095 4.4396,-1.80273 z m -49.92,3.28906 a 1.3693241,1.3693241 0 0 0 -0.5332,0.0352 1.3693241,1.3693241 0 0 0 -0.8321,0.63868 1.3693241,1.3693241 0 0 0 0.502,1.87109 l 7.7539,4.47461 a 1.3693241,1.3693241 0 0 0 1.8691,-0.50195 1.3693241,1.3693241 0 0 0 -0.5019,-1.86914 l -7.752,-4.47657 a 1.3693241,1.3693241 0 0 0 -0.5058,-0.17187 z m 101.3984,0 a 1.3693241,1.3693241 0 0 0 -0.5059,0.17187 l -7.7519,4.47657 a 1.3693241,1.3693241 0 0 0 -0.5,1.86914 1.3693241,1.3693241 0 0 0 1.8691,0.50195 l 7.7539,-4.47461 a 1.3693241,1.3693241 0 0 0 0.5,-1.87109 1.3693241,1.3693241 0 0 0 -0.832,-0.63868 1.3693241,1.3693241 0 0 0 -0.5332,-0.0352 z m -109.4473,29.36328 a 1.3693241,1.3693241 0 0 0 -1.3711,1.36914 1.3693241,1.3693241 0 0 0 1.3711,1.36914 h 8.9512 a 1.3693241,1.3693241 0 0 0 1.3693,-1.36914 1.3693241,1.3693241 0 0 0 -1.3693,-1.36914 z m 108.5451,0 a 1.3693241,1.3693241 0 0 0 -1.3693,1.36914 1.3693241,1.3693241 0 0 0 1.3693,1.36914 h 8.951 a 1.3693241,1.3693241 0 0 0 1.3712,-1.36914 1.3693241,1.3693241 0 0 0 -1.3712,-1.36914 z m -63.4357,9.73437 c 0.592,0 20.2597,2.63084 12.6954,4.66993 -2.8943,0.78932 -16.1816,-4.66993 -12.6954,-4.66993 z m 42.8125,7.59766 c -2.2776,0.0823 -4.5974,1.2174 -5.1893,3.32227 0,1.38132 10.7228,2.16945 10.1307,-0.33008 -0.4276,-2.10486 -2.6639,-3.07441 -4.9414,-2.99219 z m -47.1133,5.97656 c -3.0977,0.18335 -6.4138,2.43063 -3.7909,4.64649 2.4337,2.10487 6.1189,-0.46191 7.3028,-3.42188 -0.7401,-0.96609 -2.1039,-1.30796 -3.5119,-1.22461 z m 40.6095,0.23828 c -3.0258,2.76265 0.5263,5.65754 3.4863,3.75 0.7893,-0.5262 -0.066,-3.09223 -3.4863,-3.75 z m -65.9726,1.36329 a 1.3693241,1.3693241 0 0 0 -0.506,0.17187 l -7.7539,4.47656 a 1.3693241,1.3693241 0 0 0 -0.502,1.8711 1.3693241,1.3693241 0 0 0 1.8712,0.5 l 7.752,-4.47656 a 1.3693241,1.3693241 0 0 0 0.5018,-1.86915 1.3693241,1.3693241 0 0 0 -0.832,-0.63867 1.3693241,1.3693241 0 0 0 -0.5311,-0.0351 z m 86.6073,0 a 1.3693241,1.3693241 0 0 0 -0.5331,0.0351 1.3693241,1.3693241 0 0 0 -0.8302,0.63867 1.3693241,1.3693241 0 0 0 0.5,1.86915 l 7.752,4.47656 a 1.3693241,1.3693241 0 0 0 1.871,-0.5 1.3693241,1.3693241 0 0 0 -0.5,-1.8711 l -7.7538,-4.47656 a 1.3693241,1.3693241 0 0 0 -0.5058,-0.17187 z m -68.0234,18.22656 a 1.3693241,1.3693241 0 0 0 -0.5333,0.0351 1.3693241,1.3693241 0 0 0 -0.832,0.63868 l -4.4746,7.75195 a 1.3693241,1.3693241 0 0 0 0.5,1.87109 1.3693241,1.3693241 0 0 0 1.8691,-0.50195 l 4.4766,-7.75195 a 1.3693241,1.3693241 0 0 0 -0.5,-1.8711 1.3693241,1.3693241 0 0 0 -0.5059,-0.17187 z m 49.4395,0 a 1.3693241,1.3693241 0 0 0 -0.5079,0.17187 1.3693241,1.3693241 0 0 0 -0.5,1.8711 l 4.4765,7.75195 a 1.3693241,1.3693241 0 0 0 1.8693,0.50195 1.3693241,1.3693241 0 0 0 0.5018,-1.87109 l -4.4746,-7.75195 a 1.3693241,1.3693241 0 0 0 -0.832,-0.63868 1.3693241,1.3693241 0 0 0 -0.5332,-0.0351 z m -24.7208,6.66015 a 1.3693241,1.3693241 0 0 0 -1.3692,1.36915 v 8.95312 a 1.3693241,1.3693241 0 0 0 1.3692,1.36914 1.3693241,1.3693241 0 0 0 1.3691,-1.36914 V 716.291 a 1.3693241,1.3693241 0 0 0 -1.3691,-1.36915 z" />
      <path
         id="path179836"
         style="opacity:0.5;fill:#b3b3b3;stroke-width:2.14026;stroke-linecap:round;stroke-linejoin:round;paint-order:stroke markers fill;stop-color:#000000"
         d="m 2826.4039,634.84325 a 64.277969,64.277969 0 0 1 -10.215,77.59038 64.277969,64.277969 0 0 1 -77.5903,10.21496 64.277969,64.277969 0 0 1 -29.9488,-72.30271 64.277969,64.277969 0 0 1 62.0877,-47.64161 v 64.27797 z" />
    </g>
  </g>
</svg>
