<svg id="Layer_5" enable-background="new 0 0 64 64" height="512" viewBox="0 0 64 64" width="512" xmlns="http://www.w3.org/2000/svg"><g><g><g><path d="m62 2v20h-3.7-.01c-.34-.72-.8-1.37-1.36-1.93-.81-.81-1.81-1.42-2.93-1.76v-14.31-2z" fill="#b4dd7f"/></g><g><path d="m31 10c-.55 0-1.05-.22-1.41-.59-.37-.36-.59-.86-.59-1.41 0-1.1.9-2 2-2h8c-.83 0-1.58-.34-2.12-.88s-.88-1.29-.88-2.12c0-.55.45-1 1-1h8.58c.94 0 1.85.22 2.69.63l2.73 1.37h3v14.31c-.65-.2-1.35-.31-2.07-.31-1.88 0-3.67.74-5 2.07l-.93.93-.93-.93c-1.33-1.33-3.12-2.07-5-2.07-.02 0-.05 0-.07 0h-8-3c-.55 0-1.05-.22-1.41-.59-.37-.36-.59-.86-.59-1.41 0-1.1.9-2 2-2h-1c-.55 0-1.05-.22-1.41-.59-.37-.36-.59-.86-.59-1.41 0-1.1.9-2 2-2z" fill="#f0d0b4"/></g><g><path d="m32 18h8c-2.77.03-5.16 1.65-6.29 4h-1.71c-1.1 0-2-.9-2-2 0-.55.22-1.05.59-1.41.36-.37.86-.59 1.41-.59z" fill="#f0d0b4"/></g><g><circle cx="12" cy="12" fill="#fcd770" r="10"/></g><g><path d="m25.93 28.07c-1.28-1.28-3.05-2.07-5-2.07-1.88 0-3.67.74-5 2.07l-.93.93-.93-.93c-1.33-1.33-3.12-2.07-5-2.07-3.9 0-7.07 3.17-7.07 7.07v.65c0 2.08.92 4.05 2.5 5.4l.82.69.68-1.81h8 4 8.56c.93-1.22 1.44-2.72 1.44-4.28v-.65c0-1.95-.79-3.72-2.07-5z" fill="#ff826e"/></g><g><path d="m58.29 22c-.34-.72-.8-1.37-1.36-1.93-.81-.81-1.81-1.42-2.93-1.76-.65-.2-1.35-.31-2.07-.31-1.88 0-3.67.74-5 2.07l-.93.93-.93-.93c-1.33-1.33-3.12-2.07-5-2.07-.02 0-.05 0-.07 0-2.77.03-5.16 1.65-6.29 4-.46.93-.71 1.97-.71 3.07v.65c0 2.08.92 4.05 2.5 5.4l8.14 6.88h2.36 2.36l8.14-6.88c1.58-1.35 2.5-3.32 2.5-5.4v-.65c0-1.1-.25-2.14-.71-3.07z" fill="#ff826e"/></g><g><path d="m26.56 38h2.44l-3 8h-20-3l2.32-6.19.68-1.81h8 4z" fill="#d3a06c"/></g><g><path d="m48.36 38h9.64l3 8h-3-24l-3-8h12.64 2.36z" fill="#d3a06c"/></g><g><path d="m34 46-3-8h-1-1l-3 8h-20v1 15h24 28v-15-1z" fill="#cf9e76"/></g><g><path d="m46 54h8v4h-8z" fill="#e6e9ed"/></g></g><g><path d="m63 1h-10v2h-1.764l-2.522-1.261c-.967-.484-2.049-.739-3.131-.739h-8.583c-1.103 0-2 .897-2 2 0 .732.212 1.409.556 2h-4.556c-1.654 0-3 1.346-3 3 0 .352.072.686.184 1h-.184c-1.654 0-3 1.346-3 3 0 1.065.562 1.997 1.401 2.529-.248.437-.401.934-.401 1.471 0 1.654 1.346 3 3 3h.184c-.112.314-.184.648-.184 1 0 1.654 1.346 3 3 3h.279c-.176.662-.279 1.354-.279 2.071v.649c0 2.379 1.042 4.625 2.857 6.161l6.049 5.119h-12.633c.459-1.031.727-2.146.727-3.279v-.649c0-4.451-3.621-8.072-8.071-8.072-2.156 0-4.183.84-5.707 2.364l-.222.222-.222-.222c-1.524-1.524-3.551-2.364-5.707-2.364-4.45 0-8.071 3.621-8.071 8.071v.649c0 2.379 1.042 4.624 2.857 6.161l.28.237-2.58 6.882h3.443v16h54v-16h3.443l-3.75-10h-7.599l6.049-5.118c1.815-1.537 2.857-3.782 2.857-6.162v-.649c0-.717-.103-1.409-.279-2.071h3.279zm-35 15c0-.551.449-1 1-1h11v-2h-11-1c-.551 0-1-.449-1-1s.449-1 1-1h3 9v-2h-9c-.551 0-1-.449-1-1s.449-1 1-1h8 1 4v-2h-4-1c-1.103 0-2-.897-2-2h8.583c.772 0 1.545.183 2.236.528l2.945 1.472h2.236v12.08c-.351-.047-.707-.08-1.071-.08-2.156 0-4.183.84-5.707 2.364l-.222.222-.222-.222c-1.524-1.524-3.551-2.364-5.707-2.364-.024 0-.047.003-.071.004v-.004h-8-3c-.551 0-1-.449-1-1zm4 5c-.551 0-1-.449-1-1s.449-1 1-1h2.77c-.654.572-1.214 1.247-1.656 2zm-29 12.721v-.649c0-3.348 2.724-6.072 6.071-6.072 1.622 0 3.146.631 4.293 1.778l1.636 1.636 1.636-1.636c1.147-1.147 2.671-1.778 4.293-1.778 3.347 0 6.071 2.724 6.071 6.071v.649c0 1.162-.359 2.303-.987 3.279h-8.013-4c-.551 0-1-.448-1-1v-1h3c.551 0 1 .448 1 1h2c0-1.654-1.346-3-3-3v-2h-2v2h-3v3c0 .352.072.686.184 1h-5.877l-.416 1.11c-1.202-1.142-1.891-2.719-1.891-4.388zm1.443 11.279 2.25-6h7.307 4 9.557l-2.25 6zm2.557 2h19.693l2.307-6.152v20.152h-22zm50 14h-26v-20.152l2.307 6.152h23.693zm2.557-16h-24.864l-2.25-6h24.864zm-1.557-19.28c0 1.79-.783 3.479-2.149 4.635l-7.854 6.645h-.997v-2h3v-3c0-1.654-1.346-3-3-3h-2c-.551 0-1-.449-1-1v-1h3c.551 0 1 .449 1 1h2c0-1.654-1.346-3-3-3v-2h-2v2h-3v3c0 1.654 1.346 3 3 3h2c.551 0 1 .449 1 1v1h-3c-.551 0-1-.449-1-1h-2c0 1.654 1.346 3 3 3v2h-.997l-7.854-6.646c-1.366-1.155-2.149-2.844-2.149-4.634v-.649c0-3.347 2.724-6.071 6.071-6.071 1.622 0 3.146.631 4.293 1.778l1.636 1.636 1.636-1.636c1.147-1.147 2.671-1.778 4.293-1.778 3.347 0 6.071 2.724 6.071 6.071zm3-4.72h-2.114c-.889-1.513-2.25-2.714-3.886-3.39v-14.61h6z"/><path d="m11 15c-.551 0-1-.449-1-1h-2c0 1.654 1.346 3 3 3v2h2v-2h3v-3c0-1.654-1.346-3-3-3h-2c-.551 0-1-.449-1-1v-1h3c.551 0 1 .449 1 1h2c0-1.654-1.346-3-3-3v-2h-2v2h-3v3c0 1.654 1.346 3 3 3h2c.551 0 1 .449 1 1v1z"/><path d="m12 23c6.065 0 11-4.935 11-11s-4.935-11-11-11-11 4.935-11 11 4.935 11 11 11zm0-20c4.962 0 9 4.038 9 9s-4.038 9-9 9-9-4.038-9-9 4.038-9 9-9z"/><path d="m55 53h-10v6h10zm-2 4h-6v-2h6z"/><path d="m17 57h2v2h-2z"/><path d="m25 57h2v2h-2z"/><path d="m21 57h2v2h-2z"/><path d="m17 53h10v2h-10z"/></g></g></svg>