<?xml version="1.0" encoding="UTF-8" standalone="no"?>
<svg xmlns:dc="http://purl.org/dc/elements/1.1/" xmlns:cc="http://web.resource.org/cc/" xmlns:rdf="http://www.w3.org/1999/02/22-rdf-syntax-ns#" xmlns:svg="http://www.w3.org/2000/svg" xmlns="http://www.w3.org/2000/svg" xmlns:xlink="http://www.w3.org/1999/xlink" width="128" height="128" id="svg1307" version="1.0">
    <g transform="translate(-22,-38) scale(1.2)">
        <path d="M 79.78125,48 C 75.471355,48 72,51.471355 72,55.78125 L 72,64 L 24,64 L 24,120 L 120,120 L 120,55.78125 C 120,51.471355 116.52865,48 112.21875,48 L 79.78125,48 z " style="opacity:1;fill:#12121200;stroke:#000;stroke-width:8;stroke-linecap:round;"/>
    </g>
    <g transform="scale(0.25) translate(-80, 128)" fill="#000000">
        <polygon points="287.976,144.369 274.732,112.393 193.561,112.393 193.561,149.856 229.51,149.856 186.56,192.805 199.805,224.783 280.976,224.783 280.976,187.32 245.027,187.32 		"/>
        <polygon points="394.123,119.391 380.878,87.415 299.707,87.415 299.707,124.878 335.656,124.878 292.707,167.829 305.951,199.805 387.122,199.805 387.122,162.341 351.173,162.341 		"/>
        <polygon points="500.269,94.415 487.024,62.439 405.854,62.439 405.854,99.902 441.802,99.902 398.853,142.853 412.098,174.829 493.268,174.829 493.268,137.366 457.32,137.366 		"/>
    </g>    
</svg>
