<?xml version="1.0" encoding="UTF-8" standalone="no"?>
<svg xmlns:dc="http://purl.org/dc/elements/1.1/" xmlns:cc="http://web.resource.org/cc/" xmlns:rdf="http://www.w3.org/1999/02/22-rdf-syntax-ns#" xmlns:svg="http://www.w3.org/2000/svg" xmlns="http://www.w3.org/2000/svg" xmlns:xlink="http://www.w3.org/1999/xlink" width="128" height="128" id="svg1307" version="1.0">
    <g transform="translate(-22,-38) scale(1.2)">
        <path d="M 79.78125,48 C 75.471355,48 72,51.471355 72,55.78125 L 72,64 L 24,64 L 24,120 L 120,120 L 120,55.78125 C 120,51.471355 116.52865,48 112.21875,48 L 79.78125,48 z " style="opacity:1;fill:#12121200;stroke:#000;stroke-width:8;stroke-linecap:round;"/>
    </g>
    <g transform="scale(0.20) translate(64, 48)" fill="#000000">
		<path d="M312.195,193.561c0-3.443,2.801-6.244,6.244-6.244H425.03c-0.293,2.041-0.445,4.125-0.445,6.244v37.463 c0,30.987-25.208,56.195-56.195,56.195c-30.987,0-56.195-25.208-56.195-56.195L312.195,193.561L312.195,193.561z"/>
		<path d="M86.97,187.317 h106.591c3.443,0,6.244,2.801,6.244,6.244v37.463c0,30.987-25.208,56.195-56.195,56.195s-56.195-25.208-56.195-56.195v-37.463 C87.415,191.442,87.264,189.358,86.97,187.317z"/>
        <path d="M339.256,335.306c-16.99,32.929-47.335,51.816-83.256,51.816c-35.922,0-66.267-18.885-83.256-51.814l-33.293,17.176 c23.291,45.148,66.861,72.102,116.549,72.102c49.686,0,93.256-26.954,116.549-72.101L339.256,335.306z"/>
    </g>    
</svg>
