<?xml version="1.0" encoding="UTF-8" standalone="no"?>
<!DOCTYPE svg PUBLIC "-//W3C//DTD SVG 1.1//EN" "http://www.w3.org/Graphics/SVG/1.1/DTD/svg11.dtd">
<svg version="1.1" xmlns="http://www.w3.org/2000/svg" xmlns:xlink="http://www.w3.org/1999/xlink" preserveAspectRatio="xMidYMid meet" viewBox="0 0 16 16" width="16" height="16"><defs><path d="M11.34 0L11.79 0L12.16 0.02L12.46 0.03L12.69 0.06L12.88 0.09L13.02 0.14L13.14 0.2L13.24 0.27L13.34 0.36L13.44 0.47L13.54 0.57L13.62 0.67L13.68 0.77L13.73 0.88L13.77 1.01L13.81 1.17L13.83 1.37L13.84 1.62L13.85 1.92L13.86 2.29L13.86 2.74L13.86 3.26L13.86 5.33L14.35 5.33L14.49 5.33L14.61 5.34L14.73 5.36L14.85 5.38L14.95 5.4L15.05 5.44L15.15 5.48L15.24 5.53L15.33 5.59L15.41 5.65L15.5 5.72L15.58 5.8L15.68 5.91L15.76 6L15.82 6.12L15.88 6.26L15.92 6.46L15.95 6.74L15.97 7.11L15.98 7.59L15.99 8.22L16 9L16 9.96L16 11.12L16 15.72L15.82 15.86L15.78 15.89L15.72 15.92L15.61 15.94L15.45 15.95L15.19 15.97L14.83 15.98L14.33 15.99L13.68 15.99L12.84 15.99L11.81 16L10.54 16L9.02 16L2.4 16L2.27 15.82L2.24 15.78L2.21 15.73L2.19 15.67L2.17 15.59L2.16 15.48L2.15 15.33L2.14 15.14L2.14 14.88L2.13 14.57L2.13 14.18L2.13 13.71L2.13 13.16L2.13 10.66L1.2 10.66L0.99 10.66L0.81 10.66L0.66 10.66L0.54 10.66L0.45 10.65L0.37 10.64L0.31 10.63L0.27 10.61L0.23 10.59L0.2 10.56L0.17 10.53L0.14 10.49L0.1 10.45L0.08 10.39L0.06 10.32L0.04 10.21L0.02 10.05L0.01 9.82L0.01 9.52L0 9.12L0 8.62L0 8L0 7.25L0 6.36L0 2.4L0.17 2.27L0.21 2.24L0.26 2.21L0.33 2.19L0.42 2.17L0.55 2.16L0.73 2.15L0.96 2.14L1.27 2.13L1.65 2.13L2.12 2.13L2.69 2.13L3.37 2.13L6.4 2.13L6.4 1.66L6.4 1.59L6.4 1.52L6.4 1.46L6.41 1.39L6.42 1.32L6.42 1.26L6.43 1.19L6.45 1.13L6.46 1.08L6.47 1.03L6.49 0.98L6.5 0.94L6.54 0.86L6.59 0.78L6.64 0.7L6.7 0.62L6.76 0.54L6.83 0.47L6.9 0.4L6.97 0.33L7.05 0.27L7.13 0.21L7.21 0.17L7.3 0.12L7.36 0.1L7.43 0.07L7.51 0.06L7.62 0.04L7.75 0.03L7.92 0.02L8.13 0.01L8.4 0L8.73 0L9.12 0L9.58 0L10.13 0L10.79 0L11.34 0ZM10.74 5.89L10.2 5.91L9.91 5.93L9.78 5.97L9.65 6.03L9.52 6.12L9.41 6.22L9.31 6.33L9.23 6.46L9.16 6.6L9.12 6.74L9.11 6.8L9.1 6.89L9.09 6.98L9.09 7.09L9.08 7.19L9.07 7.3L9.07 7.41L9.06 7.51L9.06 8L2.66 8L2.66 15.46L15.46 15.46L15.46 11.24L15.46 10.39L15.45 9.59L15.45 8.84L15.44 8.18L15.43 7.62L15.42 7.18L15.41 6.88L15.4 6.74L15.36 6.59L15.3 6.45L15.21 6.33L15.11 6.21L15 6.11L14.87 6.03L14.73 5.96L14.59 5.92L14.3 5.9L13.76 5.89L13.04 5.88L12.25 5.87L11.45 5.88L10.74 5.89ZM8.87 0.55L8.36 0.56L7.98 0.58L7.78 0.6L7.67 0.62L7.56 0.67L7.46 0.73L7.36 0.8L7.28 0.88L7.19 0.98L7.12 1.08L7.06 1.18L7.02 1.29L6.99 1.4L6.98 1.46L6.97 1.52L6.97 1.59L6.96 1.67L6.95 1.75L6.95 1.84L6.94 1.92L6.94 2.01L6.93 2.1L6.93 2.18L6.93 2.66L0.53 2.66L0.53 10.13L2.13 10.13L2.13 9.6L1.06 9.6L1.06 3.2L7.46 3.2L7.46 2.26L7.46 2.03L7.47 1.84L7.47 1.68L7.48 1.56L7.48 1.46L7.5 1.38L7.51 1.32L7.54 1.27L7.56 1.23L7.6 1.2L7.64 1.16L7.69 1.13L7.76 1.11L7.88 1.09L8.04 1.08L8.27 1.07L8.59 1.07L8.99 1.06L9.5 1.06L10.13 1.06L10.76 1.06L11.27 1.06L11.67 1.07L11.98 1.07L12.22 1.08L12.38 1.09L12.5 1.11L12.57 1.13L12.62 1.16L12.66 1.2L12.7 1.24L12.73 1.28L12.75 1.35L12.76 1.45L12.78 1.59L12.79 1.79L12.79 2.05L12.79 2.39L12.8 2.81L12.8 3.33L12.8 5.33L13.33 5.33L13.33 3.51L13.33 3.21L13.32 2.92L13.32 2.65L13.31 2.38L13.31 2.14L13.3 1.93L13.29 1.74L13.29 1.59L13.28 1.47L13.27 1.4L13.24 1.29L13.19 1.17L13.13 1.07L13.06 0.97L12.98 0.88L12.89 0.8L12.79 0.73L12.68 0.67L12.57 0.62L12.46 0.59L12.25 0.57L11.87 0.56L11.35 0.55L10.76 0.54L10.11 0.54L9.47 0.54L8.87 0.55Z" id="c4suPVKvhr"></path><path d="M9.6 7.6C9.6 7.66 9.6 7.97 9.6 8.53L6.4 8.53L3.2 8.53L3.2 11.73L3.2 14.93L9.06 14.93L14.93 14.93C14.93 12.45 14.93 11.07 14.93 10.8C14.93 6.75 14.93 6.66 14.8 6.53C14.67 6.4 14.58 6.4 12.26 6.4C9.95 6.4 9.86 6.4 9.73 6.53C9.61 6.65 9.6 6.75 9.6 7.6Z" id="h1XFVvyoIX"></path></defs><g><g><g><use xlink:href="#c4suPVKvhr" opacity="1" fill="#d8d8d8" fill-opacity="0.64"></use><g><use xlink:href="#c4suPVKvhr" opacity="1" fill-opacity="0" stroke="#000000" stroke-width="1" stroke-opacity="0"></use></g></g><g><use xlink:href="#h1XFVvyoIX" opacity="1" fill="#d8d8d8" fill-opacity="0.64"></use><g><use xlink:href="#h1XFVvyoIX" opacity="1" fill-opacity="0" stroke="#000000" stroke-width="1" stroke-opacity="0"></use></g></g></g></g></svg>
