<?xml version="1.0" encoding="iso-8859-1"?>
<!-- Generator: Adobe Illustrator 19.0.0, SVG Export Plug-In . SVG Version: 6.00 Build 0)  -->
<svg version="1.1" id="Layer_1" xmlns="http://www.w3.org/2000/svg" xmlns:xlink="http://www.w3.org/1999/xlink" x="0px" y="0px"
	 viewBox="0 0 512 512" style="enable-background:new 0 0 512 512;" xml:space="preserve">
<g>
	<path style="fill:#FFDB57;" d="M222.139,113.25C181.824,68.598,119.766,7.911,97.786,30.088
		c-33.61,33.911-69.009,125.923,0,125.923c41.491,0,91.256,0,124.353,0V113.25z"/>
	<path style="fill:#FFDB57;" d="M289.861,113.25C330.175,68.598,392.234,7.911,414.214,30.088
		c33.61,33.911,69.009,125.923,0,125.923c-41.491,0-91.257,0-124.353,0V113.25z"/>
</g>
<rect x="42.838" y="235.8" style="fill:#F7434C;" width="426.318" height="250.837"/>
<rect x="42.838" y="235.8" style="fill:#DB2E37;" width="426.318" height="32.337"/>
<rect x="8.084" y="156.025" style="fill:#F7434C;" width="495.832" height="79.775"/>
<g>
	<rect x="201.987" y="156.025" style="fill:#FFDB57;" width="108.027" height="79.775"/>
	<rect x="214.706" y="235.8" style="fill:#FFDB57;" width="82.599" height="250.837"/>
</g>
<rect x="214.706" y="235.8" style="fill:#F5BA3D;" width="82.599" height="32.164"/>
<g>
	<path style="fill:#EF9325;" d="M110.246,94.986c-30.494-13.804-43.225-8.35-48.487-0.398c-8.662,31.815-3.119,61.423,36.026,61.423
		c29.475,0,63.126,0,92.012,0C189.798,156.012,166.794,120.583,110.246,94.986z"/>
	<path style="fill:#EF9325;" d="M401.754,94.986c30.494-13.804,43.225-8.35,48.486-0.398c8.662,31.815,3.119,61.423-36.026,61.423
		c-29.475,0-63.126,0-92.012,0C322.202,156.012,345.205,120.583,401.754,94.986z"/>
</g>
<rect x="222.143" y="105.256" style="fill:#F5BA3D;" width="67.722" height="50.758"/>
<path d="M503.916,147.943h-50.783c0.593-0.78,1.139-1.569,1.649-2.362c0.015-0.023,0.028-0.045,0.043-0.068
	c0.53-0.826,1.015-1.653,1.463-2.479c0.028-0.051,0.055-0.101,0.082-0.152c0.479-0.894,0.915-1.784,1.306-2.663
	c0.006-0.014,0.013-0.029,0.018-0.043c0.129-0.291,0.257-0.581,0.376-0.87c0.139-0.333,0.252-0.686,0.384-1.025
	c0.189-0.486,0.376-0.971,0.55-1.469c0.142-0.412,0.272-0.834,0.402-1.255c0.205-0.651,0.403-1.306,0.583-1.976
	c0.059-0.227,0.113-0.458,0.17-0.688c2.331-9.256,2.253-20.256-0.281-32.672c-0.009-0.041-0.018-0.083-0.027-0.124
	c-0.26-1.268-0.54-2.546-0.852-3.843c-0.143-0.603-0.308-1.214-0.462-1.822c-0.168-0.656-0.319-1.304-0.499-1.968
	c-0.01-0.037-0.028-0.069-0.038-0.106c-1.235-4.541-2.758-9.208-4.589-13.98c-7.927-20.661-20.434-40.84-33.457-53.981
	c-4.779-4.821-11.214-7.265-18.539-7.108c-22.87,0.532-59.31,27.619-108.391,80.53c-0.972-0.414-2.043-0.645-3.166-0.645h-67.722
	c-1.123,0-2.194,0.231-3.166,0.645c-49.081-52.911-85.521-79.996-108.391-80.53c-7.344-0.158-13.761,2.287-18.539,7.108
	c-13.022,13.14-25.53,33.32-33.456,53.981c-1.829,4.769-3.351,9.433-4.586,13.972c-0.012,0.039-0.03,0.075-0.041,0.115
	c-0.196,0.722-0.362,1.426-0.543,2.14c-0.137,0.54-0.283,1.084-0.412,1.621c-3.379,14.067-3.746,26.441-1.162,36.682
	c0.055,0.222,0.107,0.447,0.165,0.667c0.18,0.676,0.382,1.338,0.589,1.994c0.129,0.415,0.257,0.831,0.397,1.237
	c0.175,0.502,0.364,0.994,0.555,1.484c0.129,0.336,0.243,0.686,0.379,1.015c0.12,0.287,0.246,0.575,0.374,0.864
	c0.008,0.017,0.015,0.034,0.023,0.052c0.39,0.877,0.826,1.766,1.303,2.657c0.028,0.053,0.057,0.106,0.086,0.158
	c0.447,0.825,0.931,1.65,1.461,2.475c0.015,0.023,0.029,0.046,0.044,0.07c0.511,0.791,1.056,1.58,1.649,2.362H8.084
	c-4.466,0-8.084,3.62-8.084,8.084v79.773c0,4.465,3.618,8.084,8.084,8.084h26.669v36.012c0,4.465,3.618,8.084,8.084,8.084
	s8.084-3.62,8.084-8.084v-36.012h151.065h4.631v95.297c0,4.465,3.618,8.084,8.084,8.084s8.084-3.62,8.084-8.084v-95.297h66.43
	v234.664h-66.43v-107.03c0-4.465-3.618-8.084-8.084-8.084s-8.084,3.62-8.084,8.084v107.03H50.922V312.235
	c0-4.465-3.618-8.084-8.084-8.084s-8.084,3.62-8.084,8.084v174.398c0,4.465,3.618,8.084,8.084,8.084H214.7h82.598h171.863
	c4.466,0,8.084-3.62,8.084-8.084v-44.072c0-4.465-3.618-8.084-8.084-8.084s-8.084,3.62-8.084,8.084v35.988H305.384V243.885h4.631
	h151.064v166.34c0,4.465,3.618,8.084,8.084,8.084c4.466,0,8.084-3.62,8.084-8.084v-166.34h26.669c4.466,0,8.084-3.62,8.084-8.084
	v-79.773C512,151.563,508.382,147.943,503.916,147.943z M445.478,122.885c-0.013,0.151-0.026,0.303-0.041,0.453
	c-0.06,0.632-0.141,1.248-0.227,1.862c-0.047,0.331-0.093,0.665-0.148,0.988c-0.067,0.404-0.149,0.797-0.229,1.191
	c-0.093,0.455-0.181,0.913-0.289,1.353c-0.05,0.204-0.11,0.399-0.163,0.6c-0.729,2.752-1.756,5.213-3.095,7.333
	c-0.662,1.039-1.4,2.006-2.217,2.898c-0.063,0.068-0.128,0.132-0.191,0.198c-0.321,0.342-0.655,0.67-1,0.991
	c-0.163,0.15-0.329,0.298-0.496,0.443c-0.234,0.204-0.475,0.399-0.72,0.593c-0.257,0.203-0.512,0.406-0.779,0.598
	c-0.093,0.068-0.191,0.129-0.286,0.195c-3.747,2.601-8.598,4.259-14.516,4.957c-0.197,0.023-0.395,0.046-0.594,0.067
	c-0.479,0.051-0.965,0.094-1.456,0.133c-0.396,0.03-0.798,0.055-1.202,0.078c-0.366,0.02-0.73,0.043-1.103,0.058
	c-0.821,0.03-1.654,0.051-2.51,0.051h-74.813c11.415-12.052,32.621-30.609,65.688-45.577c18.872-8.542,32.447-10.046,37.657-4.258
	C445.053,107.033,446.103,115.56,445.478,122.885z M230.223,113.344h51.554v34.584h-51.554V113.344z M69.254,98.091
	c5.212-5.786,18.789-4.282,37.657,4.259c33.07,14.969,54.277,33.529,65.688,45.577H97.786c-0.858,0-1.69-0.02-2.51-0.051
	c-0.373-0.014-0.737-0.038-1.103-0.058c-0.404-0.023-0.806-0.047-1.202-0.078c-0.492-0.039-0.978-0.082-1.456-0.133
	c-0.2-0.02-0.397-0.044-0.594-0.067c-5.918-0.698-10.769-2.356-14.516-4.957c-0.095-0.066-0.193-0.128-0.286-0.195
	c-0.268-0.193-0.523-0.397-0.779-0.598c-0.244-0.194-0.486-0.39-0.719-0.593c-0.168-0.146-0.334-0.293-0.497-0.443
	c-0.344-0.32-0.679-0.649-0.999-0.991c-0.063-0.067-0.129-0.13-0.191-0.198c-0.817-0.894-1.555-1.859-2.217-2.898
	c-1.338-2.116-2.363-4.572-3.091-7.318c-0.055-0.207-0.117-0.409-0.168-0.619c-0.107-0.434-0.194-0.887-0.286-1.336
	c-0.081-0.402-0.164-0.802-0.233-1.214c-0.054-0.316-0.097-0.641-0.144-0.965c-0.087-0.623-0.169-1.25-0.231-1.894
	c-0.014-0.139-0.026-0.279-0.039-0.419C65.895,115.572,66.945,107.038,69.254,98.091z M193.902,227.717H42.838H16.168v-63.604
	h177.734V227.717z M193.934,147.928c-7.658-10.068-32.338-38.571-80.355-60.306c-11.721-5.305-25.641-9.866-37.612-9.01
	C82.915,62.3,92.904,46.5,103.527,35.781c1.082-1.092,2.773-2.329,6.312-2.329c0.12,0,0.243,0.002,0.366,0.004
	c18.553,0.432,56.328,30.61,103.849,82.913v31.561h-20.121V147.928z M301.929,227.717h-4.631H214.7h-4.631v-63.604h91.859V227.717z
	 M297.945,147.928v-31.561c47.521-52.303,85.296-82.48,103.849-82.913c3.778-0.085,5.561,1.196,6.679,2.325
	c10.624,10.72,20.613,26.518,27.561,42.83c-11.972-0.856-25.892,3.706-37.612,9.011c-48.018,21.736-72.696,50.24-80.355,60.306
	h-20.121V147.928z M495.832,227.717h-26.669H318.097v-63.604h177.734V227.717z"/>
<g>
</g>
<g>
</g>
<g>
</g>
<g>
</g>
<g>
</g>
<g>
</g>
<g>
</g>
<g>
</g>
<g>
</g>
<g>
</g>
<g>
</g>
<g>
</g>
<g>
</g>
<g>
</g>
<g>
</g>
</svg>
