<?xml version="1.0" encoding="UTF-8" standalone="no"?>
<svg
   xmlns:dc="http://purl.org/dc/elements/1.1/"
   xmlns:cc="http://creativecommons.org/ns#"
   xmlns:rdf="http://www.w3.org/1999/02/22-rdf-syntax-ns#"
   xmlns:svg="http://www.w3.org/2000/svg"
   xmlns="http://www.w3.org/2000/svg"
   xmlns:sodipodi="http://sodipodi.sourceforge.net/DTD/sodipodi-0.dtd"
   xmlns:inkscape="http://www.inkscape.org/namespaces/inkscape"
   width="100"
   height="100"
   viewBox="0 0 26.458334 26.458334"
   version="1.1"
   id="svg10012"
   inkscape:version="1.0.1 (1.0.1+r74)"
   sodipodi:docname="template_businesscard_square.svg">
  <defs
     id="defs10006" />
  <sodipodi:namedview
     id="base"
     pagecolor="#ffffff"
     bordercolor="#666666"
     borderopacity="1.0"
     inkscape:pageopacity="0.0"
     inkscape:pageshadow="2"
     inkscape:zoom="0.83770112"
     inkscape:cx="473.51996"
     inkscape:cy="164.8865"
     inkscape:document-units="px"
     inkscape:current-layer="layer1"
     inkscape:document-rotation="0"
     showgrid="false"
     units="px"
     inkscape:window-width="1534"
     inkscape:window-height="843"
     inkscape:window-x="66"
     inkscape:window-y="20"
     inkscape:window-maximized="1" />
  <metadata
     id="metadata10009">
    <rdf:RDF>
      <cc:Work
         rdf:about="">
        <dc:format>image/svg+xml</dc:format>
        <dc:type
           rdf:resource="http://purl.org/dc/dcmitype/StillImage" />
        <dc:title></dc:title>
      </cc:Work>
    </rdf:RDF>
  </metadata>
  <g
     inkscape:label="Layer 1"
     inkscape:groupmode="layer"
     id="layer1"
     transform="translate(-70.005836,-46.768833)">
    <g
       id="g9103"
       style="display:inline;stroke-width:0.397531"
       transform="matrix(0.52010061,0,0,0.52010061,-155.74775,-592.43484)">
      <path
         style="color:#000000;font-style:normal;font-variant:normal;font-weight:normal;font-stretch:normal;font-size:medium;line-height:normal;font-family:sans-serif;font-variant-ligatures:normal;font-variant-position:normal;font-variant-caps:normal;font-variant-numeric:normal;font-variant-alternates:normal;font-variant-east-asian:normal;font-feature-settings:normal;font-variation-settings:normal;text-indent:0;text-align:start;text-decoration:none;text-decoration-line:none;text-decoration-style:solid;text-decoration-color:#000000;letter-spacing:normal;word-spacing:normal;text-transform:none;writing-mode:lr-tb;direction:ltr;text-orientation:mixed;dominant-baseline:auto;baseline-shift:baseline;text-anchor:start;white-space:normal;shape-padding:0;shape-margin:0;inline-size:0;clip-rule:nonzero;display:inline;overflow:visible;visibility:visible;opacity:0.2;isolation:auto;mix-blend-mode:normal;color-interpolation:sRGB;color-interpolation-filters:linearRGB;solid-color:#000000;solid-opacity:1;vector-effect:none;fill:#000000;fill-opacity:1;fill-rule:nonzero;stroke:none;stroke-width:0.570401px;stroke-linecap:butt;stroke-linejoin:miter;stroke-miterlimit:4;stroke-dasharray:none;stroke-dashoffset:0;stroke-opacity:1;paint-order:stroke markers fill;color-rendering:auto;image-rendering:auto;shape-rendering:auto;text-rendering:auto;enable-background:accumulate;stop-color:#000000"
         d="m 667.61328,5000.9473 -5.43359,0.01 v 24.4941 13.9453 102.6075 H 658.6875 524.5 v 4.6132 h 143.11328 z"
         transform="matrix(0.26458333,0,0,0.26458333,303.2026,-86.731924)"
         id="path9068" />
      <path
         style="color:#000000;font-style:normal;font-variant:normal;font-weight:normal;font-stretch:normal;font-size:medium;line-height:normal;font-family:sans-serif;font-variant-ligatures:normal;font-variant-position:normal;font-variant-caps:normal;font-variant-numeric:normal;font-variant-alternates:normal;font-variant-east-asian:normal;font-feature-settings:normal;font-variation-settings:normal;text-indent:0;text-align:start;text-decoration:none;text-decoration-line:none;text-decoration-style:solid;text-decoration-color:#000000;letter-spacing:normal;word-spacing:normal;text-transform:none;writing-mode:lr-tb;direction:ltr;text-orientation:mixed;dominant-baseline:auto;baseline-shift:baseline;text-anchor:start;white-space:normal;shape-padding:0;shape-margin:0;inline-size:0;clip-rule:nonzero;display:inline;overflow:visible;visibility:visible;opacity:0.7;isolation:auto;mix-blend-mode:normal;color-interpolation:sRGB;color-interpolation-filters:linearRGB;solid-color:#000000;solid-opacity:1;vector-effect:none;fill:#ffffff;fill-opacity:1;fill-rule:nonzero;stroke:none;stroke-width:0.675803;stroke-linecap:butt;stroke-linejoin:miter;stroke-miterlimit:4;stroke-dasharray:none;stroke-dashoffset:0;stroke-opacity:1;paint-order:stroke markers fill;color-rendering:auto;image-rendering:auto;shape-rendering:auto;text-rendering:auto;enable-background:accumulate;stop-color:#000000"
         d="m 439.99399,1234.7442 v 0.014 8.3235 3.6898 26.1343 h 0.0749 37.41063 0.0744 v -26.2976 -3.6897 -8.1603 -0.014 z"
         id="path9037" />
      <path
         id="path5084-3"
         style="opacity:0.2;fill:#000000;fill-opacity:1;stroke:none;stroke-width:1.50248;paint-order:stroke markers fill;stop-color:#000000"
         d="m 589.32031,5011.166 a 44.092471,44.092471 0 0 0 -44.0957,44.0918 44.092471,44.092471 0 0 0 17.54492,35.2031 26.914425,26.914425 0 0 1 26.23438,-20.8964 26.914425,26.914425 0 0 1 26.32031,21.2988 44.092471,44.092471 0 0 0 18.08789,-35.6055 44.092471,44.092471 0 0 0 -44.0918,-44.0918 z m -0.44922,17.5977 a 17.157804,17.157804 0 0 1 0.12305,0 h 0.002 a 17.157804,17.157804 0 0 1 0.006,0 17.157804,17.157804 0 0 1 17.15821,17.1582 17.157804,17.157804 0 0 1 -17.15821,17.1562 17.157804,17.157804 0 0 1 -17.15625,-17.1562 17.157804,17.157804 0 0 1 17.02539,-17.1582 z m -31.67968,73.6445 c -1.81754,0 -3.28125,1.4617 -3.28125,3.2793 0,1.8172 1.46371,3.2813 3.28125,3.2813 h 61.20312 c 1.8175,0 3.28125,-1.4641 3.28125,-3.2813 0,-1.8176 -1.46375,-3.2793 -3.28125,-3.2793 z m 0,12.8594 c -1.81754,0 -3.28125,1.4617 -3.28125,3.2793 0,1.8175 1.46371,3.2812 3.28125,3.2812 h 61.20312 c 1.8175,0 3.28125,-1.4637 3.28125,-3.2812 0,-1.8176 -1.46375,-3.2793 -3.28125,-3.2793 z"
         transform="matrix(0.26458333,0,0,0.26458333,303.2026,-86.731924)" />
      <path
         id="path9035"
         style="color:#000000;font-style:normal;font-variant:normal;font-weight:normal;font-stretch:normal;font-size:medium;line-height:normal;font-family:sans-serif;font-variant-ligatures:normal;font-variant-position:normal;font-variant-caps:normal;font-variant-numeric:normal;font-variant-alternates:normal;font-variant-east-asian:normal;font-feature-settings:normal;font-variation-settings:normal;text-indent:0;text-align:start;text-decoration:none;text-decoration-line:none;text-decoration-style:solid;text-decoration-color:#000000;letter-spacing:normal;word-spacing:normal;text-transform:none;writing-mode:lr-tb;direction:ltr;text-orientation:mixed;dominant-baseline:auto;baseline-shift:baseline;text-anchor:start;white-space:normal;shape-padding:0;shape-margin:0;inline-size:0;clip-rule:nonzero;display:inline;overflow:visible;visibility:visible;opacity:0.4;isolation:auto;mix-blend-mode:normal;color-interpolation:sRGB;color-interpolation-filters:linearRGB;solid-color:#000000;solid-opacity:1;vector-effect:none;fill:#000000;fill-opacity:1;fill-rule:nonzero;stroke:none;stroke-width:0.675803;stroke-linecap:butt;stroke-linejoin:miter;stroke-miterlimit:4;stroke-dasharray:none;stroke-dashoffset:0;stroke-opacity:1;paint-order:stroke markers fill;color-rendering:auto;image-rendering:auto;shape-rendering:auto;text-rendering:auto;enable-background:accumulate;stop-color:#000000"
         d="m 439.14469,1233.8944 v 0.8495 0.014 8.3246 3.6892 26.9844 h 0.92346 37.41218 0.92398 v -27.1483 -3.6896 -8.1603 -0.863 z m 0.84904,0.8495 h 37.55998 v 0.014 8.1608 3.6897 26.2976 h -0.0744 -37.41064 -0.0749 v -26.1343 -3.6902 -8.3236 z" />
    </g>
  </g>
</svg>
