<?xml version="1.0" encoding="UTF-8" standalone="no"?>
<svg
   xmlns:dc="http://purl.org/dc/elements/1.1/"
   xmlns:cc="http://creativecommons.org/ns#"
   xmlns:rdf="http://www.w3.org/1999/02/22-rdf-syntax-ns#"
   xmlns:svg="http://www.w3.org/2000/svg"
   xmlns="http://www.w3.org/2000/svg"
   xmlns:sodipodi="http://sodipodi.sourceforge.net/DTD/sodipodi-0.dtd"
   xmlns:inkscape="http://www.inkscape.org/namespaces/inkscape"
   width="100"
   height="100"
   viewBox="0 0 26.458334 26.458334"
   version="1.1"
   id="svg10012"
   inkscape:version="1.0.1 (1.0.1+r74)"
   sodipodi:docname="template_businesscard_portrait.svg">
  <defs
     id="defs10006" />
  <sodipodi:namedview
     id="base"
     pagecolor="#ffffff"
     bordercolor="#666666"
     borderopacity="1.0"
     inkscape:pageopacity="0.0"
     inkscape:pageshadow="2"
     inkscape:zoom="2.1241887"
     inkscape:cx="85.668108"
     inkscape:cy="62.14388"
     inkscape:document-units="px"
     inkscape:current-layer="layer1"
     inkscape:document-rotation="0"
     showgrid="false"
     units="px"
     inkscape:window-width="1534"
     inkscape:window-height="843"
     inkscape:window-x="66"
     inkscape:window-y="20"
     inkscape:window-maximized="1" />
  <metadata
     id="metadata10009">
    <rdf:RDF>
      <cc:Work
         rdf:about="">
        <dc:format>image/svg+xml</dc:format>
        <dc:type
           rdf:resource="http://purl.org/dc/dcmitype/StillImage" />
        <dc:title></dc:title>
      </cc:Work>
    </rdf:RDF>
  </metadata>
  <g
     inkscape:label="Layer 1"
     inkscape:groupmode="layer"
     id="layer1"
     transform="translate(-93.810753,-49.58248)">
    <g
       id="g8914"
       style="display:inline;stroke-width:0.397531"
       transform="matrix(0.51207932,0,0,0.51207932,-127.23883,-639.88721)">
      <path
         style="color:#000000;font-style:normal;font-variant:normal;font-weight:normal;font-stretch:normal;font-size:medium;line-height:normal;font-family:sans-serif;font-variant-ligatures:normal;font-variant-position:normal;font-variant-caps:normal;font-variant-numeric:normal;font-variant-alternates:normal;font-variant-east-asian:normal;font-feature-settings:normal;font-variation-settings:normal;text-indent:0;text-align:start;text-decoration:none;text-decoration-line:none;text-decoration-style:solid;text-decoration-color:#000000;letter-spacing:normal;word-spacing:normal;text-transform:none;writing-mode:lr-tb;direction:ltr;text-orientation:mixed;dominant-baseline:auto;baseline-shift:baseline;text-anchor:start;white-space:normal;shape-padding:0;shape-margin:0;inline-size:0;clip-rule:nonzero;display:inline;overflow:visible;visibility:visible;opacity:0.2;isolation:auto;mix-blend-mode:normal;color-interpolation:sRGB;color-interpolation-filters:linearRGB;solid-color:#000000;solid-opacity:1;vector-effect:none;fill:#000000;fill-opacity:1;fill-rule:nonzero;stroke:none;stroke-width:0.570401px;stroke-linecap:butt;stroke-linejoin:miter;stroke-miterlimit:4;stroke-dasharray:none;stroke-dashoffset:0;stroke-opacity:1;paint-order:stroke markers fill;color-rendering:auto;image-rendering:auto;shape-rendering:auto;text-rendering:auto;enable-background:accumulate;stop-color:#000000"
         d="m 650.1543,5426.2109 -5.4336,0.01 v 181.0371 h -3.49023 -114.19141 v 4.6309 H 650.1543 Z"
         transform="matrix(0.26458333,0,0,0.26458333,303.2026,-86.731924)"
         id="path8889" />
      <path
         style="color:#000000;font-style:normal;font-variant:normal;font-weight:normal;font-stretch:normal;font-size:medium;line-height:normal;font-family:sans-serif;font-variant-ligatures:normal;font-variant-position:normal;font-variant-caps:normal;font-variant-numeric:normal;font-variant-alternates:normal;font-variant-east-asian:normal;font-feature-settings:normal;font-variation-settings:normal;text-indent:0;text-align:start;text-decoration:none;text-decoration-line:none;text-decoration-style:solid;text-decoration-color:#000000;letter-spacing:normal;word-spacing:normal;text-transform:none;writing-mode:lr-tb;direction:ltr;text-orientation:mixed;dominant-baseline:auto;baseline-shift:baseline;text-anchor:start;white-space:normal;shape-padding:0;shape-margin:0;inline-size:0;clip-rule:nonzero;display:inline;overflow:visible;visibility:visible;opacity:0.7;isolation:auto;mix-blend-mode:normal;color-interpolation:sRGB;color-interpolation-filters:linearRGB;solid-color:#000000;solid-opacity:1;vector-effect:none;fill:#ffffff;fill-opacity:1;fill-rule:nonzero;stroke:none;stroke-width:0.675803;stroke-linecap:butt;stroke-linejoin:miter;stroke-miterlimit:4;stroke-dasharray:none;stroke-dashoffset:0;stroke-opacity:1;paint-order:stroke markers fill;color-rendering:auto;image-rendering:auto;shape-rendering:auto;text-rendering:auto;enable-background:accumulate;stop-color:#000000"
         d="m 440.66682,1347.2632 v 0.022 h -0.0284 l 0.0284,48.7231 h 0.0749 32.11897 0.0744 v -48.7453 z"
         id="path8861" />
      <path
         id="path5084-3-0-1"
         style="opacity:0.2;fill:#000000;fill-opacity:1;stroke:none;stroke-width:1.50247;paint-order:stroke markers fill;stop-color:#000000"
         d="m 580.47656,5440.0547 a 37.260898,37.260898 0 0 0 -37.26367,37.2598 37.260898,37.260898 0 0 0 14.82617,29.75 22.744373,22.744373 0 0 1 22.16992,-17.6602 22.744373,22.744373 0 0 1 22.24219,18 37.260898,37.260898 0 0 0 15.28516,-30.0898 37.260898,37.260898 0 0 0 -37.25977,-37.2598 z m -0.30859,14.8711 a 14.499419,14.499419 0 0 1 0.0352,0 14.499419,14.499419 0 0 1 0.006,0 14.499419,14.499419 0 0 1 14.5,14.498 14.499419,14.499419 0 0 1 -14.5,14.5 14.499419,14.499419 0 0 1 -14.5,-14.5 14.499419,14.499419 0 0 1 14.45899,-14.498 z m -30.29492,78.7539 c -1.81754,0 -3.28125,1.4637 -3.28125,3.2812 0,1.8176 1.46371,3.2793 3.28125,3.2793 h 61.20312 c 1.8175,0 3.28125,-1.4617 3.28125,-3.2793 0,-1.8175 -1.46375,-3.2812 -3.28125,-3.2812 z m 0,16.2949 c -1.81754,0 -3.28125,1.4637 -3.28125,3.2813 0,1.8172 1.46371,3.2793 3.28125,3.2793 h 61.20312 c 1.8175,0 3.28125,-1.4621 3.28125,-3.2793 0,-1.8176 -1.46375,-3.2813 -3.28125,-3.2813 z m 0,16.2949 c -1.81754,0 -3.28125,1.4637 -3.28125,3.2813 0,1.8172 1.46371,3.2793 3.28125,3.2793 h 61.20312 c 1.8175,0 3.28125,-1.4621 3.28125,-3.2793 0,-1.8176 -1.46375,-3.2813 -3.28125,-3.2813 z"
         transform="matrix(0.26458333,0,0,0.26458333,303.2026,-86.731924)" />
      <path
         id="path8859"
         style="color:#000000;font-style:normal;font-variant:normal;font-weight:normal;font-stretch:normal;font-size:medium;line-height:normal;font-family:sans-serif;font-variant-ligatures:normal;font-variant-position:normal;font-variant-caps:normal;font-variant-numeric:normal;font-variant-alternates:normal;font-variant-east-asian:normal;font-feature-settings:normal;font-variation-settings:normal;text-indent:0;text-align:start;text-decoration:none;text-decoration-line:none;text-decoration-style:solid;text-decoration-color:#000000;letter-spacing:normal;word-spacing:normal;text-transform:none;writing-mode:lr-tb;direction:ltr;text-orientation:mixed;dominant-baseline:auto;baseline-shift:baseline;text-anchor:start;white-space:normal;shape-padding:0;shape-margin:0;inline-size:0;clip-rule:nonzero;display:inline;overflow:visible;visibility:visible;opacity:0.4;isolation:auto;mix-blend-mode:normal;color-interpolation:sRGB;color-interpolation-filters:linearRGB;solid-color:#000000;solid-opacity:1;vector-effect:none;fill:#000000;fill-opacity:1;fill-rule:nonzero;stroke:none;stroke-width:0.675803;stroke-linecap:butt;stroke-linejoin:miter;stroke-miterlimit:4;stroke-dasharray:none;stroke-dashoffset:0;stroke-opacity:1;paint-order:stroke markers fill;color-rendering:auto;image-rendering:auto;shape-rendering:auto;text-rendering:auto;enable-background:accumulate;stop-color:#000000"
         d="m 439.81653,1346.4121 v 0.021 h -0.0295 l 0.0295,50.4217 h 0.92552 32.11949 0.92345 v -50.4429 z m 0.85059,0.8511 h 32.2678 v 48.7448 h -0.0744 -32.11897 -0.0744 l -0.0284,-48.7225 h 0.0284 z" />
    </g>
  </g>
</svg>
