<?xml version="1.0" encoding="UTF-8" standalone="no"?>
<svg
   width="100"
   height="100"
   viewBox="0 0 26.458334 26.458334"
   version="1.1"
   id="svg10012"
   inkscape:version="1.1-alpha (5235699526, 2021-01-18, custom)"
   sodipodi:docname="template_about.svg"
   xmlns:inkscape="http://www.inkscape.org/namespaces/inkscape"
   xmlns:sodipodi="http://sodipodi.sourceforge.net/DTD/sodipodi-0.dtd"
   xmlns="http://www.w3.org/2000/svg"
   xmlns:svg="http://www.w3.org/2000/svg"
   xmlns:rdf="http://www.w3.org/1999/02/22-rdf-syntax-ns#"
   xmlns:cc="http://creativecommons.org/ns#"
   xmlns:dc="http://purl.org/dc/elements/1.1/">
  <defs
     id="defs10006" />
  <sodipodi:namedview
     id="base"
     pagecolor="#ffffff"
     bordercolor="#666666"
     borderopacity="1.0"
     inkscape:pageopacity="0.0"
     inkscape:pageshadow="2"
     inkscape:zoom="5.6902632"
     inkscape:cx="52.282292"
     inkscape:cy="53.160985"
     inkscape:document-units="px"
     inkscape:current-layer="g9916"
     inkscape:document-rotation="0"
     showgrid="false"
     units="px"
     inkscape:window-width="1534"
     inkscape:window-height="843"
     inkscape:window-x="66"
     inkscape:window-y="20"
     inkscape:window-maximized="1"
     objecttolerance="10.0"
     gridtolerance="10.0"
     guidetolerance="10.0"
     inkscape:pagecheckerboard="0" />
  <metadata
     id="metadata10009">
    <rdf:RDF>
      <cc:Work
         rdf:about="">
        <dc:format>image/svg+xml</dc:format>
        <dc:type
           rdf:resource="http://purl.org/dc/dcmitype/StillImage" />
      </cc:Work>
    </rdf:RDF>
  </metadata>
  <g
     inkscape:label="Layer 1"
     inkscape:groupmode="layer"
     id="layer1"
     transform="translate(-70.005836,-46.768833)">
    <g
       id="g9916"
       style="display:inline;stroke-width:0.397531"
       transform="matrix(2.5155261,0,0,2.5155261,-1011.3254,-2133.5604)">
      <path
         style="color:#000000;font-style:normal;font-variant:normal;font-weight:normal;font-stretch:normal;font-size:medium;line-height:normal;font-family:sans-serif;font-variant-ligatures:normal;font-variant-position:normal;font-variant-caps:normal;font-variant-numeric:normal;font-variant-alternates:normal;font-variant-east-asian:normal;font-feature-settings:normal;font-variation-settings:normal;text-indent:0;text-align:start;text-decoration:none;text-decoration-line:none;text-decoration-style:solid;text-decoration-color:#000000;letter-spacing:normal;word-spacing:normal;text-transform:none;writing-mode:lr-tb;direction:ltr;text-orientation:mixed;dominant-baseline:auto;baseline-shift:baseline;text-anchor:start;white-space:normal;shape-padding:0;shape-margin:0;inline-size:0;clip-rule:nonzero;display:inline;overflow:visible;visibility:visible;opacity:0.2;isolation:auto;mix-blend-mode:normal;color-interpolation:sRGB;color-interpolation-filters:linearRGB;solid-color:#000000;solid-opacity:1;vector-effect:none;fill:#000000;fill-opacity:1;fill-rule:nonzero;stroke:none;stroke-width:0.0312034px;stroke-linecap:butt;stroke-linejoin:miter;stroke-miterlimit:4;stroke-dasharray:none;stroke-dashoffset:0;stroke-opacity:1;paint-order:stroke markers fill;color-rendering:auto;image-rendering:auto;shape-rendering:auto;text-rendering:auto;enable-background:accumulate;stop-color:#000000"
         d="m 439.32907,868.28615 -0.29724,5.5e-4 v 7.71575 h -0.19093 -7.34063 v 0.25237 h 7.8288 z"
         id="path9852"
         sodipodi:nodetypes="cccccccc" />
      <path
         style="color:#000000;font-style:normal;font-variant:normal;font-weight:normal;font-stretch:normal;font-size:medium;line-height:normal;font-family:sans-serif;font-variant-ligatures:normal;font-variant-position:normal;font-variant-caps:normal;font-variant-numeric:normal;font-variant-alternates:normal;font-variant-east-asian:normal;font-feature-settings:normal;font-variation-settings:normal;text-indent:0;text-align:start;text-decoration:none;text-decoration-line:none;text-decoration-style:solid;text-decoration-color:#000000;letter-spacing:normal;word-spacing:normal;text-transform:none;writing-mode:lr-tb;direction:ltr;text-orientation:mixed;dominant-baseline:auto;baseline-shift:baseline;text-anchor:start;white-space:normal;shape-padding:0;shape-margin:0;inline-size:0;clip-rule:nonzero;display:inline;overflow:visible;visibility:visible;opacity:0.7;isolation:auto;mix-blend-mode:normal;color-interpolation:sRGB;color-interpolation-filters:linearRGB;solid-color:#000000;solid-opacity:1;vector-effect:none;fill:#ffffff;fill-opacity:1;fill-rule:nonzero;stroke:none;stroke-width:0.139726;stroke-linecap:butt;stroke-linejoin:miter;stroke-miterlimit:4;stroke-dasharray:none;stroke-dashoffset:0;stroke-opacity:1;paint-order:stroke markers fill;color-rendering:auto;image-rendering:auto;shape-rendering:auto;text-rendering:auto;enable-background:accumulate;stop-color:#000000"
         d="m 431.09054,867.93653 v 7.89023 h 0.0155 7.73488 0.0154 v -7.89023 z"
         id="path9816"
         sodipodi:nodetypes="ccccccc" />
      <path
         id="path9789"
         style="color:#000000;font-style:normal;font-variant:normal;font-weight:normal;font-stretch:normal;font-size:medium;line-height:normal;font-family:sans-serif;font-variant-ligatures:normal;font-variant-position:normal;font-variant-caps:normal;font-variant-numeric:normal;font-variant-alternates:normal;font-variant-east-asian:normal;font-feature-settings:normal;font-variation-settings:normal;text-indent:0;text-align:start;text-decoration:none;text-decoration-line:none;text-decoration-style:solid;text-decoration-color:#000000;letter-spacing:normal;word-spacing:normal;text-transform:none;writing-mode:lr-tb;direction:ltr;text-orientation:mixed;dominant-baseline:auto;baseline-shift:baseline;text-anchor:start;white-space:normal;shape-padding:0;shape-margin:0;inline-size:0;clip-rule:nonzero;display:inline;overflow:visible;visibility:visible;opacity:0.4;isolation:auto;mix-blend-mode:normal;color-interpolation:sRGB;color-interpolation-filters:linearRGB;solid-color:#000000;solid-opacity:1;vector-effect:none;fill:#000000;fill-opacity:1;fill-rule:nonzero;stroke:none;stroke-width:0.082192;stroke-linecap:butt;stroke-linejoin:miter;stroke-miterlimit:4;stroke-dasharray:none;stroke-dashoffset:0;stroke-opacity:1;paint-order:stroke markers fill;color-rendering:auto;image-rendering:auto;shape-rendering:auto;text-rendering:auto;enable-background:accumulate;stop-color:#000000"
         d="m 431.40166,868.72867 v 0.10342 6.18218 h 0.1171 6.9094 0.11667 v -6.2856 z m 0.10353,0.10321 h 6.93643 v 6.07907 h -0.0135 -6.9094 -0.0136 z"
         sodipodi:nodetypes="ccccccccccccccc" />
      <path
         id="path9791"
         style="color:#000000;font-style:normal;font-variant:normal;font-weight:normal;font-stretch:normal;font-size:medium;line-height:normal;font-family:sans-serif;font-variant-ligatures:normal;font-variant-position:normal;font-variant-caps:normal;font-variant-numeric:normal;font-variant-alternates:normal;font-variant-east-asian:normal;font-feature-settings:normal;font-variation-settings:normal;text-indent:0;text-align:start;text-decoration:none;text-decoration-line:none;text-decoration-style:solid;text-decoration-color:#000000;letter-spacing:normal;word-spacing:normal;text-transform:none;writing-mode:lr-tb;direction:ltr;text-orientation:mixed;dominant-baseline:auto;baseline-shift:baseline;text-anchor:start;white-space:normal;shape-padding:0;shape-margin:0;inline-size:0;clip-rule:nonzero;display:inline;overflow:visible;visibility:visible;opacity:0.2;isolation:auto;mix-blend-mode:normal;color-interpolation:sRGB;color-interpolation-filters:linearRGB;solid-color:#000000;solid-opacity:1;vector-effect:none;fill:#000000;fill-opacity:1;fill-rule:nonzero;stroke:none;stroke-width:0.082192;stroke-linecap:butt;stroke-linejoin:miter;stroke-miterlimit:4;stroke-dasharray:none;stroke-dashoffset:0;stroke-opacity:1;paint-order:stroke markers fill;color-rendering:auto;image-rendering:auto;shape-rendering:auto;text-rendering:auto;enable-background:accumulate;stop-color:#000000"
         d="m 431.50519,868.83188 v 6.07907 h 0.0136 6.9094 0.0135 v -6.07907 z"
         sodipodi:nodetypes="ccccccc" />
      <path
         id="path9814"
         style="color:#000000;font-style:normal;font-variant:normal;font-weight:normal;font-stretch:normal;font-size:medium;line-height:normal;font-family:sans-serif;font-variant-ligatures:normal;font-variant-position:normal;font-variant-caps:normal;font-variant-numeric:normal;font-variant-alternates:normal;font-variant-east-asian:normal;font-feature-settings:normal;font-variation-settings:normal;text-indent:0;text-align:start;text-decoration:none;text-decoration-line:none;text-decoration-style:solid;text-decoration-color:#000000;letter-spacing:normal;word-spacing:normal;text-transform:none;writing-mode:lr-tb;direction:ltr;text-orientation:mixed;dominant-baseline:auto;baseline-shift:baseline;text-anchor:start;white-space:normal;shape-padding:0;shape-margin:0;inline-size:0;clip-rule:nonzero;display:inline;overflow:visible;visibility:visible;opacity:0.4;isolation:auto;mix-blend-mode:normal;color-interpolation:sRGB;color-interpolation-filters:linearRGB;solid-color:#000000;solid-opacity:1;vector-effect:none;fill:#000000;fill-opacity:1;fill-rule:nonzero;stroke:none;stroke-width:0.139726;stroke-linecap:butt;stroke-linejoin:miter;stroke-miterlimit:4;stroke-dasharray:none;stroke-dashoffset:0;stroke-opacity:1;paint-order:stroke markers fill;color-rendering:auto;image-rendering:auto;shape-rendering:auto;text-rendering:auto;enable-background:accumulate;stop-color:#000000"
         d="m 430.91466,867.7608 v 0.17565 8.06588 h 0.19146 7.73478 0.19093 v -8.24153 z m 0.17587,0.17575 h 7.76575 v 7.89024 h -0.0154 -7.73488 -0.0155 z"
         sodipodi:nodetypes="ccccccccccccccc" />
      <path
         d="m 431.50519,868.22601 v 0.18898 h 0.0136 6.9094 0.0135 v -0.18898 z m -0.10353,-0.10321 v 0.10342 0.29209 h 0.1171 6.9094 0.11667 v -0.39551 z m 0.10353,0.10321 h 6.93643 v 0.18898 h -0.0135 -6.9094 -0.0136 z"
         style="color:#000000;font-style:normal;font-variant:normal;font-weight:normal;font-stretch:normal;font-size:medium;line-height:normal;font-family:sans-serif;font-variant-ligatures:normal;font-variant-position:normal;font-variant-caps:normal;font-variant-numeric:normal;font-variant-alternates:normal;font-variant-east-asian:normal;font-feature-settings:normal;font-variation-settings:normal;text-indent:0;text-align:start;text-decoration:none;text-decoration-line:none;text-decoration-style:solid;text-decoration-color:#000000;letter-spacing:normal;word-spacing:normal;text-transform:none;writing-mode:lr-tb;direction:ltr;text-orientation:mixed;dominant-baseline:auto;baseline-shift:baseline;text-anchor:start;white-space:normal;shape-padding:0;shape-margin:0;inline-size:0;clip-rule:nonzero;display:inline;overflow:visible;visibility:visible;opacity:0.4;isolation:auto;mix-blend-mode:normal;color-interpolation:sRGB;color-interpolation-filters:linearRGB;solid-color:#000000;solid-opacity:1;vector-effect:none;fill:#000000;fill-opacity:1;fill-rule:nonzero;stroke:none;stroke-width:0.0146964;stroke-linecap:butt;stroke-linejoin:miter;stroke-miterlimit:4;stroke-dasharray:none;stroke-dashoffset:0;stroke-opacity:1;paint-order:stroke markers fill;color-rendering:auto;image-rendering:auto;shape-rendering:auto;text-rendering:auto;enable-background:accumulate;stop-color:#000000"
         id="path447"
         sodipodi:nodetypes="cccccccccccccccccccccc" />
      <g
         id="g5079"
         transform="matrix(0.05214083,0,0,0.05214083,432.35854,861.02782)"
         style="stroke-width:2.15171">
        <path
           id="path5071"
           transform="matrix(0.93750002,0,0,0.93750002,144.76645,63.145892)"
           d="m -99.322266,116.44727 c -2.933084,-0.004 -5.842014,1.07671 -7.986324,3.27148 l -30.58008,31.29102 -0.043,0.0547 c -2.69882,3.34217 -3.8595,5.99418 -3.45117,8.40235 0.40833,2.40818 2.41291,3.88539 4.60351,4.81445 3.98898,1.69175 9.25342,2.38555 12.64063,3.69141 -0.62698,0.40099 -1.50459,0.87064 -2.58399,1.37109 -1.27719,0.59215 -2.59266,1.16864 -3.63281,1.97656 -0.52008,0.40397 -1.04709,0.87906 -1.28515,1.71094 -0.23807,0.83188 0.12661,1.86531 0.70312,2.45508 1.0265,1.04926 2.46041,1.66859 4.20508,2.35742 1.74467,0.68883 3.77975,1.35162 5.79492,2.00781 2.01517,0.65619 4.00946,1.30728 5.62109,1.94336 1.61164,0.6361 2.86008,1.35184 3.16797,1.66602 0.14914,0.15311 0.11885,0.15953 0.11719,0.14453 -0.002,-0.0152 0.0107,0.0334 -0.0762,0.20898 -0.10569,0.21349 -0.53798,0.66279 -0.87696,1.04688 l -0.29296,-0.39063 c -1.00025,-1.32904 -2.56513,-1.86778 -4.06446,-1.98242 -1.49932,-0.11464 -3.02667,0.1651 -4.36914,0.72266 -1.34246,0.55755 -2.57371,1.36616 -3.18164,2.74218 -0.30396,0.68803 -0.38469,1.54289 -0.14258,2.33008 0.24212,0.78719 0.75437,1.47356 1.44336,2.07032 l 0.002,0.002 c 1.87484,1.62119 4.42575,1.39343 6.31445,0.35547 0.5437,-0.2988 0.97341,-0.76387 1.44922,-1.16992 -0.003,0.12646 -0.0829,0.21659 -0.0684,0.34765 0.0781,0.70539 0.44237,1.38805 0.95508,1.91211 1.90268,1.94488 4.48808,1.86093 6.2832,2.28906 0.89756,0.21407 1.59838,0.49419 2.11328,0.94532 0.5149,0.45111 0.94302,1.0984 1.18555,2.41992 0.30987,1.69316 1.71546,2.87828 3.2207,3.3125 1.50525,0.43423 3.200236,0.38164 4.988282,0.0898 3.576095,-0.58361 7.518,-2.18242 10.292969,-4.21289 l 0.09961,-0.0723 0.08789,-0.0879 c 0.456329,-0.46684 0.828525,-0.98811 0.955078,-1.67188 0.126554,-0.68375 -0.127343,-1.4313 -0.472656,-1.87695 -0.690627,-0.89132 -1.479666,-1.14054 -2.117187,-1.44922 -0.376345,-0.18222 -0.435369,-0.23035 -0.623047,-0.34766 2.966648,-2.9455 5.613691,-3.4451 8.259765,-4.06055 1.349933,-0.31397 2.727053,-0.64507 4.003907,-1.48242 1.276854,-0.83734 2.333637,-2.19946 2.980468,-4.13672 0.261892,-0.7846 0.153987,-1.67139 -0.169921,-2.33007 -0.323909,-0.6587 -0.795754,-1.14124 -1.302735,-1.56446 -1.013964,-0.84644 -2.244287,-1.48072 -3.363281,-2.08593 -0.986187,-0.53339 -1.749894,-1.01768 -2.197266,-1.375 1.728256,-0.89259 4.300724,-1.8331 7.365235,-2.83399 3.364353,-1.09881 7.05279,-2.28419 10.195312,-3.7793 3.142522,-1.49511 5.873323,-3.26733 6.966797,-6.02929 0.546736,-1.38097 0.572396,-2.98691 0.0039,-4.57032 -0.567048,-1.5794 -1.669317,-3.15715 -3.33789,-4.82812 l -0.0098,-0.0117 -31.650391,-32.34961 -0.01758,-0.0176 c -2.233767,-2.14457 -5.189958,-3.23222 -8.123047,-3.23632 z m 33.707032,59.30468 c -2.958898,0.10187 -6.101266,1.66242 -6.998047,4.82227 l -0.05664,0.20117 v 0.20899 c 0,0.55736 0.268841,1.01763 0.519531,1.29296 0.250691,0.27534 0.502432,0.43701 0.753907,0.57422 0.50295,0.27443 1.038157,0.44523 1.648437,0.59766 1.220562,0.30483 2.718727,0.48785 4.244141,0.53125 1.525413,0.0434 3.050745,-0.0448 4.365234,-0.4043 0.657245,-0.17975 1.276534,-0.41779 1.835938,-0.86523 0.559402,-0.44745 1.052734,-1.24039 1.052734,-2.09375 v -0.25196 l -0.08203,-0.23828 c -1.078532,-3.1211 -4.324305,-4.4769 -7.283203,-4.375 z m -7.425782,6.79493 -0.5625,0.5039 c -1.068232,0.95821 -1.724948,2.06647 -1.845703,3.23242 -0.120755,1.16596 0.356131,2.28944 1.123047,3.03125 1.53383,1.48361 4.086275,1.73472 6.3125,0.42578 l 0.169922,-0.0996 0.138672,-0.14257 c 0.589077,-0.59783 0.733647,-1.35694 0.6875,-2.03907 -0.04614,-0.68211 -0.287624,-1.34871 -0.701172,-1.97656 -0.827095,-1.25571 -2.362009,-2.32991 -4.582031,-2.7832 z"
           style="color:#000000;font-style:normal;font-variant:normal;font-weight:normal;font-stretch:normal;font-size:medium;line-height:normal;font-family:sans-serif;text-indent:0;text-align:start;text-decoration:none;text-decoration-line:none;text-decoration-style:solid;text-decoration-color:#000000;letter-spacing:normal;word-spacing:normal;text-transform:none;writing-mode:lr-tb;direction:ltr;baseline-shift:baseline;text-anchor:start;white-space:normal;clip-rule:nonzero;display:inline;overflow:visible;visibility:visible;opacity:1;isolation:auto;mix-blend-mode:normal;color-interpolation:sRGB;color-interpolation-filters:linearRGB;solid-color:#000000;solid-opacity:1;fill:#ffffff;fill-opacity:1;fill-rule:nonzero;stroke:none;stroke-width:6.45514;stroke-linecap:butt;stroke-linejoin:miter;stroke-miterlimit:4;stroke-dasharray:none;stroke-dashoffset:0;stroke-opacity:1;color-rendering:auto;image-rendering:auto;shape-rendering:auto;text-rendering:auto;enable-background:accumulate"
           inkscape:connector-curvature="0" />
        <g
           style="stroke-width:4.40958"
           transform="matrix(0.21304811,0,0,0.21304811,10.404497,170.43035)"
           id="inkscape-logo">
          <path
             style="fill:#292929;fill-opacity:1;stroke-width:4.40958"
             inkscape:connector-curvature="0"
             id="path2313"
             d="M 163.15,27.83 28.81,165.3 C -16.58,221.51 59.7,214.97 92.4,231.16 104.13,243.15 47.44,252 59.17,264 c 11.73,11.99 70.93,23.1 82.68,35.09 11.73,11.99 -24.01,24.71 -12.28,36.7 11.73,11.99 38.86,0.63 43.94,28.31 3.62,19.78 48.89,8.5 71.03,-7.7 11.73,-12 -22.44,-10.87 -10.71,-22.86 29.17,-29.83 56.33,-10.84 66.31,-40.73 4.93,-14.77 -42.94,-22.77 -31.19,-34.76 33.75,-19.71 150.4,-32.54 95.05,-87.89 L 224.75,27.83 c -17.03,-16.35 -45.45,-16.53 -61.6,0 z m 154.31,264.98 c 0,6.82 50.25,11.29 50.25,-1.61 -7.16,-20.72 -44.31,-19.32 -50.25,1.61 z M 91.1,329.05 c 11.9,10.29 30.28,-2.56 35.79,-16.92 -11.53,-15.32 -54.69,0.55 -35.79,16.92 z m 220.06,-22.23 c -15.34,13.76 1.72,27.72 16.84,18.83 3.37,-3.42 -0.09,-15.41 -16.84,-18.83 z" />
          <path
             inkscape:connector-curvature="0"
             style="fill:#ffffff;stroke-width:4.40958"
             id="path2315"
             d="m 131,238.6 c 3.59,2.23 57.89,13.26 71.16,15.46 4.6,0.97 1.34,5.71 -5,8.91 -14.3,3.8 -83.66,-24.37 -66.16,-24.37 z" />
          <path
             inkscape:connector-curvature="0"
             style="fill:#ffffff;stroke-width:4.40958"
             id="path2317"
             d="m 216.63,37.47 53.15,53.98 c 5.04,5.15 4.97,15.13 2.15,18 L 245.54,88.34 240.35,119.6 218.3,107.96 182.99,130.27 171.3,83.24 152.33,116.06 h -29 c -11.82,0 -13.21,-15 -2.47,-25.74 18.76,-20.25 40.29,-40.89 51.99,-52.85 11.76,-12.02 32.25,-11.68 43.78,0 z" />
        </g>
      </g>
    </g>
  </g>
</svg>
