<?xml version="1.0" encoding="UTF-8" standalone="no"?>
<svg
   xmlns:dc="http://purl.org/dc/elements/1.1/"
   xmlns:cc="http://creativecommons.org/ns#"
   xmlns:rdf="http://www.w3.org/1999/02/22-rdf-syntax-ns#"
   xmlns:svg="http://www.w3.org/2000/svg"
   xmlns="http://www.w3.org/2000/svg"
   xmlns:sodipodi="http://sodipodi.sourceforge.net/DTD/sodipodi-0.dtd"
   xmlns:inkscape="http://www.inkscape.org/namespaces/inkscape"
   width="100"
   height="100"
   viewBox="0 0 26.458334 26.458334"
   version="1.1"
   id="svg10012"
   inkscape:version="1.0.1 (1.0.1+r74)"
   sodipodi:docname="template_video_landscape.svg">
  <defs
     id="defs10006" />
  <sodipodi:namedview
     id="base"
     pagecolor="#ffffff"
     bordercolor="#666666"
     borderopacity="1.0"
     inkscape:pageopacity="0.0"
     inkscape:pageshadow="2"
     inkscape:zoom="0.73281742"
     inkscape:cx="-54.28215"
     inkscape:cy="356.1203"
     inkscape:document-units="px"
     inkscape:current-layer="g3293"
     inkscape:document-rotation="0"
     showgrid="false"
     units="px"
     inkscape:window-width="1534"
     inkscape:window-height="843"
     inkscape:window-x="66"
     inkscape:window-y="20"
     inkscape:window-maximized="1" />
  <metadata
     id="metadata10009">
    <rdf:RDF>
      <cc:Work
         rdf:about="">
        <dc:format>image/svg+xml</dc:format>
        <dc:type
           rdf:resource="http://purl.org/dc/dcmitype/StillImage" />
        <dc:title></dc:title>
      </cc:Work>
    </rdf:RDF>
  </metadata>
  <g
     inkscape:label="Layer 1"
     inkscape:groupmode="layer"
     id="layer1"
     transform="translate(-73.176064,-70.053966)">
    <g
       id="g3293"
       style="display:inline;stroke-width:0.397531"
       transform="matrix(2.5155261,0,0,2.5155261,-1042.5469,-1677.4998)">
      <g
         id="g18"
         transform="matrix(0.20288819,0,0,0.20288819,353.5467,555.42786)">
        <path
           id="path3185"
           style="font-variation-settings:normal;opacity:0.2;vector-effect:none;fill:#000000;fill-opacity:1;stroke:none;stroke-width:0.150919px;stroke-linecap:butt;stroke-linejoin:miter;stroke-miterlimit:4;stroke-dasharray:none;stroke-dashoffset:0;stroke-opacity:1;paint-order:stroke markers fill;stop-color:#000000"
           d="m 495.37606,696.56467 -1.44763,0.003 v 32.21847 h -0.92553 -46.67081 v 1.31334 h 49.04397 z"
           sodipodi:nodetypes="cccccccc" />
        <path
           id="path3187"
           style="color:#000000;font-style:normal;font-variant:normal;font-weight:normal;font-stretch:normal;font-size:medium;line-height:normal;font-family:sans-serif;font-variant-ligatures:normal;font-variant-position:normal;font-variant-caps:normal;font-variant-numeric:normal;font-variant-alternates:normal;font-variant-east-asian:normal;font-feature-settings:normal;font-variation-settings:normal;text-indent:0;text-align:start;text-decoration:none;text-decoration-line:none;text-decoration-style:solid;text-decoration-color:#000000;letter-spacing:normal;word-spacing:normal;text-transform:none;writing-mode:lr-tb;direction:ltr;text-orientation:mixed;dominant-baseline:auto;baseline-shift:baseline;text-anchor:start;white-space:normal;shape-padding:0;shape-margin:0;inline-size:0;clip-rule:nonzero;display:inline;overflow:visible;visibility:visible;opacity:0.4;isolation:auto;mix-blend-mode:normal;color-interpolation:sRGB;color-interpolation-filters:linearRGB;solid-color:#000000;solid-opacity:1;vector-effect:none;fill:#000000;fill-opacity:1;fill-rule:nonzero;stroke:none;stroke-width:0.675803;stroke-linecap:butt;stroke-linejoin:miter;stroke-miterlimit:4;stroke-dasharray:none;stroke-dashoffset:0;stroke-opacity:1;paint-order:stroke markers fill;color-rendering:auto;image-rendering:auto;shape-rendering:auto;text-rendering:auto;enable-background:accumulate;stop-color:#000000"
           d="m 443.53464,694.70707 v 0.84955 33.23176 h 0.92605 48.54459 0.92553 v -34.08131 z m 0.85112,0.84955 h 48.69445 v 32.38221 h -0.0744 -48.54511 -0.0749 z"
           sodipodi:nodetypes="ccccccccccccccc" />
        <path
           style="color:#000000;font-style:normal;font-variant:normal;font-weight:normal;font-stretch:normal;font-size:medium;line-height:normal;font-family:sans-serif;font-variant-ligatures:normal;font-variant-position:normal;font-variant-caps:normal;font-variant-numeric:normal;font-variant-alternates:normal;font-variant-east-asian:normal;font-feature-settings:normal;font-variation-settings:normal;text-indent:0;text-align:start;text-decoration:none;text-decoration-line:none;text-decoration-style:solid;text-decoration-color:#000000;letter-spacing:normal;word-spacing:normal;text-transform:none;writing-mode:lr-tb;direction:ltr;text-orientation:mixed;dominant-baseline:auto;baseline-shift:baseline;text-anchor:start;white-space:normal;shape-padding:0;shape-margin:0;inline-size:0;clip-rule:nonzero;display:inline;overflow:visible;visibility:visible;opacity:0.7;isolation:auto;mix-blend-mode:normal;color-interpolation:sRGB;color-interpolation-filters:linearRGB;solid-color:#000000;solid-opacity:1;vector-effect:none;fill:#ffffff;fill-opacity:1;fill-rule:nonzero;stroke:none;stroke-width:0.675803;stroke-linecap:butt;stroke-linejoin:miter;stroke-miterlimit:4;stroke-dasharray:none;stroke-dashoffset:0;stroke-opacity:1;paint-order:stroke markers fill;color-rendering:auto;image-rendering:auto;shape-rendering:auto;text-rendering:auto;enable-background:accumulate;stop-color:#000000"
           d="m 444.38552,695.55662 v 32.3822 h 0.0749 48.54511 0.0744 v -32.3822 z"
           id="path3189"
           sodipodi:nodetypes="ccccccc" />
        <path
           id="path3191"
           style="color:#000000;font-style:normal;font-variant:normal;font-weight:normal;font-stretch:normal;font-size:medium;line-height:normal;font-family:sans-serif;font-variant-ligatures:normal;font-variant-position:normal;font-variant-caps:normal;font-variant-numeric:normal;font-variant-alternates:normal;font-variant-east-asian:normal;font-feature-settings:normal;font-variation-settings:normal;text-indent:0;text-align:start;text-decoration:none;text-decoration-line:none;text-decoration-style:solid;text-decoration-color:#000000;letter-spacing:normal;word-spacing:normal;text-transform:none;writing-mode:lr-tb;direction:ltr;text-orientation:mixed;dominant-baseline:auto;baseline-shift:baseline;text-anchor:start;white-space:normal;shape-padding:0;shape-margin:0;inline-size:0;clip-rule:nonzero;display:inline;overflow:visible;visibility:visible;opacity:0.4;isolation:auto;mix-blend-mode:normal;color-interpolation:sRGB;color-interpolation-filters:linearRGB;solid-color:#000000;solid-opacity:1;vector-effect:none;fill:#000000;fill-opacity:1;fill-rule:nonzero;stroke:none;stroke-width:0.397531;stroke-linecap:butt;stroke-linejoin:miter;stroke-miterlimit:4;stroke-dasharray:none;stroke-dashoffset:0;stroke-opacity:1;paint-order:stroke markers fill;color-rendering:auto;image-rendering:auto;shape-rendering:auto;text-rendering:auto;enable-background:accumulate;stop-color:#000000"
           d="m 444.38218,699.99936 v 0.43098 h 1.60093 v 22.79059 h -0.003 -1.59473 -0.003 v 0.43098 h 0.003 1.59576 0.43357 v -23.65255 z m 46.65962,0 v 23.65255 h 0.43356 1.59577 0.003 v -0.43098 h -0.003 -1.59473 -0.003 v -22.79059 h 1.60093 v -0.43098 z m -43.02522,0.0103 v 0.50025 23.14094 h 0.56637 40.29206 0.56637 v -23.64119 z m 0.40876,0.41238 h 40.60728 v 22.81799 h -0.0651 -40.47602 -0.0661 z"
           sodipodi:nodetypes="ccccccccccccccccccccccccccccccccccccccccc" />
        <path
           id="path3193"
           style="color:#000000;font-style:normal;font-variant:normal;font-weight:normal;font-stretch:normal;font-size:medium;line-height:normal;font-family:sans-serif;font-variant-ligatures:normal;font-variant-position:normal;font-variant-caps:normal;font-variant-numeric:normal;font-variant-alternates:normal;font-variant-east-asian:normal;font-feature-settings:normal;font-variation-settings:normal;text-indent:0;text-align:start;text-decoration:none;text-decoration-line:none;text-decoration-style:solid;text-decoration-color:#000000;letter-spacing:normal;word-spacing:normal;text-transform:none;writing-mode:lr-tb;direction:ltr;text-orientation:mixed;dominant-baseline:auto;baseline-shift:baseline;text-anchor:start;white-space:normal;shape-padding:0;shape-margin:0;inline-size:0;clip-rule:nonzero;display:inline;overflow:visible;visibility:visible;opacity:0.2;isolation:auto;mix-blend-mode:normal;color-interpolation:sRGB;color-interpolation-filters:linearRGB;solid-color:#000000;solid-opacity:1;vector-effect:none;fill:#000000;fill-opacity:1;fill-rule:nonzero;stroke:none;stroke-width:3.77953;stroke-linecap:butt;stroke-linejoin:miter;stroke-miterlimit:4;stroke-dasharray:none;stroke-dashoffset:0;stroke-opacity:1;paint-order:stroke markers fill;color-rendering:auto;image-rendering:auto;shape-rendering:auto;text-rendering:auto;enable-background:accumulate;stop-color:#000000;stop-opacity:1"
           d="m 20.128906,101.57227 v 29.39648 h 14.335938 v -29.39648 z m 30.435547,0 v 29.39648 h 22.296875 v -29.39648 z m 38.392578,0 v 29.39648 h 22.294919 v -29.39648 z m 38.390629,0 v 29.39648 h 22.29492 v -29.39648 z m 38.39648,0 v 29.39648 h 22.29492 v -29.39648 z m 38.39063,0 v 29.39648 h 22.29492 v -29.39648 z m 38.39062,0 v 29.39648 h 22.29688 v -29.39648 z m 38.39649,0 v 29.39648 h 22.29687 v -29.39648 z m 38.39062,0 v 29.39648 h 22.29688 v -29.39648 z m 38.39258,0 v 29.39648 H 380 v -29.39648 z m 38.39062,0 v 29.39648 h 22.30078 v -29.39648 z m 38.39649,0 v 29.39648 h 22.29492 v -29.39648 z m 38.39062,0 v 29.39648 h 10.41602 V 101.57227 Z M 58.445312,142.38086 v 216.81836 h 0.628907 384.791011 0.625 V 142.38086 Z m -23.236328,0.0254 -15.21875,0.004 v 216.68359 h 0.0293 15.16211 0.02734 z m 447.779296,0 -15.21875,0.004 v 216.68359 h 0.0274 15.1621 0.0293 z m -231.27344,11.94922 c 52.95811,0 95.99414,43.03398 95.99414,95.99219 0,52.9582 -43.03603,95.97851 -95.99414,95.97851 -52.95801,0 -95.99218,-43.02031 -95.99218,-95.97851 0,-52.95821 43.03417,-95.99219 95.99218,-95.99219 z m 0,9.51172 c -47.81977,0 -86.48623,38.66088 -86.48632,86.48047 0,47.81996 38.66655,86.4707 86.48632,86.4707 47.81997,0 86.48633,-38.65074 86.48633,-86.4707 0,-47.81959 -38.66636,-86.48047 -86.48633,-86.48047 z m -27.30273,43.61914 75.4707,44.17773 -75.4707,43.57032 z M 20.128906,369 v 29.39453 H 34.464844 V 369 Z m 30.435547,0 v 29.39453 H 72.861328 V 369 Z m 38.392578,0 v 29.39453 H 111.25195 V 369 Z m 38.390629,0 v 29.39453 h 22.29492 V 369 Z m 38.39648,0 v 29.39453 h 22.29492 V 369 Z m 38.39063,0 v 29.39453 h 22.29492 V 369 Z m 38.39062,0 v 29.39453 h 22.29688 V 369 Z m 38.39649,0 v 29.39453 h 22.29687 V 369 Z m 38.39062,0 v 29.39453 h 22.29688 V 369 Z m 38.39258,0 v 29.39453 H 380 V 369 Z m 38.39062,0 v 29.39453 h 22.30078 V 369 Z m 38.39649,0 v 29.39453 h 22.29492 V 369 Z m 38.39062,0 v 29.39453 h 10.41602 V 369 Z"
           transform="matrix(0.10518012,0,0,0.10518012,442.27438,685.4505)" />
      </g>
    </g>
  </g>
</svg>
