<?xml version="1.0" encoding="UTF-8" standalone="no"?>
<svg
   xmlns:dc="http://purl.org/dc/elements/1.1/"
   xmlns:cc="http://creativecommons.org/ns#"
   xmlns:rdf="http://www.w3.org/1999/02/22-rdf-syntax-ns#"
   xmlns:svg="http://www.w3.org/2000/svg"
   xmlns="http://www.w3.org/2000/svg"
   xmlns:sodipodi="http://sodipodi.sourceforge.net/DTD/sodipodi-0.dtd"
   xmlns:inkscape="http://www.inkscape.org/namespaces/inkscape"
   width="100"
   height="100"
   viewBox="0 0 26.458333 26.458333"
   version="1.1"
   id="svg10012"
   inkscape:version="1.0.1 (1.0.1+r74)"
   sodipodi:docname="template_print_US_portrait.svg">
  <defs
     id="defs10006" />
  <sodipodi:namedview
     id="base"
     pagecolor="#ffffff"
     bordercolor="#666666"
     borderopacity="1.0"
     inkscape:pageopacity="0.0"
     inkscape:pageshadow="2"
     inkscape:zoom="0.59991803"
     inkscape:cx="295.87376"
     inkscape:cy="367.55022"
     inkscape:document-units="px"
     inkscape:current-layer="g4105"
     inkscape:document-rotation="0"
     showgrid="false"
     units="px"
     inkscape:window-width="1534"
     inkscape:window-height="843"
     inkscape:window-x="66"
     inkscape:window-y="20"
     inkscape:window-maximized="1" />
  <metadata
     id="metadata10009">
    <rdf:RDF>
      <cc:Work
         rdf:about="">
        <dc:format>image/svg+xml</dc:format>
        <dc:type
           rdf:resource="http://purl.org/dc/dcmitype/StillImage" />
        <dc:title></dc:title>
      </cc:Work>
    </rdf:RDF>
  </metadata>
  <g
     inkscape:label="Layer 1"
     inkscape:groupmode="layer"
     id="layer1"
     transform="translate(-70.005836,-46.768833)">
    <g
       id="g4105"
       transform="matrix(2.5155261,0,0,2.5155261,-901.15696,-166.04222)"
       style="display:inline;stroke-width:0.397531">
      <g
         id="g534"
         transform="matrix(0.19504698,0,0,0.19504698,310.43641,68.338866)">
        <path
           style="font-variation-settings:normal;display:inline;opacity:0.2;vector-effect:none;fill:#000000;fill-opacity:1;stroke:none;stroke-width:0.150919px;stroke-linecap:butt;stroke-linejoin:miter;stroke-miterlimit:4;stroke-dasharray:none;stroke-dashoffset:0;stroke-opacity:1;paint-order:stroke markers fill;stop-color:#000000"
           d="m 433.76422,92.332499 -1.24695,0.0021 v 43.925331 h -33.892 v 1.03094 h 35.13895 z"
           id="path4036"
           inkscape:export-filename="print_A4_portrait.png"
           inkscape:export-xdpi="85.269501"
           inkscape:export-ydpi="85.269501"
           sodipodi:nodetypes="ccccccc" />
        <path
           id="path839"
           style="color:#000000;font-style:normal;font-variant:normal;font-weight:normal;font-stretch:normal;font-size:medium;line-height:normal;font-family:sans-serif;font-variant-ligatures:normal;font-variant-position:normal;font-variant-caps:normal;font-variant-numeric:normal;font-variant-alternates:normal;font-variant-east-asian:normal;font-feature-settings:normal;font-variation-settings:normal;text-indent:0;text-align:start;text-decoration:none;text-decoration-line:none;text-decoration-style:solid;text-decoration-color:#000000;letter-spacing:normal;word-spacing:normal;text-transform:none;writing-mode:lr-tb;direction:ltr;text-orientation:mixed;dominant-baseline:auto;baseline-shift:baseline;text-anchor:start;white-space:normal;shape-padding:0;shape-margin:0;inline-size:0;clip-rule:nonzero;display:inline;overflow:visible;visibility:visible;opacity:0.7;isolation:auto;mix-blend-mode:normal;color-interpolation:sRGB;color-interpolation-filters:linearRGB;solid-color:#000000;solid-opacity:1;vector-effect:none;fill:#ffffff;fill-opacity:1;fill-rule:nonzero;stroke:none;stroke-width:6.42518;stroke-linecap:butt;stroke-linejoin:miter;stroke-miterlimit:4;stroke-dasharray:none;stroke-dashoffset:0;stroke-opacity:1;paint-order:stroke markers fill;color-rendering:auto;image-rendering:auto;shape-rendering:auto;text-rendering:auto;enable-background:accumulate;stop-color:#000000"
           d="m 433.53516,47.636719 -250.28451,0.414062 -83.838725,81.594809 0.04315,353.43839 H 433.53516 Z"
           transform="matrix(0.10518012,0,0,0.10518012,386.06747,84.599024)"
           sodipodi:nodetypes="cccccc" />
        <path
           id="path4040"
           style="font-variation-settings:normal;display:inline;opacity:0.2;vector-effect:none;fill:#000000;fill-opacity:1;stroke:none;stroke-width:0.397531;stroke-linecap:butt;stroke-linejoin:miter;stroke-miterlimit:4;stroke-dasharray:none;stroke-dashoffset:0;stroke-opacity:1;paint-order:stroke markers fill;stop-color:#000000"
           d="m 405.79926,94.5379 v 3.934645 h -5.04349 V 109.26 c 0,0.56969 0.45865,1.02836 1.02835,1.02836 h 24.62213 c 0.56968,0 1.02836,-0.45867 1.02836,-1.02836 V 95.565745 c 0,-0.569687 -0.45868,-1.027845 -1.02836,-1.027845 z m -4.01514,17.46095 c -0.5697,0 -1.02835,0.36965 -1.02835,0.82837 0,0.45873 0.45865,0.82786 1.02835,0.82786 h 24.62213 c 0.56968,0 1.02836,-0.36913 1.02836,-0.82786 0,-0.45872 -0.45868,-0.82837 -1.02836,-0.82837 z m 0,3.2029 c -0.5697,0 -1.02835,0.36914 -1.02835,0.82786 0,0.45873 0.45865,0.82786 1.02835,0.82786 h 9.02219 c 0.56967,0 1.02836,-0.36913 1.02836,-0.82786 0,-0.45872 -0.45869,-0.82786 -1.02836,-0.82786 z m 12.81473,0.0517 c -0.56968,0 -1.02786,0.45867 -1.02786,1.02836 v 12.95684 c 0,0.56968 0.45818,1.02836 1.02786,1.02836 h 11.58052 c 0.5697,0 1.02839,-0.45868 1.02839,-1.02836 v -12.95684 c 0,-0.56969 -0.45869,-1.02836 -1.02839,-1.02836 z m -12.81473,3.31866 c -0.5697,0 -1.02835,0.36913 -1.02835,0.82786 0,0.45872 0.45865,0.82837 1.02835,0.82837 h 9.02219 c 0.56967,0 1.02836,-0.36965 1.02836,-0.82837 0,-0.45873 -0.45869,-0.82786 -1.02836,-0.82786 z m 0,3.37034 c -0.5697,0 -1.02835,0.36914 -1.02835,0.82786 0,0.45873 0.45865,0.82837 1.02835,0.82837 h 9.02219 c 0.56967,0 1.02836,-0.36964 1.02836,-0.82837 0,-0.45872 -0.45869,-0.82786 -1.02836,-0.82786 z m 0,3.37034 c -0.5697,0 -1.02835,0.36913 -1.02835,0.82785 0,0.45873 0.45865,0.82838 1.02835,0.82838 h 9.02219 c 0.56967,0 1.02836,-0.36965 1.02836,-0.82838 0,-0.45872 -0.45869,-0.82785 -1.02836,-0.82785 z m 0,3.37033 c -0.5697,0 -1.02835,0.36966 -1.02835,0.82838 0,0.45873 0.45865,0.82785 1.02835,0.82785 h 9.02219 c 0.56967,0 1.02836,-0.36912 1.02836,-0.82785 0,-0.45872 -0.45869,-0.82838 -1.02836,-0.82838 z m 0,3.4122 c -0.5697,0 -1.02835,0.36964 -1.02835,0.82837 0,0.45872 0.45865,0.82786 1.02835,0.82786 h 24.62213 c 0.56968,0 1.02836,-0.36914 1.02836,-0.82786 0,-0.45873 -0.45868,-0.82837 -1.02836,-0.82837 z"
           inkscape:export-filename="print_A4_portrait.png"
           inkscape:export-xdpi="85.269501"
           inkscape:export-ydpi="85.269501"
           sodipodi:nodetypes="cccsssssscssssssssssssssssssssssssssssssssssssssssssssssssssssssssss" />
        <path
           id="path4044"
           style="color:#000000;font-style:normal;font-variant:normal;font-weight:normal;font-stretch:normal;font-size:medium;line-height:normal;font-family:sans-serif;font-variant-ligatures:normal;font-variant-position:normal;font-variant-caps:normal;font-variant-numeric:normal;font-variant-alternates:normal;font-variant-east-asian:normal;font-feature-settings:normal;font-variation-settings:normal;text-indent:0;text-align:start;text-decoration:none;text-decoration-line:none;text-decoration-style:solid;text-decoration-color:#000000;letter-spacing:normal;word-spacing:normal;text-transform:none;writing-mode:lr-tb;direction:ltr;text-orientation:mixed;dominant-baseline:auto;baseline-shift:baseline;text-anchor:start;white-space:normal;shape-padding:0;shape-margin:0;inline-size:0;clip-rule:nonzero;display:inline;overflow:visible;visibility:visible;opacity:0.4;isolation:auto;mix-blend-mode:normal;color-interpolation:sRGB;color-interpolation-filters:linearRGB;solid-color:#000000;solid-opacity:1;vector-effect:none;fill:#000000;fill-opacity:1;fill-rule:nonzero;stroke:none;stroke-width:0.675803;stroke-linecap:butt;stroke-linejoin:miter;stroke-miterlimit:4;stroke-dasharray:none;stroke-dashoffset:0;stroke-opacity:1;paint-order:stroke markers fill;color-rendering:auto;image-rendering:auto;shape-rendering:auto;text-rendering:auto;enable-background:accumulate;stop-color:#000000"
           d="m 432.51727,88.757892 -27.65207,0.04651 -0.24805,0.24443 -8.9395,8.814448 v 38.39662 h 36.83962 z m -27.16476,0.889474 v 8.32495 h -8.54992 z m 26.31415,-0.03785 v 45.800304 h -35.1384 V 98.472545 h 9.32344 v -8.819618 z"
           inkscape:export-filename="print_A4_portrait.png"
           inkscape:export-xdpi="85.269501"
           inkscape:export-ydpi="85.269501"
           sodipodi:nodetypes="cccccccccccccccccc" />
      </g>
    </g>
  </g>
</svg>
