<?xml version="1.0" encoding="UTF-8" standalone="no"?>
<svg
   xmlns:dc="http://purl.org/dc/elements/1.1/"
   xmlns:cc="http://creativecommons.org/ns#"
   xmlns:rdf="http://www.w3.org/1999/02/22-rdf-syntax-ns#"
   xmlns:svg="http://www.w3.org/2000/svg"
   xmlns="http://www.w3.org/2000/svg"
   xmlns:sodipodi="http://sodipodi.sourceforge.net/DTD/sodipodi-0.dtd"
   xmlns:inkscape="http://www.inkscape.org/namespaces/inkscape"
   width="100"
   height="100"
   viewBox="0 0 26.458334 26.458334"
   version="1.1"
   id="svg10012"
   inkscape:version="1.0.1 (1.0.1+r74)"
   sodipodi:docname="template_image_portrait.svg">
  <defs
     id="defs10006" />
  <sodipodi:namedview
     id="base"
     pagecolor="#ffffff"
     bordercolor="#666666"
     borderopacity="1.0"
     inkscape:pageopacity="0.0"
     inkscape:pageshadow="2"
     inkscape:zoom="0.0875"
     inkscape:cx="-1010.0819"
     inkscape:cy="-119.91468"
     inkscape:document-units="px"
     inkscape:current-layer="layer1"
     inkscape:document-rotation="0"
     showgrid="false"
     units="px"
     inkscape:window-width="1534"
     inkscape:window-height="843"
     inkscape:window-x="66"
     inkscape:window-y="20"
     inkscape:window-maximized="1" />
  <metadata
     id="metadata10009">
    <rdf:RDF>
      <cc:Work
         rdf:about="">
        <dc:format>image/svg+xml</dc:format>
        <dc:type
           rdf:resource="http://purl.org/dc/dcmitype/StillImage" />
        <dc:title></dc:title>
      </cc:Work>
    </rdf:RDF>
  </metadata>
  <g
     inkscape:label="Layer 1"
     inkscape:groupmode="layer"
     id="layer1"
     transform="translate(-93.848627,-49.584595)">
    <g
       id="g9652"
       style="display:inline;stroke-width:0.397531"
       transform="matrix(0.51209599,0,0,0.51209599,-126.29457,-452.76396)">
      <path
         id="path9640"
         style="color:#000000;font-style:normal;font-variant:normal;font-weight:normal;font-stretch:normal;font-size:medium;line-height:normal;font-family:sans-serif;font-variant-ligatures:normal;font-variant-position:normal;font-variant-caps:normal;font-variant-numeric:normal;font-variant-alternates:normal;font-variant-east-asian:normal;font-feature-settings:normal;font-variation-settings:normal;text-indent:0;text-align:start;text-decoration:none;text-decoration-line:none;text-decoration-style:solid;text-decoration-color:#000000;letter-spacing:normal;word-spacing:normal;text-transform:none;writing-mode:lr-tb;direction:ltr;text-orientation:mixed;dominant-baseline:auto;baseline-shift:baseline;text-anchor:start;white-space:normal;shape-padding:0;shape-margin:0;inline-size:0;clip-rule:nonzero;display:inline;overflow:visible;visibility:visible;opacity:0.2;isolation:auto;mix-blend-mode:normal;color-interpolation:sRGB;color-interpolation-filters:linearRGB;solid-color:#000000;solid-opacity:1;vector-effect:none;fill:#000000;fill-opacity:1;fill-rule:nonzero;stroke:none;stroke-width:0.570401px;stroke-linecap:butt;stroke-linejoin:miter;stroke-miterlimit:4;stroke-dasharray:none;stroke-dashoffset:0;stroke-opacity:1;paint-order:stroke markers fill;color-rendering:auto;image-rendering:auto;shape-rendering:auto;text-rendering:auto;enable-background:accumulate;stop-color:#000000"
         d="m 642.63281,4044.998 -4.71289,0.01 v 181.0449 h -3.49219 -114.1875 v 4.6153 h 123.11133 v -185.67 z"
         transform="matrix(0.26458333,0,0,0.26458333,303.2026,-86.731924)" />
      <path
         style="color:#000000;font-style:normal;font-variant:normal;font-weight:normal;font-stretch:normal;font-size:medium;line-height:normal;font-family:sans-serif;font-variant-ligatures:normal;font-variant-position:normal;font-variant-caps:normal;font-variant-numeric:normal;font-variant-alternates:normal;font-variant-east-asian:normal;font-feature-settings:normal;font-variation-settings:normal;text-indent:0;text-align:start;text-decoration:none;text-decoration-line:none;text-decoration-style:solid;text-decoration-color:#000000;letter-spacing:normal;word-spacing:normal;text-transform:none;writing-mode:lr-tb;direction:ltr;text-orientation:mixed;dominant-baseline:auto;baseline-shift:baseline;text-anchor:start;white-space:normal;shape-padding:0;shape-margin:0;inline-size:0;clip-rule:nonzero;display:inline;overflow:visible;visibility:visible;opacity:0.7;isolation:auto;mix-blend-mode:normal;color-interpolation:sRGB;color-interpolation-filters:linearRGB;solid-color:#000000;solid-opacity:1;vector-effect:none;fill:#ffffff;fill-opacity:1;fill-rule:nonzero;stroke:none;stroke-width:0.675803;stroke-linecap:butt;stroke-linejoin:miter;stroke-miterlimit:4;stroke-dasharray:none;stroke-dashoffset:0;stroke-opacity:1;paint-order:stroke markers fill;color-rendering:auto;image-rendering:auto;shape-rendering:auto;text-rendering:auto;enable-background:accumulate;stop-color:#000000"
         d="m 438.86734,981.81619 v 48.74531 h 0.0749 32.11896 0.0744 v -48.74531 z"
         id="path9554" />
      <path
         id="path9552"
         style="color:#000000;font-style:normal;font-variant:normal;font-weight:normal;font-stretch:normal;font-size:medium;line-height:normal;font-family:sans-serif;font-variant-ligatures:normal;font-variant-position:normal;font-variant-caps:normal;font-variant-numeric:normal;font-variant-alternates:normal;font-variant-east-asian:normal;font-feature-settings:normal;font-variation-settings:normal;text-indent:0;text-align:start;text-decoration:none;text-decoration-line:none;text-decoration-style:solid;text-decoration-color:#000000;letter-spacing:normal;word-spacing:normal;text-transform:none;writing-mode:lr-tb;direction:ltr;text-orientation:mixed;dominant-baseline:auto;baseline-shift:baseline;text-anchor:start;white-space:normal;shape-padding:0;shape-margin:0;inline-size:0;clip-rule:nonzero;display:inline;overflow:visible;visibility:visible;opacity:0.4;isolation:auto;mix-blend-mode:normal;color-interpolation:sRGB;color-interpolation-filters:linearRGB;solid-color:#000000;solid-opacity:1;vector-effect:none;fill:#000000;fill-opacity:1;fill-rule:nonzero;stroke:none;stroke-width:0.675803;stroke-linecap:butt;stroke-linejoin:miter;stroke-miterlimit:4;stroke-dasharray:none;stroke-dashoffset:0;stroke-opacity:1;paint-order:stroke markers fill;color-rendering:auto;image-rendering:auto;shape-rendering:auto;text-rendering:auto;enable-background:accumulate;stop-color:#000000"
         d="m 438.01721,980.96561 v 0.84955 49.59594 h 0.92552 32.11897 0.92398 v -50.44549 z m 0.85008,0.85058 h 32.26831 v 48.74541 h -0.0744 -32.11897 -0.0749 z" />
      <path
         id="path9546"
         style="color:#000000;font-style:normal;font-variant:normal;font-weight:normal;font-stretch:normal;font-size:medium;line-height:normal;font-family:sans-serif;font-variant-ligatures:normal;font-variant-position:normal;font-variant-caps:normal;font-variant-numeric:normal;font-variant-alternates:normal;font-variant-east-asian:normal;font-feature-settings:normal;font-variation-settings:normal;text-indent:0;text-align:start;text-decoration:none;text-decoration-line:none;text-decoration-style:solid;text-decoration-color:#000000;letter-spacing:normal;word-spacing:normal;text-transform:none;writing-mode:lr-tb;direction:ltr;text-orientation:mixed;dominant-baseline:auto;baseline-shift:baseline;text-anchor:start;white-space:normal;shape-padding:0;shape-margin:0;inline-size:0;clip-rule:nonzero;display:inline;overflow:visible;visibility:visible;opacity:0.4;isolation:auto;mix-blend-mode:normal;color-interpolation:sRGB;color-interpolation-filters:linearRGB;solid-color:#000000;solid-opacity:1;vector-effect:none;fill:#000000;fill-opacity:1;fill-rule:nonzero;stroke:none;stroke-width:0.39753;stroke-linecap:butt;stroke-linejoin:miter;stroke-miterlimit:4;stroke-dasharray:none;stroke-dashoffset:0;stroke-opacity:1;paint-order:stroke markers fill;color-rendering:auto;image-rendering:auto;shape-rendering:auto;text-rendering:auto;enable-background:accumulate;stop-color:#000000"
         d="m 440.76681,983.49321 v 0.49972 44.79317 h 0.56431 27.342 0.56275 v -45.29289 z m 0.50023,0.49972 h 27.46912 v 44.29337 h -0.0636 -27.342 -0.0636 z" />
      <path
         id="path9548"
         style="color:#000000;font-style:normal;font-variant:normal;font-weight:normal;font-stretch:normal;font-size:medium;line-height:normal;font-family:sans-serif;font-variant-ligatures:normal;font-variant-position:normal;font-variant-caps:normal;font-variant-numeric:normal;font-variant-alternates:normal;font-variant-east-asian:normal;font-feature-settings:normal;font-variation-settings:normal;text-indent:0;text-align:start;text-decoration:none;text-decoration-line:none;text-decoration-style:solid;text-decoration-color:#000000;letter-spacing:normal;word-spacing:normal;text-transform:none;writing-mode:lr-tb;direction:ltr;text-orientation:mixed;dominant-baseline:auto;baseline-shift:baseline;text-anchor:start;white-space:normal;shape-padding:0;shape-margin:0;inline-size:0;clip-rule:nonzero;display:inline;overflow:visible;visibility:visible;opacity:0.2;isolation:auto;mix-blend-mode:normal;color-interpolation:sRGB;color-interpolation-filters:linearRGB;solid-color:#000000;solid-opacity:1;vector-effect:none;fill:#000000;fill-opacity:1;fill-rule:nonzero;stroke:none;stroke-width:1.50247;stroke-linecap:butt;stroke-linejoin:miter;stroke-miterlimit:4;stroke-dasharray:none;stroke-dashoffset:0;stroke-opacity:1;paint-order:stroke markers fill;color-rendering:auto;image-rendering:auto;shape-rendering:auto;text-rendering:auto;enable-background:accumulate;stop-color:#000000"
         d="m 521.81836,4046.834 v 167.4082 h 0.24023 103.33985 0.24023 V 4046.834 Z m 68.7793,50.3515 a 19.230789,19.230789 0 0 1 0.32812,0 19.230789,19.230789 0 0 1 0.0254,0 19.230789,19.230789 0 0 1 0.32813,0 19.230789,19.230789 0 0 1 0.32812,0.012 19.230789,19.230789 0 0 1 0.32617,0.016 19.230789,19.230789 0 0 1 0.32813,0.018 19.230789,19.230789 0 0 1 0.32812,0.023 19.230789,19.230789 0 0 1 0.32618,0.031 19.230789,19.230789 0 0 1 0.32617,0.037 19.230789,19.230789 0 0 1 0.32422,0.041 19.230789,19.230789 0 0 1 0.32421,0.049 19.230789,19.230789 0 0 1 0.32422,0.051 19.230789,19.230789 0 0 1 0.32422,0.059 19.230789,19.230789 0 0 1 0.32032,0.066 19.230789,19.230789 0 0 1 0.32031,0.068 19.230789,19.230789 0 0 1 0.32031,0.074 19.230789,19.230789 0 0 1 0.31836,0.082 19.230789,19.230789 0 0 1 0.31641,0.084 19.230789,19.230789 0 0 1 0.3164,0.092 19.230789,19.230789 0 0 1 0.3125,0.1 19.230789,19.230789 0 0 1 0.3125,0.1 19.230789,19.230789 0 0 1 0.31055,0.1074 19.230789,19.230789 0 0 1 0.30664,0.1113 19.230789,19.230789 0 0 1 0.30664,0.1192 19.230789,19.230789 0 0 1 0.30469,0.123 19.230789,19.230789 0 0 1 0.30078,0.1289 19.230789,19.230789 0 0 1 0.30078,0.1329 19.230789,19.230789 0 0 1 0.29687,0.1367 19.230789,19.230789 0 0 1 0.29493,0.1445 19.230789,19.230789 0 0 1 0.29297,0.1484 19.230789,19.230789 0 0 1 0.29101,0.1524 19.230789,19.230789 0 0 1 0.28711,0.1582 19.230789,19.230789 0 0 1 0.28516,0.1641 19.230789,19.230789 0 0 1 0.28125,0.1679 19.230789,19.230789 0 0 1 0.27929,0.1719 19.230789,19.230789 0 0 1 0.27539,0.1777 19.230789,19.230789 0 0 1 0.27344,0.1817 19.230789,19.230789 0 0 1 0.26758,0.1875 19.230789,19.230789 0 0 1 0.26758,0.1914 19.230789,19.230789 0 0 1 0.26367,0.1953 19.230789,19.230789 0 0 1 0.25977,0.2012 19.230789,19.230789 0 0 1 0.25585,0.2031 19.230789,19.230789 0 0 1 0.25196,0.2109 19.230789,19.230789 0 0 1 0.25,0.211 19.230789,19.230789 0 0 1 0.24414,0.2187 19.230789,19.230789 0 0 1 0.24414,0.2227 19.230789,19.230789 0 0 1 0.23828,0.2226 19.230789,19.230789 0 0 1 0.23242,0.2305 19.230789,19.230789 0 0 1 0.23047,0.2344 19.230789,19.230789 0 0 1 0.22461,0.2363 19.230789,19.230789 0 0 1 0.22266,0.2422 19.230789,19.230789 0 0 1 0.21875,0.2441 19.230789,19.230789 0 0 1 0.21289,0.2481 19.230789,19.230789 0 0 1 0.21094,0.2539 19.230789,19.230789 0 0 1 0.20312,0.2558 19.230789,19.230789 0 0 1 0.20117,0.2598 19.230789,19.230789 0 0 1 0.19727,0.2637 19.230789,19.230789 0 0 1 0.1914,0.2676 19.230789,19.230789 0 0 1 0.1875,0.2675 19.230789,19.230789 0 0 1 0.18164,0.2715 19.230789,19.230789 0 0 1 0.17774,0.2774 19.230789,19.230789 0 0 1 0.17383,0.2793 19.230789,19.230789 0 0 1 0.16797,0.2793 19.230789,19.230789 0 0 1 0.16406,0.2871 19.230789,19.230789 0 0 1 0.1582,0.2871 19.230789,19.230789 0 0 1 0.1543,0.2871 19.230789,19.230789 0 0 1 0.14844,0.2949 19.230789,19.230789 0 0 1 0.14257,0.2949 19.230789,19.230789 0 0 1 0.13868,0.2949 19.230789,19.230789 0 0 1 0.13281,0.3028 19.230789,19.230789 0 0 1 0.13086,0.3027 19.230789,19.230789 0 0 1 0.12109,0.3067 19.230789,19.230789 0 0 1 0.11914,0.3046 19.230789,19.230789 0 0 1 0.11328,0.3067 19.230789,19.230789 0 0 1 0.10743,0.3105 19.230789,19.230789 0 0 1 0.10156,0.3106 19.230789,19.230789 0 0 1 0.0976,0.3125 19.230789,19.230789 0 0 1 0.0918,0.3183 19.230789,19.230789 0 0 1 0.0859,0.3125 19.230789,19.230789 0 0 1 0.0801,0.3184 19.230789,19.230789 0 0 1 0.0762,0.3203 19.230789,19.230789 0 0 1 0.0684,0.3223 19.230789,19.230789 0 0 1 0.0664,0.3203 19.230789,19.230789 0 0 1 0.0586,0.3262 19.230789,19.230789 0 0 1 0.0527,0.3203 19.230789,19.230789 0 0 1 0.0488,0.3261 19.230789,19.230789 0 0 1 0.041,0.3243 19.230789,19.230789 0 0 1 0.0371,0.3242 19.230789,19.230789 0 0 1 0.0293,0.3262 19.230789,19.230789 0 0 1 0.0273,0.3242 19.230789,19.230789 0 0 1 0.0195,0.33 19.230789,19.230789 0 0 1 0.0137,0.3282 19.230789,19.230789 0 0 1 0.0117,0.3242 19.230789,19.230789 0 0 1 0.002,0.3301 19.230789,19.230789 0 0 1 0,0.037 19.230789,19.230789 0 0 1 -0.002,0.3301 19.230789,19.230789 0 0 1 -0.008,0.3281 19.230789,19.230789 0 0 1 -0.0137,0.3281 19.230789,19.230789 0 0 1 -0.0195,0.3262 19.230789,19.230789 0 0 1 -0.0234,0.3242 19.230789,19.230789 0 0 1 -0.0293,0.3281 19.230789,19.230789 0 0 1 -0.0391,0.3262 19.230789,19.230789 0 0 1 -0.043,0.3242 19.230789,19.230789 0 0 1 -0.0469,0.3262 19.230789,19.230789 0 0 1 -0.0508,0.3242 19.230789,19.230789 0 0 1 -0.0586,0.3223 19.230789,19.230789 0 0 1 -0.0645,0.3203 19.230789,19.230789 0 0 1 -0.0684,0.3183 19.230789,19.230789 0 0 1 -0.0742,0.3204 19.230789,19.230789 0 0 1 -0.0801,0.3183 19.230789,19.230789 0 0 1 -0.0879,0.3164 19.230789,19.230789 0 0 1 -0.0899,0.3145 19.230789,19.230789 0 0 1 -0.0957,0.3125 19.230789,19.230789 0 0 1 -0.10352,0.3144 19.230789,19.230789 0 0 1 -0.10547,0.3106 19.230789,19.230789 0 0 1 -0.11523,0.3086 19.230789,19.230789 0 0 1 -0.11719,0.3066 19.230789,19.230789 0 0 1 -0.12304,0.3066 19.230789,19.230789 0 0 1 -0.12696,0.3028 19.230789,19.230789 0 0 1 -0.13476,0.3027 19.230789,19.230789 0 0 1 -0.13867,0.2969 19.230789,19.230789 0 0 1 -0.14258,0.2949 19.230789,19.230789 0 0 1 -0.14844,0.291 19.230789,19.230789 0 0 1 -0.15234,0.291 19.230789,19.230789 0 0 1 -0.15821,0.2872 19.230789,19.230789 0 0 1 -0.16406,0.2871 19.230789,19.230789 0 0 1 -0.16797,0.2812 19.230789,19.230789 0 0 1 -0.17187,0.2754 19.230789,19.230789 0 0 1 -0.17774,0.2754 19.230789,19.230789 0 0 1 -0.18359,0.2734 19.230789,19.230789 0 0 1 -0.18555,0.2715 19.230789,19.230789 0 0 1 -0.1914,0.2637 19.230789,19.230789 0 0 1 -0.19532,0.2656 19.230789,19.230789 0 0 1 -0.19922,0.2598 19.230789,19.230789 0 0 1 -0.20507,0.2578 19.230789,19.230789 0 0 1 -0.20899,0.2539 19.230789,19.230789 0 0 1 -0.21484,0.248 19.230789,19.230789 0 0 1 -0.2168,0.2461 19.230789,19.230789 0 0 1 -0.2207,0.2422 19.230789,19.230789 0 0 1 -0.22656,0.2383 19.230789,19.230789 0 0 1 -0.23047,0.2344 19.230789,19.230789 0 0 1 -0.23243,0.2305 19.230789,19.230789 0 0 1 -0.23828,0.2265 19.230789,19.230789 0 0 1 -0.24218,0.2227 19.230789,19.230789 0 0 1 -0.24414,0.2148 19.230789,19.230789 0 0 1 -0.0703,0.061 l -8.8164,-8.9278 -0.7461,0.7578 -10.00781,10.1329 -11.72656,-12.0957 a 19.230789,19.230789 0 0 1 -0.0371,-0.1543 19.230789,19.230789 0 0 1 -0.0703,-0.3223 19.230789,19.230789 0 0 1 -0.0645,-0.3203 19.230789,19.230789 0 0 1 -0.0586,-0.3242 19.230789,19.230789 0 0 1 -0.0527,-0.3223 19.230789,19.230789 0 0 1 -0.0488,-0.3242 19.230789,19.230789 0 0 1 -0.041,-0.3262 19.230789,19.230789 0 0 1 -0.0371,-0.3242 19.230789,19.230789 0 0 1 -0.0312,-0.3301 19.230789,19.230789 0 0 1 -0.0254,-0.3242 19.230789,19.230789 0 0 1 -0.0234,-0.3281 19.230789,19.230789 0 0 1 -0.0156,-0.3301 19.230789,19.230789 0 0 1 -0.01,-0.3281 19.230789,19.230789 0 0 1 -0.002,-0.3243 19.230789,19.230789 0 0 1 0,-0.039 19.230789,19.230789 0 0 1 0.002,-0.3281 19.230789,19.230789 0 0 1 0.006,-0.3282 19.230789,19.230789 0 0 1 0.0156,-0.3301 19.230789,19.230789 0 0 1 0.0195,-0.3242 19.230789,19.230789 0 0 1 0.0215,-0.3261 19.230789,19.230789 0 0 1 0.0312,-0.3282 19.230789,19.230789 0 0 1 0.0371,-0.3242 19.230789,19.230789 0 0 1 0.043,-0.3262 19.230789,19.230789 0 0 1 0.0449,-0.3242 19.230789,19.230789 0 0 1 0.0547,-0.3262 19.230789,19.230789 0 0 1 0.0566,-0.3203 19.230789,19.230789 0 0 1 0.0684,-0.3261 19.230789,19.230789 0 0 1 0.0684,-0.3164 19.230789,19.230789 0 0 1 0.0723,-0.3223 19.230789,19.230789 0 0 1 0.082,-0.3164 19.230789,19.230789 0 0 1 0.084,-0.3184 19.230789,19.230789 0 0 1 0.0918,-0.3125 19.230789,19.230789 0 0 1 0.0957,-0.3144 19.230789,19.230789 0 0 1 0.10352,-0.3145 19.230789,19.230789 0 0 1 0.10547,-0.3086 19.230789,19.230789 0 0 1 0.11328,-0.3105 19.230789,19.230789 0 0 1 0.11718,-0.3067 19.230789,19.230789 0 0 1 0.12305,-0.3046 19.230789,19.230789 0 0 1 0.12695,-0.3028 19.230789,19.230789 0 0 1 0.13282,-0.3027 19.230789,19.230789 0 0 1 0.14062,-0.2949 19.230789,19.230789 0 0 1 0.14063,-0.295 19.230789,19.230789 0 0 1 0.14843,-0.291 19.230789,19.230789 0 0 1 0.15625,-0.289 19.230789,19.230789 0 0 1 0.15625,-0.2871 19.230789,19.230789 0 0 1 0.16211,-0.2852 19.230789,19.230789 0 0 1 0.16993,-0.2832 19.230789,19.230789 0 0 1 0.17187,-0.2774 19.230789,19.230789 0 0 1 0.17774,-0.2773 19.230789,19.230789 0 0 1 0.18164,-0.2715 19.230789,19.230789 0 0 1 0.1875,-0.2715 19.230789,19.230789 0 0 1 0.1914,-0.2656 19.230789,19.230789 0 0 1 0.19531,-0.2617 19.230789,19.230789 0 0 1 0.19922,-0.2598 19.230789,19.230789 0 0 1 0.20703,-0.2578 19.230789,19.230789 0 0 1 0.20704,-0.2519 19.230789,19.230789 0 0 1 0.21484,-0.25 19.230789,19.230789 0 0 1 0.2168,-0.2461 19.230789,19.230789 0 0 1 0.2207,-0.2403 19.230789,19.230789 0 0 1 0.22656,-0.2382 19.230789,19.230789 0 0 1 0.23242,-0.2344 19.230789,19.230789 0 0 1 0.23243,-0.2305 19.230789,19.230789 0 0 1 0.23632,-0.2266 19.230789,19.230789 0 0 1 0.24219,-0.2226 19.230789,19.230789 0 0 1 0.2461,-0.2168 19.230789,19.230789 0 0 1 0.24804,-0.2129 19.230789,19.230789 0 0 1 0.25196,-0.209 19.230789,19.230789 0 0 1 0.25585,-0.2051 19.230789,19.230789 0 0 1 0.25977,-0.2011 19.230789,19.230789 0 0 1 0.26367,-0.1973 19.230789,19.230789 0 0 1 0.26758,-0.1914 19.230789,19.230789 0 0 1 0.26953,-0.1875 19.230789,19.230789 0 0 1 0.27344,-0.1816 19.230789,19.230789 0 0 1 0.27539,-0.1778 19.230789,19.230789 0 0 1 0.27734,-0.1738 19.230789,19.230789 0 0 1 0.28125,-0.168 19.230789,19.230789 0 0 1 0.28516,-0.164 19.230789,19.230789 0 0 1 0.28711,-0.1582 19.230789,19.230789 0 0 1 0.29101,-0.1543 19.230789,19.230789 0 0 1 0.29102,-0.1485 19.230789,19.230789 0 0 1 0.29492,-0.1426 19.230789,19.230789 0 0 1 0.29688,-0.1406 19.230789,19.230789 0 0 1 0.30078,-0.1328 19.230789,19.230789 0 0 1 0.30078,-0.1269 19.230789,19.230789 0 0 1 0.30469,-0.125 19.230789,19.230789 0 0 1 0.30664,-0.1172 19.230789,19.230789 0 0 1 0.30664,-0.1133 19.230789,19.230789 0 0 1 0.31055,-0.1074 19.230789,19.230789 0 0 1 0.31054,-0.1016 19.230789,19.230789 0 0 1 0.31446,-0.098 19.230789,19.230789 0 0 1 0.31445,-0.092 19.230789,19.230789 0 0 1 0.31836,-0.086 19.230789,19.230789 0 0 1 0.3164,-0.08 19.230789,19.230789 0 0 1 0.32032,-0.076 19.230789,19.230789 0 0 1 0.31836,-0.07 19.230789,19.230789 0 0 1 0.32226,-0.064 19.230789,19.230789 0 0 1 0.32227,-0.059 19.230789,19.230789 0 0 1 0.32617,-0.053 19.230789,19.230789 0 0 1 0.32226,-0.047 19.230789,19.230789 0 0 1 0.32618,-0.045 19.230789,19.230789 0 0 1 0.32617,-0.035 19.230789,19.230789 0 0 1 0.32617,-0.033 19.230789,19.230789 0 0 1 0.32813,-0.023 19.230789,19.230789 0 0 1 0.32812,-0.018 19.230789,19.230789 0 0 1 0.32617,-0.016 19.230789,19.230789 0 0 1 0.32813,-0.012 z m -27.97461,16.7559 4.16211,4.293 2.44922,2.5254 4.98046,5.1386 6.74024,6.9493 1.52539,1.5722 -1.67578,1.6953 -1.53516,1.5567 -11.90625,12.0547 h -39.43945 z m 32.08203,11.084 7.14453,7.2324 2.07422,2.0996 1.48633,1.5039 13.44726,13.6153 h -18.85547 -2.92578 -26.52148 l 10.69726,-10.8301 1.58789,-1.6094 1.09961,-1.1113 1.16993,-1.1836 0.30664,-0.3106 z"
         transform="matrix(0.26458333,0,0,0.26458333,303.2026,-86.731924)" />
    </g>
  </g>
</svg>
