<?xml version="1.0" encoding="UTF-8" standalone="no"?>
<svg
   xmlns:dc="http://purl.org/dc/elements/1.1/"
   xmlns:cc="http://creativecommons.org/ns#"
   xmlns:rdf="http://www.w3.org/1999/02/22-rdf-syntax-ns#"
   xmlns:svg="http://www.w3.org/2000/svg"
   xmlns="http://www.w3.org/2000/svg"
   xmlns:sodipodi="http://sodipodi.sourceforge.net/DTD/sodipodi-0.dtd"
   xmlns:inkscape="http://www.inkscape.org/namespaces/inkscape"
   width="100"
   height="100"
   viewBox="0 0 26.458334 26.458333"
   version="1.1"
   id="svg10012"
   inkscape:version="1.0.1 (1.0.1+r74)"
   sodipodi:docname="template_social_landscape.svg">
  <defs
     id="defs10006" />
  <sodipodi:namedview
     id="base"
     pagecolor="#ffffff"
     bordercolor="#666666"
     borderopacity="1.0"
     inkscape:pageopacity="0.0"
     inkscape:pageshadow="2"
     inkscape:zoom="0.98994949"
     inkscape:cx="133.84644"
     inkscape:cy="223.9675"
     inkscape:document-units="px"
     inkscape:current-layer="g2849"
     inkscape:document-rotation="0"
     showgrid="false"
     units="px"
     inkscape:window-width="1534"
     inkscape:window-height="843"
     inkscape:window-x="66"
     inkscape:window-y="20"
     inkscape:window-maximized="1" />
  <metadata
     id="metadata10009">
    <rdf:RDF>
      <cc:Work
         rdf:about="">
        <dc:format>image/svg+xml</dc:format>
        <dc:type
           rdf:resource="http://purl.org/dc/dcmitype/StillImage" />
        <dc:title></dc:title>
      </cc:Work>
    </rdf:RDF>
  </metadata>
  <g
     inkscape:label="Layer 1"
     inkscape:groupmode="layer"
     id="layer1"
     transform="translate(-73.26533,-70.066301)">
    <g
       id="g2849"
       transform="matrix(0,2.5155261,2.5155261,0,-571.18125,-1054.7912)"
       style="display:inline;stroke-width:0.397531">
      <g
         id="g18"
         transform="matrix(0.20316637,0,0,0.20316637,357.98155,204.13889)">
        <path
           id="path2837"
           style="font-variation-settings:normal;opacity:0.2;vector-effect:none;fill:#000000;fill-opacity:1;stroke:none;stroke-width:0.570401px;stroke-linecap:butt;stroke-linejoin:miter;stroke-miterlimit:4;stroke-dasharray:none;stroke-dashoffset:0;stroke-opacity:1;paint-order:stroke markers fill;stop-color:#000000"
           d="m 677.84326,1303.1086 -5.47136,0.01 v 183.6592 h -3.49805 -114.17856 v 4.9638 h 123.14797 z"
           transform="matrix(0.26458333,0,0,0.26458333,303.2026,-86.731924)"
           sodipodi:nodetypes="cccccccc" />
        <path
           id="path2839"
           style="color:#000000;font-style:normal;font-variant:normal;font-weight:normal;font-stretch:normal;font-size:medium;line-height:normal;font-family:sans-serif;font-variant-ligatures:normal;font-variant-position:normal;font-variant-caps:normal;font-variant-numeric:normal;font-variant-alternates:normal;font-variant-east-asian:normal;font-feature-settings:normal;font-variation-settings:normal;text-indent:0;text-align:start;text-decoration:none;text-decoration-line:none;text-decoration-style:solid;text-decoration-color:#000000;letter-spacing:normal;word-spacing:normal;text-transform:none;writing-mode:lr-tb;direction:ltr;text-orientation:mixed;dominant-baseline:auto;baseline-shift:baseline;text-anchor:start;white-space:normal;shape-padding:0;shape-margin:0;inline-size:0;clip-rule:nonzero;display:inline;overflow:visible;visibility:visible;opacity:0.4;isolation:auto;mix-blend-mode:normal;color-interpolation:sRGB;color-interpolation-filters:linearRGB;solid-color:#000000;solid-opacity:1;vector-effect:none;fill:#000000;fill-opacity:1;fill-rule:nonzero;stroke:none;stroke-width:2.55421;stroke-linecap:butt;stroke-linejoin:miter;stroke-miterlimit:4;stroke-dasharray:none;stroke-dashoffset:0;stroke-opacity:1;paint-order:stroke markers fill;color-rendering:auto;image-rendering:auto;shape-rendering:auto;text-rendering:auto;enable-background:accumulate;stop-color:#000000;stop-opacity:1"
           d="m 544.11328,1296.0738 v 3.2109 187.489 h 3.5 121.26057 3.49805 v -190.6999 z m 3.2168,3.2109 h 121.82697 v 184.2781 h -0.28125 -121.26252 -0.2832 z"
           transform="matrix(0.26458333,0,0,0.26458333,303.2026,-86.731924)"
           sodipodi:nodetypes="ccccccccccccccc" />
        <path
           style="color:#000000;font-style:normal;font-variant:normal;font-weight:normal;font-stretch:normal;font-size:medium;line-height:normal;font-family:sans-serif;font-variant-ligatures:normal;font-variant-position:normal;font-variant-caps:normal;font-variant-numeric:normal;font-variant-alternates:normal;font-variant-east-asian:normal;font-feature-settings:normal;font-variation-settings:normal;text-indent:0;text-align:start;text-decoration:none;text-decoration-line:none;text-decoration-style:solid;text-decoration-color:#000000;letter-spacing:normal;word-spacing:normal;text-transform:none;writing-mode:lr-tb;direction:ltr;text-orientation:mixed;dominant-baseline:auto;baseline-shift:baseline;text-anchor:start;white-space:normal;shape-padding:0;shape-margin:0;inline-size:0;clip-rule:nonzero;display:inline;overflow:visible;visibility:visible;opacity:0.7;isolation:auto;mix-blend-mode:normal;color-interpolation:sRGB;color-interpolation-filters:linearRGB;solid-color:#000000;solid-opacity:1;vector-effect:none;fill:#ffffff;fill-opacity:1;fill-rule:nonzero;stroke:none;stroke-width:0.675803;stroke-linecap:butt;stroke-linejoin:miter;stroke-miterlimit:4;stroke-dasharray:none;stroke-dashoffset:0;stroke-opacity:1;paint-order:stroke markers fill;color-rendering:auto;image-rendering:auto;shape-rendering:auto;text-rendering:auto;enable-background:accumulate;stop-color:#000000;stop-opacity:1"
           d="m 448.01687,257.03733 v 48.7569 h 0.0749 32.08404 0.0744 v -48.7569 z"
           id="path2841"
           sodipodi:nodetypes="ccccccc" />
        <path
           id="path2843"
           style="color:#000000;font-style:normal;font-variant:normal;font-weight:normal;font-stretch:normal;font-size:medium;line-height:normal;font-family:sans-serif;font-variant-ligatures:normal;font-variant-position:normal;font-variant-caps:normal;font-variant-numeric:normal;font-variant-alternates:normal;font-variant-east-asian:normal;font-feature-settings:normal;font-variation-settings:normal;text-indent:0;text-align:start;text-decoration:none;text-decoration-line:none;text-decoration-style:solid;text-decoration-color:#000000;letter-spacing:normal;word-spacing:normal;text-transform:none;writing-mode:lr-tb;direction:ltr;text-orientation:mixed;dominant-baseline:auto;baseline-shift:baseline;text-anchor:start;white-space:normal;shape-padding:0;shape-margin:0;inline-size:0;clip-rule:nonzero;display:inline;overflow:visible;visibility:visible;opacity:0.4;isolation:auto;mix-blend-mode:normal;color-interpolation:sRGB;color-interpolation-filters:linearRGB;solid-color:#000000;solid-opacity:1;vector-effect:none;fill:#000000;fill-opacity:1;fill-rule:nonzero;stroke:none;stroke-width:1.50248;stroke-linecap:butt;stroke-linejoin:miter;stroke-miterlimit:4;stroke-dasharray:none;stroke-dashoffset:0;stroke-opacity:1;paint-order:stroke markers fill;color-rendering:auto;image-rendering:auto;shape-rendering:auto;text-rendering:auto;enable-background:accumulate;stop-color:#000000;stop-opacity:1"
           d="m 553.01562,1305.7207 v 1.8906 169.5109 h 2.14063 106.17268 2.14062 v -171.4015 z m 1.89258,1.8945 h 106.66877 v 167.6183 h -0.24609 -106.17463 -0.24805 z"
           transform="matrix(0.26458333,0,0,0.26458333,303.2026,-86.731924)"
           sodipodi:nodetypes="ccccccccccccccc" />
        <path
           id="path2845"
           style="color:#000000;font-style:normal;font-variant:normal;font-weight:normal;font-stretch:normal;font-size:medium;line-height:normal;font-family:sans-serif;font-variant-ligatures:normal;font-variant-position:normal;font-variant-caps:normal;font-variant-numeric:normal;font-variant-alternates:normal;font-variant-east-asian:normal;font-feature-settings:normal;font-variation-settings:normal;text-indent:0;text-align:start;text-decoration:none;text-decoration-line:none;text-decoration-style:solid;text-decoration-color:#000000;letter-spacing:normal;word-spacing:normal;text-transform:none;writing-mode:lr-tb;direction:ltr;text-orientation:mixed;dominant-baseline:auto;baseline-shift:baseline;text-anchor:start;white-space:normal;shape-padding:0;shape-margin:0;inline-size:0;clip-rule:nonzero;display:inline;overflow:visible;visibility:visible;opacity:0.2;isolation:auto;mix-blend-mode:normal;color-interpolation:sRGB;color-interpolation-filters:linearRGB;solid-color:#000000;solid-opacity:1;vector-effect:none;fill:#000000;fill-opacity:1;fill-rule:nonzero;stroke:none;stroke-width:3.77953;stroke-linecap:butt;stroke-linejoin:miter;stroke-miterlimit:4;stroke-dasharray:none;stroke-dashoffset:0;stroke-opacity:1;paint-order:stroke markers fill;color-rendering:auto;image-rendering:auto;shape-rendering:auto;text-rendering:auto;enable-background:accumulate;stop-color:#000000;stop-opacity:1"
           d="M 41.349609,115.21094 V 383.53711 H 462.87695 v -0.62109 -267.08204 -0.62304 z m 209.470701,24.27734 c 60.63532,0 109.89844,49.26117 109.89844,109.89649 0,60.63541 -49.26312,109.87304 -109.89844,109.87304 -60.63522,0 -109.89258,-49.23763 -109.89258,-109.87304 0,-60.63532 49.25736,-109.89649 109.89258,-109.89649 z m 0,9.51172 c -55.49699,0 -100.38476,44.88768 -100.38476,100.38477 0,55.49699 44.88777,100.36718 100.38476,100.36718 55.49709,0 100.39063,-44.87019 100.39063,-100.36718 C 351.21094,193.88768 306.3174,149 250.82031,149 Z m 0.11328,22.73438 c 4.29483,0.19728 10.13095,3.9338 13.64844,7.91992 12.39797,14.04999 -6.116,27.04986 -1.1875,45.62304 0.0884,0.32849 0.17446,0.73453 0.26953,1.09961 h 37.83008 c 6.07605,0 10.9668,4.89103 10.9668,10.9668 0,5.19452 -3.58212,9.5156 -8.41602,10.66211 5.15944,0.89855 9.06446,5.36456 9.06446,10.78906 0,5.20888 -3.60065,9.53405 -8.45508,10.66602 2.87079,1.97366 4.75,5.27899 4.75,9.04101 0,6.07596 -4.88879,10.96485 -10.96485,10.96485 H 298.125 c 1.57691,1.89874 2.55859,4.31034 2.55859,6.98242 0,6.07596 -4.88898,10.9668 -10.96484,10.9668 h -28.14844 -0.004 c -1.68473,0 -3.37105,0.28515 -5.09571,0.28515 -12.58574,0 -23.98333,-4.95832 -32.2539,-12.97656 h -25.01953 c -6.07587,0 -10.96485,-4.89475 -10.96485,-10.9707 V 242.0957 c 0,-6.07605 4.88898,-10.9707 10.96485,-10.9707 h 25.40625 c 0.16162,-0.15402 0.32279,-0.30196 0.48632,-0.45312 5.8455,-11.09792 21.73043,-10.55166 16.05274,-46.6543 -0.94362,-6.00228 1.72115,-10.39631 7.58984,-11.96875 0.7336,-0.19681 1.62692,-0.32396 2.20117,-0.31445 z"
           transform="matrix(0,0.10518012,0.10518012,0,437.90443,254.89184)" />
      </g>
    </g>
  </g>
</svg>
