<?xml version="1.0" encoding="UTF-8" standalone="no"?>
<svg
   xmlns:dc="http://purl.org/dc/elements/1.1/"
   xmlns:cc="http://creativecommons.org/ns#"
   xmlns:rdf="http://www.w3.org/1999/02/22-rdf-syntax-ns#"
   xmlns:svg="http://www.w3.org/2000/svg"
   xmlns="http://www.w3.org/2000/svg"
   xmlns:sodipodi="http://sodipodi.sourceforge.net/DTD/sodipodi-0.dtd"
   xmlns:inkscape="http://www.inkscape.org/namespaces/inkscape"
   width="100"
   height="100"
   viewBox="0 0 26.458334 26.458334"
   version="1.1"
   id="svg10012"
   inkscape:version="1.0.1 (1.0.1+r74)"
   sodipodi:docname="template_businesscard_landscape.svg">
  <defs
     id="defs10006" />
  <sodipodi:namedview
     id="base"
     pagecolor="#ffffff"
     bordercolor="#666666"
     borderopacity="1.0"
     inkscape:pageopacity="0.0"
     inkscape:pageshadow="2"
     inkscape:zoom="0.57223357"
     inkscape:cx="92.995917"
     inkscape:cy="-313.39749"
     inkscape:document-units="px"
     inkscape:current-layer="layer1"
     inkscape:document-rotation="0"
     showgrid="false"
     units="px"
     inkscape:window-width="1534"
     inkscape:window-height="843"
     inkscape:window-x="66"
     inkscape:window-y="20"
     inkscape:window-maximized="1" />
  <metadata
     id="metadata10009">
    <rdf:RDF>
      <cc:Work
         rdf:about="">
        <dc:format>image/svg+xml</dc:format>
        <dc:type
           rdf:resource="http://purl.org/dc/dcmitype/StillImage" />
        <dc:title></dc:title>
      </cc:Work>
    </rdf:RDF>
  </metadata>
  <g
     inkscape:label="Layer 1"
     inkscape:groupmode="layer"
     id="layer1"
     transform="translate(-73.136612,-70.036242)">
    <g
       id="g9025"
       style="display:inline;stroke-width:0.397531"
       transform="matrix(0.51006179,0,0,0.51006179,-150.53749,-584.1933)">
      <path
         style="color:#000000;font-style:normal;font-variant:normal;font-weight:normal;font-stretch:normal;font-size:medium;line-height:normal;font-family:sans-serif;font-variant-ligatures:normal;font-variant-position:normal;font-variant-caps:normal;font-variant-numeric:normal;font-variant-alternates:normal;font-variant-east-asian:normal;font-feature-settings:normal;font-variation-settings:normal;text-indent:0;text-align:start;text-decoration:none;text-decoration-line:none;text-decoration-style:solid;text-decoration-color:#000000;letter-spacing:normal;word-spacing:normal;text-transform:none;writing-mode:lr-tb;direction:ltr;text-orientation:mixed;dominant-baseline:auto;baseline-shift:baseline;text-anchor:start;white-space:normal;shape-padding:0;shape-margin:0;inline-size:0;clip-rule:nonzero;display:inline;overflow:visible;visibility:visible;opacity:0.7;isolation:auto;mix-blend-mode:normal;color-interpolation:sRGB;color-interpolation-filters:linearRGB;solid-color:#000000;solid-opacity:1;vector-effect:none;fill:#ffffff;fill-opacity:1;fill-rule:nonzero;stroke:none;stroke-width:0.675803;stroke-linecap:butt;stroke-linejoin:miter;stroke-miterlimit:4;stroke-dasharray:none;stroke-dashoffset:0;stroke-opacity:1;paint-order:stroke markers fill;color-rendering:auto;image-rendering:auto;shape-rendering:auto;text-rendering:auto;enable-background:accumulate;stop-color:#000000"
         d="m 439.37269,1291.731 v 0.075 32.119 0.074 h 48.74534 l 0.0837,-32.2321 h -0.0837 v -0.036 z"
         id="path8942" />
      <path
         id="path8974"
         style="color:#000000;font-style:normal;font-variant:normal;font-weight:normal;font-stretch:normal;font-size:medium;line-height:normal;font-family:sans-serif;font-variant-ligatures:normal;font-variant-position:normal;font-variant-caps:normal;font-variant-numeric:normal;font-variant-alternates:normal;font-variant-east-asian:normal;font-feature-settings:normal;font-variation-settings:normal;text-indent:0;text-align:start;text-decoration:none;text-decoration-line:none;text-decoration-style:solid;text-decoration-color:#000000;letter-spacing:normal;word-spacing:normal;text-transform:none;writing-mode:lr-tb;direction:ltr;text-orientation:mixed;dominant-baseline:auto;baseline-shift:baseline;text-anchor:start;white-space:normal;shape-padding:0;shape-margin:0;inline-size:0;clip-rule:nonzero;display:inline;overflow:visible;visibility:visible;opacity:0.2;isolation:auto;mix-blend-mode:normal;color-interpolation:sRGB;color-interpolation-filters:linearRGB;solid-color:#000000;solid-opacity:1;vector-effect:none;fill:#000000;fill-opacity:1;fill-rule:nonzero;stroke:none;stroke-width:0.570401px;stroke-linecap:butt;stroke-linejoin:miter;stroke-miterlimit:4;stroke-dasharray:none;stroke-dashoffset:0;stroke-opacity:1;paint-order:stroke markers fill;color-rendering:auto;image-rendering:auto;shape-rendering:auto;text-rendering:auto;enable-background:accumulate;stop-color:#000000"
         d="m 702.40625,5217.4297 -0.30469,117.6816 H 518.83008 v 5.4336 h 188.55664 l 0.11719,-123.1152 h -0.72266 z"
         transform="matrix(0.26458333,0,0,0.26458333,303.2026,-86.731924)" />
      <path
         id="rect2877"
         style="display:inline;opacity:0.2;vector-effect:none;fill:#000000;fill-opacity:1;stroke:none;stroke-width:1.35223;stroke-linecap:butt;stroke-linejoin:miter;stroke-miterlimit:4;stroke-dasharray:none;stroke-dashoffset:0;stroke-opacity:1;paint-order:markers fill stroke;stop-color:#000000"
         d="m 566.38477,5224.4238 a 35.751159,35.751159 0 0 0 -35.75391,35.752 35.751159,35.751159 0 0 0 14.22656,28.543 21.822816,21.822816 0 0 1 21.27149,-16.9454 21.822816,21.822816 0 0 1 21.33984,17.2715 35.751159,35.751159 0 0 0 14.66602,-28.8691 35.751159,35.751159 0 0 0 -35.75,-35.752 z m -0.26368,14.2696 h 0.002 a 13.91193,13.91193 0 0 1 0.006,0 13.91193,13.91193 0 0 1 13.91211,13.9121 13.91193,13.91193 0 0 1 -13.91211,13.9101 13.91193,13.91193 0 0 1 -13.91211,-13.9101 13.91193,13.91193 0 0 1 13.90429,-13.9121 z m 51.09571,32.5918 c -1.81754,0 -3.28125,1.4636 -3.28125,3.2812 0,1.8176 1.46371,3.2793 3.28125,3.2793 h 61.20508 c 1.81749,0 3.27929,-1.4617 3.27929,-3.2793 0,-1.8176 -1.4618,-3.2812 -3.27929,-3.2812 z m 0,16.2949 c -1.81754,0 -3.28125,1.4637 -3.28125,3.2812 0,1.8176 1.46371,3.2793 3.28125,3.2793 h 61.20508 c 1.81749,0 3.27929,-1.4617 3.27929,-3.2793 0,-1.8175 -1.4618,-3.2812 -3.27929,-3.2812 z m -80.38672,16.2949 c -1.81754,0 -3.28125,1.4637 -3.28125,3.2812 0,1.8176 1.46371,3.2793 3.28125,3.2793 h 141.5918 c 1.81753,0 3.27929,-1.4617 3.27929,-3.2793 0,-1.8175 -1.46176,-3.2812 -3.27929,-3.2812 z"
         transform="matrix(0.26458333,0,0,0.26458333,303.2026,-86.731924)" />
      <path
         id="path8940"
         style="color:#000000;font-style:normal;font-variant:normal;font-weight:normal;font-stretch:normal;font-size:medium;line-height:normal;font-family:sans-serif;font-variant-ligatures:normal;font-variant-position:normal;font-variant-caps:normal;font-variant-numeric:normal;font-variant-alternates:normal;font-variant-east-asian:normal;font-feature-settings:normal;font-variation-settings:normal;text-indent:0;text-align:start;text-decoration:none;text-decoration-line:none;text-decoration-style:solid;text-decoration-color:#000000;letter-spacing:normal;word-spacing:normal;text-transform:none;writing-mode:lr-tb;direction:ltr;text-orientation:mixed;dominant-baseline:auto;baseline-shift:baseline;text-anchor:start;white-space:normal;shape-padding:0;shape-margin:0;inline-size:0;clip-rule:nonzero;display:inline;overflow:visible;visibility:visible;opacity:0.4;isolation:auto;mix-blend-mode:normal;color-interpolation:sRGB;color-interpolation-filters:linearRGB;solid-color:#000000;solid-opacity:1;vector-effect:none;fill:#000000;fill-opacity:1;fill-rule:nonzero;stroke:none;stroke-width:0.675803;stroke-linecap:butt;stroke-linejoin:miter;stroke-miterlimit:4;stroke-dasharray:none;stroke-dashoffset:0;stroke-opacity:1;paint-order:stroke markers fill;color-rendering:auto;image-rendering:auto;shape-rendering:auto;text-rendering:auto;enable-background:accumulate;stop-color:#000000"
         d="m 438.52354,1290.8811 v 0.8496 0.076 32.119 0.924 h 50.44343 l 0.0879,-33.9339 h -0.0858 v -0.035 z m 49.59439,0.8496 v 0.036 h 0.0837 l -0.0837,32.2321 h -48.74535 v -0.074 -32.119 -0.075 z" />
    </g>
  </g>
</svg>
