<?xml version="1.0" encoding="UTF-8" standalone="no"?>
<svg
   width="100"
   height="100"
   viewBox="0 0 26.458334 26.458334"
   version="1.1"
   id="svg10012"
   inkscape:version="1.2-dev (1:1.0+devel+202104111158+4657bc26cf)"
   sodipodi:docname="template_desktop_landscape (1).svg.2021_04_12_17_43_45.0.svg"
   xmlns:inkscape="http://www.inkscape.org/namespaces/inkscape"
   xmlns:sodipodi="http://sodipodi.sourceforge.net/DTD/sodipodi-0.dtd"
   xmlns="http://www.w3.org/2000/svg"
   xmlns:svg="http://www.w3.org/2000/svg"
   xmlns:rdf="http://www.w3.org/1999/02/22-rdf-syntax-ns#"
   xmlns:cc="http://creativecommons.org/ns#"
   xmlns:dc="http://purl.org/dc/elements/1.1/">
  <defs
     id="defs10006" />
  <sodipodi:namedview
     id="base"
     pagecolor="#ffffff"
     bordercolor="#666666"
     borderopacity="1.0"
     inkscape:pageopacity="0.0"
     inkscape:pageshadow="2"
     inkscape:zoom="2.8284271"
     inkscape:cx="117.73328"
     inkscape:cy="39.951533"
     inkscape:document-units="px"
     inkscape:current-layer="g2789"
     inkscape:document-rotation="0"
     showgrid="false"
     units="px"
     inkscape:window-width="1360"
     inkscape:window-height="716"
     inkscape:window-x="0"
     inkscape:window-y="0"
     inkscape:window-maximized="1"
     objecttolerance="10.0"
     gridtolerance="10.0"
     guidetolerance="10.0"
     inkscape:pagecheckerboard="true" />
  <metadata
     id="metadata10009">
    <rdf:RDF>
      <cc:Work
         rdf:about="">
        <dc:format>image/svg+xml</dc:format>
        <dc:type
           rdf:resource="http://purl.org/dc/dcmitype/StillImage" />
      </cc:Work>
    </rdf:RDF>
  </metadata>
  <g
     inkscape:label="Layer 1"
     inkscape:groupmode="layer"
     id="layer1"
     transform="translate(-72.443085,-59.353406)">
    <g
       id="g2789"
       style="display:inline;stroke-width:0.397531"
       transform="matrix(2.5155261,0,0,2.5155261,-1047.0197,-428.33444)">
      <g
         id="g3302"
         transform="translate(0,-0.73626046)">
        <g
           id="g3284">
          <g
             id="g3267">
            <g
               id="g3251">
              <g
                 id="g3236">
                <g
                   id="g3222">
                  <g
                     id="g3209">
                    <g
                       id="g3197">
                      <g
                         id="g3186">
                        <g
                           id="g3176">
                          <g
                             id="g3149">
                            <path
                               id="path2301"
                               style="color:#000000;font-style:normal;font-variant:normal;font-weight:normal;font-stretch:normal;font-size:medium;line-height:normal;font-family:sans-serif;font-variant-ligatures:normal;font-variant-position:normal;font-variant-caps:normal;font-variant-numeric:normal;font-variant-alternates:normal;font-variant-east-asian:normal;font-feature-settings:normal;font-variation-settings:normal;text-indent:0;text-align:start;text-decoration:none;text-decoration-line:none;text-decoration-style:solid;text-decoration-color:#000000;letter-spacing:normal;word-spacing:normal;text-transform:none;writing-mode:lr-tb;direction:ltr;text-orientation:mixed;dominant-baseline:auto;baseline-shift:baseline;text-anchor:start;white-space:normal;shape-padding:0;shape-margin:0;inline-size:0;clip-rule:nonzero;display:inline;overflow:visible;visibility:visible;opacity:0.2;isolation:auto;mix-blend-mode:normal;color-interpolation:sRGB;color-interpolation-filters:linearRGB;solid-color:#000000;solid-opacity:1;fill:#000000;fill-opacity:1;fill-rule:nonzero;stroke:none;stroke-width:0.0302792px;stroke-linecap:butt;stroke-linejoin:miter;stroke-miterlimit:4;stroke-dasharray:none;stroke-dashoffset:0;stroke-opacity:1;paint-order:stroke markers fill;color-rendering:auto;image-rendering:auto;shape-rendering:auto;text-rendering:auto;enable-background:accumulate;stop-color:#000000"
                               d="m 455.17108,196.50158 c 0.056,0.093 0.0888,0.20131 0.0888,0.31705 v 5.40425 c 0,0.34052 -0.27939,0.61991 -0.6199,0.61991 h -8.99869 c -0.0894,0 -0.17446,-0.0196 -0.25152,-0.0542 0.10878,0.18061 0.30622,0.30274 0.53084,0.30274 h 8.99868 c 0.34052,0 0.62001,-0.2798 0.62001,-0.62031 v -5.40395 c 0,-0.25098 -0.1521,-0.46829 -0.36827,-0.56546 z"
                               sodipodi:nodetypes="csssscsssscc" />
                            <path
                               id="path4258"
                               style="font-variation-settings:normal;fill:#999999;fill-opacity:1;stroke:none;stroke-width:0.0797578;stroke-linecap:butt;stroke-linejoin:miter;stroke-miterlimit:4;stroke-dasharray:none;stroke-dashoffset:0;stroke-opacity:1;paint-order:stroke markers fill;stop-color:#000000"
                               d="m 448.99269,202.84279 c -0.11639,0.22507 -0.34492,0.37005 -0.59813,0.37947 -0.0796,0.0223 -0.13665,0.0809 -0.13665,0.15085 0,0.0891 -0.0291,0.16092 0.0917,0.16092 h 1.36205 0.85836 1.36204 c 0.12077,0 0.0917,-0.0718 0.0917,-0.16092 0,-0.07 -0.057,-0.12858 -0.13665,-0.15085 -0.25317,-0.009 -0.48166,-0.15444 -0.59803,-0.37947 z"
                               sodipodi:nodetypes="ccssccssccc" />
                            <path
                               id="path2405"
                               style="color:#000000;font-style:normal;font-variant:normal;font-weight:normal;font-stretch:normal;font-size:medium;line-height:normal;font-family:sans-serif;font-variant-ligatures:normal;font-variant-position:normal;font-variant-caps:normal;font-variant-numeric:normal;font-variant-alternates:normal;font-variant-east-asian:normal;font-feature-settings:normal;font-variation-settings:normal;text-indent:0;text-align:start;text-decoration:none;text-decoration-line:none;text-decoration-style:solid;text-decoration-color:#000000;letter-spacing:normal;word-spacing:normal;text-transform:none;writing-mode:lr-tb;direction:ltr;text-orientation:mixed;dominant-baseline:auto;baseline-shift:baseline;text-anchor:start;white-space:normal;shape-padding:0;shape-margin:0;inline-size:0;clip-rule:nonzero;display:inline;overflow:visible;visibility:visible;opacity:0.4;isolation:auto;mix-blend-mode:normal;color-interpolation:sRGB;color-interpolation-filters:linearRGB;solid-color:#000000;solid-opacity:1;fill:#000000;fill-opacity:1;fill-rule:nonzero;stroke:none;stroke-width:0.135588;stroke-linecap:butt;stroke-linejoin:miter;stroke-miterlimit:4;stroke-dasharray:none;stroke-dashoffset:0;stroke-opacity:1;paint-order:stroke markers fill;color-rendering:auto;image-rendering:auto;shape-rendering:auto;text-rendering:auto;enable-background:accumulate;stop-color:#000000"
                               d="m 445.64134,196.19873 c -0.34052,0 -0.62,0.27939 -0.62,0.6199 v 5.40426 c 0,0.34051 0.27948,0.6199 0.62,0.6199 h 8.99869 c 0.34051,0 0.6199,-0.27939 0.6199,-0.6199 v -5.40426 c 0,-0.34051 -0.27939,-0.6199 -0.6199,-0.6199 z m 1.1e-4,0.17045 h 8.99869 c 0.24898,0 0.44945,0.20047 0.44945,0.44945 v 5.40405 c 0,0.24899 -0.20047,0.44945 -0.44945,0.44945 h -8.99869 c -0.249,0 -0.44946,-0.20046 -0.44946,-0.44945 v -5.40405 c 0,-0.24898 0.20046,-0.44945 0.44946,-0.44945 z"
                               sodipodi:nodetypes="ssssssssssssssssss" />
                            <path
                               style="color:#000000;font-style:normal;font-variant:normal;font-weight:normal;font-stretch:normal;font-size:medium;line-height:normal;font-family:sans-serif;font-variant-ligatures:normal;font-variant-position:normal;font-variant-caps:normal;font-variant-numeric:normal;font-variant-alternates:normal;font-variant-east-asian:normal;font-feature-settings:normal;font-variation-settings:normal;text-indent:0;text-align:start;text-decoration:none;text-decoration-line:none;text-decoration-style:solid;text-decoration-color:#000000;letter-spacing:normal;word-spacing:normal;text-transform:none;writing-mode:lr-tb;direction:ltr;text-orientation:mixed;dominant-baseline:auto;baseline-shift:baseline;text-anchor:start;white-space:normal;shape-padding:0;shape-margin:0;inline-size:0;clip-rule:nonzero;display:inline;overflow:visible;visibility:visible;opacity:0.7;isolation:auto;mix-blend-mode:normal;color-interpolation:sRGB;color-interpolation-filters:linearRGB;solid-color:#000000;solid-opacity:1;fill:#ffffff;fill-opacity:1;fill-rule:nonzero;stroke:none;stroke-width:0.135588;stroke-linecap:butt;stroke-linejoin:miter;stroke-miterlimit:4;stroke-dasharray:none;stroke-dashoffset:0;stroke-opacity:1;paint-order:stroke markers fill;color-rendering:auto;image-rendering:auto;shape-rendering:auto;text-rendering:auto;enable-background:accumulate;stop-color:#000000"
                               d="m 445.64145,196.36922 h 8.99868 c 0.24898,0 0.44943,0.20044 0.44943,0.44943 v 5.40407 c 0,0.24899 -0.20045,0.44944 -0.44943,0.44944 h -8.99868 c -0.24899,0 -0.44944,-0.20045 -0.44944,-0.44944 v -5.40407 c 0,-0.24899 0.20045,-0.44943 0.44944,-0.44943 z"
                               id="path2407"
                               sodipodi:nodetypes="sssssssss" />
                            <path
                               id="path2444"
                               style="color:#000000;font-style:normal;font-variant:normal;font-weight:normal;font-stretch:normal;font-size:medium;line-height:normal;font-family:sans-serif;font-variant-ligatures:normal;font-variant-position:normal;font-variant-caps:normal;font-variant-numeric:normal;font-variant-alternates:normal;font-variant-east-asian:normal;font-feature-settings:normal;font-variation-settings:normal;text-indent:0;text-align:start;text-decoration:none;text-decoration-line:none;text-decoration-style:solid;text-decoration-color:#000000;letter-spacing:normal;word-spacing:normal;text-transform:none;writing-mode:lr-tb;direction:ltr;text-orientation:mixed;dominant-baseline:auto;baseline-shift:baseline;text-anchor:start;white-space:normal;shape-padding:0;shape-margin:0;inline-size:0;clip-rule:nonzero;display:inline;overflow:visible;visibility:visible;opacity:0.4;isolation:auto;mix-blend-mode:normal;color-interpolation:sRGB;color-interpolation-filters:linearRGB;solid-color:#000000;solid-opacity:1;fill:#000000;fill-opacity:1;fill-rule:nonzero;stroke:none;stroke-width:0.0797578;stroke-linecap:butt;stroke-linejoin:miter;stroke-miterlimit:4;stroke-dasharray:none;stroke-dashoffset:0;stroke-opacity:1;paint-order:stroke markers fill;color-rendering:auto;image-rendering:auto;shape-rendering:auto;text-rendering:auto;enable-background:accumulate;stop-color:#000000"
                               d="m 445.69142,196.78224 c -0.16814,0 -0.30679,0.13823 -0.30679,0.30637 v 4.86388 c 0,0.16814 0.13865,0.30689 0.30679,0.30689 h 8.89884 c 0.16814,0 0.30679,-0.13875 0.30679,-0.30689 v -4.86388 c 0,-0.16813 -0.13865,-0.30637 -0.30679,-0.30637 z m -1.1e-4,0.10026 h 8.89895 c 0.1143,0 0.20632,0.092 0.20632,0.20633 v 4.86376 c 0,0.1143 -0.092,0.20633 -0.20632,0.20633 h -8.89895 c -0.11429,0 -0.20632,-0.092 -0.20632,-0.20633 v -4.86376 c 0,-0.11431 0.092,-0.20633 0.20632,-0.20633 z"
                               sodipodi:nodetypes="ssssssssssssssssss" />
                            <path
                               id="path2447"
                               style="color:#000000;font-style:normal;font-variant:normal;font-weight:normal;font-stretch:normal;font-size:medium;line-height:normal;font-family:sans-serif;font-variant-ligatures:normal;font-variant-position:normal;font-variant-caps:normal;font-variant-numeric:normal;font-variant-alternates:normal;font-variant-east-asian:normal;font-feature-settings:normal;font-variation-settings:normal;text-indent:0;text-align:start;text-decoration:none;text-decoration-line:none;text-decoration-style:solid;text-decoration-color:#000000;letter-spacing:normal;word-spacing:normal;text-transform:none;writing-mode:lr-tb;direction:ltr;text-orientation:mixed;dominant-baseline:auto;baseline-shift:baseline;text-anchor:start;white-space:normal;shape-padding:0;shape-margin:0;inline-size:0;clip-rule:nonzero;display:inline;overflow:visible;visibility:visible;opacity:0.2;isolation:auto;mix-blend-mode:normal;color-interpolation:sRGB;color-interpolation-filters:linearRGB;solid-color:#000000;solid-opacity:1;fill:#000000;fill-opacity:1;fill-rule:nonzero;stroke:none;stroke-width:0.615399;stroke-linecap:butt;stroke-linejoin:miter;stroke-miterlimit:4;stroke-dasharray:none;stroke-dashoffset:0;stroke-opacity:1;paint-order:stroke markers fill;color-rendering:auto;image-rendering:auto;shape-rendering:auto;text-rendering:auto;enable-background:accumulate;stop-color:#000000"
                               d="m 6.3691406,28.630859 c -1.0868974,0 -1.9609375,0.874136 -1.9609375,1.960938 v 46.242187 c 0,0.21857 0.044014,0.425078 0.109375,0.621094 V 75.201172 H 92.9375 V 30.591797 c 0,-1.086993 -0.87423,-1.960938 -1.960938,-1.960938 z m 0.3984375,1.074219 h 5.6328129 c 0.592317,0 1.066406,0.477468 1.066406,1.06836 0,0.592317 -0.47485,1.068359 -1.066406,1.068359 H 6.7675781 c -0.5913665,0 -1.0683593,-0.476708 -1.0683593,-1.068359 0,-0.592318 0.4768978,-1.06836 1.0683593,-1.06836 z m 35.7695309,0 h 0.429688 c 0.592317,0 1.068359,0.477468 1.068359,1.06836 0,0.592317 -0.476898,1.068359 -1.068359,1.068359 h -0.429688 c -0.592317,0 -1.066406,-0.476708 -1.066406,-1.068359 0,-0.592318 0.47542,-1.06836 1.066406,-1.06836 z m 4.40625,0 h 4.927735 c 0.591366,0 1.068359,0.477468 1.068359,1.06836 0,0.592317 -0.476803,1.068359 -1.068359,1.068359 h -4.927735 c -0.591366,0 -1.068359,-0.476708 -1.068359,-1.068359 0,-0.592318 0.476803,-1.06836 1.068359,-1.06836 z m 35.648438,0 h 0.427734 c 0.592317,0 1.06836,0.477468 1.06836,1.06836 0,0.592317 -0.476423,1.068359 -1.06836,1.068359 h -0.427734 c -0.591367,0 -1.068359,-0.476708 -1.068359,-1.068359 0,-0.592318 0.476517,-1.06836 1.068359,-1.06836 z m 3.566406,0 h 0.429688 c 0.592317,0 1.066406,0.477468 1.066406,1.06836 0,0.592317 -0.474469,1.068359 -1.066406,1.068359 h -0.429688 c -0.592317,0 -1.066406,-0.476708 -1.066406,-1.068359 0,-0.592318 0.474849,-1.06836 1.066406,-1.06836 z m 3.519531,0 h 0.351563 c 0.592317,0 1.066406,0.379991 1.066406,0.851563 v 0.43164 c 0,0.472523 -0.474849,0.853516 -1.066406,0.853516 h -0.351563 c -0.592317,0 -1.066406,-0.381944 -1.066406,-0.853516 v -0.43164 c 0,-0.472523 0.474755,-0.851563 1.066406,-0.851563 z m -78.486328,6.6875 h 1.63086 c 1.101539,0 1.988281,0.884504 1.988281,1.986328 v 1.708985 c 0,1.101539 -0.886838,1.988281 -1.988281,1.988281 h -1.63086 c -1.101634,0 -1.988281,-0.886838 -1.988281,-1.988281 v -1.708985 c 0,-1.101539 0.886457,-1.986328 1.988281,-1.986328 z m 10.042969,0.01758 h 1.630859 c 1.101539,0 1.986328,0.886362 1.986328,1.988282 v 1.708984 c 0,1.101634 -0.884599,1.988281 -1.986328,1.988281 h -1.630859 c -1.101634,0 -1.988281,-0.886457 -1.988281,-1.988281 v -1.708984 c 0,-1.101635 0.886457,-1.988282 1.988281,-1.988282 z m -10.042969,10.09375 h 1.63086 c 1.101539,0 1.988281,0.886457 1.988281,1.988282 v 1.707031 c 0,1.101634 -0.886838,1.990234 -1.988281,1.990234 h -1.63086 c -1.101634,0 -1.988281,-0.88841 -1.988281,-1.990234 v -1.707031 c 0,-1.101635 0.886457,-1.988282 1.988281,-1.988282 z m 10.042969,0.01953 h 1.630859 c 1.101539,0 1.986328,0.886552 1.986328,1.988281 v 1.708984 c 0,1.101539 -0.884599,1.986328 -1.986328,1.986328 h -1.630859 c -1.101634,0 -1.988281,-0.884599 -1.988281,-1.986328 v -1.708984 c 0,-1.101539 0.886457,-1.988281 1.988281,-1.988281 z m -10.042969,10.09375 h 1.63086 c 1.101539,0 1.988281,0.886457 1.988281,1.988281 v 1.708984 c 0,1.101444 -0.886838,1.986328 -1.988281,1.986328 h -1.63086 c -1.101634,0 -1.988281,-0.884504 -1.988281,-1.986328 v -1.708984 c 0,-1.101634 0.886457,-1.988281 1.988281,-1.988281 z m -0.04687,9.820312 h 1.63086 c 1.101539,0 1.988281,0.8886 1.988281,1.990234 v 1.707032 c 0,1.101539 -0.886457,1.988281 -1.988281,1.988281 h -1.63086 c -1.101634,0 -1.988281,-0.886457 -1.988281,-1.988281 v -1.707032 c 0,-1.101729 0.886457,-1.990234 1.988281,-1.990234 z m 81.271485,12.914062 c -0.42741,0.247188 -0.915075,0.400391 -1.439454,0.400391 h 0.384766 c 0.406175,0 0.774403,-0.151896 1.054688,-0.400391 z m -87.4433598,0.02148 c 0.2767907,0.2331 0.6297277,0.378906 1.0214844,0.378906 h 0.3769532 c -0.5079434,0 -0.9804024,-0.145891 -1.3984376,-0.378906 z"
                               transform="matrix(0.10518012,0,0,0.10518012,445.02134,193.87111)" />
                          </g>
                        </g>
                      </g>
                    </g>
                  </g>
                </g>
              </g>
            </g>
          </g>
        </g>
      </g>
    </g>
  </g>
</svg>
