<?xml version="1.0" encoding="UTF-8" standalone="no"?>
<svg
   xmlns:dc="http://purl.org/dc/elements/1.1/"
   xmlns:cc="http://creativecommons.org/ns#"
   xmlns:rdf="http://www.w3.org/1999/02/22-rdf-syntax-ns#"
   xmlns:svg="http://www.w3.org/2000/svg"
   xmlns="http://www.w3.org/2000/svg"
   xmlns:sodipodi="http://sodipodi.sourceforge.net/DTD/sodipodi-0.dtd"
   xmlns:inkscape="http://www.inkscape.org/namespaces/inkscape"
   version="1.1"
   id="svg1"
   width="16"
   height="16"
   viewBox="0 0 16 16"
   sodipodi:docname="color-picker-symbolic.svg"
   inkscape:version="1.0 (4035a4fb49, 2020-05-01)">
  <style
     id="s0">.success { fill: #009909; }
.warning { fill: #FF1990; }
.error { fill: #00AAFF; }
</style>
  <style
     id="s2"> 
     @import '../../highlights.css'; 
  </style>
  <metadata
     id="metadata852">
    <rdf:RDF>
      <cc:Work
         rdf:about="">
        <dc:format>image/svg+xml</dc:format>
        <dc:type
           rdf:resource="http://purl.org/dc/dcmitype/StillImage" />
        <dc:title />
      </cc:Work>
    </rdf:RDF>
  </metadata>
  <defs
     id="defs850">
    <inkscape:path-effect
       attempt_force_join="true"
       miter_limit="100"
       linejoin_type="extrp_arc"
       line_width="1"
       linecap_type="butt"
       is_visible="true"
       id="path-effect962"
       effect="join_type" />
  </defs>
  <sodipodi:namedview
     objecttolerance="10"
     gridtolerance="10"
     guidetolerance="10"
     id="namedview"
     showgrid="true"
     inkscape:zoom="31.678384"
     inkscape:cx="12.006341"
     inkscape:cy="11.064379"
     inkscape:window-width="1858"
     inkscape:window-height="1177"
     inkscape:window-x="54"
     inkscape:window-y="-8"
     inkscape:window-maximized="1"
     inkscape:current-layer="g0"
     inkscape:document-rotation="0"
     inkscape:object-paths="true"
     inkscape:snap-bbox="true">
    <inkscape:grid
       type="xygrid"
       id="grid" />
  </sodipodi:namedview>
  <g
     inkscape:label="color-picker"
     id="g0">
    <path
       inkscape:connector-curvature="0"
       style="opacity:0"
       d="M 0,0 H 16 V 16 H 0 Z"
       id="background" />
    <!--Add this to all icons at dirst place and do not change the id or style-->
    <path
       inkscape:connector-curvature="0"
       id="path1170"
       d="M 13.223375,7.5828855 15.279988,5.526272 c 0.621035,-0.6210342 0.621035,-1.6335901 0,-2.2546242 v 0 c -0.621033,-0.6210344 -1.633591,-0.6210344 -2.254624,0 L 10.96875,5.3282611 10.037199,4.3967097 8.169595,6.2643128 12.282822,10.377541 14.150426,8.5099366 Z"
       inkscape:label="top" />
    <path
       transform="matrix(1.1655157,0,0,1.1655157,-2.8688821,-0.66245096)"
       inkscape:original-d="m 5.5479517,13.40286 c -0.4633398,-0.46334 -0.4633398,-1.216267 0,-1.679607 L 10.397575,6.8736297 12.077182,8.5532364 7.2275584,13.40286 c -0.4633398,0.46334 -1.2162669,0.46334 -1.6796067,0 z"
       inkscape:path-effect="#path-effect962"
       inkscape:connector-curvature="0"
       id="path1168"
       d="m 5.9015051,12.076806 4.8496229,-4.8496229 -0.707106,0 1.679607,1.6796067 0,-0.7071068 -4.8496241,4.849624 c -0.2658471,0.265847 -0.7066526,0.265847 -0.9724997,0 -0.2658473,-0.265848 -0.2658473,-0.706653 -1e-7,-0.972501 z M 7.5811118,13.756413 12.784289,8.5532364 10.397575,6.166523 5.1943982,11.3697 c -0.6608323,0.660832 -0.6608323,1.725881 0,2.386713 0.6608325,0.660833 1.7258812,0.660833 2.3867136,0 z"
       inkscape:label="bottom" />
    <path
       inkscape:connector-curvature="0"
       id="path1172"
       d="M 6,5.4021207 C 6,6.8352364 4.8791208,8 3.5,8 2.1208792,8 1,6.8352364 1,5.4021207 1,3.9690048 3.5,1 3.5,1 3.5,1 6,3.9690048 6,5.4021207 Z"
       class="error"
       inkscape:label="drop"
       style="stroke-width:1.0283" />
  </g>
</svg>
