<?xml version="1.0" encoding="UTF-8" standalone="no"?>
<svg
   xmlns:dc="http://purl.org/dc/elements/1.1/"
   xmlns:cc="http://creativecommons.org/ns#"
   xmlns:rdf="http://www.w3.org/1999/02/22-rdf-syntax-ns#"
   xmlns:svg="http://www.w3.org/2000/svg"
   xmlns="http://www.w3.org/2000/svg"
   xmlns:sodipodi="http://sodipodi.sourceforge.net/DTD/sodipodi-0.dtd"
   xmlns:inkscape="http://www.inkscape.org/namespaces/inkscape"
   version="1.1"
   id="svg1"
   width="16"
   height="16"
   viewBox="0 0 16 16"
   sodipodi:docname="draw-eraser-symbolic.svg"
   inkscape:version="1.0 (4035a4fb49, 2020-05-01)">
  <style
     id="s0">
   .success { fill: #009909; }
   .warning { fill: #FF1990; }
   .error   { fill: #00AAFF; }
  </style>
  <style
     id="s2"> 
     @import '../../highlights.css'; 
  </style>
  <metadata
     id="metadata1012">
    <rdf:RDF>
      <cc:Work
         rdf:about="">
        <dc:format>image/svg+xml</dc:format>
        <dc:type
           rdf:resource="http://purl.org/dc/dcmitype/StillImage" />
      </cc:Work>
    </rdf:RDF>
  </metadata>
  <defs
     id="defs1010" />
  <sodipodi:namedview
     inkscape:snap-smooth-nodes="true"
     inkscape:object-paths="true"
     objecttolerance="10"
     gridtolerance="10"
     guidetolerance="10"
     id="namedview"
     showgrid="true"
     inkscape:zoom="90.509668"
     inkscape:cx="5.3420411"
     inkscape:cy="12.537103"
     inkscape:window-width="1858"
     inkscape:window-height="1177"
     inkscape:window-x="54"
     inkscape:window-y="-8"
     inkscape:window-maximized="1"
     inkscape:current-layer="svg1"
     inkscape:document-rotation="0"
     inkscape:snap-bbox="true">
    <inkscape:grid
       type="xygrid"
       id="grid" />
  </sodipodi:namedview>
  <g
     inkscape:label="draw-eraser"
     id="g0">
    <path
       id="background"
       d="M 0,0 H 16 V 16 H 0 Z"
       style="opacity:0"
       inkscape:connector-curvature="0" />
    <path
       inkscape:connector-curvature="0"
       d="M 10.671831,1.2812656 6.6562611,5.1250091 10.687458,9.4685388 14.843721,5.593742 c 0.23726,-0.2211931 0.18772,-0.6911461 -0.125,-1.0312658 L 11.739697,1.3224322 C 11.326937,0.87351261 10.965898,0.99977917 10.671831,1.2812989 Z"
       id="path30001"
       sodipodi:nodetypes="sccssss" />
    <path
       inkscape:connector-curvature="0"
       style="opacity:0.5"
       d="M 5.4999954,6.2185415 3.2998973,8.2739398 C 2.9658375,8.5860728 2.8343776,8.9913392 3.1395107,9.3377389 l 2.9229509,3.3187971 c 0.3416931,0.387933 0.7905927,0.391266 1.0742658,0.124933 l 2.3632647,-2.218931 z"
       id="path30003"
       sodipodi:nodetypes="csssscc" />
    <path
       inkscape:connector-curvature="0"
       id="path30005"
       d="m 10,13 c -0.5817391,0 -1,0.44603 -1,1.000067 0,0.554037 0.4182609,1.000067 1,1.000067 h 5 L 15.00015,13 Z"
       sodipodi:nodetypes="sssccs" />
    <path
       sodipodi:nodetypes="sssccs"
       d="M 3,15 C 3.5817,15 4.0500002,14.554 4.0500002,14 4.0500002,13.446 3.5817,13 3,13 H 1.0005402 v 2 z"
       id="path30005-4"
       inkscape:connector-curvature="0" />
  </g>
</svg>
