<?xml version="1.0" encoding="UTF-8" standalone="no"?>
<svg
   xmlns:dc="http://purl.org/dc/elements/1.1/"
   xmlns:cc="http://creativecommons.org/ns#"
   xmlns:rdf="http://www.w3.org/1999/02/22-rdf-syntax-ns#"
   xmlns:svg="http://www.w3.org/2000/svg"
   xmlns="http://www.w3.org/2000/svg"
   xmlns:sodipodi="http://sodipodi.sourceforge.net/DTD/sodipodi-0.dtd"
   xmlns:inkscape="http://www.inkscape.org/namespaces/inkscape"
   inkscape:version="1.0 (4035a4fb49, 2020-05-01)"
   sodipodi:docname="draw-spiral-symbolic.svg"
   viewBox="0 0 16 16"
   height="16"
   width="16"
   id="svg1"
   version="1.1">
  <style
     id="s0">
   .success { fill: #009909; }
   .warning { fill: #FF1990; }
   .error   { fill: #00AAFF; }
  </style>
  <style
     id="s2"> 
     @import '../../highlights.css'; 
  </style>
  <metadata
     id="metadata337">
    <rdf:RDF>
      <cc:Work
         rdf:about="">
        <dc:format>image/svg+xml</dc:format>
        <dc:type
           rdf:resource="http://purl.org/dc/dcmitype/StillImage" />
      </cc:Work>
    </rdf:RDF>
  </metadata>
  <defs
     id="defs335">
    <inkscape:path-effect
       attempt_force_join="true"
       miter_limit="100"
       linejoin_type="extrp_arc"
       line_width="2.0108099"
       linecap_type="round"
       lpeversion="1"
       is_visible="true"
       id="path-effect841"
       effect="join_type" />
    <inkscape:path-effect
       attempt_force_join="true"
       miter_limit="100"
       linejoin_type="round"
       line_width="2"
       linecap_type="round"
       lpeversion="1"
       is_visible="true"
       id="path-effect837"
       effect="join_type" />
  </defs>
  <sodipodi:namedview
     inkscape:snap-global="false"
     inkscape:document-rotation="0"
     inkscape:current-layer="g0"
     inkscape:window-maximized="1"
     inkscape:window-y="-8"
     inkscape:window-x="54"
     inkscape:window-height="1177"
     inkscape:window-width="1858"
     inkscape:cy="-3.6788236"
     inkscape:cx="-25.11771"
     inkscape:zoom="11.313709"
     showgrid="true"
     id="namedview"
     guidetolerance="10"
     gridtolerance="10"
     objecttolerance="10">
    <inkscape:grid
       id="grid"
       type="xygrid" />
  </sodipodi:namedview>
  <g
     inkscape:label="draw-spiral"
     id="g0">
    <path
       id="background"
       d="M 0,0 H 16 V 16 H 0 Z"
       style="opacity:0"
       inkscape:connector-curvature="0" />
    <path
       inkscape:label="old"
       sodipodi:nodetypes="sssscsssssssssssscsscs"
       style="display:none;opacity:1"
       d="M 0.97390296,4.5634822 C -0.88706443,8.0152185 0.0787981,12.655817 3.4752362,14.655247 6.354429,16.350183 10.244297,15.390185 11.820654,12.222796 13.119102,9.6138116 12.629048,5.9619042 9.7434194,4.7539179 6.2919654,3.3090649 2.65034,5.8414834 3.7237452,9.50672 c 0.2740387,0.891153 0.8943364,1.705927 1.8422315,2.086696 0.6482686,0.260409 1.3732117,0.252809 2.0164652,-0.01618 C 8.2257065,11.308242 8.8382176,10.792834 9.0069579,9.9944261 9.1068634,9.5217154 8.9891328,8.991018 8.7615266,8.5424123 8.4869375,8.0012045 8.0268846,7.9299998 7.6581808,8.1482375 7.2946016,8.3634419 7.3939986,8.8601514 7.5365249,9.1853255 7.7854042,9.7531443 7.4467847,10.136592 7.0489536,10.302278 6.0101566,10.73491 5.2893575,9.8749577 5.0460006,9.1002211 4.2852105,6.6782144 7.3945011,5.1013978 9.0937847,5.9749082 10.971826,6.9403085 11.565362,9.6340966 10.583504,11.606956 9.3597612,14.065837 6.3959139,14.770752 4.1762089,13.464048 1.503198,11.89049 0.68520647,8.0407859 2.1935103,5.2158623 3.9615803,1.9044188 8.0332461,0.97139125 11.053518,2.8441877 c 3.474818,2.1545534 4.505649,7.1935823 2.459462,10.8656653 -0.537194,0.964046 0.662232,1.629828 1.20877,0.671255 C 17.162901,10.09957 15.958647,4.2592166 11.78146,1.6691553 7.8771699,-0.50717877 3.0108406,0.78535497 0.97390296,4.5634822 Z"
       id="path225"
       inkscape:connector-curvature="0" />
    <path
       inkscape:label="new"
       inkscape:original-d="M 7.1086182,8.8734283 C 7.5765459,9.1377223 6.9753088,9.6208864 6.6595968,9.6342719 5.8040371,9.6705462 5.3970764,8.6926973 5.5531654,7.99488 5.8323723,6.7466486 7.3019916,6.2237586 8.4556822,6.5908971 10.14877,7.1296876 10.826495,9.0801593 10.219524,10.630524 9.4105276,12.696918 6.8762269,13.503083 4.8635115,12.677646 2.3307143,11.638918 1.3591352,8.6240499 2.4422601,6.2377834 3.7540693,3.347695 7.3868574,2.252274 10.251768,3.5475223 c 3.376198,1.5264052 4.64445,5.6214166 3.078661,8.8400987 -0.09661,0.198582 -0.20277,0.392709 -0.317966,0.581563"
       inkscape:path-effect="#path-effect841"
       d="m 6.6141664,9.7488462 c 0,0 -0.2421141,-0.9970659 -0.2421141,-0.9970659 0,0 0.027668,-0.040022 0.027668,-0.040022 0,0 0.021705,-0.025509 0.021705,-0.025509 0,0 0.013823,-0.013451 0.013823,-0.013451 0,0 0.00622,-0.00506 0.00622,-0.00506 0,0 0.00236,-0.00155 0.00236,-0.00155 0,0 0.00853,-0.00424 0.00853,-0.00424 0,0 0.038423,-0.01337 0.038423,-0.01337 0,0 0.1262217,-0.018815 0.1262212,-0.018815 C 6.5875364,8.6310189 6.5109812,8.3187069 6.5343244,8.2143476 6.6672528,7.6200739 7.4795161,7.3353383 8.1507983,7.5489602 9.2507835,7.899008 9.6936886,9.2157807 9.2833106,10.263995 8.6946977,11.76747 6.7861725,12.37948 5.2450036,11.747429 3.2611259,10.933819 2.500121,8.5428455 3.3577698,6.6533326 4.4281479,4.2951486 7.4421315,3.3806478 9.8375802,4.4636487 12.683803,5.750448 13.751477,9.2237871 12.426338,11.947781 c -0.08263,0.169853 -0.173495,0.336022 -0.272203,0.497845 a 1.0054049,1.0054049 0 1 0 1.716656,1.047116 c 0.131684,-0.215885 0.253142,-0.43797 0.36374,-0.665304 C 16.040959,9.1140907 14.572129,4.397407 10.665956,2.6313959 7.3315833,1.1239002 3.0799907,2.4002414 1.5267505,5.8222341 0.21814935,8.7052543 1.4003027,12.344017 4.4820193,13.607863 c 2.484262,1.018823 5.6443377,0.0185 6.6737177,-2.61081 C 11.958917,8.9455206 11.045596,6.3599979 8.7605662,5.632834 7.1244671,5.1121789 4.9974918,5.8732233 4.5720063,7.7754126 4.2948845,9.0143237 5.093428,10.706983 6.7021855,10.638774 8.1061805,10.579248 8.9446969,8.7557854 7.60307,7.9980104 A 1.005405,1.005405 0 1 0 6.6141664,9.7488462 Z"
       style="display:inline;fill:#000000;fill-rule:nonzero;stroke:none;stroke-width:2.01081"
       id="path835" />
  </g>
</svg>
