<?xml version="1.0" encoding="UTF-8" standalone="no"?>
<svg
   xmlns:dc="http://purl.org/dc/elements/1.1/"
   xmlns:cc="http://creativecommons.org/ns#"
   xmlns:rdf="http://www.w3.org/1999/02/22-rdf-syntax-ns#"
   xmlns:svg="http://www.w3.org/2000/svg"
   xmlns="http://www.w3.org/2000/svg"
   xmlns:sodipodi="http://sodipodi.sourceforge.net/DTD/sodipodi-0.dtd"
   xmlns:inkscape="http://www.inkscape.org/namespaces/inkscape"
   width="100"
   height="100"
   viewBox="0 0 26.458334 26.458334"
   version="1.1"
   id="svg10012"
   inkscape:version="1.0.1 (1.0.1+r74)"
   sodipodi:docname="template_image_landscape.svg">
  <defs
     id="defs10006" />
  <sodipodi:namedview
     id="base"
     pagecolor="#ffffff"
     bordercolor="#666666"
     borderopacity="1.0"
     inkscape:pageopacity="0.0"
     inkscape:pageshadow="2"
     inkscape:zoom="0.9198058"
     inkscape:cx="16.719675"
     inkscape:cy="39.232201"
     inkscape:document-units="px"
     inkscape:current-layer="layer1"
     inkscape:document-rotation="0"
     showgrid="false"
     units="px"
     inkscape:window-width="1534"
     inkscape:window-height="843"
     inkscape:window-x="66"
     inkscape:window-y="20"
     inkscape:window-maximized="1" />
  <metadata
     id="metadata10009">
    <rdf:RDF>
      <cc:Work
         rdf:about="">
        <dc:format>image/svg+xml</dc:format>
        <dc:type
           rdf:resource="http://purl.org/dc/dcmitype/StillImage" />
        <dc:title></dc:title>
      </cc:Work>
    </rdf:RDF>
  </metadata>
  <g
     inkscape:label="Layer 1"
     inkscape:groupmode="layer"
     id="layer1"
     transform="translate(-73.136026,-70.036683)">
    <g
       id="g9776"
       style="display:inline;stroke-width:0.397531"
       transform="matrix(0.51005666,0,0,0.51005666,-149.61725,-400.4861)">
      <g
         id="g9746"
         style="stroke-width:0.397531">
        <path
           style="color:#000000;font-style:normal;font-variant:normal;font-weight:normal;font-stretch:normal;font-size:medium;line-height:normal;font-family:sans-serif;font-variant-ligatures:normal;font-variant-position:normal;font-variant-caps:normal;font-variant-numeric:normal;font-variant-alternates:normal;font-variant-east-asian:normal;font-feature-settings:normal;font-variation-settings:normal;text-indent:0;text-align:start;text-decoration:none;text-decoration-line:none;text-decoration-style:solid;text-decoration-color:#000000;letter-spacing:normal;word-spacing:normal;text-transform:none;writing-mode:lr-tb;direction:ltr;text-orientation:mixed;dominant-baseline:auto;baseline-shift:baseline;text-anchor:start;white-space:normal;shape-padding:0;shape-margin:0;inline-size:0;clip-rule:nonzero;display:inline;overflow:visible;visibility:visible;opacity:0.2;isolation:auto;mix-blend-mode:normal;color-interpolation:sRGB;color-interpolation-filters:linearRGB;solid-color:#000000;solid-opacity:1;vector-effect:none;fill:#000000;fill-opacity:1;fill-rule:nonzero;stroke:none;stroke-width:0.570401px;stroke-linecap:butt;stroke-linejoin:miter;stroke-miterlimit:4;stroke-dasharray:none;stroke-dashoffset:0;stroke-opacity:1;paint-order:stroke markers fill;color-rendering:auto;image-rendering:auto;shape-rendering:auto;text-rendering:auto;enable-background:accumulate;stop-color:#000000"
           d="m 695.30273,3856.209 v 117.6816 H 512.03125 v 5.4336 h 188.55664 l 0.11133,-123.1152 h -0.7168 z"
           transform="matrix(0.26458333,0,0,0.26458333,303.2026,-86.731924)"
           id="path9762" />
        <path
           style="color:#000000;font-style:normal;font-variant:normal;font-weight:normal;font-stretch:normal;font-size:medium;line-height:normal;font-family:sans-serif;font-variant-ligatures:normal;font-variant-position:normal;font-variant-caps:normal;font-variant-numeric:normal;font-variant-alternates:normal;font-variant-east-asian:normal;font-feature-settings:normal;font-variation-settings:normal;text-indent:0;text-align:start;text-decoration:none;text-decoration-line:none;text-decoration-style:solid;text-decoration-color:#000000;letter-spacing:normal;word-spacing:normal;text-transform:none;writing-mode:lr-tb;direction:ltr;text-orientation:mixed;dominant-baseline:auto;baseline-shift:baseline;text-anchor:start;white-space:normal;shape-padding:0;shape-margin:0;inline-size:0;clip-rule:nonzero;display:inline;overflow:visible;visibility:visible;opacity:0.7;isolation:auto;mix-blend-mode:normal;color-interpolation:sRGB;color-interpolation-filters:linearRGB;solid-color:#000000;solid-opacity:1;vector-effect:none;fill:#ffffff;fill-opacity:1;fill-rule:nonzero;stroke:none;stroke-width:0.675803;stroke-linecap:butt;stroke-linejoin:miter;stroke-miterlimit:4;stroke-dasharray:none;stroke-dashoffset:0;stroke-opacity:1;paint-order:stroke markers fill;color-rendering:auto;image-rendering:auto;shape-rendering:auto;text-rendering:auto;enable-background:accumulate;stop-color:#000000"
           d="m 486.31862,931.57551 h -48.74535 v 0.0749 32.11896 0.0744 h 48.74535 z"
           id="path9687" />
        <path
           id="path9709"
           style="color:#000000;font-style:normal;font-variant:normal;font-weight:normal;font-stretch:normal;font-size:medium;line-height:normal;font-family:sans-serif;font-variant-ligatures:normal;font-variant-position:normal;font-variant-caps:normal;font-variant-numeric:normal;font-variant-alternates:normal;font-variant-east-asian:normal;font-feature-settings:normal;font-variation-settings:normal;text-indent:0;text-align:start;text-decoration:none;text-decoration-line:none;text-decoration-style:solid;text-decoration-color:#000000;letter-spacing:normal;word-spacing:normal;text-transform:none;writing-mode:lr-tb;direction:ltr;text-orientation:mixed;dominant-baseline:auto;baseline-shift:baseline;text-anchor:start;white-space:normal;shape-padding:0;shape-margin:0;inline-size:0;clip-rule:nonzero;display:inline;overflow:visible;visibility:visible;opacity:0.4;isolation:auto;mix-blend-mode:normal;color-interpolation:sRGB;color-interpolation-filters:linearRGB;solid-color:#000000;solid-opacity:1;vector-effect:none;fill:#000000;fill-opacity:1;fill-rule:nonzero;stroke:none;stroke-width:1.50248;stroke-linecap:butt;stroke-linejoin:miter;stroke-miterlimit:4;stroke-dasharray:none;stroke-dashoffset:0;stroke-opacity:1;paint-order:stroke markers fill;color-rendering:auto;image-rendering:auto;shape-rendering:auto;text-rendering:auto;enable-background:accumulate;stop-color:#000000"
           d="m 514.24609,3855.1387 v 2.1406 104.8457 2.1406 h 171.82813 v -109.1269 h -1.88867 z m 1.89063,1.8867 H 684.18555 V 3962.375 H 516.13672 v -0.252 -104.8437 z"
           transform="matrix(0.26458333,0,0,0.26458333,303.2026,-86.731924)" />
        <path
           id="path9711"
           style="color:#000000;font-style:normal;font-variant:normal;font-weight:normal;font-stretch:normal;font-size:medium;line-height:normal;font-family:sans-serif;font-variant-ligatures:normal;font-variant-position:normal;font-variant-caps:normal;font-variant-numeric:normal;font-variant-alternates:normal;font-variant-east-asian:normal;font-feature-settings:normal;font-variation-settings:normal;text-indent:0;text-align:start;text-decoration:none;text-decoration-line:none;text-decoration-style:solid;text-decoration-color:#000000;letter-spacing:normal;word-spacing:normal;text-transform:none;writing-mode:lr-tb;direction:ltr;text-orientation:mixed;dominant-baseline:auto;baseline-shift:baseline;text-anchor:start;white-space:normal;shape-padding:0;shape-margin:0;inline-size:0;clip-rule:nonzero;display:inline;overflow:visible;visibility:visible;opacity:0.2;isolation:auto;mix-blend-mode:normal;color-interpolation:sRGB;color-interpolation-filters:linearRGB;solid-color:#000000;solid-opacity:1;vector-effect:none;fill:#000000;fill-opacity:1;fill-rule:nonzero;stroke:none;stroke-width:1.50248;stroke-linecap:butt;stroke-linejoin:miter;stroke-miterlimit:4;stroke-dasharray:none;stroke-dashoffset:0;stroke-opacity:1;paint-order:stroke markers fill;color-rendering:auto;image-rendering:auto;shape-rendering:auto;text-rendering:auto;enable-background:accumulate;stop-color:#000000"
           d="m 516.13672,3857.0254 v 0.2539 104.8437 0.252 h 168.04883 v -105.3496 z m 105.91211,17.2988 a 23.537457,23.537457 0 0 1 0.40039,0 23.537457,23.537457 0 0 1 0.0352,0 23.537457,23.537457 0 0 1 0.40039,0 23.537457,23.537457 0 0 1 0.40039,0.012 23.537457,23.537457 0 0 1 0.40234,0.02 23.537457,23.537457 0 0 1 0.40039,0.021 23.537457,23.537457 0 0 1 0.40039,0.031 23.537457,23.537457 0 0 1 0.40039,0.037 23.537457,23.537457 0 0 1 0.39844,0.045 23.537457,23.537457 0 0 1 0.39844,0.051 23.537457,23.537457 0 0 1 0.39648,0.059 23.537457,23.537457 0 0 1 0.39649,0.064 23.537457,23.537457 0 0 1 0.39648,0.072 23.537457,23.537457 0 0 1 0.39258,0.076 23.537457,23.537457 0 0 1 0.39258,0.086 23.537457,23.537457 0 0 1 0.39062,0.094 23.537457,23.537457 0 0 1 0.39063,0.098 23.537457,23.537457 0 0 1 0.38671,0.1036 23.537457,23.537457 0 0 1 0.38672,0.1113 23.537457,23.537457 0 0 1 0.38282,0.1191 23.537457,23.537457 0 0 1 0.38086,0.1231 23.537457,23.537457 0 0 1 0.38086,0.1328 23.537457,23.537457 0 0 1 0.37695,0.1367 23.537457,23.537457 0 0 1 0.375,0.1445 23.537457,23.537457 0 0 1 0.37109,0.1504 23.537457,23.537457 0 0 1 0.36914,0.1563 23.537457,23.537457 0 0 1 0.36719,0.1621 23.537457,23.537457 0 0 1 0.36523,0.1699 23.537457,23.537457 0 0 1 0.36133,0.1758 23.537457,23.537457 0 0 1 0.35742,0.1797 23.537457,23.537457 0 0 1 0.35547,0.1875 23.537457,23.537457 0 0 1 0.35157,0.1953 23.537457,23.537457 0 0 1 0.34961,0.1992 23.537457,23.537457 0 0 1 0.34374,0.2051 23.537457,23.537457 0 0 1 0.3418,0.2109 23.537457,23.537457 0 0 1 0.33789,0.2168 23.537457,23.537457 0 0 1 0.33399,0.2246 23.537457,23.537457 0 0 1 0.33008,0.2285 23.537457,23.537457 0 0 1 0.32617,0.2344 23.537457,23.537457 0 0 1 0.32226,0.2383 23.537457,23.537457 0 0 1 0.31836,0.2461 23.537457,23.537457 0 0 1 0.3125,0.25 23.537457,23.537457 0 0 1 0.3086,0.2578 23.537457,23.537457 0 0 1 0.30664,0.2617 23.537457,23.537457 0 0 1 0.29882,0.2637 23.537457,23.537457 0 0 1 0.29688,0.2734 23.537457,23.537457 0 0 1 0.29297,0.2754 23.537457,23.537457 0 0 1 0.28515,0.2813 23.537457,23.537457 0 0 1 0.28125,0.2871 23.537457,23.537457 0 0 1 0.27735,0.289 23.537457,23.537457 0 0 1 0.27148,0.2969 23.537457,23.537457 0 0 1 0.26758,0.2989 23.537457,23.537457 0 0 1 0.26172,0.3046 23.537457,23.537457 0 0 1 0.25586,0.3106 23.537457,23.537457 0 0 1 0.25,0.3125 23.537457,23.537457 0 0 1 0.24609,0.3183 23.537457,23.537457 0 0 1 0.24024,0.3204 23.537457,23.537457 0 0 1 0.23437,0.3281 23.537457,23.537457 0 0 1 0.23047,0.3301 23.537457,23.537457 0 0 1 0.22266,0.332 23.537457,23.537457 0 0 1 0.21875,0.3379 23.537457,23.537457 0 0 1 0.21093,0.3418 23.537457,23.537457 0 0 1 0.20704,0.3437 23.537457,23.537457 0 0 1 0.20117,0.3477 23.537457,23.537457 0 0 1 0.19336,0.3515 23.537457,23.537457 0 0 1 0.1875,0.3555 23.537457,23.537457 0 0 1 0.18164,0.3594 23.537457,23.537457 0 0 1 0.17773,0.3594 23.537457,23.537457 0 0 1 0.16992,0.3652 23.537457,23.537457 0 0 1 0.16211,0.3652 23.537457,23.537457 0 0 1 0.15821,0.3692 23.537457,23.537457 0 0 1 0.15039,0.373 23.537457,23.537457 0 0 1 0.14453,0.375 23.537457,23.537457 0 0 1 0.13867,0.377 23.537457,23.537457 0 0 1 0.13086,0.3769 23.537457,23.537457 0 0 1 0.12305,0.3828 23.537457,23.537457 0 0 1 0.11914,0.3848 23.537457,23.537457 0 0 1 0.11132,0.3848 23.537457,23.537457 0 0 1 0.10743,0.3867 23.537457,23.537457 0 0 1 0.0976,0.3887 23.537457,23.537457 0 0 1 0.0918,0.3925 23.537457,23.537457 0 0 1 0.0859,0.3907 23.537457,23.537457 0 0 1 0.0801,0.3945 23.537457,23.537457 0 0 1 0.0703,0.3945 23.537457,23.537457 0 0 1 0.0664,0.3965 23.537457,23.537457 0 0 1 0.0586,0.3965 23.537457,23.537457 0 0 1 0.0508,0.4004 23.537457,23.537457 0 0 1 0.0469,0.3984 23.537457,23.537457 0 0 1 0.0371,0.3985 23.537457,23.537457 0 0 1 0.0332,0.4004 23.537457,23.537457 0 0 1 0.0273,0.4003 23.537457,23.537457 0 0 1 0.0176,0.4004 23.537457,23.537457 0 0 1 0.0117,0.4024 23.537457,23.537457 0 0 1 0.004,0.4023 23.537457,23.537457 0 0 1 0,0.033 23.537457,23.537457 0 0 1 -0.004,0.4024 23.537457,23.537457 0 0 1 -0.0117,0.4004 23.537457,23.537457 0 0 1 -0.0176,0.4004 23.537457,23.537457 0 0 1 -0.0234,0.4023 23.537457,23.537457 0 0 1 -0.0293,0.3984 23.537457,23.537457 0 0 1 -0.0391,0.4004 23.537457,23.537457 0 0 1 -0.0449,0.4004 23.537457,23.537457 0 0 1 -0.0508,0.3965 23.537457,23.537457 0 0 1 -0.0586,0.3984 23.537457,23.537457 0 0 1 -0.0645,0.3965 23.537457,23.537457 0 0 1 -0.0723,0.3946 23.537457,23.537457 0 0 1 -0.0762,0.3945 23.537457,23.537457 0 0 1 -0.0859,0.3906 23.537457,23.537457 0 0 1 -0.0898,0.3926 23.537457,23.537457 0 0 1 -0.0996,0.3887 23.537457,23.537457 0 0 1 -0.10547,0.3867 23.537457,23.537457 0 0 1 -0.11133,0.3867 23.537457,23.537457 0 0 1 -0.11719,0.3828 23.537457,23.537457 0 0 1 -0.125,0.3828 23.537457,23.537457 0 0 1 -0.1289,0.3789 23.537457,23.537457 0 0 1 -0.13868,0.377 23.537457,23.537457 0 0 1 -0.14453,0.375 23.537457,23.537457 0 0 1 -0.15039,0.373 23.537457,23.537457 0 0 1 -0.15625,0.3692 23.537457,23.537457 0 0 1 -0.16406,0.3672 23.537457,23.537457 0 0 1 -0.16797,0.3652 23.537457,23.537457 0 0 1 -0.17578,0.3613 23.537457,23.537457 0 0 1 -0.18164,0.3574 23.537457,23.537457 0 0 1 -0.1875,0.3536 23.537457,23.537457 0 0 1 -0.19336,0.3515 23.537457,23.537457 0 0 1 -0.20117,0.3496 23.537457,23.537457 0 0 1 -0.20313,0.3457 23.537457,23.537457 0 0 1 -0.21289,0.3399 23.537457,23.537457 0 0 1 -0.2168,0.3379 23.537457,23.537457 0 0 1 -0.22461,0.334 23.537457,23.537457 0 0 1 -0.22656,0.33 23.537457,23.537457 0 0 1 -0.23437,0.3262 23.537457,23.537457 0 0 1 -0.24024,0.3242 23.537457,23.537457 0 0 1 -0.24414,0.3164 23.537457,23.537457 0 0 1 -0.25195,0.3125 23.537457,23.537457 0 0 1 -0.25586,0.3106 23.537457,23.537457 0 0 1 -0.26172,0.3047 23.537457,23.537457 0 0 1 -0.26562,0.3007 23.537457,23.537457 0 0 1 -0.27149,0.2969 23.537457,23.537457 0 0 1 -0.27539,0.291 23.537457,23.537457 0 0 1 -0.2832,0.2871 23.537457,23.537457 0 0 1 -0.28516,0.2813 23.537457,23.537457 0 0 1 -0.29101,0.2754 23.537457,23.537457 0 0 1 -0.29493,0.2734 23.537457,23.537457 0 0 1 -0.30078,0.2676 23.537457,23.537457 0 0 1 -0.0859,0.072 l -10.79102,-10.9278 -0.91406,0.9278 -12.24805,12.4023 -14.35156,-14.8047 a 23.537457,23.537457 0 0 1 -0.0449,-0.1914 23.537457,23.537457 0 0 1 -0.0879,-0.3945 23.537457,23.537457 0 0 1 -0.0762,-0.3926 23.537457,23.537457 0 0 1 -0.0723,-0.3965 23.537457,23.537457 0 0 1 -0.0664,-0.3945 23.537457,23.537457 0 0 1 -0.0586,-0.3965 23.537457,23.537457 0 0 1 -0.0508,-0.3984 23.537457,23.537457 0 0 1 -0.0449,-0.3985 23.537457,23.537457 0 0 1 -0.0391,-0.4004 23.537457,23.537457 0 0 1 -0.0332,-0.4004 23.537457,23.537457 0 0 1 -0.0273,-0.4003 23.537457,23.537457 0 0 1 -0.0176,-0.4024 23.537457,23.537457 0 0 1 -0.0117,-0.4004 23.537457,23.537457 0 0 1 -0.004,-0.4004 23.537457,23.537457 0 0 1 0,-0.035 23.537457,23.537457 0 0 1 0.004,-0.4024 23.537457,23.537457 0 0 1 0.0117,-0.4004 23.537457,23.537457 0 0 1 0.0176,-0.4023 23.537457,23.537457 0 0 1 0.0234,-0.4004 23.537457,23.537457 0 0 1 0.0293,-0.3984 23.537457,23.537457 0 0 1 0.0391,-0.4024 23.537457,23.537457 0 0 1 0.0449,-0.3984 23.537457,23.537457 0 0 1 0.0508,-0.3965 23.537457,23.537457 0 0 1 0.0566,-0.3984 23.537457,23.537457 0 0 1 0.0664,-0.3965 23.537457,23.537457 0 0 1 0.0703,-0.3945 23.537457,23.537457 0 0 1 0.0781,-0.3946 23.537457,23.537457 0 0 1 0.0859,-0.3926 23.537457,23.537457 0 0 1 0.0898,-0.3906 23.537457,23.537457 0 0 1 0.0996,-0.3887 23.537457,23.537457 0 0 1 0.10352,-0.3867 23.537457,23.537457 0 0 1 0.11132,-0.3867 23.537457,23.537457 0 0 1 0.11915,-0.3848 23.537457,23.537457 0 0 1 0.125,-0.3808 23.537457,23.537457 0 0 1 0.13085,-0.3789 23.537457,23.537457 0 0 1 0.13672,-0.3789 23.537457,23.537457 0 0 1 0.14453,-0.3731 23.537457,23.537457 0 0 1 0.14844,-0.373 23.537457,23.537457 0 0 1 0.15625,-0.3692 23.537457,23.537457 0 0 1 0.16406,-0.3672 23.537457,23.537457 0 0 1 0.16993,-0.3632 23.537457,23.537457 0 0 1 0.17382,-0.3614 23.537457,23.537457 0 0 1 0.18164,-0.3593 23.537457,23.537457 0 0 1 0.18946,-0.3536 23.537457,23.537457 0 0 1 0.1914,-0.3515 23.537457,23.537457 0 0 1 0.19922,-0.3477 23.537457,23.537457 0 0 1 0.20703,-0.3476 23.537457,23.537457 0 0 1 0.21094,-0.3399 23.537457,23.537457 0 0 1 0.21875,-0.3379 23.537457,23.537457 0 0 1 0.2207,-0.3339 23.537457,23.537457 0 0 1 0.22852,-0.3301 23.537457,23.537457 0 0 1 0.23633,-0.3262 23.537457,23.537457 0 0 1 0.24023,-0.3223 23.537457,23.537457 0 0 1 0.24414,-0.3164 23.537457,23.537457 0 0 1 0.25196,-0.3144 23.537457,23.537457 0 0 1 0.2539,-0.3106 23.537457,23.537457 0 0 1 0.26172,-0.3047 23.537457,23.537457 0 0 1 0.26758,-0.3007 23.537457,23.537457 0 0 1 0.26953,-0.295 23.537457,23.537457 0 0 1 0.27735,-0.291 23.537457,23.537457 0 0 1 0.28124,-0.289 23.537457,23.537457 0 0 1 0.28516,-0.2813 23.537457,23.537457 0 0 1 0.29297,-0.2773 23.537457,23.537457 0 0 1 0.29492,-0.2715 23.537457,23.537457 0 0 1 0.30078,-0.2676 23.537457,23.537457 0 0 1 0.30469,-0.2598 23.537457,23.537457 0 0 1 0.30859,-0.2558 23.537457,23.537457 0 0 1 0.3125,-0.252 23.537457,23.537457 0 0 1 0.31836,-0.2461 23.537457,23.537457 0 0 1 0.32227,-0.2402 23.537457,23.537457 0 0 1 0.32422,-0.2344 23.537457,23.537457 0 0 1 0.33008,-0.2285 23.537457,23.537457 0 0 1 0.33398,-0.2246 23.537457,23.537457 0 0 1 0.33789,-0.2168 23.537457,23.537457 0 0 1 0.33985,-0.2129 23.537457,23.537457 0 0 1 0.34374,-0.2051 23.537457,23.537457 0 0 1 0.34961,-0.2011 23.537457,23.537457 0 0 1 0.35157,-0.1934 23.537457,23.537457 0 0 1 0.35547,-0.1894 23.537457,23.537457 0 0 1 0.35742,-0.1817 23.537457,23.537457 0 0 1 0.36133,-0.1758 23.537457,23.537457 0 0 1 0.36328,-0.1699 23.537457,23.537457 0 0 1 0.36718,-0.1621 23.537457,23.537457 0 0 1 0.36914,-0.1563 23.537457,23.537457 0 0 1 0.37305,-0.1523 23.537457,23.537457 0 0 1 0.37305,-0.1445 23.537457,23.537457 0 0 1 0.37695,-0.1367 23.537457,23.537457 0 0 1 0.38086,-0.1329 23.537457,23.537457 0 0 1 0.37891,-0.125 23.537457,23.537457 0 0 1 0.38476,-0.1191 23.537457,23.537457 0 0 1 0.38672,-0.1113 23.537457,23.537457 0 0 1 0.38672,-0.1055 23.537457,23.537457 0 0 1 0.38867,-0.1 23.537457,23.537457 0 0 1 0.39063,-0.092 23.537457,23.537457 0 0 1 0.39258,-0.086 23.537457,23.537457 0 0 1 0.39257,-0.08 23.537457,23.537457 0 0 1 0.39649,-0.07 23.537457,23.537457 0 0 1 0.39648,-0.064 23.537457,23.537457 0 0 1 0.39649,-0.059 23.537457,23.537457 0 0 1 0.39843,-0.053 23.537457,23.537457 0 0 1 0.39844,-0.045 23.537457,23.537457 0 0 1 0.40039,-0.039 23.537457,23.537457 0 0 1 0.40039,-0.031 23.537457,23.537457 0 0 1 0.40039,-0.021 23.537457,23.537457 0 0 1 0.40235,-0.02 23.537457,23.537457 0 0 1 0.40039,-0.012 z m -34.22852,20.5059 5.09375,5.2558 2.99805,3.0918 6.09766,6.2871 8.24804,8.5079 1.86719,1.9238 -2.05078,2.0762 -1.87891,1.9023 -14.57226,14.7559 h -48.27344 z m 39.26563,13.5664 8.74609,8.8535 2.53906,2.5684 1.81836,1.8418 16.45899,16.664 h -23.07813 -3.58203 -32.45898 l 13.09179,-13.2558 1.94336,-1.9668 1.34571,-1.3633 1.43164,-1.4492 0.375,-0.3789 z"
           transform="matrix(0.26458333,0,0,0.26458333,303.2026,-86.731924)" />
      </g>
      <path
         id="path9685"
         style="color:#000000;font-style:normal;font-variant:normal;font-weight:normal;font-stretch:normal;font-size:medium;line-height:normal;font-family:sans-serif;font-variant-ligatures:normal;font-variant-position:normal;font-variant-caps:normal;font-variant-numeric:normal;font-variant-alternates:normal;font-variant-east-asian:normal;font-feature-settings:normal;font-variation-settings:normal;text-indent:0;text-align:start;text-decoration:none;text-decoration-line:none;text-decoration-style:solid;text-decoration-color:#000000;letter-spacing:normal;word-spacing:normal;text-transform:none;writing-mode:lr-tb;direction:ltr;text-orientation:mixed;dominant-baseline:auto;baseline-shift:baseline;text-anchor:start;white-space:normal;shape-padding:0;shape-margin:0;inline-size:0;clip-rule:nonzero;display:inline;overflow:visible;visibility:visible;opacity:0.4;isolation:auto;mix-blend-mode:normal;color-interpolation:sRGB;color-interpolation-filters:linearRGB;solid-color:#000000;solid-opacity:1;vector-effect:none;fill:#000000;fill-opacity:1;fill-rule:nonzero;stroke:none;stroke-width:0.675803;stroke-linecap:butt;stroke-linejoin:miter;stroke-miterlimit:4;stroke-dasharray:none;stroke-dashoffset:0;stroke-opacity:1;paint-order:stroke markers fill;color-rendering:auto;image-rendering:auto;shape-rendering:auto;text-rendering:auto;enable-background:accumulate;stop-color:#000000"
         d="m 436.72261,930.72482 v 0.92551 32.11896 0.92398 h 50.4455 v -33.96845 h -0.84956 z m 0.85059,0.85058 h 48.74535 v 32.26832 H 437.5732 v -0.0744 -32.11896 z" />
    </g>
  </g>
</svg>
