<?xml version="1.0" encoding="UTF-8" standalone="no"?>
<svg
   xmlns:dc="http://purl.org/dc/elements/1.1/"
   xmlns:cc="http://creativecommons.org/ns#"
   xmlns:rdf="http://www.w3.org/1999/02/22-rdf-syntax-ns#"
   xmlns:svg="http://www.w3.org/2000/svg"
   xmlns="http://www.w3.org/2000/svg"
   xmlns:sodipodi="http://sodipodi.sourceforge.net/DTD/sodipodi-0.dtd"
   xmlns:inkscape="http://www.inkscape.org/namespaces/inkscape"
   width="100"
   height="100"
   viewBox="0 0 26.458334 26.458334"
   version="1.1"
   id="svg10012"
   inkscape:version="1.0.1 (1.0.1+r74)"
   sodipodi:docname="template_video_square.svg">
  <defs
     id="defs10006" />
  <sodipodi:namedview
     id="base"
     pagecolor="#ffffff"
     bordercolor="#666666"
     borderopacity="1.0"
     inkscape:pageopacity="0.0"
     inkscape:pageshadow="2"
     inkscape:zoom="0.98994949"
     inkscape:cx="142.95813"
     inkscape:cy="228.00352"
     inkscape:document-units="px"
     inkscape:current-layer="g3163"
     inkscape:document-rotation="0"
     showgrid="false"
     units="px"
     inkscape:window-width="1534"
     inkscape:window-height="843"
     inkscape:window-x="66"
     inkscape:window-y="20"
     inkscape:window-maximized="1" />
  <metadata
     id="metadata10009">
    <rdf:RDF>
      <cc:Work
         rdf:about="">
        <dc:format>image/svg+xml</dc:format>
        <dc:type
           rdf:resource="http://purl.org/dc/dcmitype/StillImage" />
        <dc:title></dc:title>
      </cc:Work>
    </rdf:RDF>
  </metadata>
  <g
     inkscape:label="Layer 1"
     inkscape:groupmode="layer"
     id="layer1"
     transform="translate(-70.005836,-46.768833)">
    <g
       id="g3163"
       style="display:inline;stroke-width:0.397531"
       transform="matrix(2.5155261,0,0,2.5155261,-1048.8314,-1500.8937)">
      <g
         id="g18"
         transform="matrix(0.2067296,0,0,0.2067296,352.46488,487.74198)">
        <path
           id="path2991"
           style="font-variation-settings:normal;opacity:0.2;vector-effect:none;fill:#000000;fill-opacity:1;stroke:none;stroke-width:0.150919px;stroke-linecap:butt;stroke-linejoin:miter;stroke-miterlimit:4;stroke-dasharray:none;stroke-dashoffset:0;stroke-opacity:1;paint-order:stroke markers fill;stop-color:#000000"
           d="m 492.30489,623.46786 -1.44763,0.003 v 37.99926 h -0.92553 -35.53188 v 1.31334 h 37.90504 z"
           sodipodi:nodetypes="cccccccc" />
        <path
           id="path2993"
           style="color:#000000;font-style:normal;font-variant:normal;font-weight:normal;font-stretch:normal;font-size:medium;line-height:normal;font-family:sans-serif;font-variant-ligatures:normal;font-variant-position:normal;font-variant-caps:normal;font-variant-numeric:normal;font-variant-alternates:normal;font-variant-east-asian:normal;font-feature-settings:normal;font-variation-settings:normal;text-indent:0;text-align:start;text-decoration:none;text-decoration-line:none;text-decoration-style:solid;text-decoration-color:#000000;letter-spacing:normal;word-spacing:normal;text-transform:none;writing-mode:lr-tb;direction:ltr;text-orientation:mixed;dominant-baseline:auto;baseline-shift:baseline;text-anchor:start;white-space:normal;shape-padding:0;shape-margin:0;inline-size:0;clip-rule:nonzero;display:inline;overflow:visible;visibility:visible;opacity:0.4;isolation:auto;mix-blend-mode:normal;color-interpolation:sRGB;color-interpolation-filters:linearRGB;solid-color:#000000;solid-opacity:1;vector-effect:none;fill:#000000;fill-opacity:1;fill-rule:nonzero;stroke:none;stroke-width:0.675803;stroke-linecap:butt;stroke-linejoin:miter;stroke-miterlimit:4;stroke-dasharray:none;stroke-dashoffset:0;stroke-opacity:1;paint-order:stroke markers fill;color-rendering:auto;image-rendering:auto;shape-rendering:auto;text-rendering:auto;enable-background:accumulate;stop-color:#000000"
           d="m 451.6024,621.61026 v 0.84955 39.01255 h 0.92605 37.40566 0.92553 v -39.8621 z m 0.85112,0.84955 h 37.55552 v 38.163 h -0.0744 -37.40618 -0.0749 z"
           sodipodi:nodetypes="ccccccccccccccc" />
        <path
           style="color:#000000;font-style:normal;font-variant:normal;font-weight:normal;font-stretch:normal;font-size:medium;line-height:normal;font-family:sans-serif;font-variant-ligatures:normal;font-variant-position:normal;font-variant-caps:normal;font-variant-numeric:normal;font-variant-alternates:normal;font-variant-east-asian:normal;font-feature-settings:normal;font-variation-settings:normal;text-indent:0;text-align:start;text-decoration:none;text-decoration-line:none;text-decoration-style:solid;text-decoration-color:#000000;letter-spacing:normal;word-spacing:normal;text-transform:none;writing-mode:lr-tb;direction:ltr;text-orientation:mixed;dominant-baseline:auto;baseline-shift:baseline;text-anchor:start;white-space:normal;shape-padding:0;shape-margin:0;inline-size:0;clip-rule:nonzero;display:inline;overflow:visible;visibility:visible;opacity:0.7;isolation:auto;mix-blend-mode:normal;color-interpolation:sRGB;color-interpolation-filters:linearRGB;solid-color:#000000;solid-opacity:1;vector-effect:none;fill:#ffffff;fill-opacity:1;fill-rule:nonzero;stroke:none;stroke-width:0.675803;stroke-linecap:butt;stroke-linejoin:miter;stroke-miterlimit:4;stroke-dasharray:none;stroke-dashoffset:0;stroke-opacity:1;paint-order:stroke markers fill;color-rendering:auto;image-rendering:auto;shape-rendering:auto;text-rendering:auto;enable-background:accumulate;stop-color:#000000"
           d="m 452.45328,622.45981 v 38.16299 h 0.0749 37.40618 0.0744 v -38.16299 z"
           id="path2995"
           sodipodi:nodetypes="ccccccc" />
        <path
           id="path2997"
           style="color:#000000;font-style:normal;font-variant:normal;font-weight:normal;font-stretch:normal;font-size:medium;line-height:normal;font-family:sans-serif;font-variant-ligatures:normal;font-variant-position:normal;font-variant-caps:normal;font-variant-numeric:normal;font-variant-alternates:normal;font-variant-east-asian:normal;font-feature-settings:normal;font-variation-settings:normal;text-indent:0;text-align:start;text-decoration:none;text-decoration-line:none;text-decoration-style:solid;text-decoration-color:#000000;letter-spacing:normal;word-spacing:normal;text-transform:none;writing-mode:lr-tb;direction:ltr;text-orientation:mixed;dominant-baseline:auto;baseline-shift:baseline;text-anchor:start;white-space:normal;shape-padding:0;shape-margin:0;inline-size:0;clip-rule:nonzero;display:inline;overflow:visible;visibility:visible;opacity:0.4;isolation:auto;mix-blend-mode:normal;color-interpolation:sRGB;color-interpolation-filters:linearRGB;solid-color:#000000;solid-opacity:1;vector-effect:none;fill:#000000;fill-opacity:1;fill-rule:nonzero;stroke:none;stroke-width:0.397531;stroke-linecap:butt;stroke-linejoin:miter;stroke-miterlimit:4;stroke-dasharray:none;stroke-dashoffset:0;stroke-opacity:1;paint-order:stroke markers fill;color-rendering:auto;image-rendering:auto;shape-rendering:auto;text-rendering:auto;enable-background:accumulate;stop-color:#000000"
           d="m 452.44994,626.90255 v 0.43098 h 1.60093 v 28.57138 h -0.003 -1.59473 -0.003 v 0.43098 h 0.003 1.59576 0.43357 v -29.43334 z m 35.52806,0 v 29.43334 h 0.43356 1.59577 0.003 v -0.43098 h -0.003 -1.59473 -0.003 v -28.57138 h 1.60093 v -0.43098 z m -31.89366,0.0103 v 0.50025 28.75637 h 0.56637 29.1605 0.56637 v -29.25662 z m 0.40876,0.41238 h 29.47572 v 28.43342 h -0.0651 -29.34446 -0.0661 z" />
        <path
           id="path2999"
           style="color:#000000;font-style:normal;font-variant:normal;font-weight:normal;font-stretch:normal;font-size:medium;line-height:normal;font-family:sans-serif;font-variant-ligatures:normal;font-variant-position:normal;font-variant-caps:normal;font-variant-numeric:normal;font-variant-alternates:normal;font-variant-east-asian:normal;font-feature-settings:normal;font-variation-settings:normal;text-indent:0;text-align:start;text-decoration:none;text-decoration-line:none;text-decoration-style:solid;text-decoration-color:#000000;letter-spacing:normal;word-spacing:normal;text-transform:none;writing-mode:lr-tb;direction:ltr;text-orientation:mixed;dominant-baseline:auto;baseline-shift:baseline;text-anchor:start;white-space:normal;shape-padding:0;shape-margin:0;inline-size:0;clip-rule:nonzero;display:inline;overflow:visible;visibility:visible;opacity:0.2;isolation:auto;mix-blend-mode:normal;color-interpolation:sRGB;color-interpolation-filters:linearRGB;solid-color:#000000;solid-opacity:1;vector-effect:none;fill:#000000;fill-opacity:1;fill-rule:nonzero;stroke:none;stroke-width:3.77953;stroke-linecap:butt;stroke-linejoin:miter;stroke-miterlimit:4;stroke-dasharray:none;stroke-dashoffset:0;stroke-opacity:1;paint-order:stroke markers fill;color-rendering:auto;image-rendering:auto;shape-rendering:auto;text-rendering:auto;enable-background:accumulate;stop-color:#000000"
           d="M 73.355469,74.726562 V 104.12695 H 87.697266 V 74.726562 Z m 31.320311,0 v 29.400388 h 22.29688 V 74.726562 Z m 39.50195,0 v 29.400388 h 22.29688 V 74.726562 Z m 39.50196,0 v 29.400388 h 22.29687 V 74.726562 Z m 39.49609,0 v 29.400388 h 22.30078 V 74.726562 Z m 39.50195,0 v 29.400388 h 22.30079 V 74.726562 Z m 39.50196,0 v 29.400388 h 22.30078 V 74.726562 Z m 39.50195,0 v 29.400388 h 22.29492 V 74.726562 Z m 39.50195,0 v 29.400388 h 22.29493 V 74.726562 Z m 38.86719,0 V 104.12695 H 430.4668 V 74.726562 Z M 111.44727,114.91602 v 270.20703 h 0.6289 278.95703 0.62305 V 114.91602 Z m -38.455082,0.0293 v 271.64063 h 0.02734 15.16211 0.0293 V 114.94531 Z m 341.943362,0 v 271.64063 h 0.0293 15.16211 0.0273 V 114.94531 Z m -163.38282,39.08985 c 52.95811,0 95.99219,43.03408 95.99219,95.99218 0,52.95821 -43.03408,95.97852 -95.99219,95.97852 -52.95801,0 -95.99218,-43.02031 -95.99218,-95.97852 0,-52.9581 43.03417,-95.99218 95.99218,-95.99218 z m 0,9.51172 c -47.81977,0 -86.48623,38.66088 -86.48632,86.48046 0,47.81997 38.66655,86.47266 86.48632,86.47266 47.81997,0 86.48633,-38.65269 86.48633,-86.47266 0,-47.81958 -38.66636,-86.48046 -86.48633,-86.48046 z M 224.25,207.16602 299.7207,251.3457 224.25,294.91406 Z M 72.740234,397.88672 v 27.84375 h 14.337891 v -27.84375 z m 31.316406,0 v 27.84375 h 22.29688 v -27.84375 z m 39.50195,0 v 27.84375 h 22.29688 v -27.84375 z m 39.50196,0 v 27.84375 h 22.29687 v -27.84375 z m 39.50195,0 v 27.84375 h 22.29492 v -27.84375 z m 39.50195,0 v 27.84375 h 22.29493 v -27.84375 z m 39.50196,0 v 27.84375 h 22.29492 v -27.84375 z m 39.5,0 v 27.84375 h 22.29687 v -27.84375 z m 39.49804,0 v 27.84375 h 22.30078 v -27.84375 z m 38.86719,0 v 27.84375 h 10.41602 v -27.84375 z"
           transform="matrix(0.10518012,0,0,0.10518012,444.77266,615.24408)" />
      </g>
    </g>
  </g>
</svg>
