<?xml version="1.0" encoding="UTF-8" standalone="no"?>
<svg
   xmlns:dc="http://purl.org/dc/elements/1.1/"
   xmlns:cc="http://creativecommons.org/ns#"
   xmlns:rdf="http://www.w3.org/1999/02/22-rdf-syntax-ns#"
   xmlns:svg="http://www.w3.org/2000/svg"
   xmlns="http://www.w3.org/2000/svg"
   xmlns:sodipodi="http://sodipodi.sourceforge.net/DTD/sodipodi-0.dtd"
   xmlns:inkscape="http://www.inkscape.org/namespaces/inkscape"
   width="100"
   height="100"
   viewBox="0 0 26.458334 26.458333"
   version="1.1"
   id="svg10012"
   inkscape:version="1.0.1 (1.0.1+r74)"
   sodipodi:docname="template_print_A4_portrait.svg">
  <defs
     id="defs10006" />
  <sodipodi:namedview
     id="base"
     pagecolor="#ffffff"
     bordercolor="#666666"
     borderopacity="1.0"
     inkscape:pageopacity="0.0"
     inkscape:pageshadow="2"
     inkscape:zoom="1.4"
     inkscape:cx="121.54213"
     inkscape:cy="174.01014"
     inkscape:document-units="px"
     inkscape:current-layer="layer1"
     inkscape:document-rotation="0"
     showgrid="false"
     units="px"
     inkscape:window-width="1534"
     inkscape:window-height="843"
     inkscape:window-x="66"
     inkscape:window-y="20"
     inkscape:window-maximized="1" />
  <metadata
     id="metadata10009">
    <rdf:RDF>
      <cc:Work
         rdf:about="">
        <dc:format>image/svg+xml</dc:format>
        <dc:type
           rdf:resource="http://purl.org/dc/dcmitype/StillImage" />
        <dc:title></dc:title>
      </cc:Work>
    </rdf:RDF>
  </metadata>
  <g
     inkscape:label="Layer 1"
     inkscape:groupmode="layer"
     id="layer1"
     transform="translate(-94.180494,-49.822241)">
    <g
       id="g4105"
       transform="matrix(0.51397341,0,0,0.51397341,-104.98904,5.7167181)"
       style="display:inline;stroke-width:0.397531">
      <g
         id="g839">
        <path
           style="font-variation-settings:normal;display:inline;opacity:0.2;vector-effect:none;fill:#000000;fill-opacity:1;stroke:none;stroke-width:0.150919px;stroke-linecap:butt;stroke-linejoin:miter;stroke-miterlimit:4;stroke-dasharray:none;stroke-dashoffset:0;stroke-opacity:1;paint-order:stroke markers fill;stop-color:#000000"
           d="m 430.81918,88.546015 -1.24695,0.0021 v 47.711815 h -30.94696 v 1.03094 h 32.19391 z"
           id="path4036"
           inkscape:export-filename="print_A4_portrait.png"
           inkscape:export-xdpi="85.269501"
           inkscape:export-ydpi="85.269501" />
        <path
           id="path839"
           style="color:#000000;font-style:normal;font-variant:normal;font-weight:normal;font-stretch:normal;font-size:medium;line-height:normal;font-family:sans-serif;font-variant-ligatures:normal;font-variant-position:normal;font-variant-caps:normal;font-variant-numeric:normal;font-variant-alternates:normal;font-variant-east-asian:normal;font-feature-settings:normal;font-variation-settings:normal;text-indent:0;text-align:start;text-decoration:none;text-decoration-line:none;text-decoration-style:solid;text-decoration-color:#000000;letter-spacing:normal;word-spacing:normal;text-transform:none;writing-mode:lr-tb;direction:ltr;text-orientation:mixed;dominant-baseline:auto;baseline-shift:baseline;text-anchor:start;white-space:normal;shape-padding:0;shape-margin:0;inline-size:0;clip-rule:nonzero;display:inline;overflow:visible;visibility:visible;opacity:0.7;isolation:auto;mix-blend-mode:normal;color-interpolation:sRGB;color-interpolation-filters:linearRGB;solid-color:#000000;solid-opacity:1;vector-effect:none;fill:#ffffff;fill-opacity:1;fill-rule:nonzero;stroke:none;stroke-width:6.42518;stroke-linecap:butt;stroke-linejoin:miter;stroke-miterlimit:4;stroke-dasharray:none;stroke-dashoffset:0;stroke-opacity:1;paint-order:stroke markers fill;color-rendering:auto;image-rendering:auto;shape-rendering:auto;text-rendering:auto;enable-background:accumulate;stop-color:#000000"
           d="m 405.53516,19.636719 -222.28451,0.414062 -83.838725,81.594809 0.04315,381.43839 H 405.53516 Z"
           transform="matrix(0.10518012,0,0,0.10518012,386.06747,84.599024)"
           sodipodi:nodetypes="cccccc" />
        <path
           id="path4040"
           style="font-variation-settings:normal;display:inline;opacity:0.2;vector-effect:none;fill:#000000;fill-opacity:1;stroke:none;stroke-width:1.50248;stroke-linecap:butt;stroke-linejoin:miter;stroke-miterlimit:4;stroke-dasharray:none;stroke-dashoffset:0;stroke-opacity:1;paint-order:stroke markers fill;stop-color:#000000"
           d="m 1533.9277,346.17773 v 14.8711 h -21.4472 v 40.77148 c 0,2.15316 1.7335,3.88672 3.8867,3.88672 h 85.1094 c 2.1531,0 3.8867,-1.73356 3.8867,-3.88672 V 350.0625 c 0,-2.15315 -1.7336,-3.88477 -3.8867,-3.88477 z m -17.5605,65.99415 c -2.1532,0 -3.8867,1.39711 -3.8867,3.13085 0,1.73379 1.7335,3.12891 3.8867,3.12891 h 85.1094 c 2.1531,0 3.8867,-1.39512 3.8867,-3.12891 0,-1.73374 -1.7336,-3.13085 -3.8867,-3.13085 z m 0,12.10546 c -2.1532,0 -3.8867,1.39517 -3.8867,3.12891 0,1.73378 1.7335,3.12891 3.8867,3.12891 h 34.0996 c 2.1531,0 3.8867,-1.39513 3.8867,-3.12891 0,-1.73374 -1.7336,-3.12891 -3.8867,-3.12891 z m 48.4336,0.19532 c -2.1531,0 -3.8848,1.73356 -3.8848,3.88672 v 48.9707 c 0,2.15312 1.7317,3.88672 3.8848,3.88672 h 35.8183 c 2.1532,0 3.8868,-1.7336 3.8868,-3.88672 v -48.9707 c 0,-2.15316 -1.7336,-3.88672 -3.8868,-3.88672 z m -48.4336,12.54296 c -2.1532,0 -3.8867,1.39513 -3.8867,3.12891 0,1.73375 1.7335,3.13086 3.8867,3.13086 h 34.0996 c 2.1531,0 3.8867,-1.39711 3.8867,-3.13086 0,-1.73378 -1.7336,-3.12891 -3.8867,-3.12891 z m 0,12.73829 c -2.1532,0 -3.8867,1.39516 -3.8867,3.1289 0,1.73379 1.7335,3.13086 3.8867,3.13086 h 34.0996 c 2.1531,0 3.8867,-1.39707 3.8867,-3.13086 0,-1.73374 -1.7336,-3.1289 -3.8867,-3.1289 z m 0,12.73828 c -2.1532,0 -3.8867,1.39516 -3.8867,3.1289 0,1.73379 1.7335,3.13086 3.8867,3.13086 h 34.0996 c 2.1531,0 3.8867,-1.39707 3.8867,-3.13086 0,-1.73374 -1.7336,-3.1289 -3.8867,-3.1289 z m 0,12.73828 c -2.1532,0 -3.8867,1.39711 -3.8867,3.13086 0,1.73378 1.7335,3.1289 3.8867,3.1289 h 34.0996 c 2.1531,0 3.8867,-1.39512 3.8867,-3.1289 0,-1.73375 -1.7336,-3.13086 -3.8867,-3.13086 z m 0,12.89648 c -2.1532,0 -3.8867,1.39708 -3.8867,3.13086 0,1.73375 1.7335,3.12891 3.8867,3.12891 h 85.1094 c 2.1531,0 3.8867,-1.39516 3.8867,-3.12891 0,-1.73378 -1.7336,-3.13086 -3.8867,-3.13086 z"
           transform="scale(0.26458333)"
           inkscape:export-filename="print_A4_portrait.png"
           inkscape:export-xdpi="85.269501"
           inkscape:export-ydpi="85.269501" />
        <path
           id="path4044"
           style="color:#000000;font-style:normal;font-variant:normal;font-weight:normal;font-stretch:normal;font-size:medium;line-height:normal;font-family:sans-serif;font-variant-ligatures:normal;font-variant-position:normal;font-variant-caps:normal;font-variant-numeric:normal;font-variant-alternates:normal;font-variant-east-asian:normal;font-feature-settings:normal;font-variation-settings:normal;text-indent:0;text-align:start;text-decoration:none;text-decoration-line:none;text-decoration-style:solid;text-decoration-color:#000000;letter-spacing:normal;word-spacing:normal;text-transform:none;writing-mode:lr-tb;direction:ltr;text-orientation:mixed;dominant-baseline:auto;baseline-shift:baseline;text-anchor:start;white-space:normal;shape-padding:0;shape-margin:0;inline-size:0;clip-rule:nonzero;display:inline;overflow:visible;visibility:visible;opacity:0.4;isolation:auto;mix-blend-mode:normal;color-interpolation:sRGB;color-interpolation-filters:linearRGB;solid-color:#000000;solid-opacity:1;vector-effect:none;fill:#000000;fill-opacity:1;fill-rule:nonzero;stroke:none;stroke-width:0.675803;stroke-linecap:butt;stroke-linejoin:miter;stroke-miterlimit:4;stroke-dasharray:none;stroke-dashoffset:0;stroke-opacity:1;paint-order:stroke markers fill;color-rendering:auto;image-rendering:auto;shape-rendering:auto;text-rendering:auto;enable-background:accumulate;stop-color:#000000"
           d="m 429.57223,85.812849 -24.70703,0.04651 -0.24805,0.24443 -8.9395,8.814448 V 136.2599 h 33.89458 z m -24.21972,0.889474 v 8.32495 h -8.54992 z m 23.36911,-0.03785 V 135.40982 H 396.52826 V 95.527502 h 9.32344 v -8.819618 z"
           inkscape:export-filename="print_A4_portrait.png"
           inkscape:export-xdpi="85.269501"
           inkscape:export-ydpi="85.269501"
           sodipodi:nodetypes="cccccccccccccccccc" />
      </g>
    </g>
  </g>
</svg>
