<?xml version="1.0" encoding="UTF-8" standalone="no"?>
<svg
   xmlns:dc="http://purl.org/dc/elements/1.1/"
   xmlns:cc="http://creativecommons.org/ns#"
   xmlns:rdf="http://www.w3.org/1999/02/22-rdf-syntax-ns#"
   xmlns:svg="http://www.w3.org/2000/svg"
   xmlns="http://www.w3.org/2000/svg"
   xmlns:sodipodi="http://sodipodi.sourceforge.net/DTD/sodipodi-0.dtd"
   xmlns:inkscape="http://www.inkscape.org/namespaces/inkscape"
   width="100"
   height="100"
   viewBox="0 0 26.458334 26.458334"
   version="1.1"
   id="svg10012"
   inkscape:version="1.0.1 (1.0.1+r74)"
   sodipodi:docname="template_image_square.svg">
  <defs
     id="defs10006" />
  <sodipodi:namedview
     id="base"
     pagecolor="#ffffff"
     bordercolor="#666666"
     borderopacity="1.0"
     inkscape:pageopacity="0.0"
     inkscape:pageshadow="2"
     inkscape:zoom="1.4"
     inkscape:cx="234.35719"
     inkscape:cy="169.7088"
     inkscape:document-units="px"
     inkscape:current-layer="g9916"
     inkscape:document-rotation="0"
     showgrid="false"
     units="px"
     inkscape:window-width="1534"
     inkscape:window-height="843"
     inkscape:window-x="66"
     inkscape:window-y="20"
     inkscape:window-maximized="1" />
  <metadata
     id="metadata10009">
    <rdf:RDF>
      <cc:Work
         rdf:about="">
        <dc:format>image/svg+xml</dc:format>
        <dc:type
           rdf:resource="http://purl.org/dc/dcmitype/StillImage" />
        <dc:title></dc:title>
      </cc:Work>
    </rdf:RDF>
  </metadata>
  <g
     inkscape:label="Layer 1"
     inkscape:groupmode="layer"
     id="layer1"
     transform="translate(-70.005836,-46.768833)">
    <g
       id="g9916"
       style="display:inline;stroke-width:0.397531"
       transform="matrix(2.5155261,0,0,2.5155261,-1011.3254,-2133.5604)">
      <g
         id="g18"
         transform="translate(-5.780562,-5.3996022)">
        <path
           style="color:#000000;font-style:normal;font-variant:normal;font-weight:normal;font-stretch:normal;font-size:medium;line-height:normal;font-family:sans-serif;font-variant-ligatures:normal;font-variant-position:normal;font-variant-caps:normal;font-variant-numeric:normal;font-variant-alternates:normal;font-variant-east-asian:normal;font-feature-settings:normal;font-variation-settings:normal;text-indent:0;text-align:start;text-decoration:none;text-decoration-line:none;text-decoration-style:solid;text-decoration-color:#000000;letter-spacing:normal;word-spacing:normal;text-transform:none;writing-mode:lr-tb;direction:ltr;text-orientation:mixed;dominant-baseline:auto;baseline-shift:baseline;text-anchor:start;white-space:normal;shape-padding:0;shape-margin:0;inline-size:0;clip-rule:nonzero;display:inline;overflow:visible;visibility:visible;opacity:0.2;isolation:auto;mix-blend-mode:normal;color-interpolation:sRGB;color-interpolation-filters:linearRGB;solid-color:#000000;solid-opacity:1;vector-effect:none;fill:#000000;fill-opacity:1;fill-rule:nonzero;stroke:none;stroke-width:0.0312034px;stroke-linecap:butt;stroke-linejoin:miter;stroke-miterlimit:4;stroke-dasharray:none;stroke-dashoffset:0;stroke-opacity:1;paint-order:stroke markers fill;color-rendering:auto;image-rendering:auto;shape-rendering:auto;text-rendering:auto;enable-background:accumulate;stop-color:#000000"
           d="m 445.10963,873.68575 -0.29724,5.5e-4 v 7.71575 h -0.19093 -7.34063 v 0.25237 h 7.8288 z"
           id="path9852" />
        <path
           style="color:#000000;font-style:normal;font-variant:normal;font-weight:normal;font-stretch:normal;font-size:medium;line-height:normal;font-family:sans-serif;font-variant-ligatures:normal;font-variant-position:normal;font-variant-caps:normal;font-variant-numeric:normal;font-variant-alternates:normal;font-variant-east-asian:normal;font-feature-settings:normal;font-variation-settings:normal;text-indent:0;text-align:start;text-decoration:none;text-decoration-line:none;text-decoration-style:solid;text-decoration-color:#000000;letter-spacing:normal;word-spacing:normal;text-transform:none;writing-mode:lr-tb;direction:ltr;text-orientation:mixed;dominant-baseline:auto;baseline-shift:baseline;text-anchor:start;white-space:normal;shape-padding:0;shape-margin:0;inline-size:0;clip-rule:nonzero;display:inline;overflow:visible;visibility:visible;opacity:0.7;isolation:auto;mix-blend-mode:normal;color-interpolation:sRGB;color-interpolation-filters:linearRGB;solid-color:#000000;solid-opacity:1;vector-effect:none;fill:#ffffff;fill-opacity:1;fill-rule:nonzero;stroke:none;stroke-width:0.139726;stroke-linecap:butt;stroke-linejoin:miter;stroke-miterlimit:4;stroke-dasharray:none;stroke-dashoffset:0;stroke-opacity:1;paint-order:stroke markers fill;color-rendering:auto;image-rendering:auto;shape-rendering:auto;text-rendering:auto;enable-background:accumulate;stop-color:#000000"
           d="m 436.8711,873.33613 v 7.89023 h 0.0155 7.73488 0.0154 v -7.89023 z"
           id="path9816" />
        <path
           id="path9789"
           style="color:#000000;font-style:normal;font-variant:normal;font-weight:normal;font-stretch:normal;font-size:medium;line-height:normal;font-family:sans-serif;font-variant-ligatures:normal;font-variant-position:normal;font-variant-caps:normal;font-variant-numeric:normal;font-variant-alternates:normal;font-variant-east-asian:normal;font-feature-settings:normal;font-variation-settings:normal;text-indent:0;text-align:start;text-decoration:none;text-decoration-line:none;text-decoration-style:solid;text-decoration-color:#000000;letter-spacing:normal;word-spacing:normal;text-transform:none;writing-mode:lr-tb;direction:ltr;text-orientation:mixed;dominant-baseline:auto;baseline-shift:baseline;text-anchor:start;white-space:normal;shape-padding:0;shape-margin:0;inline-size:0;clip-rule:nonzero;display:inline;overflow:visible;visibility:visible;opacity:0.4;isolation:auto;mix-blend-mode:normal;color-interpolation:sRGB;color-interpolation-filters:linearRGB;solid-color:#000000;solid-opacity:1;vector-effect:none;fill:#000000;fill-opacity:1;fill-rule:nonzero;stroke:none;stroke-width:0.082192;stroke-linecap:butt;stroke-linejoin:miter;stroke-miterlimit:4;stroke-dasharray:none;stroke-dashoffset:0;stroke-opacity:1;paint-order:stroke markers fill;color-rendering:auto;image-rendering:auto;shape-rendering:auto;text-rendering:auto;enable-background:accumulate;stop-color:#000000"
           d="m 437.18222,873.70755 v 0.10342 7.02362 h 0.1171 6.9094 0.11667 v -7.12704 z m 0.10353,0.10321 h 6.93643 v 6.92051 h -0.0135 -6.9094 -0.0136 z" />
        <path
           id="path9791"
           style="color:#000000;font-style:normal;font-variant:normal;font-weight:normal;font-stretch:normal;font-size:medium;line-height:normal;font-family:sans-serif;font-variant-ligatures:normal;font-variant-position:normal;font-variant-caps:normal;font-variant-numeric:normal;font-variant-alternates:normal;font-variant-east-asian:normal;font-feature-settings:normal;font-variation-settings:normal;text-indent:0;text-align:start;text-decoration:none;text-decoration-line:none;text-decoration-style:solid;text-decoration-color:#000000;letter-spacing:normal;word-spacing:normal;text-transform:none;writing-mode:lr-tb;direction:ltr;text-orientation:mixed;dominant-baseline:auto;baseline-shift:baseline;text-anchor:start;white-space:normal;shape-padding:0;shape-margin:0;inline-size:0;clip-rule:nonzero;display:inline;overflow:visible;visibility:visible;opacity:0.2;isolation:auto;mix-blend-mode:normal;color-interpolation:sRGB;color-interpolation-filters:linearRGB;solid-color:#000000;solid-opacity:1;vector-effect:none;fill:#000000;fill-opacity:1;fill-rule:nonzero;stroke:none;stroke-width:0.082192;stroke-linecap:butt;stroke-linejoin:miter;stroke-miterlimit:4;stroke-dasharray:none;stroke-dashoffset:0;stroke-opacity:1;paint-order:stroke markers fill;color-rendering:auto;image-rendering:auto;shape-rendering:auto;text-rendering:auto;enable-background:accumulate;stop-color:#000000"
           d="m 437.28575,873.81076 v 6.92051 h 0.0136 6.9094 0.0135 v -6.92051 z m 4.60135,1.26653 a 1.2875985,1.2875985 0 0 1 0.0219,0 1.2875985,1.2875985 0 0 1 0.002,0 1.2875985,1.2875985 0 0 1 0.0219,0 1.2875985,1.2875985 0 0 1 0.0219,6.2e-4 1.2875985,1.2875985 0 0 1 0.022,10e-4 1.2875985,1.2875985 0 0 1 0.0219,0.001 1.2875985,1.2875985 0 0 1 0.0219,0.002 1.2875985,1.2875985 0 0 1 0.0219,0.002 1.2875985,1.2875985 0 0 1 0.0218,0.002 1.2875985,1.2875985 0 0 1 0.0218,0.003 1.2875985,1.2875985 0 0 1 0.0217,0.003 1.2875985,1.2875985 0 0 1 0.0217,0.003 1.2875985,1.2875985 0 0 1 0.0217,0.004 1.2875985,1.2875985 0 0 1 0.0215,0.004 1.2875985,1.2875985 0 0 1 0.0215,0.005 1.2875985,1.2875985 0 0 1 0.0214,0.005 1.2875985,1.2875985 0 0 1 0.0214,0.005 1.2875985,1.2875985 0 0 1 0.0212,0.006 1.2875985,1.2875985 0 0 1 0.0211,0.006 1.2875985,1.2875985 0 0 1 0.0209,0.007 1.2875985,1.2875985 0 0 1 0.0208,0.007 1.2875985,1.2875985 0 0 1 0.0208,0.007 1.2875985,1.2875985 0 0 1 0.0206,0.007 1.2875985,1.2875985 0 0 1 0.0204,0.008 1.2875985,1.2875985 0 0 1 0.0204,0.008 1.2875985,1.2875985 0 0 1 0.0202,0.009 1.2875985,1.2875985 0 0 1 0.0201,0.009 1.2875985,1.2875985 0 0 1 0.02,0.009 1.2875985,1.2875985 0 0 1 0.0198,0.01 1.2875985,1.2875985 0 0 1 0.0196,0.01 1.2875985,1.2875985 0 0 1 0.0195,0.0103 1.2875985,1.2875985 0 0 1 0.0192,0.0107 1.2875985,1.2875985 0 0 1 0.0191,0.0109 1.2875985,1.2875985 0 0 1 0.0188,0.0112 1.2875985,1.2875985 0 0 1 0.0187,0.0115 1.2875985,1.2875985 0 0 1 0.0185,0.0119 1.2875985,1.2875985 0 0 1 0.0183,0.0123 1.2875985,1.2875985 0 0 1 0.018,0.0125 1.2875985,1.2875985 0 0 1 0.0178,0.0128 1.2875985,1.2875985 0 0 1 0.0176,0.013 1.2875985,1.2875985 0 0 1 0.0174,0.0135 1.2875985,1.2875985 0 0 1 0.0171,0.0137 1.2875985,1.2875985 0 0 1 0.0169,0.0141 1.2875985,1.2875985 0 0 1 0.0168,0.0143 1.2875985,1.2875985 0 0 1 0.0164,0.0144 1.2875985,1.2875985 0 0 1 0.0163,0.0149 1.2875985,1.2875985 0 0 1 0.016,0.0151 1.2875985,1.2875985 0 0 1 0.0156,0.0154 1.2875985,1.2875985 0 0 1 0.0154,0.0157 1.2875985,1.2875985 0 0 1 0.0152,0.0158 1.2875985,1.2875985 0 0 1 0.0149,0.0162 1.2875985,1.2875985 0 0 1 0.0146,0.0164 1.2875985,1.2875985 0 0 1 0.0143,0.0167 1.2875985,1.2875985 0 0 1 0.014,0.017 1.2875985,1.2875985 0 0 1 0.0137,0.0171 1.2875985,1.2875985 0 0 1 0.0135,0.0174 1.2875985,1.2875985 0 0 1 0.0131,0.0175 1.2875985,1.2875985 0 0 1 0.0128,0.0179 1.2875985,1.2875985 0 0 1 0.0126,0.0181 1.2875985,1.2875985 0 0 1 0.0122,0.0182 1.2875985,1.2875985 0 0 1 0.012,0.0185 1.2875985,1.2875985 0 0 1 0.0115,0.0187 1.2875985,1.2875985 0 0 1 0.0113,0.0188 1.2875985,1.2875985 0 0 1 0.011,0.019 1.2875985,1.2875985 0 0 1 0.0106,0.0192 1.2875985,1.2875985 0 0 1 0.0102,0.0195 1.2875985,1.2875985 0 0 1 0.01,0.0197 1.2875985,1.2875985 0 0 1 0.01,0.0197 1.2875985,1.2875985 0 0 1 0.009,0.02 1.2875985,1.2875985 0 0 1 0.009,0.02 1.2875985,1.2875985 0 0 1 0.009,0.0202 1.2875985,1.2875985 0 0 1 0.008,0.0204 1.2875985,1.2875985 0 0 1 0.008,0.0205 1.2875985,1.2875985 0 0 1 0.008,0.0206 1.2875985,1.2875985 0 0 1 0.007,0.0206 1.2875985,1.2875985 0 0 1 0.007,0.0209 1.2875985,1.2875985 0 0 1 0.007,0.0211 1.2875985,1.2875985 0 0 1 0.006,0.021 1.2875985,1.2875985 0 0 1 0.006,0.0212 1.2875985,1.2875985 0 0 1 0.005,0.0213 1.2875985,1.2875985 0 0 1 0.005,0.0215 1.2875985,1.2875985 0 0 1 0.005,0.0214 1.2875985,1.2875985 0 0 1 0.004,0.0216 1.2875985,1.2875985 0 0 1 0.004,0.0216 1.2875985,1.2875985 0 0 1 0.004,0.0217 1.2875985,1.2875985 0 0 1 0.003,0.0217 1.2875985,1.2875985 0 0 1 0.003,0.0218 1.2875985,1.2875985 0 0 1 0.002,0.0219 1.2875985,1.2875985 0 0 1 0.002,0.0218 1.2875985,1.2875985 0 0 1 0.002,0.0219 1.2875985,1.2875985 0 0 1 10e-4,0.0219 1.2875985,1.2875985 0 0 1 0.001,0.0219 1.2875985,1.2875985 0 0 1 6.2e-4,0.022 1.2875985,1.2875985 0 0 1 2.1e-4,0.022 1.2875985,1.2875985 0 0 1 0,0.002 1.2875985,1.2875985 0 0 1 -2.1e-4,0.022 1.2875985,1.2875985 0 0 1 -6.2e-4,0.0219 1.2875985,1.2875985 0 0 1 -0.001,0.0219 1.2875985,1.2875985 0 0 1 -10e-4,0.022 1.2875985,1.2875985 0 0 1 -0.002,0.0218 1.2875985,1.2875985 0 0 1 -0.002,0.0219 1.2875985,1.2875985 0 0 1 -0.002,0.0219 1.2875985,1.2875985 0 0 1 -0.003,0.0217 1.2875985,1.2875985 0 0 1 -0.003,0.0218 1.2875985,1.2875985 0 0 1 -0.004,0.0217 1.2875985,1.2875985 0 0 1 -0.004,0.0216 1.2875985,1.2875985 0 0 1 -0.004,0.0216 1.2875985,1.2875985 0 0 1 -0.005,0.0214 1.2875985,1.2875985 0 0 1 -0.005,0.0215 1.2875985,1.2875985 0 0 1 -0.005,0.0213 1.2875985,1.2875985 0 0 1 -0.006,0.0212 1.2875985,1.2875985 0 0 1 -0.006,0.0212 1.2875985,1.2875985 0 0 1 -0.006,0.0209 1.2875985,1.2875985 0 0 1 -0.007,0.0209 1.2875985,1.2875985 0 0 1 -0.007,0.0207 1.2875985,1.2875985 0 0 1 -0.007,0.0206 1.2875985,1.2875985 0 0 1 -0.008,0.0205 1.2875985,1.2875985 0 0 1 -0.008,0.0204 1.2875985,1.2875985 0 0 1 -0.008,0.0202 1.2875985,1.2875985 0 0 1 -0.009,0.0201 1.2875985,1.2875985 0 0 1 -0.009,0.02 1.2875985,1.2875985 0 0 1 -0.01,0.0198 1.2875985,1.2875985 0 0 1 -0.01,0.0196 1.2875985,1.2875985 0 0 1 -0.0103,0.0193 1.2875985,1.2875985 0 0 1 -0.0106,0.0192 1.2875985,1.2875985 0 0 1 -0.0109,0.0191 1.2875985,1.2875985 0 0 1 -0.0112,0.0188 1.2875985,1.2875985 0 0 1 -0.0115,0.0187 1.2875985,1.2875985 0 0 1 -0.012,0.0185 1.2875985,1.2875985 0 0 1 -0.0122,0.0183 1.2875985,1.2875985 0 0 1 -0.0125,0.0181 1.2875985,1.2875985 0 0 1 -0.0128,0.0178 1.2875985,1.2875985 0 0 1 -0.0131,0.0176 1.2875985,1.2875985 0 0 1 -0.0134,0.0174 1.2875985,1.2875985 0 0 1 -0.0138,0.0171 1.2875985,1.2875985 0 0 1 -0.014,0.017 1.2875985,1.2875985 0 0 1 -0.0142,0.0167 1.2875985,1.2875985 0 0 1 -0.0146,0.0165 1.2875985,1.2875985 0 0 1 -0.0147,0.0163 1.2875985,1.2875985 0 0 1 -0.0152,0.0159 1.2875985,1.2875985 0 0 1 -0.0154,0.0157 1.2875985,1.2875985 0 0 1 -0.0157,0.0154 1.2875985,1.2875985 0 0 1 -0.0159,0.0151 1.2875985,1.2875985 0 0 1 -0.0161,0.0149 1.2875985,1.2875985 0 0 1 -0.0165,0.0146 1.2875985,1.2875985 0 0 1 -0.005,0.004 l -0.59042,-0.5978 -0.05,0.0507 -0.67013,0.67846 -0.78509,-0.80988 a 1.2875985,1.2875985 0 0 1 -0.002,-0.0105 1.2875985,1.2875985 0 0 1 -0.005,-0.0216 1.2875985,1.2875985 0 0 1 -0.004,-0.0215 1.2875985,1.2875985 0 0 1 -0.004,-0.0217 1.2875985,1.2875985 0 0 1 -0.004,-0.0216 1.2875985,1.2875985 0 0 1 -0.003,-0.0217 1.2875985,1.2875985 0 0 1 -0.003,-0.0218 1.2875985,1.2875985 0 0 1 -0.002,-0.0218 1.2875985,1.2875985 0 0 1 -0.002,-0.0219 1.2875985,1.2875985 0 0 1 -0.002,-0.0219 1.2875985,1.2875985 0 0 1 -10e-4,-0.0219 1.2875985,1.2875985 0 0 1 -0.001,-0.022 1.2875985,1.2875985 0 0 1 -6.2e-4,-0.0219 1.2875985,1.2875985 0 0 1 -2.1e-4,-0.0219 1.2875985,1.2875985 0 0 1 0,-0.002 1.2875985,1.2875985 0 0 1 2.1e-4,-0.022 1.2875985,1.2875985 0 0 1 6.2e-4,-0.0219 1.2875985,1.2875985 0 0 1 0.001,-0.022 1.2875985,1.2875985 0 0 1 10e-4,-0.0219 1.2875985,1.2875985 0 0 1 0.002,-0.0218 1.2875985,1.2875985 0 0 1 0.002,-0.022 1.2875985,1.2875985 0 0 1 0.002,-0.0218 1.2875985,1.2875985 0 0 1 0.003,-0.0217 1.2875985,1.2875985 0 0 1 0.003,-0.0218 1.2875985,1.2875985 0 0 1 0.004,-0.0217 1.2875985,1.2875985 0 0 1 0.004,-0.0216 1.2875985,1.2875985 0 0 1 0.004,-0.0216 1.2875985,1.2875985 0 0 1 0.005,-0.0215 1.2875985,1.2875985 0 0 1 0.005,-0.0214 1.2875985,1.2875985 0 0 1 0.005,-0.0213 1.2875985,1.2875985 0 0 1 0.006,-0.0212 1.2875985,1.2875985 0 0 1 0.006,-0.0212 1.2875985,1.2875985 0 0 1 0.006,-0.021 1.2875985,1.2875985 0 0 1 0.007,-0.0208 1.2875985,1.2875985 0 0 1 0.007,-0.0207 1.2875985,1.2875985 0 0 1 0.008,-0.0207 1.2875985,1.2875985 0 0 1 0.008,-0.0204 1.2875985,1.2875985 0 0 1 0.008,-0.0204 1.2875985,1.2875985 0 0 1 0.009,-0.0202 1.2875985,1.2875985 0 0 1 0.009,-0.0201 1.2875985,1.2875985 0 0 1 0.009,-0.0199 1.2875985,1.2875985 0 0 1 0.01,-0.0198 1.2875985,1.2875985 0 0 1 0.01,-0.0197 1.2875985,1.2875985 0 0 1 0.0104,-0.0194 1.2875985,1.2875985 0 0 1 0.0105,-0.0192 1.2875985,1.2875985 0 0 1 0.0109,-0.019 1.2875985,1.2875985 0 0 1 0.0113,-0.019 1.2875985,1.2875985 0 0 1 0.0115,-0.0186 1.2875985,1.2875985 0 0 1 0.012,-0.0185 1.2875985,1.2875985 0 0 1 0.0121,-0.0183 1.2875985,1.2875985 0 0 1 0.0125,-0.0181 1.2875985,1.2875985 0 0 1 0.0129,-0.0178 1.2875985,1.2875985 0 0 1 0.0131,-0.0176 1.2875985,1.2875985 0 0 1 0.0134,-0.0173 1.2875985,1.2875985 0 0 1 0.0137,-0.0172 1.2875985,1.2875985 0 0 1 0.014,-0.017 1.2875985,1.2875985 0 0 1 0.0143,-0.0167 1.2875985,1.2875985 0 0 1 0.0146,-0.0165 1.2875985,1.2875985 0 0 1 0.0147,-0.0161 1.2875985,1.2875985 0 0 1 0.0152,-0.0159 1.2875985,1.2875985 0 0 1 0.0154,-0.0158 1.2875985,1.2875985 0 0 1 0.0156,-0.0154 1.2875985,1.2875985 0 0 1 0.0159,-0.0152 1.2875985,1.2875985 0 0 1 0.0162,-0.0149 1.2875985,1.2875985 0 0 1 0.0165,-0.0146 1.2875985,1.2875985 0 0 1 0.0167,-0.0142 1.2875985,1.2875985 0 0 1 0.0169,-0.014 1.2875985,1.2875985 0 0 1 0.0171,-0.0138 1.2875985,1.2875985 0 0 1 0.0174,-0.0135 1.2875985,1.2875985 0 0 1 0.0176,-0.0131 1.2875985,1.2875985 0 0 1 0.0177,-0.0128 1.2875985,1.2875985 0 0 1 0.0181,-0.0126 1.2875985,1.2875985 0 0 1 0.0183,-0.0122 1.2875985,1.2875985 0 0 1 0.0185,-0.0119 1.2875985,1.2875985 0 0 1 0.0186,-0.0116 1.2875985,1.2875985 0 0 1 0.0188,-0.0112 1.2875985,1.2875985 0 0 1 0.0191,-0.011 1.2875985,1.2875985 0 0 1 0.0192,-0.0106 1.2875985,1.2875985 0 0 1 0.0195,-0.0103 1.2875985,1.2875985 0 0 1 0.0196,-0.01 1.2875985,1.2875985 0 0 1 0.0198,-0.01 1.2875985,1.2875985 0 0 1 0.0199,-0.009 1.2875985,1.2875985 0 0 1 0.0201,-0.009 1.2875985,1.2875985 0 0 1 0.0202,-0.009 1.2875985,1.2875985 0 0 1 0.0204,-0.008 1.2875985,1.2875985 0 0 1 0.0204,-0.008 1.2875985,1.2875985 0 0 1 0.0206,-0.008 1.2875985,1.2875985 0 0 1 0.0208,-0.007 1.2875985,1.2875985 0 0 1 0.0207,-0.007 1.2875985,1.2875985 0 0 1 0.0211,-0.007 1.2875985,1.2875985 0 0 1 0.0211,-0.006 1.2875985,1.2875985 0 0 1 0.0212,-0.006 1.2875985,1.2875985 0 0 1 0.0213,-0.005 1.2875985,1.2875985 0 0 1 0.0214,-0.005 1.2875985,1.2875985 0 0 1 0.0215,-0.005 1.2875985,1.2875985 0 0 1 0.0215,-0.004 1.2875985,1.2875985 0 0 1 0.0217,-0.004 1.2875985,1.2875985 0 0 1 0.0217,-0.003 1.2875985,1.2875985 0 0 1 0.0216,-0.003 1.2875985,1.2875985 0 0 1 0.0219,-0.003 1.2875985,1.2875985 0 0 1 0.0218,-0.002 1.2875985,1.2875985 0 0 1 0.0219,-0.002 1.2875985,1.2875985 0 0 1 0.0219,-0.002 1.2875985,1.2875985 0 0 1 0.0219,-10e-4 1.2875985,1.2875985 0 0 1 0.022,-10e-4 1.2875985,1.2875985 0 0 1 0.0219,-6.2e-4 z m -1.87234,1.12165 0.27855,0.28752 0.164,0.16913 0.33357,0.34393 0.4512,0.46542 0.10215,0.10524 -0.11219,0.11358 -0.10279,0.10406 -0.79716,0.80721 h -2.64065 z m 2.148,0.74214 0.47845,0.48433 0.13879,0.1405 0.0995,0.10075 0.90038,0.91159 h -1.26247 -0.19585 -1.77564 l 0.71607,-0.72514 0.10631,-0.1076 0.0737,-0.0746 0.0783,-0.0793 0.0205,-0.0207 z" />
        <path
           id="path9814"
           style="color:#000000;font-style:normal;font-variant:normal;font-weight:normal;font-stretch:normal;font-size:medium;line-height:normal;font-family:sans-serif;font-variant-ligatures:normal;font-variant-position:normal;font-variant-caps:normal;font-variant-numeric:normal;font-variant-alternates:normal;font-variant-east-asian:normal;font-feature-settings:normal;font-variation-settings:normal;text-indent:0;text-align:start;text-decoration:none;text-decoration-line:none;text-decoration-style:solid;text-decoration-color:#000000;letter-spacing:normal;word-spacing:normal;text-transform:none;writing-mode:lr-tb;direction:ltr;text-orientation:mixed;dominant-baseline:auto;baseline-shift:baseline;text-anchor:start;white-space:normal;shape-padding:0;shape-margin:0;inline-size:0;clip-rule:nonzero;display:inline;overflow:visible;visibility:visible;opacity:0.4;isolation:auto;mix-blend-mode:normal;color-interpolation:sRGB;color-interpolation-filters:linearRGB;solid-color:#000000;solid-opacity:1;vector-effect:none;fill:#000000;fill-opacity:1;fill-rule:nonzero;stroke:none;stroke-width:0.139726;stroke-linecap:butt;stroke-linejoin:miter;stroke-miterlimit:4;stroke-dasharray:none;stroke-dashoffset:0;stroke-opacity:1;paint-order:stroke markers fill;color-rendering:auto;image-rendering:auto;shape-rendering:auto;text-rendering:auto;enable-background:accumulate;stop-color:#000000"
           d="m 436.69522,873.1604 v 0.17565 8.06588 h 0.19146 7.73478 0.19093 v -8.24153 z m 0.17587,0.17575 h 7.76575 v 7.89024 h -0.0154 -7.73488 -0.0155 z" />
      </g>
    </g>
  </g>
</svg>
