<?xml version="1.0" encoding="UTF-8" standalone="no"?>
<svg
   xmlns:dc="http://purl.org/dc/elements/1.1/"
   xmlns:cc="http://creativecommons.org/ns#"
   xmlns:rdf="http://www.w3.org/1999/02/22-rdf-syntax-ns#"
   xmlns:svg="http://www.w3.org/2000/svg"
   xmlns="http://www.w3.org/2000/svg"
   xmlns:sodipodi="http://sodipodi.sourceforge.net/DTD/sodipodi-0.dtd"
   xmlns:inkscape="http://www.inkscape.org/namespaces/inkscape"
   width="100"
   height="100"
   viewBox="0 0 26.458334 26.458334"
   version="1.1"
   id="svg10012"
   inkscape:version="1.0.1 (1.0.1+r74)"
   sodipodi:docname="template_desktop_landscape.svg">
  <defs
     id="defs10006" />
  <sodipodi:namedview
     id="base"
     pagecolor="#ffffff"
     bordercolor="#666666"
     borderopacity="1.0"
     inkscape:pageopacity="0.0"
     inkscape:pageshadow="2"
     inkscape:zoom="0.98994949"
     inkscape:cx="234.17695"
     inkscape:cy="293.4747"
     inkscape:document-units="px"
     inkscape:current-layer="g2789"
     inkscape:document-rotation="0"
     showgrid="false"
     units="px"
     inkscape:window-width="1534"
     inkscape:window-height="843"
     inkscape:window-x="66"
     inkscape:window-y="20"
     inkscape:window-maximized="1" />
  <metadata
     id="metadata10009">
    <rdf:RDF>
      <cc:Work
         rdf:about="">
        <dc:format>image/svg+xml</dc:format>
        <dc:type
           rdf:resource="http://purl.org/dc/dcmitype/StillImage" />
        <dc:title></dc:title>
      </cc:Work>
    </rdf:RDF>
  </metadata>
  <g
     inkscape:label="Layer 1"
     inkscape:groupmode="layer"
     id="layer1"
     transform="translate(-72.443085,-59.353406)">
    <g
       id="g2789"
       style="display:inline;stroke-width:0.397531"
       transform="matrix(2.5155261,0,0,2.5155261,-1047.0197,-428.33444)">
      <g
         id="g20"
         transform="matrix(0.2006328,0,0,0.2006328,355.73546,155.82931)">
        <path
           id="path2301"
           style="color:#000000;font-style:normal;font-variant:normal;font-weight:normal;font-stretch:normal;font-size:medium;line-height:normal;font-family:sans-serif;font-variant-ligatures:normal;font-variant-position:normal;font-variant-caps:normal;font-variant-numeric:normal;font-variant-alternates:normal;font-variant-east-asian:normal;font-feature-settings:normal;font-variation-settings:normal;text-indent:0;text-align:start;text-decoration:none;text-decoration-line:none;text-decoration-style:solid;text-decoration-color:#000000;letter-spacing:normal;word-spacing:normal;text-transform:none;writing-mode:lr-tb;direction:ltr;text-orientation:mixed;dominant-baseline:auto;baseline-shift:baseline;text-anchor:start;white-space:normal;shape-padding:0;shape-margin:0;inline-size:0;clip-rule:nonzero;display:inline;overflow:visible;visibility:visible;opacity:0.2;isolation:auto;mix-blend-mode:normal;color-interpolation:sRGB;color-interpolation-filters:linearRGB;solid-color:#000000;solid-opacity:1;vector-effect:none;fill:#000000;fill-opacity:1;fill-rule:nonzero;stroke:none;stroke-width:0.570401px;stroke-linecap:butt;stroke-linejoin:miter;stroke-miterlimit:4;stroke-dasharray:none;stroke-dashoffset:0;stroke-opacity:1;paint-order:stroke markers fill;color-rendering:auto;image-rendering:auto;shape-rendering:auto;text-rendering:auto;enable-background:accumulate;stop-color:#000000"
           d="m 727.20898,1066.252 c 1.0546,1.7527 1.67383,3.7923 1.67383,5.9726 v 129.5449 c 0,6.4147 -5.26312,11.6778 -11.67773,11.6778 H 547.6875 c -1.68497,0 -3.28655,-0.3698 -4.73828,-1.0215 2.04925,3.4023 5.76872,5.7031 10,5.7031 H 722.4668 c 6.41469,0 11.67968,-5.2709 11.67968,-11.6855 v -129.5391 c 0,-4.7281 -2.86513,-8.8218 -6.9375,-10.6523 z"
           transform="matrix(0.26458333,0,0,0.26458333,303.2026,-86.731924)"
           sodipodi:nodetypes="csssscssssc" />
        <path
           id="path4258"
           style="font-variation-settings:normal;vector-effect:none;fill:#999999;fill-opacity:1;stroke:none;stroke-width:0.397531;stroke-linecap:butt;stroke-linejoin:miter;stroke-miterlimit:4;stroke-dasharray:none;stroke-dashoffset:0;stroke-opacity:1;paint-order:stroke markers fill;stop-color:#000000"
           d="m 464.81547,234.326 c -0.58012,1.12177 -1.71918,1.84442 -2.98121,1.89135 -0.39691,0.11099 -0.6811,0.40322 -0.6811,0.75189 0,0.44429 -0.14509,0.80203 0.45682,0.80203 h 6.78874 4.27829 6.78873 c 0.60191,0 0.45682,-0.35774 0.45682,-0.80203 0,-0.34867 -0.2842,-0.6409 -0.6811,-0.75189 -1.26184,-0.0471 -2.40066,-0.76974 -2.98069,-1.89135 z"
           sodipodi:nodetypes="ccssccssccc" />
        <path
           id="path2405"
           style="color:#000000;font-style:normal;font-variant:normal;font-weight:normal;font-stretch:normal;font-size:medium;line-height:normal;font-family:sans-serif;font-variant-ligatures:normal;font-variant-position:normal;font-variant-caps:normal;font-variant-numeric:normal;font-variant-alternates:normal;font-variant-east-asian:normal;font-feature-settings:normal;font-variation-settings:normal;text-indent:0;text-align:start;text-decoration:none;text-decoration-line:none;text-decoration-style:solid;text-decoration-color:#000000;letter-spacing:normal;word-spacing:normal;text-transform:none;writing-mode:lr-tb;direction:ltr;text-orientation:mixed;dominant-baseline:auto;baseline-shift:baseline;text-anchor:start;white-space:normal;shape-padding:0;shape-margin:0;inline-size:0;clip-rule:nonzero;display:inline;overflow:visible;visibility:visible;opacity:0.4;isolation:auto;mix-blend-mode:normal;color-interpolation:sRGB;color-interpolation-filters:linearRGB;solid-color:#000000;solid-opacity:1;vector-effect:none;fill:#000000;fill-opacity:1;fill-rule:nonzero;stroke:none;stroke-width:0.675803;stroke-linecap:butt;stroke-linejoin:miter;stroke-miterlimit:4;stroke-dasharray:none;stroke-dashoffset:0;stroke-opacity:1;paint-order:stroke markers fill;color-rendering:auto;image-rendering:auto;shape-rendering:auto;text-rendering:auto;enable-background:accumulate;stop-color:#000000"
           d="m 448.11158,193.87111 c -1.69722,0 -3.09025,1.39252 -3.09025,3.08972 v 34.27542 c 0,1.69722 1.39303,3.08975 3.09025,3.08975 h 44.85153 c 1.6972,0 3.08973,-1.39253 3.08973,-3.08975 v -34.27542 c 0,-1.6972 -1.39253,-3.08972 -3.08973,-3.08972 z m 5.3e-4,0.84955 h 44.85153 c 1.241,0 2.24017,0.99917 2.24017,2.24017 v 34.27439 c 0,1.24103 -0.99917,2.24017 -2.24017,2.24017 H 448.1121 c -1.24103,0 -2.24017,-0.99914 -2.24017,-2.24017 v -34.27439 c 0,-1.241 0.99914,-2.24017 2.24017,-2.24017 z" />
        <path
           style="color:#000000;font-style:normal;font-variant:normal;font-weight:normal;font-stretch:normal;font-size:medium;line-height:normal;font-family:sans-serif;font-variant-ligatures:normal;font-variant-position:normal;font-variant-caps:normal;font-variant-numeric:normal;font-variant-alternates:normal;font-variant-east-asian:normal;font-feature-settings:normal;font-variation-settings:normal;text-indent:0;text-align:start;text-decoration:none;text-decoration-line:none;text-decoration-style:solid;text-decoration-color:#000000;letter-spacing:normal;word-spacing:normal;text-transform:none;writing-mode:lr-tb;direction:ltr;text-orientation:mixed;dominant-baseline:auto;baseline-shift:baseline;text-anchor:start;white-space:normal;shape-padding:0;shape-margin:0;inline-size:0;clip-rule:nonzero;display:inline;overflow:visible;visibility:visible;opacity:0.7;isolation:auto;mix-blend-mode:normal;color-interpolation:sRGB;color-interpolation-filters:linearRGB;solid-color:#000000;solid-opacity:1;vector-effect:none;fill:#ffffff;fill-opacity:1;fill-rule:nonzero;stroke:none;stroke-width:0.675803;stroke-linecap:butt;stroke-linejoin:miter;stroke-miterlimit:4;stroke-dasharray:none;stroke-dashoffset:0;stroke-opacity:1;paint-order:stroke markers fill;color-rendering:auto;image-rendering:auto;shape-rendering:auto;text-rendering:auto;enable-background:accumulate;stop-color:#000000"
           d="m 448.11212,194.72083 h 44.85149 c 1.241,0 2.24009,0.99908 2.24009,2.24009 v 34.27452 c 0,1.24101 -0.99909,2.24009 -2.24009,2.24009 h -44.85149 c -1.24103,0 -2.24011,-0.99908 -2.24011,-2.24009 v -34.27452 c 0,-1.24101 0.99908,-2.24009 2.24011,-2.24009 z"
           id="path2407" />
        <path
           id="path2444"
           style="color:#000000;font-style:normal;font-variant:normal;font-weight:normal;font-stretch:normal;font-size:medium;line-height:normal;font-family:sans-serif;font-variant-ligatures:normal;font-variant-position:normal;font-variant-caps:normal;font-variant-numeric:normal;font-variant-alternates:normal;font-variant-east-asian:normal;font-feature-settings:normal;font-variation-settings:normal;text-indent:0;text-align:start;text-decoration:none;text-decoration-line:none;text-decoration-style:solid;text-decoration-color:#000000;letter-spacing:normal;word-spacing:normal;text-transform:none;writing-mode:lr-tb;direction:ltr;text-orientation:mixed;dominant-baseline:auto;baseline-shift:baseline;text-anchor:start;white-space:normal;shape-padding:0;shape-margin:0;inline-size:0;clip-rule:nonzero;display:inline;overflow:visible;visibility:visible;opacity:0.4;isolation:auto;mix-blend-mode:normal;color-interpolation:sRGB;color-interpolation-filters:linearRGB;solid-color:#000000;solid-opacity:1;vector-effect:none;fill:#000000;fill-opacity:1;fill-rule:nonzero;stroke:none;stroke-width:0.397531;stroke-linecap:butt;stroke-linejoin:miter;stroke-miterlimit:4;stroke-dasharray:none;stroke-dashoffset:0;stroke-opacity:1;paint-order:stroke markers fill;color-rendering:auto;image-rendering:auto;shape-rendering:auto;text-rendering:auto;enable-background:accumulate;stop-color:#000000"
           d="m 448.36118,196.77946 c -0.83804,0 -1.52911,0.68897 -1.52911,1.52702 v 31.58206 c 0,0.83805 0.69107,1.52961 1.52911,1.52961 h 44.35388 c 0.83804,0 1.52911,-0.69156 1.52911,-1.52961 v -31.58206 c 0,-0.83802 -0.69107,-1.52702 -1.52911,-1.52702 z m -5.3e-4,0.49969 h 44.3544 c 0.56968,0 1.02836,0.45868 1.02836,1.02838 v 31.58152 c 0,0.5697 -0.45868,1.02838 -1.02836,1.02838 h -44.35439 c -0.56969,0 -1.02836,-0.45868 -1.02836,-1.02838 v -31.58152 c 0,-0.5697 0.45867,-1.02838 1.02836,-1.02838 z" />
        <path
           id="path2447"
           style="color:#000000;font-style:normal;font-variant:normal;font-weight:normal;font-stretch:normal;font-size:medium;line-height:normal;font-family:sans-serif;font-variant-ligatures:normal;font-variant-position:normal;font-variant-caps:normal;font-variant-numeric:normal;font-variant-alternates:normal;font-variant-east-asian:normal;font-feature-settings:normal;font-variation-settings:normal;text-indent:0;text-align:start;text-decoration:none;text-decoration-line:none;text-decoration-style:solid;text-decoration-color:#000000;letter-spacing:normal;word-spacing:normal;text-transform:none;writing-mode:lr-tb;direction:ltr;text-orientation:mixed;dominant-baseline:auto;baseline-shift:baseline;text-anchor:start;white-space:normal;shape-padding:0;shape-margin:0;inline-size:0;clip-rule:nonzero;display:inline;overflow:visible;visibility:visible;opacity:0.2;isolation:auto;mix-blend-mode:normal;color-interpolation:sRGB;color-interpolation-filters:linearRGB;solid-color:#000000;solid-opacity:1;vector-effect:none;fill:#000000;fill-opacity:1;fill-rule:nonzero;stroke:none;stroke-width:3.77953;stroke-linecap:butt;stroke-linejoin:miter;stroke-miterlimit:4;stroke-dasharray:none;stroke-dashoffset:0;stroke-opacity:1;paint-order:stroke markers fill;color-rendering:auto;image-rendering:auto;shape-rendering:auto;text-rendering:auto;enable-background:accumulate;stop-color:#000000"
           d="m 40.960938,79.964844 c -5.416328,0 -9.777344,4.361016 -9.777344,9.777344 V 390.00391 c 0,5.41623 4.361016,9.77734 9.777344,9.77734 H 462.6582 c 3.29124,0 6.18701,-1.617 7.95703,-4.0957 -2.04346,2.32494 -5.50094,3.84765 -9.43945,3.84765 H 43.279297 c -6.310984,0 -11.388672,-3.90872 -11.388672,-8.76562 V 371.83203 H 472.43555 V 89.742188 c 0,-5.416328 -4.36111,-9.777344 -9.77735,-9.777344 z m 4.75,12.455078 h 34.589843 c 3.633196,0 6.552735,2.927161 6.552735,6.560547 0,3.633481 -2.919539,6.558591 -6.552735,6.558591 H 45.710938 c -3.633292,0 -6.558594,-2.92511 -6.558594,-6.558591 0,-3.633386 2.925302,-6.560547 6.558594,-6.560547 z m 168.417972,0 h 2.63867 c 3.63329,0 6.55273,2.927161 6.55273,6.560547 0,3.633481 -2.91944,6.558591 -6.55273,6.558591 h -2.63867 c -3.63339,0 -6.55469,-2.92511 -6.55469,-6.558591 0,-3.633386 2.9213,-6.560547 6.55469,-6.560547 z m 27.06054,0 h 30.26563 c 3.63338,0 6.55859,2.927161 6.55859,6.560547 0,3.633481 -2.92521,6.558591 -6.55859,6.558591 h -30.26563 c -3.63338,0 -6.55859,-2.92511 -6.55859,-6.558591 0,-3.633386 2.92521,-6.560547 6.55859,-6.560547 z m 167.60352,0 h 2.63672 c 3.63329,0 6.55469,2.927161 6.55469,6.560547 0,3.633481 -2.9214,6.558591 -6.55469,6.558591 h -2.63672 c -3.63329,0 -6.55469,-2.92511 -6.55469,-6.558591 0,-3.633386 2.9214,-6.560547 6.55469,-6.560547 z m 21.90625,0 h 2.63867 c 3.63329,0 6.55469,2.927161 6.55469,6.560547 0,3.633481 -2.9214,6.558591 -6.55469,6.558591 h -2.63867 c -3.63329,0 -6.55274,-2.92511 -6.55274,-6.558591 0,-3.633386 2.91945,-6.560547 6.55274,-6.560547 z m 21.62305,0 h 2.15234 c 3.63339,0 6.55859,2.33425 6.55859,5.232422 v 2.654296 c 0,2.89789 -2.9252,5.23223 -6.55859,5.23242 h -2.15234 c -3.63339,0 -6.5586,-2.33453 -6.5586,-5.23242 v -2.654296 c 0,-2.898172 2.92521,-5.232422 6.5586,-5.232422 z M 72.880859,133.48438 h 10.013672 c 6.765632,0 12.212891,5.44354 12.212891,12.20898 v 10.49023 c 0,6.76545 -5.447259,12.21289 -12.212891,12.21289 H 72.880859 c -6.765632,0 -12.208984,-5.44744 -12.208984,-12.21289 v -10.49023 c 0,-6.76544 5.443352,-12.20898 12.208984,-12.20898 z m 61.673831,0.16015 h 10.01367 c 6.76563,0 12.20898,5.44316 12.20898,12.20899 v 10.49023 c 0,6.76582 -5.44335,12.21484 -12.20898,12.21484 h -10.01367 c -6.76563,0 -12.20899,-5.44902 -12.20899,-12.21484 v -10.49023 c 0,-6.76583 5.44336,-12.20899 12.20899,-12.20899 z m -61.673831,61.99024 h 10.013672 c 6.765632,0 12.212891,5.44316 12.212891,12.20898 v 10.48828 c 0,6.76554 -5.447259,12.21485 -12.212891,12.21485 H 72.880859 c -6.765632,0 -12.208984,-5.44931 -12.208984,-12.21485 v -10.48828 c 0,-6.76582 5.443352,-12.20898 12.208984,-12.20898 z m 61.673831,0.16015 h 10.01367 c 6.76563,0 12.20898,5.44912 12.20898,12.21485 v 10.48828 c 0,6.76544 -5.44335,12.20898 -12.20898,12.20898 h -10.01367 c -6.76563,0 -12.20899,-5.44354 -12.20899,-12.20898 v -10.48828 c 0,-6.76573 5.44336,-12.21485 12.20899,-12.21485 z M 72.880859,257.7832 h 10.013672 c 6.765632,0 12.212891,5.44912 12.212891,12.21485 v 10.49023 c 0,6.76544 -5.447259,12.20899 -12.212891,12.20899 H 72.880859 c -6.765632,0 -12.208984,-5.44355 -12.208984,-12.20899 v -10.49023 c 0,-6.76573 5.443352,-12.21485 12.208984,-12.21485 z m -0.285156,60.32032 h 10.013672 c 6.765632,0 12.208984,5.44716 12.208984,12.21289 v 10.49023 c 0,6.76554 -5.443352,12.20898 -12.208984,12.20898 H 72.595703 c -6.765632,0 -12.208984,-5.44344 -12.208984,-12.20898 v -10.49023 c 0,-6.76573 5.443352,-12.21289 12.208984,-12.21289 z"
           transform="matrix(0.10518012,0,0,0.10518012,444.05245,188.86835)" />
      </g>
    </g>
  </g>
</svg>
