<?xml version="1.0" encoding="UTF-8" standalone="no"?>
<svg
   xmlns:dc="http://purl.org/dc/elements/1.1/"
   xmlns:cc="http://creativecommons.org/ns#"
   xmlns:rdf="http://www.w3.org/1999/02/22-rdf-syntax-ns#"
   xmlns:svg="http://www.w3.org/2000/svg"
   xmlns="http://www.w3.org/2000/svg"
   xmlns:sodipodi="http://sodipodi.sourceforge.net/DTD/sodipodi-0.dtd"
   xmlns:inkscape="http://www.inkscape.org/namespaces/inkscape"
   width="100"
   height="100"
   viewBox="0 0 26.458334 26.458334"
   version="1.1"
   id="svg10012"
   inkscape:version="1.0.1 (1.0.1+r74)"
   sodipodi:docname="template_social_portrait.svg">
  <defs
     id="defs10006" />
  <sodipodi:namedview
     id="base"
     pagecolor="#ffffff"
     bordercolor="#666666"
     borderopacity="1.0"
     inkscape:pageopacity="0.0"
     inkscape:pageshadow="2"
     inkscape:zoom="1.4"
     inkscape:cx="68.935979"
     inkscape:cy="177.87308"
     inkscape:document-units="px"
     inkscape:current-layer="g2819"
     inkscape:document-rotation="0"
     showgrid="false"
     units="px"
     inkscape:window-width="1534"
     inkscape:window-height="843"
     inkscape:window-x="66"
     inkscape:window-y="20"
     inkscape:window-maximized="1" />
  <metadata
     id="metadata10009">
    <rdf:RDF>
      <cc:Work
         rdf:about="">
        <dc:format>image/svg+xml</dc:format>
        <dc:type
           rdf:resource="http://purl.org/dc/dcmitype/StillImage" />
        <dc:title></dc:title>
      </cc:Work>
    </rdf:RDF>
  </metadata>
  <g
     inkscape:label="Layer 1"
     inkscape:groupmode="layer"
     id="layer1"
     transform="translate(-93.877204,-49.487409)">
    <g
       id="g2819"
       transform="matrix(2.5155261,0,0,2.5155261,-1030.9803,-594.72811)"
       style="display:inline;stroke-width:0.397531">
      <g
         id="g18"
         transform="matrix(0.20326922,0,0,0.20326922,357.93374,204.03936)">
        <path
           id="path2807"
           style="font-variation-settings:normal;opacity:0.2;vector-effect:none;fill:#000000;fill-opacity:1;stroke:none;stroke-width:0.570401px;stroke-linecap:butt;stroke-linejoin:miter;stroke-miterlimit:4;stroke-dasharray:none;stroke-dashoffset:0;stroke-opacity:1;paint-order:stroke markers fill;stop-color:#000000"
           d="m 677.84326,1305.6504 -5.47136,0.01 v 181.1174 H 668.87385 554.9531 v 4.5176 h 122.89016 z"
           transform="matrix(0.26458333,0,0,0.26458333,303.2026,-86.731924)"
           sodipodi:nodetypes="cccccccc" />
        <path
           id="path2809"
           style="color:#000000;font-style:normal;font-variant:normal;font-weight:normal;font-stretch:normal;font-size:medium;line-height:normal;font-family:sans-serif;font-variant-ligatures:normal;font-variant-position:normal;font-variant-caps:normal;font-variant-numeric:normal;font-variant-alternates:normal;font-variant-east-asian:normal;font-feature-settings:normal;font-variation-settings:normal;text-indent:0;text-align:start;text-decoration:none;text-decoration-line:none;text-decoration-style:solid;text-decoration-color:#000000;letter-spacing:normal;word-spacing:normal;text-transform:none;writing-mode:lr-tb;direction:ltr;text-orientation:mixed;dominant-baseline:auto;baseline-shift:baseline;text-anchor:start;white-space:normal;shape-padding:0;shape-margin:0;inline-size:0;clip-rule:nonzero;display:inline;overflow:visible;visibility:visible;opacity:0.4;isolation:auto;mix-blend-mode:normal;color-interpolation:sRGB;color-interpolation-filters:linearRGB;solid-color:#000000;solid-opacity:1;vector-effect:none;fill:#000000;fill-opacity:1;fill-rule:nonzero;stroke:none;stroke-width:2.55421;stroke-linecap:butt;stroke-linejoin:miter;stroke-miterlimit:4;stroke-dasharray:none;stroke-dashoffset:0;stroke-opacity:1;paint-order:stroke markers fill;color-rendering:auto;image-rendering:auto;shape-rendering:auto;text-rendering:auto;enable-background:accumulate;stop-color:#000000;stop-opacity:1"
           d="m 544.11328,1295.7266 v 3.2109 187.8362 h 3.5 121.26057 3.49805 v -191.0471 z m 3.2168,3.2109 h 121.82697 v 184.6253 h -0.28125 -121.26252 -0.2832 z"
           transform="matrix(0.26458333,0,0,0.26458333,303.2026,-86.731924)"
           sodipodi:nodetypes="ccccccccccccccc" />
        <path
           style="color:#000000;font-style:normal;font-variant:normal;font-weight:normal;font-stretch:normal;font-size:medium;line-height:normal;font-family:sans-serif;font-variant-ligatures:normal;font-variant-position:normal;font-variant-caps:normal;font-variant-numeric:normal;font-variant-alternates:normal;font-variant-east-asian:normal;font-feature-settings:normal;font-variation-settings:normal;text-indent:0;text-align:start;text-decoration:none;text-decoration-line:none;text-decoration-style:solid;text-decoration-color:#000000;letter-spacing:normal;word-spacing:normal;text-transform:none;writing-mode:lr-tb;direction:ltr;text-orientation:mixed;dominant-baseline:auto;baseline-shift:baseline;text-anchor:start;white-space:normal;shape-padding:0;shape-margin:0;inline-size:0;clip-rule:nonzero;display:inline;overflow:visible;visibility:visible;opacity:0.7;isolation:auto;mix-blend-mode:normal;color-interpolation:sRGB;color-interpolation-filters:linearRGB;solid-color:#000000;solid-opacity:1;vector-effect:none;fill:#ffffff;fill-opacity:1;fill-rule:nonzero;stroke:none;stroke-width:0.675803;stroke-linecap:butt;stroke-linejoin:miter;stroke-miterlimit:4;stroke-dasharray:none;stroke-dashoffset:0;stroke-opacity:1;paint-order:stroke markers fill;color-rendering:auto;image-rendering:auto;shape-rendering:auto;text-rendering:auto;enable-background:accumulate;stop-color:#000000;stop-opacity:1"
           d="m 448.01687,256.94546 v 48.84877 h 0.0749 32.08404 0.0744 v -48.84877 z"
           id="path2811"
           sodipodi:nodetypes="ccccccc" />
        <path
           id="path2813"
           style="color:#000000;font-style:normal;font-variant:normal;font-weight:normal;font-stretch:normal;font-size:medium;line-height:normal;font-family:sans-serif;font-variant-ligatures:normal;font-variant-position:normal;font-variant-caps:normal;font-variant-numeric:normal;font-variant-alternates:normal;font-variant-east-asian:normal;font-feature-settings:normal;font-variation-settings:normal;text-indent:0;text-align:start;text-decoration:none;text-decoration-line:none;text-decoration-style:solid;text-decoration-color:#000000;letter-spacing:normal;word-spacing:normal;text-transform:none;writing-mode:lr-tb;direction:ltr;text-orientation:mixed;dominant-baseline:auto;baseline-shift:baseline;text-anchor:start;white-space:normal;shape-padding:0;shape-margin:0;inline-size:0;clip-rule:nonzero;display:inline;overflow:visible;visibility:visible;opacity:0.4;isolation:auto;mix-blend-mode:normal;color-interpolation:sRGB;color-interpolation-filters:linearRGB;solid-color:#000000;solid-opacity:1;vector-effect:none;fill:#000000;fill-opacity:1;fill-rule:nonzero;stroke:none;stroke-width:1.50248;stroke-linecap:butt;stroke-linejoin:miter;stroke-miterlimit:4;stroke-dasharray:none;stroke-dashoffset:0;stroke-opacity:1;paint-order:stroke markers fill;color-rendering:auto;image-rendering:auto;shape-rendering:auto;text-rendering:auto;enable-background:accumulate;stop-color:#000000;stop-opacity:1"
           d="m 553.01562,1305.7207 v 1.8906 168.4846 h 2.14063 106.17268 2.14062 v -170.3752 z m 1.89258,1.8945 h 106.66877 v 166.592 h -0.24609 -106.17463 -0.24805 z"
           transform="matrix(0.26458333,0,0,0.26458333,303.2026,-86.731924)"
           sodipodi:nodetypes="ccccccccccccccc" />
        <path
           id="path2815"
           style="color:#000000;font-style:normal;font-variant:normal;font-weight:normal;font-stretch:normal;font-size:medium;line-height:normal;font-family:sans-serif;font-variant-ligatures:normal;font-variant-position:normal;font-variant-caps:normal;font-variant-numeric:normal;font-variant-alternates:normal;font-variant-east-asian:normal;font-feature-settings:normal;font-variation-settings:normal;text-indent:0;text-align:start;text-decoration:none;text-decoration-line:none;text-decoration-style:solid;text-decoration-color:#000000;letter-spacing:normal;word-spacing:normal;text-transform:none;writing-mode:lr-tb;direction:ltr;text-orientation:mixed;dominant-baseline:auto;baseline-shift:baseline;text-anchor:start;white-space:normal;shape-padding:0;shape-margin:0;inline-size:0;clip-rule:nonzero;display:inline;overflow:visible;visibility:visible;opacity:0.2;isolation:auto;mix-blend-mode:normal;color-interpolation:sRGB;color-interpolation-filters:linearRGB;solid-color:#000000;solid-opacity:1;vector-effect:none;fill:#000000;fill-opacity:1;fill-rule:nonzero;stroke:none;stroke-width:3.77953;stroke-linecap:butt;stroke-linejoin:miter;stroke-miterlimit:4;stroke-dasharray:none;stroke-dashoffset:0;stroke-opacity:1;paint-order:stroke markers fill;color-rendering:auto;image-rendering:auto;shape-rendering:auto;text-rendering:auto;enable-background:accumulate;stop-color:#000000;stop-opacity:1"
           d="M 117.37891,40.179688 V 459.125 h 0.625 267.08203 0.61914 V 40.179688 Z m 134.16015,99.587892 c 60.63532,0 109.89844,49.26116 109.89844,109.89648 0,60.63542 -49.26312,109.87305 -109.89844,109.87305 -60.63522,0 -109.89062,-49.23763 -109.89062,-109.87305 0,-60.63532 49.2554,-109.89648 109.89062,-109.89648 z m 0,9.51172 c -55.49699,0 -100.38476,44.88768 -100.38476,100.38476 0,55.49699 44.88777,100.36524 100.38476,100.36524 55.49709,0 100.39063,-44.86825 100.39063,-100.36524 0,-55.49708 -44.89354,-100.38476 -100.39063,-100.38476 z m 0.11328,22.73242 0.002,0.002 c 4.29482,0.19728 10.13094,3.93381 13.64843,7.91992 12.39797,14.05 -6.11795,27.04986 -1.18945,45.62305 0.0884,0.32848 0.17446,0.73452 0.26953,1.09961 h 37.83203 c 6.07606,0 10.96485,4.89103 10.96485,10.9668 0,5.19451 -3.58212,9.5156 -8.41602,10.66211 5.15944,0.89855 9.06445,5.36455 9.06445,10.78906 0,5.20887 -3.60064,9.53405 -8.45507,10.66601 2.87079,1.97367 4.75195,5.27704 4.75195,9.03907 0,6.07595 -4.89074,10.96679 -10.9668,10.96679 h -0.31445 c 1.57691,1.89875 2.56055,4.31034 2.56055,6.98243 0,6.07595 -4.89094,10.96484 -10.9668,10.96484 h -28.14844 -0.004 c -1.68473,0 -3.37105,0.28516 -5.09571,0.28516 -12.58574,0 -23.98333,-4.95637 -32.2539,-12.97461 h -25.01758 c -6.07586,0 -10.9668,-4.89475 -10.9668,-10.97071 V 242.375 c 0,-6.07605 4.89094,-10.97266 10.9668,-10.97266 h 25.40625 c 0.16163,-0.15402 0.3228,-0.3 0.48633,-0.45117 5.84549,-11.09791 21.72847,-10.55361 16.05078,-46.65625 -0.94362,-6.00227 1.72115,-10.3963 7.58984,-11.96875 0.7336,-0.1968 1.62692,-0.32396 2.20117,-0.31445 z"
           transform="matrix(0.10518012,0,0,0.10518012,437.67629,255.01502)" />
      </g>
    </g>
  </g>
</svg>
