<?xml version="1.0" encoding="UTF-8" standalone="no"?>
<svg
   xmlns:dc="http://purl.org/dc/elements/1.1/"
   xmlns:cc="http://creativecommons.org/ns#"
   xmlns:rdf="http://www.w3.org/1999/02/22-rdf-syntax-ns#"
   xmlns:svg="http://www.w3.org/2000/svg"
   xmlns="http://www.w3.org/2000/svg"
   xmlns:sodipodi="http://sodipodi.sourceforge.net/DTD/sodipodi-0.dtd"
   xmlns:inkscape="http://www.inkscape.org/namespaces/inkscape"
   width="100"
   height="100"
   viewBox="0 0 26.458334 26.458333"
   version="1.1"
   id="svg10012"
   inkscape:version="1.0.1 (1.0.1+r74)"
   sodipodi:docname="template_print_A4_landscape.svg">
  <defs
     id="defs10006" />
  <sodipodi:namedview
     id="base"
     pagecolor="#ffffff"
     bordercolor="#666666"
     borderopacity="1.0"
     inkscape:pageopacity="0.0"
     inkscape:pageshadow="2"
     inkscape:zoom="3.4361424"
     inkscape:cx="113.50868"
     inkscape:cy="80.139985"
     inkscape:document-units="px"
     inkscape:current-layer="layer1"
     inkscape:document-rotation="0"
     showgrid="false"
     units="px"
     inkscape:window-width="1534"
     inkscape:window-height="843"
     inkscape:window-x="66"
     inkscape:window-y="20"
     inkscape:window-maximized="1" />
  <metadata
     id="metadata10009">
    <rdf:RDF>
      <cc:Work
         rdf:about="">
        <dc:format>image/svg+xml</dc:format>
        <dc:type
           rdf:resource="http://purl.org/dc/dcmitype/StillImage" />
        <dc:title />
      </cc:Work>
    </rdf:RDF>
  </metadata>
  <g
     inkscape:label="Layer 1"
     inkscape:groupmode="layer"
     id="layer1"
     transform="translate(-94.180494,-49.822241)">
    <path
       style="font-variation-settings:normal;display:inline;opacity:0.2;vector-effect:none;fill:#000000;fill-opacity:1;stroke:none;stroke-width:0.0775684px;stroke-linecap:butt;stroke-linejoin:miter;stroke-miterlimit:4;stroke-dasharray:none;stroke-dashoffset:0;stroke-opacity:1;paint-order:stroke markers fill;stop-color:#000000"
       d="m 95.529735,72.137814 0.0011,-0.6409 H 120.05342 V 55.591003 h 0.52987 v 16.546811 z"
       id="path4036"
       inkscape:export-filename="print_A4_portrait.png"
       inkscape:export-xdpi="85.269501"
       inkscape:export-ydpi="85.269501" />
    <path
       id="path839"
       style="color:#000000;font-style:normal;font-variant:normal;font-weight:normal;font-stretch:normal;font-size:medium;line-height:normal;font-family:sans-serif;font-variant-ligatures:normal;font-variant-position:normal;font-variant-caps:normal;font-variant-numeric:normal;font-variant-alternates:normal;font-variant-east-asian:normal;font-feature-settings:normal;font-variation-settings:normal;text-indent:0;text-align:start;text-decoration:none;text-decoration-line:none;text-decoration-style:solid;text-decoration-color:#000000;letter-spacing:normal;word-spacing:normal;text-transform:none;writing-mode:lr-tb;direction:ltr;text-orientation:mixed;dominant-baseline:auto;baseline-shift:baseline;text-anchor:start;white-space:normal;shape-padding:0;shape-margin:0;inline-size:0;clip-rule:nonzero;display:inline;overflow:visible;visibility:visible;opacity:0.7;isolation:auto;mix-blend-mode:normal;color-interpolation:sRGB;color-interpolation-filters:linearRGB;solid-color:#000000;solid-opacity:1;vector-effect:none;fill:#ffffff;fill-opacity:1;fill-rule:nonzero;stroke:none;stroke-width:0.347344;stroke-linecap:butt;stroke-linejoin:miter;stroke-miterlimit:4;stroke-dasharray:none;stroke-dashoffset:0;stroke-opacity:1;paint-order:stroke markers fill;color-rendering:auto;image-rendering:auto;shape-rendering:auto;text-rendering:auto;enable-background:accumulate;stop-color:#000000"
       d="m 94.561114,71.06133 0.02238,-12.01666 4.410997,-4.532299 20.620479,0.0023 V 71.0613 Z"
       sodipodi:nodetypes="cccccc" />
    <path
       id="path53"
       style="font-variation-settings:normal;display:inline;opacity:0.2;vector-effect:none;fill:#000000;fill-opacity:1;stroke:none;stroke-width:0.772233;stroke-linecap:butt;stroke-linejoin:miter;stroke-miterlimit:4;stroke-dasharray:none;stroke-dashoffset:0;stroke-opacity:1;paint-order:stroke markers fill;stop-color:#000000"
       d="m 61.427734,29.351562 c -1.106721,0 -1.998046,0.716327 -1.998046,1.607422 0,0.891118 0.891325,1.607422 1.998046,1.607422 h 27.525391 c 1.106646,0 1.998047,-0.716304 1.998047,-1.607422 0,-0.891095 -0.891401,-1.607422 -1.998047,-1.607422 z m 0,6.546876 c -1.106721,0 -1.998046,0.716303 -1.998046,1.607421 0,0.8911 0.891325,1.609375 1.998046,1.609375 h 27.525391 c 1.106646,0 1.998047,-0.718275 1.998047,-1.609375 0,-0.891118 -0.891401,-1.607421 -1.998047,-1.607421 z m 0,6.546874 c -1.106721,0 -1.998046,0.716327 -1.998046,1.607422 0,0.891122 0.891325,1.609375 1.998046,1.609375 h 27.525391 c 1.106646,0 1.998047,-0.718253 1.998047,-1.609375 0,-0.891095 -0.891401,-1.607422 -1.998047,-1.607422 z m 0,6.546876 c -1.106721,0 -1.998046,0.716326 -1.998046,1.607421 0,0.891122 0.891325,1.609375 1.998046,1.609375 h 27.525391 c 1.106646,0 1.998047,-0.718253 1.998047,-1.609375 0,-0.891095 -0.891401,-1.607421 -1.998047,-1.607421 z m 0,6.546874 c -1.106721,0 -1.998046,0.718276 -1.998046,1.609376 0,0.891118 0.891325,1.607421 1.998046,1.607421 h 27.525391 c 1.106646,0 1.998047,-0.716303 1.998047,-1.607421 0,-0.8911 -0.891401,-1.609376 -1.998047,-1.609376 z m -0.410156,6.609376 c -1.106608,0 -1.996094,0.891382 -1.996094,1.998046 v 5.169922 c 0,1.106646 0.889486,1.996094 1.996094,1.996094 h 28.410156 c 1.106684,0 1.998047,-0.889448 1.998047,-1.996094 v -5.169922 c 0,-1.106664 -0.891363,-1.998046 -1.998047,-1.998046 z"
       transform="matrix(0.26458333,0,0,0.26458333,94.180494,49.822241)"
       sodipodi:nodetypes="ssssssssssssssssssssssssssssssssssssssssssss" />
    <path
       style="font-variation-settings:normal;display:inline;opacity:0.2;vector-effect:none;fill:#000000;fill-opacity:1;stroke:none;stroke-width:0.20432;stroke-linecap:butt;stroke-linejoin:miter;stroke-miterlimit:4;stroke-dasharray:none;stroke-dashoffset:0;stroke-opacity:1;paint-order:stroke markers fill;stop-color:#000000"
       d="m 96.643072,66.261564 c -0.29282,0 -0.52855,0.189992 -0.52855,0.425761 0,0.235776 0.23573,0.425497 0.52855,0.425497 h 11.573918 c 0.2928,0 0.52855,-0.189721 0.52855,-0.425497 0,-0.235769 -0.23575,-0.425761 -0.52855,-0.425761 z"
       id="path24" />
    <path
       style="font-variation-settings:normal;display:inline;opacity:0.2;vector-effect:none;fill:#000000;fill-opacity:1;stroke:none;stroke-width:0.20432;stroke-linecap:butt;stroke-linejoin:miter;stroke-miterlimit:4;stroke-dasharray:none;stroke-dashoffset:0;stroke-opacity:1;paint-order:stroke markers fill;stop-color:#000000"
       d="m 99.143776,57.260187 v 2.022303 h -2.91658 v 5.544465 c 0,0.292806 0.23573,0.52855 0.52855,0.52855 h 11.573924 c 0.2928,0 0.52855,-0.235744 0.52855,-0.52855 v -7.038483 c 0,-0.292804 -0.23575,-0.528285 -0.52855,-0.528285 z"
       id="path4040" />
    <path
       id="path4044"
       style="color:#000000;font-style:normal;font-variant:normal;font-weight:normal;font-stretch:normal;font-size:medium;line-height:normal;font-family:sans-serif;font-variant-ligatures:normal;font-variant-position:normal;font-variant-caps:normal;font-variant-numeric:normal;font-variant-alternates:normal;font-variant-east-asian:normal;font-feature-settings:normal;font-variation-settings:normal;text-indent:0;text-align:start;text-decoration:none;text-decoration-line:none;text-decoration-style:solid;text-decoration-color:#000000;letter-spacing:normal;word-spacing:normal;text-transform:none;writing-mode:lr-tb;direction:ltr;text-orientation:mixed;dominant-baseline:auto;baseline-shift:baseline;text-anchor:start;white-space:normal;shape-padding:0;shape-margin:0;inline-size:0;clip-rule:nonzero;display:inline;overflow:visible;visibility:visible;opacity:0.4;isolation:auto;mix-blend-mode:normal;color-interpolation:sRGB;color-interpolation-filters:linearRGB;solid-color:#000000;solid-opacity:1;vector-effect:none;fill:#000000;fill-opacity:1;fill-rule:nonzero;stroke:none;stroke-width:0.347345;stroke-linecap:butt;stroke-linejoin:miter;stroke-miterlimit:4;stroke-dasharray:none;stroke-dashoffset:0;stroke-opacity:1;paint-order:stroke markers fill;color-rendering:auto;image-rendering:auto;shape-rendering:auto;text-rendering:auto;enable-background:accumulate;stop-color:#000000"
       d="m 94.124987,71.496914 0.0239,-12.69875 0.12563,-0.12749 4.530391,-4.594669 h 21.248512 v 17.420909 z m 0.457166,-12.44829 h 4.278803 v -4.39443 z m -0.01945,12.0111 H 119.61651 V 54.513196 H 99.118059 v 4.791998 h -4.533048 z"
       inkscape:export-filename="print_A4_portrait.png"
       inkscape:export-xdpi="85.269501"
       inkscape:export-ydpi="85.269501"
       sodipodi:nodetypes="cccccccccccccccccc" />
    <path
       style="font-variation-settings:normal;display:inline;opacity:0.2;vector-effect:none;fill:#000000;fill-opacity:1;stroke:none;stroke-width:0.20432;stroke-linecap:butt;stroke-linejoin:miter;stroke-miterlimit:4;stroke-dasharray:none;stroke-dashoffset:0;stroke-opacity:1;paint-order:stroke markers fill;stop-color:#000000"
       d="m 96.643072,68.018882 c -0.29282,0 -0.52855,0.189992 -0.52855,0.425761 0,0.235776 0.23573,0.425497 0.52855,0.425497 h 11.573918 c 0.2928,0 0.52855,-0.189721 0.52855,-0.425497 0,-0.235769 -0.23575,-0.425761 -0.52855,-0.425761 z"
       id="path41" />
  </g>
</svg>
