<?xml version="1.0" encoding="UTF-8" standalone="no"?>
<svg
   xmlns:dc="http://purl.org/dc/elements/1.1/"
   xmlns:cc="http://creativecommons.org/ns#"
   xmlns:rdf="http://www.w3.org/1999/02/22-rdf-syntax-ns#"
   xmlns:svg="http://www.w3.org/2000/svg"
   xmlns="http://www.w3.org/2000/svg"
   xmlns:sodipodi="http://sodipodi.sourceforge.net/DTD/sodipodi-0.dtd"
   xmlns:inkscape="http://www.inkscape.org/namespaces/inkscape"
   width="100"
   height="100"
   viewBox="0 0 26.458333 26.458334"
   version="1.1"
   id="svg10012"
   inkscape:version="1.0.1 (1.0.1+r74)"
   sodipodi:docname="template_mobile_portrait.svg">
  <defs
     id="defs10006" />
  <sodipodi:namedview
     id="base"
     pagecolor="#ffffff"
     bordercolor="#666666"
     borderopacity="1.0"
     inkscape:pageopacity="0.0"
     inkscape:pageshadow="2"
     inkscape:zoom="1.4"
     inkscape:cx="97.65184"
     inkscape:cy="233.57376"
     inkscape:document-units="px"
     inkscape:current-layer="g2243"
     inkscape:document-rotation="0"
     showgrid="false"
     units="px"
     inkscape:window-width="1534"
     inkscape:window-height="843"
     inkscape:window-x="66"
     inkscape:window-y="20"
     inkscape:window-maximized="1" />
  <metadata
     id="metadata10009">
    <rdf:RDF>
      <cc:Work
         rdf:about="">
        <dc:format>image/svg+xml</dc:format>
        <dc:type
           rdf:resource="http://purl.org/dc/dcmitype/StillImage" />
        <dc:title></dc:title>
      </cc:Work>
    </rdf:RDF>
  </metadata>
  <g
     inkscape:label="Layer 1"
     inkscape:groupmode="layer"
     id="layer1"
     transform="translate(-99.067585,-48.816774)">
    <g
       id="g2243"
       style="display:inline;stroke-width:0.397531"
       transform="matrix(2.5155261,0,0,2.5155261,-1033.4036,-63.021081)">
      <path
         id="path1743"
         style="color:#000000;font-style:normal;font-variant:normal;font-weight:normal;font-stretch:normal;font-size:medium;line-height:normal;font-family:sans-serif;font-variant-ligatures:normal;font-variant-position:normal;font-variant-caps:normal;font-variant-numeric:normal;font-variant-alternates:normal;font-variant-east-asian:normal;font-feature-settings:normal;font-variation-settings:normal;text-indent:0;text-align:start;text-decoration:none;text-decoration-line:none;text-decoration-style:solid;text-decoration-color:#000000;letter-spacing:normal;word-spacing:normal;text-transform:none;writing-mode:lr-tb;direction:ltr;text-orientation:mixed;dominant-baseline:auto;baseline-shift:baseline;text-anchor:start;white-space:normal;shape-padding:0;shape-margin:0;inline-size:0;clip-rule:nonzero;display:inline;overflow:visible;visibility:visible;opacity:0.2;isolation:auto;mix-blend-mode:normal;color-interpolation:sRGB;color-interpolation-filters:linearRGB;solid-color:#000000;solid-opacity:1;vector-effect:none;fill:#000000;fill-opacity:1;fill-rule:nonzero;stroke:none;stroke-width:0.0303643px;stroke-linecap:butt;stroke-linejoin:miter;stroke-miterlimit:4;stroke-dasharray:none;stroke-dashoffset:0;stroke-opacity:1;paint-order:stroke markers fill;color-rendering:auto;image-rendering:auto;shape-rendering:auto;text-rendering:auto;enable-background:accumulate;stop-color:#000000"
         d="m 458.04178,44.762419 c 0.0564,0.0935 0.0894,0.202362 0.0894,0.318671 v 9.025093 c 0,0.341472 -0.28017,0.621746 -0.62165,0.621746 h -4.76498 c -0.0899,0 -0.17533,-0.01993 -0.25276,-0.05479 0.1091,0.18132 0.30736,0.303907 0.53285,0.303907 h 4.7651 c 0.34147,0 0.62164,-0.280171 0.62164,-0.621642 v -9.025613 c 0,-0.251859 -0.15261,-0.470027 -0.36962,-0.56737 z" />
      <path
         id="path1745"
         style="color:#000000;font-style:normal;font-variant:normal;font-weight:normal;font-stretch:normal;font-size:medium;line-height:normal;font-family:sans-serif;font-variant-ligatures:normal;font-variant-position:normal;font-variant-caps:normal;font-variant-numeric:normal;font-variant-alternates:normal;font-variant-east-asian:normal;font-feature-settings:normal;font-variation-settings:normal;text-indent:0;text-align:start;text-decoration:none;text-decoration-line:none;text-decoration-style:solid;text-decoration-color:#000000;letter-spacing:normal;word-spacing:normal;text-transform:none;writing-mode:lr-tb;direction:ltr;text-orientation:mixed;dominant-baseline:auto;baseline-shift:baseline;text-anchor:start;white-space:normal;shape-padding:0;shape-margin:0;inline-size:0;clip-rule:nonzero;display:inline;overflow:visible;visibility:visible;opacity:0.4;isolation:auto;mix-blend-mode:normal;color-interpolation:sRGB;color-interpolation-filters:linearRGB;solid-color:#000000;solid-opacity:1;vector-effect:none;fill:#000000;fill-opacity:1;fill-rule:nonzero;stroke:none;stroke-width:0.135969;stroke-linecap:butt;stroke-linejoin:miter;stroke-miterlimit:4;stroke-dasharray:none;stroke-dashoffset:0;stroke-opacity:1;paint-order:stroke markers fill;color-rendering:auto;image-rendering:auto;shape-rendering:auto;text-rendering:auto;enable-background:accumulate;stop-color:#000000"
         d="m 453.06915,44.459032 c -0.34148,0 -0.62175,0.280587 -0.62175,0.622058 v 9.025093 c 0,0.341472 0.28027,0.621746 0.62175,0.621746 h 4.76498 c 0.34148,0 0.62165,-0.280274 0.62165,-0.621746 V 45.08109 c 0,-0.341471 -0.28017,-0.622058 -0.62165,-0.622058 z m -2.1e-4,0.171137 h 4.7653 c 0.24969,0 0.45072,0.201027 0.45072,0.450713 v 9.025197 c 0,0.249686 -0.20103,0.450715 -0.45072,0.450715 h -4.7653 c -0.24968,0 -0.45071,-0.201029 -0.45071,-0.450715 v -9.025197 c 0,-0.249686 0.20103,-0.450713 0.45071,-0.450713 z" />
      <path
         id="path1747"
         style="font-variation-settings:normal;display:inline;opacity:0.7;vector-effect:none;fill:#ffffff;fill-opacity:1;stroke:none;stroke-width:0.135969;stroke-linecap:butt;stroke-linejoin:miter;stroke-miterlimit:4;stroke-dasharray:none;stroke-dashoffset:0;stroke-opacity:1;paint-order:stroke markers fill;stop-color:#000000"
         d="m 453.06894,44.630201 h 4.76529 c 0.24969,0 0.4507,0.201011 0.4507,0.450697 v 9.025223 c 0,0.249686 -0.20101,0.450697 -0.4507,0.450697 h -4.76529 c -0.24969,0 -0.4507,-0.201011 -0.4507,-0.450697 v -9.025223 c 0,-0.249686 0.20101,-0.450697 0.4507,-0.450697 z" />
      <path
         id="path1795"
         style="color:#000000;font-style:normal;font-variant:normal;font-weight:normal;font-stretch:normal;font-size:medium;line-height:normal;font-family:sans-serif;font-variant-ligatures:normal;font-variant-position:normal;font-variant-caps:normal;font-variant-numeric:normal;font-variant-alternates:normal;font-variant-east-asian:normal;font-feature-settings:normal;font-variation-settings:normal;text-indent:0;text-align:start;text-decoration:none;text-decoration-line:none;text-decoration-style:solid;text-decoration-color:#000000;letter-spacing:normal;word-spacing:normal;text-transform:none;writing-mode:lr-tb;direction:ltr;text-orientation:mixed;dominant-baseline:auto;baseline-shift:baseline;text-anchor:start;white-space:normal;shape-padding:0;shape-margin:0;inline-size:0;clip-rule:nonzero;display:inline;overflow:visible;visibility:visible;opacity:0.4;isolation:auto;mix-blend-mode:normal;color-interpolation:sRGB;color-interpolation-filters:linearRGB;solid-color:#000000;solid-opacity:1;vector-effect:none;fill:#000000;fill-opacity:1;fill-rule:nonzero;stroke:none;stroke-width:0.0799817;stroke-linecap:butt;stroke-linejoin:miter;stroke-miterlimit:4;stroke-dasharray:none;stroke-dashoffset:0;stroke-opacity:1;paint-order:stroke markers fill;color-rendering:auto;image-rendering:auto;shape-rendering:auto;text-rendering:auto;enable-background:accumulate;stop-color:#000000"
         d="m 453.11921,45.044181 c -0.16861,0 -0.30776,0.139039 -0.30776,0.30765 v 8.483196 c 0,0.168609 0.13915,0.307754 0.30776,0.307754 h 4.66517 c 0.16861,0 0.30734,-0.139145 0.30734,-0.307754 v -8.483196 c 0,-0.168611 -0.13873,-0.30765 -0.30734,-0.30765 z m -2.1e-4,0.100747 h 4.66528 c 0.11462,0 0.2069,0.09228 0.2069,0.206903 v 8.483404 c 0,0.114617 -0.0923,0.206902 -0.2069,0.206902 H 453.119 c -0.11462,0 -0.20691,-0.09228 -0.20691,-0.206902 v -8.483404 c 0,-0.11462 0.0923,-0.206903 0.20691,-0.206903 z" />
      <path
         id="path1801"
         style="color:#000000;font-style:normal;font-variant:normal;font-weight:normal;font-stretch:normal;font-size:medium;line-height:normal;font-family:sans-serif;font-variant-ligatures:normal;font-variant-position:normal;font-variant-caps:normal;font-variant-numeric:normal;font-variant-alternates:normal;font-variant-east-asian:normal;font-feature-settings:normal;font-variation-settings:normal;text-indent:0;text-align:start;text-decoration:none;text-decoration-line:none;text-decoration-style:solid;text-decoration-color:#000000;letter-spacing:normal;word-spacing:normal;text-transform:none;writing-mode:lr-tb;direction:ltr;text-orientation:mixed;dominant-baseline:auto;baseline-shift:baseline;text-anchor:start;white-space:normal;shape-padding:0;shape-margin:0;inline-size:0;clip-rule:nonzero;display:inline;overflow:visible;visibility:visible;opacity:0.2;isolation:auto;mix-blend-mode:normal;color-interpolation:sRGB;color-interpolation-filters:linearRGB;solid-color:#000000;solid-opacity:1;vector-effect:none;fill:#000000;fill-opacity:1;fill-rule:nonzero;stroke:none;stroke-width:0.0799818;stroke-linecap:butt;stroke-linejoin:miter;stroke-miterlimit:4;stroke-dasharray:none;stroke-dashoffset:0;stroke-opacity:1;paint-order:stroke markers fill;color-rendering:auto;image-rendering:auto;shape-rendering:auto;text-rendering:auto;enable-background:accumulate;stop-color:#000000;stop-opacity:1"
         d="m 453.11897,45.14489 c -0.11462,0 -0.2069,0.09229 -0.2069,0.206906 v 8.483411 c 0,0.114618 0.0923,0.206907 0.2069,0.206907 h 4.66523 c 0.11462,0 0.20691,-0.09229 0.20691,-0.206907 v -8.483411 c 0,-0.114619 -0.0923,-0.206906 -0.20691,-0.206906 z m 0.0989,0.148711 h 0.73186 c 0.0769,0 0.13879,0.0619 0.13879,0.138792 0,0.07689 -0.0619,0.138833 -0.13879,0.138833 h -0.73186 c -0.0769,0 -0.13879,-0.06195 -0.13879,-0.138833 0,-0.07689 0.0619,-0.138792 0.13879,-0.138792 z m 3.56403,0 h 0.0558 c 0.0769,0 0.13879,0.0619 0.13879,0.138792 0,0.07689 -0.0619,0.138833 -0.13879,0.138833 h -0.0558 c -0.0769,0 -0.13879,-0.06195 -0.13879,-0.138833 0,-0.07689 0.0619,-0.138792 0.13879,-0.138792 z m 0.57257,0 h 0.23166 c 0.0769,0 0.13871,0.0619 0.13871,0.138792 0,0.07689 -0.0618,0.138833 -0.13871,0.138833 h -0.23166 c -0.0769,0 -0.13871,-0.06195 -0.13871,-0.138833 0,-0.07689 0.0618,-0.138792 0.13871,-0.138792 z m -1.90287,1.950897 a 1.708673,1.708673 0 0 1 1.70865,1.708693 1.708673,1.708673 0 0 1 -0.70086,1.379776 1.0429887,1.0429887 0 0 0 -1.02007,-0.825435 1.0429887,1.0429887 0 0 0 -1.01663,0.809853 1.708673,1.708673 0 0 1 -0.67974,-1.364194 1.708673,1.708673 0 0 1 1.70865,-1.708693 z m -0.0126,0.681973 a 0.6648998,0.6648998 0 0 0 -0.66449,0.664903 0.6648998,0.6648998 0 0 0 0.66491,0.664861 0.6648998,0.6648998 0 0 0 0.66486,-0.664861 0.6648998,0.6648998 0 0 0 -0.66486,-0.664903 0.6648998,0.6648998 0 0 0 -3.3e-4,0 z m 0.0107,4.429765 h 4e-5 a 0.60787373,0.60787373 0 0 1 0.002,0 0.60787373,0.60787373 0 0 1 0.60782,0.607947 0.60787373,0.60787373 0 0 1 -0.60782,0.607783 0.60787373,0.60787373 0 0 1 -0.60791,-0.607783 0.60787373,0.60787373 0 0 1 0.60605,-0.607947 z" />
    </g>
  </g>
</svg>
