<?xml version="1.0" encoding="UTF-8" standalone="no"?>
<svg
   xmlns:dc="http://purl.org/dc/elements/1.1/"
   xmlns:cc="http://creativecommons.org/ns#"
   xmlns:rdf="http://www.w3.org/1999/02/22-rdf-syntax-ns#"
   xmlns:svg="http://www.w3.org/2000/svg"
   xmlns="http://www.w3.org/2000/svg"
   xmlns:sodipodi="http://sodipodi.sourceforge.net/DTD/sodipodi-0.dtd"
   xmlns:inkscape="http://www.inkscape.org/namespaces/inkscape"
   width="100"
   height="100"
   viewBox="0 0 26.458333 26.458334"
   version="1.1"
   id="svg10012"
   inkscape:version="1.0.1 (1.0.1+r74)"
   sodipodi:docname="template_tablet_landscape.svg">
  <defs
     id="defs10006" />
  <sodipodi:namedview
     id="base"
     pagecolor="#ffffff"
     bordercolor="#666666"
     borderopacity="1.0"
     inkscape:pageopacity="0.0"
     inkscape:pageshadow="2"
     inkscape:zoom="1.4"
     inkscape:cx="206.96037"
     inkscape:cy="208.80428"
     inkscape:document-units="px"
     inkscape:current-layer="use2255"
     inkscape:document-rotation="0"
     showgrid="false"
     units="px"
     inkscape:window-width="1534"
     inkscape:window-height="843"
     inkscape:window-x="66"
     inkscape:window-y="20"
     inkscape:window-maximized="1" />
  <metadata
     id="metadata10009">
    <rdf:RDF>
      <cc:Work
         rdf:about="">
        <dc:format>image/svg+xml</dc:format>
        <dc:type
           rdf:resource="http://purl.org/dc/dcmitype/StillImage" />
        <dc:title></dc:title>
      </cc:Work>
    </rdf:RDF>
  </metadata>
  <g
     inkscape:label="Layer 1"
     inkscape:groupmode="layer"
     id="layer1"
     transform="translate(-72.441082,-62.130706)">
    <g
       id="g8783"
       transform="matrix(2.5155261,0,0,2.5155261,-821.54959,-236.40109)"
       style="display:inline;stroke-width:0.397531">
      <g
         id="use2255"
         transform="translate(-89.405834)"
         style="stroke-width:0.397531">
        <path
           id="path2257"
           style="color:#000000;font-style:normal;font-variant:normal;font-weight:normal;font-stretch:normal;font-size:medium;line-height:normal;font-family:sans-serif;font-variant-ligatures:normal;font-variant-position:normal;font-variant-caps:normal;font-variant-numeric:normal;font-variant-alternates:normal;font-variant-east-asian:normal;font-feature-settings:normal;font-variation-settings:normal;text-indent:0;text-align:start;text-decoration:none;text-decoration-line:none;text-decoration-style:solid;text-decoration-color:#000000;letter-spacing:normal;word-spacing:normal;text-transform:none;writing-mode:lr-tb;direction:ltr;text-orientation:mixed;dominant-baseline:auto;baseline-shift:baseline;text-anchor:start;white-space:normal;shape-padding:0;shape-margin:0;inline-size:0;clip-rule:nonzero;display:inline;overflow:visible;visibility:visible;opacity:0.2;isolation:auto;mix-blend-mode:normal;color-interpolation:sRGB;color-interpolation-filters:linearRGB;solid-color:#000000;solid-opacity:1;vector-effect:none;fill:#000000;fill-opacity:1;fill-rule:nonzero;stroke:none;stroke-width:0.0311046px;stroke-linecap:butt;stroke-linejoin:miter;stroke-miterlimit:4;stroke-dasharray:none;stroke-dashoffset:0;stroke-opacity:1;paint-order:stroke markers fill;color-rendering:auto;image-rendering:auto;shape-rendering:auto;text-rendering:auto;enable-background:accumulate;stop-color:#000000"
           d="m 454.88896,119.90458 c 0.0575,0.0955 0.0912,0.2068 0.0912,0.32569 v 7.06423 c 0,0.3498 -0.28699,0.63691 -0.6368,0.63691 h -9.24398 c -0.0919,0 -0.17935,-0.0203 -0.2586,-0.0559 0.11186,0.18545 0.31486,0.31078 0.54563,0.31078 h 9.24356 c 0.3498,0 0.63723,-0.287 0.63723,-0.6368 v -7.06381 c 0,-0.2577 -0.1563,-0.48109 -0.37831,-0.58109 z" />
        <path
           id="path2259"
           style="color:#000000;font-style:normal;font-variant:normal;font-weight:normal;font-stretch:normal;font-size:medium;line-height:normal;font-family:sans-serif;font-variant-ligatures:normal;font-variant-position:normal;font-variant-caps:normal;font-variant-numeric:normal;font-variant-alternates:normal;font-variant-east-asian:normal;font-feature-settings:normal;font-variation-settings:normal;text-indent:0;text-align:start;text-decoration:none;text-decoration-line:none;text-decoration-style:solid;text-decoration-color:#000000;letter-spacing:normal;word-spacing:normal;text-transform:none;writing-mode:lr-tb;direction:ltr;text-orientation:mixed;dominant-baseline:auto;baseline-shift:baseline;text-anchor:start;white-space:normal;shape-padding:0;shape-margin:0;inline-size:0;clip-rule:nonzero;display:inline;overflow:visible;visibility:visible;opacity:0.4;isolation:auto;mix-blend-mode:normal;color-interpolation:sRGB;color-interpolation-filters:linearRGB;solid-color:#000000;solid-opacity:1;vector-effect:none;fill:#000000;fill-opacity:1;fill-rule:nonzero;stroke:none;stroke-width:0.139284;stroke-linecap:butt;stroke-linejoin:miter;stroke-miterlimit:4;stroke-dasharray:none;stroke-dashoffset:0;stroke-opacity:1;paint-order:stroke markers fill;color-rendering:auto;image-rendering:auto;shape-rendering:auto;text-rendering:auto;enable-background:accumulate;stop-color:#000000"
           d="m 445.43221,119.87648 c -0.3498,0 -0.63723,0.287 -0.63723,0.6368 v 7.06423 c 0,0.3498 0.28743,0.63691 0.63723,0.63691 h 9.24399 c 0.34979,0 0.63679,-0.28711 0.63679,-0.63691 v -7.06423 c 0,-0.3498 -0.287,-0.6368 -0.63679,-0.6368 z m -2.1e-4,0.1752 h 9.24399 c 0.25577,0 0.46171,0.20582 0.46171,0.4616 v 7.06413 c 0,0.25577 -0.20594,0.4616 -0.46171,0.4616 H 445.432 c -0.25577,0 -0.46159,-0.20583 -0.46159,-0.4616 v -7.06413 c 0,-0.25578 0.20582,-0.4616 0.46159,-0.4616 z" />
        <path
           style="color:#000000;font-style:normal;font-variant:normal;font-weight:normal;font-stretch:normal;font-size:medium;line-height:normal;font-family:sans-serif;font-variant-ligatures:normal;font-variant-position:normal;font-variant-caps:normal;font-variant-numeric:normal;font-variant-alternates:normal;font-variant-east-asian:normal;font-feature-settings:normal;font-variation-settings:normal;text-indent:0;text-align:start;text-decoration:none;text-decoration-line:none;text-decoration-style:solid;text-decoration-color:#000000;letter-spacing:normal;word-spacing:normal;text-transform:none;writing-mode:lr-tb;direction:ltr;text-orientation:mixed;dominant-baseline:auto;baseline-shift:baseline;text-anchor:start;white-space:normal;shape-padding:0;shape-margin:0;inline-size:0;clip-rule:nonzero;display:inline;overflow:visible;visibility:visible;opacity:0.7;isolation:auto;mix-blend-mode:normal;color-interpolation:sRGB;color-interpolation-filters:linearRGB;solid-color:#000000;solid-opacity:1;vector-effect:none;fill:#ffffff;fill-opacity:1;fill-rule:nonzero;stroke:none;stroke-width:0.139284;stroke-linecap:butt;stroke-linejoin:miter;stroke-miterlimit:4;stroke-dasharray:none;stroke-dashoffset:0;stroke-opacity:1;paint-order:stroke markers fill;color-rendering:auto;image-rendering:auto;shape-rendering:auto;text-rendering:auto;enable-background:accumulate;stop-color:#000000"
           d="m 445.43199,120.05174 h 9.24398 c 0.25577,0 0.46169,0.20591 0.46169,0.46168 v 7.06405 c 0,0.25577 -0.20592,0.46169 -0.46169,0.46169 h -9.24398 c -0.25577,0 -0.46168,-0.20592 -0.46168,-0.46169 v -7.06405 c 0,-0.25577 0.20591,-0.46168 0.46168,-0.46168 z"
           id="path2261" />
        <path
           id="path2263"
           style="color:#000000;font-style:normal;font-variant:normal;font-weight:normal;font-stretch:normal;font-size:medium;line-height:normal;font-family:sans-serif;font-variant-ligatures:normal;font-variant-position:normal;font-variant-caps:normal;font-variant-numeric:normal;font-variant-alternates:normal;font-variant-east-asian:normal;font-feature-settings:normal;font-variation-settings:normal;text-indent:0;text-align:start;text-decoration:none;text-decoration-line:none;text-decoration-style:solid;text-decoration-color:#000000;letter-spacing:normal;word-spacing:normal;text-transform:none;writing-mode:lr-tb;direction:ltr;text-orientation:mixed;dominant-baseline:auto;baseline-shift:baseline;text-anchor:start;white-space:normal;shape-padding:0;shape-margin:0;inline-size:0;clip-rule:nonzero;display:inline;overflow:visible;visibility:visible;opacity:0.4;isolation:auto;mix-blend-mode:normal;color-interpolation:sRGB;color-interpolation-filters:linearRGB;solid-color:#000000;solid-opacity:1;vector-effect:none;fill:#000000;fill-opacity:1;fill-rule:nonzero;stroke:none;stroke-width:0.0819319;stroke-linecap:butt;stroke-linejoin:miter;stroke-miterlimit:4;stroke-dasharray:none;stroke-dashoffset:0;stroke-opacity:1;paint-order:stroke markers fill;color-rendering:auto;image-rendering:auto;shape-rendering:auto;text-rendering:auto;enable-background:accumulate;stop-color:#000000"
           d="m 445.48333,120.47589 c -0.17272,0 -0.31526,0.14201 -0.31526,0.31473 v 6.50912 c 0,0.17273 0.14254,0.31526 0.31526,0.31526 h 9.14132 c 0.17271,0 0.31525,-0.14253 0.31525,-0.31526 v -6.50912 c 0,-0.17272 -0.14254,-0.31473 -0.31525,-0.31473 z m -1.1e-4,0.103 h 9.14153 c 0.11742,0 0.21195,0.0945 0.21195,0.21195 v 6.50901 c 0,0.11741 -0.0945,0.21195 -0.21195,0.21195 h -9.14153 c -0.11741,0 -0.21183,-0.0945 -0.21183,-0.21195 v -6.50901 c 0,-0.11742 0.0944,-0.21195 0.21183,-0.21195 z" />
        <path
           id="path2265"
           style="color:#000000;font-style:normal;font-variant:normal;font-weight:normal;font-stretch:normal;font-size:medium;line-height:normal;font-family:sans-serif;font-variant-ligatures:normal;font-variant-position:normal;font-variant-caps:normal;font-variant-numeric:normal;font-variant-alternates:normal;font-variant-east-asian:normal;font-feature-settings:normal;font-variation-settings:normal;text-indent:0;text-align:start;text-decoration:none;text-decoration-line:none;text-decoration-style:solid;text-decoration-color:#000000;letter-spacing:normal;word-spacing:normal;text-transform:none;writing-mode:lr-tb;direction:ltr;text-orientation:mixed;dominant-baseline:auto;baseline-shift:baseline;text-anchor:start;white-space:normal;shape-padding:0;shape-margin:0;inline-size:0;clip-rule:nonzero;display:inline;overflow:visible;visibility:visible;opacity:0.2;isolation:auto;mix-blend-mode:normal;color-interpolation:sRGB;color-interpolation-filters:linearRGB;solid-color:#000000;solid-opacity:1;vector-effect:none;fill:#000000;fill-opacity:1;fill-rule:nonzero;stroke:none;stroke-width:0.081932;stroke-linecap:butt;stroke-linejoin:miter;stroke-miterlimit:4;stroke-dasharray:none;stroke-dashoffset:0;stroke-opacity:1;paint-order:stroke markers fill;color-rendering:auto;image-rendering:auto;shape-rendering:auto;text-rendering:auto;enable-background:accumulate;stop-color:#000000"
           d="m 445.48325,120.57898 c -0.11742,0 -0.21195,0.0945 -0.21195,0.21195 v 6.50903 c 0,0.1174 0.0945,0.21195 0.21195,0.21195 h 9.14152 c 0.11742,0 0.21191,-0.0945 0.21191,-0.21195 v -6.50903 c 0,-0.11741 -0.0945,-0.21195 -0.21191,-0.21195 z m 0.13117,0.13951 h 0.7497 c 0.0788,0 0.14218,0.0634 0.14218,0.14217 0,0.0788 -0.0634,0.14222 -0.14218,0.14222 h -0.7497 c -0.0788,0 -0.14218,-0.0635 -0.14218,-0.14222 0,-0.0788 0.0634,-0.14217 0.14218,-0.14217 z m 3.65094,0 h 0.0571 c 0.0788,0 0.14218,0.0634 0.14218,0.14217 0,0.0788 -0.0634,0.14222 -0.14218,0.14222 h -0.0571 c -0.0788,0 -0.14222,-0.0635 -0.14222,-0.14222 0,-0.0788 0.0635,-0.14217 0.14222,-0.14217 z m 0.58653,0 h 0.65617 c 0.0788,0 0.14218,0.0634 0.14218,0.14217 0,0.0788 -0.0634,0.14222 -0.14218,0.14222 h -0.65617 c -0.0788,0 -0.1421,-0.0635 -0.1421,-0.14222 0,-0.0788 0.0633,-0.14217 0.1421,-0.14217 z m 3.63332,0 h 0.0571 c 0.0788,0 0.14218,0.0634 0.14218,0.14217 0,0.0788 -0.0634,0.14222 -0.14218,0.14222 h -0.0571 c -0.0788,0 -0.14218,-0.0635 -0.14218,-0.14222 0,-0.0788 0.0634,-0.14217 0.14218,-0.14217 z m 0.47492,0 h 0.057 c 0.0788,0 0.14222,0.0634 0.14222,0.14217 0,0.0788 -0.0635,0.14222 -0.14222,0.14222 h -0.057 c -0.0788,0 -0.14217,-0.0635 -0.14217,-0.14222 0,-0.0788 0.0634,-0.14217 0.14217,-0.14217 z m 0.46873,0 h 0.0466 c 0.0788,0 0.14218,0.0506 0.14218,0.11343 v 0.0575 c 0,0.0628 -0.0634,0.11342 -0.14218,0.11342 h -0.0466 c -0.0788,0 -0.14217,-0.0506 -0.14217,-0.11342 v -0.0575 c 0,-0.0628 0.0634,-0.11343 0.14217,-0.11343 z m -7.41889,1.06264 h 0.50465 c 0.14666,0 0.26474,0.11808 0.26474,0.26475 v 0.519 c 0,0.14666 -0.11808,0.26479 -0.26474,0.26479 h -0.50465 c -0.14667,0 -0.26466,-0.11813 -0.26466,-0.26479 v -0.519 c 0,-0.14667 0.11799,-0.26475 0.26466,-0.26475 z m 1.85214,0 h 0.50465 c 0.14667,0 0.26466,0.11808 0.26466,0.26475 v 0.519 c 0,0.14666 -0.11799,0.26479 -0.26466,0.26479 h -0.50465 c -0.14666,0 -0.26479,-0.11813 -0.26479,-0.26479 v -0.519 c 0,-0.14667 0.11813,-0.26475 0.26479,-0.26475 z m 1.85202,0 h 0.50464 c 0.14666,0 0.26479,0.11808 0.26479,0.26475 v 0.519 c 0,0.14666 -0.11813,0.26479 -0.26479,0.26479 h -0.50464 c -0.14666,0 -0.26475,-0.11813 -0.26475,-0.26479 v -0.519 c 0,-0.14667 0.11809,-0.26475 0.26475,-0.26475 z m 1.85205,0 h 0.50473 c 0.14667,0 0.26467,0.11808 0.26467,0.26475 v 0.519 c 0,0.14666 -0.118,0.26479 -0.26467,0.26479 h -0.50473 c -0.14665,0 -0.26466,-0.11813 -0.26466,-0.26479 v -0.519 c 0,-0.14667 0.11801,-0.26475 0.26466,-0.26475 z m -5.55621,1.86649 h 0.50465 c 0.14666,0 0.26474,0.11801 0.26474,0.26467 v 0.519 c 0,0.14667 -0.11808,0.26478 -0.26474,0.26478 h -0.50465 c -0.14667,0 -0.26466,-0.11811 -0.26466,-0.26478 v -0.519 c 0,-0.14666 0.11799,-0.26467 0.26466,-0.26467 z m 1.85214,0 h 0.50465 c 0.14667,0 0.26466,0.11801 0.26466,0.26467 v 0.519 c 0,0.14667 -0.11799,0.26478 -0.26466,0.26478 h -0.50465 c -0.14666,0 -0.26479,-0.11811 -0.26479,-0.26478 v -0.519 c 0,-0.14666 0.11813,-0.26467 0.26479,-0.26467 z m 1.85202,0 h 0.50464 c 0.14666,0 0.26479,0.11801 0.26479,0.26467 v 0.519 c 0,0.14667 -0.11813,0.26478 -0.26479,0.26478 h -0.50464 c -0.14666,0 -0.26475,-0.11811 -0.26475,-0.26478 v -0.519 c 0,-0.14666 0.11809,-0.26467 0.26475,-0.26467 z m 1.85205,0 h 0.50473 c 0.14667,0 0.26467,0.11801 0.26467,0.26467 v 0.519 c 0,0.14667 -0.118,0.26478 -0.26467,0.26478 h -0.50473 c -0.14665,0 -0.26466,-0.11811 -0.26466,-0.26478 v -0.519 c 0,-0.14666 0.11801,-0.26467 0.26466,-0.26467 z m -5.55621,1.86641 h 0.50465 c 0.14666,0 0.26474,0.11801 0.26474,0.26467 v 0.51912 c 0,0.14667 -0.11808,0.26466 -0.26474,0.26466 h -0.50465 c -0.14667,0 -0.26466,-0.11799 -0.26466,-0.26466 v -0.51912 c 0,-0.14666 0.11799,-0.26467 0.26466,-0.26467 z m 1.85214,0 h 0.50465 c 0.14667,0 0.26466,0.11801 0.26466,0.26467 v 0.51912 c 0,0.14667 -0.11799,0.26466 -0.26466,0.26466 h -0.50465 c -0.14666,0 -0.26479,-0.11799 -0.26479,-0.26466 v -0.51912 c 0,-0.14666 0.11813,-0.26467 0.26479,-0.26467 z m 1.85202,0 h 0.50464 c 0.14666,0 0.26479,0.11801 0.26479,0.26467 v 0.51912 c 0,0.14667 -0.11813,0.26466 -0.26479,0.26466 h -0.50464 c -0.14666,0 -0.26475,-0.11799 -0.26475,-0.26466 v -0.51912 c 0,-0.14666 0.11809,-0.26467 0.26475,-0.26467 z m 1.85205,0 h 0.50473 c 0.14667,0 0.26467,0.11801 0.26467,0.26467 v 0.51912 c 0,0.14667 -0.118,0.26466 -0.26467,0.26466 h -0.50473 c -0.14665,0 -0.26466,-0.11799 -0.26466,-0.26466 v -0.51912 c 0,-0.14666 0.11801,-0.26467 0.26466,-0.26467 z" />
      </g>
    </g>
  </g>
</svg>
