<?xml version="1.0" encoding="UTF-8" standalone="no"?>
<svg
   xmlns:dc="http://purl.org/dc/elements/1.1/"
   xmlns:cc="http://creativecommons.org/ns#"
   xmlns:rdf="http://www.w3.org/1999/02/22-rdf-syntax-ns#"
   xmlns:svg="http://www.w3.org/2000/svg"
   xmlns="http://www.w3.org/2000/svg"
   xmlns:sodipodi="http://sodipodi.sourceforge.net/DTD/sodipodi-0.dtd"
   xmlns:inkscape="http://www.inkscape.org/namespaces/inkscape"
   width="100"
   height="100"
   viewBox="0 0 26.458334 26.458333"
   version="1.1"
   id="svg10012"
   inkscape:version="1.0.1 (1.0.1+r74)"
   sodipodi:docname="template_social_square.svg">
  <defs
     id="defs10006" />
  <sodipodi:namedview
     id="base"
     pagecolor="#ffffff"
     bordercolor="#666666"
     borderopacity="1.0"
     inkscape:pageopacity="0.0"
     inkscape:pageshadow="2"
     inkscape:zoom="1.4"
     inkscape:cx="235.23705"
     inkscape:cy="142.1598"
     inkscape:document-units="px"
     inkscape:current-layer="g2760"
     inkscape:document-rotation="0"
     showgrid="false"
     units="px"
     inkscape:window-width="1534"
     inkscape:window-height="843"
     inkscape:window-x="66"
     inkscape:window-y="20"
     inkscape:window-maximized="1" />
  <metadata
     id="metadata10009">
    <rdf:RDF>
      <cc:Work
         rdf:about="">
        <dc:format>image/svg+xml</dc:format>
        <dc:type
           rdf:resource="http://purl.org/dc/dcmitype/StillImage" />
        <dc:title></dc:title>
      </cc:Work>
    </rdf:RDF>
  </metadata>
  <g
     inkscape:label="Layer 1"
     inkscape:groupmode="layer"
     id="layer1"
     transform="translate(-87.430704,-63.13486)">
    <g
       id="g2760"
       style="display:inline;stroke-width:0.397531"
       transform="matrix(2.5155261,0,0,2.5155261,-1037.4268,-581.08064)">
      <g
         id="g18"
         transform="matrix(0.20772155,0,0,0.20772155,355.33171,203.91089)">
        <path
           id="path1031"
           style="font-variation-settings:normal;opacity:0.2;vector-effect:none;fill:#000000;fill-opacity:1;stroke:none;stroke-width:0.570401px;stroke-linecap:butt;stroke-linejoin:miter;stroke-miterlimit:4;stroke-dasharray:none;stroke-dashoffset:0;stroke-opacity:1;paint-order:stroke markers fill;stop-color:#000000"
           d="m 697.21484,1306.0488 -4.71093,0.01 v 140.3281 h -3.49805 -133.4668 v 3.8984 h 141.67578 z"
           transform="matrix(0.26458333,0,0,0.26458333,303.2026,-86.731924)"
           sodipodi:nodetypes="cccccccc" />
        <path
           id="path2592"
           style="color:#000000;font-style:normal;font-variant:normal;font-weight:normal;font-stretch:normal;font-size:medium;line-height:normal;font-family:sans-serif;font-variant-ligatures:normal;font-variant-position:normal;font-variant-caps:normal;font-variant-numeric:normal;font-variant-alternates:normal;font-variant-east-asian:normal;font-feature-settings:normal;font-variation-settings:normal;text-indent:0;text-align:start;text-decoration:none;text-decoration-line:none;text-decoration-style:solid;text-decoration-color:#000000;letter-spacing:normal;word-spacing:normal;text-transform:none;writing-mode:lr-tb;direction:ltr;text-orientation:mixed;dominant-baseline:auto;baseline-shift:baseline;text-anchor:start;white-space:normal;shape-padding:0;shape-margin:0;inline-size:0;clip-rule:nonzero;display:inline;overflow:visible;visibility:visible;opacity:0.4;isolation:auto;mix-blend-mode:normal;color-interpolation:sRGB;color-interpolation-filters:linearRGB;solid-color:#000000;solid-opacity:1;vector-effect:none;fill:#000000;fill-opacity:1;fill-rule:nonzero;stroke:none;stroke-width:2.55421;stroke-linecap:butt;stroke-linejoin:miter;stroke-miterlimit:4;stroke-dasharray:none;stroke-dashoffset:0;stroke-opacity:1;paint-order:stroke markers fill;color-rendering:auto;image-rendering:auto;shape-rendering:auto;text-rendering:auto;enable-background:accumulate;stop-color:#000000;stop-opacity:1"
           d="m 544.11328,1295.7266 v 3.2109 147.4453 h 3.5 141.39258 3.49805 v -150.6562 z m 3.2168,3.2109 h 141.95898 v 144.2344 h -0.28125 -141.39453 -0.2832 z"
           transform="matrix(0.26458333,0,0,0.26458333,303.2026,-86.731924)" />
        <path
           style="color:#000000;font-style:normal;font-variant:normal;font-weight:normal;font-stretch:normal;font-size:medium;line-height:normal;font-family:sans-serif;font-variant-ligatures:normal;font-variant-position:normal;font-variant-caps:normal;font-variant-numeric:normal;font-variant-alternates:normal;font-variant-east-asian:normal;font-feature-settings:normal;font-variation-settings:normal;text-indent:0;text-align:start;text-decoration:none;text-decoration-line:none;text-decoration-style:solid;text-decoration-color:#000000;letter-spacing:normal;word-spacing:normal;text-transform:none;writing-mode:lr-tb;direction:ltr;text-orientation:mixed;dominant-baseline:auto;baseline-shift:baseline;text-anchor:start;white-space:normal;shape-padding:0;shape-margin:0;inline-size:0;clip-rule:nonzero;display:inline;overflow:visible;visibility:visible;opacity:0.7;isolation:auto;mix-blend-mode:normal;color-interpolation:sRGB;color-interpolation-filters:linearRGB;solid-color:#000000;solid-opacity:1;vector-effect:none;fill:#ffffff;fill-opacity:1;fill-rule:nonzero;stroke:none;stroke-width:0.675803;stroke-linecap:butt;stroke-linejoin:miter;stroke-miterlimit:4;stroke-dasharray:none;stroke-dashoffset:0;stroke-opacity:1;paint-order:stroke markers fill;color-rendering:auto;image-rendering:auto;shape-rendering:auto;text-rendering:auto;enable-background:accumulate;stop-color:#000000;stop-opacity:1"
           d="m 448.01687,256.94546 v 38.16201 h 0.0749 37.41063 0.0744 v -38.16201 z"
           id="path2594" />
        <path
           id="path2603"
           style="color:#000000;font-style:normal;font-variant:normal;font-weight:normal;font-stretch:normal;font-size:medium;line-height:normal;font-family:sans-serif;font-variant-ligatures:normal;font-variant-position:normal;font-variant-caps:normal;font-variant-numeric:normal;font-variant-alternates:normal;font-variant-east-asian:normal;font-feature-settings:normal;font-variation-settings:normal;text-indent:0;text-align:start;text-decoration:none;text-decoration-line:none;text-decoration-style:solid;text-decoration-color:#000000;letter-spacing:normal;word-spacing:normal;text-transform:none;writing-mode:lr-tb;direction:ltr;text-orientation:mixed;dominant-baseline:auto;baseline-shift:baseline;text-anchor:start;white-space:normal;shape-padding:0;shape-margin:0;inline-size:0;clip-rule:nonzero;display:inline;overflow:visible;visibility:visible;opacity:0.4;isolation:auto;mix-blend-mode:normal;color-interpolation:sRGB;color-interpolation-filters:linearRGB;solid-color:#000000;solid-opacity:1;vector-effect:none;fill:#000000;fill-opacity:1;fill-rule:nonzero;stroke:none;stroke-width:1.50248;stroke-linecap:butt;stroke-linejoin:miter;stroke-miterlimit:4;stroke-dasharray:none;stroke-dashoffset:0;stroke-opacity:1;paint-order:stroke markers fill;color-rendering:auto;image-rendering:auto;shape-rendering:auto;text-rendering:auto;enable-background:accumulate;stop-color:#000000;stop-opacity:1"
           d="m 553.01562,1305.7207 v 1.8906 128.4004 h 2.14063 126.30469 2.14062 v -130.291 z m 1.89258,1.8945 h 126.80078 v 126.5078 h -0.24609 -126.30664 -0.24805 z"
           transform="matrix(0.26458333,0,0,0.26458333,303.2026,-86.731924)" />
        <path
           id="path2605"
           style="color:#000000;font-style:normal;font-variant:normal;font-weight:normal;font-stretch:normal;font-size:medium;line-height:normal;font-family:sans-serif;font-variant-ligatures:normal;font-variant-position:normal;font-variant-caps:normal;font-variant-numeric:normal;font-variant-alternates:normal;font-variant-east-asian:normal;font-feature-settings:normal;font-variation-settings:normal;text-indent:0;text-align:start;text-decoration:none;text-decoration-line:none;text-decoration-style:solid;text-decoration-color:#000000;letter-spacing:normal;word-spacing:normal;text-transform:none;writing-mode:lr-tb;direction:ltr;text-orientation:mixed;dominant-baseline:auto;baseline-shift:baseline;text-anchor:start;white-space:normal;shape-padding:0;shape-margin:0;inline-size:0;clip-rule:nonzero;display:inline;overflow:visible;visibility:visible;opacity:0.2;isolation:auto;mix-blend-mode:normal;color-interpolation:sRGB;color-interpolation-filters:linearRGB;solid-color:#000000;solid-opacity:1;vector-effect:none;fill:#000000;fill-opacity:1;fill-rule:nonzero;stroke:none;stroke-width:3.77953;stroke-linecap:butt;stroke-linejoin:miter;stroke-miterlimit:4;stroke-dasharray:none;stroke-dashoffset:0;stroke-opacity:1;paint-order:stroke markers fill;color-rendering:auto;image-rendering:auto;shape-rendering:auto;text-rendering:auto;enable-background:accumulate;stop-color:#000000;stop-opacity:1"
           d="M 93.015625,91.759766 V 409.99414 h 0.623047 317.724608 0.61914 V 91.759766 Z M 254.04102,137.50391 c 60.63531,0 109.89648,49.26116 109.89648,109.89648 0,60.63541 -49.26117,109.87305 -109.89648,109.87305 -60.63523,0 -109.89258,-49.23764 -109.89258,-109.87305 0,-60.63532 49.25735,-109.89648 109.89258,-109.89648 z m 0,9.51171 c -55.49699,0 -100.38477,44.88769 -100.38477,100.38477 0,55.49699 44.88778,100.36523 100.38477,100.36523 55.49708,0 100.39062,-44.86824 100.39062,-100.36523 0,-55.49708 -44.89354,-100.38477 -100.39062,-100.38477 z m 0.11328,22.73243 c 5.12768,-0.10544 10.13094,3.9338 13.64843,7.91992 12.39797,14.04999 -6.11795,27.05181 -1.18945,45.625 0.0884,0.32848 0.17446,0.73452 0.26953,1.09961 h 37.83203 c 6.07606,0 10.9668,4.89103 10.9668,10.9668 0,5.19451 -3.58212,9.51364 -8.41602,10.66015 5.15944,0.89856 9.06446,5.36651 9.06446,10.79102 0,5.20887 -3.60065,9.53405 -8.45508,10.66601 2.87079,1.97366 4.75,5.27704 4.75,9.03906 0,6.07596 -4.89074,10.9668 -10.9668,10.9668 h -0.31445 c 1.57691,1.89874 2.56055,4.31034 2.56055,6.98242 0,6.07596 -4.89094,10.96485 -10.9668,10.96485 h -28.14648 -0.006 c -1.67494,0.18159 -3.36909,0.28515 -5.09375,0.28515 -12.58575,0 -23.98529,-4.95636 -32.25586,-12.97461 h -25.01758 c -6.07586,0 -10.9668,-4.89669 -10.9668,-10.97265 v -41.6582 c 0,-6.07606 4.89094,-10.97071 10.9668,-10.97071 h 25.40625 c 0.16163,-0.15402 0.3228,-0.3 0.48633,-0.45117 5.84549,-11.09791 21.72847,-10.55361 16.05078,-46.65625 -0.94362,-6.00227 1.7231,-10.3963 7.59179,-11.96875 0.7336,-0.19681 1.4691,-0.28593 2.20118,-0.31445 z"
           transform="matrix(0.10518012,0,0,0.10518012,440.23898,249.58973)" />
      </g>
    </g>
  </g>
</svg>
