<?xml version="1.0" encoding="UTF-8" standalone="no"?>
<svg
   xmlns:dc="http://purl.org/dc/elements/1.1/"
   xmlns:cc="http://creativecommons.org/ns#"
   xmlns:rdf="http://www.w3.org/1999/02/22-rdf-syntax-ns#"
   xmlns:svg="http://www.w3.org/2000/svg"
   xmlns="http://www.w3.org/2000/svg"
   xmlns:sodipodi="http://sodipodi.sourceforge.net/DTD/sodipodi-0.dtd"
   xmlns:inkscape="http://www.inkscape.org/namespaces/inkscape"
   width="100"
   height="100"
   viewBox="0 0 26.458333 26.458333"
   version="1.1"
   id="svg10012"
   inkscape:version="1.0.1 (1.0.1+r74)"
   sodipodi:docname="template_print_US_landscape.svg">
  <defs
     id="defs10006" />
  <sodipodi:namedview
     id="base"
     pagecolor="#ffffff"
     bordercolor="#666666"
     borderopacity="1.0"
     inkscape:pageopacity="0.0"
     inkscape:pageshadow="2"
     inkscape:zoom="2.8952511"
     inkscape:cx="92.258917"
     inkscape:cy="102.155"
     inkscape:document-units="px"
     inkscape:current-layer="g4105"
     inkscape:document-rotation="0"
     showgrid="false"
     units="px"
     inkscape:window-width="1534"
     inkscape:window-height="843"
     inkscape:window-x="66"
     inkscape:window-y="20"
     inkscape:window-maximized="1" />
  <metadata
     id="metadata10009">
    <rdf:RDF>
      <cc:Work
         rdf:about="">
        <dc:format>image/svg+xml</dc:format>
        <dc:type
           rdf:resource="http://purl.org/dc/dcmitype/StillImage" />
        <dc:title />
      </cc:Work>
    </rdf:RDF>
  </metadata>
  <g
     inkscape:label="Layer 1"
     inkscape:groupmode="layer"
     id="layer1"
     transform="translate(-70.005836,-46.768833)">
    <g
       id="g4105"
       transform="matrix(2.5155261,0,0,2.5155261,-901.15696,-166.04222)"
       style="display:inline;stroke-width:0.397531">
      <path
         style="font-variation-settings:normal;display:inline;opacity:0.2;vector-effect:none;fill:#000000;fill-opacity:1;stroke:none;stroke-width:0.0294363px;stroke-linecap:butt;stroke-linejoin:miter;stroke-miterlimit:4;stroke-dasharray:none;stroke-dashoffset:0;stroke-opacity:1;paint-order:stroke markers fill;stop-color:#000000"
         d="m 387.29059,94.098269 4e-4,-0.243213 h 8.56751 v -6.610533 h 0.20108 v 6.853746 z"
         id="path4036"
         inkscape:export-filename="print_A4_portrait.png"
         inkscape:export-xdpi="85.269501"
         inkscape:export-ydpi="85.269501"
         sodipodi:nodetypes="ccccccc" />
      <path
         id="path839"
         style="color:#000000;font-style:normal;font-variant:normal;font-weight:normal;font-stretch:normal;font-size:medium;line-height:normal;font-family:sans-serif;font-variant-ligatures:normal;font-variant-position:normal;font-variant-caps:normal;font-variant-numeric:normal;font-variant-alternates:normal;font-variant-east-asian:normal;font-feature-settings:normal;font-variation-settings:normal;text-indent:0;text-align:start;text-decoration:none;text-decoration-line:none;text-decoration-style:solid;text-decoration-color:#000000;letter-spacing:normal;word-spacing:normal;text-transform:none;writing-mode:lr-tb;direction:ltr;text-orientation:mixed;dominant-baseline:auto;baseline-shift:baseline;text-anchor:start;white-space:normal;shape-padding:0;shape-margin:0;inline-size:0;clip-rule:nonzero;display:inline;overflow:visible;visibility:visible;opacity:0.7;isolation:auto;mix-blend-mode:normal;color-interpolation:sRGB;color-interpolation-filters:linearRGB;solid-color:#000000;solid-opacity:1;vector-effect:none;fill:#ffffff;fill-opacity:1;fill-rule:nonzero;stroke:none;stroke-width:0.131813;stroke-linecap:butt;stroke-linejoin:miter;stroke-miterlimit:4;stroke-dasharray:none;stroke-dashoffset:0;stroke-opacity:1;paint-order:stroke markers fill;color-rendering:auto;image-rendering:auto;shape-rendering:auto;text-rendering:auto;enable-background:accumulate;stop-color:#000000"
         d="m 386.75946,93.689162 0.008,-5.134602 1.67393,-1.719956 7.25081,8.85e-4 v 6.853673 z"
         sodipodi:nodetypes="cccccc" />
      <path
         id="path4044"
         style="color:#000000;font-style:normal;font-variant:normal;font-weight:normal;font-stretch:normal;font-size:medium;line-height:normal;font-family:sans-serif;font-variant-ligatures:normal;font-variant-position:normal;font-variant-caps:normal;font-variant-numeric:normal;font-variant-alternates:normal;font-variant-east-asian:normal;font-feature-settings:normal;font-variation-settings:normal;text-indent:0;text-align:start;text-decoration:none;text-decoration-line:none;text-decoration-style:solid;text-decoration-color:#000000;letter-spacing:normal;word-spacing:normal;text-transform:none;writing-mode:lr-tb;direction:ltr;text-orientation:mixed;dominant-baseline:auto;baseline-shift:baseline;text-anchor:start;white-space:normal;shape-padding:0;shape-margin:0;inline-size:0;clip-rule:nonzero;display:inline;overflow:visible;visibility:visible;opacity:0.4;isolation:auto;mix-blend-mode:normal;color-interpolation:sRGB;color-interpolation-filters:linearRGB;solid-color:#000000;solid-opacity:1;vector-effect:none;fill:#000000;fill-opacity:1;fill-rule:nonzero;stroke:none;stroke-width:0.131813;stroke-linecap:butt;stroke-linejoin:miter;stroke-miterlimit:4;stroke-dasharray:none;stroke-dashoffset:0;stroke-opacity:1;paint-order:stroke markers fill;color-rendering:auto;image-rendering:auto;shape-rendering:auto;text-rendering:auto;enable-background:accumulate;stop-color:#000000"
         d="m 386.59337,93.855056 0.009,-5.393453 0.0477,-0.04838 1.71923,-1.743622 h 7.48914 v 7.185457 z m 0.17349,-5.298405 h 1.62375 v -1.667636 z m -0.007,5.132496 h 8.93321 v -6.853639 h -7.20451 v 1.818509 h -1.72024 z"
         inkscape:export-filename="print_A4_portrait.png"
         inkscape:export-xdpi="85.269501"
         inkscape:export-ydpi="85.269501"
         sodipodi:nodetypes="cccccccccccccccccc" />
      <path
         id="path62"
         style="font-variation-settings:normal;display:inline;opacity:0.2;vector-effect:none;fill:#000000;fill-opacity:1;stroke:none;stroke-width:0.0812236;stroke-linecap:butt;stroke-linejoin:miter;stroke-miterlimit:4;stroke-dasharray:none;stroke-dashoffset:0;stroke-opacity:1;paint-order:stroke markers fill;stop-color:#000000"
         d="m 388.48846,87.639592 v 1.016905 h -1.15944 v 1.991206 c 0,0.1164 0.0935,0.210154 0.20994,0.210154 h 4.60102 c 0.11639,0 0.21015,-0.09376 0.21015,-0.210154 v -2.797956 c 0,-0.116399 -0.0938,-0.210155 -0.21015,-0.210155 z m 4.48782,0.130448 c -0.1164,0 -0.21015,0.07534 -0.21015,0.169069 0,0.09373 0.0937,0.169069 0.21015,0.169069 h 1.84353 c 0.11639,0 0.20995,-0.07534 0.20995,-0.169069 0,-0.09373 -0.0936,-0.169069 -0.20995,-0.169069 z m 0,0.688601 c -0.1164,0 -0.21015,0.07534 -0.21015,0.169069 0,0.09373 0.0937,0.169274 0.21015,0.169274 h 1.84353 c 0.11639,0 0.20995,-0.07555 0.20995,-0.169274 0,-0.09373 -0.0936,-0.169069 -0.20995,-0.169069 z m 0,0.688602 c -0.1164,0 -0.21015,0.07534 -0.21015,0.169068 0,0.09373 0.0937,0.169275 0.21015,0.169275 h 1.84353 c 0.11639,0 0.20995,-0.07555 0.20995,-0.169275 0,-0.09373 -0.0936,-0.169068 -0.20995,-0.169068 z m 0,0.688601 c -0.1164,0 -0.21015,0.07534 -0.21015,0.169068 0,0.09373 0.0937,0.169275 0.21015,0.169275 h 1.84353 c 0.11639,0 0.20995,-0.07555 0.20995,-0.169275 0,-0.09372 -0.0936,-0.169068 -0.20995,-0.169068 z m 0,0.688601 c -0.1164,0 -0.21015,0.07555 -0.21015,0.169274 0,0.09373 0.0937,0.169069 0.21015,0.169069 h 1.84353 c 0.11639,0 0.20995,-0.07534 0.20995,-0.169069 0,-0.09373 -0.0936,-0.169274 -0.20995,-0.169274 z m -5.4821,0.693531 c -0.11641,0 -0.20995,0.07555 -0.20995,0.169274 0,0.09373 0.0935,0.169069 0.20995,0.169069 h 4.60101 c 0.1164,0 0.21016,-0.07534 0.21016,-0.169069 0,-0.09373 -0.0938,-0.169274 -0.21016,-0.169274 z m 5.43896,0.0016 c -0.11639,0 -0.20995,0.09376 -0.20995,0.210155 v 1.385214 c 0,0.116398 0.0936,0.20995 0.20995,0.20995 h 1.93639 c 0.11641,0 0.21015,-0.09355 0.21015,-0.20995 v -1.385214 c 0,-0.116399 -0.0937,-0.210155 -0.21015,-0.210155 z m -5.43896,0.697024 c -0.11641,0 -0.20995,0.07555 -0.20995,0.169275 0,0.09373 0.0935,0.169068 0.20995,0.169068 h 4.60101 c 0.1164,0 0.21016,-0.07534 0.21016,-0.169068 0,-0.09373 -0.0938,-0.169275 -0.21016,-0.169275 z m 0,0.747354 c -0.11641,0 -0.20995,0.07555 -0.20995,0.169275 0,0.09373 0.0935,0.169068 0.20995,0.169068 h 4.60101 c 0.1164,0 0.21016,-0.07534 0.21016,-0.169068 0,-0.09373 -0.0938,-0.169275 -0.21016,-0.169275 z"
         sodipodi:nodetypes="cccsssssscsssssssssssssssssssssssssssssssssssssssssssssssssssssssssssssssss" />
    </g>
  </g>
</svg>
