<?xml version="1.0" encoding="UTF-8" standalone="no"?>
<svg
   xmlns:dc="http://purl.org/dc/elements/1.1/"
   xmlns:cc="http://creativecommons.org/ns#"
   xmlns:rdf="http://www.w3.org/1999/02/22-rdf-syntax-ns#"
   xmlns:svg="http://www.w3.org/2000/svg"
   xmlns="http://www.w3.org/2000/svg"
   xmlns:sodipodi="http://sodipodi.sourceforge.net/DTD/sodipodi-0.dtd"
   xmlns:inkscape="http://www.inkscape.org/namespaces/inkscape"
   width="100"
   height="100"
   viewBox="0 0 26.458334 26.458334"
   version="1.1"
   id="svg10012"
   inkscape:version="1.0.1 (1.0.1+r74)"
   sodipodi:docname="template_icon_square.svg">
  <defs
     id="defs10006" />
  <sodipodi:namedview
     id="base"
     pagecolor="#ffffff"
     bordercolor="#666666"
     borderopacity="1.0"
     inkscape:pageopacity="0.0"
     inkscape:pageshadow="2"
     inkscape:zoom="0.62531566"
     inkscape:cx="-186.1635"
     inkscape:cy="425.44915"
     inkscape:document-units="px"
     inkscape:current-layer="g3646"
     inkscape:document-rotation="0"
     showgrid="false"
     units="px"
     inkscape:window-width="1534"
     inkscape:window-height="843"
     inkscape:window-x="66"
     inkscape:window-y="20"
     inkscape:window-maximized="1" />
  <metadata
     id="metadata10009">
    <rdf:RDF>
      <cc:Work
         rdf:about="">
        <dc:format>image/svg+xml</dc:format>
        <dc:type
           rdf:resource="http://purl.org/dc/dcmitype/StillImage" />
        <dc:title></dc:title>
      </cc:Work>
    </rdf:RDF>
  </metadata>
  <g
     inkscape:label="Layer 1"
     inkscape:groupmode="layer"
     id="layer1"
     transform="translate(-70.005836,-46.768833)">
    <g
       id="g3646"
       transform="matrix(2.5155261,0,0,2.5155261,-1010.6406,-1991.4387)"
       style="display:inline;stroke-width:0.397531">
      <g
         id="g18"
         transform="matrix(0.2116264,0,0,0.2116264,338.1847,638.33559)">
        <path
           id="path3494"
           style="color:#000000;font-style:normal;font-variant:normal;font-weight:normal;font-stretch:normal;font-size:medium;line-height:normal;font-family:sans-serif;font-variant-ligatures:normal;font-variant-position:normal;font-variant-caps:normal;font-variant-numeric:normal;font-variant-alternates:normal;font-variant-east-asian:normal;font-feature-settings:normal;font-variation-settings:normal;text-indent:0;text-align:start;text-decoration:none;text-decoration-line:none;text-decoration-style:solid;text-decoration-color:#000000;letter-spacing:normal;word-spacing:normal;text-transform:none;writing-mode:lr-tb;direction:ltr;text-orientation:mixed;dominant-baseline:auto;baseline-shift:baseline;text-anchor:start;white-space:normal;shape-padding:0;shape-margin:0;inline-size:0;clip-rule:nonzero;display:inline;overflow:visible;visibility:visible;opacity:0.7;isolation:auto;mix-blend-mode:normal;color-interpolation:sRGB;color-interpolation-filters:linearRGB;solid-color:#000000;solid-opacity:1;vector-effect:none;fill:#ffffff;fill-opacity:1;fill-rule:nonzero;stroke:none;stroke-width:0.675803;stroke-linecap:butt;stroke-linejoin:miter;stroke-miterlimit:4;stroke-dasharray:none;stroke-dashoffset:0;stroke-opacity:1;paint-order:stroke markers fill;color-rendering:auto;image-rendering:auto;shape-rendering:auto;text-rendering:auto;enable-background:accumulate;stop-color:#000000;stop-opacity:1"
           d="m 445.69778,818.02162 c -4.40699,0 -7.94112,3.53415 -7.94112,7.94113 v 21.41418 c 0,4.40701 3.53413,7.94165 7.94112,7.94165 h 20.81268 c 4.40699,0 7.94112,-3.53464 7.94112,-7.94165 v -21.41418 c 0,-4.40698 -3.53413,-7.94113 -7.94112,-7.94113 z" />
        <path
           style="color:#000000;font-style:normal;font-variant:normal;font-weight:normal;font-stretch:normal;font-size:medium;line-height:normal;font-family:sans-serif;font-variant-ligatures:normal;font-variant-position:normal;font-variant-caps:normal;font-variant-numeric:normal;font-variant-alternates:normal;font-variant-east-asian:normal;font-feature-settings:normal;font-variation-settings:normal;text-indent:0;text-align:start;text-decoration:none;text-decoration-line:none;text-decoration-style:solid;text-decoration-color:#000000;letter-spacing:normal;word-spacing:normal;text-transform:none;writing-mode:lr-tb;direction:ltr;text-orientation:mixed;dominant-baseline:auto;baseline-shift:baseline;text-anchor:start;white-space:normal;shape-padding:0;shape-margin:0;inline-size:0;clip-rule:nonzero;display:inline;overflow:visible;visibility:visible;opacity:0.4;isolation:auto;mix-blend-mode:normal;color-interpolation:sRGB;color-interpolation-filters:linearRGB;solid-color:#000000;solid-opacity:1;vector-effect:none;fill:#000000;fill-opacity:1;fill-rule:nonzero;stroke:none;stroke-width:0.675803;stroke-linecap:butt;stroke-linejoin:miter;stroke-miterlimit:4;stroke-dasharray:none;stroke-dashoffset:0;stroke-opacity:1;paint-order:stroke markers fill;color-rendering:auto;image-rendering:auto;shape-rendering:auto;text-rendering:auto;enable-background:accumulate;stop-color:#000000;stop-opacity:1"
           d="m 445.69792,817.15625 c -4.87069,0 -8.80664,3.93595 -8.80664,8.80664 v 21.41406 c 0,4.8707 3.93595,8.80664 8.80664,8.80664 h 20.8125 c 4.87069,0 8.80664,-3.93594 8.80664,-8.80664 v -21.41406 c 0,-4.87069 -3.93595,-8.80664 -8.80664,-8.80664 z m 0,0.86523 h 20.8125 c 4.40699,0 7.94141,3.53443 7.94141,7.94141 v 21.41406 c 0,4.40699 -3.53442,7.94141 -7.94141,7.94141 h -20.8125 c -4.40699,0 -7.94141,-3.53442 -7.94141,-7.94141 v -21.41406 c 0,-4.40698 3.53442,-7.94141 7.94141,-7.94141 z"
           id="path3496" />
        <path
           id="path3511"
           style="color:#000000;font-style:normal;font-variant:normal;font-weight:normal;font-stretch:normal;font-size:medium;line-height:normal;font-family:sans-serif;font-variant-ligatures:normal;font-variant-position:normal;font-variant-caps:normal;font-variant-numeric:normal;font-variant-alternates:normal;font-variant-east-asian:normal;font-feature-settings:normal;font-variation-settings:normal;text-indent:0;text-align:start;text-decoration:none;text-decoration-line:none;text-decoration-style:solid;text-decoration-color:#000000;letter-spacing:normal;word-spacing:normal;text-transform:none;writing-mode:lr-tb;direction:ltr;text-orientation:mixed;dominant-baseline:auto;baseline-shift:baseline;text-anchor:start;white-space:normal;shape-padding:0;shape-margin:0;inline-size:0;clip-rule:nonzero;display:inline;overflow:visible;visibility:visible;opacity:0.4;isolation:auto;mix-blend-mode:normal;color-interpolation:sRGB;color-interpolation-filters:linearRGB;solid-color:#000000;solid-opacity:1;vector-effect:none;fill:#000000;fill-opacity:1;fill-rule:nonzero;stroke:none;stroke-width:0.397531;stroke-linecap:butt;stroke-linejoin:miter;stroke-miterlimit:4;stroke-dasharray:none;stroke-dashoffset:0;stroke-opacity:1;paint-order:stroke markers fill;color-rendering:auto;image-rendering:auto;shape-rendering:auto;text-rendering:auto;enable-background:accumulate;stop-color:#000000;stop-opacity:1"
           d="m 445.73551,819.16936 c -3.79399,0 -6.86211,3.07014 -6.86211,6.86419 v 21.27364 c 0,3.79404 3.06812,6.8621 6.86211,6.8621 h 20.73621 c 3.79399,0 6.86366,-3.06806 6.86366,-6.8621 v -21.27364 c 0,-3.79405 -3.06967,-6.86419 -6.86366,-6.86419 z m 5.2e-4,0.45061 h 20.7362 c 3.55247,0 6.41253,2.86001 6.41253,6.41255 v 21.27414 c 0,3.55253 -2.86006,6.41252 -6.41253,6.41252 h -20.7362 c -3.55248,0 -6.41253,-2.85999 -6.41253,-6.41252 v -21.27414 c 0,-3.55254 2.86005,-6.41255 6.41253,-6.41255 z" />
        <path
           id="path3513"
           style="color:#000000;font-style:normal;font-variant:normal;font-weight:normal;font-stretch:normal;font-size:medium;line-height:normal;font-family:sans-serif;font-variant-ligatures:normal;font-variant-position:normal;font-variant-caps:normal;font-variant-numeric:normal;font-variant-alternates:normal;font-variant-east-asian:normal;font-feature-settings:normal;font-variation-settings:normal;text-indent:0;text-align:start;text-decoration:none;text-decoration-line:none;text-decoration-style:solid;text-decoration-color:#000000;letter-spacing:normal;word-spacing:normal;text-transform:none;writing-mode:lr-tb;direction:ltr;text-orientation:mixed;dominant-baseline:auto;baseline-shift:baseline;text-anchor:start;white-space:normal;shape-padding:0;shape-margin:0;inline-size:0;clip-rule:nonzero;display:inline;overflow:visible;visibility:visible;opacity:0.2;isolation:auto;mix-blend-mode:normal;color-interpolation:sRGB;color-interpolation-filters:linearRGB;solid-color:#000000;solid-opacity:1;vector-effect:none;fill:#000000;fill-opacity:1;fill-rule:nonzero;stroke:none;stroke-width:3.77953;stroke-linecap:butt;stroke-linejoin:miter;stroke-miterlimit:4;stroke-dasharray:none;stroke-dashoffset:0;stroke-opacity:1;paint-order:stroke markers fill;color-rendering:auto;image-rendering:auto;shape-rendering:auto;text-rendering:auto;enable-background:accumulate;stop-color:#000000;stop-opacity:1"
           d="m 153.50391,89.076172 c -33.77521,0 -60.966801,27.191118 -60.966801,60.966798 v 202.26562 c 0,33.77568 27.191591,60.9668 60.966801,60.9668 h 197.14843 c 33.77511,0 60.96485,-27.19112 60.96485,-60.9668 V 150.04297 c 0,-33.77568 -27.18974,-60.966798 -60.96485,-60.966798 z m 99.87695,50.128908 c 60.63532,0 109.89258,49.2554 109.89258,109.89062 0,60.63523 -49.25726,109.87334 -109.89258,109.87305 -60.63522,0 -109.89063,-49.23782 -109.89063,-109.87305 0,-60.63522 49.25541,-109.89062 109.89063,-109.89062 z m 0,9.50586 c -55.49699,0 -100.38477,44.88777 -100.38477,100.38476 0,55.49709 44.88778,100.36719 100.38477,100.36719 55.49708,0 100.38672,-44.8701 100.38672,-100.36719 0,-55.49699 -44.88964,-100.38476 -100.38672,-100.38476 z m -16.35547,30.89844 h 32.72656 v 26.69335 h -32.72656 z m 0,39.86132 h 32.72656 v 102.37891 h -32.72656 z"
           transform="matrix(0.10518012,0,0,0.10518012,429.59063,810.251)" />
        <path
           id="path3455"
           style="color:#000000;font-style:normal;font-variant:normal;font-weight:normal;font-stretch:normal;font-size:medium;line-height:normal;font-family:sans-serif;font-variant-ligatures:normal;font-variant-position:normal;font-variant-caps:normal;font-variant-numeric:normal;font-variant-alternates:normal;font-variant-east-asian:normal;font-feature-settings:normal;font-variation-settings:normal;text-indent:0;text-align:start;text-decoration:none;text-decoration-line:none;text-decoration-style:solid;text-decoration-color:#000000;letter-spacing:normal;word-spacing:normal;text-transform:none;writing-mode:lr-tb;direction:ltr;text-orientation:mixed;dominant-baseline:auto;baseline-shift:baseline;text-anchor:start;white-space:normal;shape-padding:0;shape-margin:0;inline-size:0;clip-rule:nonzero;display:inline;overflow:visible;visibility:visible;opacity:0.2;isolation:auto;mix-blend-mode:normal;color-interpolation:sRGB;color-interpolation-filters:linearRGB;solid-color:#000000;solid-opacity:1;vector-effect:none;fill:#000000;fill-opacity:1;fill-rule:nonzero;stroke:none;stroke-width:0.150919px;stroke-linecap:butt;stroke-linejoin:miter;stroke-miterlimit:4;stroke-dasharray:none;stroke-dashoffset:0;stroke-opacity:1;paint-order:stroke markers fill;color-rendering:auto;image-rendering:auto;shape-rendering:auto;text-rendering:auto;enable-background:accumulate;stop-color:#000000;stop-opacity:1"
           d="m 472.65427,819.65098 c 1.64251,1.59893 2.66289,3.8336 2.66289,6.31177 v 21.41418 c 0,4.87071 -3.93601,8.80671 -8.8067,8.80671 h -20.81268 c -1.7743,0 -3.42322,-0.52417 -4.80436,-1.4237 1.58549,1.54157 3.75012,2.49132 6.14123,2.49132 h 20.81216 c 4.87069,0 8.80515,-3.93393 8.80515,-8.80462 v -21.41627 c 0,-3.09489 -1.58995,-5.80983 -3.99769,-7.37939 z" />
      </g>
    </g>
  </g>
</svg>
