<?xml version="1.0" encoding="UTF-8" standalone="no"?>
<svg
   width="35.269939mm"
   height="35.193893mm"
   viewBox="0 0 35.26994 35.193894"
   version="1.1"
   id="svg307679"
   inkscape:version="1.1-alpha (ee0d280, 2021-03-14)"
   sodipodi:docname="support_icon_money.svg"
   xmlns:inkscape="http://www.inkscape.org/namespaces/inkscape"
   xmlns:sodipodi="http://sodipodi.sourceforge.net/DTD/sodipodi-0.dtd"
   xmlns="http://www.w3.org/2000/svg"
   xmlns:svg="http://www.w3.org/2000/svg">
  <sodipodi:namedview
     id="namedview307681"
     pagecolor="#ffffff"
     bordercolor="#666666"
     borderopacity="1.0"
     objecttolerance="10.0"
     gridtolerance="10.0"
     guidetolerance="10.0"
     inkscape:pageshadow="2"
     inkscape:pageopacity="0.0"
     inkscape:pagecheckerboard="0"
     inkscape:document-units="px"
     showgrid="false"
     inkscape:zoom="0.75187991"
     inkscape:cx="190.18995"
     inkscape:cy="186.86495"
     inkscape:window-width="1920"
     inkscape:window-height="1016"
     inkscape:window-x="0"
     inkscape:window-y="1107"
     inkscape:window-maximized="1"
     inkscape:current-layer="layer1" />
  <defs
     id="defs307676" />
  <g
     inkscape:label="Layer 1"
     inkscape:groupmode="layer"
     id="layer1"
     transform="translate(-26.434161,-99.323592)">
    <g
       id="g307610"
       style="display:inline"
       transform="matrix(0.26458333,0,0,0.26458333,-756.68585,-58.878816)">
      <path
         id="path180065-0"
         style="opacity:1;fill:#999999;fill-opacity:1;stroke:none;stroke-width:2.14026;stroke-linecap:round;stroke-linejoin:round;stroke-miterlimit:4;stroke-dasharray:none;stroke-opacity:1;paint-order:stroke markers fill;stop-color:#000000"
         d="m 3057.8027,609.0883 c 1.2003,0.6986 2.3776,1.43592 3.5301,2.21079 l -0.4386,-0.53553 c -1.0108,-0.58631 -2.0446,-1.14057 -3.0915,-1.67526 z m 8.268,5.022 1.5695,1.91694 c 5.6257,4.85417 10.367,10.64701 14.0136,17.12114 l 5.5791,6.81463 c -1.2927,-2.86207 -2.7889,-5.62189 -4.4787,-8.2592 l -9.4857,-11.58673 c -2.2405,-2.16612 -4.6438,-4.17492 -7.1978,-6.00678 z m 19.0775,26.28488 c 0.6872,1.6557 1.3046,3.3394 1.851,5.04672 l 3.8587,4.71297 c -0.3921,-1.50004 -0.8545,-2.97446 -1.3516,-4.43563 z m 3.1575,9.6208 c 0.2582,1.19605 0.4822,2.39923 0.6717,3.60809 l 0.3211,0.39315 3.0377,3.71059 c -0.1585,-1.16919 -0.3489,-2.33041 -0.5707,-3.48287 l -1.1,-1.34551 z m 1.2874,7.33862 c 0.094,1.0122 0.1635,2.02649 0.2091,3.042 l 3.0746,3.75562 c -0.034,-1.00297 -0.09,-2.00054 -0.1704,-2.99465 z m 0.4325,6.29575 c -0.011,0.8923 -0.041,1.78417 -0.089,2.67517 l 2.8817,3.52088 c 0.05,-0.89497 0.076,-1.7873 0.088,-2.67744 z m -0.1935,5.52852 c -0.058,0.83994 -0.1326,1.67862 -0.2233,2.51563 l 2.7181,3.31972 c 0.1116,-0.8138 0.2079,-1.62604 0.2871,-2.43743 z m -0.5823,5.05251 c -0.098,0.79404 -0.2101,1.58609 -0.3372,2.37592 l 2.5784,3.1491 c 0.079,-0.35294 0.1649,-0.70044 0.2341,-1.05674 0.078,-0.39916 0.1311,-0.79763 0.2027,-1.19626 z m -0.8683,4.70597 c -0.1662,0.71377 -0.3438,1.42476 -0.5344,2.13241 l 2.5429,3.10633 c 0.1983,-0.69109 0.3964,-1.38304 0.5729,-2.08505 z m -1.1057,4.41279 c -0.2169,0.65505 -0.4447,1.30646 -0.6827,1.95414 l 2.4674,3.01397 c 0.2358,-0.6513 0.4477,-1.31548 0.6635,-1.9778 z m -1.4335,4.01238 c -0.2168,0.62389 -0.444,1.24421 -0.6803,1.86105 l 2.3695,2.89333 c 0.2566,-0.58811 0.5062,-1.18031 0.746,-1.77858 z m -1.5659,3.85514 c -0.2661,0.56528 -0.5404,1.12665 -0.8228,1.68393 l 2.3453,2.86471 c 0.2836,-0.55183 0.5738,-1.09833 0.8421,-1.66026 z m -1.7348,3.54942 c -0.2898,0.56901 -0.588,1.13368 -0.8946,1.6938 l 2.2538,2.75327 c 0.3216,-0.54084 0.6315,-1.08966 0.9379,-1.64154 z m -1.9511,3.38178 c -0.3221,0.53067 -0.6518,1.05665 -0.9891,1.57778 l 2.2375,2.73418 c 0.3462,-0.50973 0.6763,-1.03323 1.0084,-1.5541 z m -2.0476,3.26534 c -0.3577,0.48843 -0.7222,0.97177 -1.0935,1.4499 l 2.1702,2.65136 c 0.3696,-0.48042 0.7309,-0.96735 1.0874,-1.45906 z m -2.2847,2.97223 c -0.3648,0.47985 -0.7363,0.95452 -1.1144,1.42393 l 2.1171,2.58723 c 0.3914,-0.45183 0.7852,-0.90107 1.1644,-1.3644 z m -2.3384,2.91 c -0.4057,0.43132 -0.8173,0.85702 -1.2348,1.27697 l 2.082,2.54257 c 0.4128,-0.42471 0.8268,-0.84777 1.2283,-1.28422 z m -2.5566,2.64243 c -0.4057,0.43132 -0.8173,0.85702 -1.2347,1.27698 l 2.0141,2.46164 c 0.4347,-0.39903 0.8594,-0.80854 1.2833,-1.21974 z m -2.627,2.55502 c -0.4457,0.38436 -0.8964,0.76261 -1.3524,1.13459 l 2.0031,2.44752 c 0.4552,-0.3726 0.8962,-0.76358 1.3412,-1.14872 z m -2.7989,2.34429 c -0.4462,0.38427 -0.8976,0.76238 -1.3542,1.13424 l 1.9067,2.32917 c 0.4764,-0.3469 0.9453,-0.70333 1.4121,-1.06321 z m -2.9104,2.21303 c -0.4859,0.33672 -0.9764,0.66673 -1.4713,0.98993 l 1.9087,2.32957 c 0.4974,-0.32083 0.994,-0.64148 1.4824,-0.97582 z m -3.0435,2.04771 c -0.4933,0.32677 -0.991,0.64673 -1.4931,0.95978 l 1.8181,2.2223 c 0.5187,-0.29406 1.0412,-0.5825 1.5514,-0.89069 z m -3.1942,1.86297 c -0.5261,0.28852 -1.0561,0.56967 -1.5899,0.84337 l 1.8201,2.22268 c 0.5399,-0.26616 1.0758,-0.54103 1.6076,-0.822 z m -3.2906,1.74464 c -0.5317,0.25029 -1.0668,0.4933 -1.6053,0.7289 l 1.7574,2.14673 c 0.5425,-0.22968 1.0733,-0.48202 1.6088,-0.72622 z m -3.4996,1.49082 c -0.5484,0.22948 -1.0999,0.45136 -1.6545,0.66552 l 1.7169,2.09901 c 0.566,-0.20067 1.1275,-0.41116 1.6869,-0.62734 z m -3.4988,1.39544 c -0.6135,0.18458 -1.2296,0.35999 -1.8483,0.52614 l 1.6672,2.03756 c 0.6138,-0.17608 1.2285,-0.34858 1.8356,-0.54256 z m -3.8235,1.09115 c -0.6136,0.18521 -1.2298,0.36126 -1.8487,0.52806 l 1.5888,1.94062 c 0.64,-0.14073 1.2772,-0.2903 1.9109,-0.45021 z m -3.9305,0.96672 c -0.6625,0.12731 -1.3269,0.24419 -1.993,0.35059 l 1.5678,1.91463 c 0.6691,-0.10191 1.3328,-0.22324 1.9962,-0.34598 z m -4.1258,0.72359 c -0.6874,0.098 -1.3765,0.18483 -2.0669,0.26048 l 1.4555,1.77723 c 0.7063,-0.0588 1.4122,-0.11969 2.1132,-0.20169 z m -39.1782,-6.98711 c 0.2831,0.17104 0.5596,0.35087 0.846,0.51771 l -0.143,-0.17523 c -0.2349,-0.11266 -0.4695,-0.22691 -0.703,-0.34248 z m 34.8018,7.40492 c -0.7187,0.0618 -1.4382,0.11148 -2.1586,0.14904 l 1.3929,1.70129 c 0.7427,-0.009 1.4811,-0.0389 2.2193,-0.0735 z m -30.0318,-5.07303 0.4112,0.50232 c 1.1753,0.5683 2.3731,1.10079 3.5917,1.59995 l -0.6938,-0.84816 c -1.1144,-0.38759 -2.2178,-0.80578 -3.3091,-1.25411 z m 25.4703,5.26759 c -0.7831,-0.0134 -1.566,-0.0411 -2.3481,-0.0831 l 1.3093,1.59937 c 0.792,0.0504 1.5818,0.0904 2.3702,0.11128 z m -4.8616,-0.17459 c -0.8381,-0.0757 -1.6745,-0.16839 -2.5089,-0.27771 l 1.1886,1.45239 c 0.844,0.12201 1.6868,0.21336 2.5282,0.30137 z m -13.8335,-2.58391 0.7404,0.90502 c 1.0116,0.34678 2.0357,0.66859 3.0727,0.96709 l -0.943,-1.15161 c -0.9621,-0.21811 -1.9191,-0.45835 -2.8701,-0.7205 z m 8.5672,1.91423 c -0.7117,-0.0886 -1.4218,-0.18894 -2.1301,-0.30119 -0.1672,-0.0408 -0.3341,-0.0831 -0.5008,-0.1257 l 0.9799,1.19665 c 0.7965,0.18714 1.5934,0.37529 2.4031,0.53365 0.1215,0.0238 0.2428,0.0383 0.3642,0.061 z"
         sodipodi:nodetypes="cccccccccccccccccccccccccccccccccccccccccsccccccccccccccccccccccccccccccccccccccccccccccccccccccccccccccccccccccccccccccccccccccccccccccccccccccccccccccccccccccccccccccccccccccccccccscc"
         inkscape:export-filename="welcome_screens_test.png"
         inkscape:export-xdpi="150"
         inkscape:export-ydpi="150" />
      <path
         id="circle177646"
         style="color:#000000;opacity:0.5;fill:#b3b3b3;stroke-linecap:round;stroke-linejoin:round;paint-order:stroke markers fill"
         d="m 3025.7412,598.48053 c -36.078,0 -65.3476,29.26966 -65.3476,65.34766 0,36.0781 29.2696,65.34765 65.3476,65.34765 36.078,0 65.3476,-29.26955 65.3476,-65.34765 0,-36.078 -29.2696,-65.34766 -65.3476,-65.34766 z m 0,2.13867 c 34.9213,0 63.2089,28.28769 63.2089,63.20899 0,34.9214 -28.2876,63.20703 -63.2089,63.20703 -34.9213,0 -63.207,-28.28563 -63.207,-63.20703 0,-34.9213 28.2857,-63.20899 63.207,-63.20899 z m 1.3085,4.57422 -4.9355,0.14258 0.023,0.82226 1.9883,-0.0566 0.1935,6.75782 0.953,-0.0273 -0.1933,-6.75781 1.9941,-0.0586 z m 1.7461,0.0957 -0.3671,7.57422 0.9512,0.0449 0.3691,-7.57421 z m 5.0742,0.36914 c -0.5447,0.0355 -1.0115,0.24542 -1.4022,0.62891 -0.5205,0.50787 -0.8489,1.26279 -0.9845,2.26758 l -0.1913,1.41406 c -0.1156,0.98646 0.014,1.78025 0.3887,2.38086 0.3782,0.59763 0.9542,0.95021 1.7284,1.05469 0.8053,0.10865 1.4629,-0.085 1.9746,-0.58008 0.5119,-0.49504 0.8382,-1.25582 0.9766,-2.28125 l 0.1837,-1.36719 c 0.1261,-1.01306 0.01,-1.82219 -0.3653,-2.42578 -0.3667,-0.60656 -0.9469,-0.96352 -1.7383,-1.07031 -0.1988,-0.0268 -0.3888,-0.0333 -0.5704,-0.0215 z m -14.826,0.0137 -0.8106,0.10742 -1.4238,7.83789 0.9707,-0.12891 0.3222,-2.03906 2.5411,-0.33789 0.8534,1.88476 0.9708,-0.1289 z m -5.2169,0.81445 -0.92,0.23047 1.4317,5.69336 -4.3867,-4.95117 -0.9296,0.23437 1.8496,7.35547 0.9296,-0.23438 -1.4258,-5.66796 4.3691,4.92773 0.9297,-0.23437 z m 20.127,0.0332 c 0.1174,-0.009 0.2412,-0.006 0.371,0.0117 0.5368,0.0724 0.9096,0.32048 1.1153,0.74414 0.2095,0.42069 0.2596,1.02934 0.1524,1.82422 l -0.1895,1.4082 c -0.1138,0.76596 -0.3242,1.31898 -0.629,1.65625 -0.3047,0.33728 -0.722,0.46995 -1.2519,0.39844 -0.5299,-0.0715 -0.901,-0.3268 -1.1153,-0.76562 -0.2104,-0.43836 -0.2637,-1.04124 -0.1601,-1.8086 l 0.1817,-1.34765 c 0.1065,-0.76345 0.3188,-1.32317 0.6367,-1.67969 0.241,-0.26705 0.5362,-0.41408 0.8887,-0.44141 z m 5.3671,0.0781 -1.9276,7.33398 0.9258,0.24219 1.4863,-5.65039 1.4512,6.42383 0.9256,0.24414 1.9297,-7.33399 -0.916,-0.24023 -1.4941,5.67578 -1.4531,-6.45117 z m -20.5097,0.44922 1.4805,3.28125 -2.0488,0.27343 z m -13.4394,2.00976 c -0.3396,-0.0164 -0.6961,0.0491 -1.0684,0.19336 -0.7478,0.28986 -1.2262,0.78312 -1.4355,1.48242 -0.2106,0.69607 -0.132,1.51752 0.2343,2.46289 l 0.5157,1.33008 c 0.375,0.91967 0.8703,1.55327 1.4883,1.89844 0.6198,0.34068 1.295,0.3702 2.0234,0.0879 0.7576,-0.29363 1.2401,-0.78228 1.4492,-1.46289 0.2091,-0.68061 0.1279,-1.502 -0.2461,-2.4668 l -0.5,-1.28711 c -0.3786,-0.94808 -0.8762,-1.5976 -1.4922,-1.94726 -0.3069,-0.17708 -0.6291,-0.27463 -0.9687,-0.29102 z m 42.162,0.0586 c -0.2803,-0.005 -0.5501,0.0465 -0.8086,0.15429 -0.5135,0.21687 -0.8789,0.60459 -1.0976,1.16406 -0.1264,0.32341 -0.1754,0.63665 -0.1446,0.93946 0.035,0.30084 0.1452,0.60074 0.3301,0.90039 0.1895,0.29768 0.4993,0.63335 0.9278,1.00586 0.4285,0.37251 0.7008,0.68903 0.8183,0.95117 0.1176,0.26214 0.1079,0.56934 -0.029,0.92188 -0.1353,0.34603 -0.3417,0.58166 -0.6173,0.70507 -0.2755,0.12342 -0.6087,0.10797 -1,-0.0449 -0.4204,-0.16431 -0.7064,-0.41529 -0.8573,-0.75391 -0.1479,-0.33734 -0.1353,-0.72356 0.035,-1.16015 l -0.8926,-0.34961 c -0.1643,0.42042 -0.2122,0.83259 -0.1425,1.23633 0.074,0.40176 0.2482,0.75983 0.5234,1.07617 0.2797,0.31437 0.6263,0.55237 1.0371,0.71289 0.6403,0.25025 1.2129,0.2775 1.7187,0.0801 0.5072,-0.20069 0.8721,-0.58773 1.0958,-1.16016 0.2122,-0.54332 0.2345,-1.04221 0.064,-1.49609 -0.1659,-0.45262 -0.5506,-0.93029 -1.1562,-1.43164 -0.3843,-0.33289 -0.6442,-0.6399 -0.7793,-0.92383 -0.1351,-0.28393 -0.1461,-0.57552 -0.029,-0.87305 0.1416,-0.36221 0.3516,-0.6051 0.6268,-0.72851 0.2761,-0.12342 0.5922,-0.11493 0.9512,0.0254 0.3946,0.15419 0.6509,0.39337 0.7676,0.71484 0.1167,0.32147 0.089,0.70013 -0.082,1.13672 l 0.8925,0.34766 c 0.1541,-0.39456 0.2098,-0.78938 0.164,-1.1875 -0.046,-0.39813 -0.1959,-0.75373 -0.4472,-1.06446 -0.2502,-0.31396 -0.5819,-0.55111 -0.9962,-0.71289 -0.3022,-0.11817 -0.5926,-0.18036 -0.873,-0.18554 z m -42.207,0.8164 c 0.2225,0.019 0.4289,0.0966 0.6212,0.23242 0.3866,0.26724 0.7257,0.77556 1.0155,1.52344 l 0.5137,1.32617 c 0.2702,0.72574 0.3521,1.30944 0.248,1.75196 -0.1039,0.44251 -0.4036,0.75988 -0.9022,0.95312 -0.4987,0.19324 -0.9483,0.15006 -1.3478,-0.13086 -0.396,-0.28217 -0.7338,-0.78388 -1.0137,-1.50586 l -0.492,-1.26758 c -0.2754,-0.71999 -0.3603,-1.31359 -0.254,-1.77929 0.1095,-0.46696 0.4096,-0.7949 0.8984,-0.98438 0.2525,-0.0979 0.4906,-0.13813 0.7129,-0.11914 z m -6.705,2.20899 c -0.3687,0.0385 -0.7496,0.16154 -1.1406,0.36914 l -1.5957,0.84765 3.5566,6.69922 1.498,-0.79687 c 0.8341,-0.44287 1.3444,-1.02201 1.5274,-1.73633 0.1813,-0.71739 0.035,-1.51798 -0.4357,-2.4043 l -0.5956,-1.12305 c -0.4705,-0.8863 -1.0508,-1.45874 -1.7421,-1.71679 -0.3466,-0.13056 -0.7036,-0.17719 -1.0723,-0.13867 z m 56.1913,0.20312 -3.7676,6.58008 0.8262,0.47461 1.6641,-2.90625 2.2246,1.27344 0.4063,-0.71094 -2.2246,-1.27344 1.2891,-2.25 2.5996,1.48828 0.4081,-0.71484 z m -56.1601,0.63672 c 0.2487,-0.0259 0.4842,0.008 0.7071,0.10156 0.4471,0.18325 0.8579,0.62666 1.2324,1.33203 l 0.6289,1.1875 c 0.3471,0.66876 0.475,1.24515 0.3828,1.73047 -0.094,0.48226 -0.4354,0.88106 -1.0274,1.19532 l -0.6778,0.35937 -2.7851,-5.24805 0.754,-0.40234 c 0.2745,-0.14572 0.5365,-0.22998 0.7851,-0.25586 z m 61.1288,2.3125 -3.1522,4.37305 c -0.4247,0.60128 -0.5917,1.179 -0.504,1.73437 0.09,0.55256 0.4384,1.04787 1.0469,1.48633 0.5944,0.42831 1.1763,0.59789 1.7462,0.50781 0.5699,-0.0901 1.0682,-0.42483 1.494,-1.0039 l 3.1504,-4.37305 -0.7773,-0.56055 -3.1308,4.34375 c -0.2985,0.41411 -0.6099,0.66052 -0.9355,0.73828 -0.321,0.077 -0.678,-0.0264 -1.0724,-0.31054 -0.3916,-0.28216 -0.6034,-0.5892 -0.6348,-0.91993 -0.026,-0.3315 0.1099,-0.70502 0.4082,-1.11914 l 3.1309,-4.34375 z m -70.285,2.37695 -0.7676,0.57227 4.5313,6.08008 3.1542,-2.34961 -0.4903,-0.65625 -2.3847,1.77734 z m 75.9042,1.83203 -5.123,5.5918 0.707,0.64649 3.9472,-4.3086 -1.707,6.35938 0.7052,0.64843 5.123,-5.59179 -0.6992,-0.64063 -3.9649,4.32813 1.7187,-6.38672 z m -80.3319,1.90625 -0.709,0.64454 5.0937,5.61718 2.9141,-2.64257 -0.5508,-0.60547 -2.2012,1.99804 z m 85.7577,3.28907 -5.7539,4.9414 1.1075,1.28711 c 0.6153,0.7165 1.2902,1.0859 2.0272,1.10742 0.7397,0.0193 1.4908,-0.2974 2.252,-0.95117 l 0.9648,-0.82812 c 0.7614,-0.65377 1.1912,-1.34702 1.2911,-2.07813 0.1025,-0.73337 -0.134,-1.4357 -0.7109,-2.10742 z m -89.4316,0.4414 -0.543,0.61133 4.0313,6.87109 0.6504,-0.73046 -1.0841,-1.75586 1.707,-1.91211 1.875,0.87109 0.6525,-0.73047 z m 89.4277,0.81836 0.5567,0.64649 c 0.4049,0.47152 0.5638,0.94575 0.4784,1.42187 -0.081,0.4765 -0.4233,0.9758 -1.0292,1.4961 l -1.0196,0.875 c -0.5762,0.48562 -1.1097,0.73724 -1.6034,0.7539 -0.4912,0.0144 -0.9561,-0.23379 -1.3927,-0.74219 l -0.498,-0.58007 z m -88.707,0.37696 3.2637,1.52343 -1.377,1.54297 z m 42.5605,0.3457 c -2.2694,0 -4.5056,0.8224 -6.1172,2.4668 l -27.1015,27.75781 c -10.2611,10.2612 6.6442,9.40631 12.7618,13.28711 2.8281,1.8418 -9.0762,4.21083 -6.6427,6.64453 2.368,2.4338 14.2727,4.66911 16.6407,7.03711 2.3679,2.4337 -4.8015,4.99979 -2.4336,7.43359 2.3023,2.4337 7.8279,0.13105 8.8144,5.65625 0.7235,4.0782 10.1302,2.03884 14.3398,-1.44726 2.6312,-2.2365 -4.5399,-2.23623 -2.1718,-4.66993 5.9199,-5.9858 11.1828,-2.6954 13.3534,-8.2207 1.1841,-2.9599 -8.9449,-5.06701 -6.248,-6.97461 6.4463,-4.5386 30.1241,-6.84076 19.2051,-17.75976 l -28.0859,-28.74414 c -1.7433,-1.6444 -4.0452,-2.4668 -6.3145,-2.4668 z m 0.2304,2.63867 c 1.6281,0.01 3.2556,0.61876 4.4395,1.80273 l 10.7208,10.91797 c 0.9865,0.9867 0.9865,3.02519 0.3944,3.61719 l -5.3261,-4.33984 -1.0528,6.3789 -4.4062,-2.36718 -7.1698,4.53906 -2.3693,-9.53906 -3.8143,8.28906 -9.5371,-0.0664 c -1.8418,0 -1.5794,-1.9089 0.328,-3.8164 3.7493,-4.144 11.0514,-11.18144 13.3536,-13.61524 1.1839,-1.2168 2.8114,-1.80898 4.4393,-1.80078 z m -46.41,2.9668 a 0.44999999,0.44999999 0 0 0 -0.2871,0.18945 c -5.2537,7.78545 -8.5345,16.73232 -9.5607,26.06836 a 0.44999999,0.44999999 0 0 0 0.3986,0.49609 0.44999999,0.44999999 0 0 0 0.4961,-0.39843 c 1.0101,-9.19099 4.2401,-17.99763 9.4121,-25.66211 a 0.44999999,0.44999999 0 0 0 -0.1211,-0.625 0.44999999,0.44999999 0 0 0 -0.3379,-0.0684 z m 96.0663,0.9414 a 0.44999999,0.44999999 0 0 0 -0.3379,0.0605 0.44999999,0.44999999 0 0 0 -0.1347,0.62305 c 4.714,7.28982 7.7021,15.56006 8.7343,24.17969 a 0.44999999,0.44999999 0 0 0 0.5,0.39257 0.44999999,0.44999999 0 0 0 0.3927,-0.5 c -1.0488,-8.75567 -4.0827,-17.15567 -8.8712,-24.56054 a 0.44999999,0.44999999 0 0 0 -0.2832,-0.19532 z m 4.7598,29.42774 -0.017,0.95898 3.2597,0.0566 -0.053,3.05274 -3.2597,-0.0586 -0.018,0.95313 7.5801,0.13476 0.017,-0.95312 -3.5058,-0.0625 0.055,-3.05078 3.5038,0.0625 0.02,-0.95899 z m -106.4102,2.21094 -7.5819,0.16406 0.021,0.95117 7.5821,-0.16211 z m 0.094,3.39453 -7.5254,0.92382 0.1152,0.95118 5.8008,-0.71289 -5.4297,3.72656 0.1172,0.95117 7.5254,-0.92383 -0.1154,-0.9414 -5.826,0.71484 5.455,-3.73828 z m 107.9159,1.53711 c -0.549,0.0153 -1.0083,0.14735 -1.377,0.39843 -0.4944,0.33084 -0.7956,0.85916 -0.9022,1.58399 -0.1158,0.78666 0.076,1.44992 0.5762,1.99023 0.5,0.53688 1.2372,0.8779 2.2127,1.02149 l 1.3615,0.19922 c 0.9789,0.14409 1.7866,0.0364 2.4258,-0.32227 0.6354,-0.35922 1.0083,-0.9137 1.119,-1.66602 0.1103,-0.74887 -0.017,-1.36054 -0.3827,-1.83203 -0.3653,-0.47492 -0.9465,-0.79164 -1.7443,-0.95117 l -0.1406,0.95313 c 0.6246,0.14455 1.0419,0.34338 1.2539,0.5957 0.2122,0.25232 0.2834,0.624 0.211,1.11523 -0.072,0.49124 -0.3302,0.83523 -0.7735,1.03321 -0.4427,0.19454 -1.0435,0.23673 -1.8027,0.125 l -1.377,-0.20313 c -0.7729,-0.11376 -1.3372,-0.33645 -1.6953,-0.66992 -0.3615,-0.33397 -0.505,-0.75768 -0.4297,-1.26953 0.065,-0.44315 0.2442,-0.75365 0.5371,-0.93164 0.293,-0.178 0.7477,-0.24213 1.3653,-0.19336 l 0.1406,-0.95313 c -0.2031,-0.0211 -0.3951,-0.0285 -0.5781,-0.0234 z m -68.8749,1.9082 c 0.5919,0 20.2596,2.63082 12.6953,4.66992 -2.8943,0.7893 -16.1816,-4.66992 -12.6953,-4.66992 z m -38.0039,3.64453 -7.3477,1.875 0.2362,0.92383 2.5138,-0.64063 1.0566,0.49805 -2.8613,2.91797 0.2813,1.10547 3.457,-3.62305 3.8438,1.56055 -0.2833,-1.10938 -3.252,-1.27734 -0.955,-0.40234 3.5469,-0.9043 z m 111.3788,2.38867 -7.9629,0.32227 -0.2187,0.78711 6.6484,4.38867 0.2617,-0.94336 -1.748,-1.09766 0.6875,-2.46875 2.0683,-0.0469 z m -3.1895,1.00196 -0.5546,1.99218 -3.045,-1.91797 z m -27.373,0.5625 c -2.2776,0.082 -4.5975,1.21746 -5.1895,3.32226 0,1.3813 10.723,2.16952 10.1309,-0.33008 -0.4276,-2.1048 -2.6639,-3.07438 -4.9414,-2.99218 z m -80.162,2.63476 c -0.2662,-0.004 -0.539,0.0481 -0.8184,0.15625 -0.3239,0.12535 -0.5866,0.302 -0.7891,0.5293 -0.1979,0.22928 -0.3435,0.51281 -0.4395,0.85156 -0.091,0.34073 -0.1302,0.79568 -0.1151,1.36328 0.015,0.56761 -0.035,0.98234 -0.1486,1.2461 -0.1138,0.26375 -0.3481,0.46492 -0.7011,0.60156 -0.3464,0.13413 -0.6584,0.14125 -0.9356,0.0215 -0.2772,-0.1198 -0.4908,-0.37577 -0.6425,-0.76758 -0.1629,-0.42094 -0.1718,-0.80247 -0.023,-1.14257 0.1488,-0.33687 0.4417,-0.58859 0.8788,-0.75782 l -0.3456,-0.89453 c -0.421,0.16296 -0.7572,0.40634 -1.0078,0.73047 -0.2462,0.32611 -0.3923,0.69661 -0.4395,1.11328 -0.043,0.41866 0.015,0.83486 0.1739,1.2461 0.248,0.64113 0.6161,1.08081 1.1035,1.32031 0.4905,0.23825 1.0225,0.24724 1.5957,0.0254 0.5439,-0.21059 0.9263,-0.53138 1.1464,-0.96289 0.2215,-0.42827 0.3131,-1.03513 0.2734,-1.82031 -0.014,-0.50828 0.038,-0.90974 0.1562,-1.20118 0.1181,-0.29143 0.3253,-0.49405 0.6232,-0.60937 0.3627,-0.1404 0.6817,-0.15115 0.9589,-0.0312 0.2772,0.1198 0.4858,0.35932 0.625,0.71875 0.1529,0.39504 0.1508,0.74559 -0.01,1.04883 -0.1582,0.30323 -0.4555,0.5378 -0.8927,0.70703 l 0.3458,0.89453 c 0.395,-0.15293 0.7238,-0.38088 0.9864,-0.68359 0.2626,-0.30272 0.4232,-0.65162 0.4823,-1.04688 0.062,-0.39651 0.014,-0.80232 -0.1464,-1.2168 -0.2347,-0.60551 -0.6054,-1.02454 -1.1133,-1.25976 -0.2529,-0.11571 -0.5132,-0.17565 -0.7794,-0.17969 z m 101.4257,0.48438 -1.5352,3.7207 7.0078,2.89453 1.5567,-3.76953 -0.7559,-0.3125 -1.1913,2.88867 -2.4845,-1.02539 1.0234,-2.48047 -0.7558,-0.31054 -1.0234,2.47851 -2.254,-0.92969 1.1739,-2.83984 z m -68.3769,2.85742 c -3.0978,0.1834 -6.4139,2.43058 -3.791,4.64648 2.4337,2.1049 6.1188,-0.46187 7.3027,-3.42187 -0.74,-0.9661 -2.1037,-1.30791 -3.5117,-1.22461 z m 40.6094,0.23828 c -3.0258,2.7626 0.5263,5.6576 3.4863,3.75 0.7893,-0.5262 -0.066,-3.0923 -3.4863,-3.75 z m -71.2306,2.48047 c -0.5688,0.0114 -1.1795,0.19077 -1.8319,0.53906 l -1.2129,0.64648 c -0.873,0.46604 -1.4593,1.03296 -1.7598,1.70118 -0.2975,0.66658 -0.2667,1.33699 0.092,2.00781 0.3566,0.66775 0.8201,1.0824 1.3945,1.24414 0.5762,0.16481 1.2325,0.0744 1.9688,-0.27148 l -0.453,-0.85157 c -0.5882,0.25493 -1.0428,0.34446 -1.3633,0.26758 -0.3206,-0.0769 -0.5963,-0.33346 -0.8301,-0.77148 -0.2338,-0.43803 -0.2333,-0.86833 0.01,-1.29102 0.2405,-0.41962 0.7001,-0.8105 1.377,-1.17187 l 1.2266,-0.65625 c 0.6891,-0.36792 1.2775,-0.52412 1.7637,-0.46875 0.4892,0.0537 0.8559,0.30922 1.0996,0.76562 0.2109,0.39514 0.2507,0.75111 0.121,1.06836 -0.1297,0.31725 -0.4587,0.64093 -0.9843,0.96875 l 0.4551,0.84961 c 0.7034,-0.4149 1.1533,-0.90349 1.3496,-1.46484 0.2009,-0.55993 0.1281,-1.16228 -0.2168,-1.8086 -0.3745,-0.70145 -0.9236,-1.12218 -1.6465,-1.25976 -0.1803,-0.0336 -0.3651,-0.0468 -0.5547,-0.043 z m 97.2871,0.61914 c -0.1387,0.005 -0.2737,0.0259 -0.4043,0.0625 -0.5254,0.14488 -0.969,0.54196 -1.33,1.1914 l -1.0333,1.85743 6.6289,3.68554 0.4649,-0.83789 -2.6817,-1.49023 0.6486,-1.16602 3.3359,0.31055 0.5,-0.89648 -0.055,-0.0293 -3.5311,-0.2832 c 0.029,-0.41684 -0.06,-0.79873 -0.2637,-1.14649 -0.2053,-0.35248 -0.5123,-0.64334 -0.922,-0.87109 -0.4892,-0.27204 -0.9411,-0.40116 -1.3574,-0.38672 z m 0.025,0.95508 c 0.2594,0.002 0.5485,0.0924 0.8673,0.26953 0.3762,0.20919 0.6185,0.48021 0.7264,0.81445 0.1101,0.33121 0.067,0.67248 -0.1268,1.02149 l -0.5625,1.00976 -2.5117,-1.39648 0.5565,-1.00196 c 0.2679,-0.48178 0.6184,-0.72065 1.0508,-0.71679 z m -3.7168,3.66015 -2.8867,4.00391 0.668,0.48242 1.1621,-1.61523 5.4843,3.95507 0.5568,-0.77343 -5.4825,-3.95313 1.166,-1.61914 z m -88.3086,1.28907 -7.6015,2.38671 0.5664,0.79883 1.9551,-0.66211 1.4804,2.0918 -1.2694,1.63086 0.5664,0.79883 4.7754,-6.37696 z m -0.8534,1.10156 -2.2148,2.83789 -1.1955,-1.6875 z m 3.7969,2.80469 -5.6036,5.10937 0.6426,0.70508 2.1933,-2.00195 1.0333,1.13281 c 0.4806,0.5062 0.9937,0.76746 1.5409,0.78515 0.5523,0.0179 1.0982,-0.21946 1.6367,-0.71093 0.5182,-0.47275 0.7972,-0.99936 0.8361,-1.58008 0.041,-0.58306 -0.1774,-1.1336 -0.6524,-1.6543 z m 81.4667,0.0371 -0.6504,0.70507 3.9394,3.62696 c 0.3756,0.34577 0.5809,0.68495 0.6193,1.01757 0.038,0.32772 -0.1063,0.67172 -0.4357,1.0293 -0.3269,0.35502 -0.6562,0.52798 -0.9883,0.51953 -0.3321,-0.0134 -0.687,-0.19329 -1.0625,-0.53906 l -3.9375,-3.62695 -0.6425,0.69726 3.9649,3.65235 c 0.5461,0.49356 1.1001,0.72965 1.6621,0.70898 0.5593,-0.023 1.0935,-0.31159 1.6016,-0.86328 0.4962,-0.53892 0.734,-1.09528 0.7129,-1.67188 -0.021,-0.57659 -0.2945,-1.1115 -0.8185,-1.60351 z m -81.4336,1.2207 0.9903,1.08594 c 0.2738,0.3001 0.3876,0.62763 0.3418,0.98437 -0.046,0.35674 -0.2363,0.68756 -0.5724,0.99414 -0.3487,0.31829 -0.6938,0.48026 -1.0331,0.48438 -0.3393,0.004 -0.652,-0.14996 -0.9375,-0.46289 l -0.9863,-1.08204 z m 4.4962,3.48242 -4.9688,5.72852 3.0801,2.67187 0.535,-0.61719 -2.3592,-2.04882 1.7596,-2.0293 2.0275,1.75781 0.535,-0.61914 -2.0252,-1.75781 1.5956,-1.83985 2.3222,2.01368 0.5391,-0.62305 z m 71.8358,1.01367 c -0.5058,0.0201 -0.9872,0.22151 -1.4453,0.60742 -0.6134,0.51679 -0.9058,1.13974 -0.877,1.86914 0.027,0.72675 0.3664,1.47852 1.0197,2.25391 l 0.9198,1.0918 c 0.6531,0.74827 1.3271,1.18447 2.0234,1.31054 0.6969,0.12118 1.3441,-0.0689 1.9415,-0.57226 0.6214,-0.5235 0.9213,-1.14187 0.8984,-1.85352 -0.023,-0.71165 -0.3685,-1.46258 -1.0351,-2.2539 l -0.8887,-1.05469 c -0.6657,-0.77399 -1.3469,-1.22646 -2.043,-1.35742 -0.1738,-0.034 -0.3451,-0.0477 -0.5137,-0.041 z m 0.072,0.88672 c 0.1106,0.003 0.221,0.0197 0.3339,0.0527 0.4523,0.12739 0.9382,0.49792 1.455,1.11133 l 0.9161,1.08789 c 0.4909,0.59888 0.7577,1.12384 0.8027,1.57618 0.045,0.45234 -0.136,0.85078 -0.5448,1.19531 -0.4091,0.34452 -0.8476,0.44869 -1.3165,0.3125 -0.4663,-0.13843 -0.9483,-0.50352 -1.4472,-1.09571 l -0.877,-1.03906 c -0.4941,-0.59175 -0.7658,-1.12462 -0.8165,-1.59961 -0.048,-0.47722 0.1285,-0.88484 0.5294,-1.22265 0.3107,-0.26175 0.6329,-0.38788 0.9649,-0.37891 z m -64.4453,3.89453 -3.8809,6.51563 3.502,2.08593 0.4198,-0.70117 -2.6855,-1.59961 1.375,-2.30859 2.3047,1.37109 0.4179,-0.70117 -2.3027,-1.37305 1.246,-2.09375 2.6408,1.57227 0.4217,-0.70703 z m 55.4453,1.53516 c -0.4116,0.0271 -0.8343,0.16044 -1.2697,0.40234 l -1.5781,0.87891 3.6817,6.6289 1.4843,-0.82421 c 0.8257,-0.45873 1.323,-1.04794 1.4923,-1.76563 0.1675,-0.72072 0.01,-1.51933 -0.4786,-2.39648 l -0.6172,-1.11133 c -0.4874,-0.87716 -1.0793,-1.43685 -1.7754,-1.68164 -0.1744,-0.062 -0.352,-0.10346 -0.5312,-0.12305 -0.1345,-0.0147 -0.2711,-0.0165 -0.4081,-0.008 z m -0.09,0.84961 c 0.2482,-0.0306 0.4843,2.3e-4 0.7089,0.0898 0.4507,0.17466 0.87,0.61052 1.2578,1.30859 l 0.6524,1.17383 c 0.36,0.662 0.4989,1.23761 0.416,1.72461 -0.085,0.48397 -0.42,0.8874 -1.0059,1.21289 l -0.6679,0.37305 -2.8867,-5.19531 0.746,-0.41407 c 0.2717,-0.15093 0.5312,-0.24281 0.7794,-0.27343 z m -50.75,0.30859 -0.9355,7.88477 0.7617,0.33984 5.2402,-5.9668 -0.9551,-0.42578 -4.0742,4.88477 0.9141,-6.29297 z m 46.0117,1.07813 -0.8829,0.34961 2.1621,5.45703 -4.9941,-4.33594 -0.8906,0.35351 2.791,7.05079 0.8907,-0.35352 -2.1504,-5.43359 4.9746,4.3164 0.8907,-0.35351 z m -39.371,1.71093 -2.2423,7.24414 3.8946,1.20704 0.2421,-0.78125 -2.9843,-0.92579 0.7948,-2.5664 2.5625,0.79297 0.2403,-0.78125 -2.5605,-0.79297 0.7206,-2.32813 2.9357,0.90821 0.2421,-0.78516 z m 30.9002,1.21485 -0.7929,0.19922 -0.5234,7.94921 0.9492,-0.23828 0.09,-2.0625 2.4843,-0.625 1.0625,1.77539 0.9512,-0.24023 z m -25.2342,0.43164 -1.3399,7.46484 0.9433,0.16992 1.0313,-5.75195 1.957,6.28711 0.9434,0.16992 1.3398,-7.46289 -0.9336,-0.16797 -1.0371,5.77735 -1.9609,-6.31641 z m 25.16,0.96094 1.8438,3.09179 -2.0059,0.50391 z m -18.6972,0.0918 -0.045,0.82032 1.9863,0.10937 -0.3692,6.75 0.9512,0.0527 0.3692,-6.75 1.9921,0.10938 0.045,-0.82227 z m 8.6269,0.0117 c -0.6482,0.0385 -1.1619,0.26373 -1.541,0.67578 -0.3756,0.41185 -0.5452,0.91599 -0.5098,1.51563 0.021,0.34661 0.1072,0.65192 0.2618,0.91406 0.1579,0.25846 0.3845,0.48491 0.6777,0.67969 0.2965,0.19111 0.7167,0.36641 1.2617,0.52539 0.5451,0.15897 0.9262,0.33258 1.1427,0.52148 0.2163,0.18891 0.3368,0.4718 0.3593,0.84961 0.022,0.37088 -0.067,0.671 -0.2657,0.89844 -0.1986,0.22744 -0.5082,0.35403 -0.9277,0.37891 -0.4505,0.0267 -0.8149,-0.0838 -1.0937,-0.32813 -0.2754,-0.24454 -0.4274,-0.60043 -0.4551,-1.06836 l -0.957,0.0566 c 0.027,0.4506 0.1564,0.84606 0.3887,1.1836 0.2354,0.33386 0.5454,0.5857 0.9276,0.75781 0.3858,0.16843 0.7981,0.239 1.2383,0.21289 0.6864,-0.0407 1.217,-0.25543 1.5938,-0.64649 0.3766,-0.39452 0.5481,-0.89821 0.5117,-1.51171 -0.035,-0.58232 -0.2246,-1.04536 -0.5684,-1.38672 -0.3402,-0.34157 -0.8905,-0.61256 -1.6504,-0.81446 -0.4883,-0.14147 -0.8521,-0.31234 -1.0937,-0.51367 -0.2415,-0.20133 -0.3717,-0.46236 -0.3906,-0.78125 -0.023,-0.38821 0.065,-0.69638 0.2636,-0.92383 0.1987,-0.22744 0.4903,-0.35218 0.875,-0.375 0.423,-0.0251 0.7537,0.085 0.9943,0.32813 0.2404,0.24313 0.3745,0.59849 0.4022,1.0664 l 0.9571,-0.0566 c -0.025,-0.42286 -0.1415,-0.80599 -0.3496,-1.14843 -0.2082,-0.34245 -0.4913,-0.60229 -0.8496,-0.7793 -0.3586,-0.18048 -0.7595,-0.25678 -1.2032,-0.23047 z" />
      <path
         id="path306200"
         style="opacity:0.4;fill:#b3b3b3;fill-opacity:1;stroke:none;stroke-width:2.14026;stroke-linecap:round;stroke-linejoin:round;stroke-miterlimit:4;stroke-dasharray:none;stroke-opacity:1;paint-order:stroke markers fill;stop-color:#000000"
         d="m 3026.0102,600.25329 c -35.4993,3e-4 -64.277,28.77805 -64.2773,64.27735 2e-4,21.62558 10.6916,40.74199 27.0644,52.39257 10.9875,8.76904 24.9021,14.02331 40.0528,14.02344 35.4992,-3e-4 64.277,-28.77814 64.2773,-64.27734 -2e-4,-21.6193 -10.6839,-40.72931 -27.0488,-52.38086 -10.9896,-8.7758 -24.9113,-14.03503 -40.0684,-14.03516 z" />
      <circle
         style="opacity:0.5;fill:none;fill-opacity:1;stroke:none;stroke-width:3.1;stroke-linecap:round;stroke-linejoin:round;stroke-miterlimit:4;stroke-dasharray:none;stroke-opacity:1;paint-order:stroke markers fill;stop-color:#000000"
         id="path186357"
         cx="-2783.6094"
         cy="1360.3929"
         r="52.98526"
         transform="rotate(-141.5274)" />
      <circle
         style="opacity:0.5;fill:none;fill-opacity:1;stroke:none;stroke-width:5.57326;stroke-linecap:round;stroke-linejoin:round;stroke-miterlimit:4;stroke-dasharray:none;stroke-opacity:1;paint-order:stroke markers fill;stop-color:#000000"
         id="path189900"
         cx="-3025.4756"
         cy="665.09448"
         r="60.77177"
         transform="scale(-1,1)" />
      <path
         id="path301411"
         style="color:#000000;fill:#999999;fill-opacity:1;stroke-linecap:round;stroke-linejoin:round;paint-order:stroke markers fill"
         d="m 3025.1713,597.93037 c -36.078,0 -65.3476,29.26966 -65.3476,65.34766 0,36.0781 29.2696,65.34765 65.3476,65.34765 36.078,0 65.3476,-29.26955 65.3476,-65.34765 0,-36.078 -29.2696,-65.34766 -65.3476,-65.34766 z m 0,2.13867 c 34.9213,0 63.2089,28.28769 63.2089,63.20899 0,34.9214 -28.2876,63.20703 -63.2089,63.20703 -34.9213,0 -63.207,-28.28563 -63.207,-63.20703 0,-34.9213 28.2857,-63.20899 63.207,-63.20899 z m 1.3085,4.57422 -4.9355,0.14258 0.023,0.82226 1.9883,-0.0566 0.1935,6.75782 0.953,-0.0273 -0.1933,-6.75781 1.9941,-0.0586 z m 1.7461,0.0957 -0.3671,7.57422 0.9512,0.0449 0.3691,-7.57421 z m 5.0742,0.36914 c -0.5447,0.0355 -1.0115,0.24542 -1.4022,0.62891 -0.5205,0.50787 -0.8489,1.26279 -0.9845,2.26758 l -0.1913,1.41406 c -0.1156,0.98646 0.014,1.78025 0.3887,2.38086 0.3782,0.59763 0.9542,0.95021 1.7284,1.05469 0.8053,0.10865 1.4629,-0.085 1.9746,-0.58008 0.5119,-0.49504 0.8382,-1.25582 0.9766,-2.28125 l 0.1837,-1.36719 c 0.1261,-1.01306 0.01,-1.82219 -0.3653,-2.42578 -0.3667,-0.60656 -0.9469,-0.96352 -1.7383,-1.07031 -0.1988,-0.0268 -0.3888,-0.0333 -0.5704,-0.0215 z m -14.826,0.0137 -0.8106,0.10742 -1.4238,7.83789 0.9707,-0.12891 0.3222,-2.03906 2.5411,-0.33789 0.8534,1.88476 0.9708,-0.1289 z m -5.2169,0.81445 -0.92,0.23047 1.4317,5.69336 -4.3867,-4.95117 -0.9296,0.23437 1.8496,7.35547 0.9296,-0.23438 -1.4258,-5.66796 4.3691,4.92773 0.9297,-0.23437 z m 20.127,0.0332 c 0.1174,-0.009 0.2412,-0.006 0.371,0.0117 0.5368,0.0724 0.9096,0.32048 1.1153,0.74414 0.2095,0.42069 0.2596,1.02934 0.1524,1.82422 l -0.1895,1.4082 c -0.1138,0.76596 -0.3242,1.31898 -0.629,1.65625 -0.3047,0.33728 -0.722,0.46995 -1.2519,0.39844 -0.5299,-0.0715 -0.901,-0.3268 -1.1153,-0.76562 -0.2104,-0.43836 -0.2637,-1.04124 -0.1601,-1.8086 l 0.1817,-1.34765 c 0.1065,-0.76345 0.3188,-1.32317 0.6367,-1.67969 0.241,-0.26705 0.5362,-0.41408 0.8887,-0.44141 z m 5.3671,0.0781 -1.9276,7.33398 0.9258,0.24219 1.4863,-5.65039 1.4512,6.42383 0.9256,0.24414 1.9297,-7.33399 -0.916,-0.24023 -1.4941,5.67578 -1.4531,-6.45117 z m -20.5097,0.44922 1.4805,3.28125 -2.0488,0.27343 z m -13.4394,2.00976 c -0.3396,-0.0164 -0.6961,0.0491 -1.0684,0.19336 -0.7478,0.28986 -1.2262,0.78312 -1.4355,1.48242 -0.2106,0.69607 -0.132,1.51752 0.2343,2.46289 l 0.5157,1.33008 c 0.375,0.91967 0.8703,1.55327 1.4883,1.89844 0.6198,0.34068 1.295,0.3702 2.0234,0.0879 0.7576,-0.29363 1.2401,-0.78228 1.4492,-1.46289 0.2091,-0.68061 0.1279,-1.502 -0.2461,-2.4668 l -0.5,-1.28711 c -0.3786,-0.94808 -0.8762,-1.5976 -1.4922,-1.94726 -0.3069,-0.17708 -0.6291,-0.27463 -0.9687,-0.29102 z m 42.162,0.0586 c -0.2803,-0.005 -0.5501,0.0465 -0.8086,0.15429 -0.5135,0.21687 -0.8789,0.60459 -1.0976,1.16406 -0.1264,0.32341 -0.1754,0.63665 -0.1446,0.93946 0.035,0.30084 0.1452,0.60074 0.3301,0.90039 0.1895,0.29768 0.4993,0.63335 0.9278,1.00586 0.4285,0.37251 0.7008,0.68903 0.8183,0.95117 0.1176,0.26214 0.1079,0.56934 -0.029,0.92188 -0.1353,0.34603 -0.3417,0.58166 -0.6173,0.70507 -0.2755,0.12342 -0.6087,0.10797 -1,-0.0449 -0.4204,-0.16431 -0.7064,-0.41529 -0.8573,-0.75391 -0.1479,-0.33734 -0.1353,-0.72356 0.035,-1.16015 l -0.8926,-0.34961 c -0.1643,0.42042 -0.2122,0.83259 -0.1425,1.23633 0.074,0.40176 0.2482,0.75983 0.5234,1.07617 0.2797,0.31437 0.6263,0.55237 1.0371,0.71289 0.6403,0.25025 1.2129,0.2775 1.7187,0.0801 0.5072,-0.20069 0.8721,-0.58773 1.0958,-1.16016 0.2122,-0.54332 0.2345,-1.04221 0.064,-1.49609 -0.1659,-0.45262 -0.5506,-0.93029 -1.1562,-1.43164 -0.3843,-0.33289 -0.6442,-0.6399 -0.7793,-0.92383 -0.1351,-0.28393 -0.1461,-0.57552 -0.029,-0.87305 0.1416,-0.36221 0.3516,-0.6051 0.6268,-0.72851 0.2761,-0.12342 0.5922,-0.11493 0.9512,0.0254 0.3946,0.15419 0.6509,0.39337 0.7676,0.71484 0.1167,0.32147 0.089,0.70013 -0.082,1.13672 l 0.8925,0.34766 c 0.1541,-0.39456 0.2098,-0.78938 0.164,-1.1875 -0.046,-0.39813 -0.1959,-0.75373 -0.4472,-1.06446 -0.2502,-0.31396 -0.5819,-0.55111 -0.9962,-0.71289 -0.3022,-0.11817 -0.5926,-0.18036 -0.873,-0.18554 z m -42.207,0.8164 c 0.2225,0.019 0.4289,0.0966 0.6212,0.23242 0.3866,0.26724 0.7257,0.77556 1.0155,1.52344 l 0.5137,1.32617 c 0.2702,0.72574 0.3521,1.30944 0.248,1.75196 -0.1039,0.44251 -0.4036,0.75988 -0.9022,0.95312 -0.4987,0.19324 -0.9483,0.15006 -1.3478,-0.13086 -0.396,-0.28217 -0.7338,-0.78388 -1.0137,-1.50586 l -0.492,-1.26758 c -0.2754,-0.71999 -0.3603,-1.31359 -0.254,-1.77929 0.1095,-0.46696 0.4096,-0.7949 0.8984,-0.98438 0.2525,-0.0979 0.4906,-0.13813 0.7129,-0.11914 z m -6.705,2.20899 c -0.3687,0.0385 -0.7496,0.16154 -1.1406,0.36914 l -1.5957,0.84765 3.5566,6.69922 1.498,-0.79687 c 0.8341,-0.44287 1.3444,-1.02201 1.5274,-1.73633 0.1813,-0.71739 0.035,-1.51798 -0.4357,-2.4043 l -0.5956,-1.12305 c -0.4705,-0.8863 -1.0508,-1.45874 -1.7421,-1.71679 -0.3466,-0.13056 -0.7036,-0.17719 -1.0723,-0.13867 z m 56.1913,0.20312 -3.7676,6.58008 0.8262,0.47461 1.6641,-2.90625 2.2246,1.27344 0.4063,-0.71094 -2.2246,-1.27344 1.2891,-2.25 2.5996,1.48828 0.4081,-0.71484 z m -56.1601,0.63672 c 0.2487,-0.0259 0.4842,0.008 0.7071,0.10156 0.4471,0.18325 0.8579,0.62666 1.2324,1.33203 l 0.6289,1.1875 c 0.3471,0.66876 0.475,1.24515 0.3828,1.73047 -0.094,0.48226 -0.4354,0.88106 -1.0274,1.19532 l -0.6778,0.35937 -2.7851,-5.24805 0.754,-0.40234 c 0.2745,-0.14572 0.5365,-0.22998 0.7851,-0.25586 z m 61.1288,2.3125 -3.1522,4.37305 c -0.4247,0.60128 -0.5917,1.179 -0.504,1.73437 0.09,0.55256 0.4384,1.04787 1.0469,1.48633 0.5944,0.42831 1.1763,0.59789 1.7462,0.50781 0.5699,-0.0901 1.0682,-0.42483 1.494,-1.0039 l 3.1504,-4.37305 -0.7773,-0.56055 -3.1308,4.34375 c -0.2985,0.41411 -0.6099,0.66052 -0.9355,0.73828 -0.321,0.077 -0.678,-0.0264 -1.0724,-0.31054 -0.3916,-0.28216 -0.6034,-0.5892 -0.6348,-0.91993 -0.026,-0.3315 0.1099,-0.70502 0.4082,-1.11914 l 3.1309,-4.34375 z m -70.285,2.37695 -0.7676,0.57227 4.5313,6.08008 3.1542,-2.34961 -0.4903,-0.65625 -2.3847,1.77734 z m 75.9042,1.83203 -5.123,5.5918 0.707,0.64649 3.9472,-4.3086 -1.707,6.35938 0.7052,0.64843 5.123,-5.59179 -0.6992,-0.64063 -3.9649,4.32813 1.7187,-6.38672 z m -80.3319,1.90625 -0.709,0.64454 5.0937,5.61718 2.9141,-2.64257 -0.5508,-0.60547 -2.2012,1.99804 z m 85.7577,3.28907 -5.7539,4.9414 1.1075,1.28711 c 0.6153,0.7165 1.2902,1.0859 2.0272,1.10742 0.7397,0.0193 1.4908,-0.2974 2.252,-0.95117 l 0.9648,-0.82812 c 0.7614,-0.65377 1.1912,-1.34702 1.2911,-2.07813 0.1025,-0.73337 -0.134,-1.4357 -0.7109,-2.10742 z m -89.4316,0.4414 -0.543,0.61133 4.0313,6.87109 0.6504,-0.73046 -1.0841,-1.75586 1.707,-1.91211 1.875,0.87109 0.6525,-0.73047 z m 89.4277,0.81836 0.5567,0.64649 c 0.4049,0.47152 0.5638,0.94575 0.4784,1.42187 -0.081,0.4765 -0.4233,0.9758 -1.0292,1.4961 l -1.0196,0.875 c -0.5762,0.48562 -1.1097,0.73724 -1.6034,0.7539 -0.4912,0.0144 -0.9561,-0.23379 -1.3927,-0.74219 l -0.498,-0.58007 z m -88.707,0.37696 3.2637,1.52343 -1.377,1.54297 z m 42.5605,0.3457 c -2.2694,0 -4.5056,0.8224 -6.1172,2.4668 l -27.1015,27.75781 c -10.2611,10.2612 6.6442,9.40631 12.7618,13.28711 2.8281,1.8418 -9.0762,4.21083 -6.6427,6.64453 2.368,2.4338 14.2727,4.66911 16.6407,7.03711 2.3679,2.4337 -4.8015,4.99979 -2.4336,7.43359 2.3023,2.4337 7.8279,0.13105 8.8144,5.65625 0.7235,4.0782 10.1302,2.03884 14.3398,-1.44726 2.6312,-2.2365 -4.5399,-2.23623 -2.1718,-4.66993 5.9199,-5.9858 11.1828,-2.6954 13.3534,-8.2207 1.1841,-2.9599 -8.9449,-5.06701 -6.248,-6.97461 6.4463,-4.5386 30.1241,-6.84076 19.2051,-17.75976 l -28.0859,-28.74414 c -1.7433,-1.6444 -4.0452,-2.4668 -6.3145,-2.4668 z m 0.2304,2.63867 c 1.6281,0.01 3.2556,0.61876 4.4395,1.80273 l 10.7208,10.91797 c 0.9865,0.9867 0.9865,3.02519 0.3944,3.61719 l -5.3261,-4.33984 -1.0528,6.3789 -4.4062,-2.36718 -7.1698,4.53906 -2.3693,-9.53906 -3.8143,8.28906 -9.5371,-0.0664 c -1.8418,0 -1.5794,-1.9089 0.328,-3.8164 3.7493,-4.144 11.0514,-11.18144 13.3536,-13.61524 1.1839,-1.2168 2.8114,-1.80898 4.4393,-1.80078 z m -46.41,2.9668 a 0.44999999,0.44999999 0 0 0 -0.2871,0.18945 c -5.2537,7.78545 -8.5345,16.73232 -9.5607,26.06836 a 0.44999999,0.44999999 0 0 0 0.3986,0.49609 0.44999999,0.44999999 0 0 0 0.4961,-0.39843 c 1.0101,-9.19099 4.2401,-17.99763 9.4121,-25.66211 a 0.44999999,0.44999999 0 0 0 -0.1211,-0.625 0.44999999,0.44999999 0 0 0 -0.3379,-0.0684 z m 96.0663,0.9414 a 0.44999999,0.44999999 0 0 0 -0.3379,0.0605 0.44999999,0.44999999 0 0 0 -0.1347,0.62305 c 4.714,7.28982 7.7021,15.56006 8.7343,24.17969 a 0.44999999,0.44999999 0 0 0 0.5,0.39257 0.44999999,0.44999999 0 0 0 0.3927,-0.5 c -1.0488,-8.75567 -4.0827,-17.15567 -8.8712,-24.56054 a 0.44999999,0.44999999 0 0 0 -0.2832,-0.19532 z m 4.7598,29.42774 -0.017,0.95898 3.2597,0.0566 -0.053,3.05274 -3.2597,-0.0586 -0.018,0.95313 7.5801,0.13476 0.017,-0.95312 -3.5058,-0.0625 0.055,-3.05078 3.5038,0.0625 0.02,-0.95899 z m -106.4102,2.21094 -7.5819,0.16406 0.021,0.95117 7.5821,-0.16211 z m 0.094,3.39453 -7.5254,0.92382 0.1152,0.95118 5.8008,-0.71289 -5.4297,3.72656 0.1172,0.95117 7.5254,-0.92383 -0.1154,-0.9414 -5.826,0.71484 5.455,-3.73828 z m 107.9159,1.53711 c -0.549,0.0153 -1.0083,0.14735 -1.377,0.39843 -0.4944,0.33084 -0.7956,0.85916 -0.9022,1.58399 -0.1158,0.78666 0.076,1.44992 0.5762,1.99023 0.5,0.53688 1.2372,0.8779 2.2127,1.02149 l 1.3615,0.19922 c 0.9789,0.14409 1.7866,0.0364 2.4258,-0.32227 0.6354,-0.35922 1.0083,-0.9137 1.119,-1.66602 0.1103,-0.74887 -0.017,-1.36054 -0.3827,-1.83203 -0.3653,-0.47492 -0.9465,-0.79164 -1.7443,-0.95117 l -0.1406,0.95313 c 0.6246,0.14455 1.0419,0.34338 1.2539,0.5957 0.2122,0.25232 0.2834,0.624 0.211,1.11523 -0.072,0.49124 -0.3302,0.83523 -0.7735,1.03321 -0.4427,0.19454 -1.0435,0.23673 -1.8027,0.125 l -1.377,-0.20313 c -0.7729,-0.11376 -1.3372,-0.33645 -1.6953,-0.66992 -0.3615,-0.33397 -0.505,-0.75768 -0.4297,-1.26953 0.065,-0.44315 0.2442,-0.75365 0.5371,-0.93164 0.293,-0.178 0.7477,-0.24213 1.3653,-0.19336 l 0.1406,-0.95313 c -0.2031,-0.0211 -0.3951,-0.0285 -0.5781,-0.0234 z m -68.8749,1.9082 c 0.5919,0 20.2596,2.63082 12.6953,4.66992 -2.8943,0.7893 -16.1816,-4.66992 -12.6953,-4.66992 z m -38.0039,3.64453 -7.3477,1.875 0.2362,0.92383 2.5138,-0.64063 1.0566,0.49805 -2.8613,2.91797 0.2813,1.10547 3.457,-3.62305 3.8438,1.56055 -0.2833,-1.10938 -3.252,-1.27734 -0.955,-0.40234 3.5469,-0.9043 z m 111.3788,2.38867 -7.9629,0.32227 -0.2187,0.78711 6.6484,4.38867 0.2617,-0.94336 -1.748,-1.09766 0.6875,-2.46875 2.0683,-0.0469 z m -3.1895,1.00196 -0.5546,1.99218 -3.045,-1.91797 z m -27.373,0.5625 c -2.2776,0.082 -4.5975,1.21746 -5.1895,3.32226 0,1.3813 10.723,2.16952 10.1309,-0.33008 -0.4276,-2.1048 -2.6639,-3.07438 -4.9414,-2.99218 z m -80.162,2.63476 c -0.2662,-0.004 -0.539,0.0481 -0.8184,0.15625 -0.3239,0.12535 -0.5866,0.302 -0.7891,0.5293 -0.1979,0.22928 -0.3435,0.51281 -0.4395,0.85156 -0.091,0.34073 -0.1302,0.79568 -0.1151,1.36328 0.015,0.56761 -0.035,0.98234 -0.1486,1.2461 -0.1138,0.26375 -0.3481,0.46492 -0.7011,0.60156 -0.3464,0.13413 -0.6584,0.14125 -0.9356,0.0215 -0.2772,-0.1198 -0.4908,-0.37577 -0.6425,-0.76758 -0.1629,-0.42094 -0.1718,-0.80247 -0.023,-1.14257 0.1488,-0.33687 0.4417,-0.58859 0.8788,-0.75782 l -0.3456,-0.89453 c -0.421,0.16296 -0.7572,0.40634 -1.0078,0.73047 -0.2462,0.32611 -0.3923,0.69661 -0.4395,1.11328 -0.043,0.41866 0.015,0.83486 0.1739,1.2461 0.248,0.64113 0.6161,1.08081 1.1035,1.32031 0.4905,0.23825 1.0225,0.24724 1.5957,0.0254 0.5439,-0.21059 0.9263,-0.53138 1.1464,-0.96289 0.2215,-0.42827 0.3131,-1.03513 0.2734,-1.82031 -0.014,-0.50828 0.038,-0.90974 0.1562,-1.20118 0.1181,-0.29143 0.3253,-0.49405 0.6232,-0.60937 0.3627,-0.1404 0.6817,-0.15115 0.9589,-0.0312 0.2772,0.1198 0.4858,0.35932 0.625,0.71875 0.1529,0.39504 0.1508,0.74559 -0.01,1.04883 -0.1582,0.30323 -0.4555,0.5378 -0.8927,0.70703 l 0.3458,0.89453 c 0.395,-0.15293 0.7238,-0.38088 0.9864,-0.68359 0.2626,-0.30272 0.4232,-0.65162 0.4823,-1.04688 0.062,-0.39651 0.014,-0.80232 -0.1464,-1.2168 -0.2347,-0.60551 -0.6054,-1.02454 -1.1133,-1.25976 -0.2529,-0.11571 -0.5132,-0.17565 -0.7794,-0.17969 z m 101.4257,0.48438 -1.5352,3.7207 7.0078,2.89453 1.5567,-3.76953 -0.7559,-0.3125 -1.1913,2.88867 -2.4845,-1.02539 1.0234,-2.48047 -0.7558,-0.31054 -1.0234,2.47851 -2.254,-0.92969 1.1739,-2.83984 z m -68.3769,2.85742 c -3.0978,0.1834 -6.4139,2.43058 -3.791,4.64648 2.4337,2.1049 6.1188,-0.46187 7.3027,-3.42187 -0.74,-0.9661 -2.1037,-1.30791 -3.5117,-1.22461 z m 40.6094,0.23828 c -3.0258,2.7626 0.5263,5.6576 3.4863,3.75 0.7893,-0.5262 -0.066,-3.0923 -3.4863,-3.75 z m -71.2306,2.48047 c -0.5688,0.0114 -1.1795,0.19077 -1.8319,0.53906 l -1.2129,0.64648 c -0.873,0.46604 -1.4593,1.03296 -1.7598,1.70118 -0.2975,0.66658 -0.2667,1.33699 0.092,2.00781 0.3566,0.66775 0.8201,1.0824 1.3945,1.24414 0.5762,0.16481 1.2325,0.0744 1.9688,-0.27148 l -0.453,-0.85157 c -0.5882,0.25493 -1.0428,0.34446 -1.3633,0.26758 -0.3206,-0.0769 -0.5963,-0.33346 -0.8301,-0.77148 -0.2338,-0.43803 -0.2333,-0.86833 0.01,-1.29102 0.2405,-0.41962 0.7001,-0.8105 1.377,-1.17187 l 1.2266,-0.65625 c 0.6891,-0.36792 1.2775,-0.52412 1.7637,-0.46875 0.4892,0.0537 0.8559,0.30922 1.0996,0.76562 0.2109,0.39514 0.2507,0.75111 0.121,1.06836 -0.1297,0.31725 -0.4587,0.64093 -0.9843,0.96875 l 0.4551,0.84961 c 0.7034,-0.4149 1.1533,-0.90349 1.3496,-1.46484 0.2009,-0.55993 0.1281,-1.16228 -0.2168,-1.8086 -0.3745,-0.70145 -0.9236,-1.12218 -1.6465,-1.25976 -0.1803,-0.0336 -0.3651,-0.0468 -0.5547,-0.043 z m 97.2871,0.61914 c -0.1387,0.005 -0.2737,0.0259 -0.4043,0.0625 -0.5254,0.14488 -0.969,0.54196 -1.33,1.1914 l -1.0333,1.85743 6.6289,3.68554 0.4649,-0.83789 -2.6817,-1.49023 0.6486,-1.16602 3.3359,0.31055 0.5,-0.89648 -0.055,-0.0293 -3.5311,-0.2832 c 0.029,-0.41684 -0.06,-0.79873 -0.2637,-1.14649 -0.2053,-0.35248 -0.5123,-0.64334 -0.922,-0.87109 -0.4892,-0.27204 -0.9411,-0.40116 -1.3574,-0.38672 z m 0.025,0.95508 c 0.2594,0.002 0.5485,0.0924 0.8673,0.26953 0.3762,0.20919 0.6185,0.48021 0.7264,0.81445 0.1101,0.33121 0.067,0.67248 -0.1268,1.02149 l -0.5625,1.00976 -2.5117,-1.39648 0.5565,-1.00196 c 0.2679,-0.48178 0.6184,-0.72065 1.0508,-0.71679 z m -3.7168,3.66015 -2.8867,4.00391 0.668,0.48242 1.1621,-1.61523 5.4843,3.95507 0.5568,-0.77343 -5.4825,-3.95313 1.166,-1.61914 z m -88.3086,1.28907 -7.6015,2.38671 0.5664,0.79883 1.9551,-0.66211 1.4804,2.0918 -1.2694,1.63086 0.5664,0.79883 4.7754,-6.37696 z m -0.8534,1.10156 -2.2148,2.83789 -1.1955,-1.6875 z m 3.7969,2.80469 -5.6036,5.10937 0.6426,0.70508 2.1933,-2.00195 1.0333,1.13281 c 0.4806,0.5062 0.9937,0.76746 1.5409,0.78515 0.5523,0.0179 1.0982,-0.21946 1.6367,-0.71093 0.5182,-0.47275 0.7972,-0.99936 0.8361,-1.58008 0.041,-0.58306 -0.1774,-1.1336 -0.6524,-1.6543 z m 81.4667,0.0371 -0.6504,0.70507 3.9394,3.62696 c 0.3756,0.34577 0.5809,0.68495 0.6193,1.01757 0.038,0.32772 -0.1063,0.67172 -0.4357,1.0293 -0.3269,0.35502 -0.6562,0.52798 -0.9883,0.51953 -0.3321,-0.0134 -0.687,-0.19329 -1.0625,-0.53906 l -3.9375,-3.62695 -0.6425,0.69726 3.9649,3.65235 c 0.5461,0.49356 1.1001,0.72965 1.6621,0.70898 0.5593,-0.023 1.0935,-0.31159 1.6016,-0.86328 0.4962,-0.53892 0.734,-1.09528 0.7129,-1.67188 -0.021,-0.57659 -0.2945,-1.1115 -0.8185,-1.60351 z m -81.4336,1.2207 0.9903,1.08594 c 0.2738,0.3001 0.3876,0.62763 0.3418,0.98437 -0.046,0.35674 -0.2363,0.68756 -0.5724,0.99414 -0.3487,0.31829 -0.6938,0.48026 -1.0331,0.48438 -0.3393,0.004 -0.652,-0.14996 -0.9375,-0.46289 l -0.9863,-1.08204 z m 4.4962,3.48242 -4.9688,5.72852 3.0801,2.67187 0.535,-0.61719 -2.3592,-2.04882 1.7596,-2.0293 2.0275,1.75781 0.535,-0.61914 -2.0252,-1.75781 1.5956,-1.83985 2.3222,2.01368 0.5391,-0.62305 z m 71.8358,1.01367 c -0.5058,0.0201 -0.9872,0.22151 -1.4453,0.60742 -0.6134,0.51679 -0.9058,1.13974 -0.877,1.86914 0.027,0.72675 0.3664,1.47852 1.0197,2.25391 l 0.9198,1.0918 c 0.6531,0.74827 1.3271,1.18447 2.0234,1.31054 0.6969,0.12118 1.3441,-0.0689 1.9415,-0.57226 0.6214,-0.5235 0.9213,-1.14187 0.8984,-1.85352 -0.023,-0.71165 -0.3685,-1.46258 -1.0351,-2.2539 l -0.8887,-1.05469 c -0.6657,-0.77399 -1.3469,-1.22646 -2.043,-1.35742 -0.1738,-0.034 -0.3451,-0.0477 -0.5137,-0.041 z m 0.072,0.88672 c 0.1106,0.003 0.221,0.0197 0.3339,0.0527 0.4523,0.12739 0.9382,0.49792 1.455,1.11133 l 0.9161,1.08789 c 0.4909,0.59888 0.7577,1.12384 0.8027,1.57618 0.045,0.45234 -0.136,0.85078 -0.5448,1.19531 -0.4091,0.34452 -0.8476,0.44869 -1.3165,0.3125 -0.4663,-0.13843 -0.9483,-0.50352 -1.4472,-1.09571 l -0.877,-1.03906 c -0.4941,-0.59175 -0.7658,-1.12462 -0.8165,-1.59961 -0.048,-0.47722 0.1285,-0.88484 0.5294,-1.22265 0.3107,-0.26175 0.6329,-0.38788 0.9649,-0.37891 z m -64.4453,3.89453 -3.8809,6.51563 3.502,2.08593 0.4198,-0.70117 -2.6855,-1.59961 1.375,-2.30859 2.3047,1.37109 0.4179,-0.70117 -2.3027,-1.37305 1.246,-2.09375 2.6408,1.57227 0.4217,-0.70703 z m 55.4453,1.53516 c -0.4116,0.0271 -0.8343,0.16044 -1.2697,0.40234 l -1.5781,0.87891 3.6817,6.6289 1.4843,-0.82421 c 0.8257,-0.45873 1.323,-1.04794 1.4923,-1.76563 0.1675,-0.72072 0.01,-1.51933 -0.4786,-2.39648 l -0.6172,-1.11133 c -0.4874,-0.87716 -1.0793,-1.43685 -1.7754,-1.68164 -0.1744,-0.062 -0.352,-0.10346 -0.5312,-0.12305 -0.1345,-0.0147 -0.2711,-0.0165 -0.4081,-0.008 z m -0.09,0.84961 c 0.2482,-0.0306 0.4843,2.3e-4 0.7089,0.0898 0.4507,0.17466 0.87,0.61052 1.2578,1.30859 l 0.6524,1.17383 c 0.36,0.662 0.4989,1.23761 0.416,1.72461 -0.085,0.48397 -0.42,0.8874 -1.0059,1.21289 l -0.6679,0.37305 -2.8867,-5.19531 0.746,-0.41407 c 0.2717,-0.15093 0.5312,-0.24281 0.7794,-0.27343 z m -50.75,0.30859 -0.9355,7.88477 0.7617,0.33984 5.2402,-5.9668 -0.9551,-0.42578 -4.0742,4.88477 0.9141,-6.29297 z m 46.0117,1.07813 -0.8829,0.34961 2.1621,5.45703 -4.9941,-4.33594 -0.8906,0.35351 2.791,7.05079 0.8907,-0.35352 -2.1504,-5.43359 4.9746,4.3164 0.8907,-0.35351 z m -39.371,1.71093 -2.2423,7.24414 3.8946,1.20704 0.2421,-0.78125 -2.9843,-0.92579 0.7948,-2.5664 2.5625,0.79297 0.2403,-0.78125 -2.5605,-0.79297 0.7206,-2.32813 2.9357,0.90821 0.2421,-0.78516 z m 30.9002,1.21485 -0.7929,0.19922 -0.5234,7.94921 0.9492,-0.23828 0.09,-2.0625 2.4843,-0.625 1.0625,1.77539 0.9512,-0.24023 z m -25.2342,0.43164 -1.3399,7.46484 0.9433,0.16992 1.0313,-5.75195 1.957,6.28711 0.9434,0.16992 1.3398,-7.46289 -0.9336,-0.16797 -1.0371,5.77735 -1.9609,-6.31641 z m 25.16,0.96094 1.8438,3.09179 -2.0059,0.50391 z m -18.6972,0.0918 -0.045,0.82032 1.9863,0.10937 -0.3692,6.75 0.9512,0.0527 0.3692,-6.75 1.9921,0.10938 0.045,-0.82227 z m 8.6269,0.0117 c -0.6482,0.0385 -1.1619,0.26373 -1.541,0.67578 -0.3756,0.41185 -0.5452,0.91599 -0.5098,1.51563 0.021,0.34661 0.1072,0.65192 0.2618,0.91406 0.1579,0.25846 0.3845,0.48491 0.6777,0.67969 0.2965,0.19111 0.7167,0.36641 1.2617,0.52539 0.5451,0.15897 0.9262,0.33258 1.1427,0.52148 0.2163,0.18891 0.3368,0.4718 0.3593,0.84961 0.022,0.37088 -0.067,0.671 -0.2657,0.89844 -0.1986,0.22744 -0.5082,0.35403 -0.9277,0.37891 -0.4505,0.0267 -0.8149,-0.0838 -1.0937,-0.32813 -0.2754,-0.24454 -0.4274,-0.60043 -0.4551,-1.06836 l -0.957,0.0566 c 0.027,0.4506 0.1564,0.84606 0.3887,1.1836 0.2354,0.33386 0.5454,0.5857 0.9276,0.75781 0.3858,0.16843 0.7981,0.239 1.2383,0.21289 0.6864,-0.0407 1.217,-0.25543 1.5938,-0.64649 0.3766,-0.39452 0.5481,-0.89821 0.5117,-1.51171 -0.035,-0.58232 -0.2246,-1.04536 -0.5684,-1.38672 -0.3402,-0.34157 -0.8905,-0.61256 -1.6504,-0.81446 -0.4883,-0.14147 -0.8521,-0.31234 -1.0937,-0.51367 -0.2415,-0.20133 -0.3717,-0.46236 -0.3906,-0.78125 -0.023,-0.38821 0.065,-0.69638 0.2636,-0.92383 0.1987,-0.22744 0.4903,-0.35218 0.875,-0.375 0.423,-0.0251 0.7537,0.085 0.9943,0.32813 0.2404,0.24313 0.3745,0.59849 0.4022,1.0664 l 0.9571,-0.0566 c -0.025,-0.42286 -0.1415,-0.80599 -0.3496,-1.14843 -0.2082,-0.34245 -0.4913,-0.60229 -0.8496,-0.7793 -0.3586,-0.18048 -0.7595,-0.25678 -1.2032,-0.23047 z" />
    </g>
  </g>
</svg>
