<?xml version="1.0" encoding="UTF-8" standalone="no"?>
<svg
   width="700.00037"
   height="220"
   viewBox="0 0 185.20843 58.208335"
   version="1.1"
   id="svg243962"
   xmlns="http://www.w3.org/2000/svg"
   xmlns:svg="http://www.w3.org/2000/svg">
  <defs
     id="defs243959" />
  <g
     id="layer1"
     transform="translate(-18.957616,-31.677996)">
    <g
       id="layer3"
       style="display:inline">
      <g
         aria-label="Bun venit!"
         transform="matrix(0.26458334,0,0,0.26458334,-116.4687,-316.66515)"
         id="text118971"
         style="font-size:45.8136px;line-height:1.25;font-family:'Roboto Condensed';-inkscape-font-specification:'Roboto Condensed, ';fill:#386582;stroke-width:1.14534">
        <path
           d="m 598.96414,1393.0171 q 0,2.1075 -0.87045,3.6651 -0.87046,1.5577 -2.38231,2.6114 -1.51185,1.0079 -3.52765,1.5577 -2.0158,0.5039 -4.26066,0.5039 h -15.85151 v -32.5276 h 18.09637 q 1.69511,0 3.06952,0.733 1.3744,0.733 2.33649,1.9242 0.96208,1.1453 1.46603,2.6571 0.54977,1.4661 0.54977,3.0237 0,2.3365 -1.19116,4.3982 -1.14534,2.0616 -3.48183,3.1153 2.79463,0.8246 4.39811,2.932 1.64928,2.1075 1.64928,5.406 z m -7.65087,-1.5118 q 0,-1.5118 -0.87045,-2.5656 -0.87046,-1.0537 -2.19906,-1.0537 h -8.65877 v 7.1011 h 8.33808 q 1.46603,0 2.42812,-0.9621 0.96208,-0.962 0.96208,-2.5197 z m -11.72828,-16.2638 v 6.7346 h 7.37599 q 1.23697,0 2.19905,-0.8247 0.96209,-0.8246 0.96209,-2.5655 0,-1.6035 -0.87046,-2.474 -0.82464,-0.8704 -2.0158,-0.8704 z"
           style="font-weight:bold;font-family:Raleway;-inkscape-font-specification:Raleway"
           id="path3480" />
        <path
           d="m 610.09676,1401.8134 q -3.7109,0 -5.63507,-2.2907 -1.87836,-2.3365 -1.87836,-6.8262 v -15.3934 h 7.33018 v 13.7899 q 0,2.199 0.87046,3.3902 0.87045,1.1453 2.47393,1.1453 1.46604,0 2.84044,-0.7788 1.37441,-0.7788 2.42812,-2.703 v -14.8436 h 7.33018 v 15.8057 q 0,1.0995 0.3207,1.5576 0.3665,0.4124 1.23696,0.504 v 6.1848 q -1.05371,0.2291 -1.78673,0.2749 -0.73302,0.092 -1.32859,0.092 -3.93997,0 -4.48973,-3.0695 l -0.13745,-1.466 q -1.64929,2.3823 -4.12322,3.5276 -2.42812,1.0996 -5.45182,1.0996 z"
           style="font-weight:bold;font-family:Raleway;-inkscape-font-specification:Raleway"
           id="path3482" />
        <path
           d="m 654.71916,1401.3552 h -7.33018 v -13.515 q 0,-2.3823 -0.91627,-3.436 -0.87046,-1.0995 -2.33649,-1.0995 -0.77883,0 -1.55766,0.3207 -0.77884,0.3207 -1.51185,0.9162 -0.73302,0.5498 -1.3286,1.3286 -0.54976,0.7789 -0.87046,1.6951 v 13.7899 h -7.33017 v -24.0521 h 6.59716 v 4.0316 q 1.32859,-2.1533 3.75671,-3.2986 2.42812,-1.1912 5.58926,-1.1912 2.33649,0 3.75672,0.8705 1.42022,0.8247 2.19905,2.1991 0.77883,1.3286 1.0079,2.932 0.27488,1.6035 0.27488,3.1154 z"
           style="font-weight:bold;font-family:Raleway;-inkscape-font-specification:Raleway"
           id="path3484" />
        <path
           d="m 675.2436,1401.3552 -8.52133,-24.0521 h 7.55924 l 5.26857,18.188 5.31438,-18.188 h 6.82622 l -8.47551,24.0521 z"
           style="font-weight:bold;font-family:Raleway;-inkscape-font-specification:Raleway"
           id="path3486" />
        <path
           d="m 705.1598,1401.8134 q -3.0237,0 -5.45182,-0.9621 -2.38231,-1.0079 -4.07741,-2.703 -1.64929,-1.6951 -2.51975,-3.8942 -0.87046,-2.2448 -0.87046,-4.673 0,-2.6113 0.87046,-4.902 0.87046,-2.3365 2.51975,-4.0774 1.64929,-1.741 4.0316,-2.7489 2.42812,-1.0079 5.49763,-1.0079 3.06951,0 5.45182,1.0079 2.38231,1.0079 4.03159,2.7489 1.64929,1.6951 2.47394,3.9399 0.87046,2.2449 0.87046,4.7188 0,0.6414 -0.0458,1.2828 -0.0458,0.5956 -0.13744,1.0537 h -17.77567 q 0.18325,2.4281 1.74091,3.7109 1.60348,1.237 3.61928,1.237 1.60347,0 3.06951,-0.7788 1.51185,-0.7789 2.0158,-2.1075 l 6.23065,1.741 q -1.42022,2.8404 -4.39811,4.6271 -2.97788,1.7868 -7.14692,1.7868 z m 5.08531,-14.752 q -0.22907,-2.2907 -1.64929,-3.6193 -1.42022,-1.3286 -3.52765,-1.3286 -2.15324,0 -3.57346,1.3744 -1.37441,1.3286 -1.60347,3.5735 z"
           style="font-weight:bold;font-family:Raleway;-inkscape-font-specification:Raleway"
           id="path3488" />
        <path
           d="m 744.51359,1401.3552 h -7.33017 v -13.515 q 0,-2.3823 -0.91627,-3.436 -0.87046,-1.0995 -2.3365,-1.0995 -0.77883,0 -1.55766,0.3207 -0.77883,0.3207 -1.51185,0.9162 -0.73302,0.5498 -1.32859,1.3286 -0.54977,0.7789 -0.87046,1.6951 v 13.7899 h -7.33018 v -24.0521 h 6.59716 v 4.0316 q 1.32859,-2.1533 3.75672,-3.2986 2.42812,-1.1912 5.58925,-1.1912 2.3365,0 3.75672,0.8705 1.42022,0.8247 2.19905,2.1991 0.77883,1.3286 1.0079,2.932 0.27488,1.6035 0.27488,3.1154 z"
           style="font-weight:bold;font-family:Raleway;-inkscape-font-specification:Raleway"
           id="path3490" />
        <path
           d="m 749.36982,1401.3552 v -24.0521 h 7.33017 v 24.0521 z m 0,-26.8009 v -6.643 h 7.33017 v 6.643 z"
           style="font-weight:bold;font-family:Raleway;-inkscape-font-specification:Raleway"
           id="path3492" />
        <path
           d="m 777.31604,1400.0724 q -1.51185,0.6414 -3.48184,1.1912 -1.92417,0.5498 -3.89415,0.5498 -1.37441,0 -2.61138,-0.3665 -1.19115,-0.3207 -2.10742,-1.0538 -0.91628,-0.7788 -1.46604,-2.0158 -0.50395,-1.2369 -0.50395,-2.9778 v -12.553 h -3.06951 v -5.5434 h 3.06951 v -7.6509 h 7.33018 v 7.6509 h 4.90205 v 5.5434 h -4.90205 v 10.0332 q 0,1.1912 0.59557,1.7409 0.59558,0.504 1.51185,0.504 0.82465,0 1.69511,-0.2749 0.87046,-0.2749 1.51185,-0.5956 z"
           style="font-weight:bold;font-family:Raleway;-inkscape-font-specification:Raleway"
           id="path3494" />
        <path
           d="m 781.57664,1388.4358 v -19.9289 h 7.33018 v 19.9289 z m 0,12.9194 v -7.605 h 7.33018 v 7.605 z"
           style="font-weight:bold;font-family:Raleway;-inkscape-font-specification:Raleway"
           id="path3496" />
      </g>
      <g
         aria-label="Câteva configurări de bază..."
         id="text115541"
         style="font-size:5.02259px;line-height:1.25;font-family:'Roboto Condensed';-inkscape-font-specification:'Roboto Condensed, ';fill:#386582;stroke-width:0.125564">
        <path
           d="m 34.891881,57.923226 q 0,-0.321445 0.120542,-0.637868 0.120543,-0.321446 0.351582,-0.572576 0.231039,-0.251129 0.56253,-0.40683 0.331491,-0.1557 0.753388,-0.1557 0.502259,0 0.868908,0.215972 0.371672,0.215971 0.552485,0.56253 l -0.632846,0.441988 q -0.06027,-0.140633 -0.1557,-0.23104 -0.09041,-0.09543 -0.200904,-0.150677 -0.110497,-0.06027 -0.226016,-0.08036 -0.11552,-0.02511 -0.226017,-0.02511 -0.236062,0 -0.411852,0.09543 -0.175791,0.09543 -0.291311,0.246106 -0.115519,0.150678 -0.170768,0.341537 -0.05525,0.190858 -0.05525,0.386739 0,0.210949 0.06529,0.40683 0.06529,0.195881 0.185835,0.346559 0.125565,0.150677 0.296333,0.241084 0.175791,0.08538 0.391762,0.08538 0.110497,0 0.226017,-0.02511 0.120542,-0.03014 0.226016,-0.08538 0.110497,-0.06027 0.200904,-0.150678 0.09041,-0.09543 0.145655,-0.231039 l 0.673027,0.396785 q -0.08036,0.195881 -0.241084,0.351581 -0.1557,0.1557 -0.361627,0.261175 -0.205926,0.105474 -0.436965,0.160723 -0.231039,0.05525 -0.452033,0.05525 -0.38674,0 -0.713208,-0.1557 -0.321446,-0.160723 -0.557507,-0.421898 -0.23104,-0.261174 -0.361627,-0.592665 -0.125565,-0.331491 -0.125565,-0.673028 z"
           style="font-weight:bold;font-family:Raleway;-inkscape-font-specification:Raleway"
           id="path3517" />
        <path
           d="m 39.23642,59.786607 q -0.195881,0 -0.366649,-0.06027 -0.165745,-0.06529 -0.286287,-0.17579 -0.120542,-0.11552 -0.190859,-0.266198 -0.07032,-0.1557 -0.07032,-0.336513 0,-0.195881 0.08036,-0.356604 0.08538,-0.160723 0.236062,-0.276242 0.150678,-0.11552 0.356604,-0.180814 0.205926,-0.06529 0.457056,-0.06529 0.165745,0 0.321446,0.03014 0.1557,0.02511 0.271219,0.08036 v -0.120543 q 0,-0.457055 -0.527372,-0.457055 -0.215971,0 -0.411852,0.07534 -0.195881,0.07032 -0.411852,0.215971 l -0.236062,-0.502259 q 0.261175,-0.170768 0.54244,-0.256152 0.281265,-0.08538 0.597688,-0.08538 0.597688,0 0.924156,0.281265 0.326469,0.281265 0.326469,0.823705 v 0.678049 q 0,0.120542 0.03516,0.170768 0.04018,0.0452 0.13561,0.05525 v 0.67805 q -0.105474,0.02511 -0.190859,0.03014 -0.08538,0.01004 -0.1557,0.01004 -0.226016,0 -0.341536,-0.08538 -0.11552,-0.09041 -0.145655,-0.251129 l -0.01507,-0.120542 q -0.17579,0.226016 -0.421897,0.346558 -0.241085,0.120542 -0.512305,0.120542 z m 0.236062,-0.577597 q 0.130587,0 0.25113,-0.0452 0.125564,-0.0452 0.205926,-0.120542 0.115519,-0.09041 0.115519,-0.190858 v -0.25113 q -0.105474,-0.04018 -0.231039,-0.06027 -0.120542,-0.02511 -0.226016,-0.02511 -0.220994,0 -0.366649,0.100452 -0.140633,0.100452 -0.140633,0.261175 0,0.145655 0.110497,0.241084 0.110497,0.09041 0.281265,0.09041 z m -0.713208,-2.59668 0.552485,-0.542439 h 0.577598 l 0.547462,0.542439 -0.411852,0.180814 -0.42692,-0.316423 -0.42692,0.316423 z"
           style="font-weight:bold;font-family:Raleway;-inkscape-font-specification:Raleway"
           id="path3519" />
        <path
           d="m 43.118867,59.595749 q -0.165745,0.07032 -0.381717,0.130587 -0.210949,0.06027 -0.42692,0.06027 -0.150678,0 -0.286288,-0.04018 -0.130587,-0.03516 -0.231039,-0.11552 -0.100452,-0.08538 -0.160723,-0.220994 -0.05525,-0.13561 -0.05525,-0.326468 v -1.37619 h -0.336514 v -0.607733 h 0.336514 v -0.838773 h 0.803614 v 0.838773 h 0.537417 v 0.607733 h -0.537417 v 1.099947 q 0,0.130588 0.06529,0.190859 0.06529,0.05525 0.165745,0.05525 0.09041,0 0.185836,-0.03014 0.09543,-0.03014 0.165746,-0.06529 z"
           style="font-weight:bold;font-family:Raleway;-inkscape-font-specification:Raleway"
           id="path3521" />
        <path
           d="m 44.625634,59.786607 q -0.331491,0 -0.597688,-0.105474 -0.261175,-0.110497 -0.447011,-0.296333 -0.180813,-0.185836 -0.276242,-0.42692 -0.09543,-0.246107 -0.09543,-0.512304 0,-0.286288 0.09543,-0.537417 0.09543,-0.256152 0.276242,-0.447011 0.180813,-0.190858 0.441988,-0.301355 0.266197,-0.110497 0.602711,-0.110497 0.336513,0 0.597688,0.110497 0.261175,0.110497 0.441988,0.301355 0.180813,0.185836 0.27122,0.431943 0.09543,0.246107 0.09543,0.517327 0,0.07032 -0.005,0.140632 -0.005,0.06529 -0.01507,0.11552 h -1.948765 q 0.02009,0.266197 0.190858,0.40683 0.175791,0.13561 0.396785,0.13561 0.17579,0 0.336513,-0.08538 0.165746,-0.08539 0.220994,-0.23104 l 0.683073,0.190859 q -0.155701,0.3114 -0.482169,0.507281 -0.326468,0.195881 -0.783524,0.195881 z m 0.557507,-1.617274 q -0.02511,-0.251129 -0.180813,-0.396784 -0.1557,-0.145655 -0.386739,-0.145655 -0.236062,0 -0.391762,0.150677 -0.150678,0.145655 -0.175791,0.391762 z"
           style="font-weight:bold;font-family:Raleway;-inkscape-font-specification:Raleway"
           id="path3523" />
        <path
           d="m 47.011346,59.736382 -0.934202,-2.63686 h 0.828728 l 0.577598,1.993968 0.58262,-1.993968 h 0.748366 l -0.929179,2.63686 z"
           style="font-weight:bold;font-family:Raleway;-inkscape-font-specification:Raleway"
           id="path3525" />
        <path
           d="m 49.803902,59.786607 q -0.195881,0 -0.366649,-0.06027 -0.165745,-0.06529 -0.286287,-0.17579 -0.120542,-0.11552 -0.190859,-0.266198 -0.07032,-0.1557 -0.07032,-0.336513 0,-0.195881 0.08036,-0.356604 0.08538,-0.160723 0.236062,-0.276242 0.150678,-0.11552 0.356604,-0.180814 0.205926,-0.06529 0.457056,-0.06529 0.165745,0 0.321446,0.03014 0.1557,0.02511 0.271219,0.08036 v -0.120543 q 0,-0.457055 -0.527372,-0.457055 -0.215971,0 -0.411852,0.07534 -0.195881,0.07032 -0.411852,0.215971 l -0.236062,-0.502259 q 0.261175,-0.170768 0.54244,-0.256152 0.281265,-0.08538 0.597688,-0.08538 0.597688,0 0.924156,0.281265 0.326469,0.281265 0.326469,0.823705 v 0.678049 q 0,0.120542 0.03516,0.170768 0.04018,0.0452 0.13561,0.05525 v 0.67805 q -0.105474,0.02511 -0.190859,0.03014 -0.08538,0.01004 -0.1557,0.01004 -0.226016,0 -0.341536,-0.08538 -0.11552,-0.09041 -0.145655,-0.251129 l -0.01507,-0.120542 q -0.17579,0.226016 -0.421897,0.346558 -0.241085,0.120542 -0.512305,0.120542 z m 0.236062,-0.577597 q 0.130587,0 0.25113,-0.0452 0.125564,-0.0452 0.205926,-0.120542 0.115519,-0.09041 0.115519,-0.190858 v -0.25113 q -0.105474,-0.04018 -0.231039,-0.06027 -0.120542,-0.02511 -0.226016,-0.02511 -0.220994,0 -0.366649,0.100452 -0.140633,0.100452 -0.140633,0.261175 0,0.145655 0.110497,0.241084 0.110497,0.09041 0.281265,0.09041 z"
           style="font-weight:bold;font-family:Raleway;-inkscape-font-specification:Raleway"
           id="path3527" />
        <path
           d="m 53.01333,58.41544 q 0,-0.27122 0.09543,-0.517326 0.09543,-0.25113 0.276243,-0.436966 0.180813,-0.190858 0.441988,-0.301355 0.266197,-0.110497 0.602711,-0.110497 0.457055,0 0.768456,0.195881 0.3114,0.190858 0.467101,0.502259 l -0.783524,0.236062 q -0.155701,-0.25113 -0.457056,-0.25113 -0.25113,0 -0.421898,0.185836 -0.165745,0.185836 -0.165745,0.497236 0,0.155701 0.0452,0.286288 0.0452,0.125565 0.125565,0.215971 0.08036,0.09041 0.185836,0.140633 0.110497,0.05023 0.231039,0.05023 0.150678,0 0.276242,-0.07032 0.125565,-0.07534 0.185836,-0.190858 l 0.783524,0.241084 q -0.145655,0.306378 -0.467101,0.502259 -0.316423,0.195881 -0.773478,0.195881 -0.331491,0 -0.597689,-0.110497 -0.261174,-0.115519 -0.44701,-0.301355 -0.180813,-0.190858 -0.276243,-0.436965 -0.09543,-0.25113 -0.09543,-0.52235 z"
           style="font-weight:bold;font-family:Raleway;-inkscape-font-specification:Raleway"
           id="path3529" />
        <path
           d="m 57.262433,59.786607 q -0.336513,0 -0.602711,-0.110497 -0.261174,-0.110497 -0.441988,-0.296332 -0.180813,-0.190859 -0.276242,-0.436966 -0.09041,-0.251129 -0.09041,-0.522349 0,-0.27122 0.09041,-0.517327 0.09543,-0.251129 0.276242,-0.436965 0.180814,-0.190859 0.441988,-0.301356 0.266198,-0.115519 0.602711,-0.115519 0.336514,0 0.597688,0.115519 0.261175,0.110497 0.441988,0.301356 0.180814,0.185836 0.276243,0.436965 0.09543,0.246107 0.09543,0.517327 0,0.27122 -0.09543,0.522349 -0.09041,0.246107 -0.27122,0.436966 -0.180813,0.185835 -0.447011,0.296332 -0.261174,0.110497 -0.597688,0.110497 z M 56.67479,58.420463 q 0,0.3114 0.165746,0.502259 0.165745,0.185836 0.421897,0.185836 0.125565,0 0.231039,-0.05023 0.105475,-0.05023 0.180814,-0.140633 0.08036,-0.09041 0.125564,-0.215971 0.0452,-0.130587 0.0452,-0.281265 0,-0.311401 -0.165746,-0.497237 -0.165745,-0.190858 -0.416875,-0.190858 -0.125565,0 -0.236062,0.05023 -0.105474,0.05023 -0.185835,0.140632 -0.07534,0.09041 -0.120543,0.220994 -0.0452,0.125565 -0.0452,0.276243 z"
           style="font-weight:bold;font-family:Raleway;-inkscape-font-specification:Raleway"
           id="path3531" />
        <path
           d="m 61.61199,59.736382 h -0.803614 v -1.481665 q 0,-0.261174 -0.100452,-0.376694 -0.09543,-0.120542 -0.256152,-0.120542 -0.08538,0 -0.170768,0.03516 -0.08538,0.03516 -0.165746,0.100452 -0.08036,0.06027 -0.145655,0.145655 -0.06027,0.08538 -0.09543,0.185836 v 1.5118 H 59.07056 v -2.63686 h 0.723253 v 0.441988 q 0.145655,-0.236062 0.411852,-0.361627 0.266197,-0.130587 0.612756,-0.130587 0.256152,0 0.411852,0.09543 0.155701,0.09041 0.241085,0.241084 0.08538,0.145655 0.110497,0.321446 0.03014,0.175791 0.03014,0.341536 z"
           style="font-weight:bold;font-family:Raleway;-inkscape-font-specification:Raleway"
           id="path3533" />
        <path
           d="m 62.290032,57.923226 h -0.336514 v -0.607733 h 0.336514 v -0.215971 q 0,-0.231039 0.08036,-0.42692 0.08036,-0.200904 0.226017,-0.346559 0.150678,-0.145655 0.361626,-0.226017 0.210949,-0.08036 0.467101,-0.08036 0.286288,0 0.537417,0.09543 0.256153,0.09543 0.517327,0.266197 l -0.3114,0.607734 q -0.150678,-0.130588 -0.336514,-0.210949 -0.180813,-0.08036 -0.356604,-0.08036 -0.190858,0 -0.286287,0.105475 -0.09543,0.105474 -0.09543,0.266197 v 0.246107 h 1.456551 v 2.420889 h -0.803614 v -1.813156 h -0.652937 v 1.813156 h -0.803614 z"
           style="font-weight:bold;font-family:Raleway;-inkscape-font-specification:Raleway"
           id="path3535" />
        <path
           d="m 66.12226,59.746427 q -0.261175,0 -0.477146,-0.105475 -0.215971,-0.105474 -0.371672,-0.286287 -0.150677,-0.180814 -0.236061,-0.421898 -0.08538,-0.241084 -0.08538,-0.517327 0,-0.29131 0.09041,-0.537417 0.09041,-0.251129 0.25113,-0.431943 0.160723,-0.185835 0.386739,-0.29131 0.226017,-0.105474 0.497237,-0.105474 0.301355,0 0.522349,0.130587 0.226017,0.125565 0.361626,0.351581 v -0.431942 h 0.69814 v 2.456046 q 0,0.301356 -0.115519,0.54244 -0.110497,0.241084 -0.311401,0.40683 -0.200903,0.170768 -0.482168,0.261175 -0.281265,0.09041 -0.617779,0.09041 -0.42692,0 -0.728276,-0.13561 -0.301355,-0.13561 -0.527371,-0.391762 l 0.431942,-0.436965 q 0.145655,0.165745 0.361627,0.261175 0.215971,0.100451 0.462078,0.100451 0.145655,0 0.276243,-0.04018 0.130587,-0.04018 0.231039,-0.125565 0.100451,-0.08036 0.1557,-0.215972 0.06027,-0.130587 0.06027,-0.316423 v -0.256152 q -0.120542,0.220994 -0.346559,0.336514 -0.226016,0.110497 -0.487191,0.110497 z m 0.276243,-0.637869 q 0.185835,0 0.33149,-0.100452 0.145656,-0.105474 0.226017,-0.266197 v -0.552485 q -0.08036,-0.210949 -0.246107,-0.331491 -0.165745,-0.125565 -0.351581,-0.125565 -0.130588,0 -0.241085,0.06027 -0.105474,0.05525 -0.185835,0.1557 -0.07534,0.09543 -0.120543,0.226017 -0.04018,0.125565 -0.04018,0.261175 0,0.145655 0.0452,0.27122 0.05023,0.120542 0.13561,0.210948 0.08538,0.09041 0.195881,0.140633 0.11552,0.05023 0.25113,0.05023 z"
           style="font-weight:bold;font-family:Raleway;-inkscape-font-specification:Raleway"
           id="path3537" />
        <path
           d="m 69.1107,59.786607 q -0.40683,0 -0.617779,-0.251129 -0.205926,-0.256152 -0.205926,-0.748366 v -1.68759 h 0.803615 v 1.511799 q 0,0.241085 0.09543,0.371672 0.09543,0.125565 0.27122,0.125565 0.160723,0 0.3114,-0.08538 0.150678,-0.08538 0.266198,-0.296333 v -1.627319 h 0.803614 v 1.732793 q 0,0.120542 0.03516,0.170768 0.04018,0.0452 0.13561,0.05525 v 0.67805 q -0.115519,0.02511 -0.195881,0.03014 -0.08036,0.01004 -0.145655,0.01004 -0.431943,0 -0.492214,-0.336513 l -0.01507,-0.160723 q -0.180813,0.261175 -0.452033,0.386739 -0.266197,0.120542 -0.597688,0.120542 z"
           style="font-weight:bold;font-family:Raleway;-inkscape-font-specification:Raleway"
           id="path3539" />
        <path
           d="m 73.133789,57.787617 q -0.29131,0.005 -0.527372,0.09543 -0.236061,0.09041 -0.341536,0.27122 v 1.582116 h -0.803614 v -2.63686 h 0.73832 v 0.532394 q 0.13561,-0.266197 0.346559,-0.416875 0.215972,-0.150677 0.457056,-0.1557 0.05525,0 0.08036,0 0.02511,0 0.05023,0.005 z"
           style="font-weight:bold;font-family:Raleway;-inkscape-font-specification:Raleway"
           id="path3541" />
        <path
           d="m 74.183498,59.786607 q -0.195881,0 -0.366649,-0.06027 -0.165745,-0.06529 -0.286288,-0.17579 -0.120542,-0.11552 -0.190858,-0.266198 -0.07032,-0.1557 -0.07032,-0.336513 0,-0.195881 0.08036,-0.356604 0.08538,-0.160723 0.236062,-0.276242 0.150678,-0.11552 0.356604,-0.180814 0.205926,-0.06529 0.457056,-0.06529 0.165745,0 0.321445,0.03014 0.155701,0.02511 0.27122,0.08036 v -0.120543 q 0,-0.457055 -0.527372,-0.457055 -0.215971,0 -0.411852,0.07534 -0.195881,0.07032 -0.411853,0.215971 l -0.236061,-0.502259 q 0.261174,-0.170768 0.542439,-0.256152 0.281265,-0.08538 0.597689,-0.08538 0.597688,0 0.924156,0.281265 0.326469,0.281265 0.326469,0.823705 v 0.678049 q 0,0.120542 0.03516,0.170768 0.04018,0.0452 0.13561,0.05525 v 0.67805 q -0.105475,0.02511 -0.190859,0.03014 -0.08538,0.01004 -0.1557,0.01004 -0.226017,0 -0.341536,-0.08538 -0.11552,-0.09041 -0.145655,-0.251129 L 75.1177,59.319507 q -0.175791,0.226016 -0.421898,0.346558 -0.241084,0.120542 -0.512304,0.120542 z M 74.41956,59.20901 q 0.130587,0 0.251129,-0.0452 0.125565,-0.0452 0.205927,-0.120542 0.115519,-0.09041 0.115519,-0.190858 v -0.25113 q -0.105474,-0.04018 -0.231039,-0.06027 -0.120542,-0.02511 -0.226017,-0.02511 -0.220993,0 -0.366649,0.100452 -0.140632,0.100452 -0.140632,0.261175 0,0.145655 0.110497,0.241084 0.110497,0.09041 0.281265,0.09041 z m 0.120542,-2.75238 q 0.11552,0 0.200904,-0.105474 0.09041,-0.110497 0.105474,-0.281265 h 0.416875 q 0,0.160723 -0.05525,0.296333 -0.05023,0.135609 -0.145656,0.236061 -0.09543,0.09543 -0.231039,0.150678 -0.130587,0.05525 -0.29131,0.05525 -0.160723,0 -0.29131,-0.05525 -0.130588,-0.05525 -0.231039,-0.150678 -0.09543,-0.100452 -0.150678,-0.236061 -0.05023,-0.13561 -0.05023,-0.296333 h 0.42692 q 0,0.160723 0.08538,0.276242 0.09041,0.110497 0.210949,0.110497 z"
           style="font-weight:bold;font-family:Raleway;-inkscape-font-specification:Raleway"
           id="path3543" />
        <path
           d="m 78.050884,57.787617 q -0.29131,0.005 -0.527372,0.09543 -0.236061,0.09041 -0.341536,0.27122 v 1.582116 h -0.803614 v -2.63686 h 0.738321 v 0.532394 q 0.13561,-0.266197 0.346558,-0.416875 0.215972,-0.150677 0.457056,-0.1557 0.05525,0 0.08036,0 0.02511,0 0.05022,0.005 z"
           style="font-weight:bold;font-family:Raleway;-inkscape-font-specification:Raleway"
           id="path3545" />
        <path
           d="m 78.387395,59.736382 v -2.63686 h 0.803615 v 2.63686 z m 0,-2.938216 v -0.728275 h 0.803615 v 0.728275 z"
           style="font-weight:bold;font-family:Raleway;-inkscape-font-specification:Raleway"
           id="path3547" />
        <path
           d="m 82.008676,59.786607 q -0.27122,0 -0.50226,-0.100451 -0.226016,-0.105475 -0.391762,-0.291311 -0.165745,-0.185835 -0.261174,-0.431942 -0.09041,-0.25113 -0.09041,-0.547463 0,-0.286287 0.08538,-0.537417 0.08538,-0.251129 0.241085,-0.431943 0.1557,-0.185835 0.366649,-0.29131 0.215971,-0.105474 0.472123,-0.105474 0.276243,0 0.497236,0.130587 0.226017,0.130587 0.346559,0.351581 v -1.461573 h 0.803615 v 2.762424 q 0,0.120542 0.03516,0.170768 0.04018,0.0452 0.13561,0.05525 v 0.67805 q -0.110497,0.02511 -0.190859,0.03014 -0.08036,0.01004 -0.150677,0.01004 -0.210949,0 -0.341537,-0.08538 -0.130587,-0.09041 -0.150677,-0.256152 l -0.01507,-0.13561 q -0.140633,0.246107 -0.381717,0.366649 -0.236062,0.120542 -0.507281,0.120542 z m 0.215971,-0.678049 q 0.165745,0 0.316423,-0.09543 0.1557,-0.100452 0.236062,-0.27122 v -0.552485 q -0.07534,-0.200904 -0.246107,-0.326469 -0.165746,-0.130587 -0.346559,-0.130587 -0.130587,0 -0.241084,0.06027 -0.105475,0.05525 -0.185836,0.150678 -0.08036,0.09543 -0.125565,0.220994 -0.04018,0.125565 -0.04018,0.266197 0,0.145655 0.0452,0.27122 0.05023,0.125565 0.130587,0.215971 0.08538,0.09041 0.200904,0.140633 0.120542,0.05023 0.256152,0.05023 z"
           style="font-weight:bold;font-family:Raleway;-inkscape-font-specification:Raleway"
           id="path3549" />
        <path
           d="m 85.459192,59.786607 q -0.331491,0 -0.597688,-0.105474 -0.261175,-0.110497 -0.447011,-0.296333 -0.180813,-0.185836 -0.276242,-0.42692 -0.09543,-0.246107 -0.09543,-0.512304 0,-0.286288 0.09543,-0.537417 0.09543,-0.256152 0.276242,-0.447011 0.180813,-0.190858 0.441988,-0.301355 0.266197,-0.110497 0.602711,-0.110497 0.336513,0 0.597688,0.110497 0.261175,0.110497 0.441988,0.301355 0.180813,0.185836 0.27122,0.431943 0.09543,0.246107 0.09543,0.517327 0,0.07032 -0.005,0.140632 -0.005,0.06529 -0.01507,0.11552 h -1.948765 q 0.02009,0.266197 0.190858,0.40683 0.175791,0.13561 0.396785,0.13561 0.175791,0 0.336513,-0.08538 0.165746,-0.08539 0.220994,-0.23104 l 0.683073,0.190859 q -0.155701,0.3114 -0.482169,0.507281 -0.326468,0.195881 -0.783524,0.195881 z m 0.557507,-1.617274 q -0.02511,-0.251129 -0.180813,-0.396784 -0.1557,-0.145655 -0.386739,-0.145655 -0.236062,0 -0.391762,0.150677 -0.150678,0.145655 -0.175791,0.391762 z"
           style="font-weight:bold;font-family:Raleway;-inkscape-font-specification:Raleway"
           id="path3551" />
        <path
           d="m 89.984537,59.786607 q -0.301355,0 -0.527372,-0.125564 -0.226016,-0.130588 -0.356604,-0.361627 v 0.436966 h -0.69814 v -3.666491 h 0.803615 v 1.461573 q 0.130587,-0.226016 0.346558,-0.351581 0.220994,-0.130587 0.517327,-0.130587 0.25113,0 0.462078,0.110497 0.210949,0.105474 0.361627,0.29131 0.150678,0.185836 0.236062,0.441988 0.08538,0.251129 0.08538,0.537417 0,0.286288 -0.09543,0.537417 -0.09041,0.246107 -0.256152,0.431943 -0.165745,0.180813 -0.391762,0.286288 -0.226016,0.100451 -0.487191,0.100451 z m -0.226016,-0.678049 q 0.140632,0 0.256152,-0.05023 0.115519,-0.05525 0.195881,-0.145655 0.08538,-0.09041 0.130587,-0.210949 0.05023,-0.125565 0.05023,-0.27122 0,-0.140632 -0.0452,-0.266197 -0.0452,-0.130588 -0.125565,-0.226017 -0.07534,-0.09543 -0.185836,-0.150677 -0.110497,-0.05525 -0.236062,-0.05525 -0.190858,0 -0.351581,0.130587 -0.1557,0.130588 -0.241084,0.326469 v 0.552485 q 0.08036,0.170768 0.231039,0.27122 0.1557,0.09543 0.321446,0.09543 z"
           style="font-weight:bold;font-family:Raleway;-inkscape-font-specification:Raleway"
           id="path3553" />
        <path
           d="m 92.365242,59.786607 q -0.195881,0 -0.366649,-0.06027 -0.165746,-0.06529 -0.286288,-0.17579 -0.120542,-0.11552 -0.190858,-0.266198 -0.07032,-0.1557 -0.07032,-0.336513 0,-0.195881 0.08036,-0.356604 0.08538,-0.160723 0.236062,-0.276242 0.150677,-0.11552 0.356603,-0.180814 0.205927,-0.06529 0.457056,-0.06529 0.165746,0 0.321446,0.03014 0.1557,0.02511 0.27122,0.08036 v -0.120543 q 0,-0.457055 -0.527372,-0.457055 -0.215972,0 -0.411853,0.07534 -0.195881,0.07032 -0.411852,0.215971 L 91.58674,57.390832 q 0.261175,-0.170768 0.54244,-0.256152 0.281265,-0.08538 0.597688,-0.08538 0.597689,0 0.924157,0.281265 0.326468,0.281265 0.326468,0.823705 v 0.678049 q 0,0.120542 0.03516,0.170768 0.04018,0.0452 0.13561,0.05525 v 0.67805 q -0.105474,0.02511 -0.190858,0.03014 -0.08538,0.01004 -0.1557,0.01004 -0.226017,0 -0.341537,-0.08538 -0.115519,-0.09041 -0.145655,-0.251129 l -0.01507,-0.120542 q -0.175791,0.226016 -0.421898,0.346558 -0.241084,0.120542 -0.512304,0.120542 z m 0.236062,-0.577597 q 0.130587,0 0.251129,-0.0452 0.125565,-0.0452 0.205926,-0.120542 0.11552,-0.09041 0.11552,-0.190858 v -0.25113 q -0.105475,-0.04018 -0.231039,-0.06027 -0.120543,-0.02511 -0.226017,-0.02511 -0.220994,0 -0.366649,0.100452 -0.140633,0.100452 -0.140633,0.261175 0,0.145655 0.110497,0.241084 0.110497,0.09041 0.281266,0.09041 z"
           style="font-weight:bold;font-family:Raleway;-inkscape-font-specification:Raleway"
           id="path3555" />
        <path
           d="m 94.404405,59.254213 1.346054,-1.597184 h -1.275738 v -0.557507 h 2.114511 v 0.482168 l -1.336009,1.597184 h 1.371167 v 0.557508 h -2.219985 z"
           style="font-weight:bold;font-family:Raleway;-inkscape-font-specification:Raleway"
           id="path3557" />
        <path
           d="m 97.789627,59.786607 q -0.195881,0 -0.366649,-0.06027 -0.165746,-0.06529 -0.286288,-0.17579 -0.120542,-0.11552 -0.190858,-0.266198 -0.07032,-0.1557 -0.07032,-0.336513 0,-0.195881 0.08036,-0.356604 0.08538,-0.160723 0.236062,-0.276242 0.150677,-0.11552 0.356604,-0.180814 0.205926,-0.06529 0.457055,-0.06529 0.165746,0 0.321446,0.03014 0.1557,0.02511 0.27122,0.08036 v -0.120543 q 0,-0.457055 -0.527372,-0.457055 -0.215971,0 -0.411852,0.07534 -0.195882,0.07032 -0.411853,0.215971 l -0.236062,-0.502259 q 0.261175,-0.170768 0.54244,-0.256152 0.281265,-0.08538 0.597688,-0.08538 0.597689,0 0.924157,0.281265 0.326468,0.281265 0.326468,0.823705 v 0.678049 q 0,0.120542 0.03516,0.170768 0.04018,0.0452 0.13561,0.05525 v 0.67805 q -0.105474,0.02511 -0.190858,0.03014 -0.08538,0.01004 -0.1557,0.01004 -0.226017,0 -0.341536,-0.08538 -0.11552,-0.09041 -0.145656,-0.251129 l -0.01507,-0.120542 q -0.175791,0.226016 -0.421898,0.346558 -0.241084,0.120542 -0.512304,0.120542 z m 0.236062,-0.577597 q 0.130587,0 0.251129,-0.0452 0.125565,-0.0452 0.205926,-0.120542 0.11552,-0.09041 0.11552,-0.190858 v -0.25113 q -0.105475,-0.04018 -0.231039,-0.06027 -0.120542,-0.02511 -0.226017,-0.02511 -0.220994,0 -0.366649,0.100452 -0.140632,0.100452 -0.140632,0.261175 0,0.145655 0.110497,0.241084 0.110497,0.09041 0.281265,0.09041 z m 0.120542,-2.75238 q 0.115519,0 0.200903,-0.105474 0.09041,-0.110497 0.105475,-0.281265 h 0.416875 q 0,0.160723 -0.05525,0.296333 -0.05023,0.135609 -0.145655,0.236061 -0.09543,0.09543 -0.231039,0.150678 -0.130587,0.05525 -0.29131,0.05525 -0.160723,0 -0.29131,-0.05525 -0.130588,-0.05525 -0.23104,-0.150678 -0.09543,-0.100452 -0.150677,-0.236061 -0.05023,-0.13561 -0.05023,-0.296333 h 0.42692 q 0,0.160723 0.08538,0.276242 0.09041,0.110497 0.210949,0.110497 z"
           style="font-weight:bold;font-family:Raleway;-inkscape-font-specification:Raleway"
           id="path3559" />
        <path
           d="m 99.979472,59.736382 v -0.818683 h 0.657958 v 0.818683 z"
           style="font-weight:bold;font-family:Raleway;-inkscape-font-specification:Raleway"
           id="path3561" />
        <path
           d="m 101.17986,59.736382 v -0.818683 h 0.65796 v 0.818683 z"
           style="font-weight:bold;font-family:Raleway;-inkscape-font-specification:Raleway"
           id="path3563" />
        <path
           d="m 102.38025,59.736382 v -0.818683 h 0.65796 v 0.818683 z"
           style="font-weight:bold;font-family:Raleway;-inkscape-font-specification:Raleway"
           id="path3565" />
      </g>
    </g>
  </g>
</svg>
