<?xml version="1.0" encoding="UTF-8" standalone="no"?>
<svg
   width="700.00037"
   height="220"
   viewBox="0 0 185.20843 58.208335"
   version="1.1"
   id="svg243962"
   xmlns="http://www.w3.org/2000/svg"
   xmlns:svg="http://www.w3.org/2000/svg">
  <defs
     id="defs243959" />
  <g
     id="layer1"
     transform="translate(-18.957616,-31.677996)">
    <g
       id="layer3"
       style="display:inline">
      <path
         id="path9828"
         style="font-weight:bold;font-size:45.8136px;line-height:1.25;font-family:Raleway;-inkscape-font-specification:Raleway;fill:#386582;stroke-width:1.14534"
         d="M 132.60938 51.337891 L 132.60938 79.240234 C 132.60938 81.133836 133.12953 82.598253 134.16797 83.636719 C 135.23696 84.644585 136.73208 85.148438 138.65625 85.148438 C 139.54198 85.148437 140.53524 85.04192 141.63477 84.828125 C 142.73429 84.614325 143.69684 84.309108 144.52148 83.912109 L 143.69727 79.240234 C 143.30021 79.423506 142.8722 79.575136 142.41406 79.697266 C 141.98647 79.81947 141.58916 79.880859 141.22266 79.880859 C 140.42855 79.880859 139.81822 79.637105 139.39062 79.148438 C 138.96303 78.659704 138.74805 77.97167 138.74805 77.085938 L 138.74805 51.337891 L 132.60938 51.337891 z M 271.83594 51.933594 L 271.83594 72.550781 L 277.97656 72.550781 L 277.97656 51.933594 L 271.83594 51.933594 z M 57.109375 52.255859 L 70.257812 84.783203 L 75.572266 84.783203 L 81.207031 71.130859 L 86.841797 84.783203 L 92.15625 84.783203 L 105.39648 52.255859 L 98.523438 52.255859 L 89.316406 77.544922 L 85.193359 67.144531 L 90.736328 52.347656 L 84.871094 52.347656 L 81.207031 63.113281 L 77.541016 52.347656 L 71.722656 52.347656 L 77.175781 67.144531 L 73.142578 77.544922 L 63.888672 52.255859 L 57.109375 52.255859 z M 116.39062 60.363281 C 114.43591 60.363281 112.66437 60.699162 111.07617 61.371094 C 109.51851 62.043028 108.19132 62.960494 107.0918 64.121094 C 105.99227 65.25116 105.15257 66.580289 104.57227 68.107422 C 103.99197 69.603956 103.70117 71.207569 103.70117 72.917969 C 103.70117 74.567236 103.99197 76.140119 104.57227 77.636719 C 105.18312 79.133318 106.03719 80.446106 107.13672 81.576172 C 108.23625 82.706238 109.56539 83.607362 111.12305 84.279297 C 112.68071 84.920695 114.42153 85.240234 116.3457 85.240234 C 119.03344 85.240234 121.3395 84.660665 123.26367 83.5 C 125.21839 82.308867 126.63771 80.797378 127.52344 78.964844 L 122.25586 77.498047 C 121.85881 78.47538 121.11124 79.269992 120.01172 79.880859 C 118.94273 80.461125 117.79591 80.751953 116.57422 80.751953 C 115.78011 80.751953 115.01622 80.612758 114.2832 80.337891 C 113.55018 80.063026 112.89476 79.667639 112.31445 79.148438 C 111.73415 78.629171 111.26104 78.00253 110.89453 77.269531 C 110.52802 76.53653 110.29865 75.696865 110.20703 74.75 L 128.76172 74.75 C 128.8228 74.505666 128.85352 74.20045 128.85352 73.833984 C 128.88405 73.467451 128.89844 73.084567 128.89844 72.6875 C 128.89844 71.068766 128.60765 69.512225 128.02734 68.015625 C 127.47758 66.519091 126.65422 65.204285 125.55469 64.074219 C 124.48571 62.944153 123.17095 62.043028 121.61328 61.371094 C 120.08616 60.699162 118.34534 60.363281 116.39062 60.363281 z M 158.31055 60.363281 C 156.35583 60.363281 154.60064 60.699162 153.04297 61.371094 C 151.48531 62.043028 150.15617 62.944153 149.05664 64.074219 C 147.95711 65.204285 147.11742 66.519091 146.53711 68.015625 C 145.9568 69.512225 145.66602 71.09943 145.66602 72.779297 C 145.66602 74.428564 145.9568 76.017789 146.53711 77.544922 C 147.14796 79.041456 148.00203 80.368632 149.10156 81.529297 C 150.20109 82.659363 151.53022 83.560487 153.08789 84.232422 C 154.64555 84.904354 156.40271 85.240234 158.35742 85.240234 C 161.01461 85.240234 163.28996 84.660665 165.18359 83.5 C 167.07722 82.3394 168.43512 80.8423 169.25977 79.009766 L 163.25781 77.177734 C 162.8913 77.971801 162.23588 78.643559 161.28906 79.193359 C 160.37279 79.743094 159.36515 80.017578 158.26562 80.017578 C 157.41044 80.017578 156.60145 79.849606 155.83789 79.513672 C 155.07433 79.147138 154.40062 78.643354 153.82031 78.001953 C 153.27055 77.360555 152.82815 76.596672 152.49219 75.710938 C 152.15622 74.825205 151.98828 73.84823 151.98828 72.779297 C 151.98828 71.710298 152.14184 70.733391 152.44727 69.847656 C 152.78323 68.961924 153.22563 68.214383 153.77539 67.603516 C 154.3557 66.962115 155.02746 66.472651 155.79102 66.136719 C 156.55458 65.770185 157.3799 65.585938 158.26562 65.585938 C 159.30407 65.585938 160.25028 65.831645 161.10547 66.320312 C 161.96066 66.778444 162.64875 67.450203 163.16797 68.335938 L 169.16797 66.503906 C 168.2517 64.671372 166.86309 63.18866 165 62.058594 C 163.16746 60.928528 160.93719 60.363281 158.31055 60.363281 z M 183.875 60.363281 C 181.92029 60.363281 180.16313 60.699162 178.60547 61.371094 C 177.04781 62.043028 175.72062 62.960494 174.62109 64.121094 C 173.55211 65.25116 172.72679 66.563947 172.14648 68.060547 C 171.56618 69.557081 171.27539 71.146305 171.27539 72.826172 C 171.27539 74.475439 171.56618 76.048322 172.14648 77.544922 C 172.72679 79.041456 173.55211 80.368632 174.62109 81.529297 C 175.72062 82.659363 177.04781 83.560487 178.60547 84.232422 C 180.16313 84.904354 181.92029 85.240234 183.875 85.240234 C 185.82971 85.240234 187.58491 84.904354 189.14258 84.232422 C 190.70024 83.560487 192.015 82.659363 193.08398 81.529297 C 194.15296 80.368632 194.97633 79.041456 195.55664 77.544922 C 196.13695 76.048322 196.42773 74.475439 196.42773 72.826172 C 196.42773 71.146305 196.13695 69.557081 195.55664 68.060547 C 194.97633 66.563947 194.13664 65.25116 193.03711 64.121094 C 191.96813 62.960494 190.65532 62.043028 189.09766 61.371094 C 187.57054 60.699162 185.82971 60.363281 183.875 60.363281 z M 215.02734 60.363281 C 213.04209 60.363281 211.27056 60.791286 209.71289 61.646484 C 208.18577 62.471084 206.97948 63.663036 206.09375 65.220703 L 206.09375 60.777344 L 200.55078 60.777344 L 200.55078 84.783203 L 206.68945 84.783203 L 206.68945 70.763672 C 207.14759 69.267072 207.91148 68.0608 208.98047 67.144531 C 210.08 66.228265 211.22486 65.769531 212.41602 65.769531 C 213.57662 65.769531 214.47775 66.213875 215.11914 67.099609 C 215.79108 67.985342 216.12695 69.390321 216.12695 71.314453 L 216.12695 84.783203 L 222.26562 84.783203 L 222.26562 70.810547 C 222.72376 69.313947 223.48765 68.105721 224.55664 67.189453 C 225.62563 66.242654 226.77245 65.769531 227.99414 65.769531 C 229.15475 65.769531 230.05392 66.213875 230.69531 67.099609 C 231.36724 67.985342 231.70508 69.390321 231.70508 71.314453 L 231.70508 84.783203 L 237.84375 84.783203 L 237.84375 69.800781 C 237.84375 68.640182 237.73528 67.495301 237.52148 66.365234 C 237.33823 65.235168 236.98798 64.227532 236.46875 63.341797 C 235.94953 62.456065 235.21634 61.739253 234.26953 61.189453 C 233.32272 60.639721 232.11642 60.363281 230.65039 60.363281 C 228.72622 60.363281 227.01611 60.807627 225.51953 61.693359 C 224.02296 62.548561 222.78595 63.799954 221.80859 65.449219 C 221.50318 64.013686 220.8007 62.807411 219.70117 61.830078 C 218.60164 60.852745 217.04314 60.363281 215.02734 60.363281 z M 254.38086 60.363281 C 252.42615 60.363281 250.65656 60.699162 249.06836 61.371094 C 247.5107 62.043028 246.18156 62.960494 245.08203 64.121094 C 243.9825 65.25116 243.14281 66.580289 242.5625 68.107422 C 241.9822 69.603956 241.69141 71.207569 241.69141 72.917969 C 241.69141 74.567236 241.9822 76.140119 242.5625 77.636719 C 243.17335 79.133318 244.02743 80.446106 245.12695 81.576172 C 246.22647 82.706238 247.55561 83.607362 249.11328 84.279297 C 250.67094 84.920695 252.41176 85.240234 254.33594 85.240234 C 257.02367 85.240234 259.32974 84.660665 261.25391 83.5 C 263.20862 82.308867 264.62794 80.797378 265.51367 78.964844 L 260.24609 77.498047 C 259.84905 78.47538 259.10148 79.269992 258.00195 79.880859 C 256.93297 80.461125 255.78615 80.751953 254.56445 80.751953 C 253.77035 80.751953 253.0084 80.612758 252.27539 80.337891 C 251.54237 80.063026 250.88499 79.667639 250.30469 79.148438 C 249.72438 78.629171 249.25127 78.00253 248.88477 77.269531 C 248.51825 76.53653 248.28888 75.696865 248.19727 74.75 L 266.75195 74.75 C 266.81303 74.505666 266.84375 74.20045 266.84375 73.833984 C 266.87429 73.467451 266.88867 73.084567 266.88867 72.6875 C 266.88867 71.068766 266.59788 69.512225 266.01758 68.015625 C 265.46781 66.519091 264.64445 65.204285 263.54492 64.074219 C 262.47594 62.944153 261.16314 62.043028 259.60547 61.371094 C 258.07835 60.699162 256.33557 60.363281 254.38086 60.363281 z M 116.30078 64.808594 C 117.98061 64.808594 119.39993 65.357499 120.56055 66.457031 C 121.7517 67.52603 122.42345 68.961671 122.57617 70.763672 L 110.11523 70.763672 C 110.17632 69.87794 110.37497 69.069005 110.71094 68.335938 C 111.07744 67.602936 111.53617 66.97623 112.08594 66.457031 C 112.6357 65.93783 113.26042 65.540558 113.96289 65.265625 C 114.69591 64.960227 115.47614 64.808594 116.30078 64.808594 z M 254.29102 64.808594 C 255.97085 64.808594 257.39017 65.357499 258.55078 66.457031 C 259.74193 67.52603 260.41369 68.961671 260.56641 70.763672 L 248.10547 70.763672 C 248.16656 69.87794 248.3652 69.069005 248.70117 68.335938 C 249.06768 67.602936 249.52641 66.97623 250.07617 66.457031 C 250.62594 65.93783 251.25065 65.540558 251.95312 65.265625 C 252.68614 64.960227 253.46638 64.808594 254.29102 64.808594 z M 183.875 65.585938 C 184.76073 65.585938 185.58605 65.770185 186.34961 66.136719 C 187.11317 66.472651 187.7686 66.962115 188.31836 67.603516 C 188.89867 68.244917 189.34106 69.006846 189.64648 69.892578 C 189.98245 70.778313 190.15039 71.740831 190.15039 72.779297 C 190.15039 73.84823 189.98245 74.825205 189.64648 75.710938 C 189.34106 76.596672 188.89867 77.360555 188.31836 78.001953 C 187.7686 78.643354 187.11317 79.147138 186.34961 79.513672 C 185.58605 79.849606 184.76073 80.017578 183.875 80.017578 C 182.98928 80.017578 182.16395 79.849606 181.40039 79.513672 C 180.63683 79.147138 179.96507 78.643354 179.38477 78.001953 C 178.83501 77.360555 178.39261 76.613014 178.05664 75.757812 C 177.75121 74.872146 177.59766 73.895171 177.59766 72.826172 C 177.59766 71.787706 177.75121 70.825188 178.05664 69.939453 C 178.39261 69.053721 178.83501 68.289838 179.38477 67.648438 C 179.96507 67.007105 180.63683 66.503252 181.40039 66.136719 C 182.16395 65.770185 182.98928 65.585938 183.875 65.585938 z M 271.83594 77.865234 L 271.83594 84.783203 L 277.97656 84.783203 L 277.97656 77.865234 L 271.83594 77.865234 z M 190.06445 90.201172 C 189.03937 90.201172 188.22956 90.561868 187.63477 91.283203 C 187.03996 92.004536 186.74219 92.986295 186.74219 94.226562 L 186.74219 94.833984 L 185.43359 94.833984 L 185.43359 96.769531 L 186.74219 96.769531 L 186.74219 104.25 L 189.28711 104.25 L 189.28711 96.769531 L 191.7168 96.769531 L 191.7168 94.833984 L 189.28711 94.833984 L 189.28711 94.130859 C 189.28711 92.941261 189.72936 92.347656 190.61523 92.347656 C 190.83038 92.347656 191.06525 92.384994 191.31836 92.460938 C 191.58412 92.524207 191.81212 92.605765 192.00195 92.707031 L 192.51367 90.791016 C 191.69107 90.398749 190.87439 90.201172 190.06445 90.201172 z M 231.03125 90.392578 L 231.03125 104.25 L 233.57422 104.25 L 233.57422 98.441406 C 233.66281 98.137673 233.80235 97.858604 233.99219 97.605469 C 234.18201 97.352412 234.38938 97.136194 234.61719 96.958984 C 234.84498 96.769184 235.08674 96.624704 235.33984 96.523438 C 235.59295 96.422171 235.83274 96.371094 236.06055 96.371094 C 236.59207 96.371094 237.00385 96.56174 237.29492 96.941406 C 237.586 97.308406 237.73047 97.883301 237.73047 98.667969 L 237.73047 104.25 L 240.27539 104.25 L 240.27539 98.041016 C 240.27539 97.547482 240.23117 97.067875 240.14258 96.599609 C 240.054 96.131409 239.89577 95.712703 239.66797 95.345703 C 239.44017 94.978633 239.12372 94.687787 238.71875 94.472656 C 238.31378 94.244852 237.788 94.130859 237.14258 94.130859 C 236.38326 94.130859 235.68746 94.307708 235.05469 94.662109 C 234.43458 95.003776 233.94123 95.497178 233.57422 96.142578 L 233.57422 90.392578 L 231.03125 90.392578 z M 242.49609 90.392578 L 242.49609 92.916016 L 245.03906 92.916016 L 245.03906 90.392578 L 242.49609 90.392578 z M 91.542969 90.525391 L 91.542969 94.777344 L 93.707031 94.777344 L 93.707031 90.525391 L 91.542969 90.525391 z M 62.519531 90.771484 L 62.519531 104.25 L 72.009766 104.25 L 72.009766 101.95312 L 65.138672 101.95312 L 65.138672 90.771484 L 62.519531 90.771484 z M 84.824219 91.074219 L 84.824219 94.302734 L 83.513672 94.302734 L 83.513672 96.257812 L 84.824219 96.257812 L 84.824219 101.9707 C 84.824219 102.41364 84.893991 102.79298 85.033203 103.10938 C 85.172398 103.41312 85.354227 103.66668 85.582031 103.86914 C 85.822485 104.059 86.094712 104.19857 86.398438 104.28711 C 86.714824 104.3757 87.051902 104.41992 87.40625 104.41992 C 87.950429 104.41992 88.46933 104.34327 88.962891 104.19141 C 89.456444 104.03953 89.873144 103.88819 90.214844 103.73633 L 89.703125 101.72461 C 89.551264 101.78793 89.348811 101.86458 89.095703 101.95312 C 88.842598 102.04172 88.582168 102.08594 88.316406 102.08594 C 88.050648 102.08594 87.822646 102.01614 87.632812 101.87695 C 87.455628 101.72508 87.367188 101.47152 87.367188 101.11719 L 87.367188 96.257812 L 89.455078 96.257812 L 89.455078 94.302734 L 87.367188 94.302734 L 87.367188 91.074219 L 84.824219 91.074219 z M 131.08594 91.074219 L 131.08594 94.302734 L 129.77539 94.302734 L 129.77539 96.257812 L 131.08594 96.257812 L 131.08594 101.9707 C 131.08594 102.41364 131.15376 102.79298 131.29297 103.10938 C 131.43216 103.41312 131.61595 103.66668 131.84375 103.86914 C 132.0842 104.059 132.35643 104.19857 132.66016 104.28711 C 132.97654 104.3757 133.31167 104.41992 133.66602 104.41992 C 134.2102 104.41992 134.7291 104.34327 135.22266 104.19141 C 135.71621 104.03953 136.13487 103.88819 136.47656 103.73633 L 135.96289 101.72461 C 135.81103 101.78793 135.60858 101.86458 135.35547 101.95312 C 135.10236 102.04172 134.84389 102.08594 134.57812 102.08594 C 134.31237 102.08594 134.08436 102.01614 133.89453 101.87695 C 133.71735 101.72508 133.62891 101.47152 133.62891 101.11719 L 133.62891 96.257812 L 135.7168 96.257812 L 135.7168 94.302734 L 133.62891 94.302734 L 133.62891 91.074219 L 131.08594 91.074219 z M 224.31055 91.074219 L 224.31055 94.302734 L 223 94.302734 L 223 96.257812 L 224.31055 96.257812 L 224.31055 101.9707 C 224.31055 102.41364 224.38032 102.79298 224.51953 103.10938 C 224.65873 103.41312 224.84251 103.66668 225.07031 103.86914 C 225.31077 104.059 225.58299 104.19857 225.88672 104.28711 C 226.20311 104.3757 226.53823 104.41992 226.89258 104.41992 C 227.43676 104.41992 227.95566 104.34327 228.44922 104.19141 C 228.94277 104.03953 229.35948 103.88819 229.70117 103.73633 L 229.18945 101.72461 C 229.03759 101.78793 228.83514 101.86458 228.58203 101.95312 C 228.32892 102.04172 228.0685 102.08594 227.80273 102.08594 C 227.53698 102.08594 227.30897 102.01614 227.11914 101.87695 C 226.94196 101.72508 226.85352 101.47152 226.85352 101.11719 L 226.85352 96.257812 L 228.94141 96.257812 L 228.94141 94.302734 L 226.85352 94.302734 L 226.85352 91.074219 L 224.31055 91.074219 z M 99.308594 94.113281 C 98.751753 94.113281 98.232853 94.187982 97.751953 94.339844 C 97.283705 94.491642 96.871924 94.712772 96.517578 95.003906 C 96.16322 95.282306 95.884123 95.624363 95.681641 96.029297 C 95.491808 96.434296 95.396484 96.890285 95.396484 97.396484 C 95.396484 97.776151 95.461327 98.104413 95.587891 98.382812 C 95.714442 98.648617 95.916897 98.890338 96.195312 99.105469 C 96.473733 99.307933 96.83933 99.491715 97.294922 99.65625 C 97.750516 99.820783 98.301846 99.990835 98.947266 100.16797 C 99.719239 100.3831 100.2755 100.57375 100.61719 100.73828 C 100.95888 100.90281 101.13086 101.16129 101.13086 101.51562 C 101.13086 101.86997 100.98443 102.14217 100.69336 102.33203 C 100.40229 102.52184 100.00426 102.61719 99.498047 102.61719 C 98.928553 102.61719 98.351677 102.51005 97.769531 102.29492 C 97.200045 102.06712 96.611367 101.73691 96.003906 101.30664 L 95.054688 102.90234 C 95.624179 103.39588 96.308182 103.77522 97.105469 104.04102 C 97.902758 104.30675 98.719435 104.43945 99.554688 104.43945 C 100.79491 104.43945 101.77474 104.16032 102.49609 103.60352 C 103.21745 103.03398 103.57812 102.26158 103.57812 101.28711 C 103.57813 100.86951 103.50342 100.51568 103.35156 100.22461 C 103.21235 99.920882 102.98435 99.655539 102.66797 99.427734 C 102.36424 99.199945 101.96426 98.997522 101.4707 98.820312 C 100.9898 98.643186 100.408 98.466272 99.724609 98.289062 C 99.35761 98.20047 99.048029 98.116959 98.794922 98.041016 C 98.554463 97.952474 98.358893 97.863983 98.207031 97.775391 C 98.055195 97.686799 97.941178 97.586596 97.865234 97.472656 C 97.801965 97.358799 97.769531 97.212366 97.769531 97.035156 C 97.769531 96.642899 97.91596 96.35885 98.207031 96.181641 C 98.498105 96.004431 98.858783 95.916016 99.289062 95.916016 C 99.757311 95.916016 100.22511 96.004431 100.69336 96.181641 C 101.17426 96.35884 101.66761 96.637912 102.17383 97.017578 L 103.19922 95.478516 C 102.65504 94.997646 102.05456 94.650678 101.39648 94.435547 C 100.75106 94.220416 100.05525 94.113281 99.308594 94.113281 z M 113.29883 94.113281 C 112.74199 94.113281 112.22309 94.187982 111.74219 94.339844 C 111.27394 94.491642 110.86216 94.712772 110.50781 95.003906 C 110.15346 95.282306 109.87436 95.624363 109.67188 96.029297 C 109.48204 96.434296 109.38672 96.890285 109.38672 97.396484 C 109.38672 97.776151 109.45156 98.104413 109.57812 98.382812 C 109.70468 98.648617 109.90713 98.890338 110.18555 99.105469 C 110.46396 99.307933 110.82956 99.491715 111.28516 99.65625 C 111.74075 99.820783 112.29208 99.990835 112.9375 100.16797 C 113.70948 100.3831 114.26573 100.57375 114.60742 100.73828 C 114.94911 100.90281 115.12109 101.16129 115.12109 101.51562 C 115.12109 101.86997 114.97467 102.14217 114.68359 102.33203 C 114.39252 102.52184 113.9945 102.61719 113.48828 102.61719 C 112.91879 102.61719 112.34191 102.51005 111.75977 102.29492 C 111.19027 102.06712 110.60159 101.73691 109.99414 101.30664 L 109.04688 102.90234 C 109.61636 103.39588 110.29842 103.77522 111.0957 104.04102 C 111.89299 104.30675 112.70967 104.43945 113.54492 104.43945 C 114.78514 104.43945 115.76498 104.16032 116.48633 103.60352 C 117.20768 103.03398 117.56836 102.26158 117.56836 101.28711 C 117.56836 100.86951 117.49366 100.51568 117.3418 100.22461 C 117.20259 99.920882 116.97459 99.655539 116.6582 99.427734 C 116.35448 99.199945 115.95645 98.997522 115.46289 98.820312 C 114.98199 98.643186 114.39823 98.466272 113.71484 98.289062 C 113.34784 98.20047 113.03826 98.116959 112.78516 98.041016 C 112.54471 97.952474 112.34913 97.863983 112.19727 97.775391 C 112.0454 97.686799 111.93141 97.586596 111.85547 97.472656 C 111.7922 97.358799 111.75977 97.212366 111.75977 97.035156 C 111.75977 96.642899 111.90619 96.35885 112.19727 96.181641 C 112.48833 96.004431 112.84901 95.916016 113.2793 95.916016 C 113.74754 95.916016 114.21535 96.004431 114.68359 96.181641 C 115.16449 96.35884 115.65785 96.637912 116.16406 97.017578 L 117.18945 95.478516 C 116.64528 94.997646 116.0448 94.650678 115.38672 94.435547 C 114.7413 94.220416 114.04549 94.113281 113.29883 94.113281 z M 274.34961 94.113281 C 273.79277 94.113281 273.27387 94.187982 272.79297 94.339844 C 272.32472 94.491642 271.91295 94.712772 271.55859 95.003906 C 271.20424 95.282306 270.92709 95.624363 270.72461 96.029297 C 270.53478 96.434296 270.43945 96.890285 270.43945 97.396484 C 270.43945 97.776151 270.50234 98.104413 270.62891 98.382812 C 270.75546 98.648617 270.95791 98.890338 271.23633 99.105469 C 271.51475 99.307933 271.8823 99.491715 272.33789 99.65625 C 272.79348 99.820783 273.34286 99.990835 273.98828 100.16797 C 274.76025 100.3831 275.31846 100.57375 275.66016 100.73828 C 276.00185 100.90281 276.17187 101.16129 276.17188 101.51562 C 276.17188 101.86997 276.02545 102.14217 275.73438 102.33203 C 275.4433 102.52184 275.04528 102.61719 274.53906 102.61719 C 273.96958 102.61719 273.39465 102.51005 272.8125 102.29492 C 272.24301 102.06712 271.65433 101.73691 271.04688 101.30664 L 270.09766 102.90234 C 270.66715 103.39588 271.34921 103.77522 272.14648 104.04102 C 272.94377 104.30675 273.76045 104.43945 274.5957 104.43945 C 275.83593 104.43945 276.81771 104.16032 277.53906 103.60352 C 278.26042 103.03398 278.62109 102.26158 278.62109 101.28711 C 278.62109 100.86951 278.54444 100.51568 278.39258 100.22461 C 278.25337 99.920882 278.02537 99.655539 277.70898 99.427734 C 277.40526 99.199945 277.00723 98.997522 276.51367 98.820312 C 276.03277 98.643186 275.45096 98.466272 274.76758 98.289062 C 274.40057 98.20047 274.08904 98.116959 273.83594 98.041016 C 273.59549 97.952474 273.39991 97.863983 273.24805 97.775391 C 273.09619 97.686799 272.98219 97.586596 272.90625 97.472656 C 272.84298 97.358799 272.8125 97.212366 272.8125 97.035156 C 272.8125 96.642899 272.95697 96.35885 273.24805 96.181641 C 273.53912 96.004431 273.8998 95.916016 274.33008 95.916016 C 274.79832 95.916016 275.26613 96.004431 275.73438 96.181641 C 276.21528 96.35884 276.71058 96.637912 277.2168 97.017578 L 278.24023 95.478516 C 277.69606 94.997646 277.09558 94.650678 276.4375 94.435547 C 275.79208 94.220416 275.09628 94.113281 274.34961 94.113281 z M 77.591797 94.130859 C 76.781857 94.130859 76.046751 94.27036 75.388672 94.548828 C 74.743252 94.827228 74.193876 95.206633 73.738281 95.6875 C 73.282694 96.155766 72.933813 96.707045 72.693359 97.339844 C 72.452906 97.959911 72.332031 98.623297 72.332031 99.332031 C 72.332031 100.01543 72.452906 100.66704 72.693359 101.28711 C 72.946467 101.90724 73.300273 102.45166 73.755859 102.91992 C 74.211454 103.38812 74.762783 103.76255 75.408203 104.04102 C 76.053628 104.30675 76.774977 104.43945 77.572266 104.43945 C 78.685934 104.43945 79.642167 104.19962 80.439453 103.71875 C 81.249393 103.22515 81.838071 102.59723 82.205078 101.83789 L 80.021484 101.23047 C 79.856964 101.6354 79.547384 101.96561 79.091797 102.21875 C 78.648856 102.45923 78.174181 102.57813 77.667969 102.57812 C 77.338928 102.57813 77.022475 102.52214 76.71875 102.4082 C 76.415022 102.29433 76.142797 102.12919 75.902344 101.91406 C 75.661893 101.69893 75.464361 101.44045 75.3125 101.13672 C 75.160664 100.83298 75.067294 100.48413 75.029297 100.0918 L 82.716797 100.0918 C 82.74212 99.990526 82.753906 99.864752 82.753906 99.712891 C 82.766505 99.561017 82.773438 99.402741 82.773438 99.238281 C 82.773438 98.567549 82.652563 97.920916 82.412109 97.300781 C 82.184315 96.680649 81.844266 96.138122 81.388672 95.669922 C 80.945734 95.201656 80.401279 94.827228 79.755859 94.548828 C 79.123091 94.27036 78.401737 94.130859 77.591797 94.130859 z M 123.85352 94.130859 C 123.04358 94.130859 122.30847 94.27036 121.65039 94.548828 C 121.00497 94.827228 120.45559 95.206633 120 95.6875 C 119.54441 96.155766 119.19553 96.707045 118.95508 97.339844 C 118.71462 97.959911 118.59375 98.623297 118.59375 99.332031 C 118.59375 100.01543 118.71462 100.66704 118.95508 101.28711 C 119.20819 101.90724 119.56199 102.45166 120.01758 102.91992 C 120.47317 103.38812 121.0245 103.76255 121.66992 104.04102 C 122.31535 104.30675 123.0367 104.43945 123.83398 104.43945 C 124.94765 104.43945 125.90193 104.19962 126.69922 103.71875 C 127.50916 103.22515 128.09784 102.59723 128.46484 101.83789 L 126.2832 101.23047 C 126.11868 101.6354 125.80715 101.96561 125.35156 102.21875 C 124.90862 102.45923 124.43395 102.57813 123.92773 102.57812 C 123.59869 102.57813 123.28224 102.52214 122.97852 102.4082 C 122.67479 102.29433 122.40452 102.12919 122.16406 101.91406 C 121.92361 101.69893 121.72608 101.44045 121.57422 101.13672 C 121.42233 100.83298 121.32701 100.48413 121.28906 100.0918 L 128.97852 100.0918 C 129.00384 99.990526 129.01562 99.864752 129.01562 99.712891 C 129.02822 99.561017 129.03516 99.402741 129.03516 99.238281 C 129.03516 98.567549 128.91428 97.920916 128.67383 97.300781 C 128.44604 96.680649 128.10403 96.138122 127.64844 95.669922 C 127.2055 95.201656 126.663 94.827228 126.01758 94.548828 C 125.38481 94.27036 124.66346 94.130859 123.85352 94.130859 z M 159.75 94.130859 C 158.99068 94.130859 158.31847 94.302796 157.73633 94.644531 C 157.15418 94.973529 156.67951 95.427565 156.3125 96.009766 L 156.3125 94.302734 L 154.0918 94.302734 L 154.0918 108.29297 L 156.63672 108.29297 L 156.63672 102.50195 C 156.96576 103.09675 157.42176 103.57138 158.00391 103.92578 C 158.58605 104.26745 159.26811 104.43945 160.05273 104.43945 C 160.6855 104.43945 161.2673 104.30675 161.79883 104.04102 C 162.33035 103.77522 162.78635 103.40765 163.16602 102.93945 C 163.55834 102.47119 163.86299 101.91991 164.07812 101.28711 C 164.29326 100.65438 164.40039 99.977258 164.40039 99.255859 C 164.40039 98.559859 164.27952 97.903338 164.03906 97.283203 C 163.81127 96.65047 163.48989 96.10599 163.07227 95.650391 C 162.66729 95.182125 162.17886 94.814562 161.60938 94.548828 C 161.03988 94.27036 160.42074 94.130859 159.75 94.130859 z M 174.68945 94.130859 C 173.20878 94.130859 171.82897 94.554409 170.55078 95.402344 L 171.32812 97.017578 C 171.85965 96.65052 172.37855 96.371448 172.88477 96.181641 C 173.39098 95.991833 173.90989 95.896484 174.44141 95.896484 C 175.17542 95.896484 175.72675 96.073401 176.09375 96.427734 C 176.47341 96.782068 176.66406 97.289199 176.66406 97.947266 L 176.66406 98.515625 C 176.33502 98.376438 175.95372 98.269303 175.52344 98.193359 C 175.10581 98.117416 174.67731 98.080078 174.23438 98.080078 C 173.61426 98.080078 173.04426 98.161636 172.52539 98.326172 C 172.00652 98.478038 171.55739 98.694256 171.17773 98.972656 C 170.81072 99.251056 170.51982 99.593048 170.30469 99.998047 C 170.10221 100.39038 170 100.81891 170 101.28711 C 170 101.74271 170.08158 102.16135 170.24609 102.54102 C 170.42327 102.92068 170.66502 103.25581 170.96875 103.54688 C 171.27248 103.82527 171.63316 104.0464 172.05078 104.21094 C 172.46841 104.3628 172.91753 104.43945 173.39844 104.43945 C 174.11979 104.43945 174.79692 104.28811 175.42969 103.98438 C 176.06245 103.68064 176.60004 103.23643 177.04297 102.6543 L 177.09961 103.20508 C 177.16289 103.55941 177.32111 103.84346 177.57422 104.05859 C 177.83998 104.2738 178.21441 104.38281 178.69531 104.38281 C 179.0117 104.38281 179.38417 104.33859 179.81445 104.25 L 179.81445 102.08594 C 179.59931 102.07326 179.44108 102.0084 179.33984 101.89453 C 179.25125 101.7806 179.20703 101.59191 179.20703 101.32617 L 179.20703 98.232422 C 179.20703 96.903621 178.809 95.891378 178.01172 95.195312 C 177.22709 94.486578 176.11951 94.130859 174.68945 94.130859 z M 197.29688 94.130859 C 196.48693 94.130859 195.75378 94.27036 195.0957 94.548828 C 194.45028 94.827228 193.89895 95.206633 193.44336 95.6875 C 192.98777 96.155766 192.64084 96.707045 192.40039 97.339844 C 192.15994 97.959911 192.03906 98.623297 192.03906 99.332031 C 192.03906 100.01543 192.15994 100.66704 192.40039 101.28711 C 192.6535 101.90724 193.0073 102.45166 193.46289 102.91992 C 193.91848 103.38812 194.46981 103.76255 195.11523 104.04102 C 195.76065 104.30675 196.48201 104.43945 197.2793 104.43945 C 198.39296 104.43945 199.34724 104.19962 200.14453 103.71875 C 200.95447 103.22515 201.54315 102.59723 201.91016 101.83789 L 199.72852 101.23047 C 199.564 101.6354 199.25247 101.96561 198.79688 102.21875 C 198.35393 102.45923 197.87926 102.57813 197.37305 102.57812 C 197.04401 102.57813 196.72756 102.52214 196.42383 102.4082 C 196.1201 102.29433 195.84788 102.12919 195.60742 101.91406 C 195.36697 101.69893 195.17139 101.44045 195.01953 101.13672 C 194.8677 100.83298 194.77237 100.48413 194.73438 100.0918 L 202.42383 100.0918 C 202.44915 99.990526 202.46094 99.864752 202.46094 99.712891 C 202.47354 99.561017 202.48047 99.402741 202.48047 99.238281 C 202.48047 98.567549 202.35959 97.920916 202.11914 97.300781 C 201.89135 96.680649 201.54934 96.138122 201.09375 95.669922 C 200.65082 95.201656 200.10636 94.827228 199.46094 94.548828 C 198.82817 94.27036 198.10682 94.130859 197.29688 94.130859 z M 253.58203 94.130859 C 252.70882 94.130859 251.92456 94.307708 251.22852 94.662109 C 250.53248 95.016443 249.99982 95.509845 249.63281 96.142578 L 249.63281 94.302734 L 247.33594 94.302734 L 247.33594 104.25 L 249.88086 104.25 L 249.88086 98.441406 C 249.96945 98.137673 250.109 97.858604 250.29883 97.605469 C 250.48864 97.352412 250.69602 97.136194 250.92383 96.958984 C 251.16428 96.769184 251.41784 96.624704 251.68359 96.523438 C 251.94936 96.422171 252.20978 96.371094 252.46289 96.371094 C 252.95644 96.371094 253.34072 96.554875 253.61914 96.921875 C 253.89756 97.288875 254.03711 97.870635 254.03711 98.667969 L 254.03711 104.25 L 256.58203 104.25 L 256.58203 98.041016 C 256.58203 97.560149 256.53781 97.085453 256.44922 96.617188 C 256.37328 96.148922 256.22685 95.732234 256.01172 95.365234 C 255.79658 94.998237 255.49388 94.700461 255.10156 94.472656 C 254.70925 94.244852 254.20214 94.130859 253.58203 94.130859 z M 262.8457 94.130859 C 262.16231 94.130859 261.53628 94.263495 260.9668 94.529297 C 260.39731 94.795028 259.90887 95.162591 259.50391 95.630859 C 259.09894 96.099125 258.78249 96.643605 258.55469 97.263672 C 258.32688 97.883807 258.21484 98.554058 258.21484 99.275391 C 258.21484 99.95879 258.32198 100.60542 258.53711 101.21289 C 258.75225 101.82036 259.05495 102.35791 259.44727 102.82617 C 259.85223 103.28171 260.32691 103.6424 260.87109 103.9082 C 261.41528 104.17394 262.02263 104.30664 262.69336 104.30664 C 263.37675 104.30664 264.01653 104.1553 264.61133 103.85156 C 265.20613 103.53523 265.66706 103.09102 265.99609 102.52148 L 265.99609 103.77539 C 265.99609 104.25633 265.91451 104.67301 265.75 105.02734 C 265.59814 105.38167 265.38389 105.67259 265.10547 105.90039 C 264.82706 106.12819 264.50373 106.29327 264.13672 106.39453 C 263.78237 106.5084 263.40989 106.56445 263.01758 106.56445 C 262.37216 106.56445 261.75793 106.43175 261.17578 106.16602 C 260.60629 105.90022 260.13161 105.53467 259.75195 105.06641 L 258.36523 106.41406 C 258.89675 107.07219 259.52966 107.57731 260.26367 107.93164 C 261.01033 108.29864 261.92922 108.48242 263.01758 108.48242 C 263.81486 108.48242 264.54802 108.37529 265.21875 108.16016 C 265.90214 107.94502 266.48394 107.63547 266.96484 107.23047 C 267.4584 106.82554 267.84463 106.33025 268.12305 105.74805 C 268.40146 105.16591 268.54102 104.50939 268.54102 103.77539 L 268.54102 94.302734 L 266.32031 94.302734 L 266.32031 96.048828 C 265.94065 95.466695 265.45909 95.003776 264.87695 94.662109 C 264.29481 94.307708 263.61768 94.130859 262.8457 94.130859 z M 142.26562 94.302734 L 142.26562 100.5293 C 142.26562 101.82016 142.53097 102.79311 143.0625 103.45117 C 143.59403 104.10924 144.37336 104.43945 145.39844 104.43945 C 146.23369 104.43945 146.99927 104.26745 147.69531 103.92578 C 148.39136 103.58405 148.96136 103.07207 149.4043 102.38867 L 149.46094 103.18555 C 149.51156 103.55255 149.67666 103.84346 149.95508 104.05859 C 150.24615 104.26113 150.61862 104.36328 151.07422 104.36328 C 151.21343 104.36328 151.36479 104.35635 151.5293 104.34375 C 151.70647 104.33108 151.92267 104.30067 152.17578 104.25 L 152.17578 102.08594 C 151.96064 102.07326 151.80241 102.0084 151.70117 101.89453 C 151.61258 101.7806 151.56836 101.59191 151.56836 101.32617 L 151.56836 94.302734 L 149.02344 94.302734 L 149.02344 100.47266 C 148.73236 101.08006 148.35301 101.53416 147.88477 101.83789 C 147.42917 102.12896 146.95449 102.27539 146.46094 102.27539 C 145.35992 102.27539 144.81055 101.50978 144.81055 99.978516 L 144.81055 94.302734 L 142.26562 94.302734 z M 202.65039 94.302734 L 206.78906 104.25 L 208.87695 104.25 L 210.56641 99.882812 L 212.27539 104.25 L 214.36328 104.25 L 218.52148 94.302734 L 216.10938 94.302734 L 213.14844 101.85742 L 211.95312 98.630859 L 213.67969 94.320312 L 211.62891 94.320312 L 210.56641 97.376953 L 209.52344 94.320312 L 207.47266 94.320312 L 209.21875 98.630859 L 208.00391 101.85742 L 205.04297 94.302734 L 202.65039 94.302734 z M 242.49609 94.302734 L 242.49609 104.25 L 245.03906 104.25 L 245.03906 94.302734 L 242.49609 94.302734 z M 77.552734 95.972656 C 78.248782 95.972656 78.83746 96.200651 79.318359 96.65625 C 79.811923 97.099183 80.091028 97.694738 80.154297 98.441406 L 74.990234 98.441406 C 75.015532 98.074407 75.099069 97.737329 75.238281 97.433594 C 75.390138 97.129858 75.578836 96.871381 75.806641 96.65625 C 76.034433 96.441124 76.294863 96.27605 76.585938 96.162109 C 76.889665 96.035571 77.211042 95.972656 77.552734 95.972656 z M 123.81445 95.972656 C 124.5105 95.972656 125.09918 96.200651 125.58008 96.65625 C 126.07364 97.099183 126.35275 97.694738 126.41602 98.441406 L 121.25195 98.441406 C 121.27725 98.074407 121.35883 97.737329 121.49805 97.433594 C 121.6499 97.129858 121.84055 96.871381 122.06836 96.65625 C 122.29615 96.441124 122.55463 96.27605 122.8457 96.162109 C 123.14943 96.035571 123.47276 95.972656 123.81445 95.972656 z M 197.25977 95.972656 C 197.95581 95.972656 198.54449 96.200651 199.02539 96.65625 C 199.51896 97.099183 199.79806 97.694738 199.86133 98.441406 L 194.69727 98.441406 C 194.72256 98.074407 194.80415 97.737329 194.94336 97.433594 C 195.09521 97.129858 195.28587 96.871381 195.51367 96.65625 C 195.74147 96.441124 195.99994 96.27605 196.29102 96.162109 C 196.59474 96.035571 196.91807 95.972656 197.25977 95.972656 z M 159.04688 96.294922 C 159.43919 96.294922 159.79987 96.371576 160.12891 96.523438 C 160.4706 96.675304 160.7615 96.884657 161.00195 97.150391 C 161.25506 97.41619 161.45063 97.732607 161.58984 98.099609 C 161.72906 98.453943 161.79883 98.838259 161.79883 99.255859 C 161.79883 99.648192 161.73594 100.02948 161.60938 100.39648 C 161.48283 100.76348 161.30593 101.08481 161.07812 101.36328 C 160.85033 101.64168 160.57123 101.86476 160.24219 102.0293 C 159.92581 102.19376 159.57888 102.27539 159.19922 102.27539 C 158.65504 102.27539 158.14794 102.09161 157.67969 101.72461 C 157.21145 101.34494 156.86452 100.87025 156.63672 100.30078 L 156.63672 97.966797 C 156.72532 97.726321 156.85111 97.503238 157.01562 97.300781 C 157.19279 97.098309 157.38836 96.921393 157.60352 96.769531 C 157.81865 96.61767 158.05353 96.503678 158.30664 96.427734 C 158.55974 96.339142 158.80642 96.294922 159.04688 96.294922 z M 263.39648 96.294922 C 263.92801 96.294922 264.43316 96.471839 264.91406 96.826172 C 265.40761 97.180505 265.76829 97.650221 265.99609 98.232422 L 265.99609 100.60352 C 265.9075 100.83132 265.7817 101.04747 265.61719 101.25 C 265.45266 101.45247 265.26201 101.62939 265.04688 101.78125 C 264.83173 101.93314 264.59881 102.05399 264.3457 102.14258 C 264.0926 102.23112 263.82724 102.27539 263.54883 102.27539 C 263.15651 102.27539 262.79584 102.19874 262.4668 102.04688 C 262.13776 101.89508 261.84686 101.68572 261.59375 101.41992 C 261.3533 101.15419 261.16265 100.84463 261.02344 100.49023 C 260.88422 100.1359 260.81445 99.756496 260.81445 99.351562 C 260.81445 98.95923 260.87244 98.57989 260.98633 98.212891 C 261.11287 97.845888 261.28977 97.522541 261.51758 97.244141 C 261.74538 96.953001 262.01761 96.725007 262.33398 96.560547 C 262.65037 96.383337 263.00417 96.294922 263.39648 96.294922 z M 174.65039 99.503906 C 174.97943 99.503906 175.32143 99.541244 175.67578 99.617188 C 176.03013 99.680457 176.36033 99.768872 176.66406 99.882812 L 176.66406 101.02148 C 176.66406 101.28722 176.52451 101.52901 176.24609 101.74414 C 176.03095 101.99728 175.7263 102.1997 175.33398 102.35156 C 174.95432 102.50342 174.54942 102.57812 174.11914 102.57812 C 173.63824 102.57812 173.23334 102.43862 172.9043 102.16016 C 172.57526 101.86909 172.41016 101.50839 172.41016 101.07812 C 172.41016 100.62253 172.61948 100.25005 173.03711 99.958984 C 173.45474 99.655251 173.99232 99.503906 174.65039 99.503906 z M 280.21484 101.51562 L 280.21484 104.25 L 282.30273 104.25 L 282.30273 101.51562 L 280.21484 101.51562 z M 284.48633 101.51562 L 284.48633 104.25 L 286.57422 104.25 L 286.57422 101.51562 L 284.48633 101.51562 z M 288.75781 101.51562 L 288.75781 104.25 L 290.8457 104.25 L 290.8457 101.51562 L 288.75781 101.51562 z "
         transform="matrix(0.26458334,0,0,0.26458334,18.957616,31.677996)" />
    </g>
  </g>
</svg>
