<?xml version="1.0" encoding="UTF-8"?>
<svg width="700" height="220" version="1.1" viewBox="0 0 185.21 58.208" xmlns="http://www.w3.org/2000/svg" xmlns:cc="http://creativecommons.org/ns#" xmlns:dc="http://purl.org/dc/elements/1.1/" xmlns:rdf="http://www.w3.org/1999/02/22-rdf-syntax-ns#">
<metadata>
<rdf:RDF>
<cc:Work rdf:about="">
<dc:format>image/svg+xml</dc:format>
<dc:type rdf:resource="http://purl.org/dc/dcmitype/StillImage"/>
<dc:title/>
</cc:Work>
</rdf:RDF>
</metadata>
<g transform="translate(-18.958 -31.678)">
<g fill="#386582">
<g stroke-width=".30304" aria-label="Velkomin!">
<path d="m35.85 43.916 2.3273 6.5092 2.3031-6.5092h1.7576l-3.3577 8.6063h-1.4061l-3.3819-8.6063z"/>
<path d="m45.171 52.644q-0.76366 0-1.3819-0.25455-0.6182-0.26667-1.0546-0.71517-0.43637-0.4485-0.6788-1.0424-0.23031-0.59395-0.23031-1.2485 0-0.6788 0.23031-1.2728 0.23031-0.60608 0.66668-1.0546 0.43637-0.46062 1.0546-0.72729 0.63032-0.26667 1.4061-0.26667t1.3819 0.26667q0.6182 0.26667 1.0424 0.71517 0.43637 0.4485 0.65456 1.0424 0.23031 0.59395 0.23031 1.2364 0 0.15758-0.01212 0.30304 0 0.14546-0.02424 0.24243h-4.9092q0.03636 0.37577 0.18182 0.66668 0.14546 0.29092 0.37577 0.49698 0.23031 0.20606 0.52122 0.31516 0.29092 0.10909 0.60608 0.10909 0.48486 0 0.90911-0.23031 0.43637-0.24243 0.59395-0.63032l1.394 0.38789q-0.35152 0.72729-1.1273 1.2-0.76365 0.46062-1.8303 0.46062zm1.6485-3.8304q-0.06061-0.71517-0.53335-1.1394-0.46062-0.43637-1.1273-0.43637-0.32728 0-0.6182 0.12122-0.2788 0.10909-0.49698 0.31516-0.21819 0.20607-0.36364 0.49698-0.13334 0.29092-0.15758 0.64244z"/>
<path d="m49.474 43.674h1.6243v6.8123q0 0.35152 0.1697 0.54547t0.48486 0.19394q0.14546 0 0.31516-0.04849 0.18182-0.04849 0.3394-0.12122l0.21819 1.2364q-0.32728 0.15758-0.76365 0.24243-0.43637 0.08485-0.7879 0.08485-0.76365 0-1.1879-0.40001-0.41213-0.41213-0.41213-1.1637z"/>
<path d="m57.668 52.523-1.8425-2.7516-0.87275 0.86063v1.891h-1.6243v-8.8487h1.6243v5.3698l2.5455-2.8607h1.7334l-2.3637 2.691 2.5334 3.6486z"/>
<path d="m62.699 52.644q-0.77578 0-1.394-0.26667-0.6182-0.26667-1.0546-0.71517-0.42425-0.46062-0.65456-1.0546-0.23031-0.59395-0.23031-1.2485 0-0.66668 0.23031-1.2606 0.23031-0.59395 0.65456-1.0424 0.43637-0.46062 1.0546-0.72729 0.6182-0.26667 1.394-0.26667t1.3819 0.26667q0.6182 0.26667 1.0424 0.72729 0.43637 0.4485 0.66668 1.0424 0.23031 0.59395 0.23031 1.2606 0 0.65456-0.23031 1.2485-0.23031 0.59395-0.65456 1.0546-0.42425 0.4485-1.0424 0.71517-0.6182 0.26667-1.394 0.26667zm-1.6606-3.2849q0 0.42425 0.12122 0.77578 0.13334 0.3394 0.35152 0.59395 0.23031 0.25455 0.53335 0.40001 0.30304 0.13334 0.65456 0.13334 0.35152 0 0.65456-0.13334 0.30304-0.14546 0.52122-0.40001 0.23031-0.25455 0.35152-0.60608 0.13334-0.35152 0.13334-0.77578 0-0.41213-0.13334-0.76365-0.12122-0.35152-0.35152-0.60608-0.21819-0.25455-0.52122-0.38789-0.30304-0.14546-0.65456-0.14546-0.35152 0-0.65456 0.14546-0.30304 0.14546-0.53335 0.40001-0.21819 0.25455-0.35152 0.60608-0.12122 0.35152-0.12122 0.76366z"/>
<path d="m76.978 52.523h-1.6243v-3.5637q0-0.76365-0.26667-1.1152-0.25455-0.35152-0.71517-0.35152-0.48486 0-0.90911 0.37577-0.42425 0.36364-0.60608 0.9576v3.6971h-1.6243v-3.5637q0-0.76365-0.26667-1.1152-0.25455-0.35152-0.71517-0.35152-0.47274 0-0.90911 0.36364-0.42425 0.36364-0.60608 0.9576v3.7092h-1.6243v-6.3517h1.4667v1.1758q0.35152-0.6182 0.9576-0.94548 0.6182-0.3394 1.4061-0.3394 0.80002 0 1.2364 0.38789t0.55759 0.9576q0.38789-0.65456 0.98184-0.99396 0.59395-0.35152 1.3576-0.35152 0.58183 0 0.9576 0.21819 0.37577 0.21819 0.58183 0.56971 0.20607 0.35152 0.2788 0.80002 0.08485 0.4485 0.08485 0.90911z"/>
<path d="m78.396 52.523v-6.3517h1.6243v6.3517zm0-7.2365v-1.6122h1.6243v1.6122z"/>
<path d="m87.39 52.523h-1.6243v-3.5637q0-0.76365-0.26667-1.1152-0.26667-0.35152-0.73941-0.35152-0.24243 0-0.49698 0.09697-0.25455 0.09697-0.48486 0.27879-0.21819 0.1697-0.40001 0.41213-0.18182 0.24243-0.26667 0.53335v3.7092h-1.6243v-6.3517h1.4667v1.1758q0.35152-0.60608 1.0182-0.94548 0.66668-0.3394 1.5031-0.3394 0.59395 0 0.96972 0.21819 0.37577 0.21819 0.58183 0.56971 0.20607 0.35152 0.2788 0.80002 0.08485 0.4485 0.08485 0.90911z"/>
<path d="m89.123 49.286v-5.4547h1.6243v5.4547zm0 3.2364v-1.8303h1.6243v1.8303z"/>
</g>
<g stroke-width=".12556" aria-label="Við ættum að stilla nokkur atriði...">
<path d="m23.695 57.282 0.96434 2.6971 0.95429-2.6971h0.72828l-1.3913 3.566h-0.58262l-1.4013-3.566z"/>
<path d="m26.658 60.848v-2.6318h0.67303v2.6318zm0-2.9985v-0.668h0.67303v0.668z"/>
<path d="m30.274 57.533-0.3566 0.19588q0.31642 0.36665 0.47212 0.80864 0.1557 0.43697 0.1557 0.85384 0 0.35158-0.10547 0.63285-0.10548 0.27624-0.29131 0.47212-0.18081 0.19588-0.43697 0.30136-0.25615 0.10045-0.55751 0.10045-0.29131 0-0.54244-0.09041-0.24611-0.09543-0.43194-0.25615-0.18081-0.16575-0.28629-0.38674-0.10548-0.22602-0.10548-0.48719 0-0.24611 0.09543-0.4671t0.25615-0.38172q0.16575-0.16072 0.38674-0.25615t0.47715-0.09543q0.26118 0 0.48719 0.1105 0.22602 0.10547 0.36665 0.28126-0.05525-0.24108-0.16072-0.4671-0.10547-0.22602-0.29131-0.43696l-0.4671 0.26118-0.19588-0.26118 0.42692-0.23606q-0.16072-0.14063-0.3566-0.27624t-0.44701-0.27122h0.86389q0.24108 0.13059 0.45203 0.3114l0.39678-0.22602zm-1.7931 2.1396q0 0.14063 0.05023 0.26117 0.05525 0.11552 0.14566 0.20593 0.09041 0.08538 0.21597 0.13561 0.12556 0.05023 0.27122 0.05023 0.15068 0 0.27624-0.05023 0.12556-0.05525 0.21597-0.14566 0.09543-0.09041 0.14566-0.21095 0.05525-0.12054 0.05525-0.26117 0-0.14063-0.05525-0.25615-0.05023-0.11552-0.14063-0.2009-0.09041-0.08538-0.21597-0.13059-0.12556-0.05023-0.27122-0.05023-0.15068 0-0.27624 0.05023-0.12556 0.05023-0.22099 0.14063-0.09041 0.08538-0.14566 0.20593-0.05023 0.11552-0.05023 0.25615z"/>
<path d="m32.941 60.898q-0.19086 0-0.3566-0.06027-0.16574-0.06529-0.28629-0.17579-0.12054-0.11552-0.19086-0.2662-0.06529-0.15068-0.06529-0.33149 0-0.18584 0.08036-0.34154 0.08538-0.16072 0.23104-0.27122 0.15068-0.1105 0.3566-0.17077 0.20593-0.06529 0.45203-0.06529 0.16072 0 0.31642 0.02511t0.27624 0.07534q5e-3 -0.0452 0.01507-0.1105 0.01004-0.07032 0.02511-0.1105-0.0452-0.45706-0.5776-0.45706-0.21095 0-0.41185 0.07534t-0.41688 0.22099l-0.20593-0.42692q0.51733-0.33651 1.0999-0.33651 0.3114 0 0.54244 0.10045 0.23104 0.09543 0.37669 0.27122 0.16575-0.17077 0.40181-0.27122 0.23606-0.10045 0.5324-0.10045 0.32145 0 0.5776 0.1105t0.43194 0.29633q0.18081 0.18584 0.27624 0.43194 0.09543 0.24611 0.09543 0.52235 0 0.05525-5e-3 0.11552t-0.01005 0.10045h-2.0593q0.02511 0.3114 0.23104 0.48719 0.21095 0.17077 0.49221 0.17077 0.2009 0 0.3767-0.09543 0.18081-0.10045 0.24611-0.26117l0.5776 0.16072q-0.14566 0.30136-0.4671 0.49724-0.32145 0.19086-0.75841 0.19086-0.37669 0-0.668-0.14566-0.28629-0.15068-0.46208-0.39678-0.09041 0.14566-0.21597 0.24611-0.12556 0.10045-0.27122 0.17077-0.14063 0.06529-0.29633 0.09543-0.15068 0.03014-0.28629 0.03014zm0.19086-0.49221q0.17077 0 0.32145-0.06027t0.24108-0.16072q0.05023-0.04018 0.08036-0.08538 0.03014-0.05023 0.03014-0.09543-0.01005-0.02009-0.02009-0.06529t-0.01507-0.09041q-5e-3 -0.05023-0.01004-0.09543-5e-3 -0.05023-5e-3 -0.07534-0.1105-0.04018-0.24108-0.06027-0.12556-0.02511-0.24108-0.02511-0.26118 0-0.43194 0.12054-0.16574 0.11552-0.16574 0.29633 0 0.17077 0.13059 0.28629 0.13561 0.1105 0.32647 0.1105zm2.6921-1.0748q-0.02511-0.30136-0.22099-0.48719-0.19086-0.18584-0.47715-0.18584-0.28629 0-0.47715 0.18584-0.19086 0.18584-0.21597 0.48719z"/>
<path d="m38.486 60.713q-0.13561 0.06027-0.33149 0.12054-0.19588 0.06027-0.41185 0.06027-0.14063 0-0.2662-0.03516-0.12054-0.03516-0.21597-0.1105-0.09041-0.08036-0.14566-0.2009-0.05525-0.12556-0.05525-0.30136v-1.5118h-0.34656v-0.51733h0.34656v-0.85384h0.67303v0.85384h0.55248v0.51733h-0.55248v1.2858q0 0.14063 0.07032 0.2009 0.07534 0.05525 0.18081 0.05525t0.20593-0.03516 0.16072-0.06027z"/>
<path d="m40.415 60.713q-0.13561 0.06027-0.33149 0.12054-0.19588 0.06027-0.41185 0.06027-0.14063 0-0.2662-0.03516-0.12054-0.03516-0.21597-0.1105-0.09041-0.08036-0.14566-0.2009-0.05525-0.12556-0.05525-0.30136v-1.5118h-0.34656v-0.51733h0.34656v-0.85384h0.67303v0.85384h0.55248v0.51733h-0.55248v1.2858q0 0.14063 0.07032 0.2009 0.07534 0.05525 0.18081 0.05525t0.20593-0.03516 0.16072-0.06027z"/>
<path d="m41.57 60.898q-0.40683 0-0.61778-0.26118t-0.21095-0.77348v-1.6474h0.67303v1.5018q0 0.60773 0.43696 0.60773 0.19588 0 0.37669-0.11552 0.18584-0.12054 0.30136-0.36163v-1.6323h0.67303v1.8584q0 0.10547 0.03516 0.15068 0.04018 0.0452 0.12556 0.05023v0.57258q-0.10045 0.02009-0.17077 0.02511-0.06529 5e-3 -0.12054 5e-3 -0.18081 0-0.29633-0.08036-0.1105-0.08538-0.13059-0.23104l-0.01507-0.21095q-0.17579 0.27122-0.45203 0.40683-0.27624 0.13561-0.60773 0.13561z"/>
<path d="m47.959 60.848h-0.67303v-1.4766q0-0.31642-0.1105-0.46208-0.10547-0.14566-0.29633-0.14566-0.2009 0-0.37669 0.1557-0.17579 0.15068-0.25113 0.39678v1.5319h-0.67303v-1.4766q0-0.31642-0.1105-0.46208-0.10548-0.14566-0.29633-0.14566-0.19588 0-0.3767 0.15068-0.17579 0.15068-0.25113 0.39678v1.5369h-0.67303v-2.6318h0.60773v0.48719q0.14566-0.25615 0.39678-0.39176 0.25615-0.14063 0.58262-0.14063 0.33149 0 0.5123 0.16072 0.18081 0.16072 0.23104 0.39678 0.16072-0.27122 0.40683-0.41185 0.24611-0.14566 0.56253-0.14566 0.24108 0 0.39678 0.09041t0.24108 0.23606q0.08538 0.14566 0.11552 0.33149 0.03516 0.18584 0.03516 0.3767z"/>
<path d="m50.47 60.898q-0.19086 0-0.3566-0.06027-0.16574-0.06529-0.28629-0.17579-0.12054-0.11552-0.19086-0.2662-0.06529-0.15068-0.06529-0.33149 0-0.18584 0.08036-0.34154 0.08538-0.16072 0.23104-0.27122 0.15068-0.1105 0.3566-0.17077 0.20593-0.06529 0.45203-0.06529 0.17579 0 0.34154 0.03013 0.17077 0.03014 0.30136 0.08538v-0.15068q0-0.26118-0.15068-0.40181-0.14566-0.14063-0.43697-0.14063-0.21095 0-0.41185 0.07534t-0.41185 0.22099l-0.20593-0.42692q0.50728-0.33651 1.0949-0.33651 0.56755 0 0.87895 0.28126 0.31642 0.27624 0.31642 0.80362v0.81868q0 0.10547 0.03516 0.15068 0.04018 0.0452 0.12556 0.05023v0.57258q-0.17077 0.03516-0.29633 0.03516-0.19086 0-0.29633-0.08538-0.10045-0.08538-0.12556-0.22602l-0.01507-0.14566q-0.17579 0.23104-0.42692 0.35158-0.25113 0.12054-0.53742 0.12054zm0.19086-0.49221q0.17077 0 0.32145-0.06027 0.1557-0.06027 0.24108-0.16072 0.1105-0.08538 0.1105-0.19086v-0.30136q-0.12054-0.0452-0.26117-0.07032-0.14063-0.03014-0.27122-0.03014-0.26118 0-0.42692 0.12054-0.16575 0.11552-0.16575 0.29633 0 0.17077 0.13059 0.28629 0.13059 0.1105 0.32144 0.1105z"/>
<path d="m54.97 57.533-0.3566 0.19588q0.31642 0.36665 0.47212 0.80864 0.1557 0.43697 0.1557 0.85384 0 0.35158-0.10547 0.63285-0.10548 0.27624-0.29131 0.47212-0.18081 0.19588-0.43696 0.30136-0.25615 0.10045-0.55751 0.10045-0.29131 0-0.54244-0.09041-0.24611-0.09543-0.43194-0.25615-0.18081-0.16575-0.28629-0.38674-0.10547-0.22602-0.10547-0.48719 0-0.24611 0.09543-0.4671t0.25615-0.38172q0.16575-0.16072 0.38674-0.25615t0.47715-0.09543q0.26117 0 0.48719 0.1105 0.22602 0.10547 0.36665 0.28126-0.05525-0.24108-0.16072-0.4671-0.10547-0.22602-0.29131-0.43696l-0.4671 0.26118-0.19588-0.26118 0.42692-0.23606q-0.16072-0.14063-0.3566-0.27624t-0.44701-0.27122h0.86388q0.24108 0.13059 0.45203 0.3114l0.39678-0.22602zm-1.7931 2.1396q0 0.14063 0.05023 0.26117 0.05525 0.11552 0.14566 0.20593 0.09041 0.08538 0.21597 0.13561 0.12556 0.05023 0.27122 0.05023 0.15068 0 0.27624-0.05023 0.12556-0.05525 0.21597-0.14566 0.09543-0.09041 0.14566-0.21095 0.05525-0.12054 0.05525-0.26117 0-0.14063-0.05525-0.25615-0.05023-0.11552-0.14063-0.2009-0.09041-0.08538-0.21597-0.13059-0.12556-0.05023-0.27122-0.05023-0.15068 0-0.27624 0.05023-0.12556 0.05023-0.22099 0.14063-0.09041 0.08538-0.14566 0.20593-0.05023 0.11552-0.05023 0.25615z"/>
<path d="m57.914 60.898q-0.33149 0-0.64791-0.10548-0.31642-0.10547-0.54244-0.30136l0.25113-0.4219q0.24108 0.17077 0.4671 0.26118 0.23104 0.08538 0.45706 0.08538 0.2009 0 0.31642-0.07534 0.11552-0.07534 0.11552-0.21597 0-0.14063-0.13561-0.20593-0.13561-0.06529-0.44199-0.15068-0.25615-0.07032-0.43696-0.13561t-0.29131-0.14566q-0.1105-0.08538-0.16072-0.19086-0.05023-0.1105-0.05023-0.26117 0-0.2009 0.07534-0.36163 0.08036-0.16072 0.22099-0.27122 0.14063-0.11552 0.32647-0.17579 0.19086-0.06027 0.41185-0.06027 0.29633 0 0.55248 0.08539 0.26118 0.08538 0.47715 0.27624l-0.27122 0.40683q-0.2009-0.15068-0.39176-0.22099-0.18584-0.07032-0.37167-0.07032-0.17077 0-0.28629 0.07032-0.11552 0.07032-0.11552 0.22602 0 0.07032 0.02511 0.11552 0.03013 0.0452 0.09041 0.08036 0.06027 0.03516 0.1557 0.07032 0.10045 0.03014 0.24611 0.06529 0.27122 0.07032 0.46208 0.14063 0.19588 0.07032 0.31642 0.16072 0.12556 0.09041 0.18081 0.21095 0.06027 0.11552 0.06027 0.28126 0 0.38674-0.28629 0.61276-0.28629 0.22099-0.7785 0.22099z"/>
<path d="m60.993 60.713q-0.13561 0.06027-0.33149 0.12054-0.19588 0.06027-0.41185 0.06027-0.14063 0-0.2662-0.03516-0.12054-0.03516-0.21597-0.1105-0.09041-0.08036-0.14566-0.2009-0.05525-0.12556-0.05525-0.30136v-1.5118h-0.34656v-0.51733h0.34656v-0.85384h0.67303v0.85384h0.55248v0.51733h-0.55248v1.2858q0 0.14063 0.07032 0.2009 0.07534 0.05525 0.18081 0.05525 0.10547 0 0.20593-0.03516t0.16072-0.06027z"/>
<path d="m61.344 60.848v-2.6318h0.67303v2.6318zm0-2.9985v-0.668h0.67303v0.668z"/>
<path d="m62.62 57.182h0.67303v2.8227q0 0.14566 0.07032 0.22602 0.07032 0.08036 0.2009 0.08036 0.06027 0 0.13059-0.02009 0.07534-0.02009 0.14063-0.05023l0.09041 0.5123q-0.13561 0.06529-0.31642 0.10045-0.18081 0.03516-0.32647 0.03516-0.31642 0-0.49221-0.16574-0.17077-0.17077-0.17077-0.48217z"/>
<path d="m64.212 57.182h0.67303v2.8227q0 0.14566 0.07032 0.22602 0.07032 0.08036 0.2009 0.08036 0.06027 0 0.13059-0.02009 0.07534-0.02009 0.14063-0.05023l0.09041 0.5123q-0.13561 0.06529-0.31642 0.10045-0.18081 0.03516-0.32647 0.03516-0.31642 0-0.49221-0.16574-0.17077-0.17077-0.17077-0.48217z"/>
<path d="m66.527 60.898q-0.19086 0-0.3566-0.06027-0.16575-0.06529-0.28629-0.17579-0.12054-0.11552-0.19086-0.2662-0.06529-0.15068-0.06529-0.33149 0-0.18584 0.08036-0.34154 0.08538-0.16072 0.23104-0.27122 0.15068-0.1105 0.3566-0.17077 0.20593-0.06529 0.45203-0.06529 0.17579 0 0.34154 0.03013 0.17077 0.03014 0.30136 0.08538v-0.15068q0-0.26118-0.15068-0.40181-0.14566-0.14063-0.43696-0.14063-0.21095 0-0.41185 0.07534-0.2009 0.07534-0.41185 0.22099l-0.20593-0.42692q0.50728-0.33651 1.0949-0.33651 0.56755 0 0.87895 0.28126 0.31642 0.27624 0.31642 0.80362v0.81868q0 0.10547 0.03516 0.15068 0.04018 0.0452 0.12556 0.05023v0.57258q-0.17077 0.03516-0.29633 0.03516-0.19086 0-0.29633-0.08538-0.10045-0.08538-0.12556-0.22602l-0.01507-0.14566q-0.17579 0.23104-0.42692 0.35158-0.25113 0.12054-0.53742 0.12054zm0.19086-0.49221q0.17077 0 0.32145-0.06027 0.1557-0.06027 0.24108-0.16072 0.1105-0.08538 0.1105-0.19086v-0.30136q-0.12054-0.0452-0.26118-0.07032-0.14063-0.03014-0.27122-0.03014-0.26117 0-0.42692 0.12054-0.16574 0.11552-0.16574 0.29633 0 0.17077 0.13059 0.28629 0.13059 0.1105 0.32145 0.1105z"/>
<path d="m72.344 60.848h-0.67303v-1.4766q0-0.31642-0.1105-0.46208t-0.30638-0.14566q-0.10045 0-0.20593 0.04018t-0.2009 0.11552q-0.09041 0.07032-0.16574 0.17077-0.07534 0.10045-0.1105 0.22099v1.5369h-0.67303v-2.6318h0.60773v0.48719q0.14566-0.25113 0.4219-0.39176 0.27624-0.14063 0.6228-0.14063 0.24611 0 0.40181 0.09041 0.1557 0.09041 0.24108 0.23606 0.08538 0.14566 0.11552 0.33149 0.03516 0.18584 0.03516 0.3767z"/>
<path d="m74.147 60.898q-0.32145 0-0.5776-0.1105t-0.43696-0.29633q-0.17579-0.19086-0.27122-0.43697-0.09543-0.24611-0.09543-0.51733 0-0.27624 0.09543-0.52235t0.27122-0.43194q0.18081-0.19086 0.43696-0.30136t0.5776-0.1105 0.57258 0.1105q0.25615 0.1105 0.43194 0.30136 0.18081 0.18584 0.27624 0.43194 0.09543 0.24611 0.09543 0.52235 0 0.27122-0.09543 0.51733t-0.27122 0.43697q-0.17579 0.18584-0.43194 0.29633t-0.5776 0.1105zm-0.6881-1.3611q0 0.17579 0.05023 0.32144 0.05525 0.14063 0.14566 0.24611 0.09543 0.10548 0.22099 0.16575 0.12556 0.05525 0.27122 0.05525t0.27122-0.05525q0.12556-0.06027 0.21597-0.16575 0.09543-0.10547 0.14566-0.25113 0.05525-0.14566 0.05525-0.32145 0-0.17077-0.05525-0.31642-0.05023-0.14566-0.14566-0.25113-0.09041-0.10547-0.21597-0.16072-0.12556-0.06027-0.27122-0.06027t-0.27122 0.06027-0.22099 0.16575q-0.09041 0.10547-0.14566 0.25113-0.05023 0.14566-0.05023 0.31642z"/>
<path d="m77.773 60.848-0.76343-1.1401-0.36163 0.3566v0.78352h-0.67303v-3.6665h0.67303v2.225l1.0547-1.1853h0.71823l-0.9794 1.115 1.0497 1.5118z"/>
<path d="m80.576 60.848-0.76343-1.1401-0.36163 0.3566v0.78352h-0.67303v-3.6665h0.67303v2.225l1.0547-1.1853h0.71823l-0.9794 1.115 1.0497 1.5118z"/>
<path d="m82.384 60.898q-0.40683 0-0.61778-0.26118t-0.21095-0.77348v-1.6474h0.67303v1.5018q0 0.60773 0.43696 0.60773 0.19588 0 0.3767-0.11552 0.18584-0.12054 0.30136-0.36163v-1.6323h0.67303v1.8584q0 0.10547 0.03516 0.15068 0.04018 0.0452 0.12556 0.05023v0.57258q-0.10045 0.02009-0.17077 0.02511-0.06529 5e-3 -0.12054 5e-3 -0.18081 0-0.29633-0.08036-0.1105-0.08538-0.13059-0.23104l-0.01507-0.21095q-0.17579 0.27122-0.45203 0.40683-0.27624 0.13561-0.60773 0.13561z"/>
<path d="m86.251 58.799q-0.30638 5e-3 -0.54746 0.12054-0.24108 0.1105-0.34656 0.33651v1.5922h-0.67303v-2.6318h0.61778v0.56253q0.07032-0.13561 0.16574-0.24108 0.09543-0.1105 0.20593-0.19086 0.1105-0.08036 0.22099-0.12054 0.11552-0.0452 0.22099-0.0452 0.05525 0 0.08036 0 0.03014 0 0.05525 5e-3z"/>
<path d="m88.431 60.898q-0.19086 0-0.3566-0.06027-0.16575-0.06529-0.28629-0.17579-0.12054-0.11552-0.19086-0.2662-0.06529-0.15068-0.06529-0.33149 0-0.18584 0.08036-0.34154 0.08538-0.16072 0.23104-0.27122 0.15068-0.1105 0.3566-0.17077 0.20593-0.06529 0.45203-0.06529 0.17579 0 0.34154 0.03013 0.17077 0.03014 0.30136 0.08538v-0.15068q0-0.26118-0.15068-0.40181-0.14566-0.14063-0.43697-0.14063-0.21095 0-0.41185 0.07534-0.2009 0.07534-0.41185 0.22099l-0.20593-0.42692q0.50728-0.33651 1.0949-0.33651 0.56755 0 0.87895 0.28126 0.31642 0.27624 0.31642 0.80362v0.81868q0 0.10547 0.03516 0.15068 0.04018 0.0452 0.12556 0.05023v0.57258q-0.17077 0.03516-0.29633 0.03516-0.19086 0-0.29633-0.08538-0.10045-0.08538-0.12556-0.22602l-0.01507-0.14566q-0.17579 0.23104-0.42692 0.35158-0.25113 0.12054-0.53742 0.12054zm0.19086-0.49221q0.17077 0 0.32145-0.06027 0.1557-0.06027 0.24108-0.16072 0.1105-0.08538 0.1105-0.19086v-0.30136q-0.12054-0.0452-0.26117-0.07032-0.14063-0.03014-0.27122-0.03014-0.26118 0-0.42692 0.12054-0.16575 0.11552-0.16575 0.29633 0 0.17077 0.13059 0.28629 0.13059 0.1105 0.32145 0.1105z"/>
<path d="m92.153 60.713q-0.13561 0.06027-0.33149 0.12054-0.19588 0.06027-0.41185 0.06027-0.14063 0-0.2662-0.03516-0.12054-0.03516-0.21597-0.1105-0.09041-0.08036-0.14566-0.2009-0.05525-0.12556-0.05525-0.30136v-1.5118h-0.34656v-0.51733h0.34656v-0.85384h0.67303v0.85384h0.55248v0.51733h-0.55248v1.2858q0 0.14063 0.07032 0.2009 0.07534 0.05525 0.18081 0.05525 0.10547 0 0.20593-0.03516t0.16072-0.06027z"/>
<path d="m94.071 58.799q-0.30638 5e-3 -0.54746 0.12054-0.24108 0.1105-0.34656 0.33651v1.5922h-0.67303v-2.6318h0.61778v0.56253q0.07032-0.13561 0.16575-0.24108 0.09543-0.1105 0.20593-0.19086 0.1105-0.08036 0.22099-0.12054 0.11552-0.0452 0.22099-0.0452 0.05525 0 0.08036 0 0.03014 0 0.05525 5e-3z"/>
<path d="m94.448 60.848v-2.6318h0.67303v2.6318zm0-2.9985v-0.668h0.67303v0.668z"/>
<path d="m98.064 57.533-0.3566 0.19588q0.31642 0.36665 0.47212 0.80864 0.1557 0.43697 0.1557 0.85384 0 0.35158-0.10547 0.63285-0.10548 0.27624-0.29131 0.47212-0.18081 0.19588-0.43696 0.30136-0.25615 0.10045-0.55751 0.10045-0.29131 0-0.54244-0.09041-0.24611-0.09543-0.43194-0.25615-0.18081-0.16575-0.28629-0.38674-0.10547-0.22602-0.10547-0.48719 0-0.24611 0.09543-0.4671t0.25615-0.38172q0.16575-0.16072 0.38674-0.25615t0.47715-0.09543q0.26118 0 0.48719 0.1105 0.22602 0.10547 0.36665 0.28126-0.05525-0.24108-0.16072-0.4671-0.10547-0.22602-0.29131-0.43696l-0.4671 0.26118-0.19588-0.26118 0.42692-0.23606q-0.16072-0.14063-0.3566-0.27624t-0.44701-0.27122h0.86388q0.24108 0.13059 0.45203 0.3114l0.39678-0.22602zm-1.7931 2.1396q0 0.14063 0.05022 0.26117 0.05525 0.11552 0.14566 0.20593 0.09041 0.08538 0.21597 0.13561 0.12556 0.05023 0.27122 0.05023 0.15068 0 0.27624-0.05023 0.12556-0.05525 0.21597-0.14566 0.09543-0.09041 0.14566-0.21095 0.05525-0.12054 0.05525-0.26117 0-0.14063-0.05525-0.25615-0.05023-0.11552-0.14063-0.2009-0.09041-0.08538-0.21597-0.13059-0.12556-0.05023-0.27122-0.05023-0.15068 0-0.27624 0.05023-0.12556 0.05023-0.22099 0.14063-0.09041 0.08538-0.14566 0.20593-0.05022 0.11552-0.05022 0.25615z"/>
<path d="m98.808 60.848v-2.6318h0.67303v2.6318zm0-2.9985v-0.668h0.67303v0.668z"/>
<path d="m100.07 60.848v-0.72325h0.55248v0.72325z"/>
<path d="m101.2 60.848v-0.72325h0.55248v0.72325z"/>
<path d="m102.33 60.848v-0.72325h0.55249v0.72325z"/>
</g>
</g>
</g>
</svg>
