<?xml version="1.0" encoding="UTF-8"?>
<svg width="700" height="220" version="1.1" viewBox="0 0 185.21 58.208" xmlns="http://www.w3.org/2000/svg" xmlns:cc="http://creativecommons.org/ns#" xmlns:dc="http://purl.org/dc/elements/1.1/" xmlns:rdf="http://www.w3.org/1999/02/22-rdf-syntax-ns#">
<metadata>
<rdf:RDF>
<cc:Work rdf:about="">
<dc:format>image/svg+xml</dc:format>
<dc:type rdf:resource="http://purl.org/dc/dcmitype/StillImage"/>
<dc:title/>
</cc:Work>
</rdf:RDF>
</metadata>
<g transform="translate(-18.958 -31.678)">
<g fill="#386582">
<g stroke-width=".30304" aria-label="Witajcie!">
<path d="m29.468 43.941h1.5394l0.96972 2.8486 0.96972-2.8486h1.5516l-1.4667 3.9152 1.0909 2.7516 2.4364-6.6911h1.8182l-3.5031 8.6063h-1.4061l-1.4909-3.6122-1.4909 3.6122h-1.4061l-3.4789-8.6063h1.794l2.4485 6.6911 1.0667-2.7516z"/>
<path d="m39.104 52.523v-6.3517h1.6243v6.3517zm0-7.2365v-1.6122h1.6243v1.6122z"/>
<path d="m46.001 52.195q-0.32728 0.14546-0.80002 0.29092-0.47274 0.14546-0.99396 0.14546-0.3394 0-0.64244-0.08485-0.29092-0.08485-0.52122-0.26667-0.21819-0.19394-0.35152-0.48486-0.13334-0.30304-0.13334-0.72729v-3.6486h-0.83638v-1.2485h0.83638v-2.0607h1.6243v2.0607h1.3334v1.2485h-1.3334v3.1031q0 0.3394 0.1697 0.48486 0.18182 0.13334 0.43637 0.13334 0.25455 0 0.49698-0.08485t0.38789-0.14546z"/>
<path d="m48.583 52.644q-0.46062 0-0.86063-0.14546-0.40001-0.15758-0.69093-0.42425-0.29092-0.2788-0.46062-0.64244-0.15758-0.36364-0.15758-0.80002 0-0.4485 0.19394-0.82426 0.20606-0.38789 0.55759-0.65456 0.36364-0.26667 0.86063-0.41213 0.49698-0.15758 1.0909-0.15758 0.42425 0 0.82426 0.07273 0.41213 0.07273 0.72729 0.20606v-0.36364q0-0.63032-0.36364-0.96972-0.35152-0.3394-1.0546-0.3394-0.5091 0-0.99396 0.18182-0.48486 0.18182-0.99396 0.53335l-0.49698-1.0303q1.2243-0.81214 2.6425-0.81214 1.3697 0 2.1213 0.6788 0.76365 0.66668 0.76365 1.9394v1.9758q0 0.25455 0.08485 0.36364 0.09697 0.10909 0.30304 0.12122v1.3819q-0.41213 0.08485-0.71517 0.08485-0.46062 0-0.71517-0.20607-0.24243-0.20606-0.30304-0.54547l-0.03637-0.35152q-0.42425 0.55759-1.0303 0.8485t-1.297 0.29092zm0.46062-1.1879q0.41213 0 0.77578-0.14546 0.37577-0.14546 0.58183-0.38789 0.26667-0.20606 0.26667-0.46062v-0.72729q-0.29092-0.10909-0.63032-0.1697-0.3394-0.07273-0.65456-0.07273-0.63032 0-1.0303 0.29092-0.40001 0.2788-0.40001 0.71517 0 0.41213 0.31516 0.69092 0.31516 0.26667 0.77578 0.26667z"/>
<path d="m53.286 54.898q-0.46062 0-0.87275-0.14546-0.41213-0.13334-0.73941-0.42425l0.70305-1.1031q0.13334 0.13334 0.32728 0.19394 0.19394 0.07273 0.38789 0.07273 0.31516 0 0.54547-0.23031 0.23031-0.21819 0.23031-0.56971v-6.5214h1.6243v6.4002q0 0.5091-0.1697 0.93336-0.1697 0.43637-0.47274 0.73941-0.29092 0.31516-0.70305 0.48486-0.40001 0.1697-0.86063 0.1697zm0.58183-9.6123v-1.6122h1.6243v1.6122z"/>
<path d="m56.571 49.347q0-0.66668 0.23031-1.2606 0.23031-0.59395 0.66668-1.0424 0.43637-0.4485 1.0546-0.71517 0.6182-0.26667 1.394-0.26667 1.0424 0 1.7697 0.4485 0.73941 0.4485 1.1031 1.1758l-1.5879 0.48486q-0.20607-0.35152-0.54547-0.53335-0.3394-0.19394-0.75153-0.19394-0.35152 0-0.65456 0.14546-0.30304 0.13334-0.53335 0.38789-0.21819 0.24243-0.35152 0.59395-0.12122 0.35152-0.12122 0.77578 0 0.42425 0.13334 0.77578 0.13334 0.35152 0.35152 0.60608 0.23031 0.25455 0.53335 0.40001 0.30304 0.13334 0.64244 0.13334 0.43637 0 0.80002-0.21819 0.37577-0.21819 0.52122-0.53335l1.5879 0.48486q-0.32728 0.72729-1.0788 1.1879t-1.8061 0.46062q-0.77578 0-1.394-0.26667-0.6182-0.26667-1.0546-0.71517-0.43637-0.46062-0.6788-1.0546-0.23031-0.60608-0.23031-1.2606z"/>
<path d="m63.808 52.523v-6.3517h1.6243v6.3517zm0-7.2365v-1.6122h1.6243v1.6122z"/>
<path d="m69.844 52.644q-0.76365 0-1.3819-0.25455-0.6182-0.26667-1.0546-0.71517-0.43637-0.4485-0.6788-1.0424-0.23031-0.59395-0.23031-1.2485 0-0.6788 0.23031-1.2728 0.23031-0.60608 0.66668-1.0546 0.43637-0.46062 1.0546-0.72729 0.63032-0.26667 1.4061-0.26667t1.3819 0.26667q0.6182 0.26667 1.0424 0.71517 0.43637 0.4485 0.65456 1.0424 0.23031 0.59395 0.23031 1.2364 0 0.15758-0.01212 0.30304 0 0.14546-0.02424 0.24243h-4.9092q0.03637 0.37577 0.18182 0.66668 0.14546 0.29092 0.37577 0.49698 0.23031 0.20606 0.52122 0.31516 0.29092 0.10909 0.60608 0.10909 0.48486 0 0.90911-0.23031 0.43637-0.24243 0.59395-0.63032l1.394 0.38789q-0.35152 0.72729-1.1273 1.2-0.76366 0.46062-1.8303 0.46062zm1.6485-3.8304q-0.06061-0.71517-0.53335-1.1394-0.46062-0.43637-1.1273-0.43637-0.32728 0-0.6182 0.12122-0.27879 0.10909-0.49698 0.31516-0.21819 0.20607-0.36364 0.49698-0.13334 0.29092-0.15758 0.64244z"/>
<path d="m74.475 49.286v-5.4547h1.6243v5.4547zm0 3.2364v-1.8303h1.6243v1.8303z"/>
</g>
<g stroke-width=".12556" aria-label="Zmieńmy kilka ustawień...">
<path d="m28.399 59.797 2.0141-2.436h-1.9588v-0.60773h2.7574v0.52235l-1.9488 2.436h1.9638v0.60773h-2.8277z"/>
<path d="m35.752 60.319h-0.67303v-1.4766q0-0.31642-0.1105-0.46208-0.10547-0.14566-0.29633-0.14566-0.2009 0-0.3767 0.1557-0.17579 0.15068-0.25113 0.39678v1.5319h-0.67303v-1.4766q0-0.31642-0.1105-0.46208-0.10548-0.14566-0.29633-0.14566-0.19588 0-0.37669 0.15068-0.17579 0.15068-0.25113 0.39678v1.5369h-0.67303v-2.6318h0.60773v0.48719q0.14566-0.25615 0.39678-0.39176 0.25615-0.14063 0.58262-0.14063 0.33149 0 0.5123 0.16072t0.23104 0.39678q0.16072-0.27122 0.40683-0.41185 0.24611-0.14566 0.56253-0.14566 0.24108 0 0.39678 0.09041 0.1557 0.09041 0.24108 0.23606 0.08538 0.14566 0.11552 0.33149 0.03516 0.18584 0.03516 0.37669z"/>
<path d="m36.34 60.319v-2.6318h0.67303v2.6318zm0-2.9985v-0.668h0.67303v0.668z"/>
<path d="m38.841 60.369q-0.31642 0-0.57258-0.10547-0.25615-0.1105-0.43696-0.29633-0.18081-0.18584-0.28127-0.43194-0.09543-0.24611-0.09543-0.51733 0-0.28126 0.09543-0.52737 0.09543-0.25113 0.27624-0.43697 0.18081-0.19086 0.43696-0.30136 0.26118-0.1105 0.58262-0.1105t0.57258 0.1105q0.25615 0.1105 0.43194 0.29633 0.18081 0.18584 0.27122 0.43194 0.09543 0.24611 0.09543 0.5123 0 0.06529-5e-3 0.12556 0 0.06027-0.01004 0.10045h-2.0341q0.01507 0.1557 0.07534 0.27624t0.1557 0.20593q0.09543 0.08538 0.21597 0.13059 0.12054 0.0452 0.25113 0.0452 0.2009 0 0.37669-0.09543 0.18081-0.10045 0.24611-0.26117l0.5776 0.16072q-0.14566 0.30136-0.4671 0.49724-0.31642 0.19086-0.75841 0.19086zm0.68307-1.5871q-0.02511-0.29633-0.22099-0.47212-0.19086-0.18081-0.4671-0.18081-0.13561 0-0.25615 0.05023-0.11552 0.0452-0.20593 0.13059-0.09041 0.08538-0.15068 0.20593-0.05525 0.12054-0.06529 0.2662z"/>
<path d="m42.085 57.381-0.43194-0.13059 0.27122-0.59769h0.62782zm0.98945 2.9382h-0.67303v-1.4766q0-0.31642-0.1105-0.46208t-0.30638-0.14566q-0.10045 0-0.20593 0.04018-0.10548 0.04018-0.2009 0.11552-0.09041 0.07032-0.16574 0.17077-0.07534 0.10045-0.1105 0.22099v1.5369h-0.67303v-2.6318h0.60773v0.48719q0.14566-0.25113 0.4219-0.39176 0.27624-0.14063 0.6228-0.14063 0.24611 0 0.40181 0.09041t0.24108 0.23606q0.08538 0.14566 0.11552 0.33149 0.03516 0.18584 0.03516 0.37669z"/>
<path d="m47.751 60.319h-0.67303v-1.4766q0-0.31642-0.1105-0.46208-0.10547-0.14566-0.29633-0.14566-0.2009 0-0.37669 0.1557-0.17579 0.15068-0.25113 0.39678v1.5319h-0.67303v-1.4766q0-0.31642-0.1105-0.46208-0.10547-0.14566-0.29633-0.14566-0.19588 0-0.3767 0.15068-0.17579 0.15068-0.25113 0.39678v1.5369h-0.67303v-2.6318h0.60773v0.48719q0.14566-0.25615 0.39678-0.39176 0.25615-0.14063 0.58262-0.14063 0.33149 0 0.5123 0.16072 0.18081 0.16072 0.23104 0.39678 0.16072-0.27122 0.40683-0.41185 0.24611-0.14566 0.56253-0.14566 0.24108 0 0.39678 0.09041t0.24108 0.23606q0.08538 0.14566 0.11552 0.33149 0.03516 0.18584 0.03516 0.37669z"/>
<path d="m48.334 60.831q0.08538 0.02511 0.16575 0.03516 0.08036 0.01507 0.13561 0.01507 0.06529 0 0.12054-0.02511 0.05525-0.02511 0.10045-0.09041 0.0452-0.06027 0.09041-0.17077 0.0452-0.1105 0.09543-0.27624l-1.0397-2.6318h0.69312l0.71321 2.0492 0.63285-2.0492h0.63285l-1.105 3.1542q-0.09543 0.27624-0.32647 0.45203t-0.57258 0.17579q-0.08036 0-0.16575-0.01507-0.08036-0.01004-0.17077-0.04018z"/>
<path d="m53.909 60.319-0.76343-1.1401-0.36163 0.3566v0.78352h-0.67303v-3.6665h0.67303v2.225l1.0547-1.1853h0.71823l-0.9794 1.115 1.0497 1.5118z"/>
<path d="m54.913 60.319v-2.6318h0.67303v2.6318zm0-2.9985v-0.668h0.67303v0.668z"/>
<path d="m56.189 56.652h0.67303v2.8227q0 0.14566 0.07032 0.22602 0.07032 0.08036 0.2009 0.08036 0.06027 0 0.13059-0.02009 0.07534-0.02009 0.14063-0.05023l0.09041 0.5123q-0.13561 0.06529-0.31642 0.10045-0.18081 0.03516-0.32647 0.03516-0.31642 0-0.49221-0.16574-0.17077-0.17077-0.17077-0.48217z"/>
<path d="m59.584 60.319-0.76343-1.1401-0.36163 0.3566v0.78352h-0.67303v-3.6665h0.67303v2.225l1.0547-1.1853h0.71823l-0.9794 1.115 1.0497 1.5118z"/>
<path d="m61.272 60.369q-0.19086 0-0.3566-0.06027-0.16575-0.06529-0.28629-0.17579-0.12054-0.11552-0.19086-0.2662-0.06529-0.15068-0.06529-0.33149 0-0.18584 0.08036-0.34154 0.08538-0.16072 0.23104-0.27122 0.15068-0.1105 0.3566-0.17077 0.20593-0.06529 0.45203-0.06529 0.17579 0 0.34154 0.03014 0.17077 0.03014 0.30136 0.08538v-0.15068q0-0.26118-0.15068-0.40181-0.14566-0.14063-0.43696-0.14063-0.21095 0-0.41185 0.07534-0.2009 0.07534-0.41185 0.22099l-0.20593-0.42692q0.50728-0.33651 1.0949-0.33651 0.56755 0 0.87895 0.28126 0.31642 0.27624 0.31642 0.80361v0.81868q0 0.10547 0.03516 0.15068 0.04018 0.0452 0.12556 0.05023v0.57258q-0.17077 0.03516-0.29633 0.03516-0.19086 0-0.29633-0.08538-0.10045-0.08538-0.12556-0.22602l-0.01507-0.14566q-0.17579 0.23104-0.42692 0.35158-0.25113 0.12054-0.53742 0.12054zm0.19086-0.49221q0.17077 0 0.32145-0.06027 0.1557-0.06027 0.24108-0.16072 0.1105-0.08538 0.1105-0.19086v-0.30136q-0.12054-0.0452-0.26118-0.07032-0.14063-0.03014-0.27122-0.03014-0.26117 0-0.42692 0.12054-0.16574 0.11552-0.16574 0.29633 0 0.17077 0.13059 0.28629 0.13059 0.1105 0.32145 0.1105z"/>
<path d="m65.445 60.369q-0.40683 0-0.61778-0.26117-0.21095-0.26118-0.21095-0.77348v-1.6474h0.67303v1.5018q0 0.60773 0.43696 0.60773 0.19588 0 0.37669-0.11552 0.18584-0.12054 0.30136-0.36163v-1.6323h0.67303v1.8584q0 0.10547 0.03516 0.15068 0.04018 0.0452 0.12556 0.05023v0.57258q-0.10045 0.02009-0.17077 0.02511-0.06529 5e-3 -0.12054 5e-3 -0.18081 0-0.29633-0.08036-0.1105-0.08538-0.13059-0.23104l-0.01507-0.21095q-0.17579 0.27122-0.45203 0.40683-0.27624 0.13561-0.60773 0.13561z"/>
<path d="m68.74 60.369q-0.33149 0-0.64791-0.10547t-0.54244-0.30136l0.25113-0.4219q0.24108 0.17077 0.4671 0.26118 0.23104 0.08538 0.45706 0.08538 0.2009 0 0.31642-0.07534 0.11552-0.07534 0.11552-0.21597t-0.13561-0.20593q-0.13561-0.06529-0.44199-0.15068-0.25615-0.07032-0.43696-0.13561t-0.29131-0.14566q-0.1105-0.08538-0.16072-0.19086-0.05023-0.1105-0.05023-0.26118 0-0.2009 0.07534-0.36163 0.08036-0.16072 0.22099-0.27122 0.14063-0.11552 0.32647-0.17579 0.19086-0.06027 0.41185-0.06027 0.29633 0 0.55248 0.08538 0.26118 0.08538 0.47715 0.27624l-0.27122 0.40683q-0.2009-0.15068-0.39176-0.22099-0.18584-0.07032-0.37167-0.07032-0.17077 0-0.28629 0.07032-0.11552 0.07032-0.11552 0.22602 0 0.07032 0.02511 0.11552 0.03013 0.0452 0.09041 0.08036 0.06027 0.03516 0.1557 0.07032 0.10045 0.03014 0.24611 0.06529 0.27122 0.07032 0.46208 0.14063 0.19588 0.07032 0.31642 0.16072 0.12556 0.09041 0.18081 0.21095 0.06027 0.11552 0.06027 0.28126 0 0.38674-0.28629 0.61276-0.28629 0.22099-0.7785 0.22099z"/>
<path d="m71.819 60.183q-0.13561 0.06027-0.33149 0.12054-0.19588 0.06027-0.41185 0.06027-0.14063 0-0.2662-0.03516-0.12054-0.03516-0.21597-0.1105-0.09041-0.08036-0.14566-0.2009-0.05525-0.12556-0.05525-0.30136v-1.5118h-0.34656v-0.51733h0.34656v-0.85384h0.67303v0.85384h0.55248v0.51733h-0.55248v1.2858q0 0.14063 0.07032 0.2009 0.07534 0.05525 0.18081 0.05525t0.20593-0.03516 0.16072-0.06027z"/>
<path d="m72.889 60.369q-0.19086 0-0.3566-0.06027-0.16575-0.06529-0.28629-0.17579-0.12054-0.11552-0.19086-0.2662-0.06529-0.15068-0.06529-0.33149 0-0.18584 0.08036-0.34154 0.08538-0.16072 0.23104-0.27122 0.15068-0.1105 0.3566-0.17077 0.20593-0.06529 0.45203-0.06529 0.17579 0 0.34154 0.03014 0.17077 0.03014 0.30136 0.08538v-0.15068q0-0.26118-0.15068-0.40181-0.14566-0.14063-0.43697-0.14063-0.21095 0-0.41185 0.07534-0.2009 0.07534-0.41185 0.22099l-0.20593-0.42692q0.50728-0.33651 1.0949-0.33651 0.56755 0 0.87895 0.28126 0.31642 0.27624 0.31642 0.80361v0.81868q0 0.10547 0.03516 0.15068 0.04018 0.0452 0.12556 0.05023v0.57258q-0.17077 0.03516-0.29633 0.03516-0.19086 0-0.29633-0.08538-0.10045-0.08538-0.12556-0.22602l-0.01507-0.14566q-0.17579 0.23104-0.42692 0.35158-0.25113 0.12054-0.53742 0.12054zm0.19086-0.49221q0.17077 0 0.32145-0.06027 0.1557-0.06027 0.24108-0.16072 0.1105-0.08538 0.1105-0.19086v-0.30136q-0.12054-0.0452-0.26117-0.07032-0.14063-0.03014-0.27122-0.03014-0.26118 0-0.42692 0.12054-0.16575 0.11552-0.16575 0.29633 0 0.17077 0.13059 0.28629 0.13059 0.1105 0.32145 0.1105z"/>
<path d="m78.248 57.687h0.63787l-1.0999 2.6318h-0.55248l-0.45203-1.1552-0.44701 1.1552h-0.55248l-1.0949-2.6318h0.63285l0.78352 1.999 0.32145-0.85384-0.46208-1.1401h0.54244l0.27624 0.80864 0.28126-0.80864h0.54244l-0.45706 1.1401 0.31642 0.85384z"/>
<path d="m79.197 60.319v-2.6318h0.67303v2.6318zm0-2.9985v-0.668h0.67303v0.668z"/>
<path d="m81.698 60.369q-0.31642 0-0.57258-0.10547-0.25615-0.1105-0.43696-0.29633-0.18081-0.18584-0.28126-0.43194-0.09543-0.24611-0.09543-0.51733 0-0.28126 0.09543-0.52737 0.09543-0.25113 0.27624-0.43697 0.18081-0.19086 0.43696-0.30136 0.26118-0.1105 0.58262-0.1105t0.57258 0.1105q0.25615 0.1105 0.43194 0.29633 0.18081 0.18584 0.27122 0.43194 0.09543 0.24611 0.09543 0.5123 0 0.06529-5e-3 0.12556 0 0.06027-0.01005 0.10045h-2.0341q0.01507 0.1557 0.07534 0.27624t0.1557 0.20593q0.09543 0.08538 0.21597 0.13059 0.12054 0.0452 0.25113 0.0452 0.2009 0 0.3767-0.09543 0.18081-0.10045 0.24611-0.26117l0.5776 0.16072q-0.14566 0.30136-0.4671 0.49724-0.31642 0.19086-0.75841 0.19086zm0.68307-1.5871q-0.02511-0.29633-0.22099-0.47212-0.19086-0.18081-0.4671-0.18081-0.13561 0-0.25615 0.05023-0.11552 0.0452-0.20593 0.13059-0.09041 0.08538-0.15068 0.20593-0.05525 0.12054-0.06529 0.2662z"/>
<path d="m84.943 57.381-0.43194-0.13059 0.27122-0.59769h0.62782zm0.98945 2.9382h-0.67303v-1.4766q0-0.31642-0.1105-0.46208t-0.30638-0.14566q-0.10045 0-0.20593 0.04018t-0.2009 0.11552q-0.09041 0.07032-0.16574 0.17077-0.07534 0.10045-0.1105 0.22099v1.5369h-0.67303v-2.6318h0.60773v0.48719q0.14566-0.25113 0.4219-0.39176 0.27624-0.14063 0.6228-0.14063 0.24611 0 0.40181 0.09041t0.24108 0.23606q0.08538 0.14566 0.11552 0.33149 0.03516 0.18584 0.03516 0.37669z"/>
<path d="m86.505 60.319v-0.72325h0.55248v0.72325z"/>
<path d="m87.635 60.319v-0.72325h0.55248v0.72325z"/>
<path d="m88.765 60.319v-0.72325h0.55248v0.72325z"/>
</g>
</g>
</g>
</svg>
