<?xml version="1.0" encoding="UTF-8"?>
<svg width="700" height="220" version="1.1" viewBox="0 0 185.21 58.208" xmlns="http://www.w3.org/2000/svg" xmlns:cc="http://creativecommons.org/ns#" xmlns:dc="http://purl.org/dc/elements/1.1/" xmlns:rdf="http://www.w3.org/1999/02/22-rdf-syntax-ns#">
<metadata>
<rdf:RDF>
<cc:Work rdf:about="">
<dc:format>image/svg+xml</dc:format>
<dc:type rdf:resource="http://purl.org/dc/dcmitype/StillImage"/>
<dc:title/>
</cc:Work>
</rdf:RDF>
</metadata>
<path d="m77.92 26.914v-0.73359h0.58957v0.73359zm-1.0724 0v-0.73359h0.58957v0.73359zm-1.0724 0v-0.73359h0.58957v0.73359zm-1.3054 0.04501q-0.30154 0-0.59407-0.09451-0.29254-0.09901-0.49506-0.28354l0.25653-0.44106q0.21603 0.14852 0.41855 0.22953 0.20703 0.08101 0.39605 0.08101 0.13952 0 0.21603-0.04951t0.07651-0.14402q0-0.09451-0.09901-0.14852-0.09451-0.05851-0.33754-0.12152-0.23853-0.06751-0.40505-0.13052-0.16202-0.06301-0.26553-0.13952-0.10351-0.07651-0.14852-0.17552-0.04501-0.09901-0.04501-0.23403 0-0.18002 0.07201-0.32854 0.07201-0.14852 0.19802-0.25203 0.12602-0.10351 0.29704-0.16202 0.17552-0.05851 0.37805-0.05851 0.26553 0 0.49506 0.07201 0.23403 0.07201 0.45006 0.26103l-0.27903 0.43205q-0.20252-0.13952-0.36004-0.20252-0.15752-0.06301-0.30604-0.06301-0.11702 0-0.19802 0.04951-0.08101 0.04501-0.08101 0.14852 0 0.09901 0.08551 0.14852 0.09001 0.04951 0.32854 0.10801 0.25203 0.06751 0.42305 0.13502 0.17552 0.06751 0.28354 0.15302 0.10801 0.08101 0.15752 0.18902 0.04951 0.10801 0.04951 0.25653 0 0.35104-0.26103 0.55807-0.26103 0.20703-0.70659 0.20703zm-2.8981 0q-0.17552 0-0.32854-0.05401-0.14852-0.05851-0.25653-0.15752-0.10801-0.10351-0.17102-0.23853-0.06301-0.13952-0.06301-0.30154 0-0.17552 0.07201-0.31954 0.07651-0.14402 0.21153-0.24753 0.13502-0.10351 0.31954-0.16202 0.18452-0.05851 0.40955-0.05851 0.14852 0 0.28804 0.027 0.13952 0.0225 0.24303 0.07201v-0.10801q0-0.40955-0.47256-0.40955-0.19352 0-0.36905 0.06751-0.17552 0.06301-0.36905 0.19352l-0.21153-0.45006q0.23403-0.15302 0.48606-0.22953 0.25203-0.07651 0.53557-0.07651 0.53557 0 0.8281 0.25203t0.29254 0.73809v0.60758q0 0.10801 0.0315 0.15302 0.03601 0.0405 0.12152 0.04951v0.60758q-0.09451 0.0225-0.17102 0.027-0.07651 9e-3 -0.13952 9e-3 -0.20252 0-0.30604-0.07651-0.10351-0.08101-0.13052-0.22503l-0.0135-0.10801q-0.15752 0.20252-0.37805 0.31054-0.21603 0.10801-0.45906 0.10801zm0.21153-0.51756q0.11702 0 0.22503-0.0405 0.11251-0.0405 0.18452-0.10801 0.10351-0.08101 0.10351-0.17102v-0.22503q-0.09451-0.036-0.20703-0.05401-0.10801-0.0225-0.20252-0.0225-0.19802 0-0.32854 0.09001-0.12602 0.09001-0.12602 0.23403 0 0.13052 0.09901 0.21603 0.09901 0.08101 0.25203 0.08101zm-2.192 0.51756q-0.30154 0-0.59407-0.09451-0.29254-0.09901-0.49506-0.28354l0.25653-0.44106q0.21603 0.14852 0.41855 0.22953 0.20703 0.08101 0.39605 0.08101 0.13952 0 0.21603-0.04951 0.07651-0.04951 0.07651-0.14402 0-0.09451-0.09901-0.14852-0.09451-0.05851-0.33754-0.12152-0.23853-0.06751-0.40505-0.13052-0.16202-0.06301-0.26553-0.13952-0.10351-0.07651-0.14852-0.17552-0.04501-0.09901-0.04501-0.23403 0-0.18002 0.07201-0.32854 0.07201-0.14852 0.19802-0.25203t0.29704-0.16202q0.17552-0.05851 0.37805-0.05851 0.26553 0 0.49506 0.07201 0.23403 0.07201 0.45006 0.26103l-0.27904 0.43205q-0.20252-0.13952-0.36004-0.20252-0.15752-0.06301-0.30604-0.06301-0.11702 0-0.19802 0.04951-0.08101 0.04501-0.08101 0.14852 0 0.09901 0.08551 0.14852 0.09001 0.04951 0.32854 0.10801 0.25203 0.06751 0.42305 0.13502 0.17552 0.06751 0.28354 0.15302 0.10801 0.08101 0.15752 0.18902 0.04951 0.10801 0.04951 0.25653 0 0.35104-0.26103 0.55807-0.26103 0.20703-0.70659 0.20703zm-2.549 0q-0.30154 0-0.54007-0.09901-0.23403-0.09901-0.39605-0.26553-0.16202-0.17102-0.24753-0.39155-0.08101-0.22503-0.08101-0.46806 0-0.24303 0.08101-0.46356 0.08551-0.22503 0.24753-0.39155 0.16202-0.17102 0.39605-0.27003 0.23853-0.10351 0.54007-0.10351 0.30154 0 0.53557 0.10351 0.23403 0.09901 0.39605 0.27003 0.16202 0.16652 0.24753 0.39155 0.08551 0.22053 0.08551 0.46356 0 0.24303-0.08551 0.46806-0.08101 0.22053-0.24303 0.39155-0.16202 0.16652-0.40055 0.26553-0.23403 0.09901-0.53557 0.09901zm-0.52657-1.2242q0 0.27903 0.14852 0.45006 0.14852 0.16652 0.37805 0.16652 0.11251 0 0.20703-0.045 0.09451-0.04501 0.16202-0.12602 0.07201-0.08101 0.11251-0.19352 0.0405-0.11702 0.0405-0.25203 0-0.27904-0.14852-0.44556-0.14852-0.17102-0.37355-0.17102-0.11251 0-0.21153 0.045-0.09451 0.04501-0.16652 0.12602-0.06751 0.08101-0.10801 0.19802-0.0405 0.11251-0.0405 0.24753zm-3.2784-0.0045q0-0.24303 0.08551-0.46356 0.08551-0.22503 0.24753-0.39155 0.16202-0.17102 0.39605-0.27003 0.23853-0.09901 0.54007-0.09901 0.40955 0 0.68858 0.17552 0.27904 0.17102 0.41855 0.45006l-0.70209 0.21153q-0.13952-0.22503-0.40955-0.22503-0.22503 0-0.37805 0.16652-0.14852 0.16652-0.14852 0.44556 0 0.13952 0.04051 0.25653 0.0405 0.11251 0.11251 0.19352 0.07201 0.08101 0.16652 0.12602 0.09901 0.045 0.20703 0.045 0.13502 0 0.24753-0.06301 0.11251-0.06751 0.16652-0.17102l0.70209 0.21603q-0.13052 0.27453-0.41855 0.45006-0.28354 0.17552-0.69309 0.17552-0.29704 0-0.53557-0.09901-0.23403-0.10351-0.40055-0.27003-0.16202-0.17102-0.24753-0.39155-0.08551-0.22503-0.08551-0.46806zm-2.2164 1.2287q-0.30154 0-0.59407-0.09451-0.29254-0.09901-0.49506-0.28354l0.25653-0.44106q0.21603 0.14852 0.41855 0.22953 0.20703 0.08101 0.39605 0.08101 0.13952 0 0.21603-0.04951 0.07651-0.04951 0.07651-0.14402 0-0.09451-0.09901-0.14852-0.09451-0.05851-0.33754-0.12152-0.23853-0.06751-0.40505-0.13052-0.16202-0.06301-0.26553-0.13952-0.10351-0.07651-0.14852-0.17552-0.045-0.09901-0.045-0.23403 0-0.18002 0.07201-0.32854 0.07201-0.14852 0.19802-0.25203 0.12602-0.10351 0.29704-0.16202 0.17552-0.05851 0.37805-0.05851 0.26553 0 0.49506 0.07201 0.23403 0.07201 0.45006 0.26103l-0.27904 0.43205q-0.20252-0.13952-0.36004-0.20252-0.15752-0.06301-0.30604-0.06301-0.11701 0-0.19802 0.04951-0.08101 0.04501-0.08101 0.14852 0 0.09901 0.08551 0.14852 0.09001 0.04951 0.32854 0.10801 0.25203 0.06751 0.42305 0.13502 0.17552 0.06751 0.28354 0.15302 0.10801 0.08101 0.15752 0.18902 0.04951 0.10801 0.04951 0.25653 0 0.35104-0.26103 0.55807-0.26103 0.20703-0.70659 0.20703zm-2.8981 0q-0.17552 0-0.32854-0.05401-0.14852-0.05851-0.25653-0.15752-0.10801-0.10351-0.17102-0.23853-0.06301-0.13952-0.06301-0.30154 0-0.17552 0.07201-0.31954 0.07651-0.14402 0.21153-0.24753 0.13502-0.10351 0.31954-0.16202 0.18452-0.05851 0.40955-0.05851 0.14852 0 0.28804 0.027 0.13952 0.0225 0.24303 0.07201v-0.10801q0-0.40955-0.47256-0.40955-0.19352 0-0.36905 0.06751-0.17552 0.06301-0.36905 0.19352l-0.21153-0.45005q0.23403-0.15302 0.48606-0.22953t0.53557-0.07651q0.53557 0 0.8281 0.25203 0.29254 0.25203 0.29254 0.73809v0.60758q0 0.10801 0.0315 0.15302 0.036 0.0405 0.12152 0.04951v0.60758q-0.09451 0.0225-0.17102 0.027-0.07651 9e-3 -0.13952 9e-3 -0.20252 0-0.30604-0.07651-0.10351-0.08101-0.13052-0.22503l-0.0135-0.10801q-0.15752 0.20252-0.37805 0.31054-0.21603 0.10801-0.45906 0.10801zm0.21153-0.51756q0.11701 0 0.22503-0.0405 0.11251-0.0405 0.18452-0.10801 0.10351-0.08101 0.10351-0.17102v-0.22503q-0.09451-0.036-0.20702-0.05401-0.10801-0.0225-0.20253-0.0225-0.19802 0-0.32854 0.09001-0.12602 0.09001-0.12602 0.23403 0 0.13052 0.09901 0.21603 0.09901 0.08101 0.25203 0.08101zm-1.3561 0.47256h-0.72009v-1.3277q0-0.23403-0.09001-0.33754-0.08551-0.10801-0.22953-0.10801-0.07651 0-0.15302 0.0315-0.07651 0.0315-0.14852 0.09001-0.07201 0.05401-0.13052 0.13052-0.05401 0.07651-0.08551 0.16652v1.3547h-0.72009v-2.3628h0.64808v0.39605q0.13052-0.21153 0.36904-0.32404 0.23853-0.11701 0.54907-0.11701 0.22953 0 0.36905 0.08551 0.13952 0.08101 0.21603 0.21603 0.07651 0.13052 0.09901 0.28804 0.027 0.15752 0.027 0.30604zm-4.3833 0.04501q-0.36454 0-0.55357-0.22503-0.18452-0.22953-0.18452-0.67058v-1.5122h0.72009v1.3547q0 0.21603 0.08551 0.33304 0.08551 0.11251 0.24303 0.11251 0.14402 0 0.27903-0.07651t0.23853-0.26553v-1.4582h0.72009v1.5527q0 0.10801 0.0315 0.15302 0.03601 0.0405 0.12152 0.04951v0.60758q-0.10351 0.0225-0.17552 0.027-0.07201 9e-3 -0.13052 9e-3 -0.38705 0-0.44105-0.30154l-0.0135-0.14402q-0.16202 0.23403-0.40505 0.34654-0.23853 0.10801-0.53557 0.10801zm-2.6806-0.036q-0.23403 0-0.42755-0.09451t-0.33304-0.25653q-0.13502-0.16202-0.21153-0.37805t-0.07651-0.46356q0-0.26103 0.08101-0.48156 0.08101-0.22503 0.22503-0.38705 0.14402-0.16652 0.34654-0.26103 0.20252-0.09451 0.44556-0.09451 0.27003 0 0.46806 0.11701 0.20253 0.11251 0.32404 0.31504v-0.38705h0.62558v2.2008q0 0.27003-0.10351 0.48606-0.09901 0.21603-0.27904 0.36454-0.18002 0.15302-0.43205 0.23403-0.25203 0.08101-0.55357 0.08101-0.38255 0-0.65258-0.12152-0.27003-0.12152-0.47256-0.35104l0.38705-0.39155q0.13052 0.14852 0.32404 0.23403 0.19352 0.09001 0.41405 0.09001 0.13052 0 0.24753-0.03601 0.11702-0.036 0.20703-0.11251 0.09001-0.07201 0.13952-0.19352 0.05401-0.11701 0.05401-0.28354v-0.22953q-0.10801 0.19802-0.31054 0.30154-0.20252 0.09901-0.43655 0.09901zm0.24753-0.57157q0.16652 0 0.29704-0.09001 0.13052-0.09451 0.20252-0.23853v-0.49506q-0.07201-0.18902-0.22053-0.29704-0.14852-0.11251-0.31504-0.11251-0.11701 0-0.21603 0.05401-0.09451 0.04951-0.16652 0.13952-0.06751 0.08551-0.10801 0.20252-0.036 0.11251-0.036 0.23403 0 0.13052 0.04051 0.24303 0.045 0.10801 0.12152 0.18902 0.07651 0.08101 0.17552 0.12602 0.10351 0.045 0.22503 0.045zm-2.6866-2.7228h0.72009v2.4438q0 0.27003 0.22953 0.27003 0.05401 0 0.11702-0.0135 0.06751-0.018 0.12152-0.04951l0.09451 0.54007q-0.13502 0.06301-0.31054 0.09901t-0.32854 0.036q-0.31054 0-0.47706-0.16202-0.16652-0.16202-0.16652-0.46806zm-1.9575 3.3304q-0.17552 0-0.32854-0.05401-0.14852-0.05851-0.25653-0.15752-0.10801-0.10351-0.17102-0.23853-0.06301-0.13952-0.06301-0.30154 0-0.17552 0.07201-0.31954 0.07651-0.14402 0.21153-0.24753 0.13502-0.10351 0.31954-0.16202 0.18452-0.05851 0.40955-0.05851 0.14852 0 0.28804 0.027 0.13952 0.0225 0.24303 0.07201v-0.10801q0-0.40955-0.47256-0.40955-0.19352 0-0.36905 0.06751-0.17552 0.06301-0.36905 0.19352l-0.21153-0.45006q0.23403-0.15302 0.48606-0.22953 0.25203-0.07651 0.53557-0.07651 0.53557 0 0.8281 0.25203t0.29254 0.73809v0.60758q0 0.10801 0.0315 0.15302 0.03601 0.0405 0.12152 0.04951v0.60758q-0.09451 0.0225-0.17102 0.027-0.07651 9e-3 -0.13952 9e-3 -0.20252 0-0.30604-0.07651-0.10351-0.08101-0.13052-0.22503l-0.0135-0.10801q-0.15752 0.20252-0.37805 0.31054-0.21603 0.10801-0.45906 0.10801zm0.21153-0.51756q0.11702 0 0.22503-0.0405 0.11251-0.0405 0.18452-0.10801 0.10351-0.08101 0.10351-0.17102v-0.22503q-0.09451-0.036-0.20703-0.05401-0.10801-0.0225-0.20252-0.0225-0.19802 0-0.32854 0.09001-0.12602 0.09001-0.12602 0.23403 0 0.13052 0.09901 0.21603 0.09901 0.08101 0.25203 0.08101zm-3.238 0.51756q-0.30154 0-0.59407-0.09451-0.29254-0.09901-0.49506-0.28354l0.25653-0.44106q0.21603 0.14852 0.41855 0.22953 0.20703 0.08101 0.39605 0.08101 0.13952 0 0.21603-0.04951 0.07651-0.04951 0.07651-0.14402 0-0.09451-0.09901-0.14852-0.09451-0.05851-0.33754-0.12152-0.23853-0.06751-0.40505-0.13052-0.16202-0.06301-0.26553-0.13952-0.10351-0.07651-0.14852-0.17552-0.04501-0.09901-0.04501-0.23403 0-0.18002 0.07201-0.32854 0.07201-0.14852 0.19802-0.25203t0.29704-0.16202q0.17552-0.05851 0.37805-0.05851 0.26553 0 0.49506 0.07201 0.23403 0.07201 0.45006 0.26103l-0.27903 0.43205q-0.20253-0.13952-0.36004-0.20252-0.15752-0.06301-0.30604-0.06301-0.11702 0-0.19802 0.04951-0.08101 0.04501-0.08101 0.14852 0 0.09901 0.08551 0.14852 0.09001 0.04951 0.32854 0.10801 0.25203 0.06751 0.42305 0.13502 0.17552 0.06751 0.28354 0.15302 0.10801 0.08101 0.15752 0.18902 0.04951 0.10801 0.04951 0.25653 0 0.35104-0.26103 0.55807-0.26103 0.20703-0.70659 0.20703zm-2.549 0q-0.30154 0-0.54007-0.09901-0.23403-0.09901-0.39605-0.26553-0.16202-0.17102-0.24753-0.39155-0.08101-0.22503-0.08101-0.46806 0-0.24303 0.08101-0.46356 0.08551-0.22503 0.24753-0.39155 0.16202-0.17102 0.39605-0.27003 0.23853-0.10351 0.54007-0.10351 0.30154 0 0.53557 0.10351 0.23403 0.09901 0.39605 0.27003 0.16202 0.16652 0.24753 0.39155 0.08551 0.22053 0.08551 0.46356 0 0.24303-0.08551 0.46806-0.08101 0.22053-0.24303 0.39155-0.16202 0.16652-0.40055 0.26553-0.23403 0.09901-0.53557 0.09901zm-0.52657-1.2242q0 0.27903 0.14852 0.45006 0.14852 0.16652 0.37805 0.16652 0.11251 0 0.20703-0.045 0.09451-0.04501 0.16202-0.12602 0.07201-0.08101 0.11251-0.19352 0.04051-0.11702 0.04051-0.25203 0-0.27904-0.14852-0.44556-0.14852-0.17102-0.37355-0.17102-0.11251 0-0.21153 0.045-0.09451 0.04501-0.16652 0.12602-0.06751 0.08101-0.10801 0.19802-0.0405 0.11251-0.0405 0.24753zm-1.0736 1.1791h-0.72009v-1.3277q0-0.23403-0.08551-0.33754-0.08551-0.10801-0.22053-0.10801-0.07201 0-0.14852 0.0315-0.07201 0.0315-0.13502 0.09001-0.06301 0.05401-0.11701 0.13052-0.04951 0.07651-0.08101 0.16652v1.3547h-0.72009v-1.3277q0-0.23403-0.08551-0.33754-0.08551-0.10801-0.22053-0.10801-0.14402 0-0.28354 0.11701-0.13502 0.11251-0.19802 0.30154v1.3547h-0.72009v-2.3628h0.64808v0.39605q0.13052-0.21603 0.35104-0.32854 0.22503-0.11251 0.52206-0.11251 0.14852 0 0.25653 0.036 0.11251 0.036 0.19352 0.09901t0.13052 0.14852q0.04951 0.08101 0.07201 0.17552 0.13502-0.22053 0.35554-0.33754 0.22053-0.12152 0.50406-0.12152 0.22503 0 0.36004 0.08551 0.13952 0.08101 0.21603 0.21603 0.07651 0.13052 0.09901 0.28804 0.027 0.15752 0.027 0.30604zm-5.322 0.04501q-0.29704 0-0.53557-0.09451-0.23403-0.09901-0.40055-0.26553-0.16202-0.16652-0.24753-0.38255-0.08551-0.22053-0.08551-0.45906 0-0.25653 0.08551-0.48156 0.08551-0.22953 0.24753-0.40055 0.16202-0.17102 0.39605-0.27003 0.23853-0.09901 0.54007-0.09901t0.53557 0.09901 0.39605 0.27003q0.16202 0.16652 0.24303 0.38705 0.08551 0.22053 0.08551 0.46356 0 0.06301-0.0045 0.12602-0.0045 0.05851-0.0135 0.10351h-1.7462q0.018 0.23853 0.17102 0.36454 0.15752 0.12152 0.35554 0.12152 0.15752 0 0.30154-0.07651 0.14852-0.07651 0.19802-0.20703l0.61208 0.17102q-0.13952 0.27904-0.43205 0.45456-0.29254 0.17552-0.70209 0.17552zm0.49956-1.4492q-0.0225-0.22503-0.16202-0.35554-0.13952-0.13052-0.34654-0.13052-0.21153 0-0.35104 0.13502-0.13502 0.13052-0.15752 0.35104zm-1.8182-0.34204q-0.26103 0.0045-0.47256 0.08551-0.21153 0.08101-0.30604 0.24303v1.4177h-0.72009v-2.3628h0.66158v0.47706q0.12152-0.23853 0.31054-0.37355 0.19352-0.13502 0.40955-0.13952 0.04951 0 0.07201 0t0.045 0.0045zm-3.6047 1.7912q-0.36455 0-0.55357-0.22503-0.18452-0.22953-0.18452-0.67058v-1.5122h0.72009v1.3547q0 0.21603 0.08551 0.33304 0.08551 0.11251 0.24303 0.11251 0.14402 0 0.27904-0.07651t0.23853-0.26553v-1.4582h0.72009v1.5527q0 0.10801 0.0315 0.15302 0.036 0.0405 0.12152 0.04951v0.60758q-0.10351 0.0225-0.17552 0.027-0.07201 9e-3 -0.13052 9e-3 -0.38705 0-0.44106-0.30154l-0.0135-0.14402q-0.16202 0.23403-0.40505 0.34654-0.23853 0.10801-0.53557 0.10801zm-2.6806-0.036q-0.23403 0-0.42755-0.09451t-0.33304-0.25653q-0.13502-0.16202-0.21153-0.37805-0.07651-0.21603-0.07651-0.46356 0-0.26103 0.08101-0.48156 0.08101-0.22503 0.22503-0.38705 0.14402-0.16652 0.34654-0.26103 0.20252-0.09451 0.44556-0.09451 0.27003 0 0.46806 0.11701 0.20252 0.11251 0.32404 0.31504v-0.38705h0.62558v2.2008q0 0.27003-0.10351 0.48606-0.09901 0.21603-0.27903 0.36454-0.18002 0.15302-0.43205 0.23403t-0.55357 0.08101q-0.38255 0-0.65258-0.12152t-0.47256-0.35104l0.38705-0.39155q0.13052 0.14852 0.32404 0.23403 0.19352 0.09001 0.41405 0.09001 0.13052 0 0.24753-0.03601 0.11701-0.036 0.20703-0.11251 0.09001-0.07201 0.13952-0.19352 0.05401-0.11701 0.05401-0.28354v-0.22953q-0.10801 0.19802-0.31054 0.30154-0.20252 0.09901-0.43655 0.09901zm0.24753-0.57157q0.16652 0 0.29704-0.09001 0.13052-0.09451 0.20252-0.23853v-0.49506q-0.07201-0.18902-0.22053-0.29704-0.14852-0.11251-0.31504-0.11251-0.11701 0-0.21603 0.05401-0.09451 0.04951-0.16652 0.13952-0.06751 0.08551-0.10801 0.20252-0.036 0.11251-0.036 0.23403 0 0.13052 0.0405 0.24303 0.045 0.10801 0.12152 0.18902 0.07651 0.08101 0.17552 0.12602 0.10351 0.045 0.22503 0.045zm-3.6848-1.0621h-0.30154v-0.54457h0.30154v-0.19352q0-0.20702 0.07201-0.38255 0.07201-0.18002 0.20252-0.31054 0.13502-0.13052 0.32404-0.20252 0.18902-0.07201 0.41855-0.07201 0.25653 0 0.48156 0.08551 0.22953 0.08551 0.46356 0.23853l-0.27904 0.54457q-0.13502-0.11702-0.30154-0.18902-0.16202-0.07201-0.31954-0.07201-0.17102 0-0.25653 0.09451-0.08551 0.09451-0.08551 0.23853v0.22053h1.3052v2.1693h-0.72009v-1.6247h-0.58508v1.6247h-0.72009zm-0.60068 1.6247h-0.72009v-1.3277q0-0.23403-0.09001-0.33754-0.08551-0.10801-0.22953-0.10801-0.07651 0-0.15302 0.0315-0.07651 0.0315-0.14852 0.09001-0.07201 0.05401-0.13052 0.13052-0.05401 0.07651-0.08551 0.16652v1.3547h-0.72009v-2.3628h0.64808v0.39605q0.13052-0.21153 0.36905-0.32404 0.23853-0.11701 0.54907-0.11701 0.22953 0 0.36905 0.08551 0.13952 0.08101 0.21603 0.21603 0.07651 0.13052 0.09901 0.28804 0.027 0.15752 0.027 0.30604zm-3.8947 0.04501q-0.30154 0-0.54007-0.09901-0.23403-0.09901-0.39605-0.26553-0.16202-0.17102-0.24753-0.39155-0.08101-0.22503-0.08101-0.46806 0-0.24303 0.08101-0.46356 0.08551-0.22503 0.24753-0.39155 0.16202-0.17102 0.39605-0.27003 0.23853-0.10351 0.54007-0.10351 0.30154 0 0.53557 0.10351 0.23403 0.09901 0.39605 0.27003 0.16202 0.16652 0.24753 0.39155 0.08551 0.22053 0.08551 0.46356 0 0.24303-0.08551 0.46806-0.08101 0.22053-0.24303 0.39155-0.16202 0.16652-0.40055 0.26553-0.23403 0.09901-0.53557 0.09901zm-0.52656-1.2242q0 0.27903 0.14852 0.45006 0.14852 0.16652 0.37805 0.16652 0.11251 0 0.20703-0.045 0.09451-0.04501 0.16202-0.12602 0.07201-0.08101 0.11251-0.19352 0.0405-0.11702 0.0405-0.25203 0-0.27904-0.14852-0.44556-0.14852-0.17102-0.37355-0.17102-0.11251 0-0.21153 0.045-0.09451 0.04501-0.16652 0.12602-0.06751 0.08101-0.10801 0.19802-0.0405 0.11251-0.0405 0.24753zm-3.8187-0.44556q0-0.28804 0.10801-0.57157 0.10801-0.28804 0.31504-0.51306 0.20702-0.22503 0.50406-0.36454t0.67508-0.13952q0.45006 0 0.7786 0.19352 0.33304 0.19352 0.49506 0.50406l-0.56707 0.39605q-0.05401-0.12602-0.13952-0.20703-0.08101-0.08551-0.18002-0.13502-0.09901-0.05401-0.20252-0.07201-0.10351-0.0225-0.20252-0.0225-0.21153 0-0.36905 0.08551-0.15752 0.08551-0.26103 0.22053t-0.15302 0.30604q-0.04951 0.17102-0.04951 0.34654 0 0.18902 0.05851 0.36454t0.16652 0.31054q0.11251 0.13502 0.26553 0.21603 0.15752 0.07651 0.35104 0.07651 0.09901 0 0.20252-0.0225 0.10801-0.027 0.20253-0.07651 0.09901-0.05401 0.18002-0.13502 0.08101-0.08551 0.13052-0.20703l0.60308 0.35554q-0.07201 0.17552-0.21603 0.31504-0.13952 0.13952-0.32404 0.23403-0.18452 0.09451-0.39155 0.14402-0.20702 0.04951-0.40505 0.04951-0.34654 0-0.63908-0.13952-0.28804-0.14402-0.49956-0.37805-0.20702-0.23403-0.32404-0.53107-0.11251-0.29704-0.11251-0.60308zm55.717-6.8233v-4.0046h1.473v4.0046zm0 2.5961v-1.5282h1.473v1.5282zm-4.7011-5.5512q0.68124 0 1.3072 0.22094 0.626 0.21174 1.1047 0.65362 0.48792 0.43268 0.7733 1.0955 0.29459 0.66283 0.29459 1.5466 0 0.12888-0.01841 0.34062-0.0092 0.21174-0.05523 0.45109t-0.13809 0.48792-0.25777 0.45109q-0.1565 0.20253-0.40506 0.32221-0.23936 0.12888-0.57998 0.12888-0.24856 0-0.42347-0.07365-0.16571-0.06444-0.26697-0.16571-0.10127-0.10126-0.1565-0.23015-0.04603-0.12888-0.06444-0.24856-0.29459 0.29459-0.70886 0.45109-0.40506 0.1565-0.85616 0.1565-0.69045 0-1.0587-0.35903-0.35903-0.36824-0.35903-0.94821 0-0.38665 0.1473-0.65362 0.1565-0.26697 0.39586-0.42347 0.23936-0.16571 0.54315-0.23015 0.313-0.07365 0.63521-0.07365 0.35903 0 0.60759 0.07365 0.25777 0.06444 0.38665 0.11968 0-0.22094-0.04603-0.40506t-0.16571-0.313q-0.11047-0.12888-0.313-0.20253-0.19332-0.07365-0.49712-0.07365-0.38665 0-0.69045 0.11047-0.29459 0.10127-0.50633 0.28538l-0.25777-0.7641q0.68124-0.4603 1.6018-0.4603 0.626 0 0.97583 0.19332 0.34983 0.18412 0.51553 0.4695 0.17491 0.28538 0.21174 0.63521 0.03682 0.34062 0.03682 0.64442v0.75489q0 0.20253 0.0092 0.40506 0.0092 0.19332 0.05524 0.34983 0.04603 0.1473 0.13809 0.24856 0.09206 0.09206 0.24856 0.09206 0.23015 0 0.37744-0.17491 0.1473-0.18412 0.22094-0.43268 0.07365-0.25777 0.10126-0.52474 0.02762-0.27618 0.02762-0.45109 0-0.62601-0.21174-1.16-0.20253-0.53395-0.58918-0.9206-0.38665-0.39586-0.9298-0.6168-0.54315-0.22094-1.206-0.22094-0.65362 0-1.1876 0.22094-0.53395 0.21174-0.91139 0.59839-0.37744 0.37744-0.58918 0.91139-0.20253 0.52474-0.20253 1.1507 0 0.59839 0.19332 1.1231t0.55236 0.9206q0.35903 0.39586 0.86536 0.6168 0.51553 0.23015 1.16 0.23015 0.4603 0 0.7733-0.10126 0.32221-0.10127 0.67204-0.24856l0.16571 0.54315q-0.38665 0.18412-0.80092 0.27618-0.41427 0.09206-0.82854 0.09206-0.69045 0-1.298-0.24856-0.60759-0.24856-1.0679-0.69965-0.45109-0.45109-0.71806-1.0863-0.25777-0.64442-0.25777-1.4361 0-0.82854 0.28538-1.4637 0.29459-0.64442 0.78251-1.0771t1.1231-0.65362q0.63521-0.23015 1.3349-0.23015zm0.41427 4.695q0.19332-0.09206 0.3038-0.23936 0.11968-0.1473 0.11968-0.33141v-0.36827q-0.12888-0.04603-0.40506-0.11047-0.26697-0.06444-0.57077-0.06444-0.41427 0-0.64442 0.16571-0.22094 0.1565-0.22094 0.51553 0 0.29459 0.16571 0.45109 0.16571 0.1565 0.48792 0.1565 0.1565 0 0.36824-0.03682 0.22094-0.04603 0.39586-0.13809zm-7.8186 0.94821q-0.49712 0-0.9206-0.18412-0.41427-0.19332-0.71806-0.53395-0.3038-0.34062-0.47871-0.79171-0.16571-0.4603-0.16571-1.0034 0-0.52474 0.1565-0.98504 0.1565-0.4603 0.44189-0.79171 0.28538-0.34062 0.67204-0.53395 0.39586-0.19332 0.86536-0.19332 0.50633 0 0.91139 0.23936 0.41427 0.23936 0.63521 0.64442v-2.6789h1.473v5.0633q0 0.22094 0.06444 0.313 0.07365 0.08285 0.24856 0.10127v1.2428q-0.20253 0.04603-0.34983 0.05523-0.1473 0.01841-0.27618 0.01841-0.38665 0-0.626-0.1565-0.23936-0.16571-0.27618-0.4695l-0.02762-0.24856q-0.25777 0.45109-0.69965 0.67204-0.43268 0.22094-0.9298 0.22094zm0.39586-1.2428q0.3038 0 0.57998-0.17491 0.28538-0.18412 0.43268-0.49712v-1.0127q-0.13809-0.36824-0.45109-0.59839-0.3038-0.23935-0.63521-0.23935-0.23936 0-0.44189 0.11047-0.19332 0.10127-0.34062 0.27618-0.1473 0.17491-0.23015 0.40506-0.07365 0.23015-0.07365 0.48792 0 0.26697 0.08285 0.49712 0.09206 0.23015 0.23936 0.39586 0.1565 0.16571 0.36824 0.25777 0.22094 0.09206 0.4695 0.09206zm-4.884 1.1507v-4.8331h1.473v4.8331zm0-5.3855v-1.3349h1.473v1.3349zm-0.96965 5.3855h-1.473v-2.7158q0-0.47871-0.18412-0.69045-0.17491-0.22094-0.4695-0.22094-0.1565 0-0.313 0.06444t-0.3038 0.18412q-0.1473 0.11047-0.26697 0.26697-0.11047 0.1565-0.17491 0.34062v2.771h-1.473v-4.8331h1.3257v0.81012q0.26697-0.43268 0.75489-0.66283 0.48792-0.23936 1.1231-0.23936 0.4695 0 0.75489 0.17491 0.28538 0.16571 0.44189 0.44189 0.1565 0.26697 0.20253 0.58918 0.05524 0.32221 0.05524 0.626zm-7.9035 0.09206q-0.60759 0-1.0955-0.19332-0.47871-0.20253-0.81933-0.54315-0.33141-0.34062-0.50633-0.78251-0.17491-0.45109-0.17491-0.93901 0-0.52474 0.17491-0.98504 0.17491-0.4695 0.50633-0.81933 0.33142-0.34983 0.81012-0.55236 0.48792-0.20253 1.1047-0.20253t1.0955 0.20253 0.81012 0.55236q0.33141 0.34062 0.49712 0.79171 0.17491 0.45109 0.17491 0.94821 0 0.12888-0.0092 0.25777-0.0092 0.11968-0.02762 0.21174h-3.5719q0.03682 0.48792 0.34983 0.74568 0.32221 0.24856 0.72727 0.24856 0.32221 0 0.6168-0.1565 0.3038-0.1565 0.40506-0.42348l1.252 0.34983q-0.28538 0.57077-0.88377 0.9298-0.59839 0.35903-1.4361 0.35903zm1.0219-2.9643q-0.04603-0.4603-0.33142-0.72727t-0.70886-0.26697q-0.43268 0-0.71806 0.27618-0.27618 0.26697-0.32221 0.71806zm-7.0431 2.8723-1.7123-4.8331h1.519l1.0587 3.6548 1.0679-3.6548h1.3717l-1.7031 4.8331zm-2.1138 0h-1.473v-2.7158q0-0.47871-0.18412-0.69045-0.17491-0.22094-0.4695-0.22094-0.1565 0-0.313 0.06444-0.1565 0.06444-0.3038 0.18412-0.1473 0.11047-0.26697 0.26697-0.11047 0.1565-0.17491 0.34062v2.771h-1.473v-4.8331h1.3257v0.81012q0.26697-0.43268 0.75489-0.66283 0.48792-0.23936 1.1231-0.23936 0.4695 0 0.75489 0.17491 0.28538 0.16571 0.44189 0.44189 0.1565 0.26697 0.20253 0.58918 0.05524 0.32221 0.05524 0.626zm-7.9035 0.09206q-0.60759 0-1.0955-0.19332-0.47871-0.20253-0.81933-0.54315-0.33142-0.34062-0.50633-0.78251-0.17491-0.45109-0.17491-0.93901 0-0.52474 0.17491-0.98504 0.17491-0.4695 0.50633-0.81933 0.33141-0.34983 0.81012-0.55236 0.48792-0.20253 1.1047-0.20253 0.6168 0 1.0955 0.20253t0.81012 0.55236q0.33142 0.34062 0.49712 0.79171 0.17491 0.45109 0.17491 0.94821 0 0.12888-0.0092 0.25777-0.0092 0.11968-0.02762 0.21174h-3.5719q0.03682 0.48792 0.34983 0.74568 0.32221 0.24856 0.72727 0.24856 0.32221 0 0.6168-0.1565 0.3038-0.1565 0.40506-0.42348l1.252 0.34983q-0.28538 0.57077-0.88377 0.9298-0.59839 0.35903-1.4361 0.35903zm1.0219-2.9643q-0.04603-0.4603-0.33141-0.72727-0.28538-0.26697-0.70886-0.26697-0.43268 0-0.71806 0.27618-0.27618 0.26697-0.32221 0.71806zm-5.8139 2.8723v-4.8331h1.473v4.8331zm0-5.3855v-1.3349h1.473v1.3349zm-0.76956 3.71q0 0.42347-0.17491 0.73648-0.17491 0.313-0.47871 0.52474-0.3038 0.20253-0.70886 0.313-0.40506 0.10127-0.85616 0.10127h-3.1853v-6.5362h3.6364q0.34062 0 0.6168 0.1473 0.27618 0.1473 0.4695 0.38665 0.19332 0.23015 0.29459 0.53394 0.11047 0.29459 0.11047 0.60759 0 0.4695-0.23936 0.88377-0.23015 0.41427-0.69965 0.626 0.56156 0.16571 0.88377 0.58918 0.33142 0.42347 0.33142 1.0863zm-1.5374-0.3038q0-0.3038-0.17491-0.51553-0.17491-0.21177-0.44189-0.21177h-1.7399v1.4269h1.6755q0.29459 0 0.48792-0.19332t0.19332-0.50633zm-2.3567-3.2681v1.3533h1.4822q0.24856 0 0.44189-0.16571t0.19332-0.51553q0-0.32221-0.17491-0.49712-0.16571-0.17491-0.40506-0.17491zm-2.919 1.298v4.0046h-1.473v-4.0046zm0-2.5961v1.5282h-1.473v-1.5282z" fill="#386582" stroke-width=".28128" style="font-variant-caps:normal;font-variant-east-asian:normal;font-variant-ligatures:normal;font-variant-numeric:normal"/>
</svg>
