<?xml version="1.0" encoding="UTF-8"?>
<svg width="700" height="220" version="1.1" viewBox="0 0 185.21 58.208" xmlns="http://www.w3.org/2000/svg" xmlns:cc="http://creativecommons.org/ns#" xmlns:dc="http://purl.org/dc/elements/1.1/" xmlns:rdf="http://www.w3.org/1999/02/22-rdf-syntax-ns#">
<metadata>
<rdf:RDF>
<cc:Work rdf:about="">
<dc:format>image/svg+xml</dc:format>
<dc:type rdf:resource="http://purl.org/dc/dcmitype/StillImage"/>
</cc:Work>
</rdf:RDF>
</metadata>
<g transform="translate(-18.958 -31.678)">
<g fill="#386582">
<g stroke-width=".30304" aria-label="欢迎">
<path d="m44.08 45.25c-0.14546 0.60608-0.31516 1.2243-0.48486 1.6606l1.1394 0.36364c0.35152-0.7879 0.72729-2 0.96972-3.1031l-0.96972-0.26667-0.21819 0.04849h-3.0183c0.09697-0.49698 0.18182-0.99396 0.24243-1.5152l-1.3697-0.1697c-0.18182 1.8182-0.58183 3.5516-1.3819 4.6062 0.31516 0.1697 0.89699 0.59395 1.1394 0.81214 0.4485-0.64244 0.81214-1.4788 1.0667-2.4364zm-4.8365 5.5759c-0.2788-0.55759-0.69093-1.2606-1.1758-1.9879 0.6182-1.4182 1.0546-3.1152 1.3091-5.0304l-0.88487-0.30304-0.23031 0.04849h-3.6728v1.2728h3.2849c-0.1697 0.93336-0.42425 1.8425-0.73941 2.6789-0.53335-0.75153-1.0909-1.4909-1.5879-2.1455l-1.0061 0.80002c0.6182 0.83638 1.3212 1.8303 1.9394 2.8001-0.60608 1.1394-1.3576 2.0728-2.2061 2.6789 0.32728 0.24243 0.73941 0.75153 0.96972 1.0788 0.80002-0.63032 1.4909-1.4425 2.0607-2.4122 0.32728 0.54547 0.60608 1.0667 0.80002 1.5031zm3.6001-4.9941h-1.3697v0.89699c0 1.6364-0.25455 4.1456-3.1273 5.8547 0.31516 0.21819 0.80002 0.70305 1.0182 1.0182 1.5637-0.98184 2.4485-2.2061 2.9092-3.4183 0.56971 1.5031 1.4061 2.6789 2.7395 3.4061 0.19394-0.38789 0.6182-0.9576 0.92123-1.2243-1.7697-0.81214-2.6546-2.6061-3.1152-4.8365 0.02424-0.26667 0.02424-0.52122 0.02424-0.76365z"/>
<path d="m49.935 50.583c0.96972-0.25455 2.194-0.58183 3.3213-0.89699l-0.15758-1.2364c-0.5091 0.13334-1.0182 0.26667-1.5152 0.38789v-4.5698c0.64244-0.25455 1.3334-0.56971 1.9394-0.90911v8.3517h1.3091v-7.5032h1.297v4.9092c0 0.14546-0.04849 0.19394-0.19394 0.19394-0.13334 0-0.54547 0-0.94548-0.01212 0.1697 0.31516 0.3394 0.86063 0.38789 1.2122 0.71517 0 1.2122-0.02424 1.5879-0.23031 0.38789-0.20607 0.48486-0.54547 0.48486-1.1273v-6.1577h-3.9274v0.30304l-0.9576-1.0424c-0.40001 0.3394-1.0061 0.72729-1.6122 1.0303l-0.69093-0.18182v6.0486c-0.25455 0.06061-0.48486 0.10909-0.70305 0.15758zm-0.5091-6.0729c-0.30304-0.59395-1.0667-1.4182-1.697-2l-1.1394 0.72729c0.6182 0.60608 1.3455 1.4788 1.6122 2.0849zm-0.1697 2.4485h-2.5819v1.3212h1.2485v2.6789c-0.46062 0.41213-0.99396 0.81214-1.4303 1.1273l0.6788 1.3697c0.58183-0.52122 1.0546-0.99396 1.5152-1.4788 0.72729 0.94548 1.7213 1.297 3.1758 1.3576 1.5152 0.07273 4.194 0.04849 5.7335-0.03637 0.06061-0.38789 0.26667-1.0182 0.42425-1.3455-1.697 0.14546-4.6668 0.18182-6.1577 0.10909-1.2485-0.04849-2.1334-0.40001-2.6061-1.2243z"/>
</g>
<g stroke-width=".12556" aria-label="Let's set up a few things...">
<path d="m25.974 60.848v-3.566h0.69312v2.9583h1.8182v0.60773z"/>
<path d="m29.957 60.898q-0.31642 0-0.57258-0.10548-0.25615-0.1105-0.43697-0.29633-0.18081-0.18584-0.28126-0.43194-0.09543-0.24611-0.09543-0.51733 0-0.28126 0.09543-0.52737 0.09543-0.25113 0.27624-0.43697 0.18081-0.19086 0.43696-0.30136 0.26118-0.1105 0.58262-0.1105 0.32144 0 0.57258 0.1105 0.25615 0.1105 0.43194 0.29633 0.18081 0.18584 0.27122 0.43194 0.09543 0.24611 0.09543 0.5123 0 0.06529-5e-3 0.12556 0 0.06027-0.01005 0.10045h-2.0341q0.01507 0.1557 0.07534 0.27624t0.1557 0.20593q0.09543 0.08538 0.21597 0.13059 0.12054 0.0452 0.25113 0.0452 0.2009 0 0.37669-0.09543 0.18081-0.10045 0.24611-0.26117l0.5776 0.16072q-0.14566 0.30136-0.4671 0.49724-0.31642 0.19086-0.75841 0.19086zm0.68307-1.5871q-0.02511-0.29633-0.22099-0.47212-0.19086-0.18081-0.4671-0.18081-0.13561 0-0.25615 0.05023-0.11552 0.0452-0.20593 0.13059-0.09041 0.08538-0.15068 0.20593-0.05525 0.12054-0.06529 0.2662z"/>
<path d="m33.302 60.713q-0.13561 0.06027-0.33149 0.12054-0.19588 0.06027-0.41185 0.06027-0.14063 0-0.2662-0.03516-0.12054-0.03516-0.21597-0.1105-0.09041-0.08036-0.14566-0.2009-0.05525-0.12556-0.05525-0.30136v-1.5118h-0.34656v-0.51733h0.34656v-0.85384h0.67303v0.85384h0.55248v0.51733h-0.55248v1.2858q0 0.14063 0.07032 0.2009 0.07534 0.05525 0.18081 0.05525 0.10547 0 0.20593-0.03516t0.16072-0.06027z"/>
<path d="m33.654 58.342v-1.1251h0.57258v1.1251z"/>
<path d="m35.773 60.898q-0.33149 0-0.64791-0.10548-0.31642-0.10547-0.54244-0.30136l0.25113-0.4219q0.24108 0.17077 0.4671 0.26118 0.23104 0.08538 0.45706 0.08538 0.2009 0 0.31642-0.07534 0.11552-0.07534 0.11552-0.21597 0-0.14063-0.13561-0.20593-0.13561-0.06529-0.44199-0.15068-0.25615-0.07032-0.43697-0.13561t-0.29131-0.14566q-0.1105-0.08538-0.16072-0.19086-0.05023-0.1105-0.05023-0.26117 0-0.2009 0.07534-0.36163 0.08036-0.16072 0.22099-0.27122 0.14063-0.11552 0.32647-0.17579 0.19086-0.06027 0.41185-0.06027 0.29633 0 0.55248 0.08539 0.26117 0.08538 0.47715 0.27624l-0.27122 0.40683q-0.2009-0.15068-0.39176-0.22099-0.18584-0.07032-0.37167-0.07032-0.17077 0-0.28629 0.07032-0.11552 0.07032-0.11552 0.22602 0 0.07032 0.02511 0.11552 0.03013 0.0452 0.09041 0.08036 0.06027 0.03516 0.1557 0.07032 0.10045 0.03014 0.24611 0.06529 0.27122 0.07032 0.46208 0.14063 0.19588 0.07032 0.31642 0.16072 0.12556 0.09041 0.18081 0.21095 0.06027 0.11552 0.06027 0.28126 0 0.38674-0.28629 0.61276-0.28629 0.22099-0.7785 0.22099z"/>
<path d="m39.475 60.898q-0.33149 0-0.64791-0.10548-0.31642-0.10547-0.54244-0.30136l0.25113-0.4219q0.24108 0.17077 0.4671 0.26118 0.23104 0.08538 0.45706 0.08538 0.2009 0 0.31642-0.07534 0.11552-0.07534 0.11552-0.21597 0-0.14063-0.13561-0.20593-0.13561-0.06529-0.44199-0.15068-0.25615-0.07032-0.43696-0.13561t-0.29131-0.14566q-0.1105-0.08538-0.16072-0.19086-0.05023-0.1105-0.05023-0.26117 0-0.2009 0.07534-0.36163 0.08036-0.16072 0.22099-0.27122 0.14063-0.11552 0.32647-0.17579 0.19086-0.06027 0.41185-0.06027 0.29633 0 0.55248 0.08539 0.26118 0.08538 0.47715 0.27624l-0.27122 0.40683q-0.2009-0.15068-0.39176-0.22099-0.18584-0.07032-0.37167-0.07032-0.17077 0-0.28629 0.07032-0.11552 0.07032-0.11552 0.22602 0 0.07032 0.02511 0.11552 0.03014 0.0452 0.09041 0.08036t0.1557 0.07032q0.10045 0.03014 0.24611 0.06529 0.27122 0.07032 0.46208 0.14063 0.19588 0.07032 0.31642 0.16072 0.12556 0.09041 0.18081 0.21095 0.06027 0.11552 0.06027 0.28126 0 0.38674-0.28629 0.61276-0.28629 0.22099-0.7785 0.22099z"/>
<path d="m42.197 60.898q-0.31642 0-0.57258-0.10548-0.25615-0.1105-0.43696-0.29633-0.18081-0.18584-0.28127-0.43194-0.09543-0.24611-0.09543-0.51733 0-0.28126 0.09543-0.52737 0.09543-0.25113 0.27624-0.43697 0.18081-0.19086 0.43696-0.30136 0.26118-0.1105 0.58262-0.1105 0.32144 0 0.57258 0.1105 0.25615 0.1105 0.43194 0.29633 0.18081 0.18584 0.27122 0.43194 0.09543 0.24611 0.09543 0.5123 0 0.06529-5e-3 0.12556 0 0.06027-0.01004 0.10045h-2.0342q0.01507 0.1557 0.07534 0.27624t0.1557 0.20593q0.09543 0.08538 0.21597 0.13059 0.12054 0.0452 0.25113 0.0452 0.2009 0 0.37669-0.09543 0.18081-0.10045 0.24611-0.26117l0.5776 0.16072q-0.14566 0.30136-0.4671 0.49724-0.31642 0.19086-0.75841 0.19086zm0.68307-1.5871q-0.02511-0.29633-0.22099-0.47212-0.19086-0.18081-0.4671-0.18081-0.13561 0-0.25615 0.05023-0.11552 0.0452-0.20593 0.13059-0.09041 0.08538-0.15068 0.20593-0.05525 0.12054-0.06529 0.2662z"/>
<path d="m45.542 60.713q-0.13561 0.06027-0.33149 0.12054-0.19588 0.06027-0.41185 0.06027-0.14063 0-0.2662-0.03516-0.12054-0.03516-0.21597-0.1105-0.09041-0.08036-0.14566-0.2009-0.05525-0.12556-0.05525-0.30136v-1.5118h-0.34656v-0.51733h0.34656v-0.85384h0.67303v0.85384h0.55248v0.51733h-0.55248v1.2858q0 0.14063 0.07032 0.2009 0.07534 0.05525 0.18081 0.05525 0.10548 0 0.20593-0.03516 0.10045-0.03516 0.16072-0.06027z"/>
<path d="m47.903 60.898q-0.40683 0-0.61778-0.26118t-0.21095-0.77348v-1.6474h0.67303v1.5018q0 0.60773 0.43697 0.60773 0.19588 0 0.37669-0.11552 0.18584-0.12054 0.30136-0.36163v-1.6323h0.67303v1.8584q0 0.10547 0.03516 0.15068 0.04018 0.0452 0.12556 0.05023v0.57258q-0.10045 0.02009-0.17077 0.02511-0.06529 5e-3 -0.12054 5e-3 -0.18081 0-0.29633-0.08036-0.1105-0.08538-0.13059-0.23104l-0.01507-0.21095q-0.17579 0.27122-0.45203 0.40683-0.27624 0.13561-0.60773 0.13561z"/>
<path d="m51.78 60.898q-0.3114 0-0.54244-0.13561-0.23104-0.14063-0.36163-0.3767v1.5319h-0.67303v-3.7016h0.58764v0.45203q0.14566-0.23104 0.37669-0.36163 0.23104-0.13561 0.5324-0.13561 0.2662 0 0.49221 0.1105 0.22602 0.10547 0.38674 0.29131 0.16574 0.18081 0.25615 0.43194 0.09543 0.24611 0.09543 0.52235 0 0.28629-0.08538 0.53742-0.08538 0.25113-0.24108 0.43696-0.15068 0.18584-0.36163 0.29131-0.21095 0.10548-0.46208 0.10548zm-0.22602-0.57258q0.15068 0 0.27624-0.06529 0.13059-0.06529 0.22099-0.17579 0.09041-0.1105 0.14063-0.25615 0.05023-0.14566 0.05023-0.30136 0-0.16574-0.05525-0.30638-0.05525-0.14566-0.1557-0.25113-0.09543-0.10547-0.23104-0.16575-0.13059-0.06027-0.28629-0.06027-0.09543 0-0.19588 0.03516-0.10045 0.03014-0.18584 0.09041-0.08538 0.06027-0.1557 0.14063-0.06529 0.08036-0.10045 0.17579v0.61778q0.09041 0.22602 0.27624 0.37669 0.18584 0.14566 0.40181 0.14566z"/>
<path d="m55.311 60.898q-0.19086 0-0.3566-0.06027-0.16574-0.06529-0.28629-0.17579-0.12054-0.11552-0.19086-0.2662-0.06529-0.15068-0.06529-0.33149 0-0.18584 0.08036-0.34154 0.08538-0.16072 0.23104-0.27122 0.15068-0.1105 0.3566-0.17077 0.20593-0.06529 0.45203-0.06529 0.17579 0 0.34154 0.03013 0.17077 0.03014 0.30136 0.08538v-0.15068q0-0.26118-0.15068-0.40181-0.14566-0.14063-0.43696-0.14063-0.21095 0-0.41185 0.07534-0.2009 0.07534-0.41185 0.22099l-0.20593-0.42692q0.50728-0.33651 1.0949-0.33651 0.56755 0 0.87895 0.28126 0.31642 0.27624 0.31642 0.80362v0.81868q0 0.10547 0.03516 0.15068 0.04018 0.0452 0.12556 0.05023v0.57258q-0.17077 0.03516-0.29633 0.03516-0.19086 0-0.29633-0.08538-0.10045-0.08538-0.12556-0.22602l-0.01507-0.14566q-0.17579 0.23104-0.42692 0.35158-0.25113 0.12054-0.53742 0.12054zm0.19086-0.49221q0.17077 0 0.32145-0.06027 0.1557-0.06027 0.24108-0.16072 0.1105-0.08538 0.1105-0.19086v-0.30136q-0.12054-0.0452-0.26118-0.07032-0.14063-0.03014-0.27122-0.03014-0.26117 0-0.42692 0.12054-0.16574 0.11552-0.16574 0.29633 0 0.17077 0.13059 0.28629 0.13059 0.1105 0.32145 0.1105z"/>
<path d="m58.842 60.848v-1.9789h-0.34656v-0.5123h0.34656v-0.16072q0-0.49221 0.23606-0.7785 0.23606-0.28629 0.64289-0.28629 0.32144 0 0.64791 0.1557l-0.13561 0.50728q-0.07534-0.04018-0.18081-0.06529-0.10045-0.03014-0.18584-0.03014-0.35158 0-0.35158 0.47212v0.18584h0.64289v0.5123h-0.64289v1.9789z"/>
<path d="m61.629 60.898q-0.31642 0-0.57258-0.10548-0.25615-0.1105-0.43696-0.29633-0.18081-0.18584-0.28126-0.43194-0.09543-0.24611-0.09543-0.51733 0-0.28126 0.09543-0.52737 0.09543-0.25113 0.27624-0.43697 0.18081-0.19086 0.43696-0.30136 0.26118-0.1105 0.58262-0.1105t0.57258 0.1105q0.25615 0.1105 0.43194 0.29633 0.18081 0.18584 0.27122 0.43194 0.09543 0.24611 0.09543 0.5123 0 0.06529-5e-3 0.12556 0 0.06027-0.01004 0.10045h-2.0342q0.01507 0.1557 0.07534 0.27624t0.1557 0.20593q0.09543 0.08538 0.21597 0.13059 0.12054 0.0452 0.25113 0.0452 0.2009 0 0.3767-0.09543 0.18081-0.10045 0.24611-0.26117l0.5776 0.16072q-0.14566 0.30136-0.4671 0.49724-0.31642 0.19086-0.75841 0.19086zm0.68307-1.5871q-0.02511-0.29633-0.22099-0.47212-0.19086-0.18081-0.4671-0.18081-0.13561 0-0.25615 0.05023-0.11552 0.0452-0.20593 0.13059-0.09041 0.08538-0.15068 0.20593-0.05525 0.12054-0.06529 0.2662z"/>
<path d="m66.612 58.216h0.63787l-1.0999 2.6318h-0.55248l-0.45203-1.1552-0.44701 1.1552h-0.55248l-1.0949-2.6318h0.63285l0.78352 1.999 0.32145-0.85384-0.46208-1.1401h0.54244l0.27624 0.80864 0.28126-0.80864h0.54244l-0.45706 1.1401 0.31642 0.85384z"/>
<path d="m70.208 60.713q-0.13561 0.06027-0.33149 0.12054-0.19588 0.06027-0.41185 0.06027-0.14063 0-0.2662-0.03516-0.12054-0.03516-0.21597-0.1105-0.09041-0.08036-0.14566-0.2009-0.05525-0.12556-0.05525-0.30136v-1.5118h-0.34656v-0.51733h0.34656v-0.85384h0.67303v0.85384h0.55248v0.51733h-0.55248v1.2858q0 0.14063 0.07032 0.2009 0.07534 0.05525 0.18081 0.05525 0.10548 0 0.20593-0.03516 0.10045-0.03516 0.16072-0.06027z"/>
<path d="m73.005 60.848h-0.67303v-1.4766q0-0.3114-0.11552-0.45706-0.11552-0.15068-0.32647-0.15068-0.09041 0-0.19086 0.04018-0.10045 0.04018-0.19086 0.11552-0.09041 0.07032-0.16575 0.17077-0.07534 0.10045-0.1105 0.22099v1.5369h-0.67303v-3.6665h0.67303v1.5218q0.14566-0.25615 0.39176-0.39176 0.25113-0.14063 0.55248-0.14063 0.25615 0 0.41688 0.09041 0.16072 0.08538 0.25113 0.23104 0.09041 0.14566 0.12556 0.33149 0.03516 0.18584 0.03516 0.38172z"/>
<path d="m73.593 60.848v-2.6318h0.67303v2.6318zm0-2.9985v-0.668h0.67303v0.668z"/>
<path d="m77.32 60.848h-0.67303v-1.4766q0-0.31642-0.1105-0.46208t-0.30638-0.14566q-0.10045 0-0.20593 0.04018-0.10547 0.04018-0.2009 0.11552-0.09041 0.07032-0.16575 0.17077-0.07534 0.10045-0.1105 0.22099v1.5369h-0.67303v-2.6318h0.60773v0.48719q0.14566-0.25113 0.4219-0.39176 0.27624-0.14063 0.6228-0.14063 0.24611 0 0.40181 0.09041 0.1557 0.09041 0.24108 0.23606 0.08538 0.14566 0.11552 0.33149 0.03516 0.18584 0.03516 0.3767z"/>
<path d="m78.937 60.863q-0.2662 0-0.48217-0.10547-0.21597-0.10547-0.3767-0.28629-0.1557-0.18584-0.24108-0.42692-0.08538-0.24108-0.08538-0.5123 0-0.28629 0.09041-0.5324 0.09041-0.24611 0.25113-0.43194 0.16072-0.18584 0.38674-0.29131 0.22602-0.10547 0.49724-0.10547 0.30638 0 0.53742 0.14063 0.23104 0.13561 0.38172 0.36665v-0.46208h0.58764v2.5063q0 0.29131-0.1105 0.52235t-0.30638 0.39176q-0.19086 0.16072-0.46208 0.24611-0.2662 0.08538-0.58262 0.08538-0.43194 0-0.72828-0.14566-0.29131-0.14063-0.50226-0.40181l0.36665-0.3566q0.15068 0.18584 0.37669 0.29131 0.23104 0.10548 0.48719 0.10548 0.1557 0 0.29633-0.0452 0.14566-0.04018 0.25615-0.13059 0.1105-0.09041 0.17077-0.23104 0.06529-0.14063 0.06529-0.33149v-0.33149q-0.13059 0.22602-0.36665 0.35158-0.23606 0.12054-0.50728 0.12054zm0.22602-0.53742q0.1105 0 0.21095-0.03516 0.10045-0.03516 0.18584-0.09543 0.08538-0.06027 0.15068-0.14063 0.06529-0.08036 0.10045-0.17077v-0.62782q-0.09041-0.23104-0.28629-0.37167-0.19086-0.14063-0.40181-0.14063-0.1557 0-0.28126 0.07032-0.12556 0.06529-0.21597 0.18081-0.09041 0.1105-0.14063 0.25615-0.0452 0.14566-0.0452 0.30136 0 0.16072 0.05525 0.30136 0.05525 0.14063 0.15068 0.24611 0.10045 0.10547 0.23104 0.16574 0.13059 0.06027 0.28629 0.06027z"/>
<path d="m82.086 60.898q-0.33149 0-0.64791-0.10548-0.31642-0.10547-0.54244-0.30136l0.25113-0.4219q0.24108 0.17077 0.4671 0.26118 0.23104 0.08538 0.45706 0.08538 0.2009 0 0.31642-0.07534 0.11552-0.07534 0.11552-0.21597 0-0.14063-0.13561-0.20593-0.13561-0.06529-0.44199-0.15068-0.25615-0.07032-0.43696-0.13561-0.18081-0.06529-0.29131-0.14566-0.1105-0.08538-0.16072-0.19086-0.05023-0.1105-0.05023-0.26117 0-0.2009 0.07534-0.36163 0.08036-0.16072 0.22099-0.27122 0.14063-0.11552 0.32647-0.17579 0.19086-0.06027 0.41185-0.06027 0.29633 0 0.55248 0.08539 0.26118 0.08538 0.47715 0.27624l-0.27122 0.40683q-0.2009-0.15068-0.39176-0.22099-0.18584-0.07032-0.37167-0.07032-0.17077 0-0.28629 0.07032t-0.11552 0.22602q0 0.07032 0.02511 0.11552 0.03014 0.0452 0.09041 0.08036t0.1557 0.07032q0.10045 0.03014 0.24611 0.06529 0.27122 0.07032 0.46208 0.14063 0.19588 0.07032 0.31642 0.16072 0.12556 0.09041 0.18081 0.21095 0.06027 0.11552 0.06027 0.28126 0 0.38674-0.28629 0.61276-0.28629 0.22099-0.7785 0.22099z"/>
<path d="m83.573 60.848v-0.72325h0.55248v0.72325z"/>
<path d="m84.703 60.848v-0.72325h0.55248v0.72325z"/>
<path d="m85.833 60.848v-0.72325h0.55248v0.72325z"/>
</g>
</g>
</g>
</svg>
