<?xml version="1.0" encoding="UTF-8"?>
<svg width="700" height="220" version="1.1" viewBox="0 0 185.21 58.208" xmlns="http://www.w3.org/2000/svg" xmlns:cc="http://creativecommons.org/ns#" xmlns:dc="http://purl.org/dc/elements/1.1/" xmlns:rdf="http://www.w3.org/1999/02/22-rdf-syntax-ns#">
<metadata>
<rdf:RDF>
<cc:Work rdf:about="">
<dc:format>image/svg+xml</dc:format>
<dc:type rdf:resource="http://purl.org/dc/dcmitype/StillImage"/>
</cc:Work>
</rdf:RDF>
</metadata>
<g transform="translate(-18.958 -31.678)">
<g fill="#386582">
<g stroke-width=".30304" aria-label="Vítejte!">
<path d="m35.85 43.916 2.3273 6.5092 2.3031-6.5092h1.7576l-3.3577 8.6063h-1.4061l-3.3819-8.6063z"/>
<path d="m44.225 45.432-1.0424-0.31516 0.65456-1.4425h1.5152zm-1.2243 7.0911v-6.3517h1.6243v6.3517z"/>
<path d="m49.898 52.195q-0.32728 0.14546-0.80002 0.29092t-0.99396 0.14546q-0.3394 0-0.64244-0.08485-0.29092-0.08485-0.52122-0.26667-0.21819-0.19394-0.35152-0.48486-0.13334-0.30304-0.13334-0.72729v-3.6486h-0.83638v-1.2485h0.83638v-2.0607h1.6243v2.0607h1.3334v1.2485h-1.3334v3.1031q0 0.3394 0.1697 0.48486 0.18182 0.13334 0.43637 0.13334t0.49698-0.08485 0.38789-0.14546z"/>
<path d="m53.535 52.644q-0.76366 0-1.3819-0.25455-0.6182-0.26667-1.0546-0.71517-0.43637-0.4485-0.6788-1.0424-0.23031-0.59395-0.23031-1.2485 0-0.6788 0.23031-1.2728 0.23031-0.60608 0.66668-1.0546 0.43637-0.46062 1.0546-0.72729 0.63032-0.26667 1.4061-0.26667t1.3819 0.26667q0.6182 0.26667 1.0424 0.71517 0.43637 0.4485 0.65456 1.0424 0.23031 0.59395 0.23031 1.2364 0 0.15758-0.01212 0.30304 0 0.14546-0.02424 0.24243h-4.9092q0.03636 0.37577 0.18182 0.66668 0.14546 0.29092 0.37577 0.49698t0.52122 0.31516q0.29092 0.10909 0.60608 0.10909 0.48486 0 0.90911-0.23031 0.43637-0.24243 0.59395-0.63032l1.394 0.38789q-0.35152 0.72729-1.1273 1.2-0.76365 0.46062-1.8303 0.46062zm1.6485-3.8304q-0.06061-0.71517-0.53335-1.1394-0.46062-0.43637-1.1273-0.43637-0.32728 0-0.6182 0.12122-0.2788 0.10909-0.49698 0.31516-0.21819 0.20607-0.36364 0.49698-0.13334 0.29092-0.15758 0.64244z"/>
<path d="m57.329 54.898q-0.46062 0-0.87275-0.14546-0.41213-0.13334-0.73941-0.42425l0.70305-1.1031q0.13334 0.13334 0.32728 0.19394 0.19394 0.07273 0.38789 0.07273 0.31516 0 0.54547-0.23031 0.23031-0.21819 0.23031-0.56971v-6.5214h1.6243v6.4002q0 0.5091-0.1697 0.93336-0.1697 0.43637-0.47274 0.73941-0.29092 0.31516-0.70305 0.48486-0.40001 0.1697-0.86063 0.1697zm0.58183-9.6123v-1.6122h1.6243v1.6122z"/>
<path d="m64.82 52.195q-0.32728 0.14546-0.80002 0.29092t-0.99396 0.14546q-0.3394 0-0.64244-0.08485-0.29092-0.08485-0.52122-0.26667-0.21819-0.19394-0.35152-0.48486-0.13334-0.30304-0.13334-0.72729v-3.6486h-0.83638v-1.2485h0.83638v-2.0607h1.6243v2.0607h1.3334v1.2485h-1.3334v3.1031q0 0.3394 0.1697 0.48486 0.18182 0.13334 0.43637 0.13334t0.49698-0.08485 0.38789-0.14546z"/>
<path d="m68.456 52.644q-0.76365 0-1.3819-0.25455-0.6182-0.26667-1.0546-0.71517-0.43637-0.4485-0.6788-1.0424-0.23031-0.59395-0.23031-1.2485 0-0.6788 0.23031-1.2728 0.23031-0.60608 0.66668-1.0546 0.43637-0.46062 1.0546-0.72729 0.63032-0.26667 1.4061-0.26667t1.3819 0.26667q0.6182 0.26667 1.0424 0.71517 0.43637 0.4485 0.65456 1.0424 0.23031 0.59395 0.23031 1.2364 0 0.15758-0.01212 0.30304 0 0.14546-0.02424 0.24243h-4.9092q0.03637 0.37577 0.18182 0.66668 0.14546 0.29092 0.37577 0.49698t0.52122 0.31516q0.29092 0.10909 0.60608 0.10909 0.48486 0 0.90911-0.23031 0.43637-0.24243 0.59395-0.63032l1.394 0.38789q-0.35152 0.72729-1.1273 1.2-0.76366 0.46062-1.8303 0.46062zm1.6485-3.8304q-0.06061-0.71517-0.53335-1.1394-0.46062-0.43637-1.1273-0.43637-0.32728 0-0.6182 0.12122-0.27879 0.10909-0.49698 0.31516t-0.36364 0.49698q-0.13334 0.29092-0.15758 0.64244z"/>
<path d="m73.087 49.286v-5.4547h1.6243v5.4547zm0 3.2364v-1.8303h1.6243v1.8303z"/>
</g>
<g stroke-width=".12556" aria-label="Tady můžeš upravit                     několik nastavení...">
<path d="m33.933 57.89h-1.1401v2.9583h-0.6881v-2.9583h-1.1401v-0.60773h2.9684z"/>
<path d="m34.475 60.898q-0.19086 0-0.3566-0.06027-0.16575-0.06529-0.28629-0.17579-0.12054-0.11552-0.19086-0.2662-0.06529-0.15068-0.06529-0.33149 0-0.18584 0.08036-0.34154 0.08538-0.16072 0.23104-0.27122 0.15068-0.1105 0.3566-0.17077 0.20593-0.06529 0.45203-0.06529 0.17579 0 0.34154 0.03013 0.17077 0.03014 0.30136 0.08538v-0.15068q0-0.26118-0.15068-0.40181-0.14566-0.14063-0.43696-0.14063-0.21095 0-0.41185 0.07534t-0.41185 0.22099l-0.20593-0.42692q0.50728-0.33651 1.0949-0.33651 0.56755 0 0.87895 0.28126 0.31642 0.27624 0.31642 0.80362v0.81868q0 0.10547 0.03516 0.15068 0.04018 0.0452 0.12556 0.05023v0.57258q-0.17077 0.03516-0.29633 0.03516-0.19086 0-0.29633-0.08538-0.10045-0.08538-0.12556-0.22602l-0.01507-0.14566q-0.17579 0.23104-0.42692 0.35158t-0.53742 0.12054zm0.19086-0.49221q0.17077 0 0.32145-0.06027 0.1557-0.06027 0.24108-0.16072 0.1105-0.08538 0.1105-0.19086v-0.30136q-0.12054-0.0452-0.26118-0.07032-0.14063-0.03014-0.27122-0.03014-0.26118 0-0.42692 0.12054-0.16574 0.11552-0.16574 0.29633 0 0.17077 0.13059 0.28629 0.13059 0.1105 0.32145 0.1105z"/>
<path d="m37.73 60.898q-0.27122 0-0.50226-0.10548-0.23104-0.10547-0.39678-0.29131t-0.26117-0.43194q-0.09041-0.25113-0.09041-0.53742t0.08538-0.5324q0.09041-0.24611 0.24611-0.43194 0.1557-0.18584 0.37167-0.29131t0.47212-0.10547q0.29131 0 0.52235 0.14063 0.23606 0.14063 0.36665 0.36665v-1.4967h0.67303v2.893q0 0.10547 0.03516 0.15068 0.03516 0.0452 0.12054 0.05023v0.57258q-0.17579 0.03516-0.28629 0.03516-0.18081 0-0.29633-0.09041t-0.13059-0.23606l-0.01507-0.16574q-0.14566 0.25113-0.39678 0.38172-0.24611 0.12556-0.51733 0.12556zm0.17579-0.57258q0.09543 0 0.19588-0.03014 0.10045-0.03516 0.18584-0.09543 0.08538-0.06027 0.15068-0.14063 0.07032-0.08036 0.10548-0.17579v-0.62782q-0.04018-0.1105-0.11552-0.2009-0.07032-0.09543-0.16574-0.16072-0.09041-0.07032-0.19588-0.1105-0.10045-0.04018-0.2009-0.04018-0.15068 0-0.28126 0.06529-0.12556 0.06529-0.21597 0.18081-0.09041 0.1105-0.14063 0.25615-0.05023 0.14566-0.05023 0.30136 0 0.16574 0.05525 0.30638 0.05525 0.14063 0.15068 0.24611 0.09543 0.10547 0.22602 0.16574 0.13561 0.06027 0.29633 0.06027z"/>
<path d="m39.935 61.36q0.08538 0.02511 0.16574 0.03516 0.08036 0.01507 0.13561 0.01507 0.06529 0 0.12054-0.02511t0.10045-0.09041q0.0452-0.06027 0.09041-0.17077 0.0452-0.1105 0.09543-0.27624l-1.0397-2.6318h0.69312l0.71321 2.0492 0.63285-2.0492h0.63285l-1.105 3.1542q-0.09543 0.27624-0.32647 0.45203t-0.57258 0.17579q-0.08036 0-0.16574-0.01507-0.08036-0.01004-0.17077-0.04018z"/>
<path d="m47.8 60.848h-0.67303v-1.4766q0-0.31642-0.1105-0.46208-0.10547-0.14566-0.29633-0.14566-0.2009 0-0.37669 0.1557-0.17579 0.15068-0.25113 0.39678v1.5319h-0.67303v-1.4766q0-0.31642-0.1105-0.46208-0.10548-0.14566-0.29633-0.14566-0.19588 0-0.37669 0.15068-0.17579 0.15068-0.25113 0.39678v1.5369h-0.67303v-2.6318h0.60773v0.48719q0.14566-0.25615 0.39678-0.39176 0.25615-0.14063 0.58262-0.14063 0.33149 0 0.5123 0.16072t0.23104 0.39678q0.16072-0.27122 0.40683-0.41185 0.24611-0.14566 0.56253-0.14566 0.24108 0 0.39678 0.09041t0.24108 0.23606q0.08538 0.14566 0.11552 0.33149 0.03516 0.18584 0.03516 0.3767z"/>
<path d="m49.101 57.568q0-0.18584 0.13059-0.28629 0.13561-0.10045 0.3566-0.10045t0.35158 0.10045q0.13561 0.10045 0.13561 0.28629t-0.13561 0.28629q-0.13059 0.10045-0.35158 0.10045t-0.3566-0.10045q-0.13059-0.10045-0.13059-0.28629zm0.48719-0.18081q-0.08538 0-0.14566 0.05023-0.05525 0.0452-0.05525 0.13059 0 0.07534 0.05525 0.13059 0.06027 0.05023 0.14566 0.05023 0.08036 0 0.14063-0.05023 0.06529-0.05023 0.06529-0.13059 0-0.08538-0.06027-0.13059-0.06027-0.05023-0.14566-0.05023zm-0.39678 3.5108q-0.40683 0-0.61778-0.26118t-0.21095-0.77348v-1.6474h0.67303v1.5018q0 0.60773 0.43697 0.60773 0.19588 0 0.37669-0.11552 0.18584-0.12054 0.30136-0.36163v-1.6323h0.67303v1.8584q0 0.10547 0.03516 0.15068 0.04018 0.0452 0.12556 0.05023v0.57258q-0.10045 0.02009-0.17077 0.02511-0.06529 5e-3 -0.12054 5e-3 -0.18081 0-0.29633-0.08036-0.1105-0.08538-0.13059-0.23104l-0.01507-0.21095q-0.17579 0.27122-0.45203 0.40683t-0.60773 0.13561z"/>
<path d="m52.014 57.182 0.42692 0.31642 0.42692-0.31642 0.34656 0.16072-0.5324 0.50728h-0.48719l-0.53239-0.50728zm-0.69814 3.2546 1.4666-1.7479h-1.4063v-0.47212h2.1145v0.41185l-1.4566 1.7479h1.4817v0.47212h-2.1999z"/>
<path d="m55.118 60.898q-0.31642 0-0.57258-0.10548-0.25615-0.1105-0.43696-0.29633t-0.28126-0.43194q-0.09543-0.24611-0.09543-0.51733 0-0.28126 0.09543-0.52737 0.09543-0.25113 0.27624-0.43697 0.18081-0.19086 0.43696-0.30136 0.26118-0.1105 0.58262-0.1105 0.32145 0 0.57258 0.1105 0.25615 0.1105 0.43194 0.29633 0.18081 0.18584 0.27122 0.43194 0.09543 0.24611 0.09543 0.5123 0 0.06529-5e-3 0.12556 0 0.06027-0.01004 0.10045h-2.0341q0.01507 0.1557 0.07534 0.27624t0.1557 0.20593q0.09543 0.08538 0.21597 0.13059 0.12054 0.0452 0.25113 0.0452 0.2009 0 0.37669-0.09543 0.18081-0.10045 0.24611-0.26117l0.5776 0.16072q-0.14566 0.30136-0.4671 0.49724-0.31642 0.19086-0.75841 0.19086zm0.68307-1.5871q-0.02511-0.29633-0.22099-0.47212-0.19086-0.18081-0.4671-0.18081-0.13561 0-0.25615 0.05023-0.11552 0.0452-0.20593 0.13059-0.09041 0.08538-0.15068 0.20593-0.05525 0.12054-0.06529 0.2662z"/>
<path d="m57.408 57.182 0.42692 0.31642 0.42692-0.31642 0.34656 0.16072-0.53239 0.50728h-0.48719l-0.53239-0.50728zm0.49221 3.7167q-0.33149 0-0.64791-0.10548-0.31642-0.10547-0.54244-0.30136l0.25113-0.4219q0.24108 0.17077 0.4671 0.26118 0.23104 0.08538 0.45706 0.08538 0.2009 0 0.31642-0.07534t0.11552-0.21597-0.13561-0.20593q-0.13561-0.06529-0.44199-0.15068-0.25615-0.07032-0.43696-0.13561t-0.29131-0.14566q-0.1105-0.08538-0.16072-0.19086-0.05023-0.1105-0.05023-0.26117 0-0.2009 0.07534-0.36163 0.08036-0.16072 0.22099-0.27122 0.14063-0.11552 0.32647-0.17579 0.19086-0.06027 0.41185-0.06027 0.29633 0 0.55248 0.08539 0.26118 0.08538 0.47715 0.27624l-0.27122 0.40683q-0.2009-0.15068-0.39176-0.22099-0.18584-0.07032-0.37167-0.07032-0.17077 0-0.28629 0.07032t-0.11552 0.22602q0 0.07032 0.02511 0.11552 0.03014 0.0452 0.09041 0.08036t0.1557 0.07032q0.10045 0.03014 0.24611 0.06529 0.27122 0.07032 0.46208 0.14063 0.19588 0.07032 0.31642 0.16072 0.12556 0.09041 0.18081 0.21095 0.06027 0.11552 0.06027 0.28126 0 0.38674-0.28629 0.61276-0.28629 0.22099-0.7785 0.22099z"/>
<path d="m61.411 60.898q-0.40683 0-0.61778-0.26118t-0.21095-0.77348v-1.6474h0.67303v1.5018q0 0.60773 0.43696 0.60773 0.19588 0 0.3767-0.11552 0.18584-0.12054 0.30136-0.36163v-1.6323h0.67303v1.8584q0 0.10547 0.03516 0.15068 0.04018 0.0452 0.12556 0.05023v0.57258q-0.10045 0.02009-0.17077 0.02511-0.06529 5e-3 -0.12054 5e-3 -0.18081 0-0.29633-0.08036-0.1105-0.08538-0.13059-0.23104l-0.01507-0.21095q-0.17579 0.27122-0.45203 0.40683t-0.60773 0.13561z"/>
<path d="m65.289 60.898q-0.3114 0-0.54244-0.13561-0.23104-0.14063-0.36163-0.3767v1.5319h-0.67303v-3.7016h0.58764v0.45203q0.14566-0.23104 0.3767-0.36163 0.23104-0.13561 0.53239-0.13561 0.2662 0 0.49221 0.1105 0.22602 0.10547 0.38674 0.29131 0.16574 0.18081 0.25615 0.43194 0.09543 0.24611 0.09543 0.52235 0 0.28629-0.08538 0.53742t-0.24108 0.43696q-0.15068 0.18584-0.36163 0.29131-0.21095 0.10548-0.46208 0.10548zm-0.22602-0.57258q0.15068 0 0.27624-0.06529 0.13059-0.06529 0.22099-0.17579 0.09041-0.1105 0.14063-0.25615 0.05023-0.14566 0.05023-0.30136 0-0.16574-0.05525-0.30638-0.05525-0.14566-0.1557-0.25113-0.09543-0.10547-0.23104-0.16575-0.13059-0.06027-0.28629-0.06027-0.09543 0-0.19588 0.03516-0.10045 0.03014-0.18584 0.09041-0.08538 0.06027-0.1557 0.14063-0.06529 0.08036-0.10045 0.17579v0.61778q0.09041 0.22602 0.27624 0.37669 0.18584 0.14566 0.40181 0.14566z"/>
<path d="m68.463 58.799q-0.30638 5e-3 -0.54746 0.12054-0.24108 0.1105-0.34656 0.33651v1.5922h-0.67303v-2.6318h0.61778v0.56253q0.07032-0.13561 0.16574-0.24108 0.09543-0.1105 0.20593-0.19086t0.22099-0.12054q0.11552-0.0452 0.22099-0.0452 0.05525 0 0.08036 0 0.03014 0 0.05525 5e-3z"/>
<path d="m69.523 60.898q-0.19086 0-0.3566-0.06027-0.16574-0.06529-0.28629-0.17579-0.12054-0.11552-0.19086-0.2662-0.06529-0.15068-0.06529-0.33149 0-0.18584 0.08036-0.34154 0.08538-0.16072 0.23104-0.27122 0.15068-0.1105 0.3566-0.17077 0.20593-0.06529 0.45203-0.06529 0.17579 0 0.34154 0.03013 0.17077 0.03014 0.30136 0.08538v-0.15068q0-0.26118-0.15068-0.40181-0.14566-0.14063-0.43697-0.14063-0.21095 0-0.41185 0.07534t-0.41185 0.22099l-0.20593-0.42692q0.50728-0.33651 1.0949-0.33651 0.56755 0 0.87895 0.28126 0.31642 0.27624 0.31642 0.80362v0.81868q0 0.10547 0.03516 0.15068 0.04018 0.0452 0.12556 0.05023v0.57258q-0.17077 0.03516-0.29633 0.03516-0.19086 0-0.29633-0.08538-0.10045-0.08538-0.12556-0.22602l-0.01507-0.14566q-0.17579 0.23104-0.42692 0.35158t-0.53742 0.12054zm0.19086-0.49221q0.17077 0 0.32145-0.06027 0.1557-0.06027 0.24108-0.16072 0.1105-0.08538 0.1105-0.19086v-0.30136q-0.12054-0.0452-0.26117-0.07032-0.14063-0.03014-0.27122-0.03014-0.26118 0-0.42692 0.12054-0.16575 0.11552-0.16575 0.29633 0 0.17077 0.13059 0.28629 0.13059 0.1105 0.32144 0.1105z"/>
<path d="m72.325 60.848-0.96936-2.6318h0.69312l0.668 2.0844 0.67303-2.0844h0.63285l-0.96936 2.6318z"/>
<path d="m74.374 60.848v-2.6318h0.67303v2.6318zm0-2.9985v-0.668h0.67303v0.668z"/>
<path d="m77.232 60.713q-0.13561 0.06027-0.33149 0.12054t-0.41185 0.06027q-0.14063 0-0.2662-0.03516-0.12054-0.03516-0.21597-0.1105-0.09041-0.08036-0.14566-0.2009-0.05525-0.12556-0.05525-0.30136v-1.5118h-0.34656v-0.51733h0.34656v-0.85384h0.67303v0.85384h0.55248v0.51733h-0.55248v1.2858q0 0.14063 0.07032 0.2009 0.07534 0.05525 0.18081 0.05525t0.20593-0.03516 0.16072-0.06027z"/>
<path d="m57.755 67.381h-0.67303v-1.4766q0-0.31642-0.1105-0.46208t-0.30638-0.14566q-0.10045 0-0.20593 0.04018-0.10547 0.04018-0.2009 0.11552-0.09041 0.07032-0.16575 0.17077t-0.1105 0.22099v1.5369h-0.67303v-2.6318h0.60773v0.48719q0.14566-0.25113 0.4219-0.39176t0.6228-0.14063q0.24611 0 0.40181 0.09041t0.24108 0.23606q0.08538 0.14566 0.11552 0.33149 0.03516 0.18584 0.03516 0.37669z"/>
<path d="m59.131 63.714 0.42692 0.31642 0.42692-0.31642 0.34656 0.16072-0.53239 0.50728h-0.48719l-0.53239-0.50728zm0.43194 3.7167q-0.31642 0-0.57258-0.10547-0.25615-0.1105-0.43697-0.29633t-0.28126-0.43194q-0.09543-0.24611-0.09543-0.51733 0-0.28127 0.09543-0.52737 0.09543-0.25113 0.27624-0.43697 0.18081-0.19086 0.43696-0.30136 0.26118-0.1105 0.58262-0.1105 0.32145 0 0.57258 0.1105 0.25615 0.1105 0.43194 0.29633 0.18081 0.18584 0.27122 0.43194 0.09543 0.24611 0.09543 0.5123 0 0.06529-5e-3 0.12556 0 0.06027-0.01004 0.10045h-2.0342q0.01507 0.1557 0.07534 0.27624t0.1557 0.20593q0.09543 0.08538 0.21597 0.13059 0.12054 0.0452 0.25113 0.0452 0.2009 0 0.37669-0.09543 0.18081-0.10045 0.24611-0.26117l0.5776 0.16072q-0.14566 0.30136-0.4671 0.49724-0.31642 0.19086-0.75841 0.19086zm0.68307-1.5871q-0.02511-0.29633-0.22099-0.47212-0.19086-0.18081-0.4671-0.18081-0.13561 0-0.25615 0.05023-0.11552 0.0452-0.20593 0.13059-0.09041 0.08538-0.15068 0.20593-0.05525 0.12054-0.06529 0.2662z"/>
<path d="m63.149 67.381-0.76343-1.1401-0.36163 0.3566v0.78352h-0.67303v-3.6665h0.67303v2.225l1.0547-1.1853h0.71823l-0.9794 1.115 1.0497 1.5118z"/>
<path d="m65.233 67.431q-0.32145 0-0.5776-0.1105t-0.43697-0.29633q-0.17579-0.19086-0.27122-0.43696t-0.09543-0.51733q0-0.27624 0.09543-0.52235t0.27122-0.43194q0.18081-0.19086 0.43697-0.30136t0.5776-0.1105q0.32144 0 0.57258 0.1105 0.25615 0.1105 0.43194 0.30136 0.18081 0.18584 0.27624 0.43194 0.09543 0.24611 0.09543 0.52235 0 0.27122-0.09543 0.51733t-0.27122 0.43696q-0.17579 0.18584-0.43194 0.29633-0.25615 0.1105-0.5776 0.1105zm-0.6881-1.3611q0 0.17579 0.05023 0.32145 0.05525 0.14063 0.14566 0.24611 0.09543 0.10547 0.22099 0.16575 0.12556 0.05525 0.27122 0.05525t0.27122-0.05525q0.12556-0.06027 0.21597-0.16575 0.09543-0.10547 0.14566-0.25113 0.05525-0.14566 0.05525-0.32145 0-0.17077-0.05525-0.31642-0.05023-0.14566-0.14566-0.25113-0.09041-0.10547-0.21597-0.16072-0.12556-0.06027-0.27122-0.06027t-0.27122 0.06027-0.22099 0.16575q-0.09041 0.10547-0.14566 0.25113-0.05023 0.14566-0.05023 0.31642z"/>
<path d="m67.057 63.714h0.67303v2.8227q0 0.14566 0.07032 0.22602t0.2009 0.08036q0.06027 0 0.13059-0.02009 0.07534-0.02009 0.14063-0.05023l0.09041 0.5123q-0.13561 0.06529-0.31642 0.10045t-0.32647 0.03516q-0.31642 0-0.49221-0.16574-0.17077-0.17077-0.17077-0.48217z"/>
<path d="m68.654 67.381v-2.6318h0.67303v2.6318zm0-2.9985v-0.668h0.67303v0.668z"/>
<path d="m71.733 67.381-0.76343-1.1401-0.36163 0.3566v0.78352h-0.67303v-3.6665h0.67303v2.225l1.0547-1.1853h0.71823l-0.9794 1.115 1.0497 1.5118z"/>
<path d="m76.389 67.381h-0.67303v-1.4766q0-0.31642-0.1105-0.46208t-0.30638-0.14566q-0.10045 0-0.20593 0.04018t-0.2009 0.11552q-0.09041 0.07032-0.16574 0.17077-0.07534 0.10045-0.1105 0.22099v1.5369h-0.67303v-2.6318h0.60773v0.48719q0.14566-0.25113 0.4219-0.39176t0.6228-0.14063q0.24611 0 0.40181 0.09041t0.24108 0.23606q0.08538 0.14566 0.11552 0.33149 0.03516 0.18584 0.03516 0.37669z"/>
<path d="m77.694 67.431q-0.19086 0-0.3566-0.06027-0.16574-0.06529-0.28629-0.17579-0.12054-0.11552-0.19086-0.2662-0.06529-0.15068-0.06529-0.33149 0-0.18584 0.08036-0.34154 0.08538-0.16072 0.23104-0.27122 0.15068-0.1105 0.3566-0.17077 0.20593-0.06529 0.45203-0.06529 0.17579 0 0.34154 0.03014 0.17077 0.03014 0.30136 0.08538v-0.15068q0-0.26117-0.15068-0.40181-0.14566-0.14063-0.43696-0.14063-0.21095 0-0.41185 0.07534t-0.41185 0.22099l-0.20593-0.42692q0.50728-0.33651 1.0949-0.33651 0.56755 0 0.87895 0.28126 0.31642 0.27624 0.31642 0.80361v0.81868q0 0.10547 0.03516 0.15068 0.04018 0.0452 0.12556 0.05023v0.57258q-0.17077 0.03516-0.29633 0.03516-0.19086 0-0.29633-0.08539-0.10045-0.08538-0.12556-0.22602l-0.01507-0.14566q-0.17579 0.23104-0.42692 0.35158t-0.53742 0.12054zm0.19086-0.49221q0.17077 0 0.32145-0.06027 0.1557-0.06027 0.24108-0.16072 0.1105-0.08538 0.1105-0.19086v-0.30136q-0.12054-0.0452-0.26118-0.07032-0.14063-0.03014-0.27122-0.03014-0.26118 0-0.42692 0.12054-0.16575 0.11552-0.16575 0.29633 0 0.17077 0.13059 0.28629 0.13059 0.1105 0.32144 0.1105z"/>
<path d="m80.854 67.431q-0.33149 0-0.64792-0.10547-0.31642-0.10547-0.54244-0.30136l0.25113-0.4219q0.24108 0.17077 0.4671 0.26118 0.23104 0.08538 0.45706 0.08538 0.2009 0 0.31642-0.07534t0.11552-0.21597-0.13561-0.20593q-0.13561-0.06529-0.44199-0.15068-0.25615-0.07032-0.43697-0.13561-0.18081-0.06529-0.29131-0.14566-0.1105-0.08538-0.16072-0.19086-0.05023-0.1105-0.05023-0.26118 0-0.2009 0.07534-0.36163 0.08036-0.16072 0.22099-0.27122 0.14063-0.11552 0.32647-0.17579 0.19086-0.06027 0.41185-0.06027 0.29633 0 0.55248 0.08538 0.26118 0.08538 0.47715 0.27624l-0.27122 0.40683q-0.2009-0.15068-0.39176-0.22099-0.18584-0.07032-0.37167-0.07032-0.17077 0-0.28629 0.07032t-0.11552 0.22602q0 0.07032 0.02511 0.11552 0.03014 0.0452 0.09041 0.08036t0.1557 0.07032q0.10045 0.03014 0.24611 0.06529 0.27122 0.07032 0.46208 0.14063 0.19588 0.07032 0.31642 0.16072 0.12556 0.09041 0.18081 0.21095 0.06027 0.11552 0.06027 0.28126 0 0.38674-0.28629 0.61276-0.28629 0.22099-0.7785 0.22099z"/>
<path d="m83.933 67.245q-0.13561 0.06027-0.33149 0.12054t-0.41185 0.06027q-0.14063 0-0.2662-0.03516-0.12054-0.03516-0.21597-0.1105-0.09041-0.08036-0.14566-0.2009-0.05525-0.12556-0.05525-0.30136v-1.5118h-0.34656v-0.51733h0.34656v-0.85384h0.67303v0.85384h0.55248v0.51733h-0.55248v1.2858q0 0.14063 0.07032 0.2009 0.07534 0.05525 0.18081 0.05525 0.10548 0 0.20593-0.03516t0.16072-0.06027z"/>
<path d="m85.002 67.431q-0.19086 0-0.3566-0.06027-0.16574-0.06529-0.28629-0.17579-0.12054-0.11552-0.19086-0.2662-0.06529-0.15068-0.06529-0.33149 0-0.18584 0.08036-0.34154 0.08538-0.16072 0.23104-0.27122 0.15068-0.1105 0.3566-0.17077 0.20593-0.06529 0.45203-0.06529 0.17579 0 0.34154 0.03014 0.17077 0.03014 0.30136 0.08538v-0.15068q0-0.26117-0.15068-0.40181-0.14566-0.14063-0.43696-0.14063-0.21095 0-0.41185 0.07534t-0.41185 0.22099l-0.20593-0.42692q0.50728-0.33651 1.0949-0.33651 0.56755 0 0.87895 0.28126 0.31642 0.27624 0.31642 0.80361v0.81868q0 0.10547 0.03516 0.15068 0.04018 0.0452 0.12556 0.05023v0.57258q-0.17077 0.03516-0.29633 0.03516-0.19086 0-0.29633-0.08539-0.10045-0.08538-0.12556-0.22602l-0.01507-0.14566q-0.17579 0.23104-0.42692 0.35158t-0.53742 0.12054zm0.19086-0.49221q0.17077 0 0.32145-0.06027 0.1557-0.06027 0.24108-0.16072 0.1105-0.08538 0.1105-0.19086v-0.30136q-0.12054-0.0452-0.26118-0.07032-0.14063-0.03014-0.27122-0.03014-0.26117 0-0.42692 0.12054-0.16574 0.11552-0.16574 0.29633 0 0.17077 0.13059 0.28629 0.13059 0.1105 0.32145 0.1105z"/>
<path d="m87.805 67.381-0.96936-2.6318h0.69312l0.668 2.0844 0.67303-2.0844h0.63285l-0.96936 2.6318z"/>
<path d="m90.984 67.431q-0.31642 0-0.57258-0.10547-0.25615-0.1105-0.43696-0.29633-0.18081-0.18584-0.28126-0.43194-0.09543-0.24611-0.09543-0.51733 0-0.28127 0.09543-0.52737 0.09543-0.25113 0.27624-0.43697 0.18081-0.19086 0.43696-0.30136 0.26118-0.1105 0.58262-0.1105t0.57258 0.1105q0.25615 0.1105 0.43194 0.29633 0.18081 0.18584 0.27122 0.43194 0.09543 0.24611 0.09543 0.5123 0 0.06529-5e-3 0.12556 0 0.06027-0.01005 0.10045h-2.0341q0.01507 0.1557 0.07534 0.27624t0.1557 0.20593q0.09543 0.08538 0.21597 0.13059 0.12054 0.0452 0.25113 0.0452 0.2009 0 0.3767-0.09543 0.18081-0.10045 0.24611-0.26117l0.5776 0.16072q-0.14566 0.30136-0.4671 0.49724-0.31642 0.19086-0.75841 0.19086zm0.68307-1.5871q-0.02511-0.29633-0.22099-0.47212-0.19086-0.18081-0.4671-0.18081-0.13561 0-0.25615 0.05023-0.11552 0.0452-0.20593 0.13059-0.09041 0.08538-0.15068 0.20593-0.05525 0.12054-0.06529 0.2662z"/>
<path d="m95.218 67.381h-0.67303v-1.4766q0-0.31642-0.1105-0.46208t-0.30638-0.14566q-0.10045 0-0.20593 0.04018t-0.2009 0.11552q-0.09041 0.07032-0.16574 0.17077-0.07534 0.10045-0.1105 0.22099v1.5369h-0.67303v-2.6318h0.60773v0.48719q0.14566-0.25113 0.4219-0.39176t0.6228-0.14063q0.24611 0 0.40181 0.09041t0.24108 0.23606q0.08538 0.14566 0.11552 0.33149 0.03516 0.18584 0.03516 0.37669z"/>
<path d="m96.313 64.443-0.43194-0.13059 0.27122-0.59769h0.62782zm-0.50728 2.9382v-2.6318h0.67303v2.6318z"/>
<path d="m97.072 67.381v-0.72325h0.55248v0.72325z"/>
<path d="m98.202 67.381v-0.72325h0.55248v0.72325z"/>
<path d="m99.332 67.381v-0.72325h0.55248v0.72325z"/>
</g>
</g>
</g>
</svg>
