<?xml version="1.0" encoding="UTF-8" standalone="no"?>
<svg
   xmlns:dc="http://purl.org/dc/elements/1.1/"
   xmlns:cc="http://creativecommons.org/ns#"
   xmlns:rdf="http://www.w3.org/1999/02/22-rdf-syntax-ns#"
   xmlns:svg="http://www.w3.org/2000/svg"
   xmlns="http://www.w3.org/2000/svg"
   xmlns:sodipodi="http://sodipodi.sourceforge.net/DTD/sodipodi-0.dtd"
   xmlns:inkscape="http://www.inkscape.org/namespaces/inkscape"
   version="1.1"
   id="svg1"
   width="16"
   height="16"
   viewBox="0 0 16 16"
   sodipodi:docname="align-vertical-center-symbolic.svg"
   inkscape:version="1.0 (4035a4fb49, 2020-05-01)">
  <style
     id="s0">
   .success { fill: #009909; }
   .warning { fill: #FF1990; }
   .error   { fill: #00AAFF; }
  </style>
  <style
     id="s2"> 
     @import '../../highlights.css'; 
  </style>
  <metadata
     id="metadata1125">
    <rdf:RDF>
      <cc:Work
         rdf:about="">
        <dc:format>image/svg+xml</dc:format>
        <dc:type
           rdf:resource="http://purl.org/dc/dcmitype/StillImage" />
        <dc:title></dc:title>
      </cc:Work>
    </rdf:RDF>
  </metadata>
  <defs
     id="defs1123" />
  <sodipodi:namedview
     objecttolerance="10"
     gridtolerance="10"
     guidetolerance="10"
     id="namedview"
     showgrid="true"
     inkscape:zoom="31.5625"
     inkscape:cx="8"
     inkscape:cy="8"
     inkscape:window-width="1858"
     inkscape:window-height="1177"
     inkscape:window-x="54"
     inkscape:window-y="-8"
     inkscape:window-maximized="1"
     inkscape:current-layer="align-horizontal-center"
     inkscape:document-rotation="0"
     inkscape:snap-global="true">
    <inkscape:grid
       spacingy="0.66666"
       spacingx="0.66666"
       type="xygrid"
       id="grid" />
  </sodipodi:namedview>
  <g
     transform="matrix(0,0.666667,-0.666666,0,412.90774,-746.66664)"
     inkscape:label="00271"
     id="align-horizontal-center">
    <path
       inkscape:connector-curvature="0"
       id="rect22217"
       d="m -1144,595.36218 h 24 v 24 h -24 z"
       style="opacity:0;fill:none"
       transform="scale(-1,1)" />
    <path
       inkscape:connector-curvature="0"
       id="rect22219"
       d="m 1132.9993,595.36218 h -2 v 24 h 2 z"
       style="opacity:1;fill-opacity:1;stroke-width:1.15471"
       class="success" />
    <path
       sodipodi:nodetypes="cccccccccccccccccccccccccccccc"
       d="m 1122.9993,607.3622 v 4 h 6 v -4 z m 11.9999,0 v 4 h 6 v -4 z m -9.9999,-5 v 3 h 4 v -3 z m 9.9999,0 v 3 h 4 v -3 z m -12.9999,-7 v 5 h 7 v -5 z m 12.9999,0 v 5 h 7 v -5 z"
       style="opacity:1"
       id="rect22225"
       inkscape:connector-curvature="0" />
    <path
       transform="matrix(1.4999993,0,0,1.5000015,1119.9994,595.36228)"
       d="m 4.6660156,12 v 1.333984 H 0 v 1.332032 H 4.6660156 V 16 l 2,-2 z m 6.6679684,0 -1.9999996,2 1.9999996,2 V 14.666016 H 16 v -1.332032 h -4.666016 z"
       style="opacity:0.5"
       id="path22227"
       inkscape:connector-curvature="0" />
  </g>
</svg>
