<?xml version="1.0" encoding="UTF-8" standalone="no"?>
<svg
   xmlns:dc="http://purl.org/dc/elements/1.1/"
   xmlns:cc="http://creativecommons.org/ns#"
   xmlns:rdf="http://www.w3.org/1999/02/22-rdf-syntax-ns#"
   xmlns:svg="http://www.w3.org/2000/svg"
   xmlns="http://www.w3.org/2000/svg"
   xmlns:sodipodi="http://sodipodi.sourceforge.net/DTD/sodipodi-0.dtd"
   xmlns:inkscape="http://www.inkscape.org/namespaces/inkscape"
   inkscape:version="1.0 (4035a4fb49, 2020-05-01)"
   sodipodi:docname="draw-cuboid-symbolic.svg"
   viewBox="0 0 16 16"
   height="16"
   width="16"
   id="svg1"
   version="1.1">
  <style
     id="s0">
   .success { fill: #009909; }
   .warning { fill: #FF1990; }
   .error   { fill: #00AAFF; }
  </style>
  <style
     id="s2"> 
     @import '../../highlights.css'; 
  </style>
  <metadata
     id="metadata1282">
    <rdf:RDF>
      <cc:Work
         rdf:about="">
        <dc:format>image/svg+xml</dc:format>
        <dc:type
           rdf:resource="http://purl.org/dc/dcmitype/StillImage" />
      </cc:Work>
    </rdf:RDF>
  </metadata>
  <defs
     id="defs1280">
    <inkscape:path-effect
       attempt_force_join="true"
       miter_limit="100"
       linejoin_type="round"
       line_width="2"
       linecap_type="butt"
       is_visible="true"
       id="path-effect979"
       effect="join_type" />
  </defs>
  <sodipodi:namedview
     showguides="false"
     inkscape:document-rotation="0"
     inkscape:current-layer="g0"
     inkscape:window-maximized="1"
     inkscape:window-y="-8"
     inkscape:window-x="54"
     inkscape:window-height="1177"
     inkscape:window-width="1858"
     inkscape:cy="7.0132641"
     inkscape:cx="6.3921791"
     inkscape:zoom="44.8"
     showgrid="true"
     id="namedview"
     guidetolerance="10"
     gridtolerance="10"
     objecttolerance="10"
     inkscape:snap-others="false">
    <inkscape:grid
       id="grid"
       type="xygrid" />
  </sodipodi:namedview>
  <g
     id="g0"
     inkscape:label="draw-cuboid">
    <path
       inkscape:connector-curvature="0"
       style="opacity:0"
       d="M 0,0 H 16 V 16 H 0 Z"
       id="background" />
    <path
       inkscape:connector-curvature="0"
       id="polygon1116"
       style="opacity:0.5"
       inkscape:label="right"
       transform="matrix(0.49102052,0,0,0.49102052,-473.83817,-187.11363)"
       d="m 993.53,404.59 -12.23,7.09 v -14.31 l 12.23,-7.1 z"
       class="warning" />
    <path
       inkscape:connector-curvature="0"
       id="polygon1118"
       style="opacity:1"
       inkscape:label="left"
       transform="matrix(0.49102052,0,0,0.49102052,-473.83817,-187.11363)"
       d="m 969.08,390.27 v 14.32 l 12.22,7.09 v -14.31 z"
       class="warning" />
    <path
       class="warning"
       inkscape:connector-curvature="0"
       id="polygon1122"
       style="display:inline;opacity:0.15"
       inkscape:label="top"
       transform="matrix(0.49102052,0,0,0.49102052,-473.83817,-187.11363)"
       d="m 981.3,397.37 -12.22,-7.1 12.22,-7.09 12.23,7.09 z" />
    <path
       inkscape:label="outline"
       inkscape:original-d="M 8.0002664,8.0031909 14.250988,4.5169495 8.0002708,1.0356139 1.7544643,4.5169495 v 7.0314135 l 6.2458065,3.481335 6.2507172,-3.481335 V 4.5169495 L 8.0002664,8.0031909 1.7544643,4.5169495 8.0002708,8.0031952 v 7.0265028"
       inkscape:path-effect="#path-effect979"
       d="M 8.4873626,8.8765392 14.738084,5.3902978 a 1,1 0 0 0 -5.23e-4,-1.746988 L 8.4868442,0.16197422 A 1,1 0 0 0 7.5134055,0.16213686 L 1.267599,3.6434725 A 1,1 0 0 0 0.7544643,4.5169495 V 11.548363 A 1,1 0 0 0 1.267599,12.42184 l 6.2458065,3.481335 a 1,1 0 0 0 0.9734387,1.63e-4 l 6.2507168,-3.481335 a 1,1 0 0 0 0.513427,-0.87364 V 4.5169495 A 1,1 0 0 0 13.763892,3.6436012 L 7.5131702,7.1298426 8.4876552,7.1300058 2.2418531,3.6437644 A 1,1 0 0 0 1.2670753,5.3901345 l 6.2458065,3.4862457 -0.512611,-0.873185 v 7.0265028 h 2 V 8.0031952 A 1,1 0 0 0 8.4876598,7.1300102 L 2.2418533,3.6437645 1.2670755,5.3901346 7.5128776,8.876376 a 1,1 0 0 0 0.974485,1.632e-4 L 14.738084,5.3902978 13.250988,4.5169495 v 7.0314135 l 0.513427,-0.87364 -6.2507176,3.481335 0.9734387,1.63e-4 -6.2458065,-3.481335 0.5131347,0.873477 V 4.5169495 L 2.2413296,5.3904265 8.4871361,1.9090909 7.5136974,1.9092536 13.764415,5.3905892 13.763892,3.6436012 7.5131702,7.1298426 Z"
       id="path946"
       inkscape:connector-curvature="0"
       sodipodi:nodetypes="cccccccccccc" />
  </g>
</svg>
