<?xml version="1.0" encoding="UTF-8" standalone="no"?>
<svg
   xmlns:dc="http://purl.org/dc/elements/1.1/"
   xmlns:cc="http://creativecommons.org/ns#"
   xmlns:rdf="http://www.w3.org/1999/02/22-rdf-syntax-ns#"
   xmlns:svg="http://www.w3.org/2000/svg"
   xmlns="http://www.w3.org/2000/svg"
   xmlns:sodipodi="http://sodipodi.sourceforge.net/DTD/sodipodi-0.dtd"
   xmlns:inkscape="http://www.inkscape.org/namespaces/inkscape"
   version="1.1"
   id="svg1"
   width="16"
   height="16"
   viewBox="0 0 16 16"
   sodipodi:docname="draw-polygon-star-symbolic.svg"
   inkscape:version="1.0 (4035a4fb49, 2020-05-01)">
  <style
     id="s0">
   .success { fill: #009909; }
   .warning { fill: #FF1990; }
   .error   { fill: #00AAFF; }
  </style>
  <style
     id="s2"> 
     @import '../../highlights.css'; 
  </style>
  <metadata
     id="metadata1213">
    <rdf:RDF>
      <cc:Work
         rdf:about="">
        <dc:format>image/svg+xml</dc:format>
        <dc:type
           rdf:resource="http://purl.org/dc/dcmitype/StillImage" />
        <dc:title />
      </cc:Work>
    </rdf:RDF>
  </metadata>
  <defs
     id="defs1211">
    <inkscape:path-effect
       hide_knots="false"
       only_selected="false"
       apply_with_radius="true"
       apply_no_radius="true"
       use_knot_distance="true"
       flexible="false"
       chamfer_steps="1"
       radius="0"
       mode="C"
       method="auto"
       unit="px"
       satellites_param="F,0,0,1,0,0,0,1 @ F,0,0,1,0,0,0,1 @ F,0,0,1,0,0,0,1 @ F,0,0,1,0,0,0,1 @ F,0,0,1,0,0,0,1 @ F,0,0,1,0,0,0,1 @ F,0,0,1,0,0,0,1 @ F,0,0,1,0,0,0,1 @ F,0,0,1,0,0,0,1 @ F,0,0,1,0,0,0,1 @ F,0,0,1,0,0,0,1 @ F,0,0,1,0,0,0,1 @ F,0,0,1,0,0,0,1 @ F,0,0,1,0,0,0,1 @ F,0,0,1,0,0,0,1 | F,0,0,1,0,3,0,1 @ F,0,0,1,0,0,0,1 @ F,0,0,1,0,0,0,1 @ F,0,0,1,0,3,0,1 @ F,0,0,1,0,0,0,1 @ F,0,0,1,0,0,0,1 @ F,0,0,1,0,3,0,1 @ F,0,0,1,0,0,0,1 @ F,0,0,1,0,0,0,1 @ F,0,0,1,0,3,0,1 @ F,0,0,1,0,0,0,1 @ F,0,0,1,0,0,0,1 @ F,0,0,1,0,3,0,1 @ F,0,0,1,0,0,0,1 @ F,0,0,1,0,0,0,1"
       lpeversion="1"
       is_visible="true"
       id="path-effect841"
       effect="fillet_chamfer" />
    <inkscape:path-effect
       attempt_force_join="true"
       miter_limit="100"
       linejoin_type="round"
       line_width="3"
       linecap_type="round"
       is_visible="true"
       id="path-effect949"
       effect="join_type" />
    <inkscape:path-effect
       effect="join_type"
       id="path-effect1916"
       is_visible="true"
       linecap_type="round"
       line_width="3"
       linejoin_type="miter"
       miter_limit="100"
       attempt_force_join="true" />
  </defs>
  <sodipodi:namedview
     inkscape:snap-global="false"
     inkscape:showpageshadow="true"
     objecttolerance="10"
     gridtolerance="10"
     guidetolerance="10"
     id="namedview"
     showgrid="true"
     inkscape:zoom="31.678384"
     inkscape:cx="9.5305438"
     inkscape:cy="13.634512"
     inkscape:window-width="1858"
     inkscape:window-height="1177"
     inkscape:window-x="54"
     inkscape:window-y="-8"
     inkscape:window-maximized="1"
     inkscape:current-layer="svg1"
     inkscape:document-rotation="0">
    <inkscape:grid
       type="xygrid"
       id="grid" />
  </sodipodi:namedview>
  <g
     inkscape:label="draw-poligon-star"
     id="g0">
    <path
       id="background"
       d="M 0,0 H 16 V 16 H 0 Z"
       style="opacity:0"
       inkscape:connector-curvature="0" />
    <path
       id="polygon1130"
       style="opacity:0.5"
       d="M 9.0273366,7.7539255 10.156824,5.4662337 5.6340869,2.1734892 0.75240167,5.71989 2.6141424,11.458263 H 7.9600663 L 8.1132171,10.57286 5.7106623,8.232522 Z"
       class="warning"
       inkscape:connector-curvature="0"
       inkscape:label="poly" />
    <path
       inkscape:original-d="m 926.38,404.91 h 11.17 l 0.32,-1.85 -5.02,-4.89 6.93,-1 2.36,-4.78 -9.45,-6.88 -10.2,7.41 z"
       inkscape:path-effect="#path-effect949"
       id="polygon1132"
       transform="matrix(0.47859658,0,0,0.47859658,-440.74817,-182.33028)"
       d="m 937.55,406.41 a 1.5,1.5 0 0 0 1.47805,-1.24434 l 0.32,-1.85 a 1.5,1.5 0 0 0 -0.43139,-1.33014 l -5.02,-4.89 -0.83243,2.5591 6.93,-1 a 1.5,1.5 0 0 0 1.13077,-0.82056 l 2.36,-4.78 a 1.5,1.5 0 0 0 -0.46213,-1.87672 l -9.45,-6.88 a 1.5,1.5 0 0 0 -1.76449,-9.1e-4 l -10.2,7.41 a 1.5,1.5 0 0 0 -0.54517,1.67647 l 3.89,11.99 A 1.5,1.5 0 0 0 926.38,406.41 Z m -13.63321,-13.9529 -0.54517,1.67647 10.2,-7.41 -1.76449,-9.1e-4 9.45,6.88 -0.46213,-1.87672 -2.36,4.78 1.13077,-0.82056 -6.93,1 a 1.5,1.5 0 0 0 -0.83243,2.5591 l 5.02,4.89 -0.43139,-1.33014 -0.32,1.85 L 937.55,403.41 h -11.17 l 1.42679,1.0371 z"
       inkscape:connector-curvature="0"
       inkscape:label="poly out" />
    <path
       id="polygon1136"
       style="opacity:0.2"
       d="m 5.7106623,8.232522 3.3166743,-0.4785965 1.4836494,-3.0055867 1.483649,3.0055867 3.316675,0.4785965 -2.397769,2.340338 0.564744,3.302316 -2.967299,-1.55544 -2.9672988,1.55544 0.5695299,-3.302316 z"
       class="warning"
       inkscape:connector-curvature="0"
       inkscape:label="star" />
    <path
       id="polygon1138"
       transform="matrix(0.47859658,0,0,0.47859658,-440.74817,-182.33028)"
       d="m 935.98359,408.63146 2.17459,1.58347 1.32423,-7.67831 -5.58575,-5.4411 -0.83243,2.5591 7.71137,-1.11275 3.44945,-6.98791 h -2.6901 l 3.44945,6.98791 7.71137,1.11275 -0.8335,-2.55806 -5.57355,5.44006 1.31274,7.67623 2.17495,-1.58139 -6.89641,-3.61505 z m 14.58049,1.10809 -1.18554,-6.9324 -0.43081,1.32629 5.03904,-4.91835 a 1.4799782,1.4799782 71.952785 0 0 -0.82237,-2.52392 l -6.97017,-1.00579 1.13082,0.82066 -3.11713,-6.31471 a 1.4808917,1.4808917 0 0 0 -2.65584,0 l -3.11713,6.31471 1.13082,-0.82066 -6.97395,1.00634 a 1.4781198,1.4781198 108.01866 0 0 -0.82029,2.52177 l 5.05181,4.92099 -0.43152,-1.32941 -1.1965,6.93769 a 1.4811152,1.4811152 36.060975 0 0 2.14721,1.56354 l 6.23388,-3.26776 h -1.39282 l 6.22911,3.26526 a 1.4837425,1.4837425 143.97935 0 0 2.15138,-1.56425 z"
       inkscape:connector-curvature="0"
       inkscape:path-effect="#path-effect1916;#path-effect841"
       inkscape:original-d="m 942.88,406.71 -6.2,3.25 1.19,-6.9 -5.02,-4.89 6.93,-1 3.1,-6.28 3.1,6.28 6.93,1 -5.01,4.89 1.18,6.9 z"
       inkscape:label="star out" />
  </g>
</svg>
