<?xml version="1.0" encoding="UTF-8"?>
<svg width="700" height="220" version="1.1" viewBox="0 0 185.21 58.208" xmlns="http://www.w3.org/2000/svg" xmlns:cc="http://creativecommons.org/ns#" xmlns:dc="http://purl.org/dc/elements/1.1/" xmlns:rdf="http://www.w3.org/1999/02/22-rdf-syntax-ns#">
<metadata>
<rdf:RDF>
<cc:Work rdf:about="">
<dc:format>image/svg+xml</dc:format>
<dc:type rdf:resource="http://purl.org/dc/dcmitype/StillImage"/>
</cc:Work>
</rdf:RDF>
</metadata>
<g transform="translate(-18.958 -31.678)">
<g fill="#386582">
<g stroke-width=".30304" aria-label="Bem vindo!">
<path d="m33.431 50.304q0 0.54547-0.21819 0.9576t-0.60608 0.69093q-0.37577 0.27879-0.88487 0.42425-0.49698 0.14546-1.0667 0.14546h-4.1577v-8.6063h4.6062q0.4485 0 0.81214 0.19394t0.6182 0.5091q0.25455 0.30304 0.38789 0.70305 0.14546 0.38789 0.14546 0.7879 0 0.63032-0.31516 1.1879-0.31516 0.54547-0.92123 0.81214 0.73941 0.21819 1.1637 0.7879 0.43637 0.55759 0.43637 1.4061zm-1.6849-0.31516q0-0.23031-0.08485-0.43637-0.07273-0.21819-0.20607-0.37577-0.13334-0.15758-0.31516-0.24243-0.18182-0.09697-0.40001-0.09697h-2.5698v2.2667h2.4849q0.23031 0 0.42425-0.08485 0.20606-0.08485 0.35152-0.23031 0.14546-0.15758 0.23031-0.36364 0.08485-0.20607 0.08485-0.43637zm-3.5758-4.6425v2.1697h2.2304q0.42425 0 0.71517-0.29092 0.30304-0.29092 0.30304-0.80002 0-0.49698-0.2788-0.7879-0.26667-0.29092-0.66668-0.29092z"/>
<path d="m37.529 52.644q-0.76365 0-1.3819-0.25455-0.6182-0.26667-1.0546-0.71517-0.43637-0.4485-0.6788-1.0424-0.23031-0.59395-0.23031-1.2485 0-0.6788 0.23031-1.2728 0.23031-0.60608 0.66668-1.0546 0.43637-0.46062 1.0546-0.72729 0.63032-0.26667 1.4061-0.26667t1.3819 0.26667q0.6182 0.26667 1.0424 0.71517 0.43637 0.4485 0.65456 1.0424 0.23031 0.59395 0.23031 1.2364 0 0.15758-0.01212 0.30304 0 0.14546-0.02424 0.24243h-4.9092q0.03636 0.37577 0.18182 0.66668 0.14546 0.29092 0.37577 0.49698 0.23031 0.20606 0.52122 0.31516 0.29092 0.10909 0.60608 0.10909 0.48486 0 0.90911-0.23031 0.43637-0.24243 0.59395-0.63032l1.394 0.38789q-0.35152 0.72729-1.1273 1.2-0.76366 0.46062-1.8303 0.46062zm1.6485-3.8304q-0.06061-0.71517-0.53335-1.1394-0.46062-0.43637-1.1273-0.43637-0.32728 0-0.6182 0.12122-0.27879 0.10909-0.49698 0.31516-0.21819 0.20607-0.36364 0.49698-0.13334 0.29092-0.15758 0.64244z"/>
<path d="m51.711 52.523h-1.6243v-3.5637q0-0.76365-0.26667-1.1152-0.25455-0.35152-0.71517-0.35152-0.48486 0-0.90911 0.37577-0.42425 0.36364-0.60608 0.9576v3.6971h-1.6243v-3.5637q0-0.76365-0.26667-1.1152-0.25455-0.35152-0.71517-0.35152-0.47274 0-0.90911 0.36364-0.42425 0.36364-0.60608 0.9576v3.7092h-1.6243v-6.3517h1.4667v1.1758q0.35152-0.6182 0.9576-0.94548 0.6182-0.3394 1.4061-0.3394 0.80002 0 1.2364 0.38789t0.55759 0.9576q0.38789-0.65456 0.98184-0.99396 0.59395-0.35152 1.3576-0.35152 0.58183 0 0.9576 0.21819 0.37577 0.21819 0.58183 0.56971 0.20606 0.35152 0.27879 0.80002 0.08485 0.4485 0.08485 0.90911z"/>
<path d="m57.42 52.523-2.3394-6.3517h1.6728l1.6122 5.0304 1.6243-5.0304h1.5273l-2.3394 6.3517z"/>
<path d="m62.365 52.523v-6.3517h1.6243v6.3517zm0-7.2365v-1.6122h1.6243v1.6122z"/>
<path d="m71.36 52.523h-1.6243v-3.5637q0-0.76365-0.26667-1.1152-0.26667-0.35152-0.73941-0.35152-0.24243 0-0.49698 0.09697-0.25455 0.09697-0.48486 0.27879-0.21819 0.1697-0.40001 0.41213-0.18182 0.24243-0.26667 0.53335v3.7092h-1.6243v-6.3517h1.4667v1.1758q0.35152-0.60608 1.0182-0.94548 0.66668-0.3394 1.5031-0.3394 0.59395 0 0.96972 0.21819 0.37577 0.21819 0.58183 0.56971 0.20606 0.35152 0.27879 0.80002 0.08485 0.4485 0.08485 0.90911z"/>
<path d="m75.408 52.644q-0.65456 0-1.2122-0.25455-0.55759-0.25455-0.9576-0.70305-0.40001-0.4485-0.63032-1.0424-0.21819-0.60608-0.21819-1.297 0-0.69092 0.20606-1.2849 0.21819-0.59395 0.59395-1.0424 0.37577-0.4485 0.89699-0.70305 0.52122-0.25455 1.1394-0.25455 0.70305 0 1.2606 0.3394 0.56971 0.3394 0.88487 0.88487v-3.6122h1.6243v6.982q0 0.25455 0.08485 0.36364 0.08485 0.10909 0.29092 0.12122v1.3819q-0.42425 0.08485-0.69093 0.08485-0.43637 0-0.71517-0.21819-0.2788-0.21819-0.31516-0.56971l-0.03636-0.40001q-0.35152 0.60608-0.9576 0.92123-0.59395 0.30304-1.2485 0.30304zm0.42425-1.3819q0.23031 0 0.47274-0.07273 0.24243-0.08485 0.4485-0.23031 0.20606-0.14546 0.36364-0.3394 0.1697-0.19394 0.25455-0.42425v-1.5152q-0.09697-0.26667-0.27879-0.48486-0.1697-0.23031-0.40001-0.38789-0.21819-0.1697-0.47274-0.26667-0.24243-0.09697-0.48486-0.09697-0.36364 0-0.6788 0.15758-0.30304 0.15758-0.52122 0.43637-0.21819 0.26667-0.3394 0.6182-0.12122 0.35152-0.12122 0.72729 0 0.40001 0.13334 0.73941 0.13334 0.3394 0.36364 0.59395 0.23031 0.25455 0.54547 0.40001 0.32728 0.14546 0.71517 0.14546z"/>
<path d="m83.53 52.644q-0.77578 0-1.394-0.26667-0.6182-0.26667-1.0546-0.71517-0.42425-0.46062-0.65456-1.0546-0.23031-0.59395-0.23031-1.2485 0-0.66668 0.23031-1.2606 0.23031-0.59395 0.65456-1.0424 0.43637-0.46062 1.0546-0.72729 0.6182-0.26667 1.394-0.26667t1.3819 0.26667q0.6182 0.26667 1.0424 0.72729 0.43637 0.4485 0.66668 1.0424 0.23031 0.59395 0.23031 1.2606 0 0.65456-0.23031 1.2485-0.23031 0.59395-0.65456 1.0546-0.42425 0.4485-1.0424 0.71517-0.6182 0.26667-1.394 0.26667zm-1.6606-3.2849q0 0.42425 0.12122 0.77578 0.13334 0.3394 0.35152 0.59395 0.23031 0.25455 0.53335 0.40001 0.30304 0.13334 0.65456 0.13334 0.35152 0 0.65456-0.13334 0.30304-0.14546 0.52122-0.40001 0.23031-0.25455 0.35152-0.60608 0.13334-0.35152 0.13334-0.77578 0-0.41213-0.13334-0.76365-0.12122-0.35152-0.35152-0.60608-0.21819-0.25455-0.52122-0.38789-0.30304-0.14546-0.65456-0.14546-0.35152 0-0.65456 0.14546-0.30304 0.14546-0.53335 0.40001-0.21819 0.25455-0.35152 0.60608-0.12122 0.35152-0.12122 0.76366z"/>
<path d="m88.257 49.286v-5.4547h1.6243v5.4547zm0 3.2364v-1.8303h1.6243v1.8303z"/>
</g>
<g stroke-width=".12556" aria-label="Proceder à configuração                          de parâmetros">
<path d="m28.62 60.319v-3.566h1.5118q0.24611 0 0.45203 0.10548 0.21095 0.10045 0.36163 0.27122 0.15068 0.16574 0.23606 0.38172 0.08538 0.21095 0.08538 0.42692 0 0.22602-0.08036 0.44199-0.08036 0.21095-0.22602 0.37669-0.14566 0.16574-0.35158 0.2662-0.20593 0.10045-0.45203 0.10045h-0.8438v1.1954zm0.69312-1.8031h0.80362q0.19086 0 0.31642-0.1557 0.13059-0.1557 0.13059-0.4219 0-0.13561-0.04018-0.24108-0.04018-0.1105-0.10547-0.18584-0.06529-0.07534-0.1557-0.1105-0.08538-0.04018-0.17579-0.04018h-0.77348z"/>
<path d="m33.251 58.27q-0.30638 5e-3 -0.54746 0.12054-0.24108 0.1105-0.34656 0.33651v1.5922h-0.67303v-2.6318h0.61778v0.56253q0.07032-0.13561 0.16575-0.24108 0.09543-0.1105 0.20593-0.19086 0.1105-0.08036 0.22099-0.12054 0.11552-0.0452 0.22099-0.0452 0.05525 0 0.08036 0 0.03014 0 0.05525 5e-3z"/>
<path d="m34.712 60.369q-0.32145 0-0.5776-0.1105t-0.43696-0.29633q-0.17579-0.19086-0.27122-0.43697-0.09543-0.24611-0.09543-0.51733 0-0.27624 0.09543-0.52235t0.27122-0.43194q0.18081-0.19086 0.43696-0.30136t0.5776-0.1105 0.57258 0.1105q0.25615 0.1105 0.43194 0.30136 0.18081 0.18584 0.27624 0.43194 0.09543 0.24611 0.09543 0.52235 0 0.27122-0.09543 0.51733t-0.27122 0.43697q-0.17579 0.18584-0.43194 0.29633t-0.5776 0.1105zm-0.6881-1.3611q0 0.17579 0.05023 0.32145 0.05525 0.14063 0.14566 0.24611 0.09543 0.10548 0.22099 0.16575 0.12556 0.05525 0.27122 0.05525t0.27122-0.05525q0.12556-0.06027 0.21597-0.16575 0.09543-0.10547 0.14566-0.25113 0.05525-0.14566 0.05525-0.32145 0-0.17077-0.05525-0.31642-0.05023-0.14566-0.14566-0.25113-0.09041-0.10547-0.21597-0.16072-0.12556-0.06027-0.27122-0.06027t-0.27122 0.06027q-0.12556 0.06027-0.22099 0.16575-0.09041 0.10547-0.14566 0.25113-0.05023 0.14566-0.05023 0.31642z"/>
<path d="m36.375 59.003q0-0.27624 0.09543-0.52235 0.09543-0.24611 0.27624-0.43194 0.18081-0.18584 0.43696-0.29633 0.25615-0.1105 0.5776-0.1105 0.43194 0 0.7333 0.18584 0.30638 0.18584 0.45706 0.48719l-0.65796 0.2009q-0.08538-0.14566-0.22602-0.22099-0.14063-0.08036-0.3114-0.08036-0.14566 0-0.27122 0.06027-0.12556 0.05525-0.22099 0.16072-0.09041 0.10045-0.14566 0.24611-0.05023 0.14566-0.05023 0.32145t0.05525 0.32145 0.14566 0.25113q0.09543 0.10548 0.22099 0.16575 0.12556 0.05525 0.2662 0.05525 0.18081 0 0.33149-0.09041 0.1557-0.09041 0.21597-0.22099l0.65796 0.2009q-0.13561 0.30136-0.44701 0.49221-0.3114 0.19086-0.74837 0.19086-0.32145 0-0.5776-0.1105t-0.43696-0.29633q-0.18081-0.19086-0.28126-0.43697-0.09543-0.25113-0.09543-0.52235z"/>
<path d="m40.569 60.369q-0.31642 0-0.57258-0.10547-0.25615-0.1105-0.43696-0.29633t-0.28126-0.43194q-0.09543-0.24611-0.09543-0.51733 0-0.28126 0.09543-0.52737 0.09543-0.25113 0.27624-0.43697 0.18081-0.19086 0.43697-0.30136 0.26117-0.1105 0.58262-0.1105t0.57258 0.1105q0.25615 0.1105 0.43194 0.29633 0.18081 0.18584 0.27122 0.43194 0.09543 0.24611 0.09543 0.5123 0 0.06529-5e-3 0.12556 0 0.06027-0.01005 0.10045h-2.0341q0.01507 0.1557 0.07534 0.27624t0.1557 0.20593q0.09543 0.08538 0.21597 0.13059 0.12054 0.0452 0.25113 0.0452 0.2009 0 0.3767-0.09543 0.18081-0.10045 0.24611-0.26117l0.5776 0.16072q-0.14566 0.30136-0.4671 0.49724-0.31642 0.19086-0.75841 0.19086zm0.68307-1.5871q-0.02511-0.29633-0.22099-0.47212-0.19086-0.18081-0.4671-0.18081-0.13561 0-0.25615 0.05023-0.11552 0.0452-0.20593 0.13059-0.09041 0.08538-0.15068 0.20593-0.05525 0.12054-0.06529 0.2662z"/>
<path d="m43.447 60.369q-0.27122 0-0.50226-0.10547t-0.39678-0.29131q-0.16574-0.18584-0.26117-0.43194-0.09041-0.25113-0.09041-0.53742 0-0.28629 0.08538-0.5324 0.09041-0.24611 0.24611-0.43194 0.1557-0.18584 0.37167-0.29131 0.21597-0.10547 0.47212-0.10547 0.29131 0 0.52235 0.14063 0.23606 0.14063 0.36665 0.36665v-1.4967h0.67303v2.893q0 0.10547 0.03516 0.15068 0.03516 0.0452 0.12054 0.05023v0.57258q-0.17579 0.03516-0.28629 0.03516-0.18081 0-0.29633-0.09041-0.11552-0.09041-0.13059-0.23606l-0.01507-0.16574q-0.14566 0.25113-0.39678 0.38172-0.24611 0.12556-0.51733 0.12556zm0.17579-0.57258q0.09543 0 0.19588-0.03014 0.10045-0.03516 0.18584-0.09543 0.08538-0.06027 0.15068-0.14063 0.07032-0.08036 0.10548-0.17579v-0.62782q-0.04018-0.1105-0.11552-0.2009-0.07032-0.09543-0.16575-0.16072-0.09041-0.07032-0.19588-0.1105-0.10045-0.04018-0.2009-0.04018-0.15068 0-0.28126 0.06529-0.12556 0.06529-0.21597 0.18081-0.09041 0.1105-0.14063 0.25615-0.05023 0.14566-0.05023 0.30136 0 0.16574 0.05525 0.30638 0.05525 0.14063 0.15068 0.24611 0.09543 0.10547 0.22602 0.16574 0.13561 0.06027 0.29633 0.06027z"/>
<path d="m46.817 60.369q-0.31642 0-0.57258-0.10547-0.25615-0.1105-0.43696-0.29633-0.18081-0.18584-0.28126-0.43194-0.09543-0.24611-0.09543-0.51733 0-0.28126 0.09543-0.52737 0.09543-0.25113 0.27624-0.43697 0.18081-0.19086 0.43696-0.30136 0.26118-0.1105 0.58262-0.1105t0.57258 0.1105q0.25615 0.1105 0.43194 0.29633 0.18081 0.18584 0.27122 0.43194 0.09543 0.24611 0.09543 0.5123 0 0.06529-5e-3 0.12556 0 0.06027-0.01004 0.10045h-2.0341q0.01507 0.1557 0.07534 0.27624t0.1557 0.20593q0.09543 0.08538 0.21597 0.13059 0.12054 0.0452 0.25113 0.0452 0.2009 0 0.37669-0.09543 0.18081-0.10045 0.24611-0.26117l0.5776 0.16072q-0.14566 0.30136-0.4671 0.49724-0.31642 0.19086-0.75841 0.19086zm0.68307-1.5871q-0.02511-0.29633-0.22099-0.47212-0.19086-0.18081-0.4671-0.18081-0.13561 0-0.25615 0.05023-0.11552 0.0452-0.20593 0.13059-0.09041 0.08538-0.15068 0.20593-0.05525 0.12054-0.06529 0.2662z"/>
<path d="m50.172 58.27q-0.30638 5e-3 -0.54746 0.12054-0.24108 0.1105-0.34656 0.33651v1.5922h-0.67303v-2.6318h0.61778v0.56253q0.07032-0.13561 0.16575-0.24108 0.09543-0.1105 0.20593-0.19086 0.1105-0.08036 0.22099-0.12054 0.11552-0.0452 0.22099-0.0452 0.05525 0 0.08036 0 0.03014 0 0.05525 5e-3z"/>
<path d="m52.352 60.369q-0.19086 0-0.3566-0.06027-0.16574-0.06529-0.28629-0.17579-0.12054-0.11552-0.19086-0.2662-0.06529-0.15068-0.06529-0.33149 0-0.18584 0.08036-0.34154 0.08538-0.16072 0.23104-0.27122 0.15068-0.1105 0.3566-0.17077 0.20593-0.06529 0.45203-0.06529 0.17579 0 0.34154 0.03014 0.17077 0.03014 0.30136 0.08538v-0.15068q0-0.26118-0.15068-0.40181-0.14566-0.14063-0.43697-0.14063-0.21095 0-0.41185 0.07534t-0.41185 0.22099l-0.20593-0.42692q0.50728-0.33651 1.0949-0.33651 0.56755 0 0.87895 0.28126 0.31642 0.27624 0.31642 0.80361v0.81868q0 0.10547 0.03516 0.15068 0.04018 0.0452 0.12556 0.05023v0.57258q-0.17077 0.03516-0.29633 0.03516-0.19086 0-0.29633-0.08538-0.10045-0.08538-0.12556-0.22602l-0.01507-0.14566q-0.17579 0.23104-0.42692 0.35158-0.25113 0.12054-0.53742 0.12054zm0.19086-0.49221q0.17077 0 0.32145-0.06027 0.1557-0.06027 0.24108-0.16072 0.1105-0.08538 0.1105-0.19086v-0.30136q-0.12054-0.0452-0.26118-0.07032-0.14063-0.03014-0.27122-0.03014-0.26118 0-0.42692 0.12054-0.16575 0.11552-0.16575 0.29633 0 0.17077 0.13059 0.28629 0.13059 0.1105 0.32144 0.1105zm-0.48719-3.2245h0.6228l0.27624 0.59769-0.43194 0.13059z"/>
<path d="m55.556 59.003q0-0.27624 0.09543-0.52235 0.09543-0.24611 0.27624-0.43194 0.18081-0.18584 0.43697-0.29633t0.5776-0.1105q0.43194 0 0.7333 0.18584 0.30638 0.18584 0.45706 0.48719l-0.65796 0.2009q-0.08538-0.14566-0.22602-0.22099-0.14063-0.08036-0.3114-0.08036-0.14566 0-0.27122 0.06027-0.12556 0.05525-0.22099 0.16072-0.09041 0.10045-0.14566 0.24611-0.05023 0.14566-0.05023 0.32145t0.05525 0.32145 0.14566 0.25113q0.09543 0.10548 0.22099 0.16575 0.12556 0.05525 0.2662 0.05525 0.18081 0 0.33149-0.09041 0.1557-0.09041 0.21597-0.22099l0.65796 0.2009q-0.13561 0.30136-0.44701 0.49221-0.3114 0.19086-0.74837 0.19086-0.32145 0-0.5776-0.1105t-0.43696-0.29633q-0.18081-0.19086-0.28126-0.43697-0.09543-0.25113-0.09543-0.52235z"/>
<path d="m59.745 60.369q-0.32145 0-0.5776-0.1105t-0.43696-0.29633q-0.17579-0.19086-0.27122-0.43697-0.09543-0.24611-0.09543-0.51733 0-0.27624 0.09543-0.52235t0.27122-0.43194q0.18081-0.19086 0.43696-0.30136t0.5776-0.1105 0.57258 0.1105q0.25615 0.1105 0.43194 0.30136 0.18081 0.18584 0.27624 0.43194 0.09543 0.24611 0.09543 0.52235 0 0.27122-0.09543 0.51733t-0.27122 0.43697q-0.17579 0.18584-0.43194 0.29633t-0.5776 0.1105zm-0.6881-1.3611q0 0.17579 0.05023 0.32145 0.05525 0.14063 0.14566 0.24611 0.09543 0.10548 0.22099 0.16575 0.12556 0.05525 0.27122 0.05525t0.27122-0.05525q0.12556-0.06027 0.21597-0.16575 0.09543-0.10547 0.14566-0.25113 0.05525-0.14566 0.05525-0.32145 0-0.17077-0.05525-0.31642-0.05023-0.14566-0.14566-0.25113-0.09041-0.10547-0.21597-0.16072-0.12556-0.06027-0.27122-0.06027t-0.27122 0.06027q-0.12556 0.06027-0.22099 0.16575-0.09041 0.10547-0.14566 0.25113-0.05023 0.14566-0.05023 0.31642z"/>
<path d="m64.019 60.319h-0.67303v-1.4766q0-0.31642-0.1105-0.46208t-0.30638-0.14566q-0.10045 0-0.20593 0.04018-0.10548 0.04018-0.2009 0.11552-0.09041 0.07032-0.16575 0.17077-0.07534 0.10045-0.1105 0.22099v1.5369h-0.67303v-2.6318h0.60773v0.48719q0.14566-0.25113 0.4219-0.39176 0.27624-0.14063 0.6228-0.14063 0.24611 0 0.40181 0.09041t0.24108 0.23606q0.08538 0.14566 0.11552 0.33149 0.03516 0.18584 0.03516 0.37669z"/>
<path d="m64.742 58.34h-0.34656v-0.5123h0.34656v-0.16072q0-0.21597 0.07032-0.41185 0.07534-0.19588 0.21095-0.33651 0.14063-0.14566 0.33651-0.23104 0.2009-0.08538 0.45203-0.08538 0.28629 0 0.52235 0.09543 0.24108 0.09041 0.45203 0.23104l-0.2662 0.50226q-0.13059-0.11552-0.30638-0.18584-0.17579-0.07032-0.3566-0.07032-0.22602 0-0.33651 0.14063-0.10547 0.14063-0.10547 0.32647v0.18584h1.4113v2.4912h-0.67303v-1.9789h-0.73832v1.9789h-0.67303z"/>
<path d="m68.464 60.334q-0.2662 0-0.48217-0.10547-0.21597-0.10548-0.37669-0.28629-0.1557-0.18584-0.24108-0.42692-0.08538-0.24108-0.08538-0.5123 0-0.28629 0.09041-0.5324t0.25113-0.43194q0.16072-0.18584 0.38674-0.29131 0.22602-0.10547 0.49724-0.10547 0.30638 0 0.53742 0.14063 0.23104 0.13561 0.38172 0.36665v-0.46208h0.58764v2.5063q0 0.29131-0.1105 0.52235t-0.30638 0.39176q-0.19086 0.16072-0.46208 0.24611-0.2662 0.08538-0.58262 0.08538-0.43194 0-0.72828-0.14566-0.29131-0.14063-0.50226-0.40181l0.36665-0.3566q0.15068 0.18584 0.3767 0.29131 0.23104 0.10547 0.48719 0.10547 0.1557 0 0.29633-0.0452 0.14566-0.04018 0.25615-0.13059 0.1105-0.09041 0.17077-0.23104 0.06529-0.14063 0.06529-0.33149v-0.33149q-0.13059 0.22602-0.36665 0.35158-0.23606 0.12054-0.50728 0.12054zm0.22602-0.53742q0.1105 0 0.21095-0.03516t0.18584-0.09543q0.08538-0.06027 0.15068-0.14063 0.06529-0.08036 0.10045-0.17077v-0.62782q-0.09041-0.23104-0.28629-0.37167-0.19086-0.14063-0.40181-0.14063-0.1557 0-0.28126 0.07032-0.12556 0.06529-0.21597 0.18081-0.09041 0.1105-0.14063 0.25615-0.0452 0.14566-0.0452 0.30136 0 0.16072 0.05525 0.30136 0.05525 0.14063 0.15068 0.24611 0.10045 0.10547 0.23104 0.16574 0.13059 0.06027 0.28629 0.06027z"/>
<path d="m71.422 60.369q-0.40683 0-0.61778-0.26117-0.21095-0.26118-0.21095-0.77348v-1.6474h0.67303v1.5018q0 0.60773 0.43696 0.60773 0.19588 0 0.37669-0.11552 0.18584-0.12054 0.30136-0.36163v-1.6323h0.67303v1.8584q0 0.10547 0.03516 0.15068 0.04018 0.0452 0.12556 0.05023v0.57258q-0.10045 0.02009-0.17077 0.02511-0.06529 5e-3 -0.12054 5e-3 -0.18081 0-0.29633-0.08036-0.1105-0.08538-0.13059-0.23104l-0.01507-0.21095q-0.17579 0.27122-0.45203 0.40683-0.27624 0.13561-0.60773 0.13561z"/>
<path d="m75.29 58.27q-0.30638 5e-3 -0.54746 0.12054-0.24108 0.1105-0.34656 0.33651v1.5922h-0.67303v-2.6318h0.61778v0.56253q0.07032-0.13561 0.16575-0.24108 0.09543-0.1105 0.20593-0.19086 0.1105-0.08036 0.22099-0.12054 0.11552-0.0452 0.22099-0.0452 0.05525 0 0.08036 0 0.03014 0 0.05525 5e-3z"/>
<path d="m76.349 60.369q-0.19086 0-0.3566-0.06027-0.16575-0.06529-0.28629-0.17579-0.12054-0.11552-0.19086-0.2662-0.06529-0.15068-0.06529-0.33149 0-0.18584 0.08036-0.34154 0.08538-0.16072 0.23104-0.27122 0.15068-0.1105 0.3566-0.17077 0.20593-0.06529 0.45203-0.06529 0.17579 0 0.34154 0.03014 0.17077 0.03014 0.30136 0.08538v-0.15068q0-0.26118-0.15068-0.40181-0.14566-0.14063-0.43696-0.14063-0.21095 0-0.41185 0.07534-0.2009 0.07534-0.41185 0.22099l-0.20593-0.42692q0.50728-0.33651 1.0949-0.33651 0.56755 0 0.87895 0.28126 0.31642 0.27624 0.31642 0.80361v0.81868q0 0.10547 0.03516 0.15068 0.04018 0.0452 0.12556 0.05023v0.57258q-0.17077 0.03516-0.29633 0.03516-0.19086 0-0.29633-0.08538-0.10045-0.08538-0.12556-0.22602l-0.01507-0.14566q-0.17579 0.23104-0.42692 0.35158-0.25113 0.12054-0.53742 0.12054zm0.19086-0.49221q0.17077 0 0.32145-0.06027 0.1557-0.06027 0.24108-0.16072 0.1105-0.08538 0.1105-0.19086v-0.30136q-0.12054-0.0452-0.26118-0.07032-0.14063-0.03014-0.27122-0.03014-0.26118 0-0.42692 0.12054-0.16574 0.11552-0.16574 0.29633 0 0.17077 0.13059 0.28629 0.13059 0.1105 0.32145 0.1105z"/>
<path d="m79.338 60.957q0.06027 0.03516 0.18584 0.06529 0.12556 0.03014 0.26118 0.03014 0.13059 0 0.20593-0.04018 0.07534-0.03516 0.07534-0.12556 0-0.09041-0.07534-0.13059-0.07032-0.03516-0.18584-0.03516-0.10547 0-0.22602 0.02009-0.11552 0.02511-0.17579 0.04018l0.21095-0.41688q-0.29633-0.02009-0.5324-0.13561-0.23104-0.12054-0.39678-0.30638-0.16072-0.18584-0.25113-0.4219-0.08538-0.23606-0.08538-0.49724 0-0.27624 0.09543-0.52235 0.09543-0.24611 0.27624-0.43194 0.18081-0.18584 0.43697-0.29633t0.5776-0.1105q0.43194 0 0.7333 0.18584 0.30638 0.18584 0.45706 0.48719l-0.65796 0.2009q-0.08538-0.14566-0.22602-0.22099-0.14063-0.08036-0.3114-0.08036-0.14566 0-0.27122 0.06027-0.12556 0.05525-0.22099 0.16072-0.09041 0.10045-0.14566 0.24611-0.05023 0.14566-0.05023 0.32145t0.05525 0.32145 0.14566 0.25113q0.09543 0.10548 0.22099 0.16575 0.12556 0.05525 0.2662 0.05525 0.18081 0 0.33149-0.09041 0.1557-0.09041 0.21597-0.22099l0.65796 0.2009q-0.12556 0.27122-0.39176 0.45706-0.2662 0.18081-0.64289 0.21597l-0.10547 0.17077q0.03516-0.01004 0.07534-0.01507 0.0452-5e-3 0.08538-5e-3 0.17579 0 0.30136 0.08036 0.12556 0.08538 0.12556 0.27122 0 0.19086-0.16072 0.31642-0.1557 0.12556-0.48217 0.12556-0.16574 0-0.30136-0.03014t-0.23606-0.07032z"/>
<path d="m82.065 60.369q-0.19086 0-0.3566-0.06027-0.16575-0.06529-0.28629-0.17579-0.12054-0.11552-0.19086-0.2662-0.06529-0.15068-0.06529-0.33149 0-0.18584 0.08036-0.34154 0.08538-0.16072 0.23104-0.27122 0.15068-0.1105 0.3566-0.17077 0.20593-0.06529 0.45203-0.06529 0.17579 0 0.34154 0.03014 0.17077 0.03014 0.30136 0.08538v-0.15068q0-0.26118-0.15068-0.40181-0.14566-0.14063-0.43696-0.14063-0.21095 0-0.41185 0.07534-0.2009 0.07534-0.41185 0.22099l-0.20593-0.42692q0.50728-0.33651 1.0949-0.33651 0.56755 0 0.87895 0.28126 0.31642 0.27624 0.31642 0.80361v0.81868q0 0.10547 0.03516 0.15068 0.04018 0.0452 0.12556 0.05023v0.57258q-0.17077 0.03516-0.29633 0.03516-0.19086 0-0.29633-0.08538-0.10045-0.08538-0.12556-0.22602l-0.01507-0.14566q-0.17579 0.23104-0.42692 0.35158-0.25113 0.12054-0.53742 0.12054zm0.19086-0.49221q0.17077 0 0.32145-0.06027 0.1557-0.06027 0.24108-0.16072 0.1105-0.08538 0.1105-0.19086v-0.30136q-0.12054-0.0452-0.26118-0.07032-0.14063-0.03014-0.27122-0.03014-0.26118 0-0.42692 0.12054-0.16574 0.11552-0.16574 0.29633 0 0.17077 0.13059 0.28629 0.13059 0.1105 0.32145 0.1105zm0.4671-2.5816q-0.11552 0-0.2009-0.03516-0.08538-0.03516-0.16072-0.07534-0.07032-0.0452-0.14566-0.08036-0.07032-0.03516-0.15068-0.03516-0.08538 0-0.13561 0.03516-0.0452 0.03516-0.07032 0.08036-0.02511 0.0452-0.03014 0.08538-5e-3 0.03516-5e-3 0.04018h-0.37167q0-0.0452 0.03014-0.15068 0.03014-0.1105 0.09543-0.21597 0.07032-0.1105 0.18081-0.19086 0.11552-0.08538 0.28126-0.08538 0.11552 0 0.19588 0.04018 0.08538 0.03516 0.1557 0.08036 0.07534 0.04018 0.14566 0.08036 0.07534 0.03516 0.16575 0.03516 0.09041 0 0.14063-0.03516 0.05525-0.03516 0.08036-0.08036 0.03014-0.0452 0.03516-0.08538 0.01005-0.04018 0.01005-0.05023h0.37167q0 0.03516-0.03014 0.14063-0.03014 0.10548-0.10547 0.21597-0.07032 0.1105-0.19086 0.2009-0.11552 0.08538-0.29131 0.08538z"/>
<path d="m85.445 60.369q-0.32144 0-0.5776-0.1105-0.25615-0.1105-0.43696-0.29633-0.17579-0.19086-0.27122-0.43697-0.09543-0.24611-0.09543-0.51733 0-0.27624 0.09543-0.52235t0.27122-0.43194q0.18081-0.19086 0.43696-0.30136 0.25615-0.1105 0.5776-0.1105 0.32145 0 0.57258 0.1105 0.25615 0.1105 0.43194 0.30136 0.18081 0.18584 0.27624 0.43194 0.09543 0.24611 0.09543 0.52235 0 0.27122-0.09543 0.51733t-0.27122 0.43697q-0.17579 0.18584-0.43194 0.29633t-0.5776 0.1105zm-0.6881-1.3611q0 0.17579 0.05023 0.32145 0.05525 0.14063 0.14566 0.24611 0.09543 0.10548 0.22099 0.16575 0.12556 0.05525 0.27122 0.05525t0.27122-0.05525q0.12556-0.06027 0.21597-0.16575 0.09543-0.10547 0.14566-0.25113 0.05525-0.14566 0.05525-0.32145 0-0.17077-0.05525-0.31642-0.05023-0.14566-0.14566-0.25113-0.09041-0.10547-0.21597-0.16072-0.12556-0.06027-0.27122-0.06027t-0.27122 0.06027q-0.12556 0.06027-0.22099 0.16575-0.09041 0.10547-0.14566 0.25113-0.05023 0.14566-0.05023 0.31642z"/>
<path d="m59.78 66.902q-0.27122 0-0.50226-0.10547-0.23104-0.10548-0.39678-0.29131-0.16575-0.18584-0.26118-0.43194-0.09041-0.25113-0.09041-0.53742 0-0.28629 0.08538-0.5324 0.09041-0.24611 0.24611-0.43194 0.1557-0.18584 0.37167-0.29131t0.47212-0.10547q0.29131 0 0.52235 0.14063 0.23606 0.14063 0.36665 0.36665v-1.4967h0.67303v2.893q0 0.10548 0.03516 0.15068 0.03516 0.0452 0.12054 0.05023v0.57258q-0.17579 0.03516-0.28629 0.03516-0.18081 0-0.29633-0.09041-0.11552-0.09041-0.13059-0.23606l-0.01507-0.16574q-0.14566 0.25113-0.39678 0.38172-0.24611 0.12556-0.51733 0.12556zm0.17579-0.57258q0.09543 0 0.19588-0.03014 0.10045-0.03516 0.18584-0.09543 0.08538-0.06027 0.15068-0.14063 0.07032-0.08036 0.10547-0.17579v-0.62782q-0.04018-0.1105-0.11552-0.2009-0.07032-0.09543-0.16574-0.16072-0.09041-0.07032-0.19588-0.1105-0.10045-0.04018-0.2009-0.04018-0.15068 0-0.28126 0.06529-0.12556 0.06529-0.21597 0.18081-0.09041 0.1105-0.14063 0.25615-0.05023 0.14566-0.05023 0.30136 0 0.16575 0.05525 0.30638 0.05525 0.14063 0.15068 0.24611 0.09543 0.10548 0.22602 0.16575 0.13561 0.06027 0.29633 0.06027z"/>
<path d="m63.15 66.902q-0.31642 0-0.57258-0.10547-0.25615-0.1105-0.43696-0.29633t-0.28126-0.43194q-0.09543-0.24611-0.09543-0.51733 0-0.28126 0.09543-0.52737 0.09543-0.25113 0.27624-0.43696 0.18081-0.19086 0.43697-0.30136 0.26118-0.1105 0.58262-0.1105 0.32145 0 0.57258 0.1105 0.25615 0.1105 0.43194 0.29633 0.18081 0.18584 0.27122 0.43194 0.09543 0.24611 0.09543 0.5123 0 0.06529-5e-3 0.12556 0 0.06027-0.01005 0.10045h-2.0341q0.01507 0.1557 0.07534 0.27624 0.06027 0.12054 0.1557 0.20593 0.09543 0.08538 0.21597 0.13059 0.12054 0.0452 0.25113 0.0452 0.2009 0 0.37669-0.09543 0.18081-0.10045 0.24611-0.26118l0.5776 0.16072q-0.14566 0.30136-0.4671 0.49724-0.31642 0.19086-0.75841 0.19086zm0.68307-1.5871q-0.02511-0.29633-0.22099-0.47212-0.19086-0.18081-0.4671-0.18081-0.13561 0-0.25615 0.05023-0.11552 0.0452-0.20593 0.13059-0.09041 0.08538-0.15068 0.20593-0.05525 0.12054-0.06529 0.2662z"/>
<path d="m67.721 66.902q-0.3114 0-0.54244-0.13561-0.23104-0.14063-0.36163-0.37669v1.5319h-0.67303v-3.7016h0.58764v0.45203q0.14566-0.23104 0.37669-0.36163 0.23104-0.13561 0.53239-0.13561 0.2662 0 0.49221 0.1105 0.22602 0.10547 0.38674 0.29131 0.16574 0.18081 0.25615 0.43194 0.09543 0.24611 0.09543 0.52235 0 0.28629-0.08538 0.53742-0.08538 0.25113-0.24108 0.43697-0.15068 0.18584-0.36163 0.29131-0.21095 0.10547-0.46208 0.10547zm-0.22602-0.57258q0.15068 0 0.27624-0.06529 0.13059-0.06529 0.22099-0.17579 0.09041-0.1105 0.14063-0.25615 0.05023-0.14566 0.05023-0.30136 0-0.16574-0.05525-0.30638-0.05525-0.14566-0.1557-0.25113-0.09543-0.10548-0.23104-0.16575-0.13059-0.06027-0.28629-0.06027-0.09543 0-0.19588 0.03516-0.10045 0.03014-0.18584 0.09041-0.08538 0.06027-0.1557 0.14063-0.06529 0.08036-0.10045 0.17579v0.61778q0.09041 0.22602 0.27624 0.3767 0.18584 0.14566 0.40181 0.14566z"/>
<path d="m70.046 66.902q-0.19086 0-0.3566-0.06027-0.16575-0.06529-0.28629-0.17579-0.12054-0.11552-0.19086-0.2662-0.06529-0.15068-0.06529-0.33149 0-0.18584 0.08036-0.34154 0.08538-0.16072 0.23104-0.27122 0.15068-0.1105 0.3566-0.17077 0.20593-0.06529 0.45203-0.06529 0.17579 0 0.34154 0.03014 0.17077 0.03014 0.30136 0.08538v-0.15068q0-0.26117-0.15068-0.40181-0.14566-0.14063-0.43697-0.14063-0.21095 0-0.41185 0.07534-0.2009 0.07534-0.41185 0.22099l-0.20593-0.42692q0.50728-0.33651 1.0949-0.33651 0.56755 0 0.87895 0.28126 0.31642 0.27624 0.31642 0.80361v0.81868q0 0.10548 0.03516 0.15068 0.04018 0.0452 0.12556 0.05023v0.57258q-0.17077 0.03516-0.29633 0.03516-0.19086 0-0.29633-0.08538-0.10045-0.08538-0.12556-0.22602l-0.01507-0.14566q-0.17579 0.23104-0.42692 0.35158-0.25113 0.12054-0.53742 0.12054zm0.19086-0.49221q0.17077 0 0.32145-0.06027 0.1557-0.06027 0.24108-0.16072 0.1105-0.08538 0.1105-0.19086v-0.30136q-0.12054-0.0452-0.26117-0.07032-0.14063-0.03014-0.27122-0.03014-0.26118 0-0.42692 0.12054-0.16574 0.11552-0.16574 0.29633 0 0.17077 0.13059 0.28629 0.13059 0.1105 0.32145 0.1105z"/>
<path d="m73.778 64.803q-0.30638 5e-3 -0.54746 0.12054-0.24108 0.1105-0.34656 0.33651v1.5922h-0.67303v-2.6318h0.61778v0.56253q0.07032-0.13561 0.16574-0.24108 0.09543-0.1105 0.20593-0.19086 0.1105-0.08036 0.22099-0.12054 0.11552-0.0452 0.22099-0.0452 0.05525 0 0.08036 0 0.03014 0 0.05525 5e-3z"/>
<path d="m74.838 66.902q-0.19086 0-0.3566-0.06027-0.16574-0.06529-0.28629-0.17579-0.12054-0.11552-0.19086-0.2662-0.06529-0.15068-0.06529-0.33149 0-0.18584 0.08036-0.34154 0.08538-0.16072 0.23104-0.27122 0.15068-0.1105 0.3566-0.17077 0.20593-0.06529 0.45203-0.06529 0.17579 0 0.34154 0.03014 0.17077 0.03014 0.30136 0.08538v-0.15068q0-0.26117-0.15068-0.40181-0.14566-0.14063-0.43696-0.14063-0.21095 0-0.41185 0.07534-0.2009 0.07534-0.41185 0.22099l-0.20593-0.42692q0.50728-0.33651 1.0949-0.33651 0.56755 0 0.87895 0.28126 0.31642 0.27624 0.31642 0.80361v0.81868q0 0.10548 0.03516 0.15068 0.04018 0.0452 0.12556 0.05023v0.57258q-0.17077 0.03516-0.29633 0.03516-0.19086 0-0.29633-0.08538-0.10045-0.08538-0.12556-0.22602l-0.01507-0.14566q-0.17579 0.23104-0.42692 0.35158-0.25113 0.12054-0.53742 0.12054zm0.19086-0.49221q0.17077 0 0.32144-0.06027 0.1557-0.06027 0.24108-0.16072 0.1105-0.08538 0.1105-0.19086v-0.30136q-0.12054-0.0452-0.26118-0.07032-0.14063-0.03014-0.27122-0.03014-0.26118 0-0.42692 0.12054-0.16575 0.11552-0.16575 0.29633 0 0.17077 0.13059 0.28629 0.13059 0.1105 0.32145 0.1105zm-0.6228-2.7172 0.5324-0.50728h0.48719l0.5324 0.50728-0.34656 0.16072-0.42692-0.31642-0.42692 0.31642z"/>
<path d="m81.091 66.852h-0.67303v-1.4766q0-0.31642-0.1105-0.46208-0.10547-0.14566-0.29633-0.14566-0.2009 0-0.37669 0.1557-0.17579 0.15068-0.25113 0.39678v1.5319h-0.67303v-1.4766q0-0.31642-0.1105-0.46208-0.10548-0.14566-0.29633-0.14566-0.19588 0-0.3767 0.15068-0.17579 0.15068-0.25113 0.39678v1.5369h-0.67303v-2.6318h0.60773v0.48719q0.14566-0.25615 0.39678-0.39176 0.25615-0.14063 0.58262-0.14063 0.33149 0 0.5123 0.16072 0.18081 0.16072 0.23104 0.39678 0.16072-0.27122 0.40683-0.41185 0.24611-0.14566 0.56253-0.14566 0.24108 0 0.39678 0.09041t0.24108 0.23606q0.08538 0.14566 0.11552 0.33149 0.03516 0.18584 0.03516 0.37669z"/>
<path d="m82.899 66.902q-0.31642 0-0.57258-0.10547-0.25615-0.1105-0.43696-0.29633t-0.28126-0.43194q-0.09543-0.24611-0.09543-0.51733 0-0.28126 0.09543-0.52737 0.09543-0.25113 0.27624-0.43696 0.18081-0.19086 0.43697-0.30136 0.26117-0.1105 0.58262-0.1105t0.57258 0.1105q0.25615 0.1105 0.43194 0.29633 0.18081 0.18584 0.27122 0.43194 0.09543 0.24611 0.09543 0.5123 0 0.06529-5e-3 0.12556 0 0.06027-0.01005 0.10045h-2.0341q0.01507 0.1557 0.07534 0.27624 0.06027 0.12054 0.1557 0.20593 0.09543 0.08538 0.21597 0.13059 0.12054 0.0452 0.25113 0.0452 0.2009 0 0.3767-0.09543 0.18081-0.10045 0.24611-0.26118l0.5776 0.16072q-0.14566 0.30136-0.4671 0.49724-0.31642 0.19086-0.75841 0.19086zm0.68307-1.5871q-0.02511-0.29633-0.22099-0.47212-0.19086-0.18081-0.4671-0.18081-0.13561 0-0.25615 0.05023-0.11552 0.0452-0.20593 0.13059-0.09041 0.08538-0.15068 0.20593-0.05525 0.12054-0.06529 0.2662z"/>
<path d="m86.244 66.716q-0.13561 0.06027-0.33149 0.12054-0.19588 0.06027-0.41185 0.06027-0.14063 0-0.2662-0.03516-0.12054-0.03516-0.21597-0.1105-0.09041-0.08036-0.14566-0.2009-0.05525-0.12556-0.05525-0.30136v-1.5118h-0.34656v-0.51733h0.34656v-0.85384h0.67303v0.85384h0.55248v0.51733h-0.55248v1.2858q0 0.14063 0.07032 0.2009 0.07534 0.05525 0.18081 0.05525 0.10548 0 0.20593-0.03516 0.10045-0.03516 0.16072-0.06027z"/>
<path d="m88.163 64.803q-0.30638 5e-3 -0.54746 0.12054-0.24108 0.1105-0.34656 0.33651v1.5922h-0.67303v-2.6318h0.61778v0.56253q0.07032-0.13561 0.16574-0.24108 0.09543-0.1105 0.20593-0.19086 0.1105-0.08036 0.22099-0.12054 0.11552-0.0452 0.22099-0.0452 0.05525 0 0.08036 0 0.03014 0 0.05525 5e-3z"/>
<path d="m89.624 66.902q-0.32145 0-0.5776-0.1105t-0.43697-0.29633q-0.17579-0.19086-0.27122-0.43696t-0.09543-0.51733q0-0.27624 0.09543-0.52235t0.27122-0.43194q0.18081-0.19086 0.43697-0.30136t0.5776-0.1105q0.32144 0 0.57258 0.1105 0.25615 0.1105 0.43194 0.30136 0.18081 0.18584 0.27624 0.43194 0.09543 0.24611 0.09543 0.52235 0 0.27122-0.09543 0.51733t-0.27122 0.43696q-0.17579 0.18584-0.43194 0.29633-0.25615 0.1105-0.5776 0.1105zm-0.6881-1.3611q0 0.17579 0.05023 0.32145 0.05525 0.14063 0.14566 0.24611 0.09543 0.10547 0.22099 0.16574 0.12556 0.05525 0.27122 0.05525 0.14566 0 0.27122-0.05525 0.12556-0.06027 0.21597-0.16574 0.09543-0.10548 0.14566-0.25113 0.05525-0.14566 0.05525-0.32144 0-0.17077-0.05525-0.31642-0.05023-0.14566-0.14566-0.25113-0.09041-0.10547-0.21597-0.16072-0.12556-0.06027-0.27122-0.06027-0.14566 0-0.27122 0.06027-0.12556 0.06027-0.22099 0.16575-0.09041 0.10547-0.14566 0.25113-0.05023 0.14566-0.05023 0.31642z"/>
<path d="m92.447 66.902q-0.33149 0-0.64791-0.10547-0.31642-0.10548-0.54244-0.30136l0.25113-0.4219q0.24108 0.17077 0.4671 0.26117 0.23104 0.08538 0.45706 0.08538 0.2009 0 0.31642-0.07534 0.11552-0.07534 0.11552-0.21597t-0.13561-0.20593q-0.13561-0.06529-0.44199-0.15068-0.25615-0.07032-0.43697-0.13561-0.18081-0.06529-0.29131-0.14566-0.1105-0.08538-0.16072-0.19086-0.05023-0.1105-0.05023-0.26118 0-0.2009 0.07534-0.36163 0.08036-0.16072 0.22099-0.27122 0.14063-0.11552 0.32647-0.17579 0.19086-0.06027 0.41185-0.06027 0.29633 0 0.55248 0.08538 0.26118 0.08538 0.47715 0.27624l-0.27122 0.40683q-0.2009-0.15068-0.39176-0.22099-0.18584-0.07032-0.37167-0.07032-0.17077 0-0.28629 0.07032-0.11552 0.07032-0.11552 0.22602 0 0.07032 0.02511 0.11552 0.03014 0.0452 0.09041 0.08036t0.1557 0.07032q0.10045 0.03014 0.24611 0.06529 0.27122 0.07032 0.46208 0.14063 0.19588 0.07032 0.31642 0.16072 0.12556 0.09041 0.18081 0.21095 0.06027 0.11552 0.06027 0.28126 0 0.38674-0.28629 0.61276-0.28629 0.22099-0.7785 0.22099z"/>
</g>
</g>
</g>
</svg>
