<?xml version="1.0" encoding="UTF-8"?>
<svg width="700" height="220" version="1.1" viewBox="0 0 185.21 58.208" xmlns="http://www.w3.org/2000/svg" xmlns:cc="http://creativecommons.org/ns#" xmlns:dc="http://purl.org/dc/elements/1.1/" xmlns:rdf="http://www.w3.org/1999/02/22-rdf-syntax-ns#">
<metadata>
<rdf:RDF>
<cc:Work rdf:about="">
<dc:format>image/svg+xml</dc:format>
<dc:type rdf:resource="http://purl.org/dc/dcmitype/StillImage"/>
<dc:title/>
</cc:Work>
</rdf:RDF>
</metadata>
<g transform="translate(-18.958 -31.678)">
<g fill="#386582">
<g stroke-width=".30304" aria-label="Bienvenue!">
<path d="m38.723 50.304q0 0.54547-0.21819 0.9576t-0.60608 0.69093q-0.37577 0.27879-0.88487 0.42425-0.49698 0.14546-1.0667 0.14546h-4.1577v-8.6063h4.6062q0.4485 0 0.81214 0.19394t0.6182 0.5091q0.25455 0.30304 0.38789 0.70305 0.14546 0.38789 0.14546 0.7879 0 0.63032-0.31516 1.1879-0.31516 0.54547-0.92123 0.81214 0.73941 0.21819 1.1637 0.7879 0.43637 0.55759 0.43637 1.4061zm-1.6849-0.31516q0-0.23031-0.08485-0.43637-0.07273-0.21819-0.20607-0.37577-0.13334-0.15758-0.31516-0.24243-0.18182-0.09697-0.40001-0.09697h-2.5698v2.2667h2.4849q0.23031 0 0.42425-0.08485 0.20606-0.08485 0.35152-0.23031 0.14546-0.15758 0.23031-0.36364 0.08485-0.20607 0.08485-0.43637zm-3.5758-4.6425v2.1697h2.2304q0.42425 0 0.71517-0.29092 0.30304-0.29092 0.30304-0.80002 0-0.49698-0.2788-0.7879-0.26667-0.29092-0.66668-0.29092z"/>
<path d="m39.875 52.523v-6.3517h1.6243v6.3517zm0-7.2365v-1.6122h1.6243v1.6122z"/>
<path d="m45.911 52.644q-0.76365 0-1.3819-0.25455-0.6182-0.26667-1.0546-0.71517-0.43637-0.4485-0.6788-1.0424-0.23031-0.59395-0.23031-1.2485 0-0.6788 0.23031-1.2728 0.23031-0.60608 0.66668-1.0546 0.43637-0.46062 1.0546-0.72729 0.63032-0.26667 1.4061-0.26667t1.3819 0.26667q0.6182 0.26667 1.0424 0.71517 0.43637 0.4485 0.65456 1.0424 0.23031 0.59395 0.23031 1.2364 0 0.15758-0.01212 0.30304 0 0.14546-0.02424 0.24243h-4.9092q0.03636 0.37577 0.18182 0.66668 0.14546 0.29092 0.37577 0.49698 0.23031 0.20606 0.52122 0.31516 0.29092 0.10909 0.60608 0.10909 0.48486 0 0.90911-0.23031 0.43637-0.24243 0.59395-0.63032l1.394 0.38789q-0.35152 0.72729-1.1273 1.2-0.76366 0.46062-1.8303 0.46062zm1.6485-3.8304q-0.06061-0.71517-0.53335-1.1394-0.46062-0.43637-1.1273-0.43637-0.32728 0-0.6182 0.12122-0.27879 0.10909-0.49698 0.31516-0.21819 0.20607-0.36364 0.49698-0.13334 0.29092-0.15758 0.64244z"/>
<path d="m56.13 52.523h-1.6243v-3.5637q0-0.76365-0.26667-1.1152-0.26667-0.35152-0.73941-0.35152-0.24243 0-0.49698 0.09697-0.25455 0.09697-0.48486 0.27879-0.21819 0.1697-0.40001 0.41213-0.18182 0.24243-0.26667 0.53335v3.7092h-1.6243v-6.3517h1.4667v1.1758q0.35152-0.60608 1.0182-0.94548 0.66668-0.3394 1.5031-0.3394 0.59395 0 0.96972 0.21819 0.37577 0.21819 0.58183 0.56971 0.20607 0.35152 0.2788 0.80002 0.08485 0.4485 0.08485 0.90911z"/>
<path d="m59.111 52.523-2.3394-6.3517h1.6728l1.6122 5.0304 1.6243-5.0304h1.5273l-2.3394 6.3517z"/>
<path d="m66.784 52.644q-0.76366 0-1.3819-0.25455-0.6182-0.26667-1.0546-0.71517-0.43637-0.4485-0.6788-1.0424-0.23031-0.59395-0.23031-1.2485 0-0.6788 0.23031-1.2728 0.23031-0.60608 0.66668-1.0546 0.43637-0.46062 1.0546-0.72729 0.63032-0.26667 1.4061-0.26667t1.3819 0.26667q0.6182 0.26667 1.0424 0.71517 0.43637 0.4485 0.65456 1.0424 0.23031 0.59395 0.23031 1.2364 0 0.15758-0.01212 0.30304 0 0.14546-0.02424 0.24243h-4.9092q0.03636 0.37577 0.18182 0.66668 0.14546 0.29092 0.37577 0.49698 0.23031 0.20606 0.52122 0.31516 0.29092 0.10909 0.60608 0.10909 0.48486 0 0.90911-0.23031 0.43637-0.24243 0.59395-0.63032l1.394 0.38789q-0.35152 0.72729-1.1273 1.2-0.76365 0.46062-1.8303 0.46062zm1.6485-3.8304q-0.06061-0.71517-0.53335-1.1394-0.46062-0.43637-1.1273-0.43637-0.32728 0-0.6182 0.12122-0.2788 0.10909-0.49698 0.31516-0.21819 0.20607-0.36364 0.49698-0.13334 0.29092-0.15758 0.64244z"/>
<path d="m77.003 52.523h-1.6243v-3.5637q0-0.76365-0.26667-1.1152-0.26667-0.35152-0.73941-0.35152-0.24243 0-0.49698 0.09697-0.25455 0.09697-0.48486 0.27879-0.21819 0.1697-0.40001 0.41213-0.18182 0.24243-0.26667 0.53335v3.7092h-1.6243v-6.3517h1.4667v1.1758q0.35152-0.60608 1.0182-0.94548 0.66668-0.3394 1.5031-0.3394 0.59395 0 0.96972 0.21819 0.37577 0.21819 0.58183 0.56971 0.20606 0.35152 0.27879 0.80002 0.08485 0.4485 0.08485 0.90911z"/>
<path d="m80.36 52.644q-0.98184 0-1.4909-0.63032t-0.5091-1.8667v-3.9759h1.6243v3.6243q0 1.4667 1.0546 1.4667 0.47274 0 0.90911-0.27879 0.4485-0.29092 0.72729-0.87275v-3.9395h1.6243v4.485q0 0.25455 0.08485 0.36364 0.09697 0.10909 0.30304 0.12122v1.3819q-0.24243 0.04849-0.41213 0.06061-0.15758 0.01212-0.29092 0.01212-0.43637 0-0.71517-0.19394-0.26667-0.20606-0.31516-0.55759l-0.03636-0.5091q-0.42425 0.65456-1.0909 0.98184-0.66668 0.32728-1.4667 0.32728z"/>
<path d="m88.858 52.644q-0.76365 0-1.3819-0.25455-0.6182-0.26667-1.0546-0.71517-0.43637-0.4485-0.6788-1.0424-0.23031-0.59395-0.23031-1.2485 0-0.6788 0.23031-1.2728 0.23031-0.60608 0.66668-1.0546 0.43637-0.46062 1.0546-0.72729 0.63032-0.26667 1.4061-0.26667t1.3819 0.26667q0.6182 0.26667 1.0424 0.71517 0.43637 0.4485 0.65456 1.0424 0.23031 0.59395 0.23031 1.2364 0 0.15758-0.01212 0.30304 0 0.14546-0.02424 0.24243h-4.9092q0.03637 0.37577 0.18182 0.66668 0.14546 0.29092 0.37577 0.49698 0.23031 0.20606 0.52122 0.31516 0.29092 0.10909 0.60608 0.10909 0.48486 0 0.90911-0.23031 0.43637-0.24243 0.59395-0.63032l1.394 0.38789q-0.35152 0.72729-1.1273 1.2-0.76366 0.46062-1.8303 0.46062zm1.6485-3.8304q-0.06061-0.71517-0.53335-1.1394-0.46062-0.43637-1.1273-0.43637-0.32728 0-0.6182 0.12122-0.27879 0.10909-0.49698 0.31516-0.21819 0.20607-0.36364 0.49698-0.13334 0.29092-0.15758 0.64244z"/>
<path d="m93.488 49.286v-5.4547h1.6243v5.4547zm0 3.2364v-1.8303h1.6243v1.8303z"/>
</g>
<g stroke-width=".12556" aria-label="Configurons les bases…">
<path d="m34.225 59.04q0-0.32647 0.11552-0.64289 0.12054-0.32145 0.34656-0.57258 0.22602-0.25113 0.55248-0.40683 0.32647-0.1557 0.74334-0.1557 0.49221 0 0.84882 0.21597 0.36163 0.21597 0.53742 0.56253l-0.5324 0.36665q-0.07032-0.15068-0.17077-0.25113-0.10045-0.10547-0.21597-0.16574-0.11552-0.06027-0.24108-0.08538-0.12556-0.03014-0.24611-0.03014-0.26118 0-0.45706 0.10548-0.19086 0.10547-0.32145 0.27624-0.12556 0.16575-0.19086 0.38172-0.06529 0.21095-0.06529 0.4219 0 0.23606 0.07534 0.45706 0.07534 0.21597 0.21095 0.38172 0.14063 0.16575 0.33149 0.2662 0.19588 0.10045 0.42692 0.10045 0.12054 0 0.25113-0.03014 0.13059-0.03014 0.24611-0.09543 0.12054-0.06529 0.22099-0.16574 0.10045-0.10547 0.16072-0.25113l0.56755 0.32647q-0.08538 0.2009-0.24611 0.3566-0.1557 0.15068-0.3566 0.25615-0.19588 0.10547-0.4219 0.16072-0.22602 0.05525-0.44199 0.05525-0.38172 0-0.69814-0.16072-0.31642-0.16072-0.54746-0.41688-0.22602-0.26117-0.3566-0.58764-0.12556-0.33149-0.12556-0.67303z"/>
<path d="m39.036 60.898q-0.32144 0-0.5776-0.1105-0.25615-0.1105-0.43696-0.29633-0.17579-0.19086-0.27122-0.43697-0.09543-0.24611-0.09543-0.51733 0-0.27624 0.09543-0.52235t0.27122-0.43194q0.18081-0.19086 0.43696-0.30136 0.25615-0.1105 0.5776-0.1105 0.32145 0 0.57258 0.1105 0.25615 0.1105 0.43194 0.30136 0.18081 0.18584 0.27624 0.43194 0.09543 0.24611 0.09543 0.52235 0 0.27122-0.09543 0.51733t-0.27122 0.43697q-0.17579 0.18584-0.43194 0.29633t-0.5776 0.1105zm-0.6881-1.3611q0 0.17579 0.05023 0.32144 0.05525 0.14063 0.14566 0.24611 0.09543 0.10548 0.22099 0.16575 0.12556 0.05525 0.27122 0.05525t0.27122-0.05525q0.12556-0.06027 0.21597-0.16575 0.09543-0.10547 0.14566-0.25113 0.05525-0.14566 0.05525-0.32145 0-0.17077-0.05525-0.31642-0.05023-0.14566-0.14566-0.25113-0.09041-0.10547-0.21597-0.16072-0.12556-0.06027-0.27122-0.06027t-0.27122 0.06027q-0.12556 0.06027-0.22099 0.16575-0.09041 0.10547-0.14566 0.25113-0.05023 0.14566-0.05023 0.31642z"/>
<path d="m43.311 60.848h-0.67303v-1.4766q0-0.31642-0.1105-0.46208t-0.30638-0.14566q-0.10045 0-0.20593 0.04018-0.10547 0.04018-0.2009 0.11552-0.09041 0.07032-0.16575 0.17077-0.07534 0.10045-0.1105 0.22099v1.5369h-0.67303v-2.6318h0.60773v0.48719q0.14566-0.25113 0.4219-0.39176 0.27624-0.14063 0.6228-0.14063 0.24611 0 0.40181 0.09041 0.1557 0.09041 0.24108 0.23606 0.08538 0.14566 0.11552 0.33149 0.03516 0.18584 0.03516 0.3767z"/>
<path d="m44.034 58.869h-0.34656v-0.5123h0.34656v-0.16072q0-0.21597 0.07032-0.41185 0.07534-0.19588 0.21095-0.33651 0.14063-0.14566 0.33651-0.23104 0.2009-0.08538 0.45203-0.08538 0.28629 0 0.52235 0.09543 0.24108 0.09041 0.45203 0.23104l-0.2662 0.50226q-0.13059-0.11552-0.30638-0.18584-0.17579-0.07032-0.3566-0.07032-0.22602 0-0.33651 0.14063-0.10548 0.14063-0.10548 0.32647v0.18584h1.4113v2.4912h-0.67303v-1.9789h-0.73832v1.9789h-0.67303z"/>
<path d="m47.756 60.863q-0.2662 0-0.48217-0.10547-0.21597-0.10547-0.3767-0.28629-0.1557-0.18584-0.24108-0.42692-0.08538-0.24108-0.08538-0.5123 0-0.28629 0.09041-0.5324 0.09041-0.24611 0.25113-0.43194 0.16072-0.18584 0.38674-0.29131 0.22602-0.10547 0.49724-0.10547 0.30638 0 0.53742 0.14063 0.23104 0.13561 0.38172 0.36665v-0.46208h0.58764v2.5063q0 0.29131-0.1105 0.52235t-0.30638 0.39176q-0.19086 0.16072-0.46208 0.24611-0.2662 0.08538-0.58262 0.08538-0.43194 0-0.72828-0.14566-0.29131-0.14063-0.50226-0.40181l0.36665-0.3566q0.15068 0.18584 0.37669 0.29131 0.23104 0.10548 0.48719 0.10548 0.1557 0 0.29633-0.0452 0.14566-0.04018 0.25615-0.13059 0.1105-0.09041 0.17077-0.23104 0.06529-0.14063 0.06529-0.33149v-0.33149q-0.13059 0.22602-0.36665 0.35158-0.23606 0.12054-0.50728 0.12054zm0.22602-0.53742q0.1105 0 0.21095-0.03516t0.18584-0.09543q0.08538-0.06027 0.15068-0.14063 0.06529-0.08036 0.10045-0.17077v-0.62782q-0.09041-0.23104-0.28629-0.37167-0.19086-0.14063-0.40181-0.14063-0.1557 0-0.28126 0.07032-0.12556 0.06529-0.21597 0.18081-0.09041 0.1105-0.14063 0.25615-0.0452 0.14566-0.0452 0.30136 0 0.16072 0.05525 0.30136 0.05525 0.14063 0.15068 0.24611 0.10045 0.10547 0.23104 0.16574 0.13059 0.06027 0.28629 0.06027z"/>
<path d="m50.714 60.898q-0.40683 0-0.61778-0.26118t-0.21095-0.77348v-1.6474h0.67303v1.5018q0 0.60773 0.43697 0.60773 0.19588 0 0.37669-0.11552 0.18584-0.12054 0.30136-0.36163v-1.6323h0.67303v1.8584q0 0.10547 0.03516 0.15068 0.04018 0.0452 0.12556 0.05023v0.57258q-0.10045 0.02009-0.17077 0.02511-0.06529 5e-3 -0.12054 5e-3 -0.18081 0-0.29633-0.08036-0.1105-0.08538-0.13059-0.23104l-0.01507-0.21095q-0.17579 0.27122-0.45203 0.40683-0.27624 0.13561-0.60773 0.13561z"/>
<path d="m54.581 58.799q-0.30638 5e-3 -0.54746 0.12054-0.24108 0.1105-0.34656 0.33651v1.5922h-0.67303v-2.6318h0.61778v0.56253q0.07032-0.13561 0.16575-0.24108 0.09543-0.1105 0.20593-0.19086 0.1105-0.08036 0.22099-0.12054 0.11552-0.0452 0.22099-0.0452 0.05525 0 0.08036 0 0.03014 0 0.05525 5e-3z"/>
<path d="m56.043 60.898q-0.32145 0-0.5776-0.1105t-0.43696-0.29633q-0.17579-0.19086-0.27122-0.43697-0.09543-0.24611-0.09543-0.51733 0-0.27624 0.09543-0.52235t0.27122-0.43194q0.18081-0.19086 0.43696-0.30136t0.5776-0.1105 0.57258 0.1105q0.25615 0.1105 0.43194 0.30136 0.18081 0.18584 0.27624 0.43194t0.09543 0.52235q0 0.27122-0.09543 0.51733t-0.27122 0.43697q-0.17579 0.18584-0.43194 0.29633t-0.5776 0.1105zm-0.6881-1.3611q0 0.17579 0.05023 0.32144 0.05525 0.14063 0.14566 0.24611 0.09543 0.10548 0.22099 0.16575 0.12556 0.05525 0.27122 0.05525t0.27122-0.05525q0.12556-0.06027 0.21597-0.16575 0.09543-0.10547 0.14566-0.25113 0.05525-0.14566 0.05525-0.32145 0-0.17077-0.05525-0.31642-0.05023-0.14566-0.14566-0.25113-0.09041-0.10547-0.21597-0.16072-0.12556-0.06027-0.27122-0.06027t-0.27122 0.06027-0.22099 0.16575q-0.09041 0.10547-0.14566 0.25113-0.05023 0.14566-0.05023 0.31642z"/>
<path d="m60.317 60.848h-0.67303v-1.4766q0-0.31642-0.1105-0.46208t-0.30638-0.14566q-0.10045 0-0.20593 0.04018-0.10547 0.04018-0.2009 0.11552-0.09041 0.07032-0.16575 0.17077-0.07534 0.10045-0.1105 0.22099v1.5369h-0.67303v-2.6318h0.60773v0.48719q0.14566-0.25113 0.4219-0.39176 0.27624-0.14063 0.6228-0.14063 0.24611 0 0.40181 0.09041 0.1557 0.09041 0.24108 0.23606 0.08538 0.14566 0.11552 0.33149 0.03516 0.18584 0.03516 0.3767z"/>
<path d="m61.899 60.898q-0.33149 0-0.64791-0.10548-0.31642-0.10547-0.54244-0.30136l0.25113-0.4219q0.24108 0.17077 0.4671 0.26118 0.23104 0.08538 0.45706 0.08538 0.2009 0 0.31642-0.07534 0.11552-0.07534 0.11552-0.21597 0-0.14063-0.13561-0.20593-0.13561-0.06529-0.44199-0.15068-0.25615-0.07032-0.43696-0.13561t-0.29131-0.14566q-0.1105-0.08538-0.16072-0.19086-0.05023-0.1105-0.05023-0.26117 0-0.2009 0.07534-0.36163 0.08036-0.16072 0.22099-0.27122 0.14063-0.11552 0.32647-0.17579 0.19086-0.06027 0.41185-0.06027 0.29633 0 0.55248 0.08539 0.26118 0.08538 0.47715 0.27624l-0.27122 0.40683q-0.2009-0.15068-0.39176-0.22099-0.18584-0.07032-0.37167-0.07032-0.17077 0-0.28629 0.07032-0.11552 0.07032-0.11552 0.22602 0 0.07032 0.02511 0.11552 0.03014 0.0452 0.09041 0.08036t0.1557 0.07032q0.10045 0.03014 0.24611 0.06529 0.27122 0.07032 0.46208 0.14063 0.19588 0.07032 0.31642 0.16072 0.12556 0.09041 0.18081 0.21095 0.06027 0.11552 0.06027 0.28126 0 0.38674-0.28629 0.61276-0.28629 0.22099-0.7785 0.22099z"/>
<path d="m64.601 57.182h0.67303v2.8227q0 0.14566 0.07032 0.22602 0.07032 0.08036 0.2009 0.08036 0.06027 0 0.13059-0.02009 0.07534-0.02009 0.14063-0.05023l0.09041 0.5123q-0.13561 0.06529-0.31642 0.10045-0.18081 0.03516-0.32647 0.03516-0.31642 0-0.49221-0.16574-0.17077-0.17077-0.17077-0.48217z"/>
<path d="m67.419 60.898q-0.31642 0-0.57258-0.10548-0.25615-0.1105-0.43697-0.29633t-0.28126-0.43194q-0.09543-0.24611-0.09543-0.51733 0-0.28126 0.09543-0.52737 0.09543-0.25113 0.27624-0.43697 0.18081-0.19086 0.43696-0.30136 0.26118-0.1105 0.58262-0.1105 0.32145 0 0.57258 0.1105 0.25615 0.1105 0.43194 0.29633 0.18081 0.18584 0.27122 0.43194 0.09543 0.24611 0.09543 0.5123 0 0.06529-5e-3 0.12556 0 0.06027-0.01004 0.10045h-2.0342q0.01507 0.1557 0.07534 0.27624t0.1557 0.20593q0.09543 0.08538 0.21597 0.13059 0.12054 0.0452 0.25113 0.0452 0.2009 0 0.37669-0.09543 0.18081-0.10045 0.24611-0.26117l0.5776 0.16072q-0.14566 0.30136-0.4671 0.49724-0.31642 0.19086-0.75841 0.19086zm0.68307-1.5871q-0.02511-0.29633-0.22099-0.47212-0.19086-0.18081-0.4671-0.18081-0.13561 0-0.25615 0.05023-0.11552 0.0452-0.20593 0.13059-0.09041 0.08538-0.15068 0.20593-0.05525 0.12054-0.06529 0.2662z"/>
<path d="m70.201 60.898q-0.33149 0-0.64791-0.10548-0.31642-0.10547-0.54244-0.30136l0.25113-0.4219q0.24108 0.17077 0.4671 0.26118 0.23104 0.08538 0.45706 0.08538 0.2009 0 0.31642-0.07534 0.11552-0.07534 0.11552-0.21597 0-0.14063-0.13561-0.20593-0.13561-0.06529-0.44199-0.15068-0.25615-0.07032-0.43696-0.13561t-0.29131-0.14566q-0.1105-0.08538-0.16072-0.19086-0.05023-0.1105-0.05023-0.26117 0-0.2009 0.07534-0.36163 0.08036-0.16072 0.22099-0.27122 0.14063-0.11552 0.32647-0.17579 0.19086-0.06027 0.41185-0.06027 0.29633 0 0.55248 0.08539 0.26118 0.08538 0.47715 0.27624l-0.27122 0.40683q-0.2009-0.15068-0.39176-0.22099-0.18584-0.07032-0.37167-0.07032-0.17077 0-0.28629 0.07032-0.11552 0.07032-0.11552 0.22602 0 0.07032 0.02511 0.11552 0.03014 0.0452 0.09041 0.08036t0.1557 0.07032q0.10045 0.03014 0.24611 0.06529 0.27122 0.07032 0.46208 0.14063 0.19588 0.07032 0.31642 0.16072 0.12556 0.09041 0.18081 0.21095 0.06027 0.11552 0.06027 0.28126 0 0.38674-0.28629 0.61276-0.28629 0.22099-0.7785 0.22099z"/>
<path d="m74.405 60.898q-0.30136 0-0.53742-0.13561-0.23606-0.13561-0.37167-0.37167v0.45706h-0.58764v-3.6665h0.67303v1.4967q0.14063-0.24108 0.36665-0.37167 0.23104-0.13561 0.53742-0.13561 0.25615 0 0.4671 0.1105t0.36163 0.29633q0.1557 0.18584 0.23606 0.43696 0.08538 0.25113 0.08538 0.52737 0 0.28629-0.09543 0.5324-0.09041 0.24611-0.25615 0.43194-0.16574 0.18081-0.39176 0.28629-0.22602 0.10548-0.48719 0.10548zm-0.18584-0.57258q0.16072 0 0.29633-0.06027 0.13561-0.06529 0.23104-0.17077 0.09543-0.10547 0.14566-0.24611 0.05525-0.14063 0.05525-0.30136t-0.05023-0.30638-0.14566-0.25615q-0.09041-0.1105-0.21597-0.17579-0.12556-0.06529-0.27624-0.06529-0.22602 0-0.40683 0.15068-0.17579 0.14566-0.27122 0.36163v0.62782q0.03516 0.10045 0.10045 0.18081 0.07032 0.08036 0.1557 0.14063 0.08538 0.05525 0.18584 0.09041 0.10045 0.03014 0.19588 0.03014z"/>
<path d="m76.811 60.898q-0.19086 0-0.3566-0.06027-0.16574-0.06529-0.28629-0.17579-0.12054-0.11552-0.19086-0.2662-0.06529-0.15068-0.06529-0.33149 0-0.18584 0.08036-0.34154 0.08538-0.16072 0.23104-0.27122 0.15068-0.1105 0.3566-0.17077 0.20593-0.06529 0.45203-0.06529 0.17579 0 0.34154 0.03013 0.17077 0.03014 0.30136 0.08538v-0.15068q0-0.26118-0.15068-0.40181-0.14566-0.14063-0.43696-0.14063-0.21095 0-0.41185 0.07534-0.2009 0.07534-0.41185 0.22099l-0.20593-0.42692q0.50728-0.33651 1.0949-0.33651 0.56755 0 0.87895 0.28126 0.31642 0.27624 0.31642 0.80362v0.81868q0 0.10547 0.03516 0.15068 0.04018 0.0452 0.12556 0.05023v0.57258q-0.17077 0.03516-0.29633 0.03516-0.19086 0-0.29633-0.08538-0.10045-0.08538-0.12556-0.22602l-0.01507-0.14566q-0.17579 0.23104-0.42692 0.35158-0.25113 0.12054-0.53742 0.12054zm0.19086-0.49221q0.17077 0 0.32144-0.06027 0.1557-0.06027 0.24108-0.16072 0.1105-0.08538 0.1105-0.19086v-0.30136q-0.12054-0.0452-0.26118-0.07032-0.14063-0.03014-0.27122-0.03014-0.26118 0-0.42692 0.12054-0.16575 0.11552-0.16575 0.29633 0 0.17077 0.13059 0.28629 0.13059 0.1105 0.32145 0.1105z"/>
<path d="m79.97 60.898q-0.33149 0-0.64791-0.10548-0.31642-0.10547-0.54244-0.30136l0.25113-0.4219q0.24108 0.17077 0.4671 0.26118 0.23104 0.08538 0.45706 0.08538 0.2009 0 0.31642-0.07534 0.11552-0.07534 0.11552-0.21597 0-0.14063-0.13561-0.20593-0.13561-0.06529-0.44199-0.15068-0.25615-0.07032-0.43697-0.13561-0.18081-0.06529-0.29131-0.14566-0.1105-0.08538-0.16072-0.19086-0.05023-0.1105-0.05023-0.26117 0-0.2009 0.07534-0.36163 0.08036-0.16072 0.22099-0.27122 0.14063-0.11552 0.32647-0.17579 0.19086-0.06027 0.41185-0.06027 0.29633 0 0.55248 0.08539 0.26118 0.08538 0.47715 0.27624l-0.27122 0.40683q-0.2009-0.15068-0.39176-0.22099-0.18584-0.07032-0.37167-0.07032-0.17077 0-0.28629 0.07032-0.11552 0.07032-0.11552 0.22602 0 0.07032 0.02511 0.11552 0.03014 0.0452 0.09041 0.08036t0.1557 0.07032q0.10045 0.03014 0.24611 0.06529 0.27122 0.07032 0.46208 0.14063 0.19588 0.07032 0.31642 0.16072 0.12556 0.09041 0.18081 0.21095 0.06027 0.11552 0.06027 0.28126 0 0.38674-0.28629 0.61276-0.28629 0.22099-0.7785 0.22099z"/>
<path d="m82.693 60.898q-0.31642 0-0.57258-0.10548-0.25615-0.1105-0.43696-0.29633t-0.28126-0.43194q-0.09543-0.24611-0.09543-0.51733 0-0.28126 0.09543-0.52737 0.09543-0.25113 0.27624-0.43697 0.18081-0.19086 0.43697-0.30136 0.26117-0.1105 0.58262-0.1105t0.57258 0.1105q0.25615 0.1105 0.43194 0.29633 0.18081 0.18584 0.27122 0.43194 0.09543 0.24611 0.09543 0.5123 0 0.06529-5e-3 0.12556 0 0.06027-0.01005 0.10045h-2.0341q0.01507 0.1557 0.07534 0.27624t0.1557 0.20593q0.09543 0.08538 0.21597 0.13059 0.12054 0.0452 0.25113 0.0452 0.2009 0 0.3767-0.09543 0.18081-0.10045 0.24611-0.26117l0.5776 0.16072q-0.14566 0.30136-0.4671 0.49724-0.31642 0.19086-0.75841 0.19086zm0.68307-1.5871q-0.02511-0.29633-0.22099-0.47212-0.19086-0.18081-0.4671-0.18081-0.13561 0-0.25615 0.05023-0.11552 0.0452-0.20593 0.13059-0.09041 0.08538-0.15068 0.20593-0.05525 0.12054-0.06529 0.2662z"/>
<path d="m85.475 60.898q-0.33149 0-0.64791-0.10548-0.31642-0.10547-0.54244-0.30136l0.25113-0.4219q0.24108 0.17077 0.4671 0.26118 0.23104 0.08538 0.45706 0.08538 0.2009 0 0.31642-0.07534 0.11552-0.07534 0.11552-0.21597 0-0.14063-0.13561-0.20593-0.13561-0.06529-0.44199-0.15068-0.25615-0.07032-0.43696-0.13561-0.18081-0.06529-0.29131-0.14566-0.1105-0.08538-0.16072-0.19086-0.05022-0.1105-0.05022-0.26117 0-0.2009 0.07534-0.36163 0.08036-0.16072 0.22099-0.27122 0.14063-0.11552 0.32647-0.17579 0.19086-0.06027 0.41185-0.06027 0.29633 0 0.55248 0.08539 0.26118 0.08538 0.47715 0.27624l-0.27122 0.40683q-0.2009-0.15068-0.39176-0.22099-0.18584-0.07032-0.37167-0.07032-0.17077 0-0.28629 0.07032-0.11552 0.07032-0.11552 0.22602 0 0.07032 0.02511 0.11552 0.03014 0.0452 0.09041 0.08036t0.1557 0.07032q0.10045 0.03014 0.24611 0.06529 0.27122 0.07032 0.46208 0.14063 0.19588 0.07032 0.31642 0.16072 0.12556 0.09041 0.18081 0.21095 0.06027 0.11552 0.06027 0.28126 0 0.38674-0.28629 0.61276-0.28629 0.22099-0.7785 0.22099z"/>
<path d="m86.962 60.848v-0.72325h0.55248v0.72325zm0.94425 0v-0.72325h0.55248v0.72325zm0.94425 0v-0.72325h0.55248v0.72325z"/>
</g>
</g>
</g>
</svg>
