<?xml version="1.0" encoding="UTF-8"?>
<svg width="700" height="220" version="1.1" viewBox="0 0 185.21 58.208" xmlns="http://www.w3.org/2000/svg" xmlns:cc="http://creativecommons.org/ns#" xmlns:dc="http://purl.org/dc/elements/1.1/" xmlns:rdf="http://www.w3.org/1999/02/22-rdf-syntax-ns#">
<metadata>
<rdf:RDF>
<cc:Work rdf:about="">
<dc:format>image/svg+xml</dc:format>
<dc:type rdf:resource="http://purl.org/dc/dcmitype/StillImage"/>
<dc:title/>
</cc:Work>
</rdf:RDF>
</metadata>
<g transform="translate(-18.958 -31.678)">
<g>
<path transform="matrix(.26458 0 0 .26458 18.958 31.678)" d="m299.32 51.934v20.617h6.1387v-20.617h-6.1387zm-238.83 0.32226v32.527h15.715c1.4355 0 2.779-0.18432 4.0312-0.55078 1.2828-0.36653 2.3989-0.90105 3.3457-1.6035 0.97735-0.70246 1.7393-1.5729 2.2891-2.6113 0.54976-1.0385 0.82617-2.2447 0.82617-3.6191 0-2.1379-0.55086-3.9095-1.6504-5.3145-1.069-1.4355-2.5354-2.4268-4.3984-2.9766 1.5271-0.67193 2.6883-1.6959 3.4824-3.0703 0.7941-1.405 1.1914-2.902 1.1914-4.4902 0-1.0079-0.18427-1.9992-0.55078-2.9766-0.33596-1.0079-0.82346-1.8947-1.4648-2.6582-0.64139-0.79413-1.4197-1.4352-2.3359-1.9238-0.91627-0.48867-1.9402-0.73242-3.0703-0.73242h-17.41zm194.25 0.73242v7.7891h-3.1602v4.7188h3.1602v13.789c0 1.069 0.16794 1.9845 0.5039 2.748 0.33597 0.733 0.77836 1.3453 1.3281 1.834 0.5803 0.45814 1.2377 0.79402 1.9707 1.0078 0.76356 0.21374 1.5726 0.32031 2.4277 0.32031 1.3133 0 2.5666-0.18432 3.7578-0.55078 1.1912-0.36653 2.1988-0.73314 3.0234-1.0996l-1.2383-4.8555c-0.36651 0.15274-0.85399 0.33699-1.4648 0.55078-0.61085 0.2138-1.2375 0.32031-1.8789 0.32031-0.64138 0-1.1903-0.16791-1.6484-0.50391-0.4276-0.36647-0.64258-0.97879-0.64258-1.834v-11.727h5.0391v-4.7188h-5.0391v-7.7891h-6.1387zm-187.93 4.6719h8.7051c1.0079 0 1.8476 0.36661 2.5195 1.0996 0.70248 0.733 1.0547 1.7262 1.0547 2.9785 0 1.2828-0.38292 2.2904-1.1465 3.0234-0.73302 0.733-1.6341 1.0996-2.7031 1.0996h-8.4297v-8.2012zm35.414 2.7031c-1.9547 0-3.7262 0.33588-5.3145 1.0078-1.5577 0.67193-2.8848 1.5894-3.9844 2.75-1.0995 1.1301-1.9392 2.4592-2.5195 3.9863-0.58031 1.4965-0.87109 3.1001-0.87109 4.8105 0 1.6493 0.29079 3.2222 0.87109 4.7188 0.61085 1.4966 1.4649 2.8094 2.5645 3.9395 1.0995 1.1301 2.4287 2.0312 3.9863 2.7031 1.5577 0.6414 3.2985 0.96094 5.2227 0.96094 2.6877 0 4.9938-0.57957 6.918-1.7402 1.9547-1.1911 3.374-2.7026 4.2598-4.5352l-5.2676-1.4668c-0.39705 0.97733-1.1466 1.7719-2.2461 2.3828-1.069 0.58027-2.2138 0.87109-3.4356 0.87109-0.7941 0-1.558-0.1392-2.291-0.41406-0.73301-0.27486-1.3884-0.67025-1.9687-1.1895-0.58031-0.51927-1.0534-1.1459-1.4199-1.8789-0.36652-0.733-0.59588-1.5727-0.6875-2.5195h18.555c0.06108-0.24433 0.0918-0.54955 0.0918-0.91602 0.03053-0.36653 0.04492-0.74942 0.04492-1.1465 0-1.6187-0.29079-3.1753-0.8711-4.6719-0.54976-1.4965-1.3731-2.8113-2.4726-3.9414-1.069-1.1301-2.3838-2.0312-3.9414-2.7031-1.5271-0.67193-3.2679-1.0078-5.2226-1.0078zm31.338 0c-2.1074 0-4.0018 0.428-5.6816 1.2832-1.6798 0.85513-2.9619 2.0471-3.8476 3.5742v-4.4434h-5.5449v24.006h6.1406v-14.02c0.2138-0.73307 0.54968-1.4048 1.0078-2.0156 0.45814-0.61087 0.96196-1.131 1.5117-1.5586 0.58031-0.45813 1.1906-0.8084 1.832-1.0527s1.2681-0.36719 1.8789-0.36719c1.1912 0 2.123 0.44434 2.7949 1.3301 0.67194 0.88573 1.0078 2.2907 1.0078 4.2148v13.469h6.1387v-14.982c0-1.1606-0.10652-2.3055-0.32032-3.4355-0.18325-1.1301-0.53546-2.1377-1.0547-3.0234-0.51923-0.88573-1.2524-1.6025-2.1992-2.1523-0.94681-0.54973-2.1675-0.82617-3.6641-0.82617zm47.553 0c-1.9547 0-3.7262 0.33588-5.3144 1.0078-1.5577 0.67193-2.8848 1.5894-3.9844 2.75-1.0995 1.1301-1.9392 2.4592-2.5195 3.9863-0.58031 1.4965-0.87109 3.1001-0.87109 4.8105 0 1.6493 0.29078 3.2222 0.87109 4.7188 0.61085 1.4966 1.4649 2.8094 2.5644 3.9395 1.0995 1.1301 2.4287 2.0312 3.9863 2.7031 1.5577 0.6414 3.2985 0.96094 5.2227 0.96094 2.6877 0 4.9938-0.57957 6.918-1.7402 1.9547-1.1911 3.374-2.7026 4.2598-4.5352l-5.2676-1.4668c-0.39705 0.97733-1.1446 1.7719-2.2441 2.3828-1.069 0.58027-2.2158 0.87109-3.4375 0.87109-0.7941 0-1.558-0.1392-2.291-0.41406-0.73302-0.27486-1.3884-0.67025-1.9688-1.1895-0.58031-0.51927-1.0534-1.1459-1.4199-1.8789-0.3665-0.733-0.59586-1.5727-0.6875-2.5195h18.555c0.06108-0.24433 0.0918-0.54955 0.0918-0.91602 0.03054-0.36653 0.04492-0.74942 0.04492-1.1465 0-1.6187-0.29079-3.1753-0.87109-4.6719-0.54977-1.4965-1.3731-2.8113-2.4727-3.9414-1.069-1.1301-2.3837-2.0312-3.9414-2.7031-1.5271-0.67193-3.268-1.0078-5.2227-1.0078zm31.338 0c-2.1074 0-4.0018 0.428-5.6816 1.2832-1.6798 0.85513-2.9619 2.0471-3.8477 3.5742v-4.4434h-5.5449v24.006h6.1406v-14.02c0.21379-0.73307 0.54967-1.4048 1.0078-2.0156 0.45813-0.61087 0.96196-1.131 1.5117-1.5586 0.5803-0.45813 1.1906-0.8084 1.832-1.0527s1.268-0.36719 1.8789-0.36719c1.1912 0 2.123 0.44434 2.7949 1.3301 0.67192 0.88573 1.0078 2.2907 1.0078 4.2148v13.469h6.1387v-14.982c0-1.1606-0.10652-2.3055-0.32031-3.4355-0.18325-1.1301-0.53547-2.1377-1.0547-3.0234-0.51922-0.88573-1.2524-1.6025-2.1992-2.1523-0.94682-0.54973-2.1675-0.82617-3.6641-0.82617zm68.994 0c-1.9547 0-3.7099 0.33588-5.2676 1.0078-1.5577 0.67193-2.8868 1.5894-3.9863 2.75-1.069 1.1301-1.8943 2.4429-2.4746 3.9395-0.58031 1.4965-0.86914 3.0858-0.86914 4.7656 0 1.6493 0.28883 3.2222 0.86914 4.7188 0.5803 1.4965 1.4056 2.8237 2.4746 3.9844 1.0995 1.1301 2.4287 2.0312 3.9863 2.7031 1.5577 0.67193 3.3129 1.0078 5.2676 1.0078s3.7119-0.33588 5.2695-1.0078c1.5577-0.67194 2.8705-1.5731 3.9395-2.7031 1.069-1.1607 1.8943-2.4878 2.4746-3.9844 0.58031-1.4966 0.86915-3.0695 0.86915-4.7188 0-1.6799-0.28884-3.2691-0.86915-4.7656-0.5803-1.4966-1.422-2.8094-2.5215-3.9395-1.069-1.1606-2.3818-2.0781-3.9394-2.75-1.5271-0.67193-3.268-1.0078-5.2227-1.0078zm-138.22 0.41406 8.8418 24.006h6.6426l8.8418-24.006h-5.7715l-6.1387 19.012-6.0938-19.012h-6.3223zm81.594 0v15.025c0 3.1153 0.64105 5.4684 1.9238 7.0566 1.2828 1.5882 3.1608 2.3809 5.6348 2.3809 2.0158 0 3.8631-0.41166 5.543-1.2363 1.6798-0.82467 3.056-2.0617 4.125-3.7109l0.13672 1.9238c0.12217 0.88573 0.51947 1.5882 1.1914 2.1074 0.70247 0.48866 1.6036 0.73438 2.7031 0.73438 0.33597 0 0.70256-0.016211 1.0996-0.046875 0.4276-0.030539 0.9458-0.10631 1.5566-0.22852v-5.2227c-0.51922-0.030534-0.90019-0.18405-1.1445-0.45898-0.21379-0.27487-0.32031-0.7336-0.32031-1.375v-16.949h-6.1406v14.889c-0.70247 1.4661-1.618 2.5658-2.748 3.2988-1.0995 0.70247-2.2444 1.0527-3.4356 1.0527-2.6572 0-3.9863-1.8474-3.9863-5.543v-13.697h-6.1387zm-122.69 4.0312c1.6798 0 3.1011 0.5489 4.2617 1.6484 1.1911 1.069 1.8629 2.5046 2.0156 4.3066h-12.461c0.06108-0.88573 0.25974-1.6947 0.5957-2.4277 0.36651-0.733 0.82329-1.3597 1.373-1.8789 0.54977-0.5192 1.1764-0.91647 1.8789-1.1914 0.73301-0.3054 1.5113-0.45703 2.3359-0.45703zm78.893 0c1.6798 0 3.0992 0.5489 4.2598 1.6484 1.1912 1.069 1.8629 2.5046 2.0156 4.3066h-12.461c0.06109-0.88573 0.25974-1.6947 0.5957-2.4277 0.36651-0.733 0.82523-1.3597 1.375-1.8789 0.54976-0.5192 1.1745-0.91647 1.877-1.1914 0.73301-0.3054 1.5132-0.45703 2.3379-0.45703zm100.42 0.77734c0.88574 0 1.711 0.18425 2.4746 0.55078 0.76356 0.33593 1.419 0.8254 1.9688 1.4668 0.58031 0.6414 1.0246 1.4033 1.3301 2.2891 0.33597 0.88574 0.50391 1.8483 0.50391 2.8867 0 1.0689-0.16794 2.0459-0.50391 2.9316-0.30543 0.88573-0.74977 1.6496-1.3301 2.291-0.54976 0.6414-1.2052 1.1452-1.9688 1.5117-0.76356 0.33593-1.5889 0.50391-2.4746 0.50391-0.88573 0-1.7091-0.16797-2.4726-0.50391-0.76357-0.36653-1.4373-0.87032-2.0176-1.5117-0.54976-0.6414-0.99216-1.3889-1.3281-2.2441-0.30542-0.88567-0.45703-1.8626-0.45703-2.9316 0-1.0385 0.15161-2.001 0.45703-2.8867 0.33597-0.88573 0.77837-1.6496 1.3281-2.291 0.5803-0.64133 1.254-1.1452 2.0176-1.5117 0.76355-0.36653 1.5869-0.55078 2.4726-0.55078zm-214.64 5.2695h9.7129c0.54977 0 1.0536 0.12285 1.5117 0.36719 0.45814 0.2138 0.85544 0.51895 1.1914 0.91602 0.33596 0.397 0.59604 0.87012 0.7793 1.4199 0.2138 0.5192 0.32031 1.0681 0.32031 1.6484 0 0.58027-0.10652 1.1311-0.32031 1.6504-0.2138 0.5192-0.50459 0.97598-0.87109 1.373-0.36651 0.36647-0.8089 0.6573-1.3281 0.87109-0.48867 0.2138-1.0232 0.32031-1.6035 0.32031h-9.3926v-8.5664zm232.5 7.0098v6.918h6.1387v-6.918h-6.1387zm-204.5 16.336c-0.63276 0-1.2028 0.10909-1.709 0.32422-0.49356 0.21514-0.91713 0.50604-1.2715 0.87305-0.34169 0.35435-0.609 0.77792-0.79883 1.2715-0.17718 0.49356-0.26562 1.0125-0.26562 1.5566v0.60742h-1.3086v1.9355h1.3086v7.4805h2.5449v-7.4805h2.791v7.4805h2.543v-9.416h-5.334v-0.70312c1e-6 -0.46825 0.13267-0.88003 0.39844-1.2344 0.27842-0.35435 0.702-0.53125 1.2715-0.53125 0.4556 0 0.90472 0.088441 1.3477 0.26562 0.44294 0.17718 0.82916 0.41205 1.1582 0.70312l1.0059-1.8984c-0.53152-0.35434-1.1015-0.64524-1.709-0.87305-0.5948-0.24045-1.2513-0.36133-1.9727-0.36133zm37.244 0.19141v2.5234h2.543v-2.5234h-2.543zm60.348 0v11.561c0 0.78464 0.21425 1.392 0.64453 1.8223 0.44294 0.41763 1.0621 0.625 1.8594 0.625 0.367 0 0.77878-0.04422 1.2344-0.13281 0.45559-0.0886 0.85557-0.2144 1.1973-0.37891l-0.3418-1.9356c-0.16452 0.07595-0.34337 0.13884-0.5332 0.18946-0.17718 0.05062-0.34033 0.07617-0.49219 0.07617-0.32903 0-0.58258-0.10221-0.75977-0.30469-0.17718-0.20248-0.26562-0.48651-0.26562-0.85351v-10.668h-2.543zm-132.07 0.30273c-1.0504 0-1.986 0.19558-2.8086 0.58789-0.8226 0.39232-1.5184 0.9063-2.0879 1.5391-0.56949 0.63277-1.0068 1.3541-1.3105 2.1641-0.29107 0.79729-0.43555 1.6071-0.43555 2.4297 0 0.86056 0.15823 1.7077 0.47461 2.543 0.32904 0.8226 0.77817 1.5626 1.3477 2.2207 0.58215 0.64542 1.2711 1.1712 2.0684 1.5762s1.6769 0.60742 2.6387 0.60742c0.54418 0 1.1004-0.06977 1.6699-0.20898 0.56949-0.13921 1.1021-0.34166 1.5957-0.60742 0.50622-0.26577 0.95534-0.5891 1.3477-0.96876 0.40498-0.39231 0.71456-0.84144 0.92969-1.3476l-2.1445-1.2324c-0.15186 0.367-0.35431 0.6815-0.60742 0.94726-0.2531 0.25312-0.53221 0.46245-0.83594 0.62696-0.29107 0.16451-0.60065 0.28538-0.92969 0.36132-0.32904 0.07595-0.64549 0.11329-0.94922 0.11329-0.58215 0-1.1197-0.1258-1.6133-0.37891-0.4809-0.25311-0.89956-0.58824-1.2539-1.0059-0.34169-0.41763-0.60704-0.89918-0.79688-1.4434-0.18983-0.55684-0.28516-1.1318-0.28516-1.7266 0-0.53153 0.083537-1.0642 0.24805-1.5957 0.16452-0.54418 0.40432-1.0257 0.7207-1.4434 0.32904-0.43028 0.73394-0.7772 1.2148-1.043 0.49356-0.26576 1.0704-0.39844 1.7285-0.39844 0.30373 0 0.6133 0.037338 0.92969 0.11328 0.31638 0.063269 0.61908 0.1704 0.91016 0.32227 0.29107 0.15186 0.5633 0.36119 0.81641 0.62695 0.2531 0.25311 0.4693 0.56956 0.64648 0.94922l2.0117-1.3848c-0.44294-0.87322-1.1201-1.5828-2.0312-2.127-0.89853-0.54418-1.9688-0.81641-3.209-0.81641zm11.543 3.4355c-0.80994 0-1.5382 0.13955-2.1836 0.41797s-1.1967 0.65777-1.6523 1.1387c-0.44294 0.46825-0.78298 1.0127-1.0234 1.6328-0.24045 0.62011-0.36133 1.2786-0.36133 1.9746 0 0.68339 0.12087 1.335 0.36133 1.9551 0.24045 0.62011 0.5805 1.1714 1.0234 1.6523 0.4556 0.46825 1.0069 0.84073 1.6523 1.1191 0.64542 0.27842 1.3737 0.41797 2.1836 0.41797 0.80994 0 1.5362-0.13955 2.1816-0.41797 0.64542-0.27841 1.1899-0.65089 1.6328-1.1191 0.44294-0.4809 0.78494-1.0322 1.0254-1.6523 0.24045-0.62011 0.36133-1.2717 0.36133-1.9551 0-0.69604-0.12088-1.3545-0.36133-1.9746-0.24045-0.62011-0.58738-1.1646-1.043-1.6328-0.44294-0.4809-0.98739-0.86025-1.6328-1.1387-0.63277-0.27842-1.3541-0.41797-2.1641-0.41797zm13.154 0c-0.87322 0-1.6575 0.1769-2.3535 0.53125-0.69604 0.35435-1.2267 0.8477-1.5938 1.4805v-1.8398h-2.2969v9.9473h2.543v-5.8086c0.088584-0.30373 0.22814-0.58283 0.41797-0.83594 0.18982-0.2531 0.39915-0.4693 0.62695-0.64649 0.24045-0.18983 0.49205-0.3343 0.75781-0.43554 0.26576-0.10124 0.52619-0.15235 0.7793-0.15235 0.49356 0 0.87979 0.18378 1.1582 0.55079 0.27842 0.367 0.41602 0.9488 0.41602 1.7461v5.582h2.5449v-6.209c0-0.48091-0.044221-0.95558-0.13281-1.4238-0.075941-0.46825-0.22237-0.88495-0.4375-1.252-0.21514-0.36699-0.51784-0.66477-0.91016-0.89258-0.39232-0.2278-0.89942-0.3418-1.5195-0.3418zm19.951 0c-0.68339 0-1.3094 0.13268-1.8789 0.39844-0.56949 0.26576-1.056 0.63331-1.4609 1.1016-0.40496 0.46825-0.72142 1.0127-0.94922 1.6328-0.22781 0.62011-0.3418 1.2904-0.3418 2.0117 0 0.68339 0.10714 1.33 0.32227 1.9375 0.21514 0.60746 0.51784 1.145 0.91015 1.6133 0.40497 0.45559 0.87965 0.81627 1.4238 1.082s1.1515 0.39844 1.8223 0.39844c0.68338 0 1.3232-0.15135 1.918-0.45508 0.5948-0.31638 1.0577-0.76059 1.3867-1.3301v1.2539c0 0.4809-0.08353 0.8976-0.24804 1.252-0.15187 0.35434-0.36612 0.64525-0.64453 0.87305-0.27842 0.2278-0.60175 0.3929-0.96875 0.49414-0.35435 0.11389-0.72683 0.16992-1.1191 0.16992-0.64543 0-1.2596-0.13267-1.8418-0.39843-0.56949-0.26577-1.0442-0.63137-1.4238-1.0996l-1.3867 1.3476c0.53153 0.65808 1.1644 1.1632 1.8984 1.5176 0.74667 0.36701 1.6656 0.55078 2.7539 0.55078 0.79728 0 1.5304-0.10713 2.2012-0.32226 0.68339-0.21514 1.2652-0.52472 1.7461-0.92969 0.49356-0.40497 0.87979-0.90028 1.1582-1.4824 0.27842-0.58215 0.41797-1.2386 0.41797-1.9727v-9.4727h-2.2207v1.7461c-0.37966-0.58215-0.86121-1.045-1.4434-1.3867-0.58214-0.35435-1.2593-0.53125-2.0312-0.53125zm35.916 0c-1.4807 0-2.8605 0.42358-4.1387 1.2715l0.7793 1.6152c0.53153-0.367 1.0504-0.64611 1.5566-0.83594 0.50622-0.18983 1.0251-0.28516 1.5566-0.28516 0.73401 0 1.2834 0.17691 1.6504 0.53125 0.37966 0.35436 0.57032 0.86146 0.57032 1.5195v0.56835c-0.32905-0.13918-0.70839-0.24632-1.1387-0.32226-0.41762-0.07594-0.84807-0.11328-1.291-0.11328-0.62011 0-1.1901 0.08158-1.709 0.24609-0.51886 0.15187-0.96799 0.36807-1.3476 0.64649-0.36702 0.27841-0.65792 0.62042-0.87305 1.0254-0.20248 0.39231-0.30469 0.82081-0.30469 1.2891 0 0.45559 0.08354 0.87425 0.24805 1.2539 0.17717 0.37966 0.41697 0.71478 0.7207 1.0059 0.30373 0.27842 0.66441 0.49955 1.082 0.66406 0.41763 0.15186 0.86676 0.22851 1.3477 0.22851 0.72136 0 1.3985-0.15135 2.0312-0.45507 0.63277-0.30373 1.1704-0.74794 1.6133-1.3301l0.05664 0.55078c0.06328 0.35436 0.2215 0.63838 0.47461 0.85351 0.26576 0.21513 0.64019 0.32422 1.1211 0.32422 0.31638 0 0.68885-0.04422 1.1191-0.13281v-2.1641c-0.21515-0.01268-0.37337-0.07752-0.47461-0.19141-0.0886-0.1139-0.13282-0.3026-0.13282-0.56836v-3.0938c0-1.3288-0.39802-2.3411-1.1953-3.0371-0.78463-0.7087-1.8922-1.0645-3.3223-1.0645zm12.889 0c-0.8226 0-1.5558 0.1769-2.2012 0.53125-0.63277 0.3417-1.133 0.83505-1.5 1.4805v-1.8398h-2.2969v9.9473h2.5449v-5.8086c0.18983-0.62012 0.50629-1.1203 0.94922-1.5 0.4556-0.37966 0.92832-0.57032 1.4219-0.57032 0.4809 0 0.85533 0.18378 1.1211 0.55079 0.27842 0.367 0.41797 0.9488 0.41797 1.7461v5.582h2.543v-5.791c0.18983-0.62011 0.50628-1.1203 0.94922-1.5 0.44293-0.39231 0.91761-0.58789 1.4238-0.58789 0.4809 0 0.85337 0.18378 1.1191 0.55079 0.27841 0.367 0.41796 0.9488 0.41796 1.7461v5.582h2.5449v-6.209c0-0.48091-0.04422-0.95558-0.13282-1.4238-0.07594-0.46825-0.22237-0.88495-0.4375-1.252-0.21514-0.36699-0.51784-0.66477-0.91015-0.89258-0.39232-0.2278-0.89255-0.3418-1.5-0.3418-0.79729 0-1.5068 0.18378-2.127 0.55078-0.62011 0.35435-1.1321 0.87325-1.5371 1.5566-0.12656-0.5948-0.41746-1.095-0.87305-1.5-0.4556-0.40497-1.1022-0.60742-1.9375-0.60742zm16.27 0c-0.80994 0-1.5382 0.13955-2.1836 0.41797-0.64543 0.27842-1.1948 0.65777-1.6504 1.1387-0.44294 0.46825-0.78494 1.0127-1.0254 1.6328-0.24045 0.62011-0.36132 1.2786-0.36132 1.9746 0 0.68339 0.12087 1.335 0.36132 1.9551 0.24046 0.62011 0.58246 1.1714 1.0254 1.6523 0.45559 0.46825 1.005 0.84073 1.6504 1.1191 0.64542 0.27842 1.3736 0.41797 2.1836 0.41797s1.5382-0.13955 2.1836-0.41797c0.64543-0.27841 1.1879-0.65089 1.6309-1.1191 0.44294-0.4809 0.78494-1.0322 1.0254-1.6523 0.24046-0.62011 0.36133-1.2717 0.36133-1.9551 0-0.69604-0.12087-1.3545-0.36133-1.9746-0.24045-0.62011-0.58737-1.1646-1.043-1.6328-0.44293-0.4809-0.98739-0.86025-1.6328-1.1387-0.63276-0.27842-1.3541-0.41797-2.1641-0.41797zm15.471 0c-1.4807 0-2.8605 0.42358-4.1387 1.2715l0.7793 1.6152c0.53152-0.367 1.0504-0.64611 1.5566-0.83594 0.50621-0.18983 1.0251-0.28516 1.5566-0.28516 0.73401 0 1.2834 0.17691 1.6504 0.53125 0.37966 0.35436 0.57031 0.86146 0.57031 1.5195v0.56835c-0.32904-0.13918-0.70839-0.24632-1.1387-0.32226-0.41763-0.07594-0.84808-0.11328-1.291-0.11328-0.62011 0-1.1901 0.08158-1.709 0.24609-0.51887 0.15187-0.968 0.36807-1.3477 0.64649-0.36701 0.27841-0.65791 0.62042-0.87304 1.0254-0.20249 0.39231-0.30469 0.82081-0.30469 1.2891 0 0.45559 0.08354 0.87425 0.24805 1.2539 0.17717 0.37966 0.41697 0.71478 0.7207 1.0059 0.30373 0.27842 0.66441 0.49955 1.082 0.66406 0.41763 0.15186 0.86675 0.22851 1.3477 0.22851 0.72135 0 1.3985-0.15135 2.0312-0.45507 0.63277-0.30373 1.1703-0.74794 1.6133-1.3301l0.05664 0.55078c0.06328 0.35436 0.2215 0.63838 0.47461 0.85351 0.26576 0.21513 0.64019 0.32422 1.1211 0.32422 0.31638 0 0.68886-0.04422 1.1191-0.13281v-2.1641c-0.21514-0.01268-0.37337-0.07752-0.47461-0.19141-0.08859-0.1139-0.13281-0.3026-0.13281-0.56836v-3.0938c0-1.3288-0.39803-2.3411-1.1953-3.0371-0.78463-0.7087-1.8922-1.0645-3.3223-1.0645zm17.521 0c-0.80994 0-1.5382 0.13955-2.1836 0.41797-0.64542 0.27842-1.1948 0.65285-1.6504 1.1211s-0.80447 1.0107-1.0449 1.6309-0.36133 1.2786-0.36133 1.9746c0 0.68339 0.12088 1.3418 0.36133 1.9746 0.25311 0.62011 0.60691 1.1714 1.0625 1.6523 0.45559 0.46825 1.0069 0.84073 1.6523 1.1191 0.64543 0.27842 1.3737 0.41797 2.1836 0.41797 1.101 0 2.0435-0.24175 2.8281-0.72265 0.78464-0.48091 1.3478-1.1001 1.6895-1.8594l-2.4863-0.75976c-0.15187 0.32902-0.42409 0.60813-0.81641 0.83593-0.37966 0.22781-0.79831 0.3418-1.2539 0.3418-0.35436 0-0.68948-0.06977-1.0059-0.20898-0.31639-0.15187-0.59353-0.36119-0.83399-0.62696-0.22779-0.26576-0.41157-0.58221-0.55078-0.94922-0.13921-0.367-0.20898-0.7719-0.20898-1.2148s0.06289-0.84784 0.18945-1.2148c0.1392-0.36701 0.32298-0.67658 0.55078-0.92969 0.24045-0.26576 0.5176-0.46821 0.83398-0.60742 0.31639-0.15186 0.65839-0.22852 1.0254-0.22852 0.43028 0 0.82338 0.10221 1.1777 0.30469 0.35436 0.18983 0.63838 0.46698 0.85352 0.83398l2.4863-0.75781c-0.37965-0.75932-0.95458-1.3735-1.7266-1.8418-0.75932-0.46825-1.6831-0.70312-2.7715-0.70312zm24.07 0c-0.87322 0-1.6575 0.1769-2.3535 0.53125-0.69604 0.35435-1.2287 0.8477-1.5957 1.4805v-1.8398h-2.2969v9.9473h2.5449v-5.8086c0.08858-0.30373 0.22813-0.58283 0.41797-0.83594 0.18982-0.2531 0.39719-0.4693 0.625-0.64649 0.24045-0.18983 0.494-0.3343 0.75976-0.43554s0.52619-0.15235 0.7793-0.15235c0.49356 0 0.87978 0.18378 1.1582 0.55079 0.27842 0.367 0.41602 0.9488 0.41602 1.7461v5.582h2.5449v-6.209c0-0.48091-0.04422-0.95558-0.13281-1.4238-0.07595-0.46825-0.22237-0.88495-0.4375-1.252-0.21514-0.36699-0.51784-0.66477-0.91016-0.89258-0.39231-0.2278-0.89942-0.3418-1.5195-0.3418zm9.8516 0c-0.80994 0-1.5431 0.13955-2.2012 0.41797-0.64542 0.27842-1.1968 0.65777-1.6523 1.1387-0.4556 0.46825-0.80252 1.0196-1.043 1.6523-0.24046 0.62012-0.36133 1.2835-0.36133 1.9922 0 0.68339 0.12087 1.335 0.36133 1.9551 0.2531 0.62011 0.60691 1.1646 1.0625 1.6328s1.0069 0.84268 1.6523 1.1211c0.64542 0.26576 1.3668 0.39843 2.1641 0.39843 1.1137 0 2.068-0.24175 2.8652-0.72265 0.80994-0.49356 1.3986-1.1196 1.7656-1.8789l-2.1816-0.60742c-0.16452 0.40497-0.47605 0.73518-0.93164 0.98828-0.44294 0.24045-0.91761 0.35938-1.4238 0.35937-0.32903 0-0.64548-0.05603-0.94921-0.16992-0.30373-0.1139-0.57596-0.27901-0.81641-0.49414-0.24045-0.21514-0.43603-0.47361-0.58789-0.77734s-0.24719-0.65261-0.28516-1.0449h7.6895c0.02529-0.10125 0.0371-0.22705 0.0371-0.37891 0.0126-0.15187 0.01954-0.3101 0.01954-0.47461 0-0.67073-0.12088-1.3174-0.36133-1.9375-0.2278-0.62011-0.5698-1.1626-1.0254-1.6309-0.44294-0.46825-0.98739-0.84268-1.6328-1.1211-0.63276-0.27842-1.3541-0.41797-2.1641-0.41797zm-106.85 0.039063c-0.26577 0-0.54487 0.056032-0.83594 0.16992-0.27842 0.10125-0.55752 0.2526-0.83594 0.45508-0.27841 0.20248-0.53689 0.44424-0.77734 0.72266-0.24045 0.26576-0.44977 0.56846-0.62696 0.91015v-2.125h-2.334v9.9473h2.543v-6.0176c0.26576-0.56949 0.70309-0.99502 1.3106-1.2734 0.60745-0.29113 1.2964-0.44248 2.0684-0.45507v-2.3164c-0.06326-0.012598-0.13304-0.017578-0.20898-0.017578h-0.30273zm-17.238 0.13281v6.2266c0 1.2908 0.26731 2.2638 0.79883 2.9219 0.53153 0.65808 1.3089 0.98828 2.334 0.98828 0.83525 0 1.6008-0.17197 2.2969-0.51367 0.69605-0.34169 1.266-0.85372 1.709-1.5371l0.05664 0.79688c0.05062 0.36701 0.21572 0.65791 0.49414 0.87304 0.29107 0.20249 0.66355 0.30469 1.1191 0.30469 0.13922 0 0.29057-0.00693 0.45508-0.01953 0.17717-0.01265 0.39338-0.04313 0.64648-0.09375v-2.1641c-0.21514-0.01268-0.37337-0.07752-0.47461-0.19141-0.08859-0.1139-0.13281-0.3026-0.13281-0.56836v-7.0234h-2.5449v6.168c-0.29107 0.60746-0.67043 1.0635-1.1387 1.3672-0.4556 0.29107-0.93027 0.4375-1.4238 0.4375-1.101 0-1.6504-0.76558-1.6504-2.2969v-5.6758h-2.5449zm19.174 0v9.9473h2.543v-9.9473h-2.543zm76.994 0v6.2266c0 1.2908 0.26731 2.2638 0.79883 2.9219 0.53153 0.65808 1.3089 0.98828 2.334 0.98828 0.83525 0 1.6008-0.17197 2.2969-0.51367 0.69604-0.34169 1.266-0.85372 1.709-1.5371l0.05664 0.79688c0.05062 0.36701 0.21572 0.65791 0.49414 0.87304 0.29107 0.20249 0.66355 0.30469 1.1191 0.30469 0.13922 0 0.29057-0.00693 0.45508-0.01953 0.17717-0.01265 0.39337-0.04313 0.64648-0.09375v-2.1641c-0.21514-0.01268-0.37337-0.07752-0.47461-0.19141-0.08859-0.1139-0.13281-0.3026-0.13281-0.56836v-7.0234h-2.5449v6.168c-0.29108 0.60746-0.67043 1.0635-1.1387 1.3672-0.45559 0.29107-0.93026 0.4375-1.4238 0.4375-1.101 0-1.6504-0.76558-1.6504-2.2969v-5.6758h-2.5449zm27.887 1.6699c0.69605 0 1.2847 0.228 1.7656 0.68359 0.49356 0.44294 0.77071 1.0385 0.83398 1.7852h-5.1621c0.0253-0.36701 0.10688-0.70409 0.2461-1.0078 0.15185-0.30374 0.3425-0.56221 0.57031-0.77734 0.2278-0.21515 0.48627-0.38025 0.77734-0.49414 0.30373-0.12656 0.62706-0.18945 0.96875-0.18945zm-165.06 0.32226c0.367 0 0.70901 0.07666 1.0254 0.22852 0.31638 0.13921 0.5886 0.34166 0.81641 0.60742 0.24044 0.26576 0.42226 0.58221 0.54883 0.94922 0.13921 0.367 0.20898 0.76503 0.20898 1.1953 0 0.44294-0.069772 0.84784-0.20898 1.2148-0.12655 0.36701-0.30838 0.68346-0.54883 0.94922-0.2278 0.26577-0.50002 0.47509-0.81641 0.62696-0.31638 0.13921-0.65838 0.20898-1.0254 0.20898-0.36701 0-0.70901-0.06977-1.0254-0.20898-0.31638-0.15187-0.59548-0.36119-0.83594-0.62696-0.22779-0.26576-0.41157-0.57533-0.55078-0.92968-0.12656-0.36701-0.18945-0.77191-0.18945-1.2148 0-0.43028 0.06289-0.82831 0.18945-1.1953 0.1392-0.36701 0.32298-0.68346 0.55078-0.94922 0.24045-0.26577 0.51955-0.47509 0.83594-0.62695 0.31638-0.15186 0.65838-0.22852 1.0254-0.22852zm33.656 0c0.53153 0 1.0386 0.1769 1.5195 0.53125 0.49355 0.35435 0.85423 0.82411 1.082 1.4062v2.373c-0.08859 0.2278-0.21634 0.44205-0.38086 0.64453-0.16453 0.20249-0.35322 0.37939-0.56835 0.53125-0.21515 0.15186-0.45002 0.27274-0.70313 0.36133s-0.51846 0.13281-0.79687 0.13281c-0.39232 0-0.753-0.07665-1.082-0.22851-0.32904-0.15187-0.61994-0.3612-0.87304-0.62696-0.24045-0.26576-0.4311-0.57534-0.57031-0.92969-0.13922-0.35435-0.20899-0.7337-0.20899-1.1387 0-0.39231 0.05799-0.77166 0.17188-1.1387 0.12654-0.367 0.30344-0.69033 0.53125-0.96875 0.22779-0.29108 0.50002-0.51908 0.8164-0.68359 0.31639-0.17719 0.67019-0.26563 1.0625-0.26563zm64.523 0c0.367 0 0.70901 0.07666 1.0254 0.22852 0.31637 0.13921 0.5886 0.34166 0.81641 0.60742 0.24044 0.26576 0.42421 0.58221 0.55078 0.94922 0.13921 0.367 0.20703 0.76503 0.20703 1.1953 0 0.44294-0.06782 0.84784-0.20703 1.2148-0.12655 0.36701-0.31033 0.68346-0.55078 0.94922-0.2278 0.26577-0.50003 0.47509-0.81641 0.62696-0.31638 0.13921-0.65839 0.20898-1.0254 0.20898-0.36701 0-0.70901-0.06977-1.0254-0.20898-0.31638-0.15187-0.59549-0.36119-0.83594-0.62696-0.22779-0.26576-0.40961-0.57533-0.54883-0.92968-0.12656-0.36701-0.1914-0.77191-0.1914-1.2148 0-0.43028 0.06484-0.82831 0.1914-1.1953 0.1392-0.36701 0.32103-0.68346 0.54883-0.94922 0.24045-0.26577 0.51955-0.47509 0.83594-0.62695 0.31638-0.15186 0.65838-0.22852 1.0254-0.22852zm-29.195 3.209c0.32903 0 0.66908 0.03733 1.0234 0.11328 0.35435 0.06329 0.68456 0.15173 0.98829 0.26562v1.1387c0 0.26578-0.13956 0.50753-0.41797 0.72266-0.21514 0.25311-0.51784 0.45556-0.91016 0.60742-0.37966 0.15186-0.78651 0.22656-1.2168 0.22656-0.4809 0-0.8858-0.13759-1.2148-0.41601-0.32904-0.29107-0.49219-0.65175-0.49219-1.082 0-0.45559 0.20737-0.83002 0.625-1.1211 0.41763-0.30372 0.95716-0.45507 1.6152-0.45507zm44.629 0c0.32904 0 0.67104 0.03733 1.0254 0.11328 0.35435 0.06329 0.6826 0.15173 0.98633 0.26562v1.1387c0 0.26578-0.13955 0.50753-0.41797 0.72266-0.21514 0.25311-0.51784 0.45556-0.91015 0.60742-0.37966 0.15186-0.78457 0.22656-1.2148 0.22656-0.4809 0-0.8858-0.13759-1.2148-0.41601-0.32904-0.29107-0.49414-0.65175-0.49414-1.082 0-0.45559 0.20932-0.83002 0.62695-1.1211 0.41763-0.30372 0.9552-0.45507 1.6133-0.45507zm-103.89 15.578v2.5254h2.543v-2.5254h-2.543zm83.031 0v2.5254h2.5449v-2.5254h-2.5449zm27.811 0v2.5254h2.543v-2.5254h-2.543zm16.592 0v5.6582c-0.32905-0.56948-0.79192-1.0324-1.3867-1.3867-0.58215-0.35435-1.2406-0.53125-1.9746-0.53125-0.64542 0-1.239 0.13267-1.7832 0.39843s-1.0139 0.63332-1.4062 1.1016c-0.3923 0.46824-0.70188 1.0127-0.92968 1.6328-0.21513 0.62011-0.32227 1.2904-0.32227 2.0117 0 0.72135 0.11399 1.3985 0.3418 2.0312 0.24045 0.62011 0.5687 1.1646 0.98633 1.6328 0.41762 0.46825 0.91785 0.83384 1.5 1.0996 0.58214 0.26576 1.215 0.40039 1.8984 0.40039s1.335-0.15823 1.9551-0.47461c0.63277-0.32904 1.133-0.81059 1.5-1.4434l0.05664 0.62695c0.03797 0.367 0.20307 0.66282 0.49414 0.89063 0.29108 0.2278 0.66355 0.3418 1.1191 0.3418 0.27842 0 0.6391-0.04422 1.082-0.13282v-2.1641c-0.21514-0.01267-0.36649-0.07556-0.45508-0.18945-0.0886-0.1139-0.13282-0.3026-0.13282-0.56836v-10.936h-2.543zm5.0488 0v2.5254h2.543v-2.5254h-2.543zm9.3965 0v13.857h2.2207v-1.7266c0.3417 0.5948 0.8095 1.0626 1.4043 1.4043 0.5948 0.34169 1.2719 0.51367 2.0312 0.51367 0.65808 0 1.2723-0.13463 1.8418-0.40039 0.56949-0.26577 1.0628-0.62644 1.4805-1.082 0.41762-0.46825 0.74095-1.0108 0.96875-1.6309 0.24046-0.62011 0.36133-1.2923 0.36133-2.0137 0-0.69605-0.10909-1.3594-0.32422-1.9922-0.20248-0.63277-0.49831-1.1841-0.89062-1.6523-0.37966-0.46825-0.83566-0.84073-1.3672-1.1192-0.53152-0.27841-1.1202-0.41796-1.7656-0.41796-0.77198 0-1.4491 0.17002-2.0312 0.51171-0.56949 0.32904-1.0324 0.7988-1.3867 1.4062v-5.6582h-2.543zm-85.822 0.68359v3.2266h-1.3105v1.957h1.3105v5.7129c0 0.44294 0.06977 0.82229 0.20899 1.1387 0.1392 0.30373 0.32297 0.55728 0.55078 0.75977 0.24045 0.18982 0.51268 0.32937 0.8164 0.41797 0.31639 0.08859 0.65152 0.13281 1.0059 0.13281 0.54419 0 1.0631-0.07666 1.5566-0.22852 0.49356-0.15186 0.91026-0.30321 1.252-0.45508l-0.51172-2.0117c-0.15187 0.06326-0.35432 0.13797-0.60742 0.22656-0.25311 0.08859-0.51354 0.13281-0.7793 0.13281s-0.49181-0.06977-0.68164-0.20898c-0.17718-0.15187-0.26758-0.40347-0.26758-0.75782v-4.8594h2.0898v-1.957h-2.0898v-3.2266h-2.543zm-6.4922 3.0371c-0.55684 0-1.0757 0.07666-1.5566 0.22852-0.46824 0.15186-0.88002 0.37299-1.2344 0.66406-0.35435 0.27842-0.6315 0.62042-0.83398 1.0254-0.18984 0.40497-0.28516 0.86098-0.28516 1.3672 0 0.37966 0.06289 0.70791 0.18945 0.98633 0.12656 0.26577 0.32901 0.50557 0.60742 0.7207 0.27842 0.2025 0.64597 0.38627 1.1016 0.55078 0.45559 0.16451 1.005 0.33649 1.6504 0.51368 0.77197 0.21515 1.3302 0.40384 1.6719 0.56835 0.3417 0.16452 0.51172 0.42495 0.51172 0.7793s-0.14447 0.62657-0.43555 0.81641c-0.29107 0.18983-0.69105 0.2832-1.1973 0.2832-0.56949 0-1.1444-0.10713-1.7266-0.32226-0.5695-0.2278-1.1582-0.55605-1.7656-0.98633l-0.94922 1.5938c0.56949 0.49356 1.2535 0.8729 2.0508 1.1387 0.79729 0.26576 1.612 0.40039 2.4473 0.40039 1.2402 0 2.222-0.2791 2.9434-0.83594 0.72135-0.56949 1.082-1.3419 1.082-2.3164 0-0.41763-0.07665-0.77143-0.22852-1.0625-0.1392-0.30372-0.36721-0.56907-0.68359-0.79688-0.30373-0.22779-0.70175-0.43024-1.1953-0.60742-0.48091-0.17717-1.0627-0.35602-1.7461-0.5332-0.367-0.08857-0.67658-0.17015-0.92968-0.2461-0.24046-0.08859-0.43799-0.17703-0.58985-0.26562-0.15186-0.0886-0.26585-0.18885-0.34179-0.30274-0.06327-0.11389-0.09375-0.26031-0.09375-0.4375 0-0.3923 0.14447-0.67633 0.43554-0.85351 0.29108-0.17719 0.65175-0.26563 1.082-0.26563 0.46825 0 0.93801 0.08844 1.4062 0.26563 0.48091 0.17717 0.97426 0.45432 1.4805 0.83398l1.0254-1.5371c-0.54418-0.48091-1.1466-0.82979-1.8047-1.0449-0.64543-0.21513-1.3412-0.32227-2.0879-0.32227zm118.76 0c-0.55684 0-1.0757 0.07666-1.5566 0.22852-0.46825 0.15186-0.88003 0.37299-1.2344 0.66406-0.35435 0.27842-0.6315 0.62042-0.83398 1.0254-0.18984 0.40497-0.28516 0.86098-0.28516 1.3672 0 0.37966 0.06289 0.70791 0.18945 0.98633 0.12656 0.26577 0.32901 0.50557 0.60743 0.7207 0.27841 0.2025 0.64596 0.38627 1.1016 0.55078 0.45559 0.16451 1.005 0.33649 1.6504 0.51368 0.77198 0.21515 1.3302 0.40384 1.6719 0.56835 0.3417 0.16452 0.51172 0.42495 0.51172 0.7793s-0.14642 0.62657-0.4375 0.81641c-0.29107 0.18983-0.68909 0.2832-1.1953 0.2832-0.56949 0-1.1444-0.10713-1.7266-0.32226-0.56949-0.2278-1.1582-0.55605-1.7656-0.98633l-0.94922 1.5938c0.5695 0.49356 1.2535 0.8729 2.0508 1.1387 0.79728 0.26576 1.612 0.40039 2.4473 0.40039 1.2402 0 2.222-0.2791 2.9434-0.83594 0.72136-0.56949 1.082-1.3419 1.082-2.3164 0-0.41763-0.07665-0.77143-0.22851-1.0625-0.13921-0.30372-0.36722-0.56907-0.6836-0.79688-0.30373-0.22779-0.70175-0.43024-1.1953-0.60742-0.4809-0.17717-1.0627-0.35602-1.7461-0.5332-0.36701-0.08857-0.67658-0.17015-0.92969-0.2461-0.24045-0.08859-0.43798-0.17703-0.58985-0.26562-0.15186-0.0886-0.26585-0.18885-0.34179-0.30274-0.06327-0.11389-0.09375-0.26031-0.09375-0.4375 0-0.3923 0.14447-0.67633 0.43554-0.85351 0.29108-0.17719 0.65175-0.26563 1.082-0.26563 0.46824 0 0.93604 0.08844 1.4043 0.26563 0.48091 0.17717 0.97621 0.45432 1.4824 0.83398l1.0234-1.5371c-0.54418-0.48091-1.1446-0.82979-1.8027-1.0449-0.64542-0.21513-1.3412-0.32227-2.0879-0.32227zm-157.48 0.01954c-0.8226 0-1.5577 0.1769-2.2031 0.53125-0.63277 0.34169-1.133 0.83504-1.5 1.4805v-1.8418h-2.2969v9.9473h2.5449v-5.8086c0.18983-0.62011 0.50628-1.1203 0.94922-1.5 0.45559-0.37966 0.93027-0.56836 1.4238-0.56836 0.4809 0 0.85338 0.18378 1.1191 0.55078 0.27842 0.36701 0.41797 0.94881 0.41797 1.7461v5.5801h2.543v-5.7891c0.18983-0.62011 0.50628-1.1203 0.94922-1.5 0.44294-0.39232 0.91761-0.58789 1.4238-0.58789 0.4809 0 0.85533 0.18378 1.1211 0.55078 0.27842 0.36701 0.41797 0.94881 0.41797 1.7461v5.5801h2.543v-6.207c0-0.4809-0.04422-0.95558-0.13281-1.4238-0.07595-0.46824-0.22237-0.88494-0.4375-1.252-0.21514-0.367-0.51784-0.66477-0.91016-0.89258-0.39232-0.2278-0.89254-0.34179-1.5-0.34179-0.79729 0-1.5068 0.18377-2.127 0.55078-0.62011 0.35435-1.1321 0.87325-1.5371 1.5566-0.12655-0.5948-0.41746-1.095-0.87305-1.5-0.45559-0.40497-1.1003-0.60742-1.9355-0.60742zm17.33 0c-0.75932 0-1.4296 0.17002-2.0117 0.51171-0.58214 0.32904-1.0568 0.78505-1.4238 1.3672v-1.709h-2.2207v13.992h2.5449v-5.791c0.32903 0.5948 0.78308 1.0695 1.3652 1.4238 0.58215 0.34169 1.2662 0.51367 2.0508 0.51367 0.63277 0 1.2146-0.13463 1.7461-0.40039 0.53153-0.26577 0.98753-0.63136 1.3672-1.0996 0.39233-0.46825 0.69503-1.0196 0.91016-1.6523 0.21513-0.63277 0.32422-1.3099 0.32422-2.0312 0-0.69605-0.12088-1.3545-0.36133-1.9746-0.2278-0.63277-0.55113-1.1753-0.96875-1.6309-0.40497-0.46825-0.89145-0.8358-1.4609-1.1016-0.56949-0.27841-1.1906-0.41796-1.8613-0.41796zm10.973 0c-0.80994 0-1.5362 0.13955-2.1816 0.41796-0.64542 0.27842-1.1968 0.65777-1.6523 1.1387-0.44294 0.46824-0.78494 1.0127-1.0254 1.6328-0.24045 0.62011-0.36132 1.2786-0.36132 1.9746 0 0.68339 0.12087 1.335 0.36132 1.9551 0.24046 0.62011 0.58246 1.1695 1.0254 1.6504 0.45559 0.46825 1.0069 0.84267 1.6523 1.1211s1.3717 0.41797 2.1816 0.41797 1.5382-0.13955 2.1836-0.41797c0.64543-0.27842 1.1899-0.65284 1.6328-1.1211 0.44293-0.48091 0.78493-1.0303 1.0254-1.6504 0.24045-0.62012 0.35937-1.2717 0.35937-1.9551 0-0.69604-0.11892-1.3545-0.35937-1.9746s-0.58933-1.1646-1.0449-1.6328c-0.44294-0.48091-0.9874-0.86026-1.6328-1.1387-0.63276-0.27841-1.3541-0.41796-2.1641-0.41796zm27.641 0c-1.4807 0-2.8605 0.42357-4.1387 1.2715l0.77735 1.6133c0.53152-0.367 1.0504-0.64415 1.5566-0.83398 0.50621-0.18984 1.0251-0.28516 1.5566-0.28516 0.73401 0 1.2853 0.1769 1.6523 0.53125 0.37966 0.35435 0.56836 0.86146 0.56836 1.5195v0.56836c-0.32904-0.13919-0.70839-0.24632-1.1387-0.32226-0.41763-0.07595-0.84808-0.11329-1.291-0.11329-0.62011 0-1.1882 0.08159-1.707 0.2461-0.51887 0.15186-0.96995 0.36611-1.3496 0.64453-0.36701 0.27842-0.65791 0.62042-0.87304 1.0254-0.20249 0.39231-0.30274 0.82277-0.30274 1.291 0 0.45559 0.08159 0.87424 0.2461 1.2539 0.17717 0.37966 0.41892 0.71479 0.72265 1.0059 0.30373 0.27843 0.66441 0.49955 1.082 0.66406 0.41763 0.15187 0.86675 0.22852 1.3477 0.22852 0.72135 0 1.3985-0.1533 2.0312-0.45703s1.1704-0.74598 1.6133-1.3281l0.05664 0.55078c0.06328 0.35436 0.2215 0.63839 0.47461 0.85352 0.26576 0.21513 0.63824 0.32227 1.1191 0.32227 0.31638 0 0.69081-0.04422 1.1211-0.13282v-2.1641c-0.21514-0.01267-0.37336-0.07556-0.4746-0.18945-0.0886-0.1139-0.13282-0.3026-0.13282-0.56836v-3.0957c0-1.3288-0.39998-2.3411-1.1973-3.0371-0.78463-0.7087-1.8903-1.0625-3.3203-1.0625zm25.684 0c-0.80994 0-1.5382 0.13955-2.1836 0.41796-0.64542 0.27842-1.1968 0.65777-1.6523 1.1387-0.44293 0.46824-0.78298 1.0127-1.0234 1.6328-0.24045 0.62011-0.36132 1.2786-0.36132 1.9746 0 0.68339 0.12087 1.335 0.36132 1.9551 0.24045 0.62011 0.5805 1.1695 1.0234 1.6504 0.45559 0.46825 1.0069 0.84267 1.6523 1.1211 0.64543 0.27842 1.3737 0.41797 2.1836 0.41797s1.5362-0.13955 2.1816-0.41797 1.1899-0.65284 1.6328-1.1211c0.44294-0.48091 0.78494-1.0303 1.0254-1.6504 0.24046-0.62012 0.36133-1.2717 0.36133-1.9551 0-0.69604-0.12087-1.3545-0.36133-1.9746-0.24045-0.62011-0.58737-1.1646-1.043-1.6328-0.44293-0.48091-0.98739-0.86026-1.6328-1.1387-0.63276-0.27841-1.3541-0.41796-2.1641-0.41796zm13.154 0c-0.87322 0-1.6575 0.1769-2.3535 0.53125-0.69604 0.35435-1.2268 0.8477-1.5938 1.4805v-1.8418h-2.2969v9.9473h2.543v-5.8086c0.08859-0.30373 0.22814-0.58088 0.41797-0.83398s0.3972-0.46931 0.625-0.64649c0.24045-0.18983 0.49401-0.33431 0.75977-0.43555s0.52619-0.15234 0.7793-0.15234c0.49355 0 0.87978 0.18378 1.1582 0.55078 0.27841 0.36701 0.41601 0.94881 0.41601 1.7461v5.5801h2.5449v-6.207c0-0.4809-0.04422-0.95558-0.13282-1.4238-0.07594-0.46824-0.22237-0.88494-0.4375-1.252-0.21514-0.367-0.51784-0.66477-0.91015-0.89258-0.39232-0.2278-0.89942-0.34179-1.5195-0.34179zm52.299 0c-1.4807 0-2.8605 0.42357-4.1387 1.2715l0.77735 1.6133c0.53152-0.367 1.0504-0.64415 1.5566-0.83398 0.50621-0.18984 1.0251-0.28516 1.5566-0.28516 0.73401 0 1.2853 0.1769 1.6523 0.53125 0.37966 0.35435 0.57031 0.86146 0.57031 1.5195v0.56836c-0.32903-0.13919-0.71034-0.24632-1.1406-0.32226-0.41763-0.07595-0.84613-0.11329-1.2891-0.11329-0.62012 0-1.1901 0.08159-1.709 0.2461-0.51887 0.15186-0.96799 0.36611-1.3477 0.64453-0.36701 0.27842-0.65791 0.62042-0.87304 1.0254-0.20248 0.39231-0.30469 0.82277-0.30469 1.291 0 0.45559 0.08158 0.87424 0.24609 1.2539 0.17718 0.37966 0.41893 0.71479 0.72266 1.0059 0.30373 0.27843 0.66441 0.49955 1.082 0.66406 0.41763 0.15187 0.86676 0.22852 1.3477 0.22852 0.72135 0 1.3985-0.1533 2.0312-0.45703 0.63276-0.30373 1.1703-0.74598 1.6133-1.3281l0.05664 0.55078c0.06328 0.35436 0.2215 0.63839 0.47461 0.85352 0.26576 0.21513 0.64019 0.32227 1.1211 0.32227 0.31639 0 0.68886-0.04422 1.1191-0.13282v-2.1641c-0.21514-0.01267-0.37336-0.07556-0.47461-0.18945-0.08859-0.1139-0.13281-0.3026-0.13281-0.56836v-3.0957c0-1.3288-0.39802-2.3411-1.1953-3.0371-0.78463-0.7087-1.8922-1.0625-3.3223-1.0625zm20.957 0c-0.80995 0-1.545 0.13955-2.2031 0.41796-0.64542 0.27842-1.1948 0.65777-1.6504 1.1387-0.45559 0.46824-0.80447 1.0196-1.0449 1.6523-0.24046 0.62011-0.35938 1.2835-0.35938 1.9922 0 0.68339 0.11892 1.335 0.35938 1.9551 0.2531 0.62011 0.60886 1.1646 1.0644 1.6328s1.005 0.84072 1.6504 1.1191c0.64543 0.26576 1.3668 0.40039 2.1641 0.40039 1.1137 0 2.0699-0.24175 2.8672-0.72266 0.80994-0.49356 1.3986-1.1196 1.7656-1.8789l-2.1836-0.60742c-0.16452 0.40497-0.47409 0.73322-0.92968 0.98632-0.44294 0.24046-0.91762 0.36133-1.4238 0.36133-0.32904 0-0.64549-0.05603-0.94922-0.16992-0.30373-0.11391-0.57595-0.27901-0.81641-0.49414-0.24045-0.21514-0.43603-0.47557-0.58789-0.7793s-0.24718-0.65065-0.28515-1.043h7.6875c0.02529-0.10124 0.03906-0.22899 0.03906-0.38086 0.0126-0.15187 0.01758-0.3101 0.01758-0.47461 0-0.67073-0.11893-1.3154-0.35938-1.9355-0.22779-0.62011-0.5698-1.1646-1.0254-1.6328-0.44294-0.46825-0.98739-0.84073-1.6328-1.1192-0.63277-0.27841-1.3541-0.41796-2.1641-0.41796zm-178.88 0.16992v9.9473h2.543v-9.9473h-2.543zm73.236 0v1.7852h5.3144l-5.543 6.6055v1.5566h8.3145v-1.7832h-5.5996l5.5059-6.6074v-1.5566h-7.9922zm9.7949 0v9.9473h2.5449v-9.9473h-2.5449zm27.811 0v9.9473h2.543v-9.9473h-2.543zm21.641 0v9.9473h2.543v-9.9473h-2.543zm46.355 1.6719c0.69605 0 1.2847 0.228 1.7656 0.6836 0.49356 0.44293 0.77267 1.0365 0.83594 1.7832h-5.1641c0.0253-0.36701 0.10884-0.70213 0.24805-1.0059 0.15186-0.30374 0.34055-0.56221 0.56836-0.77734 0.22779-0.21515 0.48822-0.38025 0.7793-0.49414 0.30372-0.12657 0.6251-0.18946 0.96679-0.18946zm-151.37 0.32227c0.39232 0 0.753 0.07665 1.082 0.22851 0.3417 0.15187 0.6326 0.35924 0.87305 0.625 0.2531 0.26577 0.44868 0.58222 0.58789 0.94922 0.13921 0.35435 0.20898 0.74058 0.20898 1.1582 0 0.39231-0.06288 0.77166-0.18945 1.1387-0.12654 0.367-0.30344 0.69033-0.53125 0.96875-0.2278 0.27842-0.5069 0.49955-0.83594 0.66406-0.31638 0.16451-0.6633 0.24805-1.043 0.24805-0.54418 0-1.0513-0.18378-1.5195-0.55078-0.46823-0.37967-0.81516-0.85434-1.043-1.4238v-2.3359c0.08859-0.24046 0.21439-0.46158 0.3789-0.66406 0.17719-0.20249 0.37276-0.37939 0.58789-0.53125 0.21514-0.15186 0.45002-0.26586 0.70313-0.3418 0.2531-0.08859 0.49978-0.13281 0.74023-0.13281zm11.674 0c0.367 0 0.70901 0.07665 1.0254 0.22851 0.31637 0.13921 0.5886 0.34166 0.81641 0.60743 0.24044 0.26576 0.42421 0.58221 0.55078 0.94921 0.13921 0.36701 0.20898 0.76504 0.20898 1.1953 0 0.44293-0.06977 0.84784-0.20898 1.2148-0.12655 0.36701-0.31033 0.68346-0.55078 0.94922-0.2278 0.26576-0.50003 0.47509-0.81641 0.62695-0.31638 0.13922-0.65839 0.20899-1.0254 0.20899s-0.70901-0.06977-1.0254-0.20899c-0.31638-0.15186-0.59353-0.36119-0.83399-0.62695-0.22779-0.26576-0.41156-0.57534-0.55078-0.92969-0.12656-0.367-0.18945-0.7719-0.18945-1.2148 0-0.43028 0.06289-0.83026 0.18945-1.1973 0.1392-0.367 0.32298-0.68345 0.55078-0.94922 0.24046-0.26576 0.51761-0.47313 0.83399-0.625 0.31638-0.15186 0.65839-0.22851 1.0254-0.22851zm53.324 0c0.367 0 0.70901 0.07665 1.0254 0.22851 0.31637 0.13921 0.58665 0.34166 0.81445 0.60743 0.24044 0.26576 0.42422 0.58221 0.55078 0.94921 0.13922 0.36701 0.20899 0.76504 0.20899 1.1953 0 0.44293-0.06977 0.84784-0.20899 1.2148-0.12655 0.36701-0.31032 0.68346-0.55078 0.94922-0.22779 0.26576-0.49807 0.47509-0.81445 0.62695-0.31638 0.13922-0.65839 0.20899-1.0254 0.20899-0.36701 0-0.70901-0.06977-1.0254-0.20899-0.31638-0.15186-0.59549-0.36119-0.83594-0.62695-0.22779-0.26576-0.41157-0.57534-0.55078-0.92969-0.12656-0.367-0.18945-0.7719-0.18945-1.2148 0-0.43028 0.06289-0.83026 0.18945-1.1973 0.1392-0.367 0.32298-0.68345 0.55078-0.94922 0.24045-0.26576 0.51955-0.47313 0.83594-0.625 0.31638-0.15186 0.65838-0.22851 1.0254-0.22851zm32.404 0c0.2531 0 0.5047 0.0511 0.75781 0.15234 0.26575 0.10124 0.51243 0.24079 0.74023 0.41797 0.24044 0.16452 0.44977 0.36697 0.62696 0.60742 0.18983 0.2278 0.33625 0.4794 0.4375 0.75782v2.373c-0.08858 0.24046-0.22126 0.46158-0.39844 0.66406-0.16451 0.20249-0.35516 0.38135-0.57031 0.53321s-0.45002 0.27078-0.70313 0.35937c-0.2531 0.07595-0.49978 0.11524-0.74023 0.11524-0.40498 0-0.77745-0.07666-1.1191-0.22852-0.32904-0.15186-0.61502-0.36119-0.85547-0.62695s-0.42915-0.57534-0.56836-0.92969c-0.13922-0.35435-0.20899-0.74057-0.20899-1.1582 0-0.39232 0.06289-0.77167 0.18946-1.1387 0.12654-0.36701 0.30344-0.69034 0.53125-0.96875 0.22779-0.29109 0.50002-0.51909 0.8164-0.6836 0.32904-0.16451 0.68479-0.24609 1.0645-0.24609zm22.113 0c0.37966 0 0.72854 0.08158 1.0449 0.24609 0.31638 0.16452 0.5886 0.38565 0.8164 0.66406 0.24045 0.27842 0.42422 0.60175 0.55079 0.96875 0.12656 0.36701 0.18945 0.75324 0.18945 1.1582s-0.06977 0.78432-0.20898 1.1387c-0.12656 0.35435-0.31033 0.66392-0.55079 0.92969-0.24045 0.26577-0.53135 0.48197-0.87304 0.64648-0.3417 0.15186-0.71417 0.22852-1.1191 0.22852-0.24045 0-0.48713-0.03929-0.74024-0.11524-0.25312-0.08859-0.48799-0.20258-0.70312-0.34179-0.21513-0.15187-0.41071-0.32877-0.58789-0.53125-0.16452-0.20249-0.29227-0.43049-0.38086-0.6836v-2.373c0.24045-0.54418 0.58245-0.99823 1.0254-1.3652 0.45559-0.37966 0.96762-0.57031 1.5371-0.57031zm-80.24 3.209c0.32904 0 0.67104 0.03734 1.0254 0.11328 0.35435 0.0633 0.6826 0.15174 0.98633 0.26563v1.1387c0 0.26577-0.13955 0.50557-0.41797 0.7207-0.21514 0.25311-0.51784 0.45556-0.91015 0.60743-0.37966 0.15186-0.78457 0.22851-1.2148 0.22851-0.4809 0-0.8858-0.13955-1.2148-0.41797-0.32904-0.29107-0.49414-0.65175-0.49414-1.082 0-0.45559 0.20932-0.82807 0.62695-1.1191 0.41763-0.30373 0.9552-0.45508 1.6133-0.45508zm91.137 0c0.32904 0 0.67104 0.03734 1.0254 0.11328 0.35435 0.0633 0.68456 0.15174 0.98828 0.26563v1.1387c0 0.26577-0.13955 0.50557-0.41797 0.7207-0.21514 0.25311-0.51979 0.45556-0.9121 0.60743-0.37967 0.15186-0.78457 0.22851-1.2148 0.22851-0.4809 0-0.8858-0.13955-1.2148-0.41797-0.32904-0.29107-0.49414-0.65175-0.49414-1.082 0-0.45559 0.20932-0.82807 0.62695-1.1191 0.41763-0.30373 0.95521-0.45508 1.6133-0.45508zm27.678 2.0117v2.7324h2.0879v-2.7324h-2.0879zm4.2715 0v2.7324h2.0879v-2.7324h-2.0879zm4.2715 0v2.7324h2.0879v-2.7324h-2.0879z" fill="#386582" stroke-width="1.1453"/>
</g>
</g>
</svg>
