<?xml version="1.0" encoding="UTF-8"?>
<svg width="700" height="220" version="1.1" viewBox="0 0 185.21 58.208" xmlns="http://www.w3.org/2000/svg">
<g transform="translate(-18.958 -31.678)">
<g fill="#386582">
<g stroke-width=".30304" aria-label="ようこそ！">
<path d="m36.916 50.971c0-0.52122 0.56971-0.8485 1.5152-0.8485 0.3394 0 0.6788 0.03636 0.99396 0.08485 0.01212 0.1697 0.01212 0.31516 0.01212 0.42425 0 0.81214-0.2788 1.1515-1.0546 1.1515-0.8485 0-1.4667-0.21819-1.4667-0.81214zm4.0607-8.1699h-1.8303c0.07273 0.30304 0.10909 0.82426 0.13334 1.4182 0.01212 0.52122 0.01212 1.2364 0.01212 1.9758 0 0.64244 0.04849 1.6728 0.08485 2.6182-0.23031-0.02424-0.47274-0.03636-0.71517-0.03636-2.2304 0-3.3092 1.0061-3.3092 2.2667 0 1.6485 1.4182 2.2182 3.1516 2.2182 2.0364 0 2.5819-1.0182 2.5819-2.097 0-0.12122 0-0.26667-0.01212-0.42425 1.0788 0.49698 1.9879 1.2122 2.6789 1.9031l0.93336-1.4425c-0.83638-0.77578-2.1455-1.6243-3.6849-2.0728-0.06061-0.89699-0.10909-1.8667-0.13334-2.594 0.98184-0.02424 2.4122-0.08485 3.4304-0.1697l-0.04849-1.4425c-1.0061 0.12122-2.4243 0.1697-3.394 0.18182 0-0.31516 0-0.60608 0.01212-0.88487 0.01212-0.47274 0.04849-1.0667 0.10909-1.4182z"/>
<path d="m54.492 48.559c0 1.891-1.9394 2.8849-4.9456 3.2243l0.87275 1.5031c3.3698-0.46062 5.7698-2.0728 5.7698-4.6668 0-1.9031-1.3455-2.994-3.2607-2.994-1.4182 0-2.7758 0.35152-3.6607 0.55759-0.40001 0.08485-0.92123 0.1697-1.3334 0.20606l0.46062 1.7334c0.35152-0.13334 0.82426-0.32728 1.1758-0.42425 0.6182-0.18182 1.8182-0.59395 3.1516-0.59395 1.1394 0 1.7697 0.65456 1.7697 1.4546zm-4.7638-5.8183-0.24243 1.4546c1.394 0.24243 4.0243 0.48486 5.4426 0.58183l0.24243-1.4909c-1.2849-0.01212-4.0365-0.24243-5.4426-0.54547z"/>
<path d="m60.953 43.71v1.6c0.98184 0.08485 2.0364 0.13334 3.3092 0.13334 1.1515 0 2.6546-0.07273 3.5031-0.14546v-1.6122c-0.93336 0.09697-2.3152 0.1697-3.5152 0.1697-1.2728 0-2.4001-0.04849-3.297-0.14546zm1.0182 5.1395-1.5879-0.14546c-0.09697 0.4485-0.24243 1.0424-0.24243 1.7455 0 1.6606 1.394 2.594 4.1698 2.594 1.697 0 3.1516-0.15758 4.2062-0.41213l-0.01212-1.7091c-1.0667 0.30304-2.6182 0.48486-4.2546 0.48486-1.7455 0-2.4849-0.55759-2.4849-1.3334 0-0.41213 0.08485-0.7879 0.20606-1.2243z"/>
<path d="m73.402 43.25 0.07273 1.5516c0.38789-0.04849 0.7879-0.08485 1.0909-0.10909 0.49698-0.04849 1.9879-0.12122 2.4849-0.15758-0.75153 0.66668-2.3273 2.0485-3.4061 2.7516-0.64244 0.07273-1.4909 0.18182-2.1334 0.24243l0.14546 1.4667c1.2122-0.20607 2.5698-0.38789 3.6849-0.48486-0.46062 0.42425-0.88487 1.1758-0.88487 1.9152 0 2.0243 1.8061 2.9576 4.9092 2.8243l0.32728-1.5879c-0.46062 0.03636-1.1758 0.03636-1.8546-0.03637-1.0788-0.12122-1.8303-0.49698-1.8303-1.4546 0-0.99396 0.92123-1.7819 2.0364-1.9273 0.73941-0.10909 1.9516-0.09697 3.1152-0.03636v-1.4303c-1.4788 0-3.491 0.13334-5.1153 0.29092 0.83638-0.64244 2.0243-1.6485 2.8849-2.3394 0.25455-0.20607 0.70305-0.49698 0.9576-0.66668l-0.9576-1.1152c-0.1697 0.06061-0.4485 0.10909-0.83638 0.15758-0.73941 0.07273-3.0183 0.18182-3.5395 0.18182-0.41213 0-0.76366-0.01212-1.1515-0.03636z"/>
<path d="m87.996 49.407h1.2364l0.32728-4.1456 0.06061-1.8061h-2.0122l0.06061 1.8061zm0.6182 3.2243c0.60608 0 1.0667-0.43637 1.0667-1.0667 0-0.64244-0.46062-1.0788-1.0667-1.0788s-1.0667 0.43637-1.0667 1.0788c0 0.63032 0.4485 1.0667 1.0667 1.0667z"/>
</g>
<g stroke-width=".12556" aria-label="いくつか簡単に設定しましょう...">
<path d="m26.908 57.257-0.77348-0.01005c0.03014 0.1557 0.04018 0.37167 0.04018 0.5123 0 0.30638 5e-3 0.89402 0.05525 1.3561 0.14063 1.3461 0.61778 1.8433 1.1703 1.8433 0.40181 0 0.71823-0.30638 1.0497-1.1803l-0.50226-0.61276c-0.09543 0.40181-0.29633 0.98945-0.5324 0.98945-0.31642 0-0.4671-0.49724-0.53742-1.2205-0.03014-0.36163-0.03516-0.73832-0.03014-1.0648 0-0.14063 0.02511-0.43194 0.06027-0.61276zm2.5113 0.11552-0.63787 0.20593c0.54746 0.6228 0.81366 1.8433 0.89402 2.6519l0.65796-0.25615c-0.05525-0.76846-0.43696-2.0241-0.91411-2.6017z"/>
<path d="m34.312 57.227-0.58764-0.51733c-0.08036 0.12054-0.24108 0.28126-0.38674 0.42692-0.33651 0.32647-1.0246 0.88398-1.4214 1.2054-0.50226 0.4219-0.54244 0.6881-0.04018 1.115 0.45706 0.39176 1.1954 1.0196 1.5018 1.336 0.15068 0.15068 0.29633 0.3114 0.43697 0.4671l0.58764-0.53742c-0.5123-0.49724-1.4666-1.2506-1.8433-1.567-0.27122-0.23606-0.27624-0.29131-0.01004-0.52235 0.33651-0.28629 0.9995-0.79859 1.326-1.0598 0.11552-0.09543 0.28126-0.22602 0.43696-0.34656z"/>
<path d="m35.919 58.096 0.28629 0.70316c0.52235-0.22602 1.7127-0.72828 2.451-0.72828 0.60271 0 0.92918 0.36163 0.92918 0.83375 0 0.87393-1.0648 1.2657-2.4259 1.3009l0.29131 0.668c1.768-0.09041 2.8528-0.81868 2.8528-1.9588 0-0.92918-0.71321-1.4515-1.6223-1.4515-0.7333 0-1.7579 0.36163-2.1446 0.48217-0.18081 0.05022-0.43194 0.12054-0.61778 0.15068z"/>
<path d="m42.991 56.88-0.74836-0.07534c5e-3 0.31642-0.03516 0.68307-0.10548 1.0648-0.25615 0.02009-0.49221 0.03516-0.64791 0.04018-0.18584 5e-3 -0.3566 0.01507-0.53742 0l0.06027 0.68307c0.15068-0.02511 0.41688-0.06027 0.55751-0.08538 0.09543-0.01005 0.25113-0.03014 0.43194-0.05023-0.18081 0.6881-0.52737 1.7027-1.0146 2.3606l0.65294 0.26118c0.46208-0.73832 0.83375-1.9287 1.0246-2.6921 0.14063-0.01004 0.2662-0.02009 0.34656-0.02009 0.31642 0 0.48719 0.05525 0.48719 0.45706 0 0.49724-0.06529 1.105-0.2009 1.3913-0.08036 0.16575-0.21095 0.21597-0.37669 0.21597-0.13561 0-0.4219-0.05023-0.61778-0.10548l0.1105 0.66298c0.17077 0.03516 0.40683 0.07032 0.60271 0.07032 0.3767 0 0.65796-0.1105 0.8237-0.46208 0.21597-0.43696 0.28629-1.2506 0.28629-1.8433 0-0.72325-0.37669-0.95932-0.90909-0.95932-0.10547 0-0.25615 0.01004-0.4219 0.02009 0.03516-0.18081 0.07032-0.36665 0.10548-0.51733 0.02511-0.12556 0.06027-0.28629 0.09041-0.41688zm1.7278 0.47212-0.59769 0.25615c0.3566 0.44199 0.71321 1.3511 0.8438 1.9086l0.63787-0.29633c-0.15068-0.47715-0.57258-1.4365-0.88398-1.8684z"/>
<path d="m47.536 58.246v0.16574h-0.78855v-0.16574zm-0.78855 0.65796v-0.17077h0.78855v0.17077zm1.326 0.34154v-1.3461h-1.8684v3.3802h0.54244v-2.0341zm0.83375-0.34154v-0.17077h0.81366v0.17077zm0.81366-0.65796v0.16574h-0.81366v-0.16574zm-1.9287 2.2702v-0.21597h0.83375v0.21597zm0.83375-0.74837v0.21095h-0.83375v-0.21095zm1.6524-1.8684h-1.9086v1.3461h1.3511v1.4314c0 0.07032-0.02511 0.09041-0.10045 0.09041-0.06529 0-0.2662 5e-3 -0.4671-5e-3v-1.326h-1.8985v1.5821h0.53742v-0.17579h1.3109c0.05525 0.14063 0.11552 0.3114 0.12556 0.43696 0.37167 5e-3 0.63787-5e-3 0.81366-0.09543 0.18081-0.08036 0.23606-0.22602 0.23606-0.50226zm-1.2104-0.95429c0.0452-0.08538 0.08539-0.17077 0.12054-0.25615l-0.57258-0.13561c-0.10547 0.2662-0.27624 0.5324-0.48217 0.74837v-0.3566h-1.115c0.04018-0.08036 0.08036-0.16072 0.11552-0.24108l-0.55751-0.15068c-0.15068 0.37167-0.43194 0.75339-0.73832 1.0045 0.13561 0.06529 0.37167 0.22602 0.48719 0.32145 0.13561-0.13059 0.27624-0.29633 0.40683-0.48217h0.05525c0.09543 0.1557 0.18584 0.34154 0.22602 0.47212l0.52235-0.14566c-0.03516-0.09041-0.09543-0.21095-0.16574-0.32647h0.668c-0.06027 0.05525-0.12054 0.10548-0.18081 0.15068 0.14063 0.05525 0.39678 0.19588 0.52235 0.28126 0.13059-0.11552 0.27122-0.26118 0.39678-0.43194h0.26118c0.12054 0.16072 0.24611 0.34656 0.29633 0.48217l0.53742-0.15068c-0.0452-0.09543-0.12556-0.21597-0.21597-0.33149h0.82873v-0.45203z"/>
<path d="m51.991 59.09v-0.34154h0.91913v0.34154zm0.91913-0.79859h-0.91913v-0.33651h0.91913zm1.567 0h-0.95429v-0.33651h0.95429zm0 0.79859h-0.95429v-0.34154h0.95429zm1.0196 0.81868h-1.9739v-0.32647h1.5721v-2.1145h-0.39678c0.15068-0.2009 0.31642-0.44199 0.4671-0.68307l-0.668-0.19086c-0.10045 0.27122-0.30136 0.6228-0.47212 0.87393h-0.76846l0.36163-0.14566c-0.08538-0.21095-0.27122-0.52235-0.44199-0.74837l-0.53742 0.2009c0.15068 0.21597 0.30136 0.48719 0.37669 0.69312h-0.889l0.3114-0.15068c-0.10045-0.2009-0.32647-0.49221-0.50728-0.70316l-0.5123 0.23606c0.14566 0.18584 0.3114 0.42692 0.41688 0.61778h-0.4219v2.1145h1.4967v0.32647h-1.9387v0.55248h1.9387v0.81868h0.61276v-0.81868h1.9739z"/>
<path d="m57.988 57.337v0.64289c0.63285 0.06027 1.5419 0.05525 2.1597 0v-0.64791c-0.54244 0.06529-1.5419 0.09041-2.1597 5e-3zm0.40181 2.1446-0.5776-0.05525c-0.05525 0.25615-0.08538 0.45706-0.08538 0.65294 0 0.51733 0.41688 0.8237 1.2808 0.8237 0.56755 0 0.96936-0.03516 1.2958-0.09543l-0.01005-0.67805c-0.44199 0.09041-0.81366 0.13059-1.2607 0.13059-0.5123 0-0.70316-0.13561-0.70316-0.3566 0-0.13561 0.02009-0.25615 0.06027-0.4219zm-1.1753-2.4812-0.70316-0.06027c-5e-3 0.16072-0.03516 0.35158-0.05023 0.49221-0.05525 0.38674-0.21095 1.2356-0.21095 1.9889 0 0.68307 0.09543 1.2958 0.19588 1.6424l0.58262-0.04018c-5e-3 -0.07032-0.01004-0.15068-0.01004-0.20593 0-0.05023 0.01004-0.16072 0.02511-0.23606 0.05525-0.2662 0.22099-0.81366 0.36163-1.2305l-0.3114-0.24611c-0.07032 0.16574-0.15068 0.34154-0.22602 0.5123-0.01507-0.10045-0.02009-0.23104-0.02009-0.32647 0-0.50226 0.17579-1.5068 0.24108-1.8433 0.02009-0.09041 0.08538-0.34154 0.12556-0.44701z"/>
<path d="m62.699 56.75h-1.5168v0.45203h1.5168zm0.19086 0.67303h-1.9638v0.47212h1.9638zm-0.18081 1.3862h-1.547v0.44701h1.547zm1.9186 0.47715c-0.12054 0.25615-0.27624 0.48217-0.47212 0.67805-0.2009-0.2009-0.36665-0.42692-0.48719-0.67805zm-2.441 1.2657h-0.5324v-0.5776h0.5324zm2.8177-1.8282-0.10045 0.02511h-1.768c0.52235-0.3566 0.6228-0.92918 0.6228-1.4013v-0.08538h0.56253v0.60773c0 0.49724 0.11552 0.65294 0.51733 0.65294h0.29131c0.33651 0 0.4671-0.17579 0.51733-0.79859-0.14566-0.04018-0.37669-0.12556-0.48719-0.21095-5e-3 0.43696-0.02511 0.50226-0.09041 0.50226h-0.12556c-0.05525 0-0.06529-0.01507-0.06529-0.1557v-1.1251h-1.6826v0.59769c0 0.33651-0.05525 0.7333-0.48719 1.0296v-0.24109h-1.547v0.45706h1.547v-0.19086c0.12054 0.08036 0.33149 0.26118 0.41688 0.36163h-0.17077v0.53742h0.69814l-0.5123 0.16575c0.1557 0.32647 0.34656 0.61778 0.5776 0.86891-0.29633 0.19588-0.63787 0.33651-1.0146 0.43194v-1.2506h-1.557v1.7127h0.50728v-0.19588h1.0497v-0.25615c0.1105 0.13561 0.25113 0.37167 0.3114 0.51733 0.42692-0.13059 0.81366-0.3114 1.1502-0.54746 0.31642 0.23606 0.68307 0.4219 1.105 0.54746 0.08538-0.1557 0.25615-0.39176 0.38674-0.51733-0.38674-0.09543-0.73832-0.24108-1.0347-0.43194 0.34656-0.37669 0.61276-0.85384 0.77348-1.4616z"/>
<path d="m66.737 57.669h3.0889v0.6881h0.61778v-1.2556h-1.8383v-0.50226h-0.63285v0.50226h-1.8232v1.2556h0.58764zm1.8634 2.1898h1.3812v-0.56253h-1.3812v-0.62782h1.0748v-0.56755h-2.7624v0.56755h1.0698v1.773c-0.29633-0.14566-0.5324-0.38674-0.68307-0.78855 0.0452-0.2009 0.08036-0.41185 0.1105-0.63787l-0.6228-0.06027c-0.09041 0.85886-0.33651 1.552-0.87895 1.9538 0.14063 0.09041 0.39176 0.30136 0.49221 0.40683 0.28629-0.24611 0.50728-0.56755 0.668-0.94927 0.46208 0.71321 1.1502 0.86388 2.0743 0.86388h1.2556c0.03014-0.17579 0.12556-0.46208 0.21095-0.60773-0.33651 0.01507-1.1652 0.01507-1.4365 0.01507-0.2009 0-0.39176-0.01004-0.57258-0.03014z"/>
<path d="m72.669 56.865-0.80864-0.01005c0.0452 0.2009 0.06529 0.44199 0.06529 0.67805 0 0.43194-0.05023 1.7529-0.05023 2.4259 0 0.85886 0.5324 1.2205 1.3561 1.2205 1.1452 0 1.8584-0.67303 2.1798-1.1552l-0.45706-0.55248c-0.36163 0.54746-0.889 1.0246-1.7177 1.0246-0.39176 0-0.69312-0.16574-0.69312-0.67303 0-0.6228 0.04018-1.7479 0.06027-2.2903 0.01005-0.2009 0.03516-0.45706 0.06529-0.668z"/>
<path d="m77.255 60.281c0-0.17077 0.19588-0.3114 0.55248-0.3114 0.14063 0 0.27624 0.01507 0.41185 0.03516 5e-3 0.09041 5e-3 0.16072 5e-3 0.21597 0 0.29131-0.17579 0.36665-0.44199 0.36665-0.34656 0-0.52737-0.11552-0.52737-0.30638zm1.5721-3.4957h-0.67805c0.02009 0.09543 0.03014 0.25113 0.03014 0.34656v0.23606h-0.19588c-0.30638 0-0.87895-0.05023-1.2406-0.1105l0.01507 0.57258c0.33149 0.0452 0.91411 0.09041 1.2305 0.09041h0.18584c-5e-3 0.17077-5e-3 0.35158-5e-3 0.51733h-0.24108c-0.2662 0-0.88398-0.03516-1.2104-0.09543l5e-3 0.59267c0.33149 0.04018 0.90407 0.06529 1.1954 0.06529h0.26118c5e-3 0.15068 0.01005 0.3114 0.02009 0.4671-0.10045-0.01004-0.20593-0.01507-0.3114-0.01507-0.77348 0-1.2406 0.3566-1.2406 0.86388 0 0.5324 0.4219 0.83877 1.2255 0.83877 0.66298 0 0.98945-0.33149 0.98945-0.75841 0-0.05525 0-0.11552-5e-3 -0.18584 0.40181 0.18081 0.74334 0.44701 1.0146 0.69814l0.36163-0.56253c-0.29131-0.24108-0.77348-0.5776-1.4063-0.75841-0.01507-0.2009-0.02511-0.40683-0.03516-0.59769 0.48217-0.01507 0.87393-0.05023 1.326-0.10045l5e-3 -0.59266c-0.40683 0.05525-0.83375 0.09543-1.341 0.12054v-0.51733c0.48719-0.02511 0.94425-0.07032 1.2757-0.1105l5e-3 -0.5776c-0.44199 0.07534-0.85886 0.11552-1.2707 0.13561 0-0.08036 0-0.1557 5e-3 -0.20593 5e-3 -0.13059 0.01507-0.25615 0.03014-0.3566z"/>
<path d="m82.714 56.865-0.80864-0.01005c0.0452 0.2009 0.06529 0.44199 0.06529 0.67805 0 0.43194-0.05023 1.7529-0.05023 2.4259 0 0.85886 0.5324 1.2205 1.3561 1.2205 1.1452 0 1.8584-0.67303 2.1798-1.1552l-0.45706-0.55248c-0.36163 0.54746-0.889 1.0246-1.7177 1.0246-0.39176 0-0.69312-0.16574-0.69312-0.67303 0-0.6228 0.04018-1.7479 0.06027-2.2903 0.01004-0.2009 0.03516-0.45706 0.06529-0.668z"/>
<path d="m87.345 60.431c0-0.16575 0.17579-0.27122 0.49724-0.27122 0.10045 0 0.2009 0.01004 0.30136 0.02511v0.15068c0 0.23104-0.1105 0.35158-0.33651 0.35158-0.28126 0-0.46208-0.1105-0.46208-0.25615zm1.3812-2.7674h-0.67805c0.02009 0.09041 0.04018 0.30136 0.04018 0.49724v0.70818c0 0.22602 0.01507 0.52235 0.03014 0.80362-0.06529-5e-3 -0.13059-0.01005-0.2009-0.01005-0.72828 0-1.1401 0.31642-1.1401 0.79859 0 0.52737 0.49724 0.78352 1.105 0.78352 0.67303 0 0.87895-0.33651 0.87895-0.70818 0-0.03516 0-0.07534-5e-3 -0.12556 0.34154 0.18081 0.62782 0.43697 0.8438 0.65796l0.34656-0.54746c-0.27122-0.25113-0.69814-0.55751-1.2205-0.72828-0.02009-0.3114-0.04018-0.64791-0.04018-0.86389 0.33651-5e-3 0.83877-0.02511 1.1753-0.05525l-0.01507-0.55751c-0.33651 0.03516-0.82873 0.06027-1.1602 0.07032v-0.23606c0-0.17579 0.02511-0.39176 0.04018-0.48719z"/>
<path d="m94.336 59.206c0 0.78352-0.80361 1.1954-2.0492 1.336l0.36163 0.6228c1.3963-0.19086 2.3908-0.85886 2.3908-1.9337 0-0.78855-0.55751-1.2406-1.3511-1.2406-0.58764 0-1.1502 0.14566-1.5168 0.23104-0.16575 0.03516-0.38172 0.07032-0.55248 0.08538l0.19086 0.71823c0.14566-0.05525 0.34154-0.13561 0.48719-0.17579 0.25615-0.07534 0.75339-0.24611 1.3059-0.24611 0.47212 0 0.7333 0.27122 0.7333 0.60271zm-1.9739-2.4108-0.10045 0.60271c0.5776 0.10045 1.6675 0.2009 2.2551 0.24108l0.10045-0.61778c-0.53239-5e-3 -1.6725-0.10045-2.2551-0.22602z"/>
<path d="m96.21 60.848v-0.72325h0.55248v0.72325z"/>
<path d="m97.34 60.848v-0.72325h0.55248v0.72325z"/>
<path d="m98.47 60.848v-0.72325h0.55248v0.72325z"/>
</g>
</g>
</g>
</svg>
