<?xml version="1.0" encoding="UTF-8" standalone="no"?>
<svg
   xmlns:dc="http://purl.org/dc/elements/1.1/"
   xmlns:cc="http://creativecommons.org/ns#"
   xmlns:rdf="http://www.w3.org/1999/02/22-rdf-syntax-ns#"
   xmlns:svg="http://www.w3.org/2000/svg"
   xmlns="http://www.w3.org/2000/svg"
   width="700.00037"
   height="220"
   viewBox="0 0 185.20843 58.208335"
   version="1.1"
   id="svg243962">
  <metadata
     id="metadata1701">
    <rdf:RDF>
      <cc:Work
         rdf:about="">
        <dc:format>image/svg+xml</dc:format>
        <dc:type
           rdf:resource="http://purl.org/dc/dcmitype/StillImage" />
        <dc:title></dc:title>
      </cc:Work>
    </rdf:RDF>
  </metadata>
  <defs
     id="defs243959" />
  <g
     id="layer1"
     transform="translate(-18.957616,-31.677996)">
    <g
       id="layer3"
       style="display:inline">
      <g
         aria-label="Üdvözöljük!"
         transform="matrix(0.26458334,0,0,0.26458334,-116.4687,-316.66515)"
         id="text118971"
         style="font-size:45.8136px;line-height:1.25;font-family:'Roboto Condensed';-inkscape-font-specification:'Roboto Condensed, ';fill:#386582;fill-opacity:1;stroke-width:1.14534">
        <path
           d="m 578.21058,1365.6664 v -5.9099 h 6.0474 v 5.9099 z m 9.62086,0 v -5.9099 h 6.0474 v 5.9099 z m -1.78673,29.2749 q 1.92417,0 3.25277,-0.7788 1.32859,-0.8247 2.15323,-2.1532 0.82465,-1.3286 1.14534,-3.0237 0.36651,-1.741 0.36651,-3.5277 v -16.6303 h 7.51343 v 16.6303 q 0,3.3902 -0.87045,6.3223 -0.82465,2.9321 -2.61138,5.1311 -1.74092,2.1991 -4.48973,3.4818 -2.703,1.237 -6.45972,1.237 -3.89416,0 -6.64297,-1.3286 -2.74882,-1.3286 -4.48973,-3.5276 -1.69511,-2.2449 -2.51975,-5.177 -0.77883,-2.932 -0.77883,-6.139 v -16.6303 h 7.51343 v 16.6303 q 0,1.8784 0.36651,3.5735 0.3665,1.6951 1.19115,3.0237 0.82464,1.3286 2.10742,2.1074 1.3286,0.7788 3.25277,0.7788 z"
           style="font-style:normal;font-variant:normal;font-weight:bold;font-stretch:normal;font-family:Raleway;-inkscape-font-specification:Raleway;fill:#386582;fill-opacity:1;stroke-width:1.14534"
           id="path2526" />
        <path
           d="m 615.27374,1401.8134 q -2.47394,0 -4.58136,-0.9163 -2.06161,-0.9621 -3.57346,-2.6572 -1.51185,-1.6951 -2.38231,-3.94 -0.82465,-2.2906 -0.82465,-4.9937 0,-2.6113 0.77884,-4.902 0.77883,-2.2907 2.19905,-3.94 1.42022,-1.6951 3.34439,-2.6572 1.96999,-0.9621 4.30648,-0.9621 2.51975,0 4.53555,1.1912 2.06161,1.1912 3.16113,3.207 v -13.3318 h 7.33018 v 25.1975 q 0,1.0995 0.32069,1.5576 0.36651,0.4124 1.23697,0.504 v 6.1848 q -1.0079,0.2291 -1.74091,0.2749 -0.73302,0.092 -1.37441,0.092 -1.92417,0 -3.11533,-0.7788 -1.19115,-0.8246 -1.37441,-2.3365 l -0.13744,-1.237 q -1.28278,2.2449 -3.48183,3.3444 -2.15324,1.0996 -4.62717,1.0996 z m 1.96998,-6.1849 q 1.51185,0 2.88626,-0.8704 1.42022,-0.9163 2.15324,-2.474 v -5.0395 q -0.68721,-1.8325 -2.24487,-2.9778 -1.51185,-1.1912 -3.16114,-1.1912 -1.19115,0 -2.19905,0.5498 -0.96209,0.5039 -1.6951,1.3744 -0.73302,0.8704 -1.14534,2.0158 -0.36651,1.1453 -0.36651,2.4281 0,1.3286 0.41232,2.4739 0.45814,1.1454 1.19115,1.97 0.77884,0.8247 1.83255,1.2828 1.09952,0.4581 2.33649,0.4581 z"
           style="font-style:normal;font-variant:normal;font-weight:bold;font-stretch:normal;font-family:Raleway;-inkscape-font-specification:Raleway;fill:#386582;fill-opacity:1;stroke-width:1.14534"
           id="path2528" />
        <path
           d="m 641.47908,1401.3552 -8.52132,-24.0521 h 7.55924 l 5.26856,18.188 5.31438,-18.188 h 6.82623 l -8.47552,24.0521 z"
           style="font-style:normal;font-variant:normal;font-weight:bold;font-stretch:normal;font-family:Raleway;-inkscape-font-specification:Raleway;fill:#386582;fill-opacity:1;stroke-width:1.14534"
           id="path2530" />
        <path
           d="m 663.51534,1374.1419 v -5.9099 h 6.0474 v 5.9099 z m 9.62086,0 v -5.9099 h 6.04739 v 5.9099 z m -1.78673,27.6715 q -3.06951,0 -5.49763,-1.0079 -2.38231,-1.0079 -4.0316,-2.703 -1.64929,-1.741 -2.51975,-3.9858 -0.82464,-2.2907 -0.82464,-4.7646 0,-2.474 0.82464,-4.7188 0.87046,-2.2907 2.51975,-3.9858 1.64929,-1.7409 4.0316,-2.7488 2.42812,-1.0538 5.49763,-1.0538 3.06951,0 5.45182,1.0538 2.3823,1.0079 4.03159,2.7488 1.64929,1.6951 2.51975,3.9858 0.87046,2.2448 0.87046,4.7188 0,2.4739 -0.87046,4.7646 -0.82464,2.2448 -2.47393,3.9858 -1.64929,1.6951 -4.07741,2.703 -2.38231,1.0079 -5.45182,1.0079 z m -5.36019,-12.4613 q 0,2.8404 1.51185,4.5813 1.51184,1.6951 3.84834,1.6951 1.14534,0 2.10742,-0.4581 0.96209,-0.4581 1.64929,-1.2828 0.73302,-0.8246 1.14534,-1.97 0.41232,-1.1911 0.41232,-2.5655 0,-2.8405 -1.51184,-4.5356 -1.51185,-1.7409 -3.80253,-1.7409 -1.14534,0 -2.15324,0.4581 -0.96209,0.4582 -1.6951,1.2828 -0.68721,0.8247 -1.09953,2.0158 -0.41232,1.1454 -0.41232,2.5198 z"
           style="font-style:normal;font-variant:normal;font-weight:bold;font-stretch:normal;font-family:Raleway;-inkscape-font-specification:Raleway;fill:#386582;fill-opacity:1;stroke-width:1.14534"
           id="path2532" />
        <path
           d="m 685.78061,1396.9571 12.27804,-14.5687 H 686.422 v -5.0853 h 19.28753 v 4.3981 l -12.18642,14.5687 h 12.50711 v 5.0853 h -20.24961 z"
           style="font-style:normal;font-variant:normal;font-weight:bold;font-stretch:normal;font-family:Raleway;-inkscape-font-specification:Raleway;fill:#386582;fill-opacity:1;stroke-width:1.14534"
           id="path2534" />
        <path
           d="m 712.81053,1374.1419 v -5.9099 h 6.0474 v 5.9099 z m 9.62086,0 v -5.9099 h 6.04739 v 5.9099 z m -1.78673,27.6715 q -3.06951,0 -5.49764,-1.0079 -2.3823,-1.0079 -4.03159,-2.703 -1.64929,-1.741 -2.51975,-3.9858 -0.82464,-2.2907 -0.82464,-4.7646 0,-2.474 0.82464,-4.7188 0.87046,-2.2907 2.51975,-3.9858 1.64929,-1.7409 4.03159,-2.7488 2.42813,-1.0538 5.49764,-1.0538 3.06951,0 5.45181,1.0538 2.38231,1.0079 4.0316,2.7488 1.64929,1.6951 2.51975,3.9858 0.87046,2.2448 0.87046,4.7188 0,2.4739 -0.87046,4.7646 -0.82465,2.2448 -2.47394,3.9858 -1.64928,1.6951 -4.07741,2.703 -2.3823,1.0079 -5.45181,1.0079 z m -5.36019,-12.4613 q 0,2.8404 1.51184,4.5813 1.51185,1.6951 3.84835,1.6951 1.14534,0 2.10742,-0.4581 0.96209,-0.4581 1.64929,-1.2828 0.73302,-0.8246 1.14534,-1.97 0.41232,-1.1911 0.41232,-2.5655 0,-2.8405 -1.51184,-4.5356 -1.51185,-1.7409 -3.80253,-1.7409 -1.14534,0 -2.15324,0.4581 -0.96209,0.4582 -1.69511,1.2828 -0.6872,0.8247 -1.09952,2.0158 -0.41232,1.1454 -0.41232,2.5198 z"
           style="font-style:normal;font-variant:normal;font-weight:bold;font-stretch:normal;font-family:Raleway;-inkscape-font-specification:Raleway;fill:#386582;fill-opacity:1;stroke-width:1.14534"
           id="path2536" />
        <path
           d="m 737.04586,1367.9113 h 7.33017 v 24.8768 q 0,2.7488 2.3365,2.7488 0.54976,0 1.19115,-0.1374 0.6872,-0.1833 1.23697,-0.504 l 0.96208,5.4976 q -1.3744,0.6414 -3.16114,1.0079 -1.78673,0.3665 -3.34439,0.3665 -3.16114,0 -4.85624,-1.6492 -1.6951,-1.6493 -1.6951,-4.7647 z"
           style="font-style:normal;font-variant:normal;font-weight:bold;font-stretch:normal;font-family:Raleway;-inkscape-font-specification:Raleway;fill:#386582;fill-opacity:1;stroke-width:1.14534"
           id="path2538" />
        <path
           d="m 751.20222,1410.6096 q -1.83254,0 -3.48183,-0.5956 -1.64929,-0.5498 -2.97788,-1.6951 l 3.06951,-4.9937 q 0.50395,0.504 1.14534,0.733 0.64139,0.2291 1.32859,0.2291 1.05371,0 1.74092,-0.6872 0.6872,-0.6872 0.6872,-1.8326 v -24.4644 h 7.33018 v 23.9147 q 0,2.0616 -0.68721,3.8025 -0.64139,1.7409 -1.83254,2.9779 -1.19115,1.237 -2.84044,1.9242 -1.60348,0.6872 -3.48184,0.6872 z m 1.51185,-36.0553 v -6.643 h 7.33018 v 6.643 z"
           style="font-style:normal;font-variant:normal;font-weight:bold;font-stretch:normal;font-family:Raleway;-inkscape-font-specification:Raleway;fill:#386582;fill-opacity:1;stroke-width:1.14534"
           id="path2540" />
        <path
           d="m 768.61131,1374.1419 v -5.9099 h 6.04739 v 5.9099 z m 9.62085,0 v -5.9099 h 6.0474 v 5.9099 z m -5.90995,27.6715 q -3.7109,0 -5.63508,-2.2907 -1.87835,-2.3365 -1.87835,-6.8262 v -15.3934 h 7.33017 v 13.7899 q 0,2.199 0.87046,3.3902 0.87046,1.1453 2.47394,1.1453 1.46603,0 2.84044,-0.7788 1.37441,-0.7788 2.42812,-2.703 v -14.8436 h 7.33017 v 15.8057 q 0,1.0995 0.3207,1.5576 0.36651,0.4124 1.23697,0.504 v 6.1848 q -1.05372,0.2291 -1.78673,0.2749 -0.73302,0.092 -1.3286,0.092 -3.93997,0 -4.48973,-3.0695 l -0.13744,-1.466 q -1.64929,2.3823 -4.12322,3.5276 -2.42813,1.0996 -5.45182,1.0996 z"
           style="font-style:normal;font-variant:normal;font-weight:bold;font-stretch:normal;font-family:Raleway;-inkscape-font-specification:Raleway;fill:#386582;fill-opacity:1;stroke-width:1.14534"
           id="path2542" />
        <path
           d="m 809.93513,1401.3552 -6.27647,-9.6666 -2.56556,2.6571 v 7.0095 h -7.33017 v -33.4439 h 7.33017 v 19.3791 l 8.10901,-9.9873 h 7.78831 l -8.65877,10.3539 9.39179,13.6982 z"
           style="font-style:normal;font-variant:normal;font-weight:bold;font-stretch:normal;font-family:Raleway;-inkscape-font-specification:Raleway;fill:#386582;fill-opacity:1;stroke-width:1.14534"
           id="path2544" />
        <path
           d="m 821.251,1388.4358 v -19.9289 h 7.33018 v 19.9289 z m 0,12.9194 v -7.605 h 7.33018 v 7.605 z"
           style="font-style:normal;font-variant:normal;font-weight:bold;font-stretch:normal;font-family:Raleway;-inkscape-font-specification:Raleway;fill:#386582;fill-opacity:1;stroke-width:1.14534"
           id="path2546" />
      </g>
      <g
         aria-label="Állítsunk be néhány dolgot…"
         transform="matrix(0.26458334,0,0,0.26458334,-116.4687,-316.66515)"
         id="text115541"
         style="font-size:18.983px;line-height:1.25;font-family:'Roboto Condensed';-inkscape-font-specification:'Roboto Condensed, ';fill:#386582;fill-opacity:1;stroke-width:0.474573">
        <path
           d="m 577.91605,1407.3438 h 2.80948 l 4.9166,13.478 h -3.18914 l -1.04407,-3.0183 h -4.19524 l -1.02508,3.0183 h -3.18915 z m 2.98033,8.3146 -1.57559,-4.7647 -1.61355,4.7647 z m -0.70237,-9.2068 -1.93627,-0.5315 0.98712,-2.4678 h 2.75253 z"
           style="font-style:normal;font-variant:normal;font-weight:bold;font-stretch:normal;font-family:Raleway;-inkscape-font-specification:Raleway;fill:#386582;fill-opacity:1;stroke-width:0.474573"
           id="path2549" />
        <path
           d="m 586.68616,1406.9642 h 3.03728 v 10.3078 q 0,1.1389 0.96813,1.1389 0.2278,0 0.49356,-0.057 0.28475,-0.076 0.51254,-0.2088 l 0.39865,2.2779 q -0.56949,0.2658 -1.30983,0.4177 -0.74034,0.1518 -1.38576,0.1518 -1.30983,0 -2.0122,-0.6834 -0.70237,-0.6834 -0.70237,-1.9742 z"
           style="font-style:normal;font-variant:normal;font-weight:bold;font-stretch:normal;font-family:Raleway;-inkscape-font-specification:Raleway;fill:#386582;fill-opacity:1;stroke-width:0.474573"
           id="path2551" />
        <path
           d="m 593.04545,1406.9642 h 3.03728 v 10.3078 q 0,1.1389 0.96813,1.1389 0.2278,0 0.49356,-0.057 0.28475,-0.076 0.51254,-0.2088 l 0.39864,2.2779 q -0.56949,0.2658 -1.30982,0.4177 -0.74034,0.1518 -1.38576,0.1518 -1.30983,0 -2.0122,-0.6834 -0.70237,-0.6834 -0.70237,-1.9742 z"
           style="font-style:normal;font-variant:normal;font-weight:bold;font-stretch:normal;font-family:Raleway;-inkscape-font-specification:Raleway;fill:#386582;fill-opacity:1;stroke-width:0.474573"
           id="path2553" />
        <path
           d="m 601.81558,1409.9635 -1.93627,-0.5315 0.98712,-2.4678 h 2.75253 z m -2.37288,10.8583 v -9.9661 h 3.03728 v 9.9661 z"
           style="font-style:normal;font-variant:normal;font-weight:bold;font-stretch:normal;font-family:Raleway;-inkscape-font-specification:Raleway;fill:#386582;fill-opacity:1;stroke-width:0.474573"
           id="path2555" />
        <path
           d="m 611.02231,1420.2903 q -0.62644,0.2657 -1.44271,0.4935 -0.79729,0.2278 -1.61356,0.2278 -0.56949,0 -1.08203,-0.1519 -0.49356,-0.1328 -0.87322,-0.4366 -0.37966,-0.3227 -0.60745,-0.8352 -0.20881,-0.5126 -0.20881,-1.2339 v -5.2014 h -1.27187 v -2.2969 h 1.27187 v -3.1702 h 3.03728 v 3.1702 h 2.03118 v 2.2969 h -2.03118 v 4.1573 q 0,0.4936 0.24677,0.7214 0.24678,0.2088 0.62644,0.2088 0.3417,0 0.70237,-0.1139 0.36068,-0.1139 0.62644,-0.2468 z"
           style="font-style:normal;font-variant:normal;font-weight:bold;font-stretch:normal;font-family:Raleway;-inkscape-font-specification:Raleway;fill:#386582;fill-opacity:1;stroke-width:0.474573"
           id="path2557" />
        <path
           d="m 616.1287,1421.0116 q -1.27186,0 -2.50575,-0.3986 -1.2339,-0.4177 -2.08813,-1.196 l 1.08203,-1.8603 q 0.91118,0.6264 1.76542,0.9681 0.87322,0.3417 1.6705,0.3417 0.58848,0 0.91119,-0.2088 0.32271,-0.2088 0.32271,-0.6074 0,-0.3987 -0.41763,-0.6265 -0.39864,-0.2468 -1.42372,-0.5125 -1.0061,-0.2848 -1.70847,-0.5505 -0.68339,-0.2658 -1.12,-0.5885 -0.43661,-0.3227 -0.62644,-0.7403 -0.18983,-0.4177 -0.18983,-0.9872 0,-0.7593 0.30373,-1.3857 0.30373,-0.6265 0.83525,-1.0631 0.53152,-0.4366 1.25288,-0.6833 0.74034,-0.2468 1.59457,-0.2468 1.12,0 2.08813,0.3037 0.98712,0.3037 1.8983,1.101 l -1.17695,1.8224 q -0.85423,-0.5885 -1.51864,-0.8543 -0.6644,-0.2657 -1.29084,-0.2657 -0.49356,0 -0.83525,0.2088 -0.3417,0.1898 -0.3417,0.6264 0,0.4177 0.36068,0.6265 0.37966,0.2088 1.38576,0.4556 1.06305,0.2847 1.7844,0.5695 0.74034,0.2847 1.19593,0.6454 0.45559,0.3417 0.66441,0.7973 0.20881,0.4556 0.20881,1.082 0,1.4807 -1.10101,2.3539 -1.10102,0.8732 -2.98034,0.8732 z"
           style="font-style:normal;font-variant:normal;font-weight:bold;font-stretch:normal;font-family:Raleway;-inkscape-font-specification:Raleway;fill:#386582;fill-opacity:1;stroke-width:0.474573"
           id="path2559" />
        <path
           d="m 624.69001,1421.0116 q -1.53762,0 -2.33491,-0.9491 -0.7783,-0.9682 -0.7783,-2.8285 v -6.3783 h 3.03728 v 5.7139 q 0,0.9112 0.36067,1.4047 0.36068,0.4746 1.02509,0.4746 0.60745,0 1.17694,-0.3227 0.56949,-0.3227 1.0061,-1.12 v -6.1505 h 3.03728 v 6.5491 q 0,0.4556 0.13288,0.6455 0.15187,0.1708 0.51254,0.2088 v 2.5627 q -0.43661,0.095 -0.74033,0.1139 -0.30373,0.038 -0.55051,0.038 -1.63254,0 -1.86033,-1.2718 l -0.057,-0.6075 q -0.68339,0.9871 -1.70847,1.4617 -1.0061,0.4556 -2.25898,0.4556 z"
           style="font-style:normal;font-variant:normal;font-weight:bold;font-stretch:normal;font-family:Raleway;-inkscape-font-specification:Raleway;fill:#386582;fill-opacity:1;stroke-width:0.474573"
           id="path2561" />
        <path
           d="m 643.17943,1420.8218 h -3.03728 v -5.6 q 0,-0.9871 -0.37966,-1.4237 -0.36068,-0.4556 -0.96813,-0.4556 -0.32271,0 -0.64542,0.1329 -0.32271,0.1328 -0.62644,0.3796 -0.30373,0.2278 -0.55051,0.5505 -0.2278,0.3227 -0.36068,0.7024 v 5.7139 h -3.03728 v -9.9661 h 2.73356 v 1.6705 q 0.5505,-0.8922 1.5566,-1.3668 1.0061,-0.4935 2.31593,-0.4935 0.96813,0 1.5566,0.3606 0.58848,0.3417 0.91119,0.9112 0.32271,0.5505 0.41762,1.2149 0.1139,0.6645 0.1139,1.2909 z"
           style="font-style:normal;font-variant:normal;font-weight:bold;font-stretch:normal;font-family:Raleway;-inkscape-font-specification:Raleway;fill:#386582;fill-opacity:1;stroke-width:0.474573"
           id="path2563" />
        <path
           d="m 651.89262,1420.8218 -2.60067,-4.0054 -1.06305,1.101 v 2.9044 h -3.03728 v -13.8576 h 3.03728 v 8.0298 l 3.35999,-4.1383 h 3.22711 l -3.58779,4.2902 3.89152,5.6759 z"
           style="font-style:normal;font-variant:normal;font-weight:bold;font-stretch:normal;font-family:Raleway;-inkscape-font-specification:Raleway;fill:#386582;fill-opacity:1;stroke-width:0.474573"
           id="path2565" />
        <path
           d="m 666.3956,1421.0116 q -1.13898,0 -1.99322,-0.4746 -0.85423,-0.4935 -1.34779,-1.3667 v 1.6515 h -2.63864 v -13.8576 h 3.03728 v 5.524 q 0.49356,-0.8542 1.30983,-1.3288 0.83525,-0.4935 1.95525,-0.4935 0.94915,0 1.74643,0.4176 0.79729,0.3986 1.36678,1.101 0.56949,0.7024 0.8922,1.6705 0.32271,0.9492 0.32271,2.0312 0,1.082 -0.36067,2.0312 -0.3417,0.9301 -0.96814,1.6325 -0.62644,0.6834 -1.48067,1.082 -0.85424,0.3797 -1.84135,0.3797 z m -0.85424,-2.5627 q 0.53153,0 0.96814,-0.1898 0.4366,-0.2088 0.74033,-0.5505 0.32271,-0.3417 0.49356,-0.7973 0.18983,-0.4746 0.18983,-1.0251 0,-0.5315 -0.17085,-1.0061 -0.17084,-0.4936 -0.47457,-0.8542 -0.28475,-0.3607 -0.70237,-0.5695 -0.41763,-0.2088 -0.8922,-0.2088 -0.72136,0 -1.32881,0.4935 -0.58848,0.4936 -0.91119,1.2339 v 2.0881 q 0.30373,0.6455 0.87322,1.0251 0.58847,0.3607 1.21491,0.3607 z"
           style="font-style:normal;font-variant:normal;font-weight:bold;font-stretch:normal;font-family:Raleway;-inkscape-font-specification:Raleway;fill:#386582;fill-opacity:1;stroke-width:0.474573"
           id="path2567" />
        <path
           d="m 677.32979,1421.0116 q -1.25287,0 -2.25897,-0.3986 -0.98712,-0.4177 -1.68949,-1.12 -0.68339,-0.7024 -1.04406,-1.6136 -0.36068,-0.9302 -0.36068,-1.9363 0,-1.082 0.36068,-2.0311 0.36067,-0.9682 1.04406,-1.6895 0.68339,-0.7214 1.6705,-1.139 1.0061,-0.4176 2.27796,-0.4176 1.27187,0 2.25898,0.4176 0.98712,0.4176 1.6705,1.139 0.68339,0.7023 1.02509,1.6325 0.36067,0.9302 0.36067,1.9553 0,0.2657 -0.019,0.5315 -0.019,0.2468 -0.0569,0.4366 h -7.3654 q 0.0759,1.0061 0.72135,1.5376 0.66441,0.5126 1.49966,0.5126 0.6644,0 1.27186,-0.3227 0.62644,-0.3228 0.83525,-0.8733 l 2.58169,0.7214 q -0.58847,1.1769 -1.82237,1.9173 -1.23389,0.7403 -2.96135,0.7403 z m 2.10712,-6.1125 q -0.0949,-0.9492 -0.68339,-1.4997 -0.58847,-0.5505 -1.46169,-0.5505 -0.8922,0 -1.48068,0.5695 -0.56949,0.5505 -0.6644,1.4807 z"
           style="font-style:normal;font-variant:normal;font-weight:bold;font-stretch:normal;font-family:Raleway;-inkscape-font-specification:Raleway;fill:#386582;fill-opacity:1;stroke-width:0.474573"
           id="path2569" />
        <path
           d="m 698.05919,1420.8218 h -3.03728 v -5.6 q 0,-0.9871 -0.37966,-1.4237 -0.36068,-0.4556 -0.96813,-0.4556 -0.32271,0 -0.64542,0.1329 -0.32271,0.1328 -0.62644,0.3796 -0.30373,0.2278 -0.55051,0.5505 -0.2278,0.3227 -0.36068,0.7024 v 5.7139 h -3.03728 v -9.9661 h 2.73356 v 1.6705 q 0.5505,-0.8922 1.5566,-1.3668 1.0061,-0.4935 2.31593,-0.4935 0.96813,0 1.5566,0.3606 0.58848,0.3417 0.91119,0.9112 0.32271,0.5505 0.41762,1.2149 0.1139,0.6645 0.1139,1.2909 z"
           style="font-style:normal;font-variant:normal;font-weight:bold;font-stretch:normal;font-family:Raleway;-inkscape-font-specification:Raleway;fill:#386582;fill-opacity:1;stroke-width:0.474573"
           id="path2571" />
        <path
           d="m 705.67136,1409.9635 -1.93626,-0.5315 0.98711,-2.4678 h 2.75254 z m -0.83525,11.0481 q -1.25288,0 -2.25898,-0.3986 -0.98711,-0.4177 -1.68948,-1.12 -0.68339,-0.7024 -1.04407,-1.6136 -0.36067,-0.9302 -0.36067,-1.9363 0,-1.082 0.36067,-2.0311 0.36068,-0.9682 1.04407,-1.6895 0.68339,-0.7214 1.6705,-1.139 1.0061,-0.4176 2.27796,-0.4176 1.27186,0 2.25898,0.4176 0.98711,0.4176 1.6705,1.139 0.68339,0.7023 1.02508,1.6325 0.36068,0.9302 0.36068,1.9553 0,0.2657 -0.019,0.5315 -0.019,0.2468 -0.057,0.4366 h -7.3654 q 0.0759,1.0061 0.72135,1.5376 0.6644,0.5126 1.49966,0.5126 0.6644,0 1.27186,-0.3227 0.62644,-0.3228 0.83525,-0.8733 l 2.58169,0.7214 q -0.58848,1.1769 -1.82237,1.9173 -1.2339,0.7403 -2.96135,0.7403 z m 2.10711,-6.1125 q -0.0949,-0.9492 -0.68338,-1.4997 -0.58848,-0.5505 -1.46169,-0.5505 -0.89221,0 -1.48068,0.5695 -0.56949,0.5505 -0.6644,1.4807 z"
           style="font-style:normal;font-variant:normal;font-weight:bold;font-stretch:normal;font-family:Raleway;-inkscape-font-specification:Raleway;fill:#386582;fill-opacity:1;stroke-width:0.474573"
           id="path2573" />
        <path
           d="m 721.14247,1420.8218 h -3.03728 v -5.6 q 0,-0.9681 -0.37966,-1.4237 -0.37966,-0.4556 -1.04406,-0.4556 -0.26576,0 -0.58847,0.1329 -0.30373,0.1139 -0.60746,0.3606 -0.28474,0.2278 -0.53152,0.5505 -0.24678,0.3228 -0.37966,0.7214 v 5.7139 h -3.03728 v -13.8576 h 3.03728 v 5.562 q 0.5505,-0.8922 1.4427,-1.3668 0.91119,-0.4935 1.99322,-0.4935 1.0061,0 1.61355,0.3606 0.62644,0.3417 0.94915,0.8923 0.3417,0.5315 0.4556,1.2149 0.11389,0.6644 0.11389,1.3098 z"
           style="font-style:normal;font-variant:normal;font-weight:bold;font-stretch:normal;font-family:Raleway;-inkscape-font-specification:Raleway;fill:#386582;fill-opacity:1;stroke-width:0.474573"
           id="path2575" />
        <path
           d="m 725.98313,1421.0116 q -0.74034,0 -1.38576,-0.2278 -0.62644,-0.2468 -1.08203,-0.6644 -0.45559,-0.4366 -0.72136,-1.0061 -0.26576,-0.5885 -0.26576,-1.2719 0,-0.7403 0.30373,-1.3477 0.32271,-0.6075 0.8922,-1.0441 0.56949,-0.4366 1.34779,-0.6834 0.77831,-0.2468 1.72746,-0.2468 0.62644,0 1.21491,0.1139 0.58847,0.095 1.02508,0.3037 v -0.4555 q 0,-1.7275 -1.99321,-1.7275 -0.81627,0 -1.55661,0.2847 -0.74034,0.2658 -1.55661,0.8163 l -0.8922,-1.8983 q 0.98712,-0.6454 2.05017,-0.9681 1.06304,-0.3227 2.25897,-0.3227 2.25898,0 3.49288,1.063 1.23389,1.0631 1.23389,3.1132 v 2.5627 q 0,0.4556 0.13288,0.6455 0.15187,0.1708 0.51254,0.2088 v 2.5627 q -0.39864,0.095 -0.72135,0.1139 -0.32271,0.038 -0.58847,0.038 -0.85424,0 -1.29085,-0.3227 -0.43661,-0.3417 -0.55051,-0.9491 l -0.0569,-0.4556 q -0.66441,0.8542 -1.59458,1.3098 -0.91118,0.4556 -1.93626,0.4556 z m 0.8922,-2.183 q 0.49356,0 0.94915,-0.1709 0.47457,-0.1708 0.7783,-0.4556 0.43661,-0.3417 0.43661,-0.7213 v -0.9492 q -0.39864,-0.1518 -0.87322,-0.2278 -0.45559,-0.095 -0.85423,-0.095 -0.83525,0 -1.38576,0.3797 -0.53153,0.3796 -0.53153,0.9871 0,0.5505 0.41763,0.9112 0.41763,0.3417 1.06305,0.3417 z m 1.34779,-8.8651 -1.93626,-0.5315 0.98711,-2.4678 h 2.75254 z"
           style="font-style:normal;font-variant:normal;font-weight:bold;font-stretch:normal;font-family:Raleway;-inkscape-font-specification:Raleway;fill:#386582;fill-opacity:1;stroke-width:0.474573"
           id="path2577" />
        <path
           d="m 743.88407,1420.8218 h -3.03728 v -5.6 q 0,-0.9871 -0.37966,-1.4237 -0.36068,-0.4556 -0.96814,-0.4556 -0.32271,0 -0.64542,0.1329 -0.32271,0.1328 -0.62644,0.3796 -0.30373,0.2278 -0.5505,0.5505 -0.2278,0.3227 -0.36068,0.7024 v 5.7139 h -3.03728 v -9.9661 h 2.73355 v 1.6705 q 0.55051,-0.8922 1.55661,-1.3668 1.0061,-0.4935 2.31592,-0.4935 0.96814,0 1.55661,0.3606 0.58847,0.3417 0.91118,0.9112 0.32271,0.5505 0.41763,1.2149 0.1139,0.6645 0.1139,1.2909 z"
           style="font-style:normal;font-variant:normal;font-weight:bold;font-stretch:normal;font-family:Raleway;-inkscape-font-specification:Raleway;fill:#386582;fill-opacity:1;stroke-width:0.474573"
           id="path2579" />
        <path
           d="m 745.74437,1422.3214 q 0.37966,0.1329 0.70237,0.1899 0.3417,0.057 0.60746,0.057 0.55051,0 0.85423,-0.3796 0.30373,-0.3797 0.55051,-1.3668 l -3.7966,-9.9661 h 3.1322 l 2.31592,7.3654 1.99322,-7.3654 h 2.84745 l -3.7966,11.5796 q -0.39865,1.2339 -1.42373,1.9932 -1.02508,0.7784 -2.42982,0.7784 -0.37966,0 -0.77831,-0.076 -0.37966,-0.057 -0.7783,-0.2088 z"
           style="font-style:normal;font-variant:normal;font-weight:bold;font-stretch:normal;font-family:Raleway;-inkscape-font-specification:Raleway;fill:#386582;fill-opacity:1;stroke-width:0.474573"
           id="path2581" />
        <path
           d="m 764.1958,1421.0116 q -1.02508,0 -1.8983,-0.3797 -0.85423,-0.3986 -1.48067,-1.101 -0.62644,-0.7023 -0.98712,-1.6325 -0.34169,-0.9492 -0.34169,-2.0692 0,-1.082 0.32271,-2.0311 0.32271,-0.9492 0.91118,-1.6326 0.58848,-0.7023 1.38576,-1.101 0.81627,-0.3986 1.7844,-0.3986 1.04407,0 1.87932,0.4935 0.85424,0.4936 1.30983,1.3288 v -5.524 h 3.03728 v 10.4406 q 0,0.4556 0.13288,0.6455 0.15186,0.1708 0.51254,0.2088 v 2.5627 q -0.41763,0.095 -0.72135,0.1139 -0.30373,0.038 -0.56949,0.038 -0.79729,0 -1.29085,-0.3227 -0.49356,-0.3417 -0.56949,-0.9681 l -0.057,-0.5125 q -0.53152,0.9301 -1.44271,1.3857 -0.8922,0.4556 -1.91728,0.4556 z m 0.81627,-2.5627 q 0.62644,0 1.19593,-0.3607 0.58847,-0.3796 0.8922,-1.0251 v -2.0881 q -0.28474,-0.7593 -0.93017,-1.2339 -0.62644,-0.4935 -1.30982,-0.4935 -0.49356,0 -0.91119,0.2278 -0.39864,0.2088 -0.70237,0.5694 -0.30373,0.3607 -0.47457,0.8353 -0.15187,0.4746 -0.15187,1.0061 0,0.5505 0.17085,1.0251 0.18983,0.4746 0.49356,0.8162 0.32271,0.3417 0.75932,0.5316 0.45559,0.1898 0.96813,0.1898 z"
           style="font-style:normal;font-variant:normal;font-weight:bold;font-stretch:normal;font-family:Raleway;-inkscape-font-specification:Raleway;fill:#386582;fill-opacity:1;stroke-width:0.474573"
           id="path2583" />
        <path
           d="m 777.21813,1421.0116 q -1.27186,0 -2.27796,-0.4176 -0.98712,-0.4176 -1.6705,-1.12 -0.68339,-0.7214 -1.04407,-1.6515 -0.34169,-0.9492 -0.34169,-1.9743 0,-1.0251 0.34169,-1.9552 0.36068,-0.9492 1.04407,-1.6515 0.68338,-0.7214 1.6705,-1.139 1.0061,-0.4366 2.27796,-0.4366 1.27186,0 2.25898,0.4366 0.98711,0.4176 1.6705,1.139 0.68339,0.7023 1.04407,1.6515 0.36067,0.9301 0.36067,1.9552 0,1.0251 -0.36067,1.9743 -0.3417,0.9301 -1.02509,1.6515 -0.68338,0.7024 -1.68948,1.12 -0.98712,0.4176 -2.25898,0.4176 z m -2.22101,-5.1634 q 0,1.177 0.62644,1.8983 0.62644,0.7024 1.59457,0.7024 0.47457,0 0.87322,-0.1898 0.39864,-0.1899 0.68339,-0.5316 0.30372,-0.3416 0.47457,-0.8162 0.17085,-0.4936 0.17085,-1.0631 0,-1.1769 -0.62644,-1.8793 -0.62644,-0.7213 -1.57559,-0.7213 -0.47458,0 -0.8922,0.1898 -0.39864,0.1898 -0.70237,0.5315 -0.28475,0.3417 -0.45559,0.8353 -0.17085,0.4745 -0.17085,1.044 z"
           style="font-style:normal;font-variant:normal;font-weight:bold;font-stretch:normal;font-family:Raleway;-inkscape-font-specification:Raleway;fill:#386582;fill-opacity:1;stroke-width:0.474573"
           id="path2585" />
        <path
           d="m 784.01402,1406.9642 h 3.03728 v 10.3078 q 0,1.1389 0.96813,1.1389 0.2278,0 0.49356,-0.057 0.28474,-0.076 0.51254,-0.2088 l 0.39864,2.2779 q -0.56949,0.2658 -1.30982,0.4177 -0.74034,0.1518 -1.38576,0.1518 -1.30983,0 -2.0122,-0.6834 -0.70237,-0.6834 -0.70237,-1.9742 z"
           style="font-style:normal;font-variant:normal;font-weight:bold;font-stretch:normal;font-family:Raleway;-inkscape-font-specification:Raleway;fill:#386582;fill-opacity:1;stroke-width:0.474573"
           id="path2587" />
        <path
           d="m 794.2838,1420.8597 q -0.98712,0 -1.80339,-0.3986 -0.81626,-0.3986 -1.40474,-1.082 -0.56949,-0.6834 -0.8922,-1.5946 -0.32271,-0.9112 -0.32271,-1.9553 0,-1.101 0.34169,-2.0311 0.3417,-0.9492 0.94915,-1.6326 0.60746,-0.7023 1.4617,-1.101 0.85423,-0.3986 1.87931,-0.3986 1.13898,0 1.97423,0.4935 0.85424,0.4746 1.36678,1.3288 v -1.6325 h 2.63864 v 9.2827 q 0,1.139 -0.43661,2.0502 -0.41763,0.9111 -1.17695,1.5376 -0.75932,0.6454 -1.82237,0.9871 -1.06304,0.3417 -2.3349,0.3417 -1.61356,0 -2.75254,-0.5126 -1.13898,-0.5125 -1.99321,-1.4806 l 1.63253,-1.6515 q 0.55051,0.6264 1.36678,0.9871 0.81627,0.3796 1.74644,0.3796 0.5505,0 1.04406,-0.1518 0.49356,-0.1519 0.87322,-0.4746 0.37966,-0.3037 0.58847,-0.8163 0.2278,-0.4935 0.2278,-1.1959 v -0.9681 q -0.45559,0.8352 -1.30983,1.2718 -0.85423,0.4176 -1.84135,0.4176 z m 1.04406,-2.4108 q 0.70238,0 1.25288,-0.3797 0.55051,-0.3986 0.85424,-1.0061 v -2.0881 q -0.30373,-0.7973 -0.93017,-1.2529 -0.62644,-0.4745 -1.32881,-0.4745 -0.49356,0 -0.91118,0.2278 -0.39865,0.2088 -0.70237,0.5884 -0.28475,0.3607 -0.4556,0.8543 -0.15186,0.4745 -0.15186,0.9871 0,0.5505 0.17085,1.0251 0.18983,0.4556 0.51254,0.7972 0.32271,0.3417 0.74033,0.5316 0.43661,0.1898 0.94915,0.1898 z"
           style="font-style:normal;font-variant:normal;font-weight:bold;font-stretch:normal;font-family:Raleway;-inkscape-font-specification:Raleway;fill:#386582;fill-opacity:1;stroke-width:0.474573"
           id="path2589" />
        <path
           d="m 807.30613,1421.0116 q -1.27186,0 -2.27796,-0.4176 -0.98712,-0.4176 -1.67051,-1.12 -0.68339,-0.7214 -1.04406,-1.6515 -0.3417,-0.9492 -0.3417,-1.9743 0,-1.0251 0.3417,-1.9552 0.36067,-0.9492 1.04406,-1.6515 0.68339,-0.7214 1.67051,-1.139 1.0061,-0.4366 2.27796,-0.4366 1.27186,0 2.25897,0.4366 0.98712,0.4176 1.67051,1.139 0.68339,0.7023 1.04406,1.6515 0.36068,0.9301 0.36068,1.9552 0,1.0251 -0.36068,1.9743 -0.34169,0.9301 -1.02508,1.6515 -0.68339,0.7024 -1.68949,1.12 -0.98711,0.4176 -2.25897,0.4176 z m -2.22101,-5.1634 q 0,1.177 0.62643,1.8983 0.62644,0.7024 1.59458,0.7024 0.47457,0 0.87321,-0.1898 0.39865,-0.1899 0.68339,-0.5316 0.30373,-0.3416 0.47458,-0.8162 0.17084,-0.4936 0.17084,-1.0631 0,-1.1769 -0.62643,-1.8793 -0.62644,-0.7213 -1.57559,-0.7213 -0.47458,0 -0.8922,0.1898 -0.39865,0.1898 -0.70238,0.5315 -0.28474,0.3417 -0.45559,0.8353 -0.17084,0.4745 -0.17084,1.044 z"
           style="font-style:normal;font-variant:normal;font-weight:bold;font-stretch:normal;font-family:Raleway;-inkscape-font-specification:Raleway;fill:#386582;fill-opacity:1;stroke-width:0.474573"
           id="path2591" />
        <path
           d="m 820.46128,1420.2903 q -0.62644,0.2657 -1.44271,0.4935 -0.79728,0.2278 -1.61355,0.2278 -0.56949,0 -1.08203,-0.1519 -0.49356,-0.1328 -0.87322,-0.4366 -0.37966,-0.3227 -0.60746,-0.8352 -0.20881,-0.5126 -0.20881,-1.2339 v -5.2014 h -1.27186 v -2.2969 h 1.27186 v -3.1702 h 3.03728 v 3.1702 h 2.03118 v 2.2969 h -2.03118 v 4.1573 q 0,0.4936 0.24678,0.7214 0.24678,0.2088 0.62644,0.2088 0.34169,0 0.70237,-0.1139 0.36068,-0.1139 0.62644,-0.2468 z"
           style="font-style:normal;font-variant:normal;font-weight:bold;font-stretch:normal;font-family:Raleway;-inkscape-font-specification:Raleway;fill:#386582;fill-opacity:1;stroke-width:0.474573"
           id="path2593" />
        <path
           d="m 821.61923,1420.8218 v -3.0943 h 2.48677 v 3.0943 z m 3.98643,0 v -3.0943 h 2.46779 v 3.0943 z m 3.96745,0 v -3.0943 h 2.46779 v 3.0943 z"
           style="font-style:normal;font-variant:normal;font-weight:bold;font-stretch:normal;font-family:Raleway;-inkscape-font-specification:Raleway;fill:#386582;fill-opacity:1;stroke-width:0.474573"
           id="path2595" />
      </g>
    </g>
  </g>
</svg>
