<?xml version="1.0" encoding="UTF-8"?>
<svg width="700" height="220" version="1.1" viewBox="0 0 185.21 58.208" xmlns="http://www.w3.org/2000/svg">
<g transform="translate(-18.958 -31.678)">
<g fill="#386582">
<g stroke-width=".30304" aria-label="Willkommen!">
<path d="m32.345 44.795h1.4207l0.89495 2.6289 0.89495-2.6289h1.4319l-1.3536 3.6134 1.0068 2.5394 2.2486-6.1752h1.678l-3.233 7.9427h-1.2977l-1.376-3.3337-1.376 3.3337h-1.2977l-3.2106-7.9427h1.6557l2.2598 6.1752 0.98445-2.5394z"/>
<path d="m41.238 52.715v-5.8619h1.499v5.8619zm0-6.6786v-1.4879h1.499v1.4879z"/>
<path d="m44.08 44.549h1.499v6.287q0 0.32442 0.15662 0.50341 0.15662 0.17899 0.44748 0.17899 0.13424 0 0.29086-0.04475 0.1678-0.04475 0.31323-0.11187l0.20136 1.1411q-0.30205 0.14543-0.70477 0.22374-0.40273 0.07831-0.72715 0.07831-0.70478 0-1.0963-0.36917-0.38036-0.38036-0.38036-1.0739z"/>
<path d="m47.626 44.549h1.499v6.287q0 0.32442 0.15662 0.50341 0.15662 0.17899 0.44748 0.17899 0.13424 0 0.29086-0.04475 0.1678-0.04475 0.31323-0.11187l0.20136 1.1411q-0.30205 0.14543-0.70478 0.22374-0.40273 0.07831-0.72715 0.07831-0.70478 0-1.0963-0.36917-0.38036-0.38036-0.38036-1.0739z"/>
<path d="m55.188 52.715-1.7004-2.5394-0.80546 0.79427v1.7452h-1.499v-8.1664h1.499v4.9558l2.3492-2.6401h1.5997l-2.1814 2.4835 2.3381 3.3673z"/>
<path d="m59.831 52.827q-0.71596 0-1.2865-0.24611t-0.97326-0.66003q-0.39154-0.4251-0.60409-0.97326t-0.21255-1.1523q0-0.61528 0.21255-1.1634 0.21255-0.54816 0.60409-0.96207 0.40273-0.4251 0.97326-0.67121t1.2865-0.24611q0.71596 0 1.2753 0.24611 0.57053 0.24611 0.96207 0.67121 0.40273 0.41392 0.61528 0.96207 0.21255 0.54816 0.21255 1.1634 0 0.60409-0.21255 1.1523t-0.60409 0.97326q-0.39154 0.41392-0.96207 0.66003t-1.2865 0.24611zm-1.5326-3.0316q0 0.39154 0.11187 0.71596 0.12306 0.31323 0.32442 0.54816 0.21255 0.23492 0.49222 0.36917 0.27967 0.12306 0.60409 0.12306t0.60409-0.12306q0.27967-0.13424 0.48104-0.36917 0.21255-0.23492 0.32442-0.55934 0.12306-0.32442 0.12306-0.71596 0-0.38035-0.12306-0.70477-0.11187-0.32442-0.32442-0.55934-0.20136-0.23492-0.48104-0.35798-0.27967-0.13424-0.60409-0.13424t-0.60409 0.13424q-0.27967 0.13424-0.49222 0.36917-0.20136 0.23492-0.32442 0.55934-0.11187 0.32442-0.11187 0.70478z"/>
<path d="m73.009 52.715h-1.499v-3.2889q0-0.70477-0.24611-1.0292-0.23492-0.32442-0.66003-0.32442-0.44748 0-0.83902 0.34679-0.39154 0.33561-0.55934 0.88377v3.412h-1.499v-3.2889q0-0.70477-0.24611-1.0292-0.23492-0.32442-0.66003-0.32442-0.43629 0-0.83902 0.33561-0.39154 0.33561-0.55934 0.88376v3.4232h-1.499v-5.8619h1.3536v1.0851q0.32442-0.57053 0.88376-0.87258 0.57053-0.31323 1.2977-0.31323 0.73834 0 1.1411 0.35798 0.40273 0.35798 0.5146 0.88376 0.35798-0.60409 0.90614-0.91733 0.54816-0.32442 1.2529-0.32442 0.53697 0 0.88376 0.20136 0.34679 0.20136 0.53697 0.52578 0.19018 0.32442 0.2573 0.73834 0.07831 0.41392 0.07831 0.83902z"/>
<path d="m83.424 52.715h-1.499v-3.2889q0-0.70477-0.24611-1.0292-0.23492-0.32442-0.66003-0.32442-0.44748 0-0.83902 0.34679-0.39154 0.33561-0.55934 0.88377v3.412h-1.499v-3.2889q0-0.70477-0.24611-1.0292-0.23492-0.32442-0.66003-0.32442-0.43629 0-0.83902 0.33561-0.39154 0.33561-0.55934 0.88376v3.4232h-1.499v-5.8619h1.3536v1.0851q0.32442-0.57053 0.88377-0.87258 0.57053-0.31323 1.2977-0.31323 0.73834 0 1.1411 0.35798 0.40273 0.35798 0.5146 0.88376 0.35798-0.60409 0.90614-0.91733 0.54816-0.32442 1.2529-0.32442 0.53697 0 0.88376 0.20136 0.34679 0.20136 0.53697 0.52578 0.19018 0.32442 0.2573 0.73834 0.07831 0.41392 0.07831 0.83902z"/>
<path d="m87.451 52.827q-0.70478 0-1.2753-0.23492-0.57053-0.24611-0.97326-0.66003-0.40273-0.41392-0.62647-0.96207-0.21255-0.54816-0.21255-1.1523 0-0.62647 0.21255-1.1746 0.21255-0.55934 0.61528-0.97326 0.40273-0.4251 0.97326-0.67121 0.58172-0.24611 1.2977-0.24611t1.2753 0.24611q0.57053 0.24611 0.96207 0.66003 0.40273 0.41392 0.60409 0.96207 0.21255 0.54816 0.21255 1.1411 0 0.14543-0.01119 0.27967 0 0.13424-0.02237 0.22374h-4.5307q0.03356 0.34679 0.1678 0.61528 0.13424 0.26849 0.34679 0.45866 0.21255 0.19018 0.48104 0.29086 0.26848 0.10068 0.55934 0.10068 0.44748 0 0.83902-0.21255 0.40273-0.22374 0.54816-0.58172l1.2865 0.35798q-0.32442 0.67121-1.0404 1.1075-0.70478 0.4251-1.6892 0.4251zm1.5214-3.5351q-0.05594-0.66003-0.49222-1.0516-0.4251-0.40273-1.0404-0.40273-0.30205 0-0.57053 0.11187-0.2573 0.10068-0.45866 0.29086-0.20136 0.19018-0.33561 0.45866-0.12306 0.26849-0.14543 0.59291z"/>
<path d="m96.882 52.715h-1.499v-3.2889q0-0.70477-0.24611-1.0292-0.24611-0.32442-0.6824-0.32442-0.22374 0-0.45866 0.08949t-0.44748 0.2573q-0.20136 0.15662-0.36917 0.38036-0.1678 0.22374-0.24611 0.49222v3.4232h-1.499v-5.8619h1.3536v1.0851q0.32442-0.55934 0.9397-0.87258 0.61528-0.31323 1.3872-0.31323 0.54816 0 0.89495 0.20136 0.34679 0.20136 0.53697 0.52578t0.2573 0.73834q0.07831 0.41392 0.07831 0.83902z"/>
<path d="m98.481 49.728v-5.0341h1.499v5.0341zm0 2.9869v-1.6892h1.499v1.6892z"/>
</g>
<g stroke-width=".12556" aria-label="Lass uns ein paar          Dinge einrichten…">
<path d="m35.499 58.731v-3.566h0.69312v2.9583h1.8182v0.60773z"/>
<path d="m39.085 58.782q-0.19086 0-0.3566-0.06027-0.16574-0.06529-0.28629-0.17579-0.12054-0.11552-0.19086-0.2662-0.06529-0.15068-0.06529-0.33149 0-0.18584 0.08036-0.34154 0.08538-0.16072 0.23104-0.27122 0.15068-0.1105 0.3566-0.17077 0.20593-0.06529 0.45203-0.06529 0.17579 0 0.34154 0.03014 0.17077 0.03014 0.30136 0.08538v-0.15068q0-0.26118-0.15068-0.40181-0.14566-0.14063-0.43696-0.14063-0.21095 0-0.41185 0.07534-0.2009 0.07534-0.41185 0.22099l-0.20593-0.42692q0.50728-0.33651 1.0949-0.33651 0.56755 0 0.87895 0.28126 0.31642 0.27624 0.31642 0.80362v0.81868q0 0.10547 0.03516 0.15068 0.04018 0.0452 0.12556 0.05023v0.57258q-0.17077 0.03516-0.29633 0.03516-0.19086 0-0.29633-0.08538-0.10045-0.08538-0.12556-0.22602l-0.01507-0.14566q-0.17579 0.23104-0.42692 0.35158-0.25113 0.12054-0.53742 0.12054zm0.19086-0.49221q0.17077 0 0.32145-0.06027 0.1557-0.06027 0.24108-0.16072 0.1105-0.08538 0.1105-0.19086v-0.30136q-0.12054-0.0452-0.26118-0.07032-0.14063-0.03014-0.27122-0.03014-0.26117 0-0.42692 0.12054-0.16574 0.11552-0.16574 0.29633 0 0.17077 0.13059 0.28629 0.13059 0.1105 0.32145 0.1105z"/>
<path d="m42.244 58.782q-0.33149 0-0.64791-0.10548-0.31642-0.10547-0.54244-0.30136l0.25113-0.4219q0.24108 0.17077 0.4671 0.26118 0.23104 0.08538 0.45706 0.08538 0.2009 0 0.31642-0.07534 0.11552-0.07534 0.11552-0.21597 0-0.14063-0.13561-0.20593-0.13561-0.06529-0.44199-0.15068-0.25615-0.07032-0.43697-0.13561t-0.29131-0.14566q-0.1105-0.08538-0.16072-0.19086-0.05023-0.1105-0.05023-0.26118 0-0.2009 0.07534-0.36163 0.08036-0.16072 0.22099-0.27122 0.14063-0.11552 0.32647-0.17579 0.19086-0.06027 0.41185-0.06027 0.29633 0 0.55248 0.08538 0.26117 0.08538 0.47715 0.27624l-0.27122 0.40683q-0.2009-0.15068-0.39176-0.22099-0.18584-0.07032-0.37167-0.07032-0.17077 0-0.28629 0.07032-0.11552 0.07032-0.11552 0.22602 0 0.07032 0.02511 0.11552 0.03014 0.0452 0.09041 0.08036t0.1557 0.07032q0.10045 0.03014 0.24611 0.06529 0.27122 0.07032 0.46208 0.14063 0.19588 0.07032 0.31642 0.16072 0.12556 0.09041 0.18081 0.21095 0.06027 0.11552 0.06027 0.28126 0 0.38674-0.28629 0.61276-0.28629 0.22099-0.7785 0.22099z"/>
<path d="m44.741 58.782q-0.33149 0-0.64791-0.10548-0.31642-0.10547-0.54244-0.30136l0.25113-0.4219q0.24108 0.17077 0.4671 0.26118 0.23104 0.08538 0.45706 0.08538 0.2009 0 0.31642-0.07534 0.11552-0.07534 0.11552-0.21597 0-0.14063-0.13561-0.20593-0.13561-0.06529-0.44199-0.15068-0.25615-0.07032-0.43696-0.13561-0.18081-0.06529-0.29131-0.14566-0.1105-0.08538-0.16072-0.19086-0.05022-0.1105-0.05022-0.26118 0-0.2009 0.07534-0.36163 0.08036-0.16072 0.22099-0.27122 0.14063-0.11552 0.32647-0.17579 0.19086-0.06027 0.41185-0.06027 0.29633 0 0.55248 0.08538 0.26118 0.08538 0.47715 0.27624l-0.27122 0.40683q-0.2009-0.15068-0.39176-0.22099-0.18584-0.07032-0.37167-0.07032-0.17077 0-0.28629 0.07032-0.11552 0.07032-0.11552 0.22602 0 0.07032 0.02511 0.11552 0.03014 0.0452 0.09041 0.08036t0.1557 0.07032q0.10045 0.03014 0.24611 0.06529 0.27122 0.07032 0.46208 0.14063 0.19588 0.07032 0.31642 0.16072 0.12556 0.09041 0.18081 0.21095 0.06027 0.11552 0.06027 0.28126 0 0.38674-0.28629 0.61276-0.28629 0.22099-0.7785 0.22099z"/>
<path d="m48.251 58.782q-0.40683 0-0.61778-0.26118-0.21095-0.26118-0.21095-0.77348v-1.6474h0.67303v1.5018q0 0.60773 0.43696 0.60773 0.19588 0 0.37669-0.11552 0.18584-0.12054 0.30136-0.36163v-1.6323h0.67303v1.8584q0 0.10547 0.03516 0.15068 0.04018 0.0452 0.12556 0.05023v0.57258q-0.10045 0.02009-0.17077 0.02511-0.06529 5e-3 -0.12054 5e-3 -0.18081 0-0.29633-0.08036-0.1105-0.08538-0.13059-0.23104l-0.01507-0.21095q-0.17579 0.27122-0.45203 0.40683-0.27624 0.13561-0.60773 0.13561z"/>
<path d="m52.998 58.731h-0.67303v-1.4766q0-0.31642-0.1105-0.46208t-0.30638-0.14566q-0.10045 0-0.20593 0.04018-0.10547 0.04018-0.2009 0.11552-0.09041 0.07032-0.16575 0.17077-0.07534 0.10045-0.1105 0.22099v1.5369h-0.67303v-2.6318h0.60773v0.48719q0.14566-0.25113 0.4219-0.39176 0.27624-0.14063 0.6228-0.14063 0.24611 0 0.40181 0.09041 0.1557 0.09041 0.24108 0.23606 0.08538 0.14566 0.11552 0.33149 0.03516 0.18584 0.03516 0.37669z"/>
<path d="m54.58 58.782q-0.33149 0-0.64791-0.10548-0.31642-0.10547-0.54244-0.30136l0.25113-0.4219q0.24108 0.17077 0.4671 0.26118 0.23104 0.08538 0.45706 0.08538 0.2009 0 0.31642-0.07534 0.11552-0.07534 0.11552-0.21597 0-0.14063-0.13561-0.20593-0.13561-0.06529-0.44199-0.15068-0.25615-0.07032-0.43696-0.13561t-0.29131-0.14566q-0.1105-0.08538-0.16072-0.19086-0.05023-0.1105-0.05023-0.26118 0-0.2009 0.07534-0.36163 0.08036-0.16072 0.22099-0.27122 0.14063-0.11552 0.32647-0.17579 0.19086-0.06027 0.41185-0.06027 0.29633 0 0.55248 0.08538 0.26118 0.08538 0.47715 0.27624l-0.27122 0.40683q-0.2009-0.15068-0.39176-0.22099-0.18584-0.07032-0.37167-0.07032-0.17077 0-0.28629 0.07032-0.11552 0.07032-0.11552 0.22602 0 0.07032 0.02511 0.11552 0.03014 0.0452 0.09041 0.08036t0.1557 0.07032q0.10045 0.03014 0.24611 0.06529 0.27122 0.07032 0.46208 0.14063 0.19588 0.07032 0.31642 0.16072 0.12556 0.09041 0.18081 0.21095 0.06027 0.11552 0.06027 0.28126 0 0.38674-0.28629 0.61276-0.28629 0.22099-0.7785 0.22099z"/>
<path d="m58.507 58.782q-0.31642 0-0.57258-0.10548-0.25615-0.1105-0.43696-0.29633-0.18081-0.18584-0.28126-0.43194-0.09543-0.24611-0.09543-0.51733 0-0.28126 0.09543-0.52737 0.09543-0.25113 0.27624-0.43696 0.18081-0.19086 0.43697-0.30136 0.26117-0.1105 0.58262-0.1105t0.57258 0.1105q0.25615 0.1105 0.43194 0.29633 0.18081 0.18584 0.27122 0.43194 0.09543 0.24611 0.09543 0.5123 0 0.06529-5e-3 0.12556 0 0.06027-0.01005 0.10045h-2.0341q0.01507 0.1557 0.07534 0.27624t0.1557 0.20593q0.09543 0.08538 0.21597 0.13059 0.12054 0.0452 0.25113 0.0452 0.2009 0 0.37669-0.09543 0.18081-0.10045 0.24611-0.26118l0.5776 0.16072q-0.14566 0.30136-0.4671 0.49724-0.31642 0.19086-0.75841 0.19086zm0.68307-1.5871q-0.02511-0.29633-0.22099-0.47212-0.19086-0.18081-0.4671-0.18081-0.13561 0-0.25615 0.05023-0.11552 0.0452-0.20593 0.13059-0.09041 0.08538-0.15068 0.20593-0.05525 0.12054-0.06529 0.2662z"/>
<path d="m60.296 58.731v-2.6318h0.67303v2.6318zm0-2.9985v-0.668h0.67303v0.668z"/>
<path d="m64.022 58.731h-0.67303v-1.4766q0-0.31642-0.1105-0.46208t-0.30638-0.14566q-0.10045 0-0.20593 0.04018t-0.2009 0.11552q-0.09041 0.07032-0.16574 0.17077-0.07534 0.10045-0.1105 0.22099v1.5369h-0.67303v-2.6318h0.60773v0.48719q0.14566-0.25113 0.4219-0.39176 0.27624-0.14063 0.6228-0.14063 0.24611 0 0.40181 0.09041 0.1557 0.09041 0.24108 0.23606 0.08538 0.14566 0.11552 0.33149 0.03516 0.18584 0.03516 0.37669z"/>
<path d="m67.392 58.782q-0.3114 0-0.54244-0.13561-0.23104-0.14063-0.36163-0.37669v1.5319h-0.67303v-3.7016h0.58764v0.45203q0.14566-0.23104 0.37669-0.36163 0.23104-0.13561 0.53239-0.13561 0.2662 0 0.49221 0.1105 0.22602 0.10548 0.38674 0.29131 0.16574 0.18081 0.25615 0.43194 0.09543 0.24611 0.09543 0.52235 0 0.28629-0.08538 0.53742-0.08538 0.25113-0.24108 0.43696-0.15068 0.18584-0.36163 0.29131-0.21095 0.10548-0.46208 0.10548zm-0.22602-0.57258q0.15068 0 0.27624-0.06529 0.13059-0.06529 0.22099-0.17579 0.09041-0.1105 0.14063-0.25615 0.05023-0.14566 0.05023-0.30136 0-0.16575-0.05525-0.30638-0.05525-0.14566-0.1557-0.25113-0.09543-0.10547-0.23104-0.16574-0.13059-0.06027-0.28629-0.06027-0.09543 0-0.19588 0.03516-0.10045 0.03014-0.18584 0.09041-0.08538 0.06027-0.1557 0.14063-0.06529 0.08036-0.10045 0.17579v0.61778q0.09041 0.22602 0.27624 0.37669 0.18584 0.14566 0.40181 0.14566z"/>
<path d="m69.718 58.782q-0.19086 0-0.3566-0.06027-0.16575-0.06529-0.28629-0.17579-0.12054-0.11552-0.19086-0.2662-0.06529-0.15068-0.06529-0.33149 0-0.18584 0.08036-0.34154 0.08538-0.16072 0.23104-0.27122 0.15068-0.1105 0.3566-0.17077 0.20593-0.06529 0.45203-0.06529 0.17579 0 0.34154 0.03014 0.17077 0.03014 0.30136 0.08538v-0.15068q0-0.26118-0.15068-0.40181-0.14566-0.14063-0.43696-0.14063-0.21095 0-0.41185 0.07534-0.2009 0.07534-0.41185 0.22099l-0.20593-0.42692q0.50728-0.33651 1.0949-0.33651 0.56755 0 0.87895 0.28126 0.31642 0.27624 0.31642 0.80362v0.81868q0 0.10547 0.03516 0.15068 0.04018 0.0452 0.12556 0.05023v0.57258q-0.17077 0.03516-0.29633 0.03516-0.19086 0-0.29633-0.08538-0.10045-0.08538-0.12556-0.22602l-0.01507-0.14566q-0.17579 0.23104-0.42692 0.35158-0.25113 0.12054-0.53742 0.12054zm0.19086-0.49221q0.17077 0 0.32145-0.06027 0.1557-0.06027 0.24108-0.16072 0.1105-0.08538 0.1105-0.19086v-0.30136q-0.12054-0.0452-0.26118-0.07032-0.14063-0.03014-0.27122-0.03014-0.26118 0-0.42692 0.12054-0.16574 0.11552-0.16574 0.29633 0 0.17077 0.13059 0.28629 0.13059 0.1105 0.32145 0.1105z"/>
<path d="m72.601 58.782q-0.19086 0-0.3566-0.06027-0.16575-0.06529-0.28629-0.17579-0.12054-0.11552-0.19086-0.2662-0.06529-0.15068-0.06529-0.33149 0-0.18584 0.08036-0.34154 0.08538-0.16072 0.23104-0.27122 0.15068-0.1105 0.3566-0.17077 0.20593-0.06529 0.45203-0.06529 0.17579 0 0.34154 0.03014 0.17077 0.03014 0.30136 0.08538v-0.15068q0-0.26118-0.15068-0.40181-0.14566-0.14063-0.43697-0.14063-0.21095 0-0.41185 0.07534-0.2009 0.07534-0.41185 0.22099l-0.20593-0.42692q0.50728-0.33651 1.0949-0.33651 0.56755 0 0.87895 0.28126 0.31642 0.27624 0.31642 0.80362v0.81868q0 0.10547 0.03516 0.15068 0.04018 0.0452 0.12556 0.05023v0.57258q-0.17077 0.03516-0.29633 0.03516-0.19086 0-0.29633-0.08538-0.10045-0.08538-0.12556-0.22602l-0.01507-0.14566q-0.17579 0.23104-0.42692 0.35158-0.25113 0.12054-0.53742 0.12054zm0.19086-0.49221q0.17077 0 0.32145-0.06027 0.1557-0.06027 0.24108-0.16072 0.1105-0.08538 0.1105-0.19086v-0.30136q-0.12054-0.0452-0.26117-0.07032-0.14063-0.03014-0.27122-0.03014-0.26118 0-0.42692 0.12054-0.16575 0.11552-0.16575 0.29633 0 0.17077 0.13059 0.28629 0.13059 0.1105 0.32145 0.1105z"/>
<path d="m76.333 56.682q-0.30638 5e-3 -0.54746 0.12054-0.24108 0.1105-0.34656 0.33651v1.5922h-0.67303v-2.6318h0.61778v0.56253q0.07032-0.13561 0.16575-0.24108 0.09543-0.1105 0.20593-0.19086 0.1105-0.08036 0.22099-0.12054 0.11552-0.0452 0.22099-0.0452 0.05525 0 0.08036 0 0.03014 0 0.05525 5e-3z"/>
<path d="m46.348 65.264v-3.566h1.2958q0.43697 0 0.76343 0.14063 0.33149 0.14063 0.55248 0.38172t0.33149 0.56755q0.1105 0.32145 0.1105 0.6881 0 0.40683-0.12556 0.73832-0.12054 0.32647-0.35158 0.56253-0.23104 0.23104-0.55751 0.36163-0.32144 0.12556-0.72325 0.12556zm2.3556-1.788q0-0.25615-0.07032-0.47212-0.07032-0.21597-0.20593-0.37167-0.13561-0.1557-0.33651-0.24108-0.19588-0.08538-0.44701-0.08538h-0.60271v2.3506h0.60271q0.25615 0 0.45203-0.09041 0.2009-0.09041 0.33149-0.24611 0.13561-0.16072 0.20593-0.3767 0.07032-0.21597 0.07032-0.4671z"/>
<path d="m49.879 65.264v-2.6318h0.67303v2.6318zm0-2.9985v-0.668h0.67303v0.668z"/>
<path d="m53.605 65.264h-0.67303v-1.4766q0-0.31642-0.1105-0.46208t-0.30638-0.14566q-0.10045 0-0.20593 0.04018t-0.2009 0.11552q-0.09041 0.07032-0.16574 0.17077-0.07534 0.10045-0.1105 0.22099v1.5369h-0.67303v-2.6318h0.60773v0.48719q0.14566-0.25113 0.4219-0.39176 0.27624-0.14063 0.6228-0.14063 0.24611 0 0.40181 0.09041 0.1557 0.09041 0.24108 0.23606 0.08538 0.14566 0.11552 0.33149 0.03516 0.18584 0.03516 0.3767z"/>
<path d="m55.223 65.279q-0.2662 0-0.48217-0.10547-0.21597-0.10547-0.37669-0.28629-0.1557-0.18584-0.24108-0.42692-0.08538-0.24108-0.08538-0.5123 0-0.28629 0.09041-0.53239 0.09041-0.24611 0.25113-0.43194 0.16072-0.18584 0.38674-0.29131 0.22602-0.10548 0.49724-0.10548 0.30638 0 0.53742 0.14063 0.23104 0.13561 0.38172 0.36665v-0.46208h0.58764v2.5063q0 0.29131-0.1105 0.52235t-0.30638 0.39176q-0.19086 0.16072-0.46208 0.24611-0.2662 0.08538-0.58262 0.08538-0.43194 0-0.72828-0.14566-0.29131-0.14063-0.50226-0.40181l0.36665-0.3566q0.15068 0.18584 0.37669 0.29131 0.23104 0.10548 0.48719 0.10548 0.1557 0 0.29633-0.0452 0.14566-0.04018 0.25615-0.13059 0.1105-0.09041 0.17077-0.23104 0.06529-0.14063 0.06529-0.33149v-0.33149q-0.13059 0.22602-0.36665 0.35158-0.23606 0.12054-0.50728 0.12054zm0.22602-0.53742q0.1105 0 0.21095-0.03516 0.10045-0.03516 0.18584-0.09543 0.08538-0.06027 0.15068-0.14063 0.06529-0.08036 0.10045-0.17077v-0.62782q-0.09041-0.23104-0.28629-0.37167-0.19086-0.14063-0.40181-0.14063-0.1557 0-0.28126 0.07032-0.12556 0.06529-0.21597 0.18081-0.09041 0.1105-0.14063 0.25615-0.0452 0.14566-0.0452 0.30136 0 0.16072 0.05525 0.30136 0.05525 0.14063 0.15068 0.24611 0.10045 0.10547 0.23104 0.16574 0.13059 0.06027 0.28629 0.06027z"/>
<path d="m58.598 65.314q-0.31642 0-0.57258-0.10548-0.25615-0.1105-0.43697-0.29633-0.18081-0.18584-0.28126-0.43194-0.09543-0.24611-0.09543-0.51733 0-0.28126 0.09543-0.52737 0.09543-0.25113 0.27624-0.43696 0.18081-0.19086 0.43696-0.30136 0.26118-0.1105 0.58262-0.1105 0.32144 0 0.57258 0.1105 0.25615 0.1105 0.43194 0.29633 0.18081 0.18584 0.27122 0.43194 0.09543 0.24611 0.09543 0.5123 0 0.06529-5e-3 0.12556 0 0.06027-0.01005 0.10045h-2.0342q0.01507 0.1557 0.07534 0.27624t0.1557 0.20593q0.09543 0.08538 0.21597 0.13059 0.12054 0.0452 0.25113 0.0452 0.2009 0 0.37669-0.09543 0.18081-0.10045 0.24611-0.26118l0.5776 0.16072q-0.14566 0.30136-0.4671 0.49724-0.31642 0.19086-0.75841 0.19086zm0.68307-1.5871q-0.02511-0.29633-0.22099-0.47212-0.19086-0.18081-0.4671-0.18081-0.13561 0-0.25615 0.05023-0.11552 0.0452-0.20593 0.13059-0.09041 0.08538-0.15068 0.20593-0.05525 0.12054-0.06529 0.2662z"/>
<path d="m62.812 65.314q-0.31642 0-0.57258-0.10548-0.25615-0.1105-0.43696-0.29633-0.18081-0.18584-0.28126-0.43194-0.09543-0.24611-0.09543-0.51733 0-0.28126 0.09543-0.52737 0.09543-0.25113 0.27624-0.43696 0.18081-0.19086 0.43696-0.30136 0.26118-0.1105 0.58262-0.1105t0.57258 0.1105q0.25615 0.1105 0.43194 0.29633 0.18081 0.18584 0.27122 0.43194 0.09543 0.24611 0.09543 0.5123 0 0.06529-5e-3 0.12556 0 0.06027-0.01004 0.10045h-2.0341q0.01507 0.1557 0.07534 0.27624t0.1557 0.20593q0.09543 0.08538 0.21597 0.13059 0.12054 0.0452 0.25113 0.0452 0.2009 0 0.3767-0.09543 0.18081-0.10045 0.24611-0.26118l0.5776 0.16072q-0.14566 0.30136-0.4671 0.49724-0.31642 0.19086-0.75841 0.19086zm0.68307-1.5871q-0.02511-0.29633-0.22099-0.47212-0.19086-0.18081-0.4671-0.18081-0.13561 0-0.25615 0.05023-0.11552 0.0452-0.20593 0.13059-0.09041 0.08538-0.15068 0.20593-0.05525 0.12054-0.06529 0.2662z"/>
<path d="m64.6 65.264v-2.6318h0.67303v2.6318zm0-2.9985v-0.668h0.67303v0.668z"/>
<path d="m68.327 65.264h-0.67303v-1.4766q0-0.31642-0.1105-0.46208t-0.30638-0.14566q-0.10045 0-0.20593 0.04018-0.10548 0.04018-0.2009 0.11552-0.09041 0.07032-0.16574 0.17077-0.07534 0.10045-0.1105 0.22099v1.5369h-0.67303v-2.6318h0.60773v0.48719q0.14566-0.25113 0.4219-0.39176 0.27624-0.14063 0.6228-0.14063 0.24611 0 0.40181 0.09041t0.24108 0.23606q0.08538 0.14566 0.11552 0.33149 0.03516 0.18584 0.03516 0.3767z"/>
<path d="m70.481 63.215q-0.30638 5e-3 -0.54746 0.12054-0.24108 0.1105-0.34656 0.33651v1.5922h-0.67303v-2.6318h0.61778v0.56253q0.07032-0.13561 0.16575-0.24108 0.09543-0.1105 0.20593-0.19086 0.1105-0.08036 0.22099-0.12054 0.11552-0.0452 0.22099-0.0452 0.05525 0 0.08036 0 0.03014 0 0.05525 5e-3z"/>
<path d="m70.858 65.264v-2.6318h0.67303v2.6318zm0-2.9985v-0.668h0.67303v0.668z"/>
<path d="m71.973 63.948q0-0.27624 0.09543-0.52235t0.27624-0.43194q0.18081-0.18584 0.43696-0.29633t0.5776-0.1105q0.43194 0 0.7333 0.18584 0.30638 0.18584 0.45706 0.48719l-0.65796 0.2009q-0.08538-0.14566-0.22602-0.22099-0.14063-0.08036-0.3114-0.08036-0.14566 0-0.27122 0.06027-0.12556 0.05525-0.22099 0.16072-0.09041 0.10045-0.14566 0.24611-0.05023 0.14566-0.05023 0.32145t0.05525 0.32145 0.14566 0.25113q0.09543 0.10548 0.22099 0.16575 0.12556 0.05525 0.2662 0.05525 0.18081 0 0.33149-0.09041 0.1557-0.09041 0.21597-0.22099l0.65796 0.2009q-0.13561 0.30136-0.44701 0.49221-0.3114 0.19086-0.74837 0.19086-0.32145 0-0.5776-0.1105t-0.43696-0.29633q-0.18081-0.19086-0.28126-0.43697-0.09543-0.25113-0.09543-0.52235z"/>
<path d="m77.418 65.264h-0.67303v-1.4766q0-0.3114-0.11552-0.45706-0.11552-0.15068-0.32647-0.15068-0.09041 0-0.19086 0.04018-0.10045 0.04018-0.19086 0.11552-0.09041 0.07032-0.16574 0.17077-0.07534 0.10045-0.1105 0.22099v1.5369h-0.67303v-3.6665h0.67303v1.5218q0.14566-0.25615 0.39176-0.39176 0.25113-0.14063 0.55248-0.14063 0.25615 0 0.41688 0.09041 0.16072 0.08538 0.25113 0.23104 0.09041 0.14566 0.12556 0.33149 0.03516 0.18584 0.03516 0.38172z"/>
<path d="m79.557 65.129q-0.13561 0.06027-0.33149 0.12054-0.19588 0.06027-0.41185 0.06027-0.14063 0-0.2662-0.03516-0.12054-0.03516-0.21597-0.1105-0.09041-0.08036-0.14566-0.2009-0.05525-0.12556-0.05525-0.30136v-1.5118h-0.34656v-0.51733h0.34656v-0.85384h0.67303v0.85384h0.55248v0.51733h-0.55248v1.2858q0 0.14063 0.07032 0.2009 0.07534 0.05525 0.18081 0.05525 0.10548 0 0.20593-0.03516 0.10045-0.03516 0.16072-0.06027z"/>
<path d="m81.064 65.314q-0.31642 0-0.57258-0.10548-0.25615-0.1105-0.43696-0.29633-0.18081-0.18584-0.28126-0.43194-0.09543-0.24611-0.09543-0.51733 0-0.28126 0.09543-0.52737 0.09543-0.25113 0.27624-0.43696 0.18081-0.19086 0.43696-0.30136 0.26118-0.1105 0.58262-0.1105t0.57258 0.1105q0.25615 0.1105 0.43194 0.29633 0.18081 0.18584 0.27122 0.43194 0.09543 0.24611 0.09543 0.5123 0 0.06529-5e-3 0.12556 0 0.06027-0.01005 0.10045h-2.0341q0.01507 0.1557 0.07534 0.27624t0.1557 0.20593q0.09543 0.08538 0.21597 0.13059 0.12054 0.0452 0.25113 0.0452 0.2009 0 0.37669-0.09543 0.18081-0.10045 0.24611-0.26118l0.5776 0.16072q-0.14566 0.30136-0.4671 0.49724-0.31642 0.19086-0.75841 0.19086zm0.68307-1.5871q-0.02511-0.29633-0.22099-0.47212-0.19086-0.18081-0.4671-0.18081-0.13561 0-0.25615 0.05023-0.11552 0.0452-0.20593 0.13059-0.09041 0.08538-0.15068 0.20593-0.05525 0.12054-0.06529 0.2662z"/>
<path d="m85.298 65.264h-0.67303v-1.4766q0-0.31642-0.1105-0.46208t-0.30638-0.14566q-0.10045 0-0.20593 0.04018-0.10548 0.04018-0.2009 0.11552-0.09041 0.07032-0.16574 0.17077-0.07534 0.10045-0.1105 0.22099v1.5369h-0.67303v-2.6318h0.60773v0.48719q0.14566-0.25113 0.4219-0.39176 0.27624-0.14063 0.6228-0.14063 0.24611 0 0.40181 0.09041t0.24108 0.23606q0.08538 0.14566 0.11552 0.33149 0.03516 0.18584 0.03516 0.3767z"/>
<path d="m85.87 65.264v-0.72325h0.55248v0.72325zm0.94425 0v-0.72325h0.55248v0.72325zm0.94425 0v-0.72325h0.55248v0.72325z"/>
</g>
</g>
</g>
</svg>
