<?xml version="1.0" encoding="UTF-8"?>
<svg width="700" height="220" version="1.1" viewBox="0 0 185.21 58.208" xmlns="http://www.w3.org/2000/svg">
<g transform="translate(-18.958 -31.678)">
<g fill="#386582">
<g transform="matrix(.26458 0 0 .26458 -116.47 -316.67)" stroke-width="1.1453" aria-label="Вітаємо!">
<path d="m598.19 1393q0 2.0616-0.82464 3.6193-0.82465 1.5577-2.2907 2.6114-1.4202 1.0537-3.3444 1.6035-1.8784 0.5497-4.0316 0.5497h-15.714v-32.528h17.409q1.6951 0 3.0695 0.733 1.3744 0.733 2.3365 1.9242 0.96208 1.1453 1.466 2.6571 0.54977 1.4661 0.54977 2.9779 0 2.3823-1.1912 4.4898-1.1912 2.0616-3.4818 3.0695 2.7946 0.8246 4.3981 2.9779 1.6493 2.1074 1.6493 5.3143zm-6.3681-1.1911q0-0.8705-0.32069-1.6493-0.27488-0.8247-0.77883-1.4202-0.50395-0.5956-1.1912-0.9163-0.6872-0.3665-1.5118-0.3665h-9.7125v8.5671h9.3918q0.87046 0 1.6035-0.3207 0.77883-0.3207 1.3286-0.8704 0.54976-0.5956 0.87046-1.3744 0.32069-0.7789 0.32069-1.6493zm-13.515-17.547v8.2006h8.4297q1.6035 0 2.703-1.0995 1.1453-1.0995 1.1453-3.0237 0-1.8784-1.0537-2.9779-1.0079-1.0995-2.5197-1.0995z"/>
<path d="m603.09 1401.4v-24.006h6.139v24.006zm0-27.351v-6.0932h6.139v6.0932z"/>
<path d="m626.45 1401.4h-6.0932v-18.692h-7.5134v-5.3144h21.074v5.3144h-7.4676z"/>
<path d="m643.59 1401.8q-1.7409 0-3.2528-0.5498-1.5118-0.5956-2.6114-1.6035-1.0995-1.0537-1.7409-2.4281-0.59558-1.3744-0.59558-3.0237 0-1.6951 0.73302-3.1153 0.77883-1.4661 2.1074-2.474 1.3744-1.0079 3.2528-1.5576 1.8784-0.5956 4.1232-0.5956 1.6035 0 3.1153 0.2749 1.5577 0.2749 2.7488 0.7788v-1.3744q0-2.3823-1.3744-3.6651-1.3286-1.2828-3.9858-1.2828-1.9242 0-3.7567 0.6872t-3.7567 2.0158l-1.8784-3.8941q4.6272-3.0695 9.9874-3.0695 5.1769 0 8.0174 2.5655 2.8863 2.5198 2.8863 7.3302v7.4676q0 0.9621 0.32069 1.3744 0.36651 0.4124 1.1453 0.4582v5.2227q-1.5577 0.3207-2.703 0.3207-1.7409 0-2.703-0.7788-0.91627-0.7788-1.1453-2.0616l-0.13744-1.3286q-1.6035 2.1074-3.8942 3.2069-2.2907 1.0996-4.902 1.0996zm1.7409-4.4898q1.5577 0 2.9321-0.5497 1.4202-0.5498 2.1991-1.4661 1.0079-0.7788 1.0079-1.7409v-2.7488q-1.0995-0.4123-2.3823-0.6414-1.2828-0.2749-2.4739-0.2749-2.3823 0-3.8942 1.0996-1.5118 1.0537-1.5118 2.703 0 1.5576 1.1912 2.6113 1.1912 1.0079 2.9321 1.0079z"/>
<path d="m674.51 1401.8q-2.8404 0-5.1769-0.962-2.3365-1.0079-3.9858-2.703-1.6493-1.741-2.5656-3.9858-0.87046-2.2449-0.87046-4.8105 0-2.4739 0.87046-4.7188 0.87046-2.2448 2.5198-3.9399 1.6493-1.7409 3.9858-2.7488 2.3823-1.0079 5.3602-1.0079 3.5735 0 6.1848 1.5118 2.6572 1.5119 3.94 3.8484l-4.4439 3.0237q-0.45814-0.8705-1.1453-1.5119-0.64139-0.6414-1.4202-1.0537t-1.6035-0.5956q-0.82464-0.2291-1.5577-0.2291-1.2828 0-2.3365 0.4582-1.0079 0.4123-1.8326 1.1911-0.77883 0.7331-1.3286 1.6951-0.54977 0.9621-0.82465 2.0616h9.1627v4.0316h-9.1169q0.50395 2.4282 2.1532 3.9858 1.6951 1.5119 4.0316 1.5119 0.82465 0 1.6493-0.2291 0.87046-0.2291 1.6493-0.6414 0.77883-0.4581 1.3744-1.0995 0.64139-0.6872 1.0079-1.5119l4.902 2.7489q-0.54976 1.3744-1.6493 2.4281-1.0995 1.0537-2.5656 1.7867-1.4202 0.6872-3.0695 1.0537-1.6493 0.4123-3.2986 0.4123z"/>
<path d="m702.23 1390.1 7.1011-12.782h6.2765v24.006h-5.8641v-14.431l-6.0932 10.812h-2.8863l-6.0932-10.812v14.431h-5.8642v-24.006h6.3223z"/>
<path d="m732.37 1401.8q-2.9321 0-5.2686-1.0079-2.3365-1.0079-3.9858-2.703-1.6035-1.741-2.4739-3.9858-0.87046-2.2449-0.87046-4.7188 0-2.5198 0.87046-4.7646 0.87046-2.2449 2.4739-3.94 1.6493-1.7409 3.9858-2.7488 2.3365-1.0079 5.2686-1.0079t5.2228 1.0079q2.3365 1.0079 3.94 2.7488 1.6493 1.6951 2.5198 3.94 0.87046 2.2448 0.87046 4.7646 0 2.4739-0.87046 4.7188-0.87046 2.2448-2.4739 3.9858-1.6035 1.6951-3.94 2.703-2.3365 1.0079-5.2686 1.0079zm-6.2765-12.416q0 1.6035 0.45813 2.932 0.50395 1.2828 1.3286 2.2449 0.87046 0.9621 2.0158 1.5119 1.1453 0.5039 2.4739 0.5039 1.3286 0 2.4739-0.5039 1.1453-0.5498 1.97-1.5119 0.87046-0.9621 1.3286-2.2907 0.50395-1.3286 0.50395-2.932 0-1.5577-0.50395-2.8863-0.45813-1.3286-1.3286-2.2907-0.82464-0.9621-1.97-1.466-1.1453-0.5498-2.4739-0.5498-1.3286 0-2.4739 0.5498t-2.0158 1.5118q-0.82465 0.9621-1.3286 2.2907-0.45813 1.3286-0.45813 2.8863z"/>
<path d="m750.24 1389.1v-20.616h6.139v20.616zm0 12.232v-6.9178h6.139v6.9178z"/>
</g>
<g stroke-width=".12556" aria-label="Давайте налаштуємо            декілька речей…">
<path d="m36.271 59.711h0.12556q0.14566-5e-3 0.25615-0.08538 0.1105-0.08036 0.19588-0.29633 0.08538-0.21597 0.15068-0.59266 0.06529-0.38172 0.12054-0.97941l0.09041-1.0045h2.1597v2.9583h0.52737v1.4967h-0.64792v-0.889h-2.3255v0.889h-0.65294zm2.4058 0v-2.3506h-0.83877l-0.05023 0.54244q-0.06027 0.69814-0.17077 1.1351-0.10548 0.43696-0.27624 0.67303z"/>
<path d="m41.012 60.369q-0.19086 0-0.3566-0.06027-0.16575-0.06529-0.28629-0.17579-0.12054-0.11552-0.19086-0.2662-0.06529-0.15068-0.06529-0.33149 0-0.18584 0.08036-0.34154 0.08538-0.16072 0.23104-0.27122 0.15068-0.1105 0.3566-0.17077 0.20593-0.06529 0.45203-0.06529 0.17579 0 0.34154 0.03014 0.17077 0.03014 0.30136 0.08538v-0.15068q0-0.26118-0.15068-0.40181-0.14566-0.14063-0.43696-0.14063-0.21095 0-0.41185 0.07534-0.2009 0.07534-0.41185 0.22099l-0.20593-0.42693q0.50728-0.33651 1.0949-0.33651 0.56755 0 0.87895 0.28126 0.31642 0.27624 0.31642 0.80361v0.81868q0 0.10547 0.03516 0.15068 0.04018 0.0452 0.12556 0.05023v0.57258q-0.17077 0.03516-0.29633 0.03516-0.19086 0-0.29633-0.08538-0.10045-0.08538-0.12556-0.22602l-0.01507-0.14566q-0.17579 0.23104-0.42692 0.35158-0.25113 0.12054-0.53742 0.12054zm0.19086-0.49221q0.17077 0 0.32145-0.06027 0.1557-0.06027 0.24108-0.16072 0.1105-0.08538 0.1105-0.19086v-0.30136q-0.12054-0.0452-0.26118-0.07032-0.14063-0.03014-0.27122-0.03014-0.26117 0-0.42692 0.12054-0.16574 0.11552-0.16574 0.29633 0 0.17077 0.13059 0.28629 0.13059 0.1105 0.32145 0.1105z"/>
<path d="m44.759 57.687q0.14566 0 0.2662 0.05525 0.12054 0.05023 0.20593 0.14063 0.09041 0.09041 0.13561 0.21095 0.05023 0.12054 0.05023 0.25615 0 0.17077-0.09041 0.34656-0.09041 0.17077-0.29633 0.25615 0.23104 0.06529 0.36163 0.22602 0.13561 0.1557 0.13561 0.42692 0 0.36163-0.25113 0.53742-0.25113 0.17579-0.69312 0.17579h-1.3812v-2.6318zm-0.31642 1.0999q0.14063 0 0.22602-0.08036 0.08538-0.08036 0.08538-0.23104 0-0.12556-0.07534-0.21095-0.07032-0.09041-0.21597-0.09041h-0.59266v0.61276zm0.09041 1.0447q0.14566 0 0.23104-0.09543 0.09041-0.09543 0.09041-0.23104 0-0.14063-0.08538-0.23104-0.08538-0.09543-0.23104-0.09543h-0.668v0.65294z"/>
<path d="m46.703 60.369q-0.19086 0-0.3566-0.06027-0.16574-0.06529-0.28629-0.17579-0.12054-0.11552-0.19086-0.2662-0.06529-0.15068-0.06529-0.33149 0-0.18584 0.08036-0.34154 0.08538-0.16072 0.23104-0.27122 0.15068-0.1105 0.3566-0.17077 0.20593-0.06529 0.45203-0.06529 0.17579 0 0.34154 0.03014 0.17077 0.03014 0.30136 0.08538v-0.15068q0-0.26118-0.15068-0.40181-0.14566-0.14063-0.43696-0.14063-0.21095 0-0.41185 0.07534-0.2009 0.07534-0.41185 0.22099l-0.20593-0.42692q0.50728-0.33651 1.0949-0.33651 0.56755 0 0.87895 0.28126 0.31642 0.27624 0.31642 0.80361v0.81868q0 0.10547 0.03516 0.15068 0.04018 0.0452 0.12556 0.05023v0.57258q-0.17077 0.03516-0.29633 0.03516-0.19086 0-0.29633-0.08538-0.10045-0.08538-0.12556-0.22602l-0.01507-0.14566q-0.17579 0.23104-0.42692 0.35158-0.25113 0.12054-0.53742 0.12054zm0.19086-0.49221q0.17077 0 0.32144-0.06027 0.1557-0.06027 0.24108-0.16072 0.1105-0.08538 0.1105-0.19086v-0.30136q-0.12054-0.0452-0.26118-0.07032-0.14063-0.03014-0.27122-0.03014-0.26117 0-0.42692 0.12054-0.16574 0.11552-0.16574 0.29633 0 0.17077 0.13059 0.28629 0.13059 0.1105 0.32145 0.1105z"/>
<path d="m50.972 56.652q-0.01004 0.31642-0.23606 0.49724-0.22602 0.17579-0.59267 0.17579t-0.59267-0.17579q-0.22602-0.18081-0.23606-0.49724h0.37167q5e-3 0.19086 0.12054 0.28126 0.12054 0.09041 0.33651 0.09041 0.43194 0 0.46208-0.37167zm-1.4164 2.7072 1.2456-1.6725h0.49724v2.6318h-0.668v-1.6273l-1.2305 1.6273h-0.5123v-2.6318h0.668z"/>
<path d="m53.192 60.319h-0.668v-2.0492h-0.8237v-0.58262h2.3104v0.58262h-0.81868z"/>
<path d="m55.498 60.369q-0.31642 0-0.57258-0.10547-0.25615-0.1105-0.43697-0.29633t-0.28126-0.43194q-0.09543-0.24611-0.09543-0.51733 0-0.28126 0.09543-0.52737 0.09543-0.25113 0.27624-0.43697 0.18081-0.19086 0.43696-0.30136 0.26118-0.1105 0.58262-0.1105 0.32145 0 0.57258 0.1105 0.25615 0.1105 0.43194 0.29633 0.18081 0.18584 0.27122 0.43194 0.09543 0.24611 0.09543 0.5123 0 0.06529-5e-3 0.12556 0 0.06027-0.01004 0.10045h-2.0341q0.01507 0.1557 0.07534 0.27624t0.1557 0.20593q0.09543 0.08538 0.21597 0.13059 0.12054 0.0452 0.25113 0.0452 0.2009 0 0.37669-0.09543 0.18081-0.10045 0.24611-0.26117l0.5776 0.16072q-0.14566 0.30136-0.4671 0.49724-0.31642 0.19086-0.75841 0.19086zm0.68307-1.5871q-0.02511-0.29633-0.22099-0.47212-0.19086-0.18081-0.4671-0.18081-0.13561 0-0.25615 0.05023-0.11552 0.0452-0.20593 0.13059-0.09041 0.08538-0.15068 0.20593-0.05525 0.12054-0.06529 0.2662z"/>
<path d="m59.169 58.682h1.0447v-0.99447h0.668v2.6318h-0.668v-1.0648h-1.0447v1.0648h-0.668v-2.6318h0.668z"/>
<path d="m62.218 60.369q-0.19086 0-0.3566-0.06027-0.16574-0.06529-0.28629-0.17579-0.12054-0.11552-0.19086-0.2662-0.06529-0.15068-0.06529-0.33149 0-0.18584 0.08036-0.34154 0.08538-0.16072 0.23104-0.27122 0.15068-0.1105 0.3566-0.17077 0.20593-0.06529 0.45203-0.06529 0.17579 0 0.34154 0.03014 0.17077 0.03014 0.30136 0.08538v-0.15068q0-0.26118-0.15068-0.40181-0.14566-0.14063-0.43697-0.14063-0.21095 0-0.41185 0.07534t-0.41185 0.22099l-0.20593-0.42692q0.50728-0.33651 1.0949-0.33651 0.56755 0 0.87895 0.28126 0.31642 0.27624 0.31642 0.80361v0.81868q0 0.10547 0.03516 0.15068 0.04018 0.0452 0.12556 0.05023v0.57258q-0.17077 0.03516-0.29633 0.03516-0.19086 0-0.29633-0.08538-0.10045-0.08538-0.12556-0.22602l-0.01507-0.14566q-0.17579 0.23104-0.42692 0.35158-0.25113 0.12054-0.53742 0.12054zm0.19086-0.49221q0.17077 0 0.32145-0.06027 0.1557-0.06027 0.24108-0.16072 0.1105-0.08538 0.1105-0.19086v-0.30136q-0.12054-0.0452-0.26117-0.07032-0.14063-0.03014-0.27122-0.03014-0.26118 0-0.42692 0.12054-0.16575 0.11552-0.16575 0.29633 0 0.17077 0.13059 0.28629 0.13059 0.1105 0.32144 0.1105z"/>
<path d="m64.126 59.746q0.14566-0.01004 0.23606-0.06027 0.09543-0.05023 0.1557-0.18584 0.06529-0.13561 0.10547-0.37167 0.0452-0.24108 0.09041-0.62782l0.09041-0.81366h1.8433v2.6318h-0.668v-2.0693h-0.58764l-0.05022 0.39678q-0.06027 0.49724-0.14566 0.8237-0.08538 0.32145-0.22099 0.5123-0.13059 0.19086-0.32647 0.27122-0.19588 0.07534-0.48217 0.08538z"/>
<path d="m67.989 60.369q-0.19086 0-0.3566-0.06027-0.16574-0.06529-0.28629-0.17579-0.12054-0.11552-0.19086-0.2662-0.06529-0.15068-0.06529-0.33149 0-0.18584 0.08036-0.34154 0.08538-0.16072 0.23104-0.27122 0.15068-0.1105 0.3566-0.17077 0.20593-0.06529 0.45203-0.06529 0.17579 0 0.34154 0.03014 0.17077 0.03014 0.30136 0.08538v-0.15068q0-0.26118-0.15068-0.40181-0.14566-0.14063-0.43696-0.14063-0.21095 0-0.41185 0.07534-0.2009 0.07534-0.41185 0.22099l-0.20593-0.42692q0.50728-0.33651 1.0949-0.33651 0.56755 0 0.87895 0.28126 0.31642 0.27624 0.31642 0.80361v0.81868q0 0.10547 0.03516 0.15068 0.04018 0.0452 0.12556 0.05023v0.57258q-0.17077 0.03516-0.29633 0.03516-0.19086 0-0.29633-0.08538-0.10045-0.08538-0.12556-0.22602l-0.01507-0.14566q-0.17579 0.23104-0.42692 0.35158-0.25113 0.12054-0.53742 0.12054zm0.19086-0.49221q0.17077 0 0.32145-0.06027 0.1557-0.06027 0.24108-0.16072 0.1105-0.08538 0.1105-0.19086v-0.30136q-0.12054-0.0452-0.26118-0.07032-0.14063-0.03014-0.27122-0.03014-0.26117 0-0.42692 0.12054-0.16574 0.11552-0.16574 0.29633 0 0.17077 0.13059 0.28629 0.13059 0.1105 0.32145 0.1105z"/>
<path d="m70.174 60.319v-2.6318h0.668v2.0492h0.7333v-2.0492h0.668v2.0492h0.7333v-2.0492h0.668v2.6318z"/>
<path d="m75.538 60.319h-0.668v-2.0492h-0.8237v-0.58262h2.3104v0.58262h-0.81868z"/>
<path d="m76.823 60.791q0.08538 0.05023 0.16072 0.07032 0.08036 0.02009 0.15068 0.02009 0.12556 0 0.21597-0.12556 0.09041-0.12054 0.16072-0.43697l-1.0397-2.6318h0.69312l0.71321 2.0492 0.63285-2.0492h0.63285l-1.0347 2.9734q-0.15068 0.43194-0.37167 0.61778-0.21597 0.18584-0.5324 0.18584-0.11552 0-0.20593-0.02009-0.09041-0.02009-0.17579-0.07534z"/>
<path d="m80.636 60.364q-0.3114 0-0.56755-0.10548-0.25615-0.1105-0.43696-0.29633-0.18081-0.19086-0.28126-0.43697-0.09543-0.24611-0.09543-0.52737 0-0.27122 0.09543-0.51733 0.09543-0.24611 0.27624-0.43194 0.18081-0.19086 0.43697-0.30136 0.26117-0.1105 0.58764-0.1105 0.39176 0 0.67805 0.16575 0.29131 0.16574 0.43194 0.4219l-0.48719 0.33149q-0.05023-0.09543-0.12556-0.16574-0.07032-0.07032-0.1557-0.11552t-0.17579-0.06529q-0.09041-0.02511-0.17077-0.02511-0.14063 0-0.25615 0.05023-0.1105 0.0452-0.2009 0.13059-0.08538 0.08036-0.14566 0.18584-0.06027 0.10547-0.09041 0.22602h1.0045v0.44199h-0.9995q0.05525 0.2662 0.23606 0.43697 0.18584 0.16574 0.44199 0.16574 0.09041 0 0.18081-0.02511 0.09543-0.02511 0.18081-0.07032 0.08538-0.05023 0.15068-0.12054 0.07032-0.07534 0.1105-0.16575l0.53742 0.30136q-0.06027 0.15068-0.18081 0.2662-0.12054 0.11552-0.28126 0.19588-0.1557 0.07534-0.33651 0.11552-0.18081 0.0452-0.36163 0.0452z"/>
<path d="m83.674 59.088 0.7785-1.4013h0.68809v2.6318h-0.64289v-1.5821l-0.668 1.1853h-0.31642l-0.668-1.1853v1.5821h-0.64289v-2.6318h0.69312z"/>
<path d="m86.979 60.369q-0.32144 0-0.5776-0.1105-0.25615-0.1105-0.43696-0.29633-0.17579-0.19086-0.27122-0.43697-0.09543-0.24611-0.09543-0.51733 0-0.27624 0.09543-0.52235t0.27122-0.43194q0.18081-0.19086 0.43696-0.30136 0.25615-0.1105 0.5776-0.1105 0.32145 0 0.57258 0.1105 0.25615 0.1105 0.43194 0.30136 0.18081 0.18584 0.27624 0.43194 0.09543 0.24611 0.09543 0.52235 0 0.27122-0.09543 0.51733t-0.27122 0.43697q-0.17579 0.18584-0.43194 0.29633t-0.5776 0.1105zm-0.68809-1.3611q0 0.17579 0.05022 0.32145 0.05525 0.14063 0.14566 0.24611 0.09543 0.10548 0.22099 0.16575 0.12556 0.05525 0.27122 0.05525t0.27122-0.05525q0.12556-0.06027 0.21597-0.16575 0.09543-0.10547 0.14566-0.25113 0.05525-0.14566 0.05525-0.32145 0-0.17077-0.05525-0.31642-0.05023-0.14566-0.14566-0.25113-0.09041-0.10547-0.21597-0.16072-0.12556-0.06027-0.27122-0.06027t-0.27122 0.06027q-0.12556 0.06027-0.22099 0.16575-0.09041 0.10547-0.14566 0.25113-0.05022 0.14566-0.05022 0.31642z"/>
<path d="m49.521 66.269h0.14063q0.12054-0.01507 0.19588-0.07534 0.08036-0.06529 0.13561-0.2009 0.06027-0.14063 0.09543-0.37167 0.04018-0.23104 0.08036-0.58764l0.09041-0.81366h1.8433v2.0492h0.35158v1.336h-0.59769v-0.75339h-1.7579v0.75339h-0.5776zm1.9136 0v-1.4867h-0.58764l-0.05023 0.39678q-0.05023 0.40683-0.12556 0.66298-0.07032 0.25615-0.18081 0.42692z"/>
<path d="m54.101 66.902q-0.31642 0-0.57258-0.10547-0.25615-0.1105-0.43696-0.29633t-0.28126-0.43194q-0.09543-0.24611-0.09543-0.51733 0-0.28126 0.09543-0.52737 0.09543-0.25113 0.27624-0.43696 0.18081-0.19086 0.43697-0.30136 0.26117-0.1105 0.58262-0.1105t0.57258 0.1105q0.25615 0.1105 0.43194 0.29633 0.18081 0.18584 0.27122 0.43194 0.09543 0.24611 0.09543 0.5123 0 0.06529-5e-3 0.12556 0 0.06027-0.01004 0.10045h-2.0341q0.01507 0.1557 0.07534 0.27624 0.06027 0.12054 0.1557 0.20593 0.09543 0.08538 0.21597 0.13059 0.12054 0.0452 0.25113 0.0452 0.2009 0 0.37669-0.09543 0.18081-0.10045 0.24611-0.26118l0.5776 0.16072q-0.14566 0.30136-0.4671 0.49724-0.31642 0.19086-0.75841 0.19086zm0.68307-1.5871q-0.02511-0.29633-0.22099-0.47212-0.19086-0.18081-0.4671-0.18081-0.13561 0-0.25615 0.05023-0.11552 0.0452-0.20593 0.13059-0.09041 0.08538-0.15068 0.20593-0.05525 0.12054-0.06529 0.2662z"/>
<path d="m57.512 64.22h0.72325l-1.0246 1.2757 1.105 1.3561h-0.76343l-0.81366-1.0146h-0.17579v1.0146h-0.66298v-2.6318h0.66298v1.0447h0.15068z"/>
<path d="m58.607 66.852v-2.6318h0.67303v2.6318zm0-2.9985v-0.668h0.67303v0.668z"/>
<path d="m59.631 66.279q0.14566-0.01004 0.23606-0.06027 0.09543-0.05023 0.1557-0.18584 0.06529-0.13561 0.10548-0.37167 0.0452-0.24108 0.09041-0.62782l0.09041-0.81366h1.8433v2.6318h-0.668v-2.0693h-0.58764l-0.05023 0.39678q-0.06027 0.49724-0.14566 0.8237-0.08538 0.32145-0.22099 0.5123-0.13059 0.19086-0.32647 0.27122-0.19588 0.07534-0.48217 0.08538z"/>
<path d="m62.785 64.22h0.668v0.83375h0.5123q0.21095 0 0.39176 0.06027 0.18584 0.05525 0.32145 0.17077 0.13561 0.1105 0.21095 0.28126 0.08036 0.16575 0.08036 0.38172 0 0.22099-0.07534 0.39176-0.07534 0.16575-0.20593 0.28126-0.13059 0.11552-0.3114 0.17579-0.17579 0.05525-0.38674 0.05525h-1.2054zm1.1301 2.1045q0.17579 0 0.27624-0.09041 0.10045-0.09543 0.10045-0.27624t-0.10548-0.27624q-0.10547-0.10045-0.2662-0.10045h-0.4671v0.74334z"/>
<path d="m66.999 64.22h0.72325l-1.0246 1.2757 1.105 1.3561h-0.76343l-0.81366-1.0146h-0.17579v1.0146h-0.66298v-2.6318h0.66298v1.0447h0.15068z"/>
<path d="m68.777 66.902q-0.19086 0-0.3566-0.06027-0.16574-0.06529-0.28629-0.17579-0.12054-0.11552-0.19086-0.2662-0.06529-0.15068-0.06529-0.33149 0-0.18584 0.08036-0.34154 0.08538-0.16072 0.23104-0.27122 0.15068-0.1105 0.3566-0.17077 0.20593-0.06529 0.45203-0.06529 0.17579 0 0.34154 0.03014 0.17077 0.03014 0.30136 0.08538v-0.15068q0-0.26117-0.15068-0.40181-0.14566-0.14063-0.43696-0.14063-0.21095 0-0.41185 0.07534-0.2009 0.07534-0.41185 0.22099l-0.20593-0.42692q0.50728-0.33651 1.0949-0.33651 0.56755 0 0.87895 0.28126 0.31642 0.27624 0.31642 0.80361v0.81868q0 0.10548 0.03516 0.15068 0.04018 0.0452 0.12556 0.05023v0.57258q-0.17077 0.03516-0.29633 0.03516-0.19086 0-0.29633-0.08538-0.10045-0.08538-0.12556-0.22602l-0.01507-0.14566q-0.17579 0.23104-0.42692 0.35158-0.25113 0.12054-0.53742 0.12054zm0.19086-0.49221q0.17077 0 0.32144-0.06027 0.1557-0.06027 0.24108-0.16072 0.1105-0.08538 0.1105-0.19086v-0.30136q-0.12054-0.0452-0.26118-0.07032-0.14063-0.03014-0.27122-0.03014-0.26118 0-0.42692 0.12054-0.16575 0.11552-0.16575 0.29633 0 0.17077 0.13059 0.28629 0.13059 0.1105 0.32145 0.1105z"/>
<path d="m73.745 66.902q-0.3114 0-0.54244-0.13561-0.23104-0.14063-0.36163-0.37669v1.5319h-0.67303v-3.7016h0.58764v0.45203q0.14566-0.23104 0.37669-0.36163 0.23104-0.13561 0.5324-0.13561 0.2662 0 0.49221 0.1105 0.22602 0.10547 0.38674 0.29131 0.16575 0.18081 0.25615 0.43194 0.09543 0.24611 0.09543 0.52235 0 0.28629-0.08538 0.53742-0.08538 0.25113-0.24108 0.43697-0.15068 0.18584-0.36163 0.29131-0.21095 0.10547-0.46208 0.10547zm-0.22602-0.57258q0.15068 0 0.27624-0.06529 0.13059-0.06529 0.22099-0.17579 0.09041-0.1105 0.14063-0.25615 0.05023-0.14566 0.05023-0.30136 0-0.16574-0.05525-0.30638-0.05525-0.14566-0.1557-0.25113-0.09543-0.10548-0.23104-0.16575-0.13059-0.06027-0.28629-0.06027-0.09543 0-0.19588 0.03516-0.10045 0.03014-0.18584 0.09041-0.08538 0.06027-0.1557 0.14063-0.06529 0.08036-0.10045 0.17579v0.61778q0.09041 0.22602 0.27624 0.3767 0.18584 0.14566 0.40181 0.14566z"/>
<path d="m76.567 66.902q-0.31642 0-0.57258-0.10547-0.25615-0.1105-0.43697-0.29633-0.18081-0.18584-0.28126-0.43194-0.09543-0.24611-0.09543-0.51733 0-0.28126 0.09543-0.52737 0.09543-0.25113 0.27624-0.43696 0.18081-0.19086 0.43696-0.30136 0.26118-0.1105 0.58262-0.1105 0.32144 0 0.57258 0.1105 0.25615 0.1105 0.43194 0.29633 0.18081 0.18584 0.27122 0.43194 0.09543 0.24611 0.09543 0.5123 0 0.06529-5e-3 0.12556 0 0.06027-0.01005 0.10045h-2.0341q0.01507 0.1557 0.07534 0.27624 0.06027 0.12054 0.1557 0.20593 0.09543 0.08538 0.21597 0.13059 0.12054 0.0452 0.25113 0.0452 0.2009 0 0.37669-0.09543 0.18081-0.10045 0.24611-0.26118l0.5776 0.16072q-0.14566 0.30136-0.4671 0.49724-0.31642 0.19086-0.75841 0.19086zm0.68307-1.5871q-0.02511-0.29633-0.22099-0.47212-0.19086-0.18081-0.4671-0.18081-0.13561 0-0.25615 0.05023-0.11552 0.0452-0.20593 0.13059-0.09041 0.08538-0.15068 0.20593-0.05525 0.12054-0.06529 0.2662z"/>
<path d="m80.309 66.852h-0.65796v-0.93922q-0.11552 0.04018-0.24108 0.06027-0.12054 0.02009-0.30638 0.02009-0.22602 0-0.39176-0.07032-0.16574-0.07534-0.27624-0.19588-0.1105-0.12556-0.16575-0.29131-0.05525-0.16575-0.05525-0.3566v-0.85886h0.64791v0.75841q0 0.26118 0.10547 0.37167 0.10548 0.1105 0.29633 0.1105 0.14063 0 0.23104-0.02511 0.09543-0.03014 0.1557-0.07534v-1.1401h0.65796z"/>
<path d="m82.152 66.902q-0.31642 0-0.57258-0.10547-0.25615-0.1105-0.43696-0.29633t-0.28126-0.43194q-0.09543-0.24611-0.09543-0.51733 0-0.28126 0.09543-0.52737 0.09543-0.25113 0.27624-0.43696 0.18081-0.19086 0.43696-0.30136 0.26118-0.1105 0.58262-0.1105 0.32145 0 0.57258 0.1105 0.25615 0.1105 0.43194 0.29633 0.18081 0.18584 0.27122 0.43194 0.09543 0.24611 0.09543 0.5123 0 0.06529-5e-3 0.12556 0 0.06027-0.01005 0.10045h-2.0341q0.01507 0.1557 0.07534 0.27624 0.06027 0.12054 0.1557 0.20593 0.09543 0.08538 0.21597 0.13059 0.12054 0.0452 0.25113 0.0452 0.2009 0 0.37669-0.09543 0.18081-0.10045 0.24611-0.26118l0.5776 0.16072q-0.14566 0.30136-0.4671 0.49724-0.31642 0.19086-0.75841 0.19086zm0.68307-1.5871q-0.02511-0.29633-0.22099-0.47212-0.19086-0.18081-0.4671-0.18081-0.13561 0-0.25615 0.05023-0.11552 0.0452-0.20593 0.13059-0.09041 0.08538-0.15068 0.20593-0.05525 0.12054-0.06529 0.2662z"/>
<path d="m86.035 63.185q-0.01004 0.31642-0.23606 0.49724-0.22602 0.17579-0.59267 0.17579t-0.59267-0.17579q-0.22602-0.18081-0.23606-0.49724h0.37167q5e-3 0.19086 0.12054 0.28126 0.12054 0.09041 0.33651 0.09041 0.43194 0 0.46208-0.37167zm-1.4164 2.7072 1.2456-1.6725h0.49724v2.6318h-0.668v-1.6273l-1.2305 1.6273h-0.5123v-2.6318h0.668z"/>
<path d="m86.969 66.852v-0.72325h0.55248v0.72325zm0.94425 0v-0.72325h0.55248v0.72325zm0.94425 0v-0.72325h0.55248v0.72325z"/>
</g>
</g>
</g>
</svg>
