<?xml version="1.0" encoding="UTF-8" standalone="no"?>
<!DOCTYPE svg PUBLIC "-//W3C//DTD SVG 1.1//EN" "http://www.w3.org/Graphics/SVG/1.1/DTD/svg11.dtd">
<svg version="1.1" xmlns="http://www.w3.org/2000/svg" xmlns:xlink="http://www.w3.org/1999/xlink" preserveAspectRatio="xMidYMid meet" viewBox="0 0 24 24" width="24" height="24">
    <defs>
        <path d="M0 0L24 0L24 24L0 24L0 0Z" id="hy7ofG1yP"/>
        <path d="M21.43 3.05L21.63 3.1L21.82 3.18L22.01 3.27L22.18 3.39L22.34 3.52L22.48 3.66L22.61 3.82L22.73 3.99L22.82 4.18L22.9 4.37L22.95 4.57L22.99 4.78L23 5L23 19L22.99 19.22L22.95 19.43L22.9 19.63L22.82 19.82L22.73 20.01L22.61 20.18L22.48 20.34L22.34 20.48L22.18 20.61L22.01 20.73L21.82 20.82L21.63 20.9L21.43 20.95L21.22 20.99L21 21L3 21L2.78 20.99L2.57 20.95L2.37 20.9L2.18 20.82L1.99 20.73L1.82 20.61L1.66 20.48L1.52 20.34L1.39 20.18L1.27 20.01L1.18 19.82L1.1 19.63L1.05 19.43L1.01 19.22L1 19L1 5L1.01 4.78L1.05 4.57L1.1 4.37L1.18 4.18L1.27 3.99L1.39 3.82L1.52 3.66L1.66 3.52L1.82 3.39L1.99 3.27L2.18 3.18L2.37 3.1L2.57 3.05L2.78 3.01L3 3L21 3L21.22 3.01L21.43 3.05ZM3 19L21 19L21 9L13 9L13 5L3 5L3 19Z" id="d317Q6HIRv"/>
        <path d="M12.47 18.58L18.58 13.92L12.47 9.27L12.47 12.22L6 12.22L6 15.63L12.47 15.63L12.47 18.58Z" id="apAP1aaMC"/>
    </defs>
    <g>
        <g>
            <g>
                <use xlink:href="#hy7ofG1yP" opacity="1" fill="#000000" fill-opacity="0"/>
                <g>
                    <use xlink:href="#hy7ofG1yP" opacity="1" fill-opacity="0" stroke="#000000" stroke-width="1" stroke-opacity="0"/>
                </g>
            </g>
            <g>
                <use xlink:href="#d317Q6HIRv" opacity="1" fill="#000000" fill-opacity="1"/>
                <g>
                    <use xlink:href="#d317Q6HIRv" opacity="1" fill-opacity="0" stroke="#000000" stroke-width="1" stroke-opacity="0"/>
                </g>
            </g>
            <g>
                <use xlink:href="#apAP1aaMC" opacity="1" fill="#000000" fill-opacity="1"/>
            </g>
        </g>
    </g>
</svg>
